G04 EAGLE Gerber X2 export*
%TF.Part,Single*%
%TF.FileFunction,Other,silk bottom*%
%TF.FilePolarity,Positive*%
%TF.GenerationSoftware,Autodesk,EAGLE,9.6.2*%
%TF.CreationDate,2022-04-17T12:17:04Z*%
G75*
%MOMM*%
%FSLAX34Y34*%
%LPD*%
%INsilk bottom*%
%AMOC8*
5,1,8,0,0,1.08239X$1,22.5*%
G01*
%ADD10C,0.000000*%
%ADD11C,0.152400*%
%ADD12C,0.127000*%
%ADD13C,0.010000*%
%ADD14R,0.750000X0.750000*%


D10*
X0Y-36000D02*
X3000Y-39000D01*
X32500Y-39000D01*
X0Y113500D02*
X1000Y114500D01*
X0Y113500D02*
X0Y107500D01*
X0Y94000D02*
X0Y75000D01*
X1000Y74000D01*
X4000Y74000D01*
X5000Y73000D01*
X5000Y70000D02*
X4000Y69000D01*
X1000Y69000D01*
X0Y68000D01*
X5000Y70000D02*
X5000Y73000D01*
X0Y68000D02*
X0Y42500D01*
X1000Y41500D01*
X4000Y41500D01*
X5000Y40500D01*
X5000Y37500D02*
X4000Y36500D01*
X1000Y36500D01*
X0Y35500D01*
X5000Y37500D02*
X5000Y40500D01*
X0Y42000D02*
X0Y35500D01*
X0Y16500D02*
X1000Y15500D01*
X4000Y15500D01*
X5000Y14500D01*
X5000Y11500D02*
X4000Y10500D01*
X1000Y10500D01*
X0Y9500D01*
X5000Y11500D02*
X5000Y14500D01*
X0Y-16500D02*
X0Y-36000D01*
X0Y-9500D02*
X0Y9500D01*
X0Y16500D02*
X0Y35500D01*
X0Y-9500D02*
X1000Y-10500D01*
X4000Y-10500D02*
X5000Y-11500D01*
X4000Y-10500D02*
X1000Y-10500D01*
X5000Y-11500D02*
X5000Y-14500D01*
X4000Y-15500D01*
X1000Y-15500D01*
X0Y-16500D01*
X1000Y106500D02*
X0Y107500D01*
X1000Y106500D02*
X4000Y106500D01*
X5000Y105500D01*
X5000Y96000D01*
X4000Y95000D01*
X1000Y95000D01*
X0Y94000D01*
D11*
X47460Y-81118D02*
X49379Y-81118D01*
X49465Y-81116D01*
X49551Y-81110D01*
X49637Y-81101D01*
X49722Y-81087D01*
X49806Y-81070D01*
X49890Y-81049D01*
X49972Y-81024D01*
X50053Y-80996D01*
X50133Y-80964D01*
X50212Y-80928D01*
X50288Y-80889D01*
X50363Y-80846D01*
X50436Y-80801D01*
X50507Y-80752D01*
X50575Y-80699D01*
X50642Y-80644D01*
X50705Y-80586D01*
X50766Y-80525D01*
X50824Y-80462D01*
X50879Y-80395D01*
X50932Y-80327D01*
X50981Y-80256D01*
X51026Y-80183D01*
X51069Y-80108D01*
X51108Y-80032D01*
X51144Y-79953D01*
X51176Y-79873D01*
X51204Y-79792D01*
X51229Y-79710D01*
X51250Y-79626D01*
X51267Y-79542D01*
X51281Y-79457D01*
X51290Y-79371D01*
X51296Y-79285D01*
X51298Y-79199D01*
X51298Y-74401D01*
X51296Y-74315D01*
X51290Y-74229D01*
X51281Y-74143D01*
X51267Y-74058D01*
X51250Y-73974D01*
X51229Y-73890D01*
X51204Y-73808D01*
X51176Y-73727D01*
X51144Y-73647D01*
X51108Y-73568D01*
X51069Y-73492D01*
X51026Y-73417D01*
X50981Y-73344D01*
X50932Y-73273D01*
X50879Y-73205D01*
X50824Y-73138D01*
X50766Y-73075D01*
X50705Y-73014D01*
X50642Y-72956D01*
X50576Y-72901D01*
X50507Y-72849D01*
X50436Y-72799D01*
X50363Y-72754D01*
X50288Y-72711D01*
X50212Y-72672D01*
X50133Y-72636D01*
X50053Y-72604D01*
X49972Y-72576D01*
X49890Y-72551D01*
X49806Y-72530D01*
X49722Y-72513D01*
X49637Y-72499D01*
X49551Y-72490D01*
X49465Y-72484D01*
X49379Y-72482D01*
X47460Y-72482D01*
X44615Y-75361D02*
X41737Y-75361D01*
X43656Y-72482D02*
X43656Y-79679D01*
X43655Y-79679D02*
X43653Y-79754D01*
X43647Y-79829D01*
X43637Y-79904D01*
X43624Y-79978D01*
X43606Y-80051D01*
X43585Y-80124D01*
X43559Y-80195D01*
X43531Y-80264D01*
X43498Y-80332D01*
X43462Y-80399D01*
X43423Y-80463D01*
X43380Y-80525D01*
X43334Y-80585D01*
X43285Y-80642D01*
X43234Y-80697D01*
X43179Y-80748D01*
X43122Y-80797D01*
X43062Y-80843D01*
X43000Y-80886D01*
X42936Y-80925D01*
X42869Y-80961D01*
X42801Y-80994D01*
X42732Y-81022D01*
X42661Y-81048D01*
X42588Y-81069D01*
X42515Y-81087D01*
X42441Y-81100D01*
X42366Y-81110D01*
X42291Y-81116D01*
X42216Y-81118D01*
X41737Y-81118D01*
X37597Y-81118D02*
X37597Y-75361D01*
X34719Y-75361D01*
X34719Y-76320D01*
X31539Y-79679D02*
X31539Y-72482D01*
X31539Y-79679D02*
X31537Y-79754D01*
X31531Y-79829D01*
X31521Y-79904D01*
X31508Y-79978D01*
X31490Y-80051D01*
X31469Y-80124D01*
X31443Y-80195D01*
X31415Y-80264D01*
X31382Y-80332D01*
X31346Y-80399D01*
X31307Y-80463D01*
X31264Y-80525D01*
X31218Y-80585D01*
X31169Y-80642D01*
X31118Y-80697D01*
X31063Y-80748D01*
X31006Y-80797D01*
X30946Y-80843D01*
X30884Y-80886D01*
X30820Y-80925D01*
X30753Y-80961D01*
X30685Y-80994D01*
X30616Y-81022D01*
X30545Y-81048D01*
X30472Y-81069D01*
X30399Y-81087D01*
X30325Y-81100D01*
X30250Y-81110D01*
X30175Y-81116D01*
X30100Y-81118D01*
X27155Y-81118D02*
X27155Y-80638D01*
X26676Y-80638D01*
X26676Y-81118D01*
X27155Y-81118D01*
X226298Y-53118D02*
X226298Y-44482D01*
X223899Y-44482D01*
X223802Y-44484D01*
X223706Y-44490D01*
X223610Y-44499D01*
X223514Y-44513D01*
X223419Y-44530D01*
X223325Y-44552D01*
X223232Y-44577D01*
X223139Y-44605D01*
X223048Y-44638D01*
X222959Y-44674D01*
X222871Y-44714D01*
X222784Y-44757D01*
X222700Y-44803D01*
X222617Y-44853D01*
X222536Y-44907D01*
X222458Y-44963D01*
X222382Y-45023D01*
X222308Y-45085D01*
X222237Y-45151D01*
X222169Y-45219D01*
X222103Y-45290D01*
X222041Y-45364D01*
X221981Y-45440D01*
X221925Y-45518D01*
X221871Y-45599D01*
X221821Y-45681D01*
X221775Y-45766D01*
X221732Y-45853D01*
X221692Y-45941D01*
X221656Y-46030D01*
X221623Y-46121D01*
X221595Y-46214D01*
X221570Y-46307D01*
X221548Y-46401D01*
X221531Y-46496D01*
X221517Y-46592D01*
X221508Y-46688D01*
X221502Y-46784D01*
X221500Y-46881D01*
X221502Y-46978D01*
X221508Y-47074D01*
X221517Y-47170D01*
X221531Y-47266D01*
X221548Y-47361D01*
X221570Y-47455D01*
X221595Y-47548D01*
X221623Y-47641D01*
X221656Y-47732D01*
X221692Y-47821D01*
X221732Y-47909D01*
X221775Y-47996D01*
X221821Y-48080D01*
X221871Y-48163D01*
X221925Y-48244D01*
X221981Y-48322D01*
X222041Y-48398D01*
X222103Y-48472D01*
X222169Y-48543D01*
X222237Y-48611D01*
X222308Y-48677D01*
X222382Y-48739D01*
X222458Y-48799D01*
X222536Y-48855D01*
X222617Y-48909D01*
X222699Y-48959D01*
X222784Y-49005D01*
X222871Y-49048D01*
X222959Y-49088D01*
X223048Y-49124D01*
X223139Y-49157D01*
X223232Y-49185D01*
X223325Y-49210D01*
X223419Y-49232D01*
X223514Y-49249D01*
X223610Y-49263D01*
X223706Y-49272D01*
X223802Y-49278D01*
X223899Y-49280D01*
X226298Y-49280D01*
X223419Y-49280D02*
X221500Y-53118D01*
X216649Y-49760D02*
X214250Y-50719D01*
X216649Y-49760D02*
X216712Y-49733D01*
X216774Y-49702D01*
X216834Y-49667D01*
X216892Y-49630D01*
X216948Y-49589D01*
X217001Y-49546D01*
X217052Y-49499D01*
X217100Y-49450D01*
X217146Y-49398D01*
X217188Y-49343D01*
X217228Y-49286D01*
X217264Y-49228D01*
X217297Y-49167D01*
X217326Y-49105D01*
X217352Y-49041D01*
X217375Y-48975D01*
X217393Y-48909D01*
X217408Y-48841D01*
X217420Y-48773D01*
X217427Y-48705D01*
X217431Y-48636D01*
X217430Y-48567D01*
X217426Y-48498D01*
X217418Y-48429D01*
X217407Y-48361D01*
X217391Y-48294D01*
X217372Y-48227D01*
X217350Y-48162D01*
X217323Y-48098D01*
X217293Y-48036D01*
X217260Y-47976D01*
X217223Y-47917D01*
X217184Y-47861D01*
X217141Y-47806D01*
X217095Y-47755D01*
X217047Y-47706D01*
X216995Y-47659D01*
X216942Y-47616D01*
X216886Y-47576D01*
X216827Y-47539D01*
X216767Y-47505D01*
X216705Y-47474D01*
X216642Y-47447D01*
X216577Y-47424D01*
X216511Y-47404D01*
X216444Y-47388D01*
X216376Y-47375D01*
X216307Y-47367D01*
X216238Y-47362D01*
X216169Y-47361D01*
X216030Y-47364D01*
X215891Y-47372D01*
X215752Y-47383D01*
X215614Y-47397D01*
X215476Y-47415D01*
X215338Y-47436D01*
X215201Y-47461D01*
X215065Y-47490D01*
X214929Y-47522D01*
X214795Y-47557D01*
X214661Y-47596D01*
X214528Y-47638D01*
X214397Y-47684D01*
X214267Y-47733D01*
X214138Y-47785D01*
X214010Y-47840D01*
X214250Y-50719D02*
X214187Y-50746D01*
X214125Y-50777D01*
X214065Y-50812D01*
X214007Y-50849D01*
X213951Y-50890D01*
X213898Y-50933D01*
X213847Y-50980D01*
X213799Y-51029D01*
X213753Y-51081D01*
X213711Y-51136D01*
X213671Y-51193D01*
X213635Y-51251D01*
X213602Y-51312D01*
X213573Y-51375D01*
X213547Y-51438D01*
X213524Y-51504D01*
X213506Y-51570D01*
X213491Y-51638D01*
X213479Y-51706D01*
X213472Y-51774D01*
X213468Y-51843D01*
X213469Y-51912D01*
X213473Y-51981D01*
X213481Y-52050D01*
X213492Y-52118D01*
X213508Y-52185D01*
X213527Y-52252D01*
X213549Y-52317D01*
X213576Y-52381D01*
X213606Y-52443D01*
X213639Y-52503D01*
X213676Y-52562D01*
X213715Y-52618D01*
X213758Y-52673D01*
X213804Y-52724D01*
X213852Y-52773D01*
X213904Y-52820D01*
X213957Y-52863D01*
X214013Y-52903D01*
X214072Y-52940D01*
X214132Y-52974D01*
X214194Y-53005D01*
X214257Y-53032D01*
X214322Y-53055D01*
X214388Y-53075D01*
X214455Y-53091D01*
X214523Y-53104D01*
X214592Y-53112D01*
X214661Y-53117D01*
X214730Y-53118D01*
X214729Y-53117D02*
X214922Y-53112D01*
X215114Y-53103D01*
X215306Y-53088D01*
X215497Y-53070D01*
X215688Y-53047D01*
X215879Y-53019D01*
X216069Y-52987D01*
X216257Y-52950D01*
X216445Y-52909D01*
X216632Y-52863D01*
X216818Y-52813D01*
X217003Y-52759D01*
X217186Y-52700D01*
X217368Y-52637D01*
X210289Y-47361D02*
X207411Y-47361D01*
X209330Y-44482D02*
X209330Y-51679D01*
X209328Y-51754D01*
X209322Y-51829D01*
X209312Y-51904D01*
X209299Y-51978D01*
X209281Y-52051D01*
X209260Y-52124D01*
X209234Y-52195D01*
X209206Y-52264D01*
X209173Y-52332D01*
X209137Y-52398D01*
X209098Y-52463D01*
X209055Y-52525D01*
X209009Y-52585D01*
X208960Y-52642D01*
X208909Y-52697D01*
X208854Y-52748D01*
X208797Y-52797D01*
X208737Y-52843D01*
X208675Y-52886D01*
X208611Y-52925D01*
X208544Y-52961D01*
X208476Y-52994D01*
X208407Y-53022D01*
X208336Y-53048D01*
X208263Y-53069D01*
X208190Y-53087D01*
X208116Y-53100D01*
X208041Y-53110D01*
X207966Y-53116D01*
X207891Y-53118D01*
X207411Y-53118D01*
X204107Y-53118D02*
X204107Y-52638D01*
X203627Y-52638D01*
X203627Y-53118D01*
X204107Y-53118D01*
D10*
X5000Y114500D02*
X1000Y114500D01*
X5000Y114500D02*
X7500Y117000D01*
X7500Y122000D01*
X11500Y126000D01*
X270000Y126000D01*
X272000Y124000D01*
X272000Y112000D01*
X270000Y110000D01*
X129000Y110000D01*
X126000Y107000D02*
X126000Y104000D01*
X129000Y101000D02*
X295000Y101000D01*
X301000Y108000D02*
X301000Y128000D01*
X295000Y135000D02*
X175000Y135000D01*
X173000Y137000D01*
X173000Y149000D01*
X175000Y151000D01*
X339000Y151000D01*
X382500Y107500D01*
X1295500Y107500D02*
X1296000Y107000D01*
X1296000Y-46500D01*
X1295000Y-47500D01*
X1295500Y107500D02*
X1254000Y107500D01*
X1187000Y107500D02*
X382500Y107500D01*
X129000Y110000D02*
X128893Y109998D01*
X128786Y109992D01*
X128679Y109983D01*
X128573Y109969D01*
X128467Y109952D01*
X128362Y109931D01*
X128258Y109907D01*
X128155Y109878D01*
X128053Y109846D01*
X127952Y109811D01*
X127852Y109772D01*
X127754Y109729D01*
X127657Y109683D01*
X127562Y109633D01*
X127469Y109580D01*
X127378Y109524D01*
X127289Y109464D01*
X127202Y109402D01*
X127118Y109336D01*
X127035Y109267D01*
X126956Y109196D01*
X126879Y109121D01*
X126804Y109044D01*
X126733Y108965D01*
X126664Y108882D01*
X126598Y108798D01*
X126536Y108711D01*
X126476Y108622D01*
X126420Y108531D01*
X126367Y108438D01*
X126317Y108343D01*
X126271Y108246D01*
X126228Y108148D01*
X126189Y108048D01*
X126154Y107947D01*
X126122Y107845D01*
X126093Y107742D01*
X126069Y107638D01*
X126048Y107533D01*
X126031Y107427D01*
X126017Y107321D01*
X126008Y107214D01*
X126002Y107107D01*
X126000Y107000D01*
X126000Y104000D02*
X126002Y103893D01*
X126008Y103786D01*
X126017Y103679D01*
X126031Y103573D01*
X126048Y103467D01*
X126069Y103362D01*
X126093Y103258D01*
X126122Y103155D01*
X126154Y103053D01*
X126189Y102952D01*
X126228Y102852D01*
X126271Y102754D01*
X126317Y102657D01*
X126367Y102562D01*
X126420Y102469D01*
X126476Y102378D01*
X126536Y102289D01*
X126598Y102202D01*
X126664Y102118D01*
X126733Y102035D01*
X126804Y101956D01*
X126879Y101879D01*
X126956Y101804D01*
X127035Y101733D01*
X127118Y101664D01*
X127202Y101598D01*
X127289Y101536D01*
X127378Y101476D01*
X127469Y101420D01*
X127562Y101367D01*
X127657Y101317D01*
X127754Y101271D01*
X127852Y101228D01*
X127952Y101189D01*
X128053Y101154D01*
X128155Y101122D01*
X128258Y101093D01*
X128362Y101069D01*
X128467Y101048D01*
X128573Y101031D01*
X128679Y101017D01*
X128786Y101008D01*
X128893Y101002D01*
X129000Y101000D01*
X295000Y101000D02*
X295159Y101014D01*
X295318Y101033D01*
X295477Y101055D01*
X295635Y101081D01*
X295792Y101110D01*
X295948Y101144D01*
X296104Y101181D01*
X296258Y101223D01*
X296412Y101268D01*
X296564Y101316D01*
X296715Y101369D01*
X296865Y101425D01*
X297014Y101485D01*
X297160Y101549D01*
X297306Y101616D01*
X297449Y101686D01*
X297591Y101760D01*
X297731Y101838D01*
X297869Y101919D01*
X298005Y102003D01*
X298139Y102091D01*
X298270Y102182D01*
X298400Y102276D01*
X298527Y102373D01*
X298651Y102474D01*
X298774Y102577D01*
X298893Y102684D01*
X299010Y102793D01*
X299124Y102905D01*
X299235Y103020D01*
X299344Y103137D01*
X299450Y103257D01*
X299552Y103380D01*
X299652Y103505D01*
X299748Y103633D01*
X299842Y103763D01*
X299932Y103895D01*
X300019Y104030D01*
X300102Y104166D01*
X300182Y104305D01*
X300259Y104445D01*
X300332Y104587D01*
X300402Y104731D01*
X300468Y104877D01*
X300531Y105024D01*
X300590Y105173D01*
X300645Y105323D01*
X300696Y105475D01*
X300744Y105627D01*
X300788Y105781D01*
X300829Y105936D01*
X300865Y106092D01*
X300898Y106248D01*
X300926Y106406D01*
X300951Y106564D01*
X300972Y106722D01*
X300990Y106881D01*
X301003Y107041D01*
X301012Y107201D01*
X301018Y107360D01*
X301019Y107520D01*
X301017Y107680D01*
X301010Y107840D01*
X301000Y108000D01*
X301000Y128000D02*
X301021Y128153D01*
X301039Y128306D01*
X301053Y128459D01*
X301063Y128613D01*
X301069Y128767D01*
X301071Y128921D01*
X301069Y129074D01*
X301064Y129228D01*
X301054Y129382D01*
X301041Y129535D01*
X301023Y129688D01*
X301002Y129841D01*
X300977Y129993D01*
X300948Y130144D01*
X300915Y130294D01*
X300879Y130444D01*
X300839Y130592D01*
X300795Y130740D01*
X300747Y130886D01*
X300695Y131031D01*
X300640Y131175D01*
X300581Y131317D01*
X300519Y131458D01*
X300453Y131597D01*
X300384Y131735D01*
X300311Y131870D01*
X300235Y132004D01*
X300155Y132136D01*
X300072Y132265D01*
X299986Y132393D01*
X299896Y132518D01*
X299804Y132641D01*
X299708Y132762D01*
X299609Y132880D01*
X299508Y132996D01*
X299403Y133109D01*
X299296Y133219D01*
X299186Y133326D01*
X299073Y133431D01*
X298957Y133533D01*
X298839Y133632D01*
X298719Y133728D01*
X298596Y133820D01*
X298471Y133910D01*
X298343Y133996D01*
X298214Y134080D01*
X298082Y134159D01*
X297949Y134236D01*
X297813Y134309D01*
X297676Y134378D01*
X297537Y134445D01*
X297396Y134507D01*
X297254Y134566D01*
X297110Y134621D01*
X296965Y134673D01*
X296819Y134721D01*
X296672Y134765D01*
X296523Y134806D01*
X296374Y134843D01*
X296223Y134876D01*
X296072Y134905D01*
X295920Y134930D01*
X295768Y134951D01*
X295615Y134969D01*
X295461Y134982D01*
X295308Y134992D01*
X295154Y134998D01*
X295000Y135000D01*
X102000Y-52000D02*
X45500Y-52000D01*
X32500Y-39000D01*
X102000Y-52000D02*
X129000Y-25000D01*
X473000Y-31000D02*
X473000Y-34000D01*
X467000Y-40000D02*
X176000Y-40000D01*
X174000Y-42000D01*
X174000Y-55000D01*
X176000Y-57000D01*
X467000Y-24999D02*
X467148Y-24990D01*
X467296Y-24985D01*
X467445Y-24983D01*
X467593Y-24985D01*
X467741Y-24992D01*
X467889Y-25002D01*
X468036Y-25016D01*
X468184Y-25034D01*
X468330Y-25056D01*
X468476Y-25082D01*
X468621Y-25112D01*
X468766Y-25145D01*
X468909Y-25183D01*
X469052Y-25224D01*
X469193Y-25269D01*
X469333Y-25317D01*
X469472Y-25370D01*
X469609Y-25426D01*
X469745Y-25485D01*
X469879Y-25549D01*
X470011Y-25615D01*
X470142Y-25686D01*
X470270Y-25759D01*
X470397Y-25836D01*
X470521Y-25917D01*
X470644Y-26000D01*
X470764Y-26087D01*
X470882Y-26177D01*
X470997Y-26270D01*
X471110Y-26367D01*
X471220Y-26466D01*
X471328Y-26568D01*
X471432Y-26672D01*
X471534Y-26780D01*
X471633Y-26890D01*
X471730Y-27003D01*
X471823Y-27118D01*
X471913Y-27236D01*
X472000Y-27356D01*
X472083Y-27479D01*
X472164Y-27603D01*
X472241Y-27730D01*
X472314Y-27858D01*
X472385Y-27989D01*
X472451Y-28121D01*
X472515Y-28255D01*
X472574Y-28391D01*
X472630Y-28528D01*
X472683Y-28667D01*
X472731Y-28807D01*
X472776Y-28948D01*
X472817Y-29091D01*
X472855Y-29234D01*
X472888Y-29379D01*
X472918Y-29524D01*
X472944Y-29670D01*
X472966Y-29816D01*
X472984Y-29964D01*
X472998Y-30111D01*
X473008Y-30259D01*
X473015Y-30407D01*
X473017Y-30555D01*
X473015Y-30704D01*
X473010Y-30852D01*
X473001Y-31000D01*
X473001Y-34000D02*
X473010Y-34148D01*
X473015Y-34296D01*
X473017Y-34445D01*
X473015Y-34593D01*
X473008Y-34741D01*
X472998Y-34889D01*
X472984Y-35036D01*
X472966Y-35184D01*
X472944Y-35330D01*
X472918Y-35476D01*
X472888Y-35621D01*
X472855Y-35766D01*
X472817Y-35909D01*
X472776Y-36052D01*
X472731Y-36193D01*
X472683Y-36333D01*
X472630Y-36472D01*
X472574Y-36609D01*
X472515Y-36745D01*
X472451Y-36879D01*
X472385Y-37011D01*
X472314Y-37142D01*
X472241Y-37270D01*
X472164Y-37397D01*
X472083Y-37521D01*
X472000Y-37644D01*
X471913Y-37764D01*
X471823Y-37882D01*
X471730Y-37997D01*
X471633Y-38110D01*
X471534Y-38220D01*
X471432Y-38328D01*
X471328Y-38432D01*
X471220Y-38534D01*
X471110Y-38633D01*
X470997Y-38730D01*
X470882Y-38823D01*
X470764Y-38913D01*
X470644Y-39000D01*
X470521Y-39083D01*
X470397Y-39164D01*
X470270Y-39241D01*
X470142Y-39314D01*
X470011Y-39385D01*
X469879Y-39451D01*
X469745Y-39515D01*
X469609Y-39574D01*
X469472Y-39630D01*
X469333Y-39683D01*
X469193Y-39731D01*
X469052Y-39776D01*
X468909Y-39817D01*
X468766Y-39855D01*
X468621Y-39888D01*
X468476Y-39918D01*
X468330Y-39944D01*
X468184Y-39966D01*
X468036Y-39984D01*
X467889Y-39998D01*
X467741Y-40008D01*
X467593Y-40015D01*
X467445Y-40017D01*
X467296Y-40015D01*
X467148Y-40010D01*
X467000Y-40001D01*
X467000Y-25000D02*
X129000Y-25000D01*
X7000Y-85000D02*
X5000Y-83000D01*
X5000Y-71000D01*
X7000Y-69000D01*
X72000Y-69000D01*
X81000Y-60000D01*
X108000Y-60000D01*
X117000Y-51000D01*
X152000Y-51000D01*
X165000Y-64000D01*
X180000Y-64000D01*
X391000Y-56999D02*
X391148Y-56990D01*
X391296Y-56985D01*
X391445Y-56983D01*
X391593Y-56985D01*
X391741Y-56992D01*
X391889Y-57002D01*
X392036Y-57016D01*
X392184Y-57034D01*
X392330Y-57056D01*
X392476Y-57082D01*
X392621Y-57112D01*
X392766Y-57145D01*
X392909Y-57183D01*
X393052Y-57224D01*
X393193Y-57269D01*
X393333Y-57317D01*
X393472Y-57370D01*
X393609Y-57426D01*
X393745Y-57485D01*
X393879Y-57549D01*
X394011Y-57615D01*
X394142Y-57686D01*
X394270Y-57759D01*
X394397Y-57836D01*
X394521Y-57917D01*
X394644Y-58000D01*
X394764Y-58087D01*
X394882Y-58177D01*
X394997Y-58270D01*
X395110Y-58367D01*
X395220Y-58466D01*
X395328Y-58568D01*
X395432Y-58672D01*
X395534Y-58780D01*
X395633Y-58890D01*
X395730Y-59003D01*
X395823Y-59118D01*
X395913Y-59236D01*
X396000Y-59356D01*
X396083Y-59479D01*
X396164Y-59603D01*
X396241Y-59730D01*
X396314Y-59858D01*
X396385Y-59989D01*
X396451Y-60121D01*
X396515Y-60255D01*
X396574Y-60391D01*
X396630Y-60528D01*
X396683Y-60667D01*
X396731Y-60807D01*
X396776Y-60948D01*
X396817Y-61091D01*
X396855Y-61234D01*
X396888Y-61379D01*
X396918Y-61524D01*
X396944Y-61670D01*
X396966Y-61816D01*
X396984Y-61964D01*
X396998Y-62111D01*
X397008Y-62259D01*
X397015Y-62407D01*
X397017Y-62555D01*
X397015Y-62704D01*
X397010Y-62852D01*
X397001Y-63000D01*
X397000Y-63000D02*
X397000Y-66000D01*
X397001Y-66000D02*
X397010Y-66148D01*
X397015Y-66296D01*
X397017Y-66445D01*
X397015Y-66593D01*
X397008Y-66741D01*
X396998Y-66889D01*
X396984Y-67036D01*
X396966Y-67184D01*
X396944Y-67330D01*
X396918Y-67476D01*
X396888Y-67621D01*
X396855Y-67766D01*
X396817Y-67909D01*
X396776Y-68052D01*
X396731Y-68193D01*
X396683Y-68333D01*
X396630Y-68472D01*
X396574Y-68609D01*
X396515Y-68745D01*
X396451Y-68879D01*
X396385Y-69011D01*
X396314Y-69142D01*
X396241Y-69270D01*
X396164Y-69397D01*
X396083Y-69521D01*
X396000Y-69644D01*
X395913Y-69764D01*
X395823Y-69882D01*
X395730Y-69997D01*
X395633Y-70110D01*
X395534Y-70220D01*
X395432Y-70328D01*
X395328Y-70432D01*
X395220Y-70534D01*
X395110Y-70633D01*
X394997Y-70730D01*
X394882Y-70823D01*
X394764Y-70913D01*
X394644Y-71000D01*
X394521Y-71083D01*
X394397Y-71164D01*
X394270Y-71241D01*
X394142Y-71314D01*
X394011Y-71385D01*
X393879Y-71451D01*
X393745Y-71515D01*
X393609Y-71574D01*
X393472Y-71630D01*
X393333Y-71683D01*
X393193Y-71731D01*
X393052Y-71776D01*
X392909Y-71817D01*
X392766Y-71855D01*
X392621Y-71888D01*
X392476Y-71918D01*
X392330Y-71944D01*
X392184Y-71966D01*
X392036Y-71984D01*
X391889Y-71998D01*
X391741Y-72008D01*
X391593Y-72015D01*
X391445Y-72017D01*
X391296Y-72015D01*
X391148Y-72010D01*
X391000Y-72001D01*
X391000Y-72000D02*
X188000Y-72000D01*
X180000Y-64000D01*
X176000Y-57000D02*
X391000Y-57000D01*
X72000Y-85000D02*
X7000Y-85000D01*
X72000Y-85000D02*
X86000Y-99000D01*
X474500Y-99000D01*
X526000Y-47500D01*
X1187000Y-47500D02*
X1200500Y-61000D01*
X1240500Y-61000D01*
X1254000Y-47500D01*
X1295000Y-47500D01*
X1187000Y-47500D02*
X526000Y-47500D01*
D12*
X372425Y-79316D02*
X372423Y-79159D01*
X372417Y-79002D01*
X372408Y-78846D01*
X372395Y-78689D01*
X372378Y-78533D01*
X372357Y-78378D01*
X372333Y-78223D01*
X372305Y-78068D01*
X372273Y-77914D01*
X372237Y-77762D01*
X372198Y-77610D01*
X372155Y-77459D01*
X372109Y-77309D01*
X372059Y-77160D01*
X372005Y-77013D01*
X371948Y-76866D01*
X371887Y-76722D01*
X371823Y-76578D01*
X371755Y-76437D01*
X371684Y-76297D01*
X371610Y-76158D01*
X371533Y-76022D01*
X371452Y-75888D01*
X371368Y-75755D01*
X371280Y-75625D01*
X371190Y-75496D01*
X371097Y-75370D01*
X371000Y-75246D01*
X370901Y-75125D01*
X372425Y-79316D02*
X372423Y-79473D01*
X372417Y-79630D01*
X372408Y-79786D01*
X372395Y-79943D01*
X372378Y-80099D01*
X372357Y-80254D01*
X372333Y-80409D01*
X372305Y-80564D01*
X372273Y-80718D01*
X372237Y-80870D01*
X372198Y-81022D01*
X372155Y-81173D01*
X372109Y-81323D01*
X372059Y-81472D01*
X372005Y-81619D01*
X371948Y-81766D01*
X371887Y-81910D01*
X371823Y-82054D01*
X371755Y-82195D01*
X371684Y-82335D01*
X371610Y-82474D01*
X371533Y-82610D01*
X371452Y-82744D01*
X371368Y-82877D01*
X371280Y-83007D01*
X371190Y-83136D01*
X371097Y-83262D01*
X371000Y-83386D01*
X370901Y-83507D01*
X367430Y-82745D02*
X367430Y-75887D01*
X365525Y-75887D01*
X365440Y-75889D01*
X365354Y-75895D01*
X365269Y-75904D01*
X365185Y-75918D01*
X365101Y-75935D01*
X365018Y-75956D01*
X364936Y-75980D01*
X364856Y-76008D01*
X364776Y-76040D01*
X364698Y-76076D01*
X364622Y-76114D01*
X364548Y-76157D01*
X364476Y-76202D01*
X364405Y-76251D01*
X364337Y-76303D01*
X364272Y-76357D01*
X364209Y-76415D01*
X364148Y-76476D01*
X364090Y-76539D01*
X364036Y-76604D01*
X363984Y-76672D01*
X363935Y-76743D01*
X363890Y-76815D01*
X363847Y-76889D01*
X363809Y-76965D01*
X363773Y-77043D01*
X363741Y-77123D01*
X363713Y-77203D01*
X363689Y-77285D01*
X363668Y-77368D01*
X363651Y-77452D01*
X363637Y-77536D01*
X363628Y-77621D01*
X363622Y-77707D01*
X363620Y-77792D01*
X363622Y-77877D01*
X363628Y-77963D01*
X363637Y-78048D01*
X363651Y-78132D01*
X363668Y-78216D01*
X363689Y-78299D01*
X363713Y-78381D01*
X363741Y-78461D01*
X363773Y-78541D01*
X363809Y-78619D01*
X363847Y-78695D01*
X363890Y-78769D01*
X363935Y-78841D01*
X363984Y-78912D01*
X364036Y-78980D01*
X364090Y-79045D01*
X364148Y-79108D01*
X364209Y-79169D01*
X364272Y-79227D01*
X364337Y-79281D01*
X364405Y-79333D01*
X364476Y-79382D01*
X364548Y-79427D01*
X364622Y-79470D01*
X364698Y-79508D01*
X364776Y-79544D01*
X364856Y-79576D01*
X364936Y-79604D01*
X365018Y-79628D01*
X365101Y-79649D01*
X365185Y-79666D01*
X365269Y-79680D01*
X365354Y-79689D01*
X365440Y-79695D01*
X365525Y-79697D01*
X367430Y-79697D01*
X365144Y-79697D02*
X363620Y-82745D01*
X360185Y-77411D02*
X358280Y-75887D01*
X358280Y-82745D01*
X360185Y-82745D02*
X356375Y-82745D01*
X353217Y-83507D02*
X353118Y-83386D01*
X353021Y-83262D01*
X352928Y-83136D01*
X352838Y-83007D01*
X352750Y-82877D01*
X352666Y-82744D01*
X352585Y-82610D01*
X352508Y-82474D01*
X352434Y-82335D01*
X352363Y-82195D01*
X352295Y-82054D01*
X352231Y-81910D01*
X352170Y-81766D01*
X352113Y-81619D01*
X352059Y-81472D01*
X352009Y-81323D01*
X351963Y-81173D01*
X351920Y-81022D01*
X351881Y-80870D01*
X351845Y-80718D01*
X351813Y-80564D01*
X351785Y-80409D01*
X351761Y-80254D01*
X351740Y-80099D01*
X351723Y-79943D01*
X351710Y-79786D01*
X351701Y-79630D01*
X351695Y-79473D01*
X351693Y-79316D01*
X351695Y-79159D01*
X351701Y-79002D01*
X351710Y-78846D01*
X351723Y-78689D01*
X351740Y-78533D01*
X351761Y-78378D01*
X351785Y-78223D01*
X351813Y-78068D01*
X351845Y-77914D01*
X351881Y-77762D01*
X351920Y-77610D01*
X351963Y-77459D01*
X352009Y-77309D01*
X352059Y-77160D01*
X352113Y-77013D01*
X352170Y-76866D01*
X352231Y-76722D01*
X352295Y-76578D01*
X352363Y-76437D01*
X352434Y-76297D01*
X352508Y-76158D01*
X352585Y-76022D01*
X352666Y-75888D01*
X352750Y-75755D01*
X352838Y-75625D01*
X352928Y-75496D01*
X353021Y-75370D01*
X353118Y-75246D01*
X353217Y-75125D01*
X344716Y-82745D02*
X340144Y-75887D01*
X344716Y-75887D02*
X340144Y-82745D01*
X337020Y-80840D02*
X337020Y-77792D01*
X337018Y-77707D01*
X337012Y-77621D01*
X337003Y-77536D01*
X336989Y-77452D01*
X336972Y-77368D01*
X336951Y-77285D01*
X336927Y-77203D01*
X336899Y-77123D01*
X336867Y-77043D01*
X336831Y-76965D01*
X336793Y-76889D01*
X336750Y-76815D01*
X336705Y-76743D01*
X336656Y-76672D01*
X336604Y-76604D01*
X336550Y-76539D01*
X336492Y-76476D01*
X336431Y-76415D01*
X336368Y-76357D01*
X336303Y-76303D01*
X336235Y-76251D01*
X336164Y-76202D01*
X336092Y-76157D01*
X336018Y-76114D01*
X335942Y-76076D01*
X335864Y-76040D01*
X335784Y-76008D01*
X335704Y-75980D01*
X335622Y-75956D01*
X335539Y-75935D01*
X335455Y-75918D01*
X335371Y-75904D01*
X335286Y-75895D01*
X335200Y-75889D01*
X335115Y-75887D01*
X335030Y-75889D01*
X334944Y-75895D01*
X334859Y-75904D01*
X334775Y-75918D01*
X334691Y-75935D01*
X334608Y-75956D01*
X334526Y-75980D01*
X334446Y-76008D01*
X334366Y-76040D01*
X334288Y-76076D01*
X334212Y-76114D01*
X334138Y-76157D01*
X334066Y-76202D01*
X333995Y-76251D01*
X333927Y-76303D01*
X333862Y-76357D01*
X333799Y-76415D01*
X333738Y-76476D01*
X333680Y-76539D01*
X333626Y-76604D01*
X333574Y-76672D01*
X333525Y-76743D01*
X333480Y-76815D01*
X333437Y-76889D01*
X333399Y-76965D01*
X333363Y-77043D01*
X333331Y-77123D01*
X333303Y-77203D01*
X333279Y-77285D01*
X333258Y-77368D01*
X333241Y-77452D01*
X333227Y-77536D01*
X333218Y-77621D01*
X333212Y-77707D01*
X333210Y-77792D01*
X333210Y-80840D01*
X333212Y-80925D01*
X333218Y-81011D01*
X333227Y-81096D01*
X333241Y-81180D01*
X333258Y-81264D01*
X333279Y-81347D01*
X333303Y-81429D01*
X333331Y-81509D01*
X333363Y-81589D01*
X333399Y-81667D01*
X333437Y-81743D01*
X333480Y-81817D01*
X333525Y-81889D01*
X333574Y-81960D01*
X333626Y-82028D01*
X333680Y-82093D01*
X333738Y-82156D01*
X333799Y-82217D01*
X333862Y-82275D01*
X333927Y-82329D01*
X333995Y-82381D01*
X334066Y-82430D01*
X334138Y-82475D01*
X334212Y-82518D01*
X334288Y-82556D01*
X334366Y-82592D01*
X334446Y-82624D01*
X334526Y-82652D01*
X334608Y-82676D01*
X334691Y-82697D01*
X334775Y-82714D01*
X334859Y-82728D01*
X334944Y-82737D01*
X335030Y-82743D01*
X335115Y-82745D01*
X335200Y-82743D01*
X335286Y-82737D01*
X335371Y-82728D01*
X335455Y-82714D01*
X335539Y-82697D01*
X335622Y-82676D01*
X335704Y-82652D01*
X335784Y-82624D01*
X335864Y-82592D01*
X335942Y-82556D01*
X336018Y-82518D01*
X336092Y-82475D01*
X336164Y-82430D01*
X336235Y-82381D01*
X336303Y-82329D01*
X336368Y-82275D01*
X336431Y-82217D01*
X336492Y-82156D01*
X336550Y-82093D01*
X336604Y-82028D01*
X336656Y-81960D01*
X336705Y-81889D01*
X336750Y-81817D01*
X336793Y-81743D01*
X336831Y-81667D01*
X336867Y-81589D01*
X336899Y-81509D01*
X336927Y-81429D01*
X336951Y-81347D01*
X336972Y-81264D01*
X336989Y-81180D01*
X337003Y-81096D01*
X337012Y-81011D01*
X337018Y-80925D01*
X337020Y-80840D01*
X329391Y-82745D02*
X329391Y-75887D01*
X327486Y-75887D01*
X327401Y-75889D01*
X327315Y-75895D01*
X327230Y-75904D01*
X327146Y-75918D01*
X327062Y-75935D01*
X326979Y-75956D01*
X326897Y-75980D01*
X326817Y-76008D01*
X326737Y-76040D01*
X326659Y-76076D01*
X326583Y-76114D01*
X326509Y-76157D01*
X326437Y-76202D01*
X326366Y-76251D01*
X326298Y-76303D01*
X326233Y-76357D01*
X326170Y-76415D01*
X326109Y-76476D01*
X326051Y-76539D01*
X325997Y-76604D01*
X325945Y-76672D01*
X325896Y-76743D01*
X325851Y-76815D01*
X325808Y-76889D01*
X325770Y-76965D01*
X325734Y-77043D01*
X325702Y-77123D01*
X325674Y-77203D01*
X325650Y-77285D01*
X325629Y-77368D01*
X325612Y-77452D01*
X325598Y-77536D01*
X325589Y-77621D01*
X325583Y-77707D01*
X325581Y-77792D01*
X325583Y-77877D01*
X325589Y-77963D01*
X325598Y-78048D01*
X325612Y-78132D01*
X325629Y-78216D01*
X325650Y-78299D01*
X325674Y-78381D01*
X325702Y-78461D01*
X325734Y-78541D01*
X325770Y-78619D01*
X325808Y-78695D01*
X325851Y-78769D01*
X325896Y-78841D01*
X325945Y-78912D01*
X325997Y-78980D01*
X326051Y-79045D01*
X326109Y-79108D01*
X326170Y-79169D01*
X326233Y-79227D01*
X326298Y-79281D01*
X326366Y-79333D01*
X326437Y-79382D01*
X326509Y-79427D01*
X326583Y-79470D01*
X326659Y-79508D01*
X326737Y-79544D01*
X326817Y-79576D01*
X326897Y-79604D01*
X326979Y-79628D01*
X327062Y-79649D01*
X327146Y-79666D01*
X327230Y-79680D01*
X327315Y-79689D01*
X327401Y-79695D01*
X327486Y-79697D01*
X329391Y-79697D01*
X327105Y-79697D02*
X325581Y-82745D01*
X318293Y-79316D02*
X318291Y-79159D01*
X318285Y-79002D01*
X318276Y-78846D01*
X318263Y-78689D01*
X318246Y-78533D01*
X318225Y-78378D01*
X318201Y-78223D01*
X318173Y-78068D01*
X318141Y-77914D01*
X318105Y-77762D01*
X318066Y-77610D01*
X318023Y-77459D01*
X317977Y-77309D01*
X317927Y-77160D01*
X317873Y-77013D01*
X317816Y-76866D01*
X317755Y-76722D01*
X317691Y-76578D01*
X317623Y-76437D01*
X317552Y-76297D01*
X317478Y-76158D01*
X317401Y-76022D01*
X317320Y-75888D01*
X317236Y-75755D01*
X317148Y-75625D01*
X317058Y-75496D01*
X316965Y-75370D01*
X316868Y-75246D01*
X316769Y-75125D01*
X318293Y-79316D02*
X318291Y-79473D01*
X318285Y-79630D01*
X318276Y-79786D01*
X318263Y-79943D01*
X318246Y-80099D01*
X318225Y-80254D01*
X318201Y-80409D01*
X318173Y-80564D01*
X318141Y-80718D01*
X318105Y-80870D01*
X318066Y-81022D01*
X318023Y-81173D01*
X317977Y-81323D01*
X317927Y-81472D01*
X317873Y-81619D01*
X317816Y-81766D01*
X317755Y-81910D01*
X317691Y-82054D01*
X317623Y-82195D01*
X317552Y-82335D01*
X317478Y-82474D01*
X317401Y-82610D01*
X317320Y-82744D01*
X317236Y-82877D01*
X317148Y-83007D01*
X317058Y-83136D01*
X316965Y-83262D01*
X316868Y-83386D01*
X316769Y-83507D01*
X312119Y-82745D02*
X310595Y-82745D01*
X312119Y-82745D02*
X312196Y-82743D01*
X312273Y-82737D01*
X312350Y-82727D01*
X312426Y-82714D01*
X312501Y-82696D01*
X312575Y-82675D01*
X312648Y-82650D01*
X312720Y-82621D01*
X312790Y-82589D01*
X312859Y-82554D01*
X312925Y-82514D01*
X312990Y-82472D01*
X313052Y-82426D01*
X313112Y-82377D01*
X313169Y-82326D01*
X313224Y-82271D01*
X313275Y-82214D01*
X313324Y-82154D01*
X313370Y-82092D01*
X313412Y-82027D01*
X313452Y-81961D01*
X313487Y-81892D01*
X313519Y-81822D01*
X313548Y-81750D01*
X313573Y-81677D01*
X313594Y-81603D01*
X313612Y-81528D01*
X313625Y-81452D01*
X313635Y-81375D01*
X313641Y-81298D01*
X313643Y-81221D01*
X313643Y-77411D01*
X313641Y-77334D01*
X313635Y-77257D01*
X313625Y-77180D01*
X313612Y-77104D01*
X313594Y-77029D01*
X313573Y-76955D01*
X313548Y-76882D01*
X313519Y-76810D01*
X313487Y-76740D01*
X313452Y-76671D01*
X313412Y-76605D01*
X313370Y-76540D01*
X313324Y-76478D01*
X313275Y-76418D01*
X313224Y-76361D01*
X313169Y-76306D01*
X313112Y-76255D01*
X313052Y-76206D01*
X312990Y-76160D01*
X312925Y-76118D01*
X312859Y-76078D01*
X312790Y-76043D01*
X312720Y-76011D01*
X312648Y-75982D01*
X312575Y-75957D01*
X312501Y-75936D01*
X312426Y-75918D01*
X312350Y-75905D01*
X312273Y-75895D01*
X312196Y-75889D01*
X312119Y-75887D01*
X310595Y-75887D01*
X307515Y-77411D02*
X305610Y-75887D01*
X305610Y-82745D01*
X307515Y-82745D02*
X303705Y-82745D01*
X300721Y-82745D02*
X300340Y-82745D01*
X300721Y-82745D02*
X300721Y-82364D01*
X300340Y-82364D01*
X300340Y-82745D01*
X300912Y-84269D01*
X297030Y-80840D02*
X297030Y-75887D01*
X297030Y-80840D02*
X297028Y-80925D01*
X297022Y-81011D01*
X297013Y-81096D01*
X296999Y-81180D01*
X296982Y-81264D01*
X296961Y-81347D01*
X296937Y-81429D01*
X296909Y-81509D01*
X296877Y-81589D01*
X296841Y-81667D01*
X296803Y-81743D01*
X296760Y-81817D01*
X296715Y-81889D01*
X296666Y-81960D01*
X296614Y-82028D01*
X296560Y-82093D01*
X296502Y-82156D01*
X296441Y-82217D01*
X296378Y-82275D01*
X296313Y-82329D01*
X296245Y-82381D01*
X296174Y-82430D01*
X296102Y-82475D01*
X296028Y-82518D01*
X295952Y-82556D01*
X295874Y-82592D01*
X295794Y-82624D01*
X295714Y-82652D01*
X295632Y-82676D01*
X295549Y-82697D01*
X295465Y-82714D01*
X295381Y-82728D01*
X295296Y-82737D01*
X295210Y-82743D01*
X295125Y-82745D01*
X295040Y-82743D01*
X294954Y-82737D01*
X294869Y-82728D01*
X294785Y-82714D01*
X294701Y-82697D01*
X294618Y-82676D01*
X294536Y-82652D01*
X294456Y-82624D01*
X294376Y-82592D01*
X294298Y-82556D01*
X294222Y-82518D01*
X294148Y-82475D01*
X294076Y-82430D01*
X294005Y-82381D01*
X293937Y-82329D01*
X293872Y-82275D01*
X293809Y-82217D01*
X293748Y-82156D01*
X293690Y-82093D01*
X293636Y-82028D01*
X293584Y-81960D01*
X293535Y-81889D01*
X293490Y-81817D01*
X293447Y-81743D01*
X293409Y-81667D01*
X293373Y-81589D01*
X293341Y-81509D01*
X293313Y-81429D01*
X293289Y-81347D01*
X293268Y-81264D01*
X293251Y-81180D01*
X293237Y-81096D01*
X293228Y-81011D01*
X293222Y-80925D01*
X293220Y-80840D01*
X293220Y-75887D01*
X289471Y-77411D02*
X287566Y-75887D01*
X287566Y-82745D01*
X289471Y-82745D02*
X285661Y-82745D01*
X282677Y-82745D02*
X282296Y-82745D01*
X282677Y-82745D02*
X282677Y-82364D01*
X282296Y-82364D01*
X282296Y-82745D01*
X282867Y-84269D01*
X279230Y-82745D02*
X277325Y-82745D01*
X277240Y-82743D01*
X277154Y-82737D01*
X277069Y-82728D01*
X276985Y-82714D01*
X276901Y-82697D01*
X276818Y-82676D01*
X276736Y-82652D01*
X276656Y-82624D01*
X276576Y-82592D01*
X276498Y-82556D01*
X276422Y-82518D01*
X276348Y-82475D01*
X276276Y-82430D01*
X276205Y-82381D01*
X276137Y-82329D01*
X276072Y-82275D01*
X276009Y-82217D01*
X275948Y-82156D01*
X275890Y-82093D01*
X275836Y-82028D01*
X275784Y-81960D01*
X275735Y-81889D01*
X275690Y-81817D01*
X275647Y-81743D01*
X275609Y-81667D01*
X275573Y-81589D01*
X275541Y-81509D01*
X275513Y-81429D01*
X275489Y-81347D01*
X275468Y-81264D01*
X275451Y-81180D01*
X275437Y-81096D01*
X275428Y-81011D01*
X275422Y-80925D01*
X275420Y-80840D01*
X275422Y-80755D01*
X275428Y-80669D01*
X275437Y-80584D01*
X275451Y-80500D01*
X275468Y-80416D01*
X275489Y-80333D01*
X275513Y-80251D01*
X275541Y-80171D01*
X275573Y-80091D01*
X275609Y-80013D01*
X275647Y-79937D01*
X275690Y-79863D01*
X275735Y-79791D01*
X275784Y-79720D01*
X275836Y-79652D01*
X275890Y-79587D01*
X275948Y-79524D01*
X276009Y-79463D01*
X276072Y-79405D01*
X276137Y-79351D01*
X276205Y-79299D01*
X276276Y-79250D01*
X276348Y-79205D01*
X276422Y-79162D01*
X276498Y-79124D01*
X276576Y-79088D01*
X276656Y-79056D01*
X276736Y-79028D01*
X276818Y-79004D01*
X276901Y-78983D01*
X276985Y-78966D01*
X277069Y-78952D01*
X277154Y-78943D01*
X277240Y-78937D01*
X277325Y-78935D01*
X276944Y-75887D02*
X279230Y-75887D01*
X276944Y-75887D02*
X276867Y-75889D01*
X276790Y-75895D01*
X276713Y-75905D01*
X276637Y-75918D01*
X276562Y-75936D01*
X276488Y-75957D01*
X276415Y-75982D01*
X276343Y-76011D01*
X276273Y-76043D01*
X276204Y-76078D01*
X276138Y-76118D01*
X276073Y-76160D01*
X276011Y-76206D01*
X275951Y-76255D01*
X275894Y-76306D01*
X275839Y-76361D01*
X275788Y-76418D01*
X275739Y-76478D01*
X275693Y-76540D01*
X275651Y-76605D01*
X275611Y-76671D01*
X275576Y-76740D01*
X275544Y-76810D01*
X275515Y-76882D01*
X275490Y-76955D01*
X275469Y-77029D01*
X275451Y-77104D01*
X275438Y-77180D01*
X275428Y-77257D01*
X275422Y-77334D01*
X275420Y-77411D01*
X275422Y-77488D01*
X275428Y-77565D01*
X275438Y-77642D01*
X275451Y-77718D01*
X275469Y-77793D01*
X275490Y-77867D01*
X275515Y-77940D01*
X275544Y-78012D01*
X275576Y-78082D01*
X275611Y-78151D01*
X275651Y-78217D01*
X275693Y-78282D01*
X275739Y-78344D01*
X275788Y-78404D01*
X275839Y-78461D01*
X275894Y-78516D01*
X275951Y-78567D01*
X276011Y-78616D01*
X276073Y-78662D01*
X276138Y-78704D01*
X276204Y-78744D01*
X276273Y-78779D01*
X276343Y-78811D01*
X276415Y-78840D01*
X276488Y-78865D01*
X276562Y-78886D01*
X276637Y-78904D01*
X276713Y-78917D01*
X276790Y-78927D01*
X276867Y-78933D01*
X276944Y-78935D01*
X278468Y-78935D01*
X272296Y-75887D02*
X270010Y-82745D01*
X267724Y-75887D01*
X264600Y-82745D02*
X262695Y-82745D01*
X262610Y-82743D01*
X262524Y-82737D01*
X262439Y-82728D01*
X262355Y-82714D01*
X262271Y-82697D01*
X262188Y-82676D01*
X262106Y-82652D01*
X262026Y-82624D01*
X261946Y-82592D01*
X261868Y-82556D01*
X261792Y-82518D01*
X261718Y-82475D01*
X261646Y-82430D01*
X261575Y-82381D01*
X261507Y-82329D01*
X261442Y-82275D01*
X261379Y-82217D01*
X261318Y-82156D01*
X261260Y-82093D01*
X261206Y-82028D01*
X261154Y-81960D01*
X261105Y-81889D01*
X261060Y-81817D01*
X261017Y-81743D01*
X260979Y-81667D01*
X260943Y-81589D01*
X260911Y-81509D01*
X260883Y-81429D01*
X260859Y-81347D01*
X260838Y-81264D01*
X260821Y-81180D01*
X260807Y-81096D01*
X260798Y-81011D01*
X260792Y-80925D01*
X260790Y-80840D01*
X260792Y-80755D01*
X260798Y-80669D01*
X260807Y-80584D01*
X260821Y-80500D01*
X260838Y-80416D01*
X260859Y-80333D01*
X260883Y-80251D01*
X260911Y-80171D01*
X260943Y-80091D01*
X260979Y-80013D01*
X261017Y-79937D01*
X261060Y-79863D01*
X261105Y-79791D01*
X261154Y-79720D01*
X261206Y-79652D01*
X261260Y-79587D01*
X261318Y-79524D01*
X261379Y-79463D01*
X261442Y-79405D01*
X261507Y-79351D01*
X261575Y-79299D01*
X261646Y-79250D01*
X261718Y-79205D01*
X261792Y-79162D01*
X261868Y-79124D01*
X261946Y-79088D01*
X262026Y-79056D01*
X262106Y-79028D01*
X262188Y-79004D01*
X262271Y-78983D01*
X262355Y-78966D01*
X262439Y-78952D01*
X262524Y-78943D01*
X262610Y-78937D01*
X262695Y-78935D01*
X262314Y-75887D02*
X264600Y-75887D01*
X262314Y-75887D02*
X262237Y-75889D01*
X262160Y-75895D01*
X262083Y-75905D01*
X262007Y-75918D01*
X261932Y-75936D01*
X261858Y-75957D01*
X261785Y-75982D01*
X261713Y-76011D01*
X261643Y-76043D01*
X261574Y-76078D01*
X261508Y-76118D01*
X261443Y-76160D01*
X261381Y-76206D01*
X261321Y-76255D01*
X261264Y-76306D01*
X261209Y-76361D01*
X261158Y-76418D01*
X261109Y-76478D01*
X261063Y-76540D01*
X261021Y-76605D01*
X260981Y-76671D01*
X260946Y-76740D01*
X260914Y-76810D01*
X260885Y-76882D01*
X260860Y-76955D01*
X260839Y-77029D01*
X260821Y-77104D01*
X260808Y-77180D01*
X260798Y-77257D01*
X260792Y-77334D01*
X260790Y-77411D01*
X260792Y-77488D01*
X260798Y-77565D01*
X260808Y-77642D01*
X260821Y-77718D01*
X260839Y-77793D01*
X260860Y-77867D01*
X260885Y-77940D01*
X260914Y-78012D01*
X260946Y-78082D01*
X260981Y-78151D01*
X261021Y-78217D01*
X261063Y-78282D01*
X261109Y-78344D01*
X261158Y-78404D01*
X261209Y-78461D01*
X261264Y-78516D01*
X261321Y-78567D01*
X261381Y-78616D01*
X261443Y-78662D01*
X261508Y-78704D01*
X261574Y-78744D01*
X261643Y-78779D01*
X261713Y-78811D01*
X261785Y-78840D01*
X261858Y-78865D01*
X261932Y-78886D01*
X262007Y-78904D01*
X262083Y-78917D01*
X262160Y-78927D01*
X262237Y-78933D01*
X262314Y-78935D01*
X263838Y-78935D01*
X257632Y-83507D02*
X257533Y-83386D01*
X257436Y-83262D01*
X257343Y-83136D01*
X257253Y-83007D01*
X257165Y-82877D01*
X257081Y-82744D01*
X257000Y-82610D01*
X256923Y-82474D01*
X256849Y-82335D01*
X256778Y-82195D01*
X256710Y-82054D01*
X256646Y-81910D01*
X256585Y-81766D01*
X256528Y-81619D01*
X256474Y-81472D01*
X256424Y-81323D01*
X256378Y-81173D01*
X256335Y-81022D01*
X256296Y-80870D01*
X256260Y-80718D01*
X256228Y-80564D01*
X256200Y-80409D01*
X256176Y-80254D01*
X256155Y-80099D01*
X256138Y-79943D01*
X256125Y-79786D01*
X256116Y-79630D01*
X256110Y-79473D01*
X256108Y-79316D01*
X256110Y-79159D01*
X256116Y-79002D01*
X256125Y-78846D01*
X256138Y-78689D01*
X256155Y-78533D01*
X256176Y-78378D01*
X256200Y-78223D01*
X256228Y-78068D01*
X256260Y-77914D01*
X256296Y-77762D01*
X256335Y-77610D01*
X256378Y-77459D01*
X256424Y-77309D01*
X256474Y-77160D01*
X256528Y-77013D01*
X256585Y-76866D01*
X256646Y-76722D01*
X256710Y-76578D01*
X256778Y-76437D01*
X256849Y-76297D01*
X256923Y-76158D01*
X257000Y-76022D01*
X257081Y-75888D01*
X257165Y-75755D01*
X257253Y-75625D01*
X257343Y-75496D01*
X257436Y-75370D01*
X257533Y-75246D01*
X257632Y-75125D01*
X185425Y-93745D02*
X183520Y-93745D01*
X183435Y-93743D01*
X183349Y-93737D01*
X183264Y-93728D01*
X183180Y-93714D01*
X183096Y-93697D01*
X183013Y-93676D01*
X182931Y-93652D01*
X182851Y-93624D01*
X182771Y-93592D01*
X182693Y-93556D01*
X182617Y-93518D01*
X182543Y-93475D01*
X182471Y-93430D01*
X182400Y-93381D01*
X182332Y-93329D01*
X182267Y-93275D01*
X182204Y-93217D01*
X182143Y-93156D01*
X182085Y-93093D01*
X182031Y-93028D01*
X181979Y-92960D01*
X181930Y-92889D01*
X181885Y-92817D01*
X181842Y-92743D01*
X181804Y-92667D01*
X181768Y-92589D01*
X181736Y-92509D01*
X181708Y-92429D01*
X181684Y-92347D01*
X181663Y-92264D01*
X181646Y-92180D01*
X181632Y-92096D01*
X181623Y-92011D01*
X181617Y-91925D01*
X181615Y-91840D01*
X181617Y-91755D01*
X181623Y-91669D01*
X181632Y-91584D01*
X181646Y-91500D01*
X181663Y-91416D01*
X181684Y-91333D01*
X181708Y-91251D01*
X181736Y-91171D01*
X181768Y-91091D01*
X181804Y-91013D01*
X181842Y-90937D01*
X181885Y-90863D01*
X181930Y-90791D01*
X181979Y-90720D01*
X182031Y-90652D01*
X182085Y-90587D01*
X182143Y-90524D01*
X182204Y-90463D01*
X182267Y-90405D01*
X182332Y-90351D01*
X182400Y-90299D01*
X182471Y-90250D01*
X182543Y-90205D01*
X182617Y-90162D01*
X182693Y-90124D01*
X182771Y-90088D01*
X182851Y-90056D01*
X182931Y-90028D01*
X183013Y-90004D01*
X183096Y-89983D01*
X183180Y-89966D01*
X183264Y-89952D01*
X183349Y-89943D01*
X183435Y-89937D01*
X183520Y-89935D01*
X183139Y-86887D02*
X185425Y-86887D01*
X183139Y-86887D02*
X183062Y-86889D01*
X182985Y-86895D01*
X182908Y-86905D01*
X182832Y-86918D01*
X182757Y-86936D01*
X182683Y-86957D01*
X182610Y-86982D01*
X182538Y-87011D01*
X182468Y-87043D01*
X182399Y-87078D01*
X182333Y-87118D01*
X182268Y-87160D01*
X182206Y-87206D01*
X182146Y-87255D01*
X182089Y-87306D01*
X182034Y-87361D01*
X181983Y-87418D01*
X181934Y-87478D01*
X181888Y-87540D01*
X181846Y-87605D01*
X181806Y-87671D01*
X181771Y-87740D01*
X181739Y-87810D01*
X181710Y-87882D01*
X181685Y-87955D01*
X181664Y-88029D01*
X181646Y-88104D01*
X181633Y-88180D01*
X181623Y-88257D01*
X181617Y-88334D01*
X181615Y-88411D01*
X181617Y-88488D01*
X181623Y-88565D01*
X181633Y-88642D01*
X181646Y-88718D01*
X181664Y-88793D01*
X181685Y-88867D01*
X181710Y-88940D01*
X181739Y-89012D01*
X181771Y-89082D01*
X181806Y-89151D01*
X181846Y-89217D01*
X181888Y-89282D01*
X181934Y-89344D01*
X181983Y-89404D01*
X182034Y-89461D01*
X182089Y-89516D01*
X182146Y-89567D01*
X182206Y-89616D01*
X182268Y-89662D01*
X182333Y-89704D01*
X182399Y-89744D01*
X182468Y-89779D01*
X182538Y-89811D01*
X182610Y-89840D01*
X182683Y-89865D01*
X182757Y-89886D01*
X182832Y-89904D01*
X182908Y-89917D01*
X182985Y-89927D01*
X183062Y-89933D01*
X183139Y-89935D01*
X184663Y-89935D01*
X178491Y-86887D02*
X176205Y-93745D01*
X173919Y-86887D01*
X170795Y-93745D02*
X168890Y-93745D01*
X168805Y-93743D01*
X168719Y-93737D01*
X168634Y-93728D01*
X168550Y-93714D01*
X168466Y-93697D01*
X168383Y-93676D01*
X168301Y-93652D01*
X168221Y-93624D01*
X168141Y-93592D01*
X168063Y-93556D01*
X167987Y-93518D01*
X167913Y-93475D01*
X167841Y-93430D01*
X167770Y-93381D01*
X167702Y-93329D01*
X167637Y-93275D01*
X167574Y-93217D01*
X167513Y-93156D01*
X167455Y-93093D01*
X167401Y-93028D01*
X167349Y-92960D01*
X167300Y-92889D01*
X167255Y-92817D01*
X167212Y-92743D01*
X167174Y-92667D01*
X167138Y-92589D01*
X167106Y-92509D01*
X167078Y-92429D01*
X167054Y-92347D01*
X167033Y-92264D01*
X167016Y-92180D01*
X167002Y-92096D01*
X166993Y-92011D01*
X166987Y-91925D01*
X166985Y-91840D01*
X166987Y-91755D01*
X166993Y-91669D01*
X167002Y-91584D01*
X167016Y-91500D01*
X167033Y-91416D01*
X167054Y-91333D01*
X167078Y-91251D01*
X167106Y-91171D01*
X167138Y-91091D01*
X167174Y-91013D01*
X167212Y-90937D01*
X167255Y-90863D01*
X167300Y-90791D01*
X167349Y-90720D01*
X167401Y-90652D01*
X167455Y-90587D01*
X167513Y-90524D01*
X167574Y-90463D01*
X167637Y-90405D01*
X167702Y-90351D01*
X167770Y-90299D01*
X167841Y-90250D01*
X167913Y-90205D01*
X167987Y-90162D01*
X168063Y-90124D01*
X168141Y-90088D01*
X168221Y-90056D01*
X168301Y-90028D01*
X168383Y-90004D01*
X168466Y-89983D01*
X168550Y-89966D01*
X168634Y-89952D01*
X168719Y-89943D01*
X168805Y-89937D01*
X168890Y-89935D01*
X168509Y-86887D02*
X170795Y-86887D01*
X168509Y-86887D02*
X168432Y-86889D01*
X168355Y-86895D01*
X168278Y-86905D01*
X168202Y-86918D01*
X168127Y-86936D01*
X168053Y-86957D01*
X167980Y-86982D01*
X167908Y-87011D01*
X167838Y-87043D01*
X167769Y-87078D01*
X167703Y-87118D01*
X167638Y-87160D01*
X167576Y-87206D01*
X167516Y-87255D01*
X167459Y-87306D01*
X167404Y-87361D01*
X167353Y-87418D01*
X167304Y-87478D01*
X167258Y-87540D01*
X167216Y-87605D01*
X167176Y-87671D01*
X167141Y-87740D01*
X167109Y-87810D01*
X167080Y-87882D01*
X167055Y-87955D01*
X167034Y-88029D01*
X167016Y-88104D01*
X167003Y-88180D01*
X166993Y-88257D01*
X166987Y-88334D01*
X166985Y-88411D01*
X166987Y-88488D01*
X166993Y-88565D01*
X167003Y-88642D01*
X167016Y-88718D01*
X167034Y-88793D01*
X167055Y-88867D01*
X167080Y-88940D01*
X167109Y-89012D01*
X167141Y-89082D01*
X167176Y-89151D01*
X167216Y-89217D01*
X167258Y-89282D01*
X167304Y-89344D01*
X167353Y-89404D01*
X167404Y-89461D01*
X167459Y-89516D01*
X167516Y-89567D01*
X167576Y-89616D01*
X167638Y-89662D01*
X167703Y-89704D01*
X167769Y-89744D01*
X167838Y-89779D01*
X167908Y-89811D01*
X167980Y-89840D01*
X168053Y-89865D01*
X168127Y-89886D01*
X168202Y-89904D01*
X168278Y-89917D01*
X168355Y-89927D01*
X168432Y-89933D01*
X168509Y-89935D01*
X170033Y-89935D01*
D11*
X185899Y112882D02*
X188298Y112882D01*
X185899Y112882D02*
X185802Y112884D01*
X185706Y112890D01*
X185610Y112899D01*
X185514Y112913D01*
X185419Y112930D01*
X185325Y112952D01*
X185232Y112977D01*
X185139Y113005D01*
X185048Y113038D01*
X184959Y113074D01*
X184871Y113114D01*
X184784Y113157D01*
X184699Y113203D01*
X184617Y113253D01*
X184536Y113307D01*
X184458Y113363D01*
X184382Y113423D01*
X184308Y113485D01*
X184237Y113551D01*
X184169Y113619D01*
X184103Y113690D01*
X184041Y113764D01*
X183981Y113840D01*
X183925Y113918D01*
X183871Y113999D01*
X183821Y114082D01*
X183775Y114166D01*
X183732Y114253D01*
X183692Y114341D01*
X183656Y114430D01*
X183623Y114521D01*
X183595Y114614D01*
X183570Y114707D01*
X183548Y114801D01*
X183531Y114896D01*
X183517Y114992D01*
X183508Y115088D01*
X183502Y115184D01*
X183500Y115281D01*
X183502Y115378D01*
X183508Y115474D01*
X183517Y115570D01*
X183531Y115666D01*
X183548Y115761D01*
X183570Y115855D01*
X183595Y115948D01*
X183623Y116041D01*
X183656Y116132D01*
X183692Y116221D01*
X183732Y116309D01*
X183775Y116396D01*
X183821Y116481D01*
X183871Y116563D01*
X183925Y116644D01*
X183981Y116722D01*
X184041Y116798D01*
X184103Y116872D01*
X184169Y116943D01*
X184237Y117011D01*
X184308Y117077D01*
X184382Y117139D01*
X184458Y117199D01*
X184536Y117255D01*
X184617Y117309D01*
X184700Y117359D01*
X184784Y117405D01*
X184871Y117448D01*
X184959Y117488D01*
X185048Y117524D01*
X185139Y117557D01*
X185232Y117585D01*
X185325Y117610D01*
X185419Y117632D01*
X185514Y117649D01*
X185610Y117663D01*
X185706Y117672D01*
X185802Y117678D01*
X185899Y117680D01*
X185419Y121518D02*
X188298Y121518D01*
X185419Y121518D02*
X185333Y121516D01*
X185247Y121510D01*
X185161Y121501D01*
X185076Y121487D01*
X184992Y121470D01*
X184908Y121449D01*
X184826Y121424D01*
X184745Y121396D01*
X184665Y121364D01*
X184586Y121328D01*
X184510Y121289D01*
X184435Y121246D01*
X184362Y121201D01*
X184291Y121152D01*
X184223Y121099D01*
X184156Y121044D01*
X184093Y120986D01*
X184032Y120925D01*
X183974Y120862D01*
X183919Y120795D01*
X183866Y120727D01*
X183817Y120656D01*
X183772Y120583D01*
X183729Y120508D01*
X183690Y120432D01*
X183654Y120353D01*
X183622Y120273D01*
X183594Y120192D01*
X183569Y120110D01*
X183548Y120026D01*
X183531Y119942D01*
X183517Y119857D01*
X183508Y119771D01*
X183502Y119685D01*
X183500Y119599D01*
X183502Y119513D01*
X183508Y119427D01*
X183517Y119341D01*
X183531Y119256D01*
X183548Y119172D01*
X183569Y119088D01*
X183594Y119006D01*
X183622Y118925D01*
X183654Y118845D01*
X183690Y118766D01*
X183729Y118690D01*
X183772Y118615D01*
X183817Y118542D01*
X183866Y118471D01*
X183919Y118403D01*
X183974Y118336D01*
X184032Y118273D01*
X184093Y118212D01*
X184156Y118154D01*
X184223Y118099D01*
X184291Y118046D01*
X184362Y117997D01*
X184435Y117952D01*
X184510Y117909D01*
X184586Y117870D01*
X184665Y117834D01*
X184745Y117802D01*
X184826Y117774D01*
X184908Y117749D01*
X184992Y117728D01*
X185076Y117711D01*
X185161Y117697D01*
X185247Y117688D01*
X185333Y117682D01*
X185419Y117680D01*
X187338Y117680D01*
X179738Y113362D02*
X179738Y112882D01*
X179738Y113362D02*
X179258Y113362D01*
X179258Y112882D01*
X179738Y112882D01*
X175496Y112882D02*
X173098Y112882D01*
X173001Y112884D01*
X172905Y112890D01*
X172809Y112899D01*
X172713Y112913D01*
X172618Y112930D01*
X172524Y112952D01*
X172431Y112977D01*
X172338Y113005D01*
X172247Y113038D01*
X172158Y113074D01*
X172070Y113114D01*
X171983Y113157D01*
X171898Y113203D01*
X171816Y113253D01*
X171735Y113307D01*
X171657Y113363D01*
X171581Y113423D01*
X171507Y113485D01*
X171436Y113551D01*
X171368Y113619D01*
X171302Y113690D01*
X171240Y113764D01*
X171180Y113840D01*
X171124Y113918D01*
X171070Y113999D01*
X171020Y114082D01*
X170974Y114166D01*
X170931Y114253D01*
X170891Y114341D01*
X170855Y114430D01*
X170822Y114521D01*
X170794Y114614D01*
X170769Y114707D01*
X170747Y114801D01*
X170730Y114896D01*
X170716Y114992D01*
X170707Y115088D01*
X170701Y115184D01*
X170699Y115281D01*
X170701Y115378D01*
X170707Y115474D01*
X170716Y115570D01*
X170730Y115666D01*
X170747Y115761D01*
X170769Y115855D01*
X170794Y115948D01*
X170822Y116041D01*
X170855Y116132D01*
X170891Y116221D01*
X170931Y116309D01*
X170974Y116396D01*
X171020Y116481D01*
X171070Y116563D01*
X171124Y116644D01*
X171180Y116722D01*
X171240Y116798D01*
X171302Y116872D01*
X171368Y116943D01*
X171436Y117011D01*
X171507Y117077D01*
X171581Y117139D01*
X171657Y117199D01*
X171735Y117255D01*
X171816Y117309D01*
X171899Y117359D01*
X171983Y117405D01*
X172070Y117448D01*
X172158Y117488D01*
X172247Y117524D01*
X172338Y117557D01*
X172431Y117585D01*
X172524Y117610D01*
X172618Y117632D01*
X172713Y117649D01*
X172809Y117663D01*
X172905Y117672D01*
X173001Y117678D01*
X173098Y117680D01*
X172618Y121518D02*
X175496Y121518D01*
X172618Y121518D02*
X172532Y121516D01*
X172446Y121510D01*
X172360Y121501D01*
X172275Y121487D01*
X172191Y121470D01*
X172107Y121449D01*
X172025Y121424D01*
X171944Y121396D01*
X171864Y121364D01*
X171785Y121328D01*
X171709Y121289D01*
X171634Y121246D01*
X171561Y121201D01*
X171490Y121152D01*
X171422Y121099D01*
X171355Y121044D01*
X171292Y120986D01*
X171231Y120925D01*
X171173Y120862D01*
X171118Y120795D01*
X171065Y120727D01*
X171016Y120656D01*
X170971Y120583D01*
X170928Y120508D01*
X170889Y120432D01*
X170853Y120353D01*
X170821Y120273D01*
X170793Y120192D01*
X170768Y120110D01*
X170747Y120026D01*
X170730Y119942D01*
X170716Y119857D01*
X170707Y119771D01*
X170701Y119685D01*
X170699Y119599D01*
X170701Y119513D01*
X170707Y119427D01*
X170716Y119341D01*
X170730Y119256D01*
X170747Y119172D01*
X170768Y119088D01*
X170793Y119006D01*
X170821Y118925D01*
X170853Y118845D01*
X170889Y118766D01*
X170928Y118690D01*
X170971Y118615D01*
X171016Y118542D01*
X171065Y118471D01*
X171118Y118403D01*
X171173Y118336D01*
X171231Y118273D01*
X171292Y118212D01*
X171355Y118154D01*
X171422Y118099D01*
X171490Y118046D01*
X171561Y117997D01*
X171634Y117952D01*
X171709Y117909D01*
X171785Y117870D01*
X171864Y117834D01*
X171944Y117802D01*
X172025Y117774D01*
X172107Y117749D01*
X172191Y117728D01*
X172275Y117711D01*
X172360Y117697D01*
X172446Y117688D01*
X172532Y117682D01*
X172618Y117680D01*
X174537Y117680D01*
X166832Y121518D02*
X163954Y112882D01*
X161075Y121518D01*
X208419Y138882D02*
X211298Y138882D01*
X208419Y138882D02*
X208333Y138884D01*
X208247Y138890D01*
X208161Y138899D01*
X208076Y138913D01*
X207992Y138930D01*
X207908Y138951D01*
X207826Y138976D01*
X207745Y139004D01*
X207665Y139036D01*
X207586Y139072D01*
X207510Y139111D01*
X207435Y139154D01*
X207362Y139199D01*
X207291Y139248D01*
X207223Y139301D01*
X207156Y139356D01*
X207093Y139414D01*
X207032Y139475D01*
X206974Y139538D01*
X206919Y139605D01*
X206866Y139673D01*
X206817Y139744D01*
X206772Y139817D01*
X206729Y139892D01*
X206690Y139968D01*
X206654Y140047D01*
X206622Y140127D01*
X206594Y140208D01*
X206569Y140290D01*
X206548Y140374D01*
X206531Y140458D01*
X206517Y140543D01*
X206508Y140629D01*
X206502Y140715D01*
X206500Y140801D01*
X206500Y141761D01*
X206502Y141847D01*
X206508Y141933D01*
X206517Y142019D01*
X206531Y142104D01*
X206548Y142188D01*
X206569Y142272D01*
X206594Y142354D01*
X206622Y142435D01*
X206654Y142515D01*
X206690Y142594D01*
X206729Y142670D01*
X206772Y142745D01*
X206817Y142818D01*
X206867Y142889D01*
X206919Y142957D01*
X206974Y143024D01*
X207032Y143087D01*
X207093Y143148D01*
X207156Y143206D01*
X207223Y143261D01*
X207291Y143314D01*
X207362Y143363D01*
X207435Y143408D01*
X207510Y143451D01*
X207586Y143490D01*
X207665Y143526D01*
X207745Y143558D01*
X207826Y143586D01*
X207909Y143611D01*
X207992Y143632D01*
X208076Y143649D01*
X208161Y143663D01*
X208247Y143672D01*
X208333Y143678D01*
X208419Y143680D01*
X211298Y143680D01*
X211298Y147518D01*
X206500Y147518D01*
X202634Y147518D02*
X199755Y138882D01*
X196877Y147518D01*
D10*
X1187000Y107500D02*
X1200500Y121000D01*
X1240500Y121000D01*
X1254000Y107500D01*
D11*
X169175Y-77969D02*
X162825Y-77969D01*
X162825Y-70031D02*
X169175Y-70031D01*
D12*
X158365Y-83007D02*
X158365Y-89865D01*
X158365Y-83007D02*
X156460Y-83007D01*
X156375Y-83009D01*
X156289Y-83015D01*
X156204Y-83024D01*
X156120Y-83038D01*
X156036Y-83055D01*
X155953Y-83076D01*
X155871Y-83100D01*
X155791Y-83128D01*
X155711Y-83160D01*
X155633Y-83196D01*
X155557Y-83234D01*
X155483Y-83277D01*
X155411Y-83322D01*
X155340Y-83371D01*
X155272Y-83423D01*
X155207Y-83477D01*
X155144Y-83535D01*
X155083Y-83596D01*
X155025Y-83659D01*
X154971Y-83724D01*
X154919Y-83792D01*
X154870Y-83863D01*
X154825Y-83935D01*
X154782Y-84009D01*
X154744Y-84085D01*
X154708Y-84163D01*
X154676Y-84243D01*
X154648Y-84323D01*
X154624Y-84405D01*
X154603Y-84488D01*
X154586Y-84572D01*
X154572Y-84656D01*
X154563Y-84741D01*
X154557Y-84827D01*
X154555Y-84912D01*
X154557Y-84997D01*
X154563Y-85083D01*
X154572Y-85168D01*
X154586Y-85252D01*
X154603Y-85336D01*
X154624Y-85419D01*
X154648Y-85501D01*
X154676Y-85581D01*
X154708Y-85661D01*
X154744Y-85739D01*
X154782Y-85815D01*
X154825Y-85889D01*
X154870Y-85961D01*
X154919Y-86032D01*
X154971Y-86100D01*
X155025Y-86165D01*
X155083Y-86228D01*
X155144Y-86289D01*
X155207Y-86347D01*
X155272Y-86401D01*
X155340Y-86453D01*
X155411Y-86502D01*
X155483Y-86547D01*
X155557Y-86590D01*
X155633Y-86628D01*
X155711Y-86664D01*
X155791Y-86696D01*
X155871Y-86724D01*
X155953Y-86748D01*
X156036Y-86769D01*
X156120Y-86786D01*
X156204Y-86800D01*
X156289Y-86809D01*
X156375Y-86815D01*
X156460Y-86817D01*
X158365Y-86817D01*
X156079Y-86817D02*
X154555Y-89865D01*
X151119Y-84531D02*
X149214Y-83007D01*
X149214Y-89865D01*
X151119Y-89865D02*
X147309Y-89865D01*
D11*
X288825Y-51969D02*
X295175Y-51969D01*
X295175Y-44031D02*
X288825Y-44031D01*
X324588Y-43252D02*
X324588Y-51888D01*
X324588Y-43252D02*
X322189Y-43252D01*
X322092Y-43254D01*
X321996Y-43260D01*
X321900Y-43269D01*
X321804Y-43283D01*
X321709Y-43300D01*
X321615Y-43322D01*
X321522Y-43347D01*
X321429Y-43375D01*
X321338Y-43408D01*
X321249Y-43444D01*
X321161Y-43484D01*
X321074Y-43527D01*
X320990Y-43573D01*
X320907Y-43623D01*
X320826Y-43677D01*
X320748Y-43733D01*
X320672Y-43793D01*
X320598Y-43855D01*
X320527Y-43921D01*
X320459Y-43989D01*
X320393Y-44060D01*
X320331Y-44134D01*
X320271Y-44210D01*
X320215Y-44288D01*
X320161Y-44369D01*
X320111Y-44451D01*
X320065Y-44536D01*
X320022Y-44623D01*
X319982Y-44711D01*
X319946Y-44800D01*
X319913Y-44891D01*
X319885Y-44984D01*
X319860Y-45077D01*
X319838Y-45171D01*
X319821Y-45266D01*
X319807Y-45362D01*
X319798Y-45458D01*
X319792Y-45554D01*
X319790Y-45651D01*
X319792Y-45748D01*
X319798Y-45844D01*
X319807Y-45940D01*
X319821Y-46036D01*
X319838Y-46131D01*
X319860Y-46225D01*
X319885Y-46318D01*
X319913Y-46411D01*
X319946Y-46502D01*
X319982Y-46591D01*
X320022Y-46679D01*
X320065Y-46766D01*
X320111Y-46850D01*
X320161Y-46933D01*
X320215Y-47014D01*
X320271Y-47092D01*
X320331Y-47168D01*
X320393Y-47242D01*
X320459Y-47313D01*
X320527Y-47381D01*
X320598Y-47447D01*
X320672Y-47509D01*
X320748Y-47569D01*
X320826Y-47625D01*
X320907Y-47679D01*
X320990Y-47729D01*
X321074Y-47775D01*
X321161Y-47818D01*
X321249Y-47858D01*
X321338Y-47894D01*
X321429Y-47927D01*
X321522Y-47955D01*
X321615Y-47980D01*
X321709Y-48002D01*
X321804Y-48019D01*
X321900Y-48033D01*
X321996Y-48042D01*
X322092Y-48048D01*
X322189Y-48050D01*
X324588Y-48050D01*
X321709Y-48050D02*
X319790Y-51888D01*
X312890Y-43252D02*
X312798Y-43254D01*
X312707Y-43260D01*
X312616Y-43269D01*
X312525Y-43283D01*
X312435Y-43300D01*
X312346Y-43322D01*
X312258Y-43347D01*
X312171Y-43375D01*
X312085Y-43408D01*
X312001Y-43444D01*
X311918Y-43483D01*
X311837Y-43526D01*
X311758Y-43573D01*
X311681Y-43622D01*
X311606Y-43675D01*
X311534Y-43731D01*
X311464Y-43790D01*
X311396Y-43852D01*
X311331Y-43917D01*
X311269Y-43985D01*
X311210Y-44055D01*
X311154Y-44127D01*
X311101Y-44202D01*
X311052Y-44279D01*
X311005Y-44358D01*
X310962Y-44439D01*
X310923Y-44522D01*
X310887Y-44606D01*
X310854Y-44692D01*
X310826Y-44779D01*
X310801Y-44867D01*
X310779Y-44956D01*
X310762Y-45046D01*
X310748Y-45137D01*
X310739Y-45228D01*
X310733Y-45319D01*
X310731Y-45411D01*
X312890Y-43252D02*
X312993Y-43254D01*
X313095Y-43260D01*
X313197Y-43269D01*
X313299Y-43282D01*
X313400Y-43299D01*
X313501Y-43320D01*
X313600Y-43344D01*
X313699Y-43373D01*
X313796Y-43404D01*
X313893Y-43440D01*
X313988Y-43478D01*
X314081Y-43521D01*
X314173Y-43567D01*
X314263Y-43616D01*
X314351Y-43668D01*
X314438Y-43724D01*
X314522Y-43783D01*
X314603Y-43844D01*
X314683Y-43909D01*
X314760Y-43977D01*
X314835Y-44048D01*
X314906Y-44121D01*
X314975Y-44197D01*
X315042Y-44275D01*
X315105Y-44356D01*
X315165Y-44439D01*
X315222Y-44524D01*
X315276Y-44611D01*
X315327Y-44701D01*
X315374Y-44792D01*
X315418Y-44884D01*
X315459Y-44979D01*
X315496Y-45074D01*
X315529Y-45171D01*
X311451Y-47090D02*
X311384Y-47024D01*
X311320Y-46955D01*
X311259Y-46884D01*
X311201Y-46810D01*
X311146Y-46734D01*
X311094Y-46656D01*
X311045Y-46576D01*
X310999Y-46494D01*
X310957Y-46410D01*
X310918Y-46324D01*
X310883Y-46237D01*
X310852Y-46149D01*
X310824Y-46059D01*
X310799Y-45969D01*
X310778Y-45877D01*
X310761Y-45785D01*
X310748Y-45692D01*
X310739Y-45599D01*
X310733Y-45505D01*
X310731Y-45411D01*
X311451Y-47090D02*
X315529Y-51888D01*
X310731Y-51888D01*
D13*
X130000Y-60000D02*
X130000Y-60100D01*
D12*
X144200Y-65000D02*
X144200Y-81000D01*
X115800Y-81000D02*
X115800Y-65000D01*
D14*
X120000Y-69250D03*
D12*
X112915Y-82957D02*
X112915Y-87910D01*
X112913Y-87995D01*
X112907Y-88081D01*
X112898Y-88166D01*
X112884Y-88250D01*
X112867Y-88334D01*
X112846Y-88417D01*
X112822Y-88499D01*
X112794Y-88579D01*
X112762Y-88659D01*
X112726Y-88737D01*
X112688Y-88813D01*
X112645Y-88887D01*
X112600Y-88959D01*
X112551Y-89030D01*
X112499Y-89098D01*
X112445Y-89163D01*
X112387Y-89226D01*
X112326Y-89287D01*
X112263Y-89345D01*
X112198Y-89399D01*
X112130Y-89451D01*
X112059Y-89500D01*
X111987Y-89545D01*
X111913Y-89588D01*
X111837Y-89626D01*
X111759Y-89662D01*
X111679Y-89694D01*
X111599Y-89722D01*
X111517Y-89746D01*
X111434Y-89767D01*
X111350Y-89784D01*
X111266Y-89798D01*
X111181Y-89807D01*
X111095Y-89813D01*
X111010Y-89815D01*
X110925Y-89813D01*
X110839Y-89807D01*
X110754Y-89798D01*
X110670Y-89784D01*
X110586Y-89767D01*
X110503Y-89746D01*
X110421Y-89722D01*
X110341Y-89694D01*
X110261Y-89662D01*
X110183Y-89626D01*
X110107Y-89588D01*
X110033Y-89545D01*
X109961Y-89500D01*
X109890Y-89451D01*
X109822Y-89399D01*
X109757Y-89345D01*
X109694Y-89287D01*
X109633Y-89226D01*
X109575Y-89163D01*
X109521Y-89098D01*
X109469Y-89030D01*
X109420Y-88959D01*
X109375Y-88887D01*
X109332Y-88813D01*
X109294Y-88737D01*
X109258Y-88659D01*
X109226Y-88579D01*
X109198Y-88499D01*
X109174Y-88417D01*
X109153Y-88334D01*
X109136Y-88250D01*
X109122Y-88166D01*
X109113Y-88081D01*
X109107Y-87995D01*
X109105Y-87910D01*
X109105Y-82957D01*
X105356Y-84481D02*
X103451Y-82957D01*
X103451Y-89815D01*
X105356Y-89815D02*
X101546Y-89815D01*
D11*
X98175Y-69031D02*
X91825Y-69031D01*
X91825Y-76969D02*
X98175Y-76969D01*
D12*
X91191Y-90015D02*
X89667Y-90015D01*
X91191Y-90015D02*
X91268Y-90013D01*
X91345Y-90007D01*
X91422Y-89997D01*
X91498Y-89984D01*
X91573Y-89966D01*
X91647Y-89945D01*
X91720Y-89920D01*
X91792Y-89891D01*
X91862Y-89859D01*
X91931Y-89824D01*
X91997Y-89784D01*
X92062Y-89742D01*
X92124Y-89696D01*
X92184Y-89647D01*
X92241Y-89596D01*
X92296Y-89541D01*
X92347Y-89484D01*
X92396Y-89424D01*
X92442Y-89362D01*
X92484Y-89297D01*
X92524Y-89231D01*
X92559Y-89162D01*
X92591Y-89092D01*
X92620Y-89020D01*
X92645Y-88947D01*
X92666Y-88873D01*
X92684Y-88798D01*
X92697Y-88722D01*
X92707Y-88645D01*
X92713Y-88568D01*
X92715Y-88491D01*
X92715Y-84681D01*
X92713Y-84604D01*
X92707Y-84527D01*
X92697Y-84450D01*
X92684Y-84374D01*
X92666Y-84299D01*
X92645Y-84225D01*
X92620Y-84152D01*
X92591Y-84080D01*
X92559Y-84010D01*
X92524Y-83941D01*
X92484Y-83875D01*
X92442Y-83810D01*
X92396Y-83748D01*
X92347Y-83688D01*
X92296Y-83631D01*
X92241Y-83576D01*
X92184Y-83525D01*
X92124Y-83476D01*
X92062Y-83430D01*
X91997Y-83388D01*
X91931Y-83348D01*
X91862Y-83313D01*
X91792Y-83281D01*
X91720Y-83252D01*
X91647Y-83227D01*
X91573Y-83206D01*
X91498Y-83188D01*
X91422Y-83175D01*
X91345Y-83165D01*
X91268Y-83159D01*
X91191Y-83157D01*
X89667Y-83157D01*
X86588Y-84681D02*
X84683Y-83157D01*
X84683Y-90015D01*
X86588Y-90015D02*
X82778Y-90015D01*
M02*
