%TF.GenerationSoftware,KiCad,Pcbnew,(6.0.7)*%
%TF.CreationDate,2022-08-24T00:14:04+02:00*%
%TF.ProjectId,rcp2n64adv2,72637032-6e36-4346-9164-76322e6b6963,rev?*%
%TF.SameCoordinates,Original*%
%TF.FileFunction,Soldermask,Bot*%
%TF.FilePolarity,Negative*%
%FSLAX46Y46*%
G04 Gerber Fmt 4.6, Leading zero omitted, Abs format (unit mm)*
G04 Created by KiCad (PCBNEW (6.0.7)) date 2022-08-24 00:14:04*
%MOMM*%
%LPD*%
G01*
G04 APERTURE LIST*
G04 Aperture macros list*
%AMRoundRect*
0 Rectangle with rounded corners*
0 $1 Rounding radius*
0 $2 $3 $4 $5 $6 $7 $8 $9 X,Y pos of 4 corners*
0 Add a 4 corners polygon primitive as box body*
4,1,4,$2,$3,$4,$5,$6,$7,$8,$9,$2,$3,0*
0 Add four circle primitives for the rounded corners*
1,1,$1+$1,$2,$3*
1,1,$1+$1,$4,$5*
1,1,$1+$1,$6,$7*
1,1,$1+$1,$8,$9*
0 Add four rect primitives between the rounded corners*
20,1,$1+$1,$2,$3,$4,$5,0*
20,1,$1+$1,$4,$5,$6,$7,0*
20,1,$1+$1,$6,$7,$8,$9,0*
20,1,$1+$1,$8,$9,$2,$3,0*%
G04 Aperture macros list end*
%ADD10R,1.350000X0.450000*%
%ADD11C,0.450000*%
%ADD12C,1.200000*%
%ADD13R,2.540000X1.270000*%
%ADD14RoundRect,0.237500X0.300000X0.237500X-0.300000X0.237500X-0.300000X-0.237500X0.300000X-0.237500X0*%
%ADD15RoundRect,0.237500X-0.250000X-0.237500X0.250000X-0.237500X0.250000X0.237500X-0.250000X0.237500X0*%
%ADD16RoundRect,0.237500X-0.344715X0.008839X0.008839X-0.344715X0.344715X-0.008839X-0.008839X0.344715X0*%
%ADD17C,0.635000*%
%ADD18R,1.270000X0.635000*%
%ADD19R,0.700000X0.510000*%
G04 APERTURE END LIST*
D10*
%TO.C,X2*%
X85985000Y-105980000D03*
D11*
X86435000Y-105980000D03*
X85760000Y-105980000D03*
%TD*%
D12*
%TO.C,J1*%
X104307500Y-90365000D03*
X103037500Y-90365000D03*
D13*
X103097500Y-90365000D03*
%TD*%
D12*
%TO.C,J2*%
X112925000Y-92870000D03*
D13*
X112865000Y-92870000D03*
D12*
X111655000Y-92870000D03*
%TD*%
D10*
%TO.C,X1*%
X85980000Y-107930000D03*
D11*
X86430000Y-107930000D03*
X85755000Y-107930000D03*
D10*
X85980000Y-107280000D03*
D11*
X86430000Y-107280000D03*
X85755000Y-107280000D03*
X86430000Y-106630000D03*
X85755000Y-106630000D03*
D10*
X85980000Y-106630000D03*
X85980000Y-105330000D03*
D11*
X86430000Y-105330000D03*
X85755000Y-105330000D03*
X85755000Y-104680000D03*
X86430000Y-104680000D03*
D10*
X85980000Y-104680000D03*
X85980000Y-104030000D03*
D11*
X86430000Y-104030000D03*
X85755000Y-104030000D03*
X86430000Y-102730000D03*
X85755000Y-102730000D03*
D10*
X85980000Y-102730000D03*
D11*
X85755000Y-102080000D03*
X86430000Y-102080000D03*
D10*
X85980000Y-102080000D03*
X85980000Y-101430000D03*
D11*
X85755000Y-101430000D03*
X86430000Y-101430000D03*
X86430000Y-100130000D03*
X85755000Y-100130000D03*
D10*
X85980000Y-100130000D03*
D11*
X85755000Y-99480000D03*
D10*
X85980000Y-99480000D03*
D11*
X86430000Y-99480000D03*
X86430000Y-98830000D03*
X85755000Y-98830000D03*
D10*
X85980000Y-98830000D03*
D11*
X86430000Y-98180000D03*
D10*
X85980000Y-98180000D03*
D11*
X85755000Y-98180000D03*
X86430000Y-96880000D03*
D10*
X85980000Y-96880000D03*
D11*
X85755000Y-96880000D03*
X85755000Y-96230000D03*
X86430000Y-96230000D03*
D10*
X85980000Y-96230000D03*
D11*
X86430000Y-95580000D03*
X85755000Y-95580000D03*
D10*
X85980000Y-95580000D03*
X85980000Y-93630000D03*
D11*
X85755000Y-93630000D03*
X86430000Y-93630000D03*
%TD*%
D14*
%TO.C,C1*%
X96222500Y-111780000D03*
X94497500Y-111780000D03*
%TD*%
D15*
%TO.C,R2*%
X109937500Y-109520000D03*
X111762500Y-109520000D03*
%TD*%
D16*
%TO.C,R1*%
X102504765Y-112224765D03*
X103795235Y-113515235D03*
%TD*%
D17*
%TO.C,J5*%
X104787500Y-109490000D03*
D18*
X104767500Y-109490000D03*
D17*
X104092500Y-109490000D03*
%TD*%
D18*
%TO.C,J4*%
X86907500Y-112370000D03*
D17*
X86927500Y-112370000D03*
X86232500Y-112370000D03*
%TD*%
D19*
%TO.C,U1*%
X100340000Y-111140000D03*
X100340000Y-112090000D03*
X100340000Y-113040000D03*
X98020000Y-113040000D03*
X98020000Y-111140000D03*
%TD*%
M02*
