%TF.GenerationSoftware,KiCad,Pcbnew,(6.0.7)*%
%TF.CreationDate,2023-11-27T18:07:28+01:00*%
%TF.ProjectId,rcp2n64adv2,72637032-6e36-4346-9164-76322e6b6963,v20231105*%
%TF.SameCoordinates,Original*%
%TF.FileFunction,Soldermask,Top*%
%TF.FilePolarity,Negative*%
%FSLAX46Y46*%
G04 Gerber Fmt 4.6, Leading zero omitted, Abs format (unit mm)*
G04 Created by KiCad (PCBNEW (6.0.7)) date 2023-11-27 18:07:28*
%MOMM*%
%LPD*%
G01*
G04 APERTURE LIST*
G04 Aperture macros list*
%AMRoundRect*
0 Rectangle with rounded corners*
0 $1 Rounding radius*
0 $2 $3 $4 $5 $6 $7 $8 $9 X,Y pos of 4 corners*
0 Add a 4 corners polygon primitive as box body*
4,1,4,$2,$3,$4,$5,$6,$7,$8,$9,$2,$3,0*
0 Add four circle primitives for the rounded corners*
1,1,$1+$1,$2,$3*
1,1,$1+$1,$4,$5*
1,1,$1+$1,$6,$7*
1,1,$1+$1,$8,$9*
0 Add four rect primitives between the rounded corners*
20,1,$1+$1,$2,$3,$4,$5,0*
20,1,$1+$1,$4,$5,$6,$7,0*
20,1,$1+$1,$6,$7,$8,$9,0*
20,1,$1+$1,$8,$9,$2,$3,0*%
G04 Aperture macros list end*
%ADD10C,1.500000*%
%ADD11RoundRect,0.237500X0.300000X0.237500X-0.300000X0.237500X-0.300000X-0.237500X0.300000X-0.237500X0*%
%ADD12R,0.800000X0.500000*%
%ADD13R,0.800000X0.400000*%
%ADD14RoundRect,0.237500X-0.250000X-0.237500X0.250000X-0.237500X0.250000X0.237500X-0.250000X0.237500X0*%
%ADD15C,0.450000*%
%ADD16R,1.350000X0.450000*%
%ADD17C,1.200000*%
%ADD18R,2.540000X1.270000*%
%ADD19RoundRect,0.050800X-1.750000X0.150000X-1.750000X-0.150000X1.750000X-0.150000X1.750000X0.150000X0*%
%ADD20C,0.635000*%
%ADD21R,1.270000X0.635000*%
%ADD22R,0.510000X0.700000*%
G04 APERTURE END LIST*
D10*
%TO.C,J3.1*%
X117650000Y-93950000D03*
%TD*%
D11*
%TO.C,C1*%
X100062500Y-109350000D03*
X98337500Y-109350000D03*
%TD*%
D12*
%TO.C,RN4*%
X92160000Y-106370000D03*
D13*
X92160000Y-107170000D03*
X92160000Y-107970000D03*
D12*
X92160000Y-108770000D03*
X93960000Y-108770000D03*
D13*
X93960000Y-107970000D03*
X93960000Y-107170000D03*
D12*
X93960000Y-106370000D03*
%TD*%
%TO.C,RN3*%
X92160000Y-102350000D03*
D13*
X92160000Y-103150000D03*
X92160000Y-103950000D03*
D12*
X92160000Y-104750000D03*
X93960000Y-104750000D03*
D13*
X93960000Y-103950000D03*
X93960000Y-103150000D03*
D12*
X93960000Y-102350000D03*
%TD*%
D10*
%TO.C,J4.1*%
X113750000Y-109280000D03*
%TD*%
D14*
%TO.C,R2*%
X107257500Y-110000000D03*
X109082500Y-110000000D03*
%TD*%
D12*
%TO.C,RN2*%
X92160000Y-98420000D03*
D13*
X92160000Y-99220000D03*
X92160000Y-100020000D03*
D12*
X92160000Y-100820000D03*
X93960000Y-100820000D03*
D13*
X93960000Y-100020000D03*
X93960000Y-99220000D03*
D12*
X93960000Y-98420000D03*
%TD*%
D15*
%TO.C,X2*%
X86435000Y-105980000D03*
D16*
X86435000Y-105980000D03*
D15*
X85760000Y-105980000D03*
%TD*%
D17*
%TO.C,J1*%
X104307500Y-90365000D03*
X103037500Y-90365000D03*
D18*
X103712500Y-90365000D03*
%TD*%
D10*
%TO.C,J3*%
X112300000Y-95950000D03*
%TD*%
D19*
%TO.C,J6*%
X213405000Y-94420000D03*
X213405000Y-94920000D03*
X213405000Y-95420000D03*
X213405000Y-95920000D03*
X213405000Y-96420000D03*
X213405000Y-96920000D03*
X213405000Y-97420000D03*
X213405000Y-97920000D03*
X213405000Y-98420000D03*
X213405000Y-98920000D03*
X213405000Y-99420000D03*
X213405000Y-99920000D03*
X213405000Y-100420000D03*
X213405000Y-100920000D03*
X213405000Y-101420000D03*
X213405000Y-101920000D03*
X213405000Y-102420000D03*
X213405000Y-102920000D03*
X213405000Y-103420000D03*
X213405000Y-103920000D03*
X213405000Y-104420000D03*
X213405000Y-104920000D03*
X213405000Y-105420000D03*
X213405000Y-105920000D03*
X213405000Y-106420000D03*
X213405000Y-106920000D03*
X213405000Y-107420000D03*
X213405000Y-107920000D03*
X213405000Y-108420000D03*
X213405000Y-108920000D03*
%TD*%
D14*
%TO.C,R1*%
X107257500Y-108000000D03*
X109082500Y-108000000D03*
%TD*%
D12*
%TO.C,RN1*%
X92160000Y-94350000D03*
D13*
X92160000Y-95150000D03*
X92160000Y-95950000D03*
D12*
X92160000Y-96750000D03*
X93960000Y-96750000D03*
D13*
X93960000Y-95950000D03*
X93960000Y-95150000D03*
D12*
X93960000Y-94350000D03*
%TD*%
D20*
%TO.C,J5*%
X151790000Y-110880000D03*
D21*
X151810000Y-110880000D03*
D20*
X152485000Y-110880000D03*
%TD*%
D10*
%TO.C,J5.1*%
X117920000Y-109280000D03*
%TD*%
D17*
%TO.C,J2*%
X112925000Y-92870000D03*
X111655000Y-92870000D03*
D18*
X112250000Y-92870000D03*
%TD*%
D15*
%TO.C,X1*%
X86430000Y-107930000D03*
X85755000Y-107930000D03*
D16*
X86430000Y-107930000D03*
D15*
X86430000Y-107280000D03*
X85755000Y-107280000D03*
D16*
X86430000Y-107280000D03*
D15*
X86430000Y-106630000D03*
X85755000Y-106630000D03*
D16*
X86430000Y-106630000D03*
D15*
X86430000Y-105330000D03*
X85755000Y-105330000D03*
D16*
X86430000Y-105330000D03*
D15*
X85755000Y-104680000D03*
X86430000Y-104680000D03*
D16*
X86430000Y-104680000D03*
D15*
X86430000Y-104030000D03*
X85755000Y-104030000D03*
D16*
X86430000Y-104030000D03*
D15*
X86430000Y-102730000D03*
D16*
X86430000Y-102730000D03*
D15*
X85755000Y-102730000D03*
X85755000Y-102080000D03*
X86430000Y-102080000D03*
D16*
X86430000Y-102080000D03*
X86430000Y-101430000D03*
D15*
X85755000Y-101430000D03*
X86430000Y-101430000D03*
X86430000Y-100130000D03*
X85755000Y-100130000D03*
D16*
X86430000Y-100130000D03*
D15*
X85755000Y-99480000D03*
D16*
X86430000Y-99480000D03*
D15*
X86430000Y-99480000D03*
X86430000Y-98830000D03*
X85755000Y-98830000D03*
D16*
X86430000Y-98830000D03*
D15*
X86430000Y-98180000D03*
X85755000Y-98180000D03*
D16*
X86430000Y-98180000D03*
D15*
X86430000Y-96880000D03*
D16*
X86430000Y-96880000D03*
D15*
X85755000Y-96880000D03*
D16*
X86430000Y-96230000D03*
D15*
X85755000Y-96230000D03*
X86430000Y-96230000D03*
X86430000Y-95580000D03*
X85755000Y-95580000D03*
D16*
X86430000Y-95580000D03*
X86430000Y-93630000D03*
D15*
X85755000Y-93630000D03*
X86430000Y-93630000D03*
%TD*%
D22*
%TO.C,U1*%
X102200000Y-110170000D03*
X103150000Y-110170000D03*
X104100000Y-110170000D03*
X104100000Y-107850000D03*
X102200000Y-107850000D03*
%TD*%
D20*
%TO.C,J4*%
X164280000Y-112890000D03*
X164975000Y-112890000D03*
D21*
X164810000Y-112890000D03*
%TD*%
M02*
