G04 EAGLE Gerber X2 export*
%TF.Part,Single*%
%TF.FileFunction,Other,silk top*%
%TF.FilePolarity,Positive*%
%TF.GenerationSoftware,Autodesk,EAGLE,9.6.2*%
%TF.CreationDate,2022-04-17T12:17:04Z*%
G75*
%MOMM*%
%FSLAX34Y34*%
%LPD*%
%INsilk top*%
%AMOC8*
5,1,8,0,0,1.08239X$1,22.5*%
G01*
%ADD10C,0.000000*%
%ADD11C,0.127000*%
%ADD12C,0.152400*%
%ADD13C,0.101600*%

G36*
X1249965Y99274D02*
X1249965Y99274D01*
X1249973Y99274D01*
X1250024Y99289D01*
X1250231Y99343D01*
X1250264Y99363D01*
X1250294Y99372D01*
X1254294Y101372D01*
X1254376Y101429D01*
X1254463Y101478D01*
X1254493Y101509D01*
X1254528Y101533D01*
X1254591Y101611D01*
X1254661Y101682D01*
X1254681Y101720D01*
X1254708Y101753D01*
X1254747Y101845D01*
X1254794Y101933D01*
X1254803Y101975D01*
X1254820Y102015D01*
X1254832Y102114D01*
X1254853Y102211D01*
X1254850Y102254D01*
X1254855Y102297D01*
X1254840Y102395D01*
X1254832Y102495D01*
X1254817Y102535D01*
X1254811Y102578D01*
X1254768Y102668D01*
X1254734Y102761D01*
X1254708Y102796D01*
X1254690Y102835D01*
X1254624Y102910D01*
X1254565Y102990D01*
X1254534Y103013D01*
X1254503Y103049D01*
X1254370Y103134D01*
X1254363Y103141D01*
X1254349Y103148D01*
X1254294Y103188D01*
X1250294Y105188D01*
X1250286Y105191D01*
X1250279Y105196D01*
X1250151Y105236D01*
X1250024Y105278D01*
X1250016Y105279D01*
X1250008Y105281D01*
X1249873Y105285D01*
X1249740Y105290D01*
X1249732Y105288D01*
X1249724Y105289D01*
X1249594Y105255D01*
X1249464Y105223D01*
X1249457Y105219D01*
X1249449Y105217D01*
X1249334Y105149D01*
X1249217Y105082D01*
X1249212Y105076D01*
X1249204Y105072D01*
X1249112Y104974D01*
X1249020Y104878D01*
X1249016Y104870D01*
X1249010Y104864D01*
X1248949Y104745D01*
X1248886Y104627D01*
X1248884Y104619D01*
X1248880Y104611D01*
X1248872Y104559D01*
X1248827Y104349D01*
X1248830Y104311D01*
X1248825Y104280D01*
X1248825Y100280D01*
X1248826Y100272D01*
X1248825Y100263D01*
X1248846Y100131D01*
X1248865Y99999D01*
X1248868Y99991D01*
X1248869Y99982D01*
X1248926Y99861D01*
X1248981Y99739D01*
X1248986Y99733D01*
X1248990Y99725D01*
X1249078Y99624D01*
X1249165Y99522D01*
X1249172Y99517D01*
X1249177Y99511D01*
X1249290Y99439D01*
X1249401Y99365D01*
X1249409Y99362D01*
X1249416Y99357D01*
X1249545Y99319D01*
X1249672Y99279D01*
X1249681Y99279D01*
X1249689Y99276D01*
X1249823Y99275D01*
X1249956Y99271D01*
X1249965Y99274D01*
G37*
D10*
X0Y-36000D02*
X3000Y-39000D01*
X32500Y-39000D01*
X0Y113500D02*
X1000Y114500D01*
X0Y113500D02*
X0Y107500D01*
X0Y94000D02*
X0Y75000D01*
X1000Y74000D01*
X4000Y74000D01*
X5000Y73000D01*
X5000Y70000D02*
X4000Y69000D01*
X1000Y69000D01*
X0Y68000D01*
X5000Y70000D02*
X5000Y73000D01*
X0Y68000D02*
X0Y42500D01*
X1000Y41500D01*
X4000Y41500D01*
X5000Y40500D01*
X5000Y37500D02*
X4000Y36500D01*
X1000Y36500D01*
X0Y35500D01*
X5000Y37500D02*
X5000Y40500D01*
X0Y42000D02*
X0Y35500D01*
X0Y16500D02*
X1000Y15500D01*
X4000Y15500D01*
X5000Y14500D01*
X5000Y11500D02*
X4000Y10500D01*
X1000Y10500D01*
X0Y9500D01*
X5000Y11500D02*
X5000Y14500D01*
X0Y-16500D02*
X0Y-36000D01*
X0Y-9500D02*
X0Y9500D01*
X0Y16500D02*
X0Y35500D01*
X0Y-9500D02*
X1000Y-10500D01*
X4000Y-10500D02*
X5000Y-11500D01*
X4000Y-10500D02*
X1000Y-10500D01*
X5000Y-11500D02*
X5000Y-14500D01*
X4000Y-15500D01*
X1000Y-15500D01*
X0Y-16500D01*
X1000Y106500D02*
X0Y107500D01*
X1000Y106500D02*
X4000Y106500D01*
X5000Y105500D01*
X5000Y96000D01*
X4000Y95000D01*
X1000Y95000D01*
X0Y94000D01*
D11*
X26695Y-31935D02*
X28981Y-31935D01*
X29058Y-31937D01*
X29135Y-31943D01*
X29212Y-31953D01*
X29288Y-31966D01*
X29363Y-31984D01*
X29437Y-32005D01*
X29510Y-32030D01*
X29582Y-32059D01*
X29652Y-32091D01*
X29721Y-32126D01*
X29787Y-32166D01*
X29852Y-32208D01*
X29914Y-32254D01*
X29974Y-32303D01*
X30031Y-32354D01*
X30086Y-32409D01*
X30137Y-32466D01*
X30186Y-32526D01*
X30232Y-32588D01*
X30274Y-32653D01*
X30314Y-32719D01*
X30349Y-32788D01*
X30381Y-32858D01*
X30410Y-32930D01*
X30435Y-33003D01*
X30456Y-33077D01*
X30474Y-33152D01*
X30487Y-33228D01*
X30497Y-33305D01*
X30503Y-33382D01*
X30505Y-33459D01*
X30505Y-33840D01*
X30503Y-33925D01*
X30497Y-34011D01*
X30488Y-34096D01*
X30474Y-34180D01*
X30457Y-34264D01*
X30436Y-34347D01*
X30412Y-34429D01*
X30384Y-34509D01*
X30352Y-34589D01*
X30316Y-34667D01*
X30278Y-34743D01*
X30235Y-34817D01*
X30190Y-34889D01*
X30141Y-34960D01*
X30089Y-35028D01*
X30035Y-35093D01*
X29977Y-35156D01*
X29916Y-35217D01*
X29853Y-35275D01*
X29788Y-35329D01*
X29720Y-35381D01*
X29649Y-35430D01*
X29577Y-35475D01*
X29503Y-35518D01*
X29427Y-35556D01*
X29349Y-35592D01*
X29269Y-35624D01*
X29189Y-35652D01*
X29107Y-35676D01*
X29024Y-35697D01*
X28940Y-35714D01*
X28856Y-35728D01*
X28771Y-35737D01*
X28685Y-35743D01*
X28600Y-35745D01*
X28515Y-35743D01*
X28429Y-35737D01*
X28344Y-35728D01*
X28260Y-35714D01*
X28176Y-35697D01*
X28093Y-35676D01*
X28011Y-35652D01*
X27931Y-35624D01*
X27851Y-35592D01*
X27773Y-35556D01*
X27697Y-35518D01*
X27623Y-35475D01*
X27551Y-35430D01*
X27480Y-35381D01*
X27412Y-35329D01*
X27347Y-35275D01*
X27284Y-35217D01*
X27223Y-35156D01*
X27165Y-35093D01*
X27111Y-35028D01*
X27059Y-34960D01*
X27010Y-34889D01*
X26965Y-34817D01*
X26922Y-34743D01*
X26884Y-34667D01*
X26848Y-34589D01*
X26816Y-34509D01*
X26788Y-34429D01*
X26764Y-34347D01*
X26743Y-34264D01*
X26726Y-34180D01*
X26712Y-34096D01*
X26703Y-34011D01*
X26697Y-33925D01*
X26695Y-33840D01*
X26695Y-31935D01*
X26697Y-31826D01*
X26703Y-31718D01*
X26712Y-31609D01*
X26726Y-31501D01*
X26743Y-31394D01*
X26765Y-31287D01*
X26790Y-31181D01*
X26818Y-31076D01*
X26851Y-30972D01*
X26887Y-30870D01*
X26927Y-30769D01*
X26970Y-30669D01*
X27017Y-30571D01*
X27068Y-30474D01*
X27122Y-30380D01*
X27179Y-30287D01*
X27239Y-30197D01*
X27303Y-30108D01*
X27370Y-30022D01*
X27439Y-29939D01*
X27512Y-29858D01*
X27588Y-29780D01*
X27666Y-29704D01*
X27747Y-29631D01*
X27830Y-29562D01*
X27916Y-29495D01*
X28005Y-29431D01*
X28095Y-29371D01*
X28188Y-29314D01*
X28282Y-29260D01*
X28379Y-29209D01*
X28477Y-29162D01*
X28577Y-29119D01*
X28678Y-29079D01*
X28780Y-29043D01*
X28884Y-29010D01*
X28989Y-28982D01*
X29095Y-28957D01*
X29202Y-28935D01*
X29309Y-28918D01*
X29417Y-28904D01*
X29526Y-28895D01*
X29634Y-28889D01*
X29743Y-28887D01*
X26695Y-4411D02*
X28600Y-2887D01*
X28600Y-9745D01*
X26695Y-9745D02*
X30505Y-9745D01*
X34010Y-6316D02*
X34012Y-6174D01*
X34017Y-6031D01*
X34026Y-5889D01*
X34039Y-5747D01*
X34055Y-5606D01*
X34074Y-5465D01*
X34098Y-5324D01*
X34124Y-5184D01*
X34155Y-5045D01*
X34189Y-4907D01*
X34226Y-4769D01*
X34266Y-4633D01*
X34311Y-4497D01*
X34358Y-4363D01*
X34409Y-4230D01*
X34463Y-4098D01*
X34521Y-3968D01*
X34582Y-3839D01*
X34581Y-3840D02*
X34607Y-3771D01*
X34636Y-3705D01*
X34668Y-3639D01*
X34703Y-3576D01*
X34742Y-3514D01*
X34784Y-3454D01*
X34829Y-3397D01*
X34877Y-3342D01*
X34928Y-3290D01*
X34981Y-3240D01*
X35037Y-3194D01*
X35095Y-3150D01*
X35156Y-3109D01*
X35218Y-3071D01*
X35282Y-3037D01*
X35348Y-3006D01*
X35416Y-2978D01*
X35485Y-2954D01*
X35555Y-2934D01*
X35626Y-2917D01*
X35697Y-2904D01*
X35769Y-2895D01*
X35842Y-2889D01*
X35915Y-2887D01*
X35988Y-2889D01*
X36061Y-2895D01*
X36133Y-2904D01*
X36204Y-2917D01*
X36275Y-2934D01*
X36345Y-2954D01*
X36414Y-2978D01*
X36482Y-3006D01*
X36548Y-3037D01*
X36612Y-3071D01*
X36674Y-3109D01*
X36735Y-3150D01*
X36793Y-3194D01*
X36849Y-3240D01*
X36902Y-3290D01*
X36953Y-3342D01*
X37001Y-3397D01*
X37046Y-3454D01*
X37088Y-3514D01*
X37127Y-3576D01*
X37162Y-3639D01*
X37194Y-3705D01*
X37223Y-3771D01*
X37249Y-3840D01*
X37249Y-3839D02*
X37310Y-3968D01*
X37368Y-4098D01*
X37422Y-4230D01*
X37473Y-4363D01*
X37520Y-4497D01*
X37565Y-4633D01*
X37605Y-4769D01*
X37642Y-4907D01*
X37676Y-5045D01*
X37707Y-5184D01*
X37733Y-5324D01*
X37757Y-5465D01*
X37776Y-5606D01*
X37792Y-5747D01*
X37805Y-5889D01*
X37814Y-6031D01*
X37819Y-6174D01*
X37821Y-6316D01*
X34010Y-6316D02*
X34012Y-6458D01*
X34017Y-6601D01*
X34026Y-6743D01*
X34039Y-6885D01*
X34055Y-7026D01*
X34074Y-7167D01*
X34098Y-7308D01*
X34124Y-7448D01*
X34155Y-7587D01*
X34189Y-7725D01*
X34226Y-7863D01*
X34266Y-7999D01*
X34311Y-8135D01*
X34358Y-8269D01*
X34409Y-8402D01*
X34463Y-8534D01*
X34521Y-8664D01*
X34582Y-8793D01*
X34581Y-8792D02*
X34607Y-8861D01*
X34636Y-8927D01*
X34668Y-8993D01*
X34703Y-9056D01*
X34742Y-9118D01*
X34784Y-9178D01*
X34829Y-9235D01*
X34877Y-9290D01*
X34928Y-9342D01*
X34981Y-9392D01*
X35037Y-9438D01*
X35095Y-9482D01*
X35156Y-9523D01*
X35218Y-9561D01*
X35282Y-9595D01*
X35348Y-9626D01*
X35416Y-9654D01*
X35485Y-9678D01*
X35555Y-9698D01*
X35626Y-9715D01*
X35697Y-9728D01*
X35769Y-9737D01*
X35842Y-9743D01*
X35915Y-9745D01*
X37249Y-8793D02*
X37310Y-8664D01*
X37368Y-8534D01*
X37422Y-8402D01*
X37473Y-8269D01*
X37520Y-8135D01*
X37565Y-7999D01*
X37605Y-7863D01*
X37642Y-7725D01*
X37676Y-7587D01*
X37707Y-7448D01*
X37733Y-7308D01*
X37757Y-7167D01*
X37776Y-7026D01*
X37792Y-6885D01*
X37805Y-6743D01*
X37814Y-6601D01*
X37819Y-6458D01*
X37821Y-6316D01*
X37249Y-8792D02*
X37223Y-8861D01*
X37194Y-8927D01*
X37162Y-8993D01*
X37127Y-9056D01*
X37088Y-9118D01*
X37046Y-9178D01*
X37001Y-9235D01*
X36953Y-9290D01*
X36902Y-9342D01*
X36849Y-9392D01*
X36793Y-9438D01*
X36735Y-9482D01*
X36674Y-9523D01*
X36612Y-9561D01*
X36548Y-9595D01*
X36482Y-9626D01*
X36414Y-9654D01*
X36345Y-9678D01*
X36275Y-9698D01*
X36204Y-9715D01*
X36133Y-9728D01*
X36061Y-9737D01*
X35988Y-9743D01*
X35915Y-9745D01*
X34391Y-8221D02*
X37439Y-4411D01*
X26695Y28089D02*
X28600Y29613D01*
X28600Y22755D01*
X26695Y22755D02*
X30505Y22755D01*
X34010Y22755D02*
X36296Y22755D01*
X36373Y22757D01*
X36450Y22763D01*
X36527Y22773D01*
X36603Y22786D01*
X36678Y22804D01*
X36752Y22825D01*
X36825Y22850D01*
X36897Y22879D01*
X36967Y22911D01*
X37036Y22946D01*
X37102Y22986D01*
X37167Y23028D01*
X37229Y23074D01*
X37289Y23123D01*
X37346Y23174D01*
X37401Y23229D01*
X37452Y23286D01*
X37501Y23346D01*
X37547Y23408D01*
X37589Y23473D01*
X37629Y23539D01*
X37664Y23608D01*
X37696Y23678D01*
X37725Y23750D01*
X37750Y23823D01*
X37771Y23897D01*
X37789Y23972D01*
X37802Y24048D01*
X37812Y24125D01*
X37818Y24202D01*
X37820Y24279D01*
X37820Y25041D01*
X37818Y25118D01*
X37812Y25195D01*
X37802Y25272D01*
X37789Y25348D01*
X37771Y25423D01*
X37750Y25497D01*
X37725Y25570D01*
X37696Y25642D01*
X37664Y25712D01*
X37629Y25781D01*
X37589Y25847D01*
X37547Y25912D01*
X37501Y25974D01*
X37452Y26034D01*
X37401Y26091D01*
X37346Y26146D01*
X37289Y26197D01*
X37229Y26246D01*
X37167Y26292D01*
X37102Y26334D01*
X37036Y26374D01*
X36967Y26409D01*
X36897Y26441D01*
X36825Y26470D01*
X36752Y26495D01*
X36678Y26516D01*
X36603Y26534D01*
X36527Y26547D01*
X36450Y26557D01*
X36373Y26563D01*
X36296Y26565D01*
X34010Y26565D01*
X34010Y29613D01*
X37820Y29613D01*
X30506Y60399D02*
X30504Y60481D01*
X30498Y60562D01*
X30489Y60643D01*
X30475Y60724D01*
X30458Y60803D01*
X30437Y60882D01*
X30412Y60960D01*
X30383Y61036D01*
X30351Y61111D01*
X30315Y61185D01*
X30276Y61257D01*
X30234Y61326D01*
X30188Y61394D01*
X30139Y61459D01*
X30087Y61522D01*
X30032Y61582D01*
X29974Y61640D01*
X29914Y61695D01*
X29851Y61747D01*
X29786Y61796D01*
X29718Y61842D01*
X29649Y61884D01*
X29577Y61923D01*
X29503Y61959D01*
X29428Y61991D01*
X29352Y62020D01*
X29274Y62045D01*
X29195Y62066D01*
X29116Y62083D01*
X29035Y62097D01*
X28954Y62106D01*
X28873Y62112D01*
X28791Y62114D01*
X28791Y62113D02*
X28699Y62111D01*
X28607Y62105D01*
X28515Y62096D01*
X28423Y62082D01*
X28333Y62065D01*
X28243Y62044D01*
X28154Y62019D01*
X28066Y61990D01*
X27979Y61958D01*
X27894Y61922D01*
X27811Y61883D01*
X27729Y61840D01*
X27649Y61794D01*
X27571Y61744D01*
X27495Y61692D01*
X27422Y61636D01*
X27351Y61577D01*
X27282Y61515D01*
X27216Y61450D01*
X27153Y61383D01*
X27093Y61313D01*
X27035Y61241D01*
X26981Y61166D01*
X26930Y61089D01*
X26882Y61010D01*
X26838Y60929D01*
X26797Y60846D01*
X26759Y60762D01*
X26725Y60676D01*
X26695Y60589D01*
X29934Y59065D02*
X29993Y59124D01*
X30049Y59185D01*
X30102Y59248D01*
X30153Y59314D01*
X30200Y59382D01*
X30244Y59452D01*
X30285Y59524D01*
X30323Y59598D01*
X30357Y59673D01*
X30388Y59750D01*
X30415Y59828D01*
X30439Y59908D01*
X30460Y59988D01*
X30476Y60069D01*
X30489Y60151D01*
X30499Y60233D01*
X30504Y60316D01*
X30506Y60399D01*
X29934Y59065D02*
X26695Y55255D01*
X30505Y55255D01*
X34010Y58684D02*
X34012Y58826D01*
X34017Y58969D01*
X34026Y59111D01*
X34039Y59253D01*
X34055Y59394D01*
X34074Y59535D01*
X34098Y59676D01*
X34124Y59816D01*
X34155Y59955D01*
X34189Y60093D01*
X34226Y60231D01*
X34266Y60367D01*
X34311Y60503D01*
X34358Y60637D01*
X34409Y60770D01*
X34463Y60902D01*
X34521Y61032D01*
X34582Y61161D01*
X34581Y61160D02*
X34607Y61229D01*
X34636Y61295D01*
X34668Y61361D01*
X34703Y61424D01*
X34742Y61486D01*
X34784Y61546D01*
X34829Y61603D01*
X34877Y61658D01*
X34928Y61710D01*
X34981Y61760D01*
X35037Y61806D01*
X35095Y61850D01*
X35156Y61891D01*
X35218Y61929D01*
X35282Y61963D01*
X35348Y61994D01*
X35416Y62022D01*
X35485Y62046D01*
X35555Y62066D01*
X35626Y62083D01*
X35697Y62096D01*
X35769Y62105D01*
X35842Y62111D01*
X35915Y62113D01*
X35988Y62111D01*
X36061Y62105D01*
X36133Y62096D01*
X36204Y62083D01*
X36275Y62066D01*
X36345Y62046D01*
X36414Y62022D01*
X36482Y61994D01*
X36548Y61963D01*
X36612Y61929D01*
X36674Y61891D01*
X36735Y61850D01*
X36793Y61806D01*
X36849Y61760D01*
X36902Y61710D01*
X36953Y61658D01*
X37001Y61603D01*
X37046Y61546D01*
X37088Y61486D01*
X37127Y61424D01*
X37162Y61361D01*
X37194Y61295D01*
X37223Y61229D01*
X37249Y61160D01*
X37249Y61161D02*
X37310Y61032D01*
X37368Y60902D01*
X37422Y60770D01*
X37473Y60637D01*
X37520Y60503D01*
X37565Y60367D01*
X37605Y60231D01*
X37642Y60093D01*
X37676Y59955D01*
X37707Y59816D01*
X37733Y59676D01*
X37757Y59535D01*
X37776Y59394D01*
X37792Y59253D01*
X37805Y59111D01*
X37814Y58969D01*
X37819Y58826D01*
X37821Y58684D01*
X34010Y58684D02*
X34012Y58542D01*
X34017Y58399D01*
X34026Y58257D01*
X34039Y58115D01*
X34055Y57974D01*
X34074Y57833D01*
X34098Y57692D01*
X34124Y57552D01*
X34155Y57413D01*
X34189Y57275D01*
X34226Y57137D01*
X34266Y57001D01*
X34311Y56865D01*
X34358Y56731D01*
X34409Y56598D01*
X34463Y56466D01*
X34521Y56336D01*
X34582Y56207D01*
X34581Y56208D02*
X34607Y56139D01*
X34636Y56073D01*
X34668Y56007D01*
X34703Y55944D01*
X34742Y55882D01*
X34784Y55822D01*
X34829Y55765D01*
X34877Y55710D01*
X34928Y55658D01*
X34981Y55608D01*
X35037Y55562D01*
X35095Y55518D01*
X35156Y55477D01*
X35218Y55439D01*
X35282Y55405D01*
X35348Y55374D01*
X35416Y55346D01*
X35485Y55322D01*
X35555Y55302D01*
X35626Y55285D01*
X35697Y55272D01*
X35769Y55263D01*
X35842Y55257D01*
X35915Y55255D01*
X37249Y56207D02*
X37310Y56336D01*
X37368Y56466D01*
X37422Y56598D01*
X37473Y56731D01*
X37520Y56865D01*
X37565Y57001D01*
X37605Y57137D01*
X37642Y57275D01*
X37676Y57413D01*
X37707Y57552D01*
X37733Y57692D01*
X37757Y57833D01*
X37776Y57974D01*
X37792Y58115D01*
X37805Y58257D01*
X37814Y58399D01*
X37819Y58542D01*
X37821Y58684D01*
X37249Y56208D02*
X37223Y56139D01*
X37194Y56073D01*
X37162Y56007D01*
X37127Y55944D01*
X37088Y55882D01*
X37046Y55822D01*
X37001Y55765D01*
X36953Y55710D01*
X36902Y55658D01*
X36849Y55608D01*
X36793Y55562D01*
X36735Y55518D01*
X36674Y55477D01*
X36612Y55439D01*
X36548Y55405D01*
X36482Y55374D01*
X36414Y55346D01*
X36345Y55322D01*
X36275Y55302D01*
X36204Y55285D01*
X36133Y55272D01*
X36061Y55263D01*
X35988Y55257D01*
X35915Y55255D01*
X34391Y56779D02*
X37439Y60589D01*
X30506Y92899D02*
X30504Y92981D01*
X30498Y93062D01*
X30489Y93143D01*
X30475Y93224D01*
X30458Y93303D01*
X30437Y93382D01*
X30412Y93460D01*
X30383Y93536D01*
X30351Y93611D01*
X30315Y93685D01*
X30276Y93757D01*
X30234Y93826D01*
X30188Y93894D01*
X30139Y93959D01*
X30087Y94022D01*
X30032Y94082D01*
X29974Y94140D01*
X29914Y94195D01*
X29851Y94247D01*
X29786Y94296D01*
X29718Y94342D01*
X29649Y94384D01*
X29577Y94423D01*
X29503Y94459D01*
X29428Y94491D01*
X29352Y94520D01*
X29274Y94545D01*
X29195Y94566D01*
X29116Y94583D01*
X29035Y94597D01*
X28954Y94606D01*
X28873Y94612D01*
X28791Y94614D01*
X28791Y94613D02*
X28699Y94611D01*
X28607Y94605D01*
X28515Y94596D01*
X28423Y94582D01*
X28333Y94565D01*
X28243Y94544D01*
X28154Y94519D01*
X28066Y94490D01*
X27979Y94458D01*
X27894Y94422D01*
X27811Y94383D01*
X27729Y94340D01*
X27649Y94294D01*
X27571Y94244D01*
X27495Y94192D01*
X27422Y94136D01*
X27351Y94077D01*
X27282Y94015D01*
X27216Y93950D01*
X27153Y93883D01*
X27093Y93813D01*
X27035Y93741D01*
X26981Y93666D01*
X26930Y93589D01*
X26882Y93510D01*
X26838Y93429D01*
X26797Y93346D01*
X26759Y93262D01*
X26725Y93176D01*
X26695Y93089D01*
X29934Y91565D02*
X29993Y91624D01*
X30049Y91685D01*
X30102Y91748D01*
X30153Y91814D01*
X30200Y91882D01*
X30244Y91952D01*
X30285Y92024D01*
X30323Y92098D01*
X30357Y92173D01*
X30388Y92250D01*
X30415Y92328D01*
X30439Y92408D01*
X30460Y92488D01*
X30476Y92569D01*
X30489Y92651D01*
X30499Y92733D01*
X30504Y92816D01*
X30506Y92899D01*
X29934Y91565D02*
X26695Y87755D01*
X30505Y87755D01*
X34010Y87755D02*
X36296Y87755D01*
X36373Y87757D01*
X36450Y87763D01*
X36527Y87773D01*
X36603Y87786D01*
X36678Y87804D01*
X36752Y87825D01*
X36825Y87850D01*
X36897Y87879D01*
X36967Y87911D01*
X37036Y87946D01*
X37102Y87986D01*
X37167Y88028D01*
X37229Y88074D01*
X37289Y88123D01*
X37346Y88174D01*
X37401Y88229D01*
X37452Y88286D01*
X37501Y88346D01*
X37547Y88408D01*
X37589Y88473D01*
X37629Y88539D01*
X37664Y88608D01*
X37696Y88678D01*
X37725Y88750D01*
X37750Y88823D01*
X37771Y88897D01*
X37789Y88972D01*
X37802Y89048D01*
X37812Y89125D01*
X37818Y89202D01*
X37820Y89279D01*
X37820Y90041D01*
X37818Y90118D01*
X37812Y90195D01*
X37802Y90272D01*
X37789Y90348D01*
X37771Y90423D01*
X37750Y90497D01*
X37725Y90570D01*
X37696Y90642D01*
X37664Y90712D01*
X37629Y90781D01*
X37589Y90847D01*
X37547Y90912D01*
X37501Y90974D01*
X37452Y91034D01*
X37401Y91091D01*
X37346Y91146D01*
X37289Y91197D01*
X37229Y91246D01*
X37167Y91292D01*
X37102Y91334D01*
X37036Y91374D01*
X36967Y91409D01*
X36897Y91441D01*
X36825Y91470D01*
X36752Y91495D01*
X36678Y91516D01*
X36603Y91534D01*
X36527Y91547D01*
X36450Y91557D01*
X36373Y91563D01*
X36296Y91565D01*
X34010Y91565D01*
X34010Y94613D01*
X37820Y94613D01*
X30506Y112399D02*
X30504Y112481D01*
X30498Y112562D01*
X30489Y112643D01*
X30475Y112724D01*
X30458Y112803D01*
X30437Y112882D01*
X30412Y112960D01*
X30383Y113036D01*
X30351Y113111D01*
X30315Y113185D01*
X30276Y113257D01*
X30234Y113326D01*
X30188Y113394D01*
X30139Y113459D01*
X30087Y113522D01*
X30032Y113582D01*
X29974Y113640D01*
X29914Y113695D01*
X29851Y113747D01*
X29786Y113796D01*
X29718Y113842D01*
X29649Y113884D01*
X29577Y113923D01*
X29503Y113959D01*
X29428Y113991D01*
X29352Y114020D01*
X29274Y114045D01*
X29195Y114066D01*
X29116Y114083D01*
X29035Y114097D01*
X28954Y114106D01*
X28873Y114112D01*
X28791Y114114D01*
X28791Y114113D02*
X28699Y114111D01*
X28607Y114105D01*
X28515Y114096D01*
X28423Y114082D01*
X28333Y114065D01*
X28243Y114044D01*
X28154Y114019D01*
X28066Y113990D01*
X27979Y113958D01*
X27894Y113922D01*
X27811Y113883D01*
X27729Y113840D01*
X27649Y113794D01*
X27571Y113744D01*
X27495Y113692D01*
X27422Y113636D01*
X27351Y113577D01*
X27282Y113515D01*
X27216Y113450D01*
X27153Y113383D01*
X27093Y113313D01*
X27035Y113241D01*
X26981Y113166D01*
X26930Y113089D01*
X26882Y113010D01*
X26838Y112929D01*
X26797Y112846D01*
X26759Y112762D01*
X26725Y112676D01*
X26695Y112589D01*
X29934Y111065D02*
X29993Y111124D01*
X30049Y111185D01*
X30102Y111248D01*
X30153Y111314D01*
X30200Y111382D01*
X30244Y111452D01*
X30285Y111524D01*
X30323Y111598D01*
X30357Y111673D01*
X30388Y111750D01*
X30415Y111828D01*
X30439Y111908D01*
X30460Y111988D01*
X30476Y112069D01*
X30489Y112151D01*
X30499Y112233D01*
X30504Y112316D01*
X30506Y112399D01*
X29934Y111065D02*
X26695Y107255D01*
X30505Y107255D01*
X34010Y109160D02*
X34012Y109245D01*
X34018Y109331D01*
X34027Y109416D01*
X34041Y109500D01*
X34058Y109584D01*
X34079Y109667D01*
X34103Y109749D01*
X34131Y109829D01*
X34163Y109909D01*
X34199Y109987D01*
X34237Y110063D01*
X34280Y110137D01*
X34325Y110209D01*
X34374Y110280D01*
X34426Y110348D01*
X34480Y110413D01*
X34538Y110476D01*
X34599Y110537D01*
X34662Y110595D01*
X34727Y110649D01*
X34795Y110701D01*
X34866Y110750D01*
X34938Y110795D01*
X35012Y110838D01*
X35088Y110876D01*
X35166Y110912D01*
X35246Y110944D01*
X35326Y110972D01*
X35408Y110996D01*
X35491Y111017D01*
X35575Y111034D01*
X35659Y111048D01*
X35744Y111057D01*
X35830Y111063D01*
X35915Y111065D01*
X36000Y111063D01*
X36086Y111057D01*
X36171Y111048D01*
X36255Y111034D01*
X36339Y111017D01*
X36422Y110996D01*
X36504Y110972D01*
X36584Y110944D01*
X36664Y110912D01*
X36742Y110876D01*
X36818Y110838D01*
X36892Y110795D01*
X36964Y110750D01*
X37035Y110701D01*
X37103Y110649D01*
X37168Y110595D01*
X37231Y110537D01*
X37292Y110476D01*
X37350Y110413D01*
X37404Y110348D01*
X37456Y110280D01*
X37505Y110209D01*
X37550Y110137D01*
X37593Y110063D01*
X37631Y109987D01*
X37667Y109909D01*
X37699Y109829D01*
X37727Y109749D01*
X37751Y109667D01*
X37772Y109584D01*
X37789Y109500D01*
X37803Y109416D01*
X37812Y109331D01*
X37818Y109245D01*
X37820Y109160D01*
X37818Y109075D01*
X37812Y108989D01*
X37803Y108904D01*
X37789Y108820D01*
X37772Y108736D01*
X37751Y108653D01*
X37727Y108571D01*
X37699Y108491D01*
X37667Y108411D01*
X37631Y108333D01*
X37593Y108257D01*
X37550Y108183D01*
X37505Y108111D01*
X37456Y108040D01*
X37404Y107972D01*
X37350Y107907D01*
X37292Y107844D01*
X37231Y107783D01*
X37168Y107725D01*
X37103Y107671D01*
X37035Y107619D01*
X36964Y107570D01*
X36892Y107525D01*
X36818Y107482D01*
X36742Y107444D01*
X36664Y107408D01*
X36584Y107376D01*
X36504Y107348D01*
X36422Y107324D01*
X36339Y107303D01*
X36255Y107286D01*
X36171Y107272D01*
X36086Y107263D01*
X36000Y107257D01*
X35915Y107255D01*
X35830Y107257D01*
X35744Y107263D01*
X35659Y107272D01*
X35575Y107286D01*
X35491Y107303D01*
X35408Y107324D01*
X35326Y107348D01*
X35246Y107376D01*
X35166Y107408D01*
X35088Y107444D01*
X35012Y107482D01*
X34938Y107525D01*
X34866Y107570D01*
X34795Y107619D01*
X34727Y107671D01*
X34662Y107725D01*
X34599Y107783D01*
X34538Y107844D01*
X34480Y107907D01*
X34426Y107972D01*
X34374Y108040D01*
X34325Y108111D01*
X34280Y108183D01*
X34237Y108257D01*
X34199Y108333D01*
X34163Y108411D01*
X34131Y108491D01*
X34103Y108571D01*
X34079Y108653D01*
X34058Y108736D01*
X34041Y108820D01*
X34027Y108904D01*
X34018Y108989D01*
X34012Y109075D01*
X34010Y109160D01*
X34391Y112589D02*
X34393Y112666D01*
X34399Y112743D01*
X34409Y112820D01*
X34422Y112896D01*
X34440Y112971D01*
X34461Y113045D01*
X34486Y113118D01*
X34515Y113190D01*
X34547Y113260D01*
X34582Y113329D01*
X34622Y113395D01*
X34664Y113460D01*
X34710Y113522D01*
X34759Y113582D01*
X34810Y113639D01*
X34865Y113694D01*
X34922Y113745D01*
X34982Y113794D01*
X35044Y113840D01*
X35109Y113882D01*
X35175Y113922D01*
X35244Y113957D01*
X35314Y113989D01*
X35386Y114018D01*
X35459Y114043D01*
X35533Y114064D01*
X35608Y114082D01*
X35684Y114095D01*
X35761Y114105D01*
X35838Y114111D01*
X35915Y114113D01*
X35992Y114111D01*
X36069Y114105D01*
X36146Y114095D01*
X36222Y114082D01*
X36297Y114064D01*
X36371Y114043D01*
X36444Y114018D01*
X36516Y113989D01*
X36586Y113957D01*
X36655Y113922D01*
X36721Y113882D01*
X36786Y113840D01*
X36848Y113794D01*
X36908Y113745D01*
X36965Y113694D01*
X37020Y113639D01*
X37071Y113582D01*
X37120Y113522D01*
X37166Y113460D01*
X37208Y113395D01*
X37248Y113329D01*
X37283Y113260D01*
X37315Y113190D01*
X37344Y113118D01*
X37369Y113045D01*
X37390Y112971D01*
X37408Y112896D01*
X37421Y112820D01*
X37431Y112743D01*
X37437Y112666D01*
X37439Y112589D01*
X37437Y112512D01*
X37431Y112435D01*
X37421Y112358D01*
X37408Y112282D01*
X37390Y112207D01*
X37369Y112133D01*
X37344Y112060D01*
X37315Y111988D01*
X37283Y111918D01*
X37248Y111849D01*
X37208Y111783D01*
X37166Y111718D01*
X37120Y111656D01*
X37071Y111596D01*
X37020Y111539D01*
X36965Y111484D01*
X36908Y111433D01*
X36848Y111384D01*
X36786Y111338D01*
X36721Y111296D01*
X36655Y111256D01*
X36586Y111221D01*
X36516Y111189D01*
X36444Y111160D01*
X36371Y111135D01*
X36297Y111114D01*
X36222Y111096D01*
X36146Y111083D01*
X36069Y111073D01*
X35992Y111067D01*
X35915Y111065D01*
X35838Y111067D01*
X35761Y111073D01*
X35684Y111083D01*
X35608Y111096D01*
X35533Y111114D01*
X35459Y111135D01*
X35386Y111160D01*
X35314Y111189D01*
X35244Y111221D01*
X35175Y111256D01*
X35109Y111296D01*
X35044Y111338D01*
X34982Y111384D01*
X34922Y111433D01*
X34865Y111484D01*
X34810Y111539D01*
X34759Y111596D01*
X34710Y111656D01*
X34664Y111718D01*
X34622Y111783D01*
X34582Y111849D01*
X34547Y111918D01*
X34515Y111988D01*
X34486Y112060D01*
X34461Y112133D01*
X34440Y112207D01*
X34422Y112282D01*
X34409Y112358D01*
X34399Y112435D01*
X34393Y112512D01*
X34391Y112589D01*
X1227625Y-44781D02*
X1227746Y-44880D01*
X1227870Y-44977D01*
X1227996Y-45070D01*
X1228125Y-45160D01*
X1228255Y-45248D01*
X1228388Y-45332D01*
X1228522Y-45413D01*
X1228658Y-45490D01*
X1228797Y-45564D01*
X1228937Y-45635D01*
X1229078Y-45703D01*
X1229222Y-45767D01*
X1229366Y-45828D01*
X1229513Y-45885D01*
X1229660Y-45939D01*
X1229809Y-45989D01*
X1229959Y-46035D01*
X1230110Y-46078D01*
X1230262Y-46117D01*
X1230414Y-46153D01*
X1230568Y-46185D01*
X1230723Y-46213D01*
X1230878Y-46237D01*
X1231033Y-46258D01*
X1231189Y-46275D01*
X1231346Y-46288D01*
X1231502Y-46297D01*
X1231659Y-46303D01*
X1231816Y-46305D01*
X1231973Y-46303D01*
X1232130Y-46297D01*
X1232286Y-46288D01*
X1232443Y-46275D01*
X1232599Y-46258D01*
X1232754Y-46237D01*
X1232909Y-46213D01*
X1233064Y-46185D01*
X1233218Y-46153D01*
X1233370Y-46117D01*
X1233522Y-46078D01*
X1233673Y-46035D01*
X1233823Y-45989D01*
X1233972Y-45939D01*
X1234119Y-45885D01*
X1234266Y-45828D01*
X1234410Y-45767D01*
X1234554Y-45703D01*
X1234695Y-45635D01*
X1234835Y-45564D01*
X1234974Y-45490D01*
X1235110Y-45413D01*
X1235244Y-45332D01*
X1235377Y-45248D01*
X1235507Y-45160D01*
X1235636Y-45070D01*
X1235762Y-44977D01*
X1235886Y-44880D01*
X1236007Y-44781D01*
X1235245Y-41220D02*
X1228387Y-41220D01*
X1228387Y-39315D01*
X1228389Y-39230D01*
X1228395Y-39144D01*
X1228404Y-39059D01*
X1228418Y-38975D01*
X1228435Y-38891D01*
X1228456Y-38808D01*
X1228480Y-38726D01*
X1228508Y-38646D01*
X1228540Y-38566D01*
X1228576Y-38488D01*
X1228614Y-38412D01*
X1228657Y-38338D01*
X1228702Y-38266D01*
X1228751Y-38195D01*
X1228803Y-38127D01*
X1228857Y-38062D01*
X1228915Y-37999D01*
X1228976Y-37938D01*
X1229039Y-37880D01*
X1229104Y-37826D01*
X1229172Y-37774D01*
X1229243Y-37725D01*
X1229315Y-37680D01*
X1229389Y-37637D01*
X1229465Y-37599D01*
X1229543Y-37563D01*
X1229623Y-37531D01*
X1229703Y-37503D01*
X1229785Y-37479D01*
X1229868Y-37458D01*
X1229952Y-37441D01*
X1230036Y-37427D01*
X1230121Y-37418D01*
X1230207Y-37412D01*
X1230292Y-37410D01*
X1230377Y-37412D01*
X1230463Y-37418D01*
X1230548Y-37427D01*
X1230632Y-37441D01*
X1230716Y-37458D01*
X1230799Y-37479D01*
X1230881Y-37503D01*
X1230961Y-37531D01*
X1231041Y-37563D01*
X1231119Y-37599D01*
X1231195Y-37637D01*
X1231269Y-37680D01*
X1231341Y-37725D01*
X1231412Y-37774D01*
X1231480Y-37826D01*
X1231545Y-37880D01*
X1231608Y-37938D01*
X1231669Y-37999D01*
X1231727Y-38062D01*
X1231781Y-38127D01*
X1231833Y-38195D01*
X1231882Y-38266D01*
X1231927Y-38338D01*
X1231970Y-38412D01*
X1232008Y-38488D01*
X1232044Y-38566D01*
X1232076Y-38646D01*
X1232104Y-38726D01*
X1232128Y-38808D01*
X1232149Y-38891D01*
X1232166Y-38975D01*
X1232180Y-39059D01*
X1232189Y-39144D01*
X1232195Y-39230D01*
X1232197Y-39315D01*
X1232197Y-41220D01*
X1230673Y-34598D02*
X1235245Y-34598D01*
X1228768Y-34789D02*
X1228387Y-34789D01*
X1228387Y-34408D01*
X1228768Y-34408D01*
X1228768Y-34789D01*
X1230673Y-31245D02*
X1235245Y-31245D01*
X1230673Y-31245D02*
X1230673Y-29340D01*
X1230675Y-29274D01*
X1230681Y-29207D01*
X1230690Y-29142D01*
X1230704Y-29076D01*
X1230721Y-29012D01*
X1230742Y-28949D01*
X1230766Y-28887D01*
X1230795Y-28827D01*
X1230826Y-28768D01*
X1230861Y-28712D01*
X1230899Y-28657D01*
X1230940Y-28605D01*
X1230985Y-28556D01*
X1231032Y-28509D01*
X1231081Y-28464D01*
X1231133Y-28423D01*
X1231188Y-28385D01*
X1231245Y-28350D01*
X1231303Y-28319D01*
X1231363Y-28290D01*
X1231425Y-28266D01*
X1231488Y-28245D01*
X1231552Y-28228D01*
X1231618Y-28214D01*
X1231683Y-28205D01*
X1231750Y-28199D01*
X1231816Y-28197D01*
X1235245Y-28197D01*
X1233721Y-24662D02*
X1232197Y-24662D01*
X1232120Y-24660D01*
X1232043Y-24654D01*
X1231966Y-24644D01*
X1231890Y-24631D01*
X1231815Y-24613D01*
X1231741Y-24592D01*
X1231668Y-24567D01*
X1231596Y-24538D01*
X1231526Y-24506D01*
X1231457Y-24471D01*
X1231391Y-24431D01*
X1231326Y-24389D01*
X1231264Y-24343D01*
X1231204Y-24294D01*
X1231147Y-24243D01*
X1231092Y-24188D01*
X1231041Y-24131D01*
X1230992Y-24071D01*
X1230946Y-24009D01*
X1230904Y-23944D01*
X1230864Y-23878D01*
X1230829Y-23809D01*
X1230797Y-23739D01*
X1230768Y-23667D01*
X1230743Y-23594D01*
X1230722Y-23520D01*
X1230704Y-23445D01*
X1230691Y-23369D01*
X1230681Y-23292D01*
X1230675Y-23215D01*
X1230673Y-23138D01*
X1230675Y-23061D01*
X1230681Y-22984D01*
X1230691Y-22907D01*
X1230704Y-22831D01*
X1230722Y-22756D01*
X1230743Y-22682D01*
X1230768Y-22609D01*
X1230797Y-22537D01*
X1230829Y-22467D01*
X1230864Y-22398D01*
X1230904Y-22332D01*
X1230946Y-22267D01*
X1230992Y-22205D01*
X1231041Y-22145D01*
X1231092Y-22088D01*
X1231147Y-22033D01*
X1231204Y-21982D01*
X1231264Y-21933D01*
X1231326Y-21887D01*
X1231391Y-21845D01*
X1231457Y-21805D01*
X1231526Y-21770D01*
X1231596Y-21738D01*
X1231668Y-21709D01*
X1231741Y-21684D01*
X1231815Y-21663D01*
X1231890Y-21645D01*
X1231966Y-21632D01*
X1232043Y-21622D01*
X1232120Y-21616D01*
X1232197Y-21614D01*
X1233721Y-21614D01*
X1233798Y-21616D01*
X1233875Y-21622D01*
X1233952Y-21632D01*
X1234028Y-21645D01*
X1234103Y-21663D01*
X1234177Y-21684D01*
X1234250Y-21709D01*
X1234322Y-21738D01*
X1234392Y-21770D01*
X1234461Y-21805D01*
X1234527Y-21845D01*
X1234592Y-21887D01*
X1234654Y-21933D01*
X1234714Y-21982D01*
X1234771Y-22033D01*
X1234826Y-22088D01*
X1234877Y-22145D01*
X1234926Y-22205D01*
X1234972Y-22267D01*
X1235014Y-22332D01*
X1235054Y-22398D01*
X1235089Y-22467D01*
X1235121Y-22537D01*
X1235150Y-22609D01*
X1235175Y-22682D01*
X1235196Y-22756D01*
X1235214Y-22831D01*
X1235227Y-22907D01*
X1235237Y-22984D01*
X1235243Y-23061D01*
X1235245Y-23138D01*
X1235243Y-23215D01*
X1235237Y-23292D01*
X1235227Y-23369D01*
X1235214Y-23445D01*
X1235196Y-23520D01*
X1235175Y-23594D01*
X1235150Y-23667D01*
X1235121Y-23739D01*
X1235089Y-23809D01*
X1235054Y-23878D01*
X1235014Y-23944D01*
X1234972Y-24009D01*
X1234926Y-24071D01*
X1234877Y-24131D01*
X1234826Y-24188D01*
X1234771Y-24243D01*
X1234714Y-24294D01*
X1234654Y-24343D01*
X1234592Y-24389D01*
X1234527Y-24431D01*
X1234461Y-24471D01*
X1234392Y-24506D01*
X1234322Y-24538D01*
X1234250Y-24567D01*
X1234177Y-24592D01*
X1234103Y-24613D01*
X1234028Y-24631D01*
X1233952Y-24644D01*
X1233875Y-24654D01*
X1233798Y-24660D01*
X1233721Y-24662D01*
X1234102Y-18078D02*
X1230673Y-18078D01*
X1234102Y-18078D02*
X1234168Y-18076D01*
X1234235Y-18070D01*
X1234300Y-18061D01*
X1234366Y-18047D01*
X1234430Y-18030D01*
X1234493Y-18009D01*
X1234555Y-17985D01*
X1234615Y-17956D01*
X1234674Y-17925D01*
X1234730Y-17890D01*
X1234785Y-17852D01*
X1234837Y-17811D01*
X1234886Y-17766D01*
X1234933Y-17719D01*
X1234978Y-17670D01*
X1235019Y-17618D01*
X1235057Y-17563D01*
X1235092Y-17506D01*
X1235123Y-17448D01*
X1235152Y-17388D01*
X1235176Y-17326D01*
X1235197Y-17263D01*
X1235214Y-17199D01*
X1235228Y-17133D01*
X1235237Y-17068D01*
X1235243Y-17001D01*
X1235245Y-16935D01*
X1235245Y-15030D01*
X1230673Y-15030D01*
X1230673Y-12176D02*
X1230673Y-9890D01*
X1228387Y-11414D02*
X1234102Y-11414D01*
X1234168Y-11412D01*
X1234235Y-11406D01*
X1234300Y-11397D01*
X1234366Y-11383D01*
X1234430Y-11366D01*
X1234493Y-11345D01*
X1234555Y-11321D01*
X1234615Y-11292D01*
X1234674Y-11261D01*
X1234730Y-11226D01*
X1234785Y-11188D01*
X1234837Y-11147D01*
X1234886Y-11102D01*
X1234933Y-11055D01*
X1234978Y-11006D01*
X1235019Y-10954D01*
X1235057Y-10899D01*
X1235092Y-10842D01*
X1235123Y-10784D01*
X1235152Y-10724D01*
X1235176Y-10662D01*
X1235197Y-10599D01*
X1235214Y-10535D01*
X1235228Y-10469D01*
X1235237Y-10404D01*
X1235243Y-10337D01*
X1235245Y-10271D01*
X1235245Y-9890D01*
X1230673Y-3204D02*
X1235245Y-1680D01*
X1230673Y-156D01*
X1235245Y2999D02*
X1235245Y5285D01*
X1235243Y5362D01*
X1235237Y5439D01*
X1235227Y5516D01*
X1235214Y5592D01*
X1235196Y5667D01*
X1235175Y5741D01*
X1235150Y5814D01*
X1235121Y5886D01*
X1235089Y5956D01*
X1235054Y6025D01*
X1235014Y6091D01*
X1234972Y6156D01*
X1234926Y6218D01*
X1234877Y6278D01*
X1234826Y6335D01*
X1234771Y6390D01*
X1234714Y6441D01*
X1234654Y6490D01*
X1234592Y6536D01*
X1234527Y6578D01*
X1234461Y6618D01*
X1234392Y6653D01*
X1234322Y6685D01*
X1234250Y6714D01*
X1234177Y6739D01*
X1234103Y6760D01*
X1234028Y6778D01*
X1233952Y6791D01*
X1233875Y6801D01*
X1233798Y6807D01*
X1233721Y6809D01*
X1232959Y6809D01*
X1232882Y6807D01*
X1232805Y6801D01*
X1232728Y6791D01*
X1232652Y6778D01*
X1232577Y6760D01*
X1232503Y6739D01*
X1232430Y6714D01*
X1232358Y6685D01*
X1232288Y6653D01*
X1232219Y6618D01*
X1232153Y6578D01*
X1232088Y6536D01*
X1232026Y6490D01*
X1231966Y6441D01*
X1231909Y6390D01*
X1231854Y6335D01*
X1231803Y6278D01*
X1231754Y6218D01*
X1231708Y6156D01*
X1231666Y6091D01*
X1231626Y6025D01*
X1231591Y5956D01*
X1231559Y5886D01*
X1231530Y5814D01*
X1231505Y5741D01*
X1231484Y5667D01*
X1231466Y5592D01*
X1231453Y5516D01*
X1231443Y5439D01*
X1231437Y5362D01*
X1231435Y5285D01*
X1231435Y2999D01*
X1228387Y2999D01*
X1228387Y6809D01*
X1231816Y11491D02*
X1231973Y11489D01*
X1232130Y11483D01*
X1232286Y11474D01*
X1232443Y11461D01*
X1232599Y11444D01*
X1232754Y11423D01*
X1232909Y11399D01*
X1233064Y11371D01*
X1233218Y11339D01*
X1233370Y11303D01*
X1233522Y11264D01*
X1233673Y11221D01*
X1233823Y11175D01*
X1233972Y11125D01*
X1234119Y11071D01*
X1234266Y11014D01*
X1234410Y10953D01*
X1234554Y10889D01*
X1234695Y10821D01*
X1234835Y10750D01*
X1234974Y10676D01*
X1235110Y10599D01*
X1235244Y10518D01*
X1235377Y10434D01*
X1235507Y10346D01*
X1235636Y10256D01*
X1235762Y10163D01*
X1235886Y10066D01*
X1236007Y9967D01*
X1231816Y11491D02*
X1231659Y11489D01*
X1231502Y11483D01*
X1231346Y11474D01*
X1231189Y11461D01*
X1231033Y11444D01*
X1230878Y11423D01*
X1230723Y11399D01*
X1230568Y11371D01*
X1230414Y11339D01*
X1230262Y11303D01*
X1230110Y11264D01*
X1229959Y11221D01*
X1229809Y11175D01*
X1229660Y11125D01*
X1229513Y11071D01*
X1229366Y11014D01*
X1229222Y10953D01*
X1229078Y10889D01*
X1228937Y10821D01*
X1228797Y10750D01*
X1228658Y10676D01*
X1228522Y10599D01*
X1228388Y10518D01*
X1228255Y10434D01*
X1228125Y10346D01*
X1227996Y10256D01*
X1227870Y10163D01*
X1227746Y10066D01*
X1227625Y9967D01*
D10*
X5000Y114500D02*
X1000Y114500D01*
X5000Y114500D02*
X7500Y117000D01*
X7500Y122000D01*
X11500Y126000D01*
D12*
X81882Y105678D02*
X90518Y105678D01*
X90518Y103279D01*
X90516Y103182D01*
X90510Y103086D01*
X90501Y102990D01*
X90487Y102894D01*
X90470Y102799D01*
X90448Y102705D01*
X90423Y102612D01*
X90395Y102519D01*
X90362Y102428D01*
X90326Y102339D01*
X90286Y102251D01*
X90243Y102164D01*
X90197Y102079D01*
X90147Y101997D01*
X90093Y101916D01*
X90037Y101838D01*
X89977Y101762D01*
X89915Y101688D01*
X89849Y101617D01*
X89781Y101549D01*
X89710Y101483D01*
X89636Y101421D01*
X89560Y101361D01*
X89482Y101305D01*
X89401Y101251D01*
X89318Y101201D01*
X89234Y101155D01*
X89147Y101112D01*
X89059Y101072D01*
X88970Y101036D01*
X88879Y101003D01*
X88786Y100975D01*
X88693Y100950D01*
X88599Y100928D01*
X88504Y100911D01*
X88408Y100897D01*
X88312Y100888D01*
X88216Y100882D01*
X88119Y100880D01*
X88022Y100882D01*
X87926Y100888D01*
X87830Y100897D01*
X87734Y100911D01*
X87639Y100928D01*
X87545Y100950D01*
X87452Y100975D01*
X87359Y101003D01*
X87268Y101036D01*
X87179Y101072D01*
X87091Y101112D01*
X87004Y101155D01*
X86919Y101201D01*
X86837Y101251D01*
X86756Y101305D01*
X86678Y101361D01*
X86602Y101421D01*
X86528Y101483D01*
X86457Y101549D01*
X86389Y101617D01*
X86323Y101688D01*
X86261Y101762D01*
X86201Y101838D01*
X86145Y101916D01*
X86091Y101997D01*
X86041Y102080D01*
X85995Y102164D01*
X85952Y102251D01*
X85912Y102339D01*
X85876Y102428D01*
X85843Y102519D01*
X85815Y102612D01*
X85790Y102705D01*
X85768Y102799D01*
X85751Y102894D01*
X85737Y102990D01*
X85728Y103086D01*
X85722Y103182D01*
X85720Y103279D01*
X85720Y105678D01*
X85720Y102799D02*
X81882Y100880D01*
X81882Y96314D02*
X90518Y96314D01*
X81882Y91516D01*
X90518Y91516D01*
X88599Y86865D02*
X90518Y84466D01*
X81882Y84466D01*
X81882Y86865D02*
X81882Y82067D01*
X81882Y63178D02*
X90518Y63178D01*
X90518Y60779D01*
X90516Y60682D01*
X90510Y60586D01*
X90501Y60490D01*
X90487Y60394D01*
X90470Y60299D01*
X90448Y60205D01*
X90423Y60112D01*
X90395Y60019D01*
X90362Y59928D01*
X90326Y59839D01*
X90286Y59751D01*
X90243Y59664D01*
X90197Y59579D01*
X90147Y59497D01*
X90093Y59416D01*
X90037Y59338D01*
X89977Y59262D01*
X89915Y59188D01*
X89849Y59117D01*
X89781Y59049D01*
X89710Y58983D01*
X89636Y58921D01*
X89560Y58861D01*
X89482Y58805D01*
X89401Y58751D01*
X89318Y58701D01*
X89234Y58655D01*
X89147Y58612D01*
X89059Y58572D01*
X88970Y58536D01*
X88879Y58503D01*
X88786Y58475D01*
X88693Y58450D01*
X88599Y58428D01*
X88504Y58411D01*
X88408Y58397D01*
X88312Y58388D01*
X88216Y58382D01*
X88119Y58380D01*
X88022Y58382D01*
X87926Y58388D01*
X87830Y58397D01*
X87734Y58411D01*
X87639Y58428D01*
X87545Y58450D01*
X87452Y58475D01*
X87359Y58503D01*
X87268Y58536D01*
X87179Y58572D01*
X87091Y58612D01*
X87004Y58655D01*
X86919Y58701D01*
X86837Y58751D01*
X86756Y58805D01*
X86678Y58861D01*
X86602Y58921D01*
X86528Y58983D01*
X86457Y59049D01*
X86389Y59117D01*
X86323Y59188D01*
X86261Y59262D01*
X86201Y59338D01*
X86145Y59416D01*
X86091Y59497D01*
X86041Y59580D01*
X85995Y59664D01*
X85952Y59751D01*
X85912Y59839D01*
X85876Y59928D01*
X85843Y60019D01*
X85815Y60112D01*
X85790Y60205D01*
X85768Y60299D01*
X85751Y60394D01*
X85737Y60490D01*
X85728Y60586D01*
X85722Y60682D01*
X85720Y60779D01*
X85720Y63178D01*
X85720Y60299D02*
X81882Y58380D01*
X81882Y53814D02*
X90518Y53814D01*
X81882Y49016D01*
X90518Y49016D01*
X90518Y41726D02*
X90516Y41634D01*
X90510Y41543D01*
X90501Y41452D01*
X90487Y41361D01*
X90470Y41271D01*
X90448Y41182D01*
X90423Y41094D01*
X90395Y41007D01*
X90362Y40921D01*
X90326Y40837D01*
X90287Y40754D01*
X90244Y40673D01*
X90197Y40594D01*
X90148Y40517D01*
X90095Y40442D01*
X90039Y40370D01*
X89980Y40300D01*
X89918Y40232D01*
X89853Y40167D01*
X89785Y40105D01*
X89715Y40046D01*
X89643Y39990D01*
X89568Y39937D01*
X89491Y39888D01*
X89412Y39841D01*
X89331Y39798D01*
X89248Y39759D01*
X89164Y39723D01*
X89078Y39690D01*
X88991Y39662D01*
X88903Y39637D01*
X88814Y39615D01*
X88724Y39598D01*
X88633Y39584D01*
X88542Y39575D01*
X88451Y39569D01*
X88359Y39567D01*
X90518Y41726D02*
X90516Y41829D01*
X90510Y41931D01*
X90501Y42033D01*
X90488Y42135D01*
X90471Y42236D01*
X90450Y42337D01*
X90426Y42436D01*
X90397Y42535D01*
X90366Y42632D01*
X90330Y42729D01*
X90292Y42824D01*
X90249Y42917D01*
X90203Y43009D01*
X90154Y43099D01*
X90102Y43187D01*
X90046Y43274D01*
X89987Y43358D01*
X89926Y43439D01*
X89861Y43519D01*
X89793Y43596D01*
X89722Y43671D01*
X89649Y43742D01*
X89573Y43811D01*
X89495Y43878D01*
X89414Y43941D01*
X89331Y44001D01*
X89246Y44058D01*
X89159Y44112D01*
X89069Y44163D01*
X88978Y44210D01*
X88886Y44254D01*
X88791Y44295D01*
X88696Y44332D01*
X88599Y44365D01*
X86680Y40287D02*
X86746Y40220D01*
X86815Y40156D01*
X86886Y40095D01*
X86960Y40037D01*
X87036Y39982D01*
X87114Y39930D01*
X87194Y39881D01*
X87276Y39835D01*
X87360Y39793D01*
X87446Y39754D01*
X87533Y39719D01*
X87621Y39688D01*
X87711Y39660D01*
X87801Y39635D01*
X87893Y39614D01*
X87985Y39597D01*
X88078Y39584D01*
X88171Y39575D01*
X88265Y39569D01*
X88359Y39567D01*
X86680Y40287D02*
X81882Y44365D01*
X81882Y39567D01*
X82382Y22678D02*
X91018Y22678D01*
X91018Y20279D01*
X91016Y20182D01*
X91010Y20086D01*
X91001Y19990D01*
X90987Y19894D01*
X90970Y19799D01*
X90948Y19705D01*
X90923Y19612D01*
X90895Y19519D01*
X90862Y19428D01*
X90826Y19339D01*
X90786Y19251D01*
X90743Y19164D01*
X90697Y19079D01*
X90647Y18997D01*
X90593Y18916D01*
X90537Y18838D01*
X90477Y18762D01*
X90415Y18688D01*
X90349Y18617D01*
X90281Y18549D01*
X90210Y18483D01*
X90136Y18421D01*
X90060Y18361D01*
X89982Y18305D01*
X89901Y18251D01*
X89818Y18201D01*
X89734Y18155D01*
X89647Y18112D01*
X89559Y18072D01*
X89470Y18036D01*
X89379Y18003D01*
X89286Y17975D01*
X89193Y17950D01*
X89099Y17928D01*
X89004Y17911D01*
X88908Y17897D01*
X88812Y17888D01*
X88716Y17882D01*
X88619Y17880D01*
X88522Y17882D01*
X88426Y17888D01*
X88330Y17897D01*
X88234Y17911D01*
X88139Y17928D01*
X88045Y17950D01*
X87952Y17975D01*
X87859Y18003D01*
X87768Y18036D01*
X87679Y18072D01*
X87591Y18112D01*
X87504Y18155D01*
X87419Y18201D01*
X87337Y18251D01*
X87256Y18305D01*
X87178Y18361D01*
X87102Y18421D01*
X87028Y18483D01*
X86957Y18549D01*
X86889Y18617D01*
X86823Y18688D01*
X86761Y18762D01*
X86701Y18838D01*
X86645Y18916D01*
X86591Y18997D01*
X86541Y19080D01*
X86495Y19164D01*
X86452Y19251D01*
X86412Y19339D01*
X86376Y19428D01*
X86343Y19519D01*
X86315Y19612D01*
X86290Y19705D01*
X86268Y19799D01*
X86251Y19894D01*
X86237Y19990D01*
X86228Y20086D01*
X86222Y20182D01*
X86220Y20279D01*
X86220Y22678D01*
X86220Y19799D02*
X82382Y17880D01*
X82382Y13314D02*
X91018Y13314D01*
X82382Y8516D01*
X91018Y8516D01*
X82382Y3865D02*
X82382Y1466D01*
X82384Y1369D01*
X82390Y1273D01*
X82399Y1177D01*
X82413Y1081D01*
X82430Y986D01*
X82452Y892D01*
X82477Y799D01*
X82505Y706D01*
X82538Y615D01*
X82574Y526D01*
X82614Y438D01*
X82657Y351D01*
X82703Y267D01*
X82753Y184D01*
X82807Y103D01*
X82863Y25D01*
X82923Y-51D01*
X82985Y-125D01*
X83051Y-196D01*
X83119Y-264D01*
X83190Y-330D01*
X83264Y-392D01*
X83340Y-452D01*
X83418Y-508D01*
X83499Y-562D01*
X83581Y-612D01*
X83666Y-658D01*
X83753Y-701D01*
X83841Y-741D01*
X83930Y-777D01*
X84021Y-810D01*
X84114Y-838D01*
X84207Y-863D01*
X84301Y-885D01*
X84396Y-902D01*
X84492Y-916D01*
X84588Y-925D01*
X84684Y-931D01*
X84781Y-933D01*
X84878Y-931D01*
X84974Y-925D01*
X85070Y-916D01*
X85166Y-902D01*
X85261Y-885D01*
X85355Y-863D01*
X85448Y-838D01*
X85541Y-810D01*
X85632Y-777D01*
X85721Y-741D01*
X85809Y-701D01*
X85896Y-658D01*
X85980Y-612D01*
X86063Y-562D01*
X86144Y-508D01*
X86222Y-452D01*
X86298Y-392D01*
X86372Y-330D01*
X86443Y-264D01*
X86511Y-196D01*
X86577Y-125D01*
X86639Y-51D01*
X86699Y25D01*
X86755Y103D01*
X86809Y184D01*
X86859Y266D01*
X86905Y351D01*
X86948Y438D01*
X86988Y526D01*
X87024Y615D01*
X87057Y706D01*
X87085Y799D01*
X87110Y892D01*
X87132Y986D01*
X87149Y1081D01*
X87163Y1177D01*
X87172Y1273D01*
X87178Y1369D01*
X87180Y1466D01*
X91018Y986D02*
X91018Y3865D01*
X91018Y986D02*
X91016Y900D01*
X91010Y814D01*
X91001Y728D01*
X90987Y643D01*
X90970Y559D01*
X90949Y475D01*
X90924Y393D01*
X90896Y312D01*
X90864Y232D01*
X90828Y153D01*
X90789Y77D01*
X90746Y2D01*
X90701Y-71D01*
X90652Y-142D01*
X90599Y-210D01*
X90544Y-277D01*
X90486Y-340D01*
X90425Y-401D01*
X90362Y-459D01*
X90295Y-514D01*
X90227Y-567D01*
X90156Y-616D01*
X90083Y-661D01*
X90008Y-704D01*
X89932Y-743D01*
X89853Y-779D01*
X89773Y-811D01*
X89692Y-839D01*
X89610Y-864D01*
X89526Y-885D01*
X89442Y-902D01*
X89357Y-916D01*
X89271Y-925D01*
X89185Y-931D01*
X89099Y-933D01*
X89013Y-931D01*
X88927Y-925D01*
X88841Y-916D01*
X88756Y-902D01*
X88672Y-885D01*
X88588Y-864D01*
X88506Y-839D01*
X88425Y-811D01*
X88345Y-779D01*
X88266Y-743D01*
X88190Y-704D01*
X88115Y-661D01*
X88042Y-616D01*
X87971Y-567D01*
X87903Y-514D01*
X87836Y-459D01*
X87773Y-401D01*
X87712Y-340D01*
X87654Y-277D01*
X87599Y-210D01*
X87546Y-142D01*
X87497Y-71D01*
X87452Y2D01*
X87409Y77D01*
X87370Y153D01*
X87334Y232D01*
X87302Y312D01*
X87274Y393D01*
X87249Y475D01*
X87228Y559D01*
X87211Y643D01*
X87197Y728D01*
X87188Y814D01*
X87182Y900D01*
X87180Y986D01*
X87180Y2906D01*
X90838Y-19382D02*
X82202Y-19382D01*
X90838Y-19382D02*
X90838Y-21781D01*
X90836Y-21878D01*
X90830Y-21974D01*
X90821Y-22070D01*
X90807Y-22166D01*
X90790Y-22261D01*
X90768Y-22355D01*
X90743Y-22448D01*
X90715Y-22541D01*
X90682Y-22632D01*
X90646Y-22721D01*
X90606Y-22809D01*
X90563Y-22896D01*
X90517Y-22981D01*
X90467Y-23063D01*
X90413Y-23144D01*
X90357Y-23222D01*
X90297Y-23298D01*
X90235Y-23372D01*
X90169Y-23443D01*
X90101Y-23511D01*
X90030Y-23577D01*
X89956Y-23639D01*
X89880Y-23699D01*
X89802Y-23755D01*
X89721Y-23809D01*
X89638Y-23859D01*
X89554Y-23905D01*
X89467Y-23948D01*
X89379Y-23988D01*
X89290Y-24024D01*
X89199Y-24057D01*
X89106Y-24085D01*
X89013Y-24110D01*
X88919Y-24132D01*
X88824Y-24149D01*
X88728Y-24163D01*
X88632Y-24172D01*
X88536Y-24178D01*
X88439Y-24180D01*
X88342Y-24178D01*
X88246Y-24172D01*
X88150Y-24163D01*
X88054Y-24149D01*
X87959Y-24132D01*
X87865Y-24110D01*
X87772Y-24085D01*
X87679Y-24057D01*
X87588Y-24024D01*
X87499Y-23988D01*
X87411Y-23948D01*
X87324Y-23905D01*
X87239Y-23859D01*
X87157Y-23809D01*
X87076Y-23755D01*
X86998Y-23699D01*
X86922Y-23639D01*
X86848Y-23577D01*
X86777Y-23511D01*
X86709Y-23443D01*
X86643Y-23372D01*
X86581Y-23298D01*
X86521Y-23222D01*
X86465Y-23144D01*
X86411Y-23063D01*
X86361Y-22980D01*
X86315Y-22896D01*
X86272Y-22809D01*
X86232Y-22721D01*
X86196Y-22632D01*
X86163Y-22541D01*
X86135Y-22448D01*
X86110Y-22355D01*
X86088Y-22261D01*
X86071Y-22166D01*
X86057Y-22070D01*
X86048Y-21974D01*
X86042Y-21878D01*
X86040Y-21781D01*
X86040Y-19382D01*
X86040Y-22261D02*
X82202Y-24180D01*
X82202Y-28746D02*
X90838Y-28746D01*
X82202Y-33544D01*
X90838Y-33544D01*
X90838Y-40114D02*
X84121Y-38195D01*
X84121Y-42993D01*
X86040Y-41553D02*
X82202Y-41553D01*
X1209982Y-46178D02*
X1218618Y-46178D01*
X1218618Y-41380D02*
X1209982Y-46178D01*
X1209982Y-41380D02*
X1218618Y-41380D01*
X1213820Y-36729D02*
X1213820Y-33851D01*
X1213822Y-33765D01*
X1213828Y-33679D01*
X1213837Y-33593D01*
X1213851Y-33508D01*
X1213868Y-33424D01*
X1213889Y-33340D01*
X1213914Y-33258D01*
X1213942Y-33177D01*
X1213974Y-33097D01*
X1214010Y-33018D01*
X1214049Y-32942D01*
X1214092Y-32867D01*
X1214137Y-32794D01*
X1214186Y-32723D01*
X1214239Y-32655D01*
X1214294Y-32588D01*
X1214352Y-32525D01*
X1214413Y-32464D01*
X1214476Y-32406D01*
X1214543Y-32351D01*
X1214611Y-32298D01*
X1214682Y-32249D01*
X1214755Y-32204D01*
X1214830Y-32161D01*
X1214906Y-32122D01*
X1214985Y-32086D01*
X1215065Y-32054D01*
X1215146Y-32026D01*
X1215228Y-32001D01*
X1215312Y-31980D01*
X1215396Y-31963D01*
X1215481Y-31949D01*
X1215567Y-31940D01*
X1215653Y-31934D01*
X1215739Y-31932D01*
X1215739Y-31931D02*
X1216219Y-31931D01*
X1216316Y-31933D01*
X1216412Y-31939D01*
X1216508Y-31948D01*
X1216604Y-31962D01*
X1216699Y-31979D01*
X1216793Y-32001D01*
X1216886Y-32026D01*
X1216979Y-32054D01*
X1217070Y-32087D01*
X1217159Y-32123D01*
X1217247Y-32163D01*
X1217334Y-32206D01*
X1217419Y-32252D01*
X1217501Y-32302D01*
X1217582Y-32356D01*
X1217660Y-32412D01*
X1217736Y-32472D01*
X1217810Y-32534D01*
X1217881Y-32600D01*
X1217949Y-32668D01*
X1218015Y-32739D01*
X1218077Y-32813D01*
X1218137Y-32889D01*
X1218193Y-32967D01*
X1218247Y-33048D01*
X1218297Y-33131D01*
X1218343Y-33215D01*
X1218386Y-33302D01*
X1218426Y-33390D01*
X1218462Y-33479D01*
X1218495Y-33570D01*
X1218523Y-33663D01*
X1218548Y-33756D01*
X1218570Y-33850D01*
X1218587Y-33945D01*
X1218601Y-34041D01*
X1218610Y-34137D01*
X1218616Y-34233D01*
X1218618Y-34330D01*
X1218616Y-34427D01*
X1218610Y-34523D01*
X1218601Y-34619D01*
X1218587Y-34715D01*
X1218570Y-34810D01*
X1218548Y-34904D01*
X1218523Y-34997D01*
X1218495Y-35090D01*
X1218462Y-35181D01*
X1218426Y-35270D01*
X1218386Y-35358D01*
X1218343Y-35445D01*
X1218297Y-35530D01*
X1218247Y-35612D01*
X1218193Y-35693D01*
X1218137Y-35771D01*
X1218077Y-35847D01*
X1218015Y-35921D01*
X1217949Y-35992D01*
X1217881Y-36060D01*
X1217810Y-36126D01*
X1217736Y-36188D01*
X1217660Y-36248D01*
X1217582Y-36304D01*
X1217501Y-36358D01*
X1217419Y-36408D01*
X1217334Y-36454D01*
X1217247Y-36497D01*
X1217159Y-36537D01*
X1217070Y-36573D01*
X1216979Y-36606D01*
X1216886Y-36634D01*
X1216793Y-36659D01*
X1216699Y-36681D01*
X1216604Y-36698D01*
X1216508Y-36712D01*
X1216412Y-36721D01*
X1216316Y-36727D01*
X1216219Y-36729D01*
X1213820Y-36729D01*
X1213697Y-36727D01*
X1213574Y-36721D01*
X1213451Y-36711D01*
X1213329Y-36697D01*
X1213207Y-36680D01*
X1213086Y-36658D01*
X1212966Y-36633D01*
X1212846Y-36603D01*
X1212728Y-36570D01*
X1212611Y-36533D01*
X1212495Y-36493D01*
X1212380Y-36449D01*
X1212266Y-36401D01*
X1212155Y-36349D01*
X1212045Y-36294D01*
X1211937Y-36235D01*
X1211830Y-36173D01*
X1211726Y-36108D01*
X1211624Y-36039D01*
X1211524Y-35967D01*
X1211427Y-35892D01*
X1211332Y-35813D01*
X1211240Y-35732D01*
X1211150Y-35648D01*
X1211063Y-35561D01*
X1210979Y-35471D01*
X1210898Y-35379D01*
X1210819Y-35284D01*
X1210744Y-35187D01*
X1210672Y-35087D01*
X1210603Y-34985D01*
X1210538Y-34881D01*
X1210476Y-34774D01*
X1210417Y-34666D01*
X1210362Y-34556D01*
X1210311Y-34445D01*
X1210263Y-34331D01*
X1210218Y-34217D01*
X1210178Y-34100D01*
X1210141Y-33983D01*
X1210108Y-33865D01*
X1210078Y-33745D01*
X1210053Y-33625D01*
X1210031Y-33504D01*
X1210014Y-33382D01*
X1210000Y-33260D01*
X1209990Y-33137D01*
X1209984Y-33014D01*
X1209982Y-32891D01*
X1209982Y-25666D02*
X1216699Y-27585D01*
X1216699Y-22787D01*
X1214780Y-24227D02*
X1218618Y-24227D01*
X1218618Y-18921D02*
X1209982Y-16042D01*
X1218618Y-13164D01*
X1216459Y-13883D02*
X1216459Y-18201D01*
X1218618Y-5657D02*
X1209982Y-5657D01*
X1218618Y-5657D02*
X1218618Y-8056D01*
X1218616Y-8131D01*
X1218610Y-8206D01*
X1218600Y-8281D01*
X1218587Y-8355D01*
X1218569Y-8428D01*
X1218548Y-8501D01*
X1218522Y-8572D01*
X1218494Y-8641D01*
X1218461Y-8709D01*
X1218425Y-8775D01*
X1218386Y-8840D01*
X1218343Y-8902D01*
X1218297Y-8962D01*
X1218248Y-9019D01*
X1218197Y-9074D01*
X1218142Y-9125D01*
X1218085Y-9174D01*
X1218025Y-9220D01*
X1217963Y-9263D01*
X1217899Y-9302D01*
X1217832Y-9338D01*
X1217764Y-9371D01*
X1217695Y-9399D01*
X1217624Y-9425D01*
X1217551Y-9446D01*
X1217478Y-9464D01*
X1217404Y-9477D01*
X1217329Y-9487D01*
X1217254Y-9493D01*
X1217179Y-9495D01*
X1214300Y-9495D01*
X1214225Y-9493D01*
X1214150Y-9487D01*
X1214075Y-9477D01*
X1214001Y-9464D01*
X1213928Y-9446D01*
X1213855Y-9425D01*
X1213784Y-9399D01*
X1213715Y-9371D01*
X1213647Y-9338D01*
X1213581Y-9302D01*
X1213516Y-9263D01*
X1213454Y-9220D01*
X1213394Y-9174D01*
X1213337Y-9125D01*
X1213282Y-9074D01*
X1213231Y-9019D01*
X1213182Y-8962D01*
X1213136Y-8902D01*
X1213093Y-8840D01*
X1213054Y-8775D01*
X1213018Y-8709D01*
X1212985Y-8641D01*
X1212957Y-8572D01*
X1212931Y-8501D01*
X1212910Y-8428D01*
X1212892Y-8355D01*
X1212879Y-8281D01*
X1212869Y-8206D01*
X1212863Y-8131D01*
X1212861Y-8056D01*
X1212861Y-5657D01*
X1212861Y-1502D02*
X1218618Y417D01*
X1212861Y2336D01*
X1209982Y8886D02*
X1209984Y8978D01*
X1209990Y9069D01*
X1209999Y9160D01*
X1210013Y9251D01*
X1210030Y9341D01*
X1210052Y9430D01*
X1210077Y9518D01*
X1210105Y9605D01*
X1210138Y9691D01*
X1210174Y9775D01*
X1210213Y9858D01*
X1210256Y9939D01*
X1210303Y10018D01*
X1210352Y10095D01*
X1210405Y10170D01*
X1210461Y10242D01*
X1210520Y10312D01*
X1210582Y10380D01*
X1210647Y10445D01*
X1210715Y10507D01*
X1210785Y10566D01*
X1210857Y10622D01*
X1210932Y10675D01*
X1211009Y10724D01*
X1211088Y10771D01*
X1211169Y10814D01*
X1211252Y10853D01*
X1211336Y10889D01*
X1211422Y10922D01*
X1211509Y10950D01*
X1211597Y10975D01*
X1211686Y10997D01*
X1211776Y11014D01*
X1211867Y11028D01*
X1211958Y11037D01*
X1212049Y11043D01*
X1212141Y11045D01*
X1209982Y8886D02*
X1209984Y8783D01*
X1209990Y8681D01*
X1209999Y8579D01*
X1210012Y8477D01*
X1210029Y8376D01*
X1210050Y8275D01*
X1210074Y8176D01*
X1210103Y8077D01*
X1210134Y7980D01*
X1210170Y7883D01*
X1210208Y7788D01*
X1210251Y7695D01*
X1210297Y7603D01*
X1210346Y7513D01*
X1210398Y7425D01*
X1210454Y7338D01*
X1210513Y7254D01*
X1210574Y7173D01*
X1210639Y7093D01*
X1210707Y7016D01*
X1210778Y6941D01*
X1210851Y6870D01*
X1210927Y6801D01*
X1211005Y6734D01*
X1211086Y6671D01*
X1211169Y6611D01*
X1211254Y6554D01*
X1211341Y6500D01*
X1211431Y6449D01*
X1211522Y6402D01*
X1211614Y6358D01*
X1211709Y6317D01*
X1211804Y6280D01*
X1211901Y6247D01*
X1213820Y10325D02*
X1213754Y10392D01*
X1213685Y10456D01*
X1213614Y10517D01*
X1213540Y10575D01*
X1213464Y10630D01*
X1213386Y10682D01*
X1213306Y10731D01*
X1213224Y10777D01*
X1213140Y10819D01*
X1213054Y10858D01*
X1212967Y10893D01*
X1212879Y10924D01*
X1212789Y10952D01*
X1212699Y10977D01*
X1212607Y10998D01*
X1212515Y11015D01*
X1212422Y11028D01*
X1212329Y11037D01*
X1212235Y11043D01*
X1212141Y11045D01*
X1213820Y10326D02*
X1218618Y6247D01*
X1218618Y11045D01*
X1215260Y20398D02*
X1215260Y26155D01*
X1218618Y35028D02*
X1209982Y40786D01*
X1209982Y35028D02*
X1218618Y40786D01*
X1211901Y44652D02*
X1209982Y47051D01*
X1218618Y47051D01*
X1218618Y44652D02*
X1218618Y49450D01*
D10*
X270000Y126000D02*
X11500Y126000D01*
X270000Y126000D02*
X272000Y124000D01*
X272000Y112000D01*
X270000Y110000D01*
X129000Y110000D01*
X126000Y107000D02*
X126000Y104000D01*
X129000Y101000D02*
X295000Y101000D01*
X301000Y108000D02*
X301000Y128000D01*
X295000Y135000D02*
X175000Y135000D01*
X173000Y137000D01*
X173000Y149000D01*
X175000Y151000D01*
X339000Y151000D01*
X382500Y107500D01*
X1295500Y107500D02*
X1296000Y107000D01*
X1296000Y-46500D01*
X1295000Y-47500D01*
X1295500Y107500D02*
X1254000Y107500D01*
X1187000Y107500D02*
X382500Y107500D01*
X129000Y110000D02*
X128893Y109998D01*
X128786Y109992D01*
X128679Y109983D01*
X128573Y109969D01*
X128467Y109952D01*
X128362Y109931D01*
X128258Y109907D01*
X128155Y109878D01*
X128053Y109846D01*
X127952Y109811D01*
X127852Y109772D01*
X127754Y109729D01*
X127657Y109683D01*
X127562Y109633D01*
X127469Y109580D01*
X127378Y109524D01*
X127289Y109464D01*
X127202Y109402D01*
X127118Y109336D01*
X127035Y109267D01*
X126956Y109196D01*
X126879Y109121D01*
X126804Y109044D01*
X126733Y108965D01*
X126664Y108882D01*
X126598Y108798D01*
X126536Y108711D01*
X126476Y108622D01*
X126420Y108531D01*
X126367Y108438D01*
X126317Y108343D01*
X126271Y108246D01*
X126228Y108148D01*
X126189Y108048D01*
X126154Y107947D01*
X126122Y107845D01*
X126093Y107742D01*
X126069Y107638D01*
X126048Y107533D01*
X126031Y107427D01*
X126017Y107321D01*
X126008Y107214D01*
X126002Y107107D01*
X126000Y107000D01*
X126000Y104000D02*
X126002Y103893D01*
X126008Y103786D01*
X126017Y103679D01*
X126031Y103573D01*
X126048Y103467D01*
X126069Y103362D01*
X126093Y103258D01*
X126122Y103155D01*
X126154Y103053D01*
X126189Y102952D01*
X126228Y102852D01*
X126271Y102754D01*
X126317Y102657D01*
X126367Y102562D01*
X126420Y102469D01*
X126476Y102378D01*
X126536Y102289D01*
X126598Y102202D01*
X126664Y102118D01*
X126733Y102035D01*
X126804Y101956D01*
X126879Y101879D01*
X126956Y101804D01*
X127035Y101733D01*
X127118Y101664D01*
X127202Y101598D01*
X127289Y101536D01*
X127378Y101476D01*
X127469Y101420D01*
X127562Y101367D01*
X127657Y101317D01*
X127754Y101271D01*
X127852Y101228D01*
X127952Y101189D01*
X128053Y101154D01*
X128155Y101122D01*
X128258Y101093D01*
X128362Y101069D01*
X128467Y101048D01*
X128573Y101031D01*
X128679Y101017D01*
X128786Y101008D01*
X128893Y101002D01*
X129000Y101000D01*
X295000Y101000D02*
X295159Y101014D01*
X295318Y101033D01*
X295477Y101055D01*
X295635Y101081D01*
X295792Y101110D01*
X295948Y101144D01*
X296104Y101181D01*
X296258Y101223D01*
X296412Y101268D01*
X296564Y101316D01*
X296715Y101369D01*
X296865Y101425D01*
X297014Y101485D01*
X297160Y101549D01*
X297306Y101616D01*
X297449Y101686D01*
X297591Y101760D01*
X297731Y101838D01*
X297869Y101919D01*
X298005Y102003D01*
X298139Y102091D01*
X298270Y102182D01*
X298400Y102276D01*
X298527Y102373D01*
X298651Y102474D01*
X298774Y102577D01*
X298893Y102684D01*
X299010Y102793D01*
X299124Y102905D01*
X299235Y103020D01*
X299344Y103137D01*
X299450Y103257D01*
X299552Y103380D01*
X299652Y103505D01*
X299748Y103633D01*
X299842Y103763D01*
X299932Y103895D01*
X300019Y104030D01*
X300102Y104166D01*
X300182Y104305D01*
X300259Y104445D01*
X300332Y104587D01*
X300402Y104731D01*
X300468Y104877D01*
X300531Y105024D01*
X300590Y105173D01*
X300645Y105323D01*
X300696Y105475D01*
X300744Y105627D01*
X300788Y105781D01*
X300829Y105936D01*
X300865Y106092D01*
X300898Y106248D01*
X300926Y106406D01*
X300951Y106564D01*
X300972Y106722D01*
X300990Y106881D01*
X301003Y107041D01*
X301012Y107201D01*
X301018Y107360D01*
X301019Y107520D01*
X301017Y107680D01*
X301010Y107840D01*
X301000Y108000D01*
X301000Y128000D02*
X301021Y128153D01*
X301039Y128306D01*
X301053Y128459D01*
X301063Y128613D01*
X301069Y128767D01*
X301071Y128921D01*
X301069Y129074D01*
X301064Y129228D01*
X301054Y129382D01*
X301041Y129535D01*
X301023Y129688D01*
X301002Y129841D01*
X300977Y129993D01*
X300948Y130144D01*
X300915Y130294D01*
X300879Y130444D01*
X300839Y130592D01*
X300795Y130740D01*
X300747Y130886D01*
X300695Y131031D01*
X300640Y131175D01*
X300581Y131317D01*
X300519Y131458D01*
X300453Y131597D01*
X300384Y131735D01*
X300311Y131870D01*
X300235Y132004D01*
X300155Y132136D01*
X300072Y132265D01*
X299986Y132393D01*
X299896Y132518D01*
X299804Y132641D01*
X299708Y132762D01*
X299609Y132880D01*
X299508Y132996D01*
X299403Y133109D01*
X299296Y133219D01*
X299186Y133326D01*
X299073Y133431D01*
X298957Y133533D01*
X298839Y133632D01*
X298719Y133728D01*
X298596Y133820D01*
X298471Y133910D01*
X298343Y133996D01*
X298214Y134080D01*
X298082Y134159D01*
X297949Y134236D01*
X297813Y134309D01*
X297676Y134378D01*
X297537Y134445D01*
X297396Y134507D01*
X297254Y134566D01*
X297110Y134621D01*
X296965Y134673D01*
X296819Y134721D01*
X296672Y134765D01*
X296523Y134806D01*
X296374Y134843D01*
X296223Y134876D01*
X296072Y134905D01*
X295920Y134930D01*
X295768Y134951D01*
X295615Y134969D01*
X295461Y134982D01*
X295308Y134992D01*
X295154Y134998D01*
X295000Y135000D01*
X102000Y-52000D02*
X45500Y-52000D01*
X32500Y-39000D01*
X102000Y-52000D02*
X129000Y-25000D01*
X473000Y-31000D02*
X473000Y-34000D01*
X467000Y-40000D02*
X176000Y-40000D01*
X174000Y-42000D01*
X174000Y-55000D01*
X176000Y-57000D01*
X467000Y-24999D02*
X467148Y-24990D01*
X467296Y-24985D01*
X467445Y-24983D01*
X467593Y-24985D01*
X467741Y-24992D01*
X467889Y-25002D01*
X468036Y-25016D01*
X468184Y-25034D01*
X468330Y-25056D01*
X468476Y-25082D01*
X468621Y-25112D01*
X468766Y-25145D01*
X468909Y-25183D01*
X469052Y-25224D01*
X469193Y-25269D01*
X469333Y-25317D01*
X469472Y-25370D01*
X469609Y-25426D01*
X469745Y-25485D01*
X469879Y-25549D01*
X470011Y-25615D01*
X470142Y-25686D01*
X470270Y-25759D01*
X470397Y-25836D01*
X470521Y-25917D01*
X470644Y-26000D01*
X470764Y-26087D01*
X470882Y-26177D01*
X470997Y-26270D01*
X471110Y-26367D01*
X471220Y-26466D01*
X471328Y-26568D01*
X471432Y-26672D01*
X471534Y-26780D01*
X471633Y-26890D01*
X471730Y-27003D01*
X471823Y-27118D01*
X471913Y-27236D01*
X472000Y-27356D01*
X472083Y-27479D01*
X472164Y-27603D01*
X472241Y-27730D01*
X472314Y-27858D01*
X472385Y-27989D01*
X472451Y-28121D01*
X472515Y-28255D01*
X472574Y-28391D01*
X472630Y-28528D01*
X472683Y-28667D01*
X472731Y-28807D01*
X472776Y-28948D01*
X472817Y-29091D01*
X472855Y-29234D01*
X472888Y-29379D01*
X472918Y-29524D01*
X472944Y-29670D01*
X472966Y-29816D01*
X472984Y-29964D01*
X472998Y-30111D01*
X473008Y-30259D01*
X473015Y-30407D01*
X473017Y-30555D01*
X473015Y-30704D01*
X473010Y-30852D01*
X473001Y-31000D01*
X473001Y-34000D02*
X473010Y-34148D01*
X473015Y-34296D01*
X473017Y-34445D01*
X473015Y-34593D01*
X473008Y-34741D01*
X472998Y-34889D01*
X472984Y-35036D01*
X472966Y-35184D01*
X472944Y-35330D01*
X472918Y-35476D01*
X472888Y-35621D01*
X472855Y-35766D01*
X472817Y-35909D01*
X472776Y-36052D01*
X472731Y-36193D01*
X472683Y-36333D01*
X472630Y-36472D01*
X472574Y-36609D01*
X472515Y-36745D01*
X472451Y-36879D01*
X472385Y-37011D01*
X472314Y-37142D01*
X472241Y-37270D01*
X472164Y-37397D01*
X472083Y-37521D01*
X472000Y-37644D01*
X471913Y-37764D01*
X471823Y-37882D01*
X471730Y-37997D01*
X471633Y-38110D01*
X471534Y-38220D01*
X471432Y-38328D01*
X471328Y-38432D01*
X471220Y-38534D01*
X471110Y-38633D01*
X470997Y-38730D01*
X470882Y-38823D01*
X470764Y-38913D01*
X470644Y-39000D01*
X470521Y-39083D01*
X470397Y-39164D01*
X470270Y-39241D01*
X470142Y-39314D01*
X470011Y-39385D01*
X469879Y-39451D01*
X469745Y-39515D01*
X469609Y-39574D01*
X469472Y-39630D01*
X469333Y-39683D01*
X469193Y-39731D01*
X469052Y-39776D01*
X468909Y-39817D01*
X468766Y-39855D01*
X468621Y-39888D01*
X468476Y-39918D01*
X468330Y-39944D01*
X468184Y-39966D01*
X468036Y-39984D01*
X467889Y-39998D01*
X467741Y-40008D01*
X467593Y-40015D01*
X467445Y-40017D01*
X467296Y-40015D01*
X467148Y-40010D01*
X467000Y-40001D01*
X467000Y-25000D02*
X129000Y-25000D01*
X7000Y-85000D02*
X5000Y-83000D01*
X5000Y-71000D01*
X7000Y-69000D01*
X72000Y-69000D01*
X81000Y-60000D01*
X108000Y-60000D01*
X117000Y-51000D01*
X152000Y-51000D01*
X165000Y-64000D01*
X180000Y-64000D01*
X391000Y-56999D02*
X391148Y-56990D01*
X391296Y-56985D01*
X391445Y-56983D01*
X391593Y-56985D01*
X391741Y-56992D01*
X391889Y-57002D01*
X392036Y-57016D01*
X392184Y-57034D01*
X392330Y-57056D01*
X392476Y-57082D01*
X392621Y-57112D01*
X392766Y-57145D01*
X392909Y-57183D01*
X393052Y-57224D01*
X393193Y-57269D01*
X393333Y-57317D01*
X393472Y-57370D01*
X393609Y-57426D01*
X393745Y-57485D01*
X393879Y-57549D01*
X394011Y-57615D01*
X394142Y-57686D01*
X394270Y-57759D01*
X394397Y-57836D01*
X394521Y-57917D01*
X394644Y-58000D01*
X394764Y-58087D01*
X394882Y-58177D01*
X394997Y-58270D01*
X395110Y-58367D01*
X395220Y-58466D01*
X395328Y-58568D01*
X395432Y-58672D01*
X395534Y-58780D01*
X395633Y-58890D01*
X395730Y-59003D01*
X395823Y-59118D01*
X395913Y-59236D01*
X396000Y-59356D01*
X396083Y-59479D01*
X396164Y-59603D01*
X396241Y-59730D01*
X396314Y-59858D01*
X396385Y-59989D01*
X396451Y-60121D01*
X396515Y-60255D01*
X396574Y-60391D01*
X396630Y-60528D01*
X396683Y-60667D01*
X396731Y-60807D01*
X396776Y-60948D01*
X396817Y-61091D01*
X396855Y-61234D01*
X396888Y-61379D01*
X396918Y-61524D01*
X396944Y-61670D01*
X396966Y-61816D01*
X396984Y-61964D01*
X396998Y-62111D01*
X397008Y-62259D01*
X397015Y-62407D01*
X397017Y-62555D01*
X397015Y-62704D01*
X397010Y-62852D01*
X397001Y-63000D01*
X397000Y-63000D02*
X397000Y-66000D01*
X397001Y-66000D02*
X397010Y-66148D01*
X397015Y-66296D01*
X397017Y-66445D01*
X397015Y-66593D01*
X397008Y-66741D01*
X396998Y-66889D01*
X396984Y-67036D01*
X396966Y-67184D01*
X396944Y-67330D01*
X396918Y-67476D01*
X396888Y-67621D01*
X396855Y-67766D01*
X396817Y-67909D01*
X396776Y-68052D01*
X396731Y-68193D01*
X396683Y-68333D01*
X396630Y-68472D01*
X396574Y-68609D01*
X396515Y-68745D01*
X396451Y-68879D01*
X396385Y-69011D01*
X396314Y-69142D01*
X396241Y-69270D01*
X396164Y-69397D01*
X396083Y-69521D01*
X396000Y-69644D01*
X395913Y-69764D01*
X395823Y-69882D01*
X395730Y-69997D01*
X395633Y-70110D01*
X395534Y-70220D01*
X395432Y-70328D01*
X395328Y-70432D01*
X395220Y-70534D01*
X395110Y-70633D01*
X394997Y-70730D01*
X394882Y-70823D01*
X394764Y-70913D01*
X394644Y-71000D01*
X394521Y-71083D01*
X394397Y-71164D01*
X394270Y-71241D01*
X394142Y-71314D01*
X394011Y-71385D01*
X393879Y-71451D01*
X393745Y-71515D01*
X393609Y-71574D01*
X393472Y-71630D01*
X393333Y-71683D01*
X393193Y-71731D01*
X393052Y-71776D01*
X392909Y-71817D01*
X392766Y-71855D01*
X392621Y-71888D01*
X392476Y-71918D01*
X392330Y-71944D01*
X392184Y-71966D01*
X392036Y-71984D01*
X391889Y-71998D01*
X391741Y-72008D01*
X391593Y-72015D01*
X391445Y-72017D01*
X391296Y-72015D01*
X391148Y-72010D01*
X391000Y-72001D01*
X391000Y-72000D02*
X188000Y-72000D01*
X180000Y-64000D01*
X176000Y-57000D02*
X391000Y-57000D01*
X72000Y-85000D02*
X7000Y-85000D01*
X72000Y-85000D02*
X86000Y-99000D01*
X474500Y-99000D01*
X526000Y-47500D01*
X1187000Y-47500D02*
X1200500Y-61000D01*
X1240500Y-61000D01*
X1254000Y-47500D01*
X1295000Y-47500D01*
X1187000Y-47500D02*
X526000Y-47500D01*
D12*
X163221Y112882D02*
X160822Y112882D01*
X163221Y112882D02*
X163318Y112884D01*
X163414Y112890D01*
X163510Y112899D01*
X163606Y112913D01*
X163701Y112930D01*
X163795Y112952D01*
X163888Y112977D01*
X163981Y113005D01*
X164072Y113038D01*
X164161Y113074D01*
X164249Y113114D01*
X164336Y113157D01*
X164421Y113203D01*
X164503Y113253D01*
X164584Y113307D01*
X164662Y113363D01*
X164738Y113423D01*
X164812Y113485D01*
X164883Y113551D01*
X164951Y113619D01*
X165017Y113690D01*
X165079Y113764D01*
X165139Y113840D01*
X165195Y113918D01*
X165249Y113999D01*
X165299Y114081D01*
X165345Y114166D01*
X165388Y114253D01*
X165428Y114341D01*
X165464Y114430D01*
X165497Y114521D01*
X165525Y114614D01*
X165550Y114707D01*
X165572Y114801D01*
X165589Y114896D01*
X165603Y114992D01*
X165612Y115088D01*
X165618Y115184D01*
X165620Y115281D01*
X165618Y115378D01*
X165612Y115474D01*
X165603Y115570D01*
X165589Y115666D01*
X165572Y115761D01*
X165550Y115855D01*
X165525Y115948D01*
X165497Y116041D01*
X165464Y116132D01*
X165428Y116221D01*
X165388Y116309D01*
X165345Y116396D01*
X165299Y116480D01*
X165249Y116563D01*
X165195Y116644D01*
X165139Y116722D01*
X165079Y116798D01*
X165017Y116872D01*
X164951Y116943D01*
X164883Y117011D01*
X164812Y117077D01*
X164738Y117139D01*
X164662Y117199D01*
X164584Y117255D01*
X164503Y117309D01*
X164421Y117359D01*
X164336Y117405D01*
X164249Y117448D01*
X164161Y117488D01*
X164072Y117524D01*
X163981Y117557D01*
X163888Y117585D01*
X163795Y117610D01*
X163701Y117632D01*
X163606Y117649D01*
X163510Y117663D01*
X163414Y117672D01*
X163318Y117678D01*
X163221Y117680D01*
X163701Y121518D02*
X160822Y121518D01*
X163701Y121518D02*
X163787Y121516D01*
X163873Y121510D01*
X163959Y121501D01*
X164044Y121487D01*
X164128Y121470D01*
X164212Y121449D01*
X164294Y121424D01*
X164375Y121396D01*
X164455Y121364D01*
X164534Y121328D01*
X164610Y121289D01*
X164685Y121246D01*
X164758Y121201D01*
X164829Y121152D01*
X164897Y121099D01*
X164964Y121044D01*
X165027Y120986D01*
X165088Y120925D01*
X165146Y120862D01*
X165201Y120795D01*
X165254Y120727D01*
X165303Y120656D01*
X165348Y120583D01*
X165391Y120508D01*
X165430Y120432D01*
X165466Y120353D01*
X165498Y120273D01*
X165526Y120192D01*
X165551Y120110D01*
X165572Y120026D01*
X165589Y119942D01*
X165603Y119857D01*
X165612Y119771D01*
X165618Y119685D01*
X165620Y119599D01*
X165618Y119513D01*
X165612Y119427D01*
X165603Y119341D01*
X165589Y119256D01*
X165572Y119172D01*
X165551Y119088D01*
X165526Y119006D01*
X165498Y118925D01*
X165466Y118845D01*
X165430Y118766D01*
X165391Y118690D01*
X165348Y118615D01*
X165303Y118542D01*
X165254Y118471D01*
X165201Y118403D01*
X165146Y118336D01*
X165088Y118273D01*
X165027Y118212D01*
X164964Y118154D01*
X164897Y118099D01*
X164829Y118046D01*
X164758Y117997D01*
X164685Y117952D01*
X164610Y117909D01*
X164534Y117870D01*
X164455Y117834D01*
X164375Y117802D01*
X164294Y117774D01*
X164212Y117749D01*
X164128Y117728D01*
X164044Y117711D01*
X163959Y117697D01*
X163873Y117688D01*
X163787Y117682D01*
X163701Y117680D01*
X161782Y117680D01*
X169382Y113362D02*
X169382Y112882D01*
X169382Y113362D02*
X169862Y113362D01*
X169862Y112882D01*
X169382Y112882D01*
X173624Y112882D02*
X176022Y112882D01*
X176119Y112884D01*
X176215Y112890D01*
X176311Y112899D01*
X176407Y112913D01*
X176502Y112930D01*
X176596Y112952D01*
X176689Y112977D01*
X176782Y113005D01*
X176873Y113038D01*
X176962Y113074D01*
X177050Y113114D01*
X177137Y113157D01*
X177222Y113203D01*
X177304Y113253D01*
X177385Y113307D01*
X177463Y113363D01*
X177539Y113423D01*
X177613Y113485D01*
X177684Y113551D01*
X177752Y113619D01*
X177818Y113690D01*
X177880Y113764D01*
X177940Y113840D01*
X177996Y113918D01*
X178050Y113999D01*
X178100Y114081D01*
X178146Y114166D01*
X178189Y114253D01*
X178229Y114341D01*
X178265Y114430D01*
X178298Y114521D01*
X178326Y114614D01*
X178351Y114707D01*
X178373Y114801D01*
X178390Y114896D01*
X178404Y114992D01*
X178413Y115088D01*
X178419Y115184D01*
X178421Y115281D01*
X178419Y115378D01*
X178413Y115474D01*
X178404Y115570D01*
X178390Y115666D01*
X178373Y115761D01*
X178351Y115855D01*
X178326Y115948D01*
X178298Y116041D01*
X178265Y116132D01*
X178229Y116221D01*
X178189Y116309D01*
X178146Y116396D01*
X178100Y116480D01*
X178050Y116563D01*
X177996Y116644D01*
X177940Y116722D01*
X177880Y116798D01*
X177818Y116872D01*
X177752Y116943D01*
X177684Y117011D01*
X177613Y117077D01*
X177539Y117139D01*
X177463Y117199D01*
X177385Y117255D01*
X177304Y117309D01*
X177222Y117359D01*
X177137Y117405D01*
X177050Y117448D01*
X176962Y117488D01*
X176873Y117524D01*
X176782Y117557D01*
X176689Y117585D01*
X176596Y117610D01*
X176502Y117632D01*
X176407Y117649D01*
X176311Y117663D01*
X176215Y117672D01*
X176119Y117678D01*
X176022Y117680D01*
X176502Y121518D02*
X173624Y121518D01*
X176502Y121518D02*
X176588Y121516D01*
X176674Y121510D01*
X176760Y121501D01*
X176845Y121487D01*
X176929Y121470D01*
X177013Y121449D01*
X177095Y121424D01*
X177176Y121396D01*
X177256Y121364D01*
X177335Y121328D01*
X177411Y121289D01*
X177486Y121246D01*
X177559Y121201D01*
X177630Y121152D01*
X177698Y121099D01*
X177765Y121044D01*
X177828Y120986D01*
X177889Y120925D01*
X177947Y120862D01*
X178002Y120795D01*
X178055Y120727D01*
X178104Y120656D01*
X178149Y120583D01*
X178192Y120508D01*
X178231Y120432D01*
X178267Y120353D01*
X178299Y120273D01*
X178327Y120192D01*
X178352Y120110D01*
X178373Y120026D01*
X178390Y119942D01*
X178404Y119857D01*
X178413Y119771D01*
X178419Y119685D01*
X178421Y119599D01*
X178419Y119513D01*
X178413Y119427D01*
X178404Y119341D01*
X178390Y119256D01*
X178373Y119172D01*
X178352Y119088D01*
X178327Y119006D01*
X178299Y118925D01*
X178267Y118845D01*
X178231Y118766D01*
X178192Y118690D01*
X178149Y118615D01*
X178104Y118542D01*
X178055Y118471D01*
X178002Y118403D01*
X177947Y118336D01*
X177889Y118273D01*
X177828Y118212D01*
X177765Y118154D01*
X177698Y118099D01*
X177630Y118046D01*
X177559Y117997D01*
X177486Y117952D01*
X177411Y117909D01*
X177335Y117870D01*
X177256Y117834D01*
X177176Y117802D01*
X177095Y117774D01*
X177013Y117749D01*
X176929Y117728D01*
X176845Y117711D01*
X176760Y117697D01*
X176674Y117688D01*
X176588Y117682D01*
X176502Y117680D01*
X174583Y117680D01*
X182288Y121518D02*
X185166Y112882D01*
X188045Y121518D01*
X198822Y138882D02*
X201701Y138882D01*
X201787Y138884D01*
X201873Y138890D01*
X201959Y138899D01*
X202044Y138913D01*
X202128Y138930D01*
X202212Y138951D01*
X202294Y138976D01*
X202375Y139004D01*
X202455Y139036D01*
X202534Y139072D01*
X202610Y139111D01*
X202685Y139154D01*
X202758Y139199D01*
X202829Y139249D01*
X202897Y139301D01*
X202964Y139356D01*
X203027Y139414D01*
X203088Y139475D01*
X203146Y139538D01*
X203201Y139605D01*
X203254Y139673D01*
X203303Y139744D01*
X203348Y139817D01*
X203391Y139892D01*
X203430Y139968D01*
X203466Y140047D01*
X203498Y140127D01*
X203526Y140208D01*
X203551Y140291D01*
X203572Y140374D01*
X203589Y140458D01*
X203603Y140543D01*
X203612Y140629D01*
X203618Y140715D01*
X203620Y140801D01*
X203620Y141761D01*
X203618Y141847D01*
X203612Y141933D01*
X203603Y142019D01*
X203589Y142104D01*
X203572Y142188D01*
X203551Y142272D01*
X203526Y142354D01*
X203498Y142435D01*
X203466Y142515D01*
X203430Y142594D01*
X203391Y142670D01*
X203348Y142745D01*
X203303Y142818D01*
X203254Y142889D01*
X203201Y142957D01*
X203146Y143024D01*
X203088Y143087D01*
X203027Y143148D01*
X202964Y143206D01*
X202897Y143261D01*
X202829Y143314D01*
X202758Y143363D01*
X202685Y143408D01*
X202610Y143451D01*
X202534Y143490D01*
X202455Y143526D01*
X202375Y143558D01*
X202294Y143586D01*
X202212Y143611D01*
X202128Y143632D01*
X202044Y143649D01*
X201959Y143663D01*
X201873Y143672D01*
X201787Y143678D01*
X201701Y143680D01*
X198822Y143680D01*
X198822Y147518D01*
X203620Y147518D01*
X207486Y147518D02*
X210365Y138882D01*
X213244Y147518D01*
X137822Y-10982D02*
X137822Y-19618D01*
X137822Y-10982D02*
X140221Y-10982D01*
X140318Y-10984D01*
X140414Y-10990D01*
X140510Y-10999D01*
X140606Y-11013D01*
X140701Y-11030D01*
X140795Y-11052D01*
X140888Y-11077D01*
X140981Y-11105D01*
X141072Y-11138D01*
X141161Y-11174D01*
X141249Y-11214D01*
X141336Y-11257D01*
X141421Y-11303D01*
X141503Y-11353D01*
X141584Y-11407D01*
X141662Y-11463D01*
X141738Y-11523D01*
X141812Y-11585D01*
X141883Y-11651D01*
X141951Y-11719D01*
X142017Y-11790D01*
X142079Y-11864D01*
X142139Y-11940D01*
X142195Y-12018D01*
X142249Y-12099D01*
X142299Y-12182D01*
X142345Y-12266D01*
X142388Y-12353D01*
X142428Y-12441D01*
X142464Y-12530D01*
X142497Y-12621D01*
X142525Y-12714D01*
X142550Y-12807D01*
X142572Y-12901D01*
X142589Y-12996D01*
X142603Y-13092D01*
X142612Y-13188D01*
X142618Y-13284D01*
X142620Y-13381D01*
X142618Y-13478D01*
X142612Y-13574D01*
X142603Y-13670D01*
X142589Y-13766D01*
X142572Y-13861D01*
X142550Y-13955D01*
X142525Y-14048D01*
X142497Y-14141D01*
X142464Y-14232D01*
X142428Y-14321D01*
X142388Y-14409D01*
X142345Y-14496D01*
X142299Y-14581D01*
X142249Y-14663D01*
X142195Y-14744D01*
X142139Y-14822D01*
X142079Y-14898D01*
X142017Y-14972D01*
X141951Y-15043D01*
X141883Y-15111D01*
X141812Y-15177D01*
X141738Y-15239D01*
X141662Y-15299D01*
X141584Y-15355D01*
X141503Y-15409D01*
X141421Y-15459D01*
X141336Y-15505D01*
X141249Y-15548D01*
X141161Y-15588D01*
X141072Y-15624D01*
X140981Y-15657D01*
X140888Y-15685D01*
X140795Y-15710D01*
X140701Y-15732D01*
X140606Y-15749D01*
X140510Y-15763D01*
X140414Y-15772D01*
X140318Y-15778D01*
X140221Y-15780D01*
X137822Y-15780D01*
X140701Y-15780D02*
X142620Y-19618D01*
X148762Y-19618D02*
X150681Y-19618D01*
X148762Y-19618D02*
X148676Y-19616D01*
X148590Y-19610D01*
X148504Y-19601D01*
X148419Y-19587D01*
X148335Y-19570D01*
X148251Y-19549D01*
X148169Y-19524D01*
X148088Y-19496D01*
X148008Y-19464D01*
X147929Y-19428D01*
X147853Y-19389D01*
X147778Y-19346D01*
X147705Y-19301D01*
X147634Y-19252D01*
X147566Y-19199D01*
X147499Y-19144D01*
X147436Y-19086D01*
X147375Y-19025D01*
X147317Y-18962D01*
X147262Y-18895D01*
X147210Y-18827D01*
X147160Y-18756D01*
X147115Y-18683D01*
X147072Y-18608D01*
X147033Y-18532D01*
X146997Y-18453D01*
X146965Y-18373D01*
X146937Y-18292D01*
X146912Y-18210D01*
X146891Y-18126D01*
X146874Y-18042D01*
X146860Y-17957D01*
X146851Y-17871D01*
X146845Y-17785D01*
X146843Y-17699D01*
X146843Y-12901D01*
X146845Y-12815D01*
X146851Y-12729D01*
X146860Y-12643D01*
X146874Y-12558D01*
X146891Y-12474D01*
X146912Y-12390D01*
X146937Y-12308D01*
X146965Y-12227D01*
X146997Y-12147D01*
X147033Y-12068D01*
X147072Y-11992D01*
X147115Y-11917D01*
X147160Y-11844D01*
X147209Y-11773D01*
X147262Y-11705D01*
X147317Y-11638D01*
X147375Y-11575D01*
X147436Y-11514D01*
X147499Y-11456D01*
X147566Y-11401D01*
X147634Y-11349D01*
X147705Y-11299D01*
X147778Y-11254D01*
X147853Y-11211D01*
X147929Y-11172D01*
X148008Y-11136D01*
X148088Y-11104D01*
X148169Y-11076D01*
X148251Y-11051D01*
X148335Y-11030D01*
X148419Y-11013D01*
X148504Y-10999D01*
X148590Y-10990D01*
X148676Y-10984D01*
X148762Y-10982D01*
X150681Y-10982D01*
X155001Y-10982D02*
X155001Y-19618D01*
X155001Y-10982D02*
X157400Y-10982D01*
X157497Y-10984D01*
X157593Y-10990D01*
X157689Y-10999D01*
X157785Y-11013D01*
X157880Y-11030D01*
X157974Y-11052D01*
X158067Y-11077D01*
X158160Y-11105D01*
X158251Y-11138D01*
X158340Y-11174D01*
X158428Y-11214D01*
X158515Y-11257D01*
X158600Y-11303D01*
X158682Y-11353D01*
X158763Y-11407D01*
X158841Y-11463D01*
X158917Y-11523D01*
X158991Y-11585D01*
X159062Y-11651D01*
X159130Y-11719D01*
X159196Y-11790D01*
X159258Y-11864D01*
X159318Y-11940D01*
X159374Y-12018D01*
X159428Y-12099D01*
X159478Y-12182D01*
X159524Y-12266D01*
X159567Y-12353D01*
X159607Y-12441D01*
X159643Y-12530D01*
X159676Y-12621D01*
X159704Y-12714D01*
X159729Y-12807D01*
X159751Y-12901D01*
X159768Y-12996D01*
X159782Y-13092D01*
X159791Y-13188D01*
X159797Y-13284D01*
X159799Y-13381D01*
X159797Y-13478D01*
X159791Y-13574D01*
X159782Y-13670D01*
X159768Y-13766D01*
X159751Y-13861D01*
X159729Y-13955D01*
X159704Y-14048D01*
X159676Y-14141D01*
X159643Y-14232D01*
X159607Y-14321D01*
X159567Y-14409D01*
X159524Y-14496D01*
X159478Y-14581D01*
X159428Y-14663D01*
X159374Y-14744D01*
X159318Y-14822D01*
X159258Y-14898D01*
X159196Y-14972D01*
X159130Y-15043D01*
X159062Y-15111D01*
X158991Y-15177D01*
X158917Y-15239D01*
X158841Y-15299D01*
X158763Y-15355D01*
X158682Y-15409D01*
X158600Y-15459D01*
X158515Y-15505D01*
X158428Y-15548D01*
X158340Y-15588D01*
X158251Y-15624D01*
X158160Y-15657D01*
X158067Y-15685D01*
X157974Y-15710D01*
X157880Y-15732D01*
X157785Y-15749D01*
X157689Y-15763D01*
X157593Y-15772D01*
X157497Y-15778D01*
X157400Y-15780D01*
X155001Y-15780D01*
X166284Y-10982D02*
X166376Y-10984D01*
X166467Y-10990D01*
X166558Y-10999D01*
X166649Y-11013D01*
X166739Y-11030D01*
X166828Y-11052D01*
X166916Y-11077D01*
X167003Y-11105D01*
X167089Y-11138D01*
X167173Y-11174D01*
X167256Y-11213D01*
X167337Y-11256D01*
X167416Y-11303D01*
X167493Y-11352D01*
X167568Y-11405D01*
X167640Y-11461D01*
X167710Y-11520D01*
X167778Y-11582D01*
X167843Y-11647D01*
X167905Y-11715D01*
X167964Y-11785D01*
X168020Y-11857D01*
X168073Y-11932D01*
X168122Y-12009D01*
X168169Y-12088D01*
X168212Y-12169D01*
X168251Y-12252D01*
X168287Y-12336D01*
X168320Y-12422D01*
X168348Y-12509D01*
X168373Y-12597D01*
X168395Y-12686D01*
X168412Y-12776D01*
X168426Y-12867D01*
X168435Y-12958D01*
X168441Y-13049D01*
X168443Y-13141D01*
X166284Y-10982D02*
X166181Y-10984D01*
X166079Y-10990D01*
X165977Y-10999D01*
X165875Y-11012D01*
X165774Y-11029D01*
X165673Y-11050D01*
X165574Y-11074D01*
X165475Y-11103D01*
X165378Y-11134D01*
X165281Y-11170D01*
X165186Y-11208D01*
X165093Y-11251D01*
X165001Y-11297D01*
X164911Y-11346D01*
X164823Y-11398D01*
X164736Y-11454D01*
X164652Y-11513D01*
X164571Y-11574D01*
X164491Y-11639D01*
X164414Y-11707D01*
X164339Y-11778D01*
X164268Y-11851D01*
X164199Y-11927D01*
X164132Y-12005D01*
X164069Y-12086D01*
X164009Y-12169D01*
X163952Y-12254D01*
X163898Y-12341D01*
X163847Y-12431D01*
X163800Y-12522D01*
X163756Y-12614D01*
X163715Y-12709D01*
X163678Y-12804D01*
X163645Y-12901D01*
X167723Y-14820D02*
X167790Y-14754D01*
X167854Y-14685D01*
X167915Y-14614D01*
X167973Y-14540D01*
X168028Y-14464D01*
X168080Y-14386D01*
X168129Y-14306D01*
X168175Y-14224D01*
X168217Y-14140D01*
X168256Y-14054D01*
X168291Y-13967D01*
X168322Y-13879D01*
X168350Y-13789D01*
X168375Y-13699D01*
X168396Y-13607D01*
X168413Y-13515D01*
X168426Y-13422D01*
X168435Y-13329D01*
X168441Y-13235D01*
X168443Y-13141D01*
X167723Y-14820D02*
X163645Y-19618D01*
X168443Y-19618D01*
X173094Y-19618D02*
X173094Y-10982D01*
X177892Y-19618D01*
X177892Y-10982D01*
X182543Y-14820D02*
X185421Y-14820D01*
X185507Y-14822D01*
X185593Y-14828D01*
X185679Y-14837D01*
X185764Y-14851D01*
X185848Y-14868D01*
X185932Y-14889D01*
X186014Y-14914D01*
X186095Y-14942D01*
X186175Y-14974D01*
X186254Y-15010D01*
X186330Y-15049D01*
X186405Y-15092D01*
X186478Y-15137D01*
X186549Y-15187D01*
X186617Y-15239D01*
X186684Y-15294D01*
X186747Y-15352D01*
X186808Y-15413D01*
X186866Y-15476D01*
X186921Y-15543D01*
X186974Y-15611D01*
X187023Y-15682D01*
X187068Y-15755D01*
X187111Y-15830D01*
X187150Y-15906D01*
X187186Y-15985D01*
X187218Y-16065D01*
X187246Y-16146D01*
X187271Y-16229D01*
X187292Y-16312D01*
X187309Y-16396D01*
X187323Y-16481D01*
X187332Y-16567D01*
X187338Y-16653D01*
X187340Y-16739D01*
X187341Y-16739D02*
X187341Y-17219D01*
X187339Y-17316D01*
X187333Y-17412D01*
X187324Y-17508D01*
X187310Y-17604D01*
X187293Y-17699D01*
X187271Y-17793D01*
X187246Y-17886D01*
X187218Y-17979D01*
X187185Y-18070D01*
X187149Y-18159D01*
X187109Y-18247D01*
X187066Y-18334D01*
X187020Y-18419D01*
X186970Y-18501D01*
X186916Y-18582D01*
X186860Y-18660D01*
X186800Y-18736D01*
X186738Y-18810D01*
X186672Y-18881D01*
X186604Y-18949D01*
X186533Y-19015D01*
X186459Y-19077D01*
X186383Y-19137D01*
X186305Y-19193D01*
X186224Y-19247D01*
X186141Y-19297D01*
X186057Y-19343D01*
X185970Y-19386D01*
X185882Y-19426D01*
X185793Y-19462D01*
X185702Y-19495D01*
X185609Y-19523D01*
X185516Y-19548D01*
X185422Y-19570D01*
X185327Y-19587D01*
X185231Y-19601D01*
X185135Y-19610D01*
X185039Y-19616D01*
X184942Y-19618D01*
X184845Y-19616D01*
X184749Y-19610D01*
X184653Y-19601D01*
X184557Y-19587D01*
X184462Y-19570D01*
X184368Y-19548D01*
X184275Y-19523D01*
X184182Y-19495D01*
X184091Y-19462D01*
X184002Y-19426D01*
X183914Y-19386D01*
X183827Y-19343D01*
X183743Y-19297D01*
X183660Y-19247D01*
X183579Y-19193D01*
X183501Y-19137D01*
X183425Y-19077D01*
X183351Y-19015D01*
X183280Y-18949D01*
X183212Y-18881D01*
X183146Y-18810D01*
X183084Y-18736D01*
X183024Y-18660D01*
X182968Y-18582D01*
X182914Y-18501D01*
X182864Y-18418D01*
X182818Y-18334D01*
X182775Y-18247D01*
X182735Y-18159D01*
X182699Y-18070D01*
X182666Y-17979D01*
X182638Y-17886D01*
X182613Y-17793D01*
X182591Y-17699D01*
X182574Y-17604D01*
X182560Y-17508D01*
X182551Y-17412D01*
X182545Y-17316D01*
X182543Y-17219D01*
X182543Y-14820D01*
X182545Y-14697D01*
X182551Y-14574D01*
X182561Y-14451D01*
X182575Y-14329D01*
X182592Y-14207D01*
X182614Y-14086D01*
X182639Y-13966D01*
X182669Y-13846D01*
X182702Y-13728D01*
X182739Y-13611D01*
X182779Y-13494D01*
X182823Y-13380D01*
X182871Y-13266D01*
X182923Y-13155D01*
X182978Y-13045D01*
X183037Y-12937D01*
X183099Y-12830D01*
X183164Y-12726D01*
X183233Y-12624D01*
X183305Y-12524D01*
X183380Y-12427D01*
X183459Y-12332D01*
X183540Y-12240D01*
X183624Y-12150D01*
X183711Y-12063D01*
X183801Y-11979D01*
X183893Y-11898D01*
X183988Y-11819D01*
X184085Y-11744D01*
X184185Y-11672D01*
X184287Y-11603D01*
X184391Y-11538D01*
X184498Y-11476D01*
X184606Y-11417D01*
X184716Y-11362D01*
X184827Y-11310D01*
X184941Y-11263D01*
X185055Y-11218D01*
X185172Y-11178D01*
X185289Y-11141D01*
X185407Y-11108D01*
X185527Y-11078D01*
X185647Y-11053D01*
X185768Y-11031D01*
X185890Y-11014D01*
X186012Y-11000D01*
X186135Y-10990D01*
X186258Y-10984D01*
X186381Y-10982D01*
X193606Y-10982D02*
X191687Y-17699D01*
X196485Y-17699D01*
X195045Y-15780D02*
X195045Y-19618D01*
X200351Y-19618D02*
X203230Y-10982D01*
X206108Y-19618D01*
X205389Y-17459D02*
X201071Y-17459D01*
X213615Y-19618D02*
X213615Y-10982D01*
X213615Y-19618D02*
X211216Y-19618D01*
X211141Y-19616D01*
X211066Y-19610D01*
X210991Y-19600D01*
X210917Y-19587D01*
X210844Y-19569D01*
X210771Y-19548D01*
X210700Y-19522D01*
X210631Y-19494D01*
X210563Y-19461D01*
X210497Y-19425D01*
X210432Y-19386D01*
X210370Y-19343D01*
X210310Y-19297D01*
X210253Y-19248D01*
X210198Y-19197D01*
X210147Y-19142D01*
X210098Y-19085D01*
X210052Y-19025D01*
X210009Y-18963D01*
X209970Y-18898D01*
X209934Y-18832D01*
X209901Y-18764D01*
X209873Y-18695D01*
X209847Y-18624D01*
X209826Y-18551D01*
X209808Y-18478D01*
X209795Y-18404D01*
X209785Y-18329D01*
X209779Y-18254D01*
X209777Y-18179D01*
X209777Y-15300D01*
X209779Y-15225D01*
X209785Y-15150D01*
X209795Y-15075D01*
X209808Y-15001D01*
X209826Y-14928D01*
X209847Y-14855D01*
X209873Y-14784D01*
X209901Y-14715D01*
X209934Y-14647D01*
X209970Y-14580D01*
X210009Y-14516D01*
X210052Y-14454D01*
X210098Y-14394D01*
X210147Y-14337D01*
X210198Y-14282D01*
X210253Y-14231D01*
X210310Y-14182D01*
X210370Y-14136D01*
X210432Y-14093D01*
X210497Y-14054D01*
X210563Y-14018D01*
X210631Y-13985D01*
X210700Y-13957D01*
X210771Y-13931D01*
X210844Y-13910D01*
X210917Y-13892D01*
X210991Y-13879D01*
X211066Y-13869D01*
X211141Y-13863D01*
X211216Y-13861D01*
X213615Y-13861D01*
X217770Y-13861D02*
X219689Y-19618D01*
X221608Y-13861D01*
X228158Y-10982D02*
X228250Y-10984D01*
X228341Y-10990D01*
X228432Y-10999D01*
X228523Y-11013D01*
X228613Y-11030D01*
X228702Y-11052D01*
X228790Y-11077D01*
X228877Y-11105D01*
X228963Y-11138D01*
X229047Y-11174D01*
X229130Y-11213D01*
X229211Y-11256D01*
X229290Y-11303D01*
X229367Y-11352D01*
X229442Y-11405D01*
X229514Y-11461D01*
X229584Y-11520D01*
X229652Y-11582D01*
X229717Y-11647D01*
X229779Y-11715D01*
X229838Y-11785D01*
X229894Y-11857D01*
X229947Y-11932D01*
X229996Y-12009D01*
X230043Y-12088D01*
X230086Y-12169D01*
X230125Y-12252D01*
X230161Y-12336D01*
X230194Y-12422D01*
X230222Y-12509D01*
X230247Y-12597D01*
X230269Y-12686D01*
X230286Y-12776D01*
X230300Y-12867D01*
X230309Y-12958D01*
X230315Y-13049D01*
X230317Y-13141D01*
X228158Y-10982D02*
X228055Y-10984D01*
X227953Y-10990D01*
X227851Y-10999D01*
X227749Y-11012D01*
X227648Y-11029D01*
X227547Y-11050D01*
X227448Y-11074D01*
X227349Y-11103D01*
X227252Y-11134D01*
X227155Y-11170D01*
X227060Y-11208D01*
X226967Y-11251D01*
X226875Y-11297D01*
X226785Y-11346D01*
X226697Y-11398D01*
X226610Y-11454D01*
X226526Y-11513D01*
X226445Y-11574D01*
X226365Y-11639D01*
X226288Y-11707D01*
X226213Y-11778D01*
X226142Y-11851D01*
X226073Y-11927D01*
X226006Y-12005D01*
X225943Y-12086D01*
X225883Y-12169D01*
X225826Y-12254D01*
X225772Y-12341D01*
X225721Y-12431D01*
X225674Y-12522D01*
X225630Y-12614D01*
X225589Y-12709D01*
X225552Y-12804D01*
X225519Y-12901D01*
X229597Y-14820D02*
X229664Y-14754D01*
X229728Y-14685D01*
X229789Y-14614D01*
X229847Y-14540D01*
X229902Y-14464D01*
X229954Y-14386D01*
X230003Y-14306D01*
X230049Y-14224D01*
X230091Y-14140D01*
X230130Y-14054D01*
X230165Y-13967D01*
X230196Y-13879D01*
X230224Y-13789D01*
X230249Y-13699D01*
X230270Y-13607D01*
X230287Y-13515D01*
X230300Y-13422D01*
X230309Y-13329D01*
X230315Y-13235D01*
X230317Y-13141D01*
X229598Y-14820D02*
X225519Y-19618D01*
X230317Y-19618D01*
D11*
X241695Y-15173D02*
X243219Y-19745D01*
X244743Y-15173D01*
X249993Y-12887D02*
X250075Y-12889D01*
X250156Y-12895D01*
X250237Y-12904D01*
X250318Y-12918D01*
X250397Y-12935D01*
X250476Y-12956D01*
X250554Y-12981D01*
X250630Y-13010D01*
X250705Y-13042D01*
X250779Y-13078D01*
X250851Y-13117D01*
X250920Y-13159D01*
X250988Y-13205D01*
X251053Y-13254D01*
X251116Y-13306D01*
X251176Y-13361D01*
X251234Y-13419D01*
X251289Y-13479D01*
X251341Y-13542D01*
X251390Y-13607D01*
X251436Y-13675D01*
X251478Y-13745D01*
X251517Y-13816D01*
X251553Y-13890D01*
X251585Y-13965D01*
X251614Y-14041D01*
X251639Y-14119D01*
X251660Y-14198D01*
X251677Y-14277D01*
X251691Y-14358D01*
X251700Y-14439D01*
X251706Y-14520D01*
X251708Y-14602D01*
X249993Y-12887D02*
X249901Y-12889D01*
X249809Y-12895D01*
X249717Y-12904D01*
X249625Y-12918D01*
X249535Y-12935D01*
X249445Y-12956D01*
X249356Y-12981D01*
X249268Y-13010D01*
X249181Y-13042D01*
X249096Y-13078D01*
X249013Y-13117D01*
X248931Y-13160D01*
X248851Y-13206D01*
X248773Y-13256D01*
X248697Y-13308D01*
X248624Y-13364D01*
X248553Y-13423D01*
X248484Y-13485D01*
X248418Y-13550D01*
X248355Y-13617D01*
X248295Y-13687D01*
X248237Y-13759D01*
X248183Y-13834D01*
X248132Y-13911D01*
X248084Y-13990D01*
X248040Y-14071D01*
X247999Y-14154D01*
X247961Y-14238D01*
X247927Y-14324D01*
X247897Y-14411D01*
X251136Y-15936D02*
X251195Y-15877D01*
X251251Y-15816D01*
X251304Y-15753D01*
X251355Y-15687D01*
X251402Y-15619D01*
X251446Y-15549D01*
X251487Y-15477D01*
X251525Y-15403D01*
X251559Y-15328D01*
X251590Y-15251D01*
X251617Y-15173D01*
X251641Y-15093D01*
X251662Y-15013D01*
X251678Y-14932D01*
X251691Y-14850D01*
X251701Y-14768D01*
X251706Y-14685D01*
X251708Y-14602D01*
X251136Y-15935D02*
X247898Y-19745D01*
X251708Y-19745D01*
X255212Y-16316D02*
X255214Y-16174D01*
X255219Y-16031D01*
X255228Y-15889D01*
X255241Y-15747D01*
X255257Y-15606D01*
X255276Y-15465D01*
X255300Y-15324D01*
X255326Y-15184D01*
X255357Y-15045D01*
X255391Y-14907D01*
X255428Y-14769D01*
X255468Y-14633D01*
X255513Y-14497D01*
X255560Y-14363D01*
X255611Y-14230D01*
X255665Y-14098D01*
X255723Y-13968D01*
X255784Y-13839D01*
X255784Y-13840D02*
X255810Y-13771D01*
X255839Y-13705D01*
X255871Y-13639D01*
X255906Y-13576D01*
X255945Y-13514D01*
X255987Y-13454D01*
X256032Y-13397D01*
X256080Y-13342D01*
X256131Y-13290D01*
X256184Y-13240D01*
X256240Y-13194D01*
X256298Y-13150D01*
X256359Y-13109D01*
X256421Y-13071D01*
X256485Y-13037D01*
X256551Y-13006D01*
X256619Y-12978D01*
X256688Y-12954D01*
X256758Y-12934D01*
X256829Y-12917D01*
X256900Y-12904D01*
X256972Y-12895D01*
X257045Y-12889D01*
X257118Y-12887D01*
X257191Y-12889D01*
X257264Y-12895D01*
X257336Y-12904D01*
X257407Y-12917D01*
X257478Y-12934D01*
X257548Y-12954D01*
X257617Y-12978D01*
X257685Y-13006D01*
X257751Y-13037D01*
X257815Y-13071D01*
X257877Y-13109D01*
X257938Y-13150D01*
X257996Y-13194D01*
X258052Y-13240D01*
X258105Y-13290D01*
X258156Y-13342D01*
X258204Y-13397D01*
X258249Y-13454D01*
X258291Y-13514D01*
X258330Y-13576D01*
X258365Y-13639D01*
X258397Y-13705D01*
X258426Y-13771D01*
X258452Y-13840D01*
X258451Y-13839D02*
X258512Y-13968D01*
X258570Y-14098D01*
X258624Y-14230D01*
X258675Y-14363D01*
X258722Y-14497D01*
X258767Y-14633D01*
X258807Y-14769D01*
X258844Y-14907D01*
X258878Y-15045D01*
X258909Y-15184D01*
X258935Y-15324D01*
X258959Y-15465D01*
X258978Y-15606D01*
X258994Y-15747D01*
X259007Y-15889D01*
X259016Y-16031D01*
X259021Y-16174D01*
X259023Y-16316D01*
X255212Y-16316D02*
X255214Y-16458D01*
X255219Y-16601D01*
X255228Y-16743D01*
X255241Y-16885D01*
X255257Y-17026D01*
X255276Y-17167D01*
X255300Y-17308D01*
X255326Y-17448D01*
X255357Y-17587D01*
X255391Y-17725D01*
X255428Y-17863D01*
X255468Y-17999D01*
X255513Y-18135D01*
X255560Y-18269D01*
X255611Y-18402D01*
X255665Y-18534D01*
X255723Y-18664D01*
X255784Y-18793D01*
X255784Y-18792D02*
X255810Y-18861D01*
X255839Y-18927D01*
X255871Y-18993D01*
X255906Y-19056D01*
X255945Y-19118D01*
X255987Y-19178D01*
X256032Y-19235D01*
X256080Y-19290D01*
X256131Y-19342D01*
X256184Y-19392D01*
X256240Y-19438D01*
X256298Y-19482D01*
X256359Y-19523D01*
X256421Y-19561D01*
X256485Y-19595D01*
X256551Y-19626D01*
X256619Y-19654D01*
X256688Y-19678D01*
X256758Y-19698D01*
X256829Y-19715D01*
X256900Y-19728D01*
X256972Y-19737D01*
X257045Y-19743D01*
X257118Y-19745D01*
X258451Y-18793D02*
X258512Y-18664D01*
X258570Y-18534D01*
X258624Y-18402D01*
X258675Y-18269D01*
X258722Y-18135D01*
X258767Y-17999D01*
X258807Y-17863D01*
X258844Y-17725D01*
X258878Y-17587D01*
X258909Y-17448D01*
X258935Y-17308D01*
X258959Y-17167D01*
X258978Y-17026D01*
X258994Y-16885D01*
X259007Y-16743D01*
X259016Y-16601D01*
X259021Y-16458D01*
X259023Y-16316D01*
X258452Y-18792D02*
X258426Y-18861D01*
X258397Y-18927D01*
X258365Y-18993D01*
X258330Y-19056D01*
X258291Y-19118D01*
X258249Y-19178D01*
X258204Y-19235D01*
X258156Y-19290D01*
X258105Y-19342D01*
X258052Y-19392D01*
X257996Y-19438D01*
X257938Y-19482D01*
X257877Y-19523D01*
X257815Y-19561D01*
X257751Y-19595D01*
X257685Y-19626D01*
X257617Y-19654D01*
X257548Y-19678D01*
X257478Y-19698D01*
X257407Y-19715D01*
X257336Y-19728D01*
X257264Y-19737D01*
X257191Y-19743D01*
X257118Y-19745D01*
X255594Y-18221D02*
X258642Y-14411D01*
X264624Y-12887D02*
X264706Y-12889D01*
X264787Y-12895D01*
X264868Y-12904D01*
X264949Y-12918D01*
X265028Y-12935D01*
X265107Y-12956D01*
X265185Y-12981D01*
X265261Y-13010D01*
X265336Y-13042D01*
X265410Y-13078D01*
X265482Y-13117D01*
X265551Y-13159D01*
X265619Y-13205D01*
X265684Y-13254D01*
X265747Y-13306D01*
X265807Y-13361D01*
X265865Y-13419D01*
X265920Y-13479D01*
X265972Y-13542D01*
X266021Y-13607D01*
X266067Y-13675D01*
X266109Y-13745D01*
X266148Y-13816D01*
X266184Y-13890D01*
X266216Y-13965D01*
X266245Y-14041D01*
X266270Y-14119D01*
X266291Y-14198D01*
X266308Y-14277D01*
X266322Y-14358D01*
X266331Y-14439D01*
X266337Y-14520D01*
X266339Y-14602D01*
X264624Y-12887D02*
X264532Y-12889D01*
X264440Y-12895D01*
X264348Y-12904D01*
X264256Y-12918D01*
X264166Y-12935D01*
X264076Y-12956D01*
X263987Y-12981D01*
X263899Y-13010D01*
X263812Y-13042D01*
X263727Y-13078D01*
X263644Y-13117D01*
X263562Y-13160D01*
X263482Y-13206D01*
X263404Y-13256D01*
X263328Y-13308D01*
X263255Y-13364D01*
X263184Y-13423D01*
X263115Y-13485D01*
X263049Y-13550D01*
X262986Y-13617D01*
X262926Y-13687D01*
X262868Y-13759D01*
X262814Y-13834D01*
X262763Y-13911D01*
X262715Y-13990D01*
X262671Y-14071D01*
X262630Y-14154D01*
X262592Y-14238D01*
X262558Y-14324D01*
X262528Y-14411D01*
X265767Y-15936D02*
X265826Y-15877D01*
X265882Y-15816D01*
X265935Y-15753D01*
X265986Y-15687D01*
X266033Y-15619D01*
X266077Y-15549D01*
X266118Y-15477D01*
X266156Y-15403D01*
X266190Y-15328D01*
X266221Y-15251D01*
X266248Y-15173D01*
X266272Y-15093D01*
X266293Y-15013D01*
X266309Y-14932D01*
X266322Y-14850D01*
X266332Y-14768D01*
X266337Y-14685D01*
X266339Y-14602D01*
X265767Y-15935D02*
X262528Y-19745D01*
X266338Y-19745D01*
X271939Y-12887D02*
X272021Y-12889D01*
X272102Y-12895D01*
X272183Y-12904D01*
X272264Y-12918D01*
X272343Y-12935D01*
X272422Y-12956D01*
X272500Y-12981D01*
X272576Y-13010D01*
X272651Y-13042D01*
X272725Y-13078D01*
X272797Y-13117D01*
X272866Y-13159D01*
X272934Y-13205D01*
X272999Y-13254D01*
X273062Y-13306D01*
X273122Y-13361D01*
X273180Y-13419D01*
X273235Y-13479D01*
X273287Y-13542D01*
X273336Y-13607D01*
X273382Y-13675D01*
X273424Y-13745D01*
X273463Y-13816D01*
X273499Y-13890D01*
X273531Y-13965D01*
X273560Y-14041D01*
X273585Y-14119D01*
X273606Y-14198D01*
X273623Y-14277D01*
X273637Y-14358D01*
X273646Y-14439D01*
X273652Y-14520D01*
X273654Y-14602D01*
X271939Y-12887D02*
X271847Y-12889D01*
X271755Y-12895D01*
X271663Y-12904D01*
X271571Y-12918D01*
X271481Y-12935D01*
X271391Y-12956D01*
X271302Y-12981D01*
X271214Y-13010D01*
X271127Y-13042D01*
X271042Y-13078D01*
X270959Y-13117D01*
X270877Y-13160D01*
X270797Y-13206D01*
X270719Y-13256D01*
X270643Y-13308D01*
X270570Y-13364D01*
X270499Y-13423D01*
X270430Y-13485D01*
X270364Y-13550D01*
X270301Y-13617D01*
X270241Y-13687D01*
X270183Y-13759D01*
X270129Y-13834D01*
X270078Y-13911D01*
X270030Y-13990D01*
X269986Y-14071D01*
X269945Y-14154D01*
X269907Y-14238D01*
X269873Y-14324D01*
X269843Y-14411D01*
X273082Y-15936D02*
X273141Y-15877D01*
X273197Y-15816D01*
X273250Y-15753D01*
X273301Y-15687D01*
X273348Y-15619D01*
X273392Y-15549D01*
X273433Y-15477D01*
X273471Y-15403D01*
X273505Y-15328D01*
X273536Y-15251D01*
X273563Y-15173D01*
X273587Y-15093D01*
X273608Y-15013D01*
X273624Y-14932D01*
X273637Y-14850D01*
X273647Y-14768D01*
X273652Y-14685D01*
X273654Y-14602D01*
X273082Y-15935D02*
X269843Y-19745D01*
X273653Y-19745D01*
X277158Y-16316D02*
X277160Y-16174D01*
X277165Y-16031D01*
X277174Y-15889D01*
X277187Y-15747D01*
X277203Y-15606D01*
X277222Y-15465D01*
X277246Y-15324D01*
X277272Y-15184D01*
X277303Y-15045D01*
X277337Y-14907D01*
X277374Y-14769D01*
X277414Y-14633D01*
X277459Y-14497D01*
X277506Y-14363D01*
X277557Y-14230D01*
X277611Y-14098D01*
X277669Y-13968D01*
X277730Y-13839D01*
X277729Y-13840D02*
X277755Y-13771D01*
X277784Y-13705D01*
X277816Y-13639D01*
X277851Y-13576D01*
X277890Y-13514D01*
X277932Y-13454D01*
X277977Y-13397D01*
X278025Y-13342D01*
X278076Y-13290D01*
X278129Y-13240D01*
X278185Y-13194D01*
X278243Y-13150D01*
X278304Y-13109D01*
X278366Y-13071D01*
X278430Y-13037D01*
X278496Y-13006D01*
X278564Y-12978D01*
X278633Y-12954D01*
X278703Y-12934D01*
X278774Y-12917D01*
X278845Y-12904D01*
X278917Y-12895D01*
X278990Y-12889D01*
X279063Y-12887D01*
X279136Y-12889D01*
X279209Y-12895D01*
X279281Y-12904D01*
X279352Y-12917D01*
X279423Y-12934D01*
X279493Y-12954D01*
X279562Y-12978D01*
X279630Y-13006D01*
X279696Y-13037D01*
X279760Y-13071D01*
X279822Y-13109D01*
X279883Y-13150D01*
X279941Y-13194D01*
X279997Y-13240D01*
X280050Y-13290D01*
X280101Y-13342D01*
X280149Y-13397D01*
X280194Y-13454D01*
X280236Y-13514D01*
X280275Y-13576D01*
X280310Y-13639D01*
X280342Y-13705D01*
X280371Y-13771D01*
X280397Y-13840D01*
X280397Y-13839D02*
X280458Y-13968D01*
X280516Y-14098D01*
X280570Y-14230D01*
X280621Y-14363D01*
X280668Y-14497D01*
X280713Y-14633D01*
X280753Y-14769D01*
X280790Y-14907D01*
X280824Y-15045D01*
X280855Y-15184D01*
X280881Y-15324D01*
X280905Y-15465D01*
X280924Y-15606D01*
X280940Y-15747D01*
X280953Y-15889D01*
X280962Y-16031D01*
X280967Y-16174D01*
X280969Y-16316D01*
X277158Y-16316D02*
X277160Y-16458D01*
X277165Y-16601D01*
X277174Y-16743D01*
X277187Y-16885D01*
X277203Y-17026D01*
X277222Y-17167D01*
X277246Y-17308D01*
X277272Y-17448D01*
X277303Y-17587D01*
X277337Y-17725D01*
X277374Y-17863D01*
X277414Y-17999D01*
X277459Y-18135D01*
X277506Y-18269D01*
X277557Y-18402D01*
X277611Y-18534D01*
X277669Y-18664D01*
X277730Y-18793D01*
X277729Y-18792D02*
X277755Y-18861D01*
X277784Y-18927D01*
X277816Y-18993D01*
X277851Y-19056D01*
X277890Y-19118D01*
X277932Y-19178D01*
X277977Y-19235D01*
X278025Y-19290D01*
X278076Y-19342D01*
X278129Y-19392D01*
X278185Y-19438D01*
X278243Y-19482D01*
X278304Y-19523D01*
X278366Y-19561D01*
X278430Y-19595D01*
X278496Y-19626D01*
X278564Y-19654D01*
X278633Y-19678D01*
X278703Y-19698D01*
X278774Y-19715D01*
X278845Y-19728D01*
X278917Y-19737D01*
X278990Y-19743D01*
X279063Y-19745D01*
X280397Y-18793D02*
X280458Y-18664D01*
X280516Y-18534D01*
X280570Y-18402D01*
X280621Y-18269D01*
X280668Y-18135D01*
X280713Y-17999D01*
X280753Y-17863D01*
X280790Y-17725D01*
X280824Y-17587D01*
X280855Y-17448D01*
X280881Y-17308D01*
X280905Y-17167D01*
X280924Y-17026D01*
X280940Y-16885D01*
X280953Y-16743D01*
X280962Y-16601D01*
X280967Y-16458D01*
X280969Y-16316D01*
X280397Y-18792D02*
X280371Y-18861D01*
X280342Y-18927D01*
X280310Y-18993D01*
X280275Y-19056D01*
X280236Y-19118D01*
X280194Y-19178D01*
X280149Y-19235D01*
X280101Y-19290D01*
X280050Y-19342D01*
X279997Y-19392D01*
X279941Y-19438D01*
X279883Y-19482D01*
X279822Y-19523D01*
X279760Y-19561D01*
X279696Y-19595D01*
X279630Y-19626D01*
X279562Y-19654D01*
X279493Y-19678D01*
X279423Y-19698D01*
X279352Y-19715D01*
X279281Y-19728D01*
X279209Y-19737D01*
X279136Y-19743D01*
X279063Y-19745D01*
X277539Y-18221D02*
X280587Y-14411D01*
X284474Y-18221D02*
X285998Y-12887D01*
X284474Y-18221D02*
X288284Y-18221D01*
X287141Y-16697D02*
X287141Y-19745D01*
X291789Y-14411D02*
X293694Y-12887D01*
X293694Y-19745D01*
X291789Y-19745D02*
X295599Y-19745D01*
X299104Y-13649D02*
X299104Y-12887D01*
X302914Y-12887D01*
X301009Y-19745D01*
D12*
X167065Y35922D02*
X167065Y44558D01*
X167065Y35922D02*
X169463Y35922D01*
X169538Y35924D01*
X169613Y35930D01*
X169688Y35940D01*
X169762Y35953D01*
X169835Y35971D01*
X169908Y35992D01*
X169979Y36018D01*
X170048Y36046D01*
X170116Y36079D01*
X170182Y36115D01*
X170247Y36154D01*
X170309Y36197D01*
X170369Y36243D01*
X170426Y36292D01*
X170481Y36343D01*
X170532Y36398D01*
X170581Y36455D01*
X170627Y36515D01*
X170670Y36577D01*
X170709Y36641D01*
X170745Y36708D01*
X170778Y36776D01*
X170806Y36845D01*
X170832Y36916D01*
X170853Y36989D01*
X170871Y37062D01*
X170884Y37136D01*
X170894Y37211D01*
X170900Y37286D01*
X170902Y37361D01*
X170903Y37361D02*
X170903Y40240D01*
X170902Y40240D02*
X170900Y40315D01*
X170894Y40390D01*
X170884Y40465D01*
X170871Y40539D01*
X170853Y40612D01*
X170832Y40685D01*
X170806Y40756D01*
X170778Y40825D01*
X170745Y40893D01*
X170709Y40960D01*
X170670Y41024D01*
X170627Y41086D01*
X170581Y41146D01*
X170532Y41203D01*
X170481Y41258D01*
X170426Y41309D01*
X170369Y41358D01*
X170309Y41404D01*
X170247Y41447D01*
X170183Y41486D01*
X170116Y41522D01*
X170048Y41555D01*
X169979Y41583D01*
X169908Y41609D01*
X169835Y41630D01*
X169762Y41648D01*
X169688Y41661D01*
X169613Y41671D01*
X169538Y41677D01*
X169463Y41679D01*
X167065Y41679D01*
X174922Y39760D02*
X174922Y37841D01*
X174922Y39760D02*
X174924Y39846D01*
X174930Y39932D01*
X174939Y40018D01*
X174953Y40103D01*
X174970Y40187D01*
X174991Y40271D01*
X175016Y40353D01*
X175044Y40434D01*
X175076Y40514D01*
X175112Y40593D01*
X175151Y40669D01*
X175194Y40744D01*
X175239Y40817D01*
X175288Y40888D01*
X175341Y40956D01*
X175396Y41023D01*
X175454Y41086D01*
X175515Y41147D01*
X175578Y41205D01*
X175645Y41260D01*
X175713Y41313D01*
X175784Y41362D01*
X175857Y41407D01*
X175932Y41450D01*
X176008Y41489D01*
X176087Y41525D01*
X176167Y41557D01*
X176248Y41585D01*
X176330Y41610D01*
X176414Y41631D01*
X176498Y41648D01*
X176583Y41662D01*
X176669Y41671D01*
X176755Y41677D01*
X176841Y41679D01*
X176927Y41677D01*
X177013Y41671D01*
X177099Y41662D01*
X177184Y41648D01*
X177268Y41631D01*
X177352Y41610D01*
X177434Y41585D01*
X177515Y41557D01*
X177595Y41525D01*
X177674Y41489D01*
X177750Y41450D01*
X177825Y41407D01*
X177898Y41362D01*
X177969Y41313D01*
X178037Y41260D01*
X178104Y41205D01*
X178167Y41147D01*
X178228Y41086D01*
X178286Y41023D01*
X178341Y40956D01*
X178394Y40888D01*
X178443Y40817D01*
X178488Y40744D01*
X178531Y40669D01*
X178570Y40593D01*
X178606Y40514D01*
X178638Y40434D01*
X178666Y40353D01*
X178691Y40271D01*
X178712Y40187D01*
X178729Y40103D01*
X178743Y40018D01*
X178752Y39932D01*
X178758Y39846D01*
X178760Y39760D01*
X178760Y37841D01*
X178758Y37755D01*
X178752Y37669D01*
X178743Y37583D01*
X178729Y37498D01*
X178712Y37414D01*
X178691Y37330D01*
X178666Y37248D01*
X178638Y37167D01*
X178606Y37087D01*
X178570Y37008D01*
X178531Y36932D01*
X178488Y36857D01*
X178443Y36784D01*
X178394Y36713D01*
X178341Y36645D01*
X178286Y36578D01*
X178228Y36515D01*
X178167Y36454D01*
X178104Y36396D01*
X178037Y36341D01*
X177969Y36288D01*
X177898Y36239D01*
X177825Y36194D01*
X177750Y36151D01*
X177674Y36112D01*
X177595Y36076D01*
X177515Y36044D01*
X177434Y36016D01*
X177352Y35991D01*
X177268Y35970D01*
X177184Y35953D01*
X177099Y35939D01*
X177013Y35930D01*
X176927Y35924D01*
X176841Y35922D01*
X176755Y35924D01*
X176669Y35930D01*
X176583Y35939D01*
X176498Y35953D01*
X176414Y35970D01*
X176330Y35991D01*
X176248Y36016D01*
X176167Y36044D01*
X176087Y36076D01*
X176008Y36112D01*
X175932Y36151D01*
X175857Y36194D01*
X175784Y36239D01*
X175713Y36288D01*
X175645Y36341D01*
X175578Y36396D01*
X175515Y36454D01*
X175454Y36515D01*
X175396Y36578D01*
X175341Y36645D01*
X175288Y36713D01*
X175239Y36784D01*
X175194Y36857D01*
X175151Y36932D01*
X175112Y37008D01*
X175076Y37087D01*
X175044Y37167D01*
X175016Y37248D01*
X174991Y37330D01*
X174970Y37414D01*
X174953Y37498D01*
X174939Y37583D01*
X174930Y37669D01*
X174924Y37755D01*
X174922Y37841D01*
X183228Y35922D02*
X183228Y41679D01*
X186106Y41679D01*
X186106Y40720D01*
X188401Y41679D02*
X191280Y41679D01*
X189361Y44558D02*
X189361Y37361D01*
X189363Y37288D01*
X189368Y37215D01*
X189378Y37143D01*
X189390Y37071D01*
X189407Y37000D01*
X189427Y36930D01*
X189451Y36861D01*
X189478Y36794D01*
X189508Y36727D01*
X189542Y36663D01*
X189579Y36600D01*
X189619Y36539D01*
X189662Y36480D01*
X189708Y36424D01*
X189757Y36370D01*
X189809Y36318D01*
X189863Y36269D01*
X189919Y36223D01*
X189978Y36180D01*
X190039Y36140D01*
X190102Y36103D01*
X190166Y36069D01*
X190233Y36039D01*
X190300Y36012D01*
X190369Y35988D01*
X190439Y35968D01*
X190510Y35951D01*
X190582Y35939D01*
X190654Y35929D01*
X190727Y35924D01*
X190800Y35922D01*
X191280Y35922D01*
X194824Y35922D02*
X194824Y41679D01*
X194584Y44078D02*
X194584Y44558D01*
X195064Y44558D01*
X195064Y44078D01*
X194584Y44078D01*
X200745Y44558D02*
X198826Y37841D01*
X203623Y37841D01*
X202184Y39760D02*
X202184Y35922D01*
X209889Y39760D02*
X212767Y39760D01*
X209889Y39760D02*
X209803Y39762D01*
X209717Y39768D01*
X209631Y39777D01*
X209546Y39791D01*
X209462Y39808D01*
X209378Y39829D01*
X209296Y39854D01*
X209215Y39882D01*
X209135Y39914D01*
X209056Y39950D01*
X208980Y39989D01*
X208905Y40032D01*
X208832Y40077D01*
X208761Y40126D01*
X208693Y40179D01*
X208626Y40234D01*
X208563Y40292D01*
X208502Y40353D01*
X208444Y40416D01*
X208389Y40483D01*
X208336Y40551D01*
X208287Y40622D01*
X208242Y40695D01*
X208199Y40770D01*
X208160Y40846D01*
X208124Y40925D01*
X208092Y41005D01*
X208064Y41086D01*
X208039Y41168D01*
X208018Y41252D01*
X208001Y41336D01*
X207987Y41421D01*
X207978Y41507D01*
X207972Y41593D01*
X207970Y41679D01*
X207970Y42159D01*
X207972Y42256D01*
X207978Y42352D01*
X207987Y42448D01*
X208001Y42544D01*
X208018Y42639D01*
X208040Y42733D01*
X208065Y42826D01*
X208093Y42919D01*
X208126Y43010D01*
X208162Y43099D01*
X208202Y43187D01*
X208245Y43274D01*
X208291Y43359D01*
X208341Y43441D01*
X208395Y43522D01*
X208451Y43600D01*
X208511Y43676D01*
X208573Y43750D01*
X208639Y43821D01*
X208707Y43889D01*
X208778Y43955D01*
X208852Y44017D01*
X208928Y44077D01*
X209006Y44133D01*
X209087Y44187D01*
X209170Y44237D01*
X209254Y44283D01*
X209341Y44326D01*
X209429Y44366D01*
X209518Y44402D01*
X209609Y44435D01*
X209702Y44463D01*
X209795Y44488D01*
X209889Y44510D01*
X209984Y44527D01*
X210080Y44541D01*
X210176Y44550D01*
X210272Y44556D01*
X210369Y44558D01*
X210466Y44556D01*
X210562Y44550D01*
X210658Y44541D01*
X210754Y44527D01*
X210849Y44510D01*
X210943Y44488D01*
X211036Y44463D01*
X211129Y44435D01*
X211220Y44402D01*
X211309Y44366D01*
X211397Y44326D01*
X211484Y44283D01*
X211569Y44237D01*
X211651Y44187D01*
X211732Y44133D01*
X211810Y44077D01*
X211886Y44017D01*
X211960Y43955D01*
X212031Y43889D01*
X212099Y43821D01*
X212165Y43750D01*
X212227Y43676D01*
X212287Y43600D01*
X212343Y43522D01*
X212397Y43441D01*
X212447Y43359D01*
X212493Y43274D01*
X212536Y43187D01*
X212576Y43099D01*
X212612Y43010D01*
X212645Y42919D01*
X212673Y42826D01*
X212698Y42733D01*
X212720Y42639D01*
X212737Y42544D01*
X212751Y42448D01*
X212760Y42352D01*
X212766Y42256D01*
X212768Y42159D01*
X212767Y42159D02*
X212767Y39760D01*
X212765Y39637D01*
X212759Y39514D01*
X212749Y39391D01*
X212735Y39269D01*
X212718Y39147D01*
X212696Y39026D01*
X212671Y38906D01*
X212641Y38786D01*
X212608Y38668D01*
X212571Y38551D01*
X212531Y38434D01*
X212487Y38320D01*
X212439Y38206D01*
X212387Y38095D01*
X212332Y37985D01*
X212273Y37877D01*
X212211Y37770D01*
X212146Y37666D01*
X212077Y37564D01*
X212005Y37464D01*
X211930Y37367D01*
X211851Y37272D01*
X211770Y37180D01*
X211686Y37090D01*
X211599Y37003D01*
X211509Y36919D01*
X211417Y36838D01*
X211322Y36759D01*
X211225Y36684D01*
X211125Y36612D01*
X211023Y36543D01*
X210919Y36478D01*
X210812Y36416D01*
X210704Y36357D01*
X210594Y36302D01*
X210483Y36250D01*
X210369Y36203D01*
X210255Y36158D01*
X210138Y36118D01*
X210021Y36081D01*
X209903Y36048D01*
X209783Y36018D01*
X209663Y35993D01*
X209542Y35971D01*
X209420Y35954D01*
X209298Y35940D01*
X209175Y35930D01*
X209052Y35924D01*
X208929Y35922D01*
X217114Y35922D02*
X219513Y35922D01*
X219610Y35924D01*
X219706Y35930D01*
X219802Y35939D01*
X219898Y35953D01*
X219993Y35970D01*
X220087Y35992D01*
X220180Y36017D01*
X220273Y36045D01*
X220364Y36078D01*
X220453Y36114D01*
X220541Y36154D01*
X220628Y36197D01*
X220713Y36243D01*
X220795Y36293D01*
X220876Y36347D01*
X220954Y36403D01*
X221030Y36463D01*
X221104Y36525D01*
X221175Y36591D01*
X221243Y36659D01*
X221309Y36730D01*
X221371Y36804D01*
X221431Y36880D01*
X221487Y36958D01*
X221541Y37039D01*
X221591Y37121D01*
X221637Y37206D01*
X221680Y37293D01*
X221720Y37381D01*
X221756Y37470D01*
X221789Y37561D01*
X221817Y37654D01*
X221842Y37747D01*
X221864Y37841D01*
X221881Y37936D01*
X221895Y38032D01*
X221904Y38128D01*
X221910Y38224D01*
X221912Y38321D01*
X221910Y38418D01*
X221904Y38514D01*
X221895Y38610D01*
X221881Y38706D01*
X221864Y38801D01*
X221842Y38895D01*
X221817Y38988D01*
X221789Y39081D01*
X221756Y39172D01*
X221720Y39261D01*
X221680Y39349D01*
X221637Y39436D01*
X221591Y39520D01*
X221541Y39603D01*
X221487Y39684D01*
X221431Y39762D01*
X221371Y39838D01*
X221309Y39912D01*
X221243Y39983D01*
X221175Y40051D01*
X221104Y40117D01*
X221030Y40179D01*
X220954Y40239D01*
X220876Y40295D01*
X220795Y40349D01*
X220713Y40399D01*
X220628Y40445D01*
X220541Y40488D01*
X220453Y40528D01*
X220364Y40564D01*
X220273Y40597D01*
X220180Y40625D01*
X220087Y40650D01*
X219993Y40672D01*
X219898Y40689D01*
X219802Y40703D01*
X219706Y40712D01*
X219610Y40718D01*
X219513Y40720D01*
X219992Y44558D02*
X217114Y44558D01*
X219992Y44558D02*
X220078Y44556D01*
X220164Y44550D01*
X220250Y44541D01*
X220335Y44527D01*
X220419Y44510D01*
X220503Y44489D01*
X220585Y44464D01*
X220666Y44436D01*
X220746Y44404D01*
X220825Y44368D01*
X220901Y44329D01*
X220976Y44286D01*
X221049Y44241D01*
X221120Y44192D01*
X221188Y44139D01*
X221255Y44084D01*
X221318Y44026D01*
X221379Y43965D01*
X221437Y43902D01*
X221492Y43835D01*
X221545Y43767D01*
X221594Y43696D01*
X221639Y43623D01*
X221682Y43548D01*
X221721Y43472D01*
X221757Y43393D01*
X221789Y43313D01*
X221817Y43232D01*
X221842Y43150D01*
X221863Y43066D01*
X221880Y42982D01*
X221894Y42897D01*
X221903Y42811D01*
X221909Y42725D01*
X221911Y42639D01*
X221909Y42553D01*
X221903Y42467D01*
X221894Y42381D01*
X221880Y42296D01*
X221863Y42212D01*
X221842Y42128D01*
X221817Y42046D01*
X221789Y41965D01*
X221757Y41885D01*
X221721Y41806D01*
X221682Y41730D01*
X221639Y41655D01*
X221594Y41582D01*
X221545Y41511D01*
X221492Y41443D01*
X221437Y41376D01*
X221379Y41313D01*
X221318Y41252D01*
X221255Y41194D01*
X221188Y41139D01*
X221120Y41086D01*
X221049Y41037D01*
X220976Y40992D01*
X220901Y40949D01*
X220825Y40910D01*
X220746Y40874D01*
X220666Y40842D01*
X220585Y40814D01*
X220503Y40789D01*
X220419Y40768D01*
X220335Y40751D01*
X220250Y40737D01*
X220164Y40728D01*
X220078Y40722D01*
X219992Y40720D01*
X218073Y40720D01*
X226258Y38321D02*
X226260Y38418D01*
X226266Y38514D01*
X226275Y38610D01*
X226289Y38706D01*
X226306Y38801D01*
X226328Y38895D01*
X226353Y38988D01*
X226381Y39081D01*
X226414Y39172D01*
X226450Y39261D01*
X226490Y39349D01*
X226533Y39436D01*
X226579Y39521D01*
X226629Y39603D01*
X226683Y39684D01*
X226739Y39762D01*
X226799Y39838D01*
X226861Y39912D01*
X226927Y39983D01*
X226995Y40051D01*
X227066Y40117D01*
X227140Y40179D01*
X227216Y40239D01*
X227294Y40295D01*
X227375Y40349D01*
X227458Y40399D01*
X227542Y40445D01*
X227629Y40488D01*
X227717Y40528D01*
X227806Y40564D01*
X227897Y40597D01*
X227990Y40625D01*
X228083Y40650D01*
X228177Y40672D01*
X228272Y40689D01*
X228368Y40703D01*
X228464Y40712D01*
X228560Y40718D01*
X228657Y40720D01*
X228754Y40718D01*
X228850Y40712D01*
X228946Y40703D01*
X229042Y40689D01*
X229137Y40672D01*
X229231Y40650D01*
X229324Y40625D01*
X229417Y40597D01*
X229508Y40564D01*
X229597Y40528D01*
X229685Y40488D01*
X229772Y40445D01*
X229857Y40399D01*
X229939Y40349D01*
X230020Y40295D01*
X230098Y40239D01*
X230174Y40179D01*
X230248Y40117D01*
X230319Y40051D01*
X230387Y39983D01*
X230453Y39912D01*
X230515Y39838D01*
X230575Y39762D01*
X230631Y39684D01*
X230685Y39603D01*
X230735Y39521D01*
X230781Y39436D01*
X230824Y39349D01*
X230864Y39261D01*
X230900Y39172D01*
X230933Y39081D01*
X230961Y38988D01*
X230986Y38895D01*
X231008Y38801D01*
X231025Y38706D01*
X231039Y38610D01*
X231048Y38514D01*
X231054Y38418D01*
X231056Y38321D01*
X231054Y38224D01*
X231048Y38128D01*
X231039Y38032D01*
X231025Y37936D01*
X231008Y37841D01*
X230986Y37747D01*
X230961Y37654D01*
X230933Y37561D01*
X230900Y37470D01*
X230864Y37381D01*
X230824Y37293D01*
X230781Y37206D01*
X230735Y37121D01*
X230685Y37039D01*
X230631Y36958D01*
X230575Y36880D01*
X230515Y36804D01*
X230453Y36730D01*
X230387Y36659D01*
X230319Y36591D01*
X230248Y36525D01*
X230174Y36463D01*
X230098Y36403D01*
X230020Y36347D01*
X229939Y36293D01*
X229856Y36243D01*
X229772Y36197D01*
X229685Y36154D01*
X229597Y36114D01*
X229508Y36078D01*
X229417Y36045D01*
X229324Y36017D01*
X229231Y35992D01*
X229137Y35970D01*
X229042Y35953D01*
X228946Y35939D01*
X228850Y35930D01*
X228754Y35924D01*
X228657Y35922D01*
X228560Y35924D01*
X228464Y35930D01*
X228368Y35939D01*
X228272Y35953D01*
X228177Y35970D01*
X228083Y35992D01*
X227990Y36017D01*
X227897Y36045D01*
X227806Y36078D01*
X227717Y36114D01*
X227629Y36154D01*
X227542Y36197D01*
X227458Y36243D01*
X227375Y36293D01*
X227294Y36347D01*
X227216Y36403D01*
X227140Y36463D01*
X227066Y36525D01*
X226995Y36591D01*
X226927Y36659D01*
X226861Y36730D01*
X226799Y36804D01*
X226739Y36880D01*
X226683Y36958D01*
X226629Y37039D01*
X226579Y37122D01*
X226533Y37206D01*
X226490Y37293D01*
X226450Y37381D01*
X226414Y37470D01*
X226381Y37561D01*
X226353Y37654D01*
X226328Y37747D01*
X226306Y37841D01*
X226289Y37936D01*
X226275Y38032D01*
X226266Y38128D01*
X226260Y38224D01*
X226258Y38321D01*
X226738Y42639D02*
X226740Y42725D01*
X226746Y42811D01*
X226755Y42897D01*
X226769Y42982D01*
X226786Y43066D01*
X226807Y43150D01*
X226832Y43232D01*
X226860Y43313D01*
X226892Y43393D01*
X226928Y43472D01*
X226967Y43548D01*
X227010Y43623D01*
X227055Y43696D01*
X227104Y43767D01*
X227157Y43835D01*
X227212Y43902D01*
X227270Y43965D01*
X227331Y44026D01*
X227394Y44084D01*
X227461Y44139D01*
X227529Y44192D01*
X227600Y44241D01*
X227673Y44286D01*
X227748Y44329D01*
X227824Y44368D01*
X227903Y44404D01*
X227983Y44436D01*
X228064Y44464D01*
X228146Y44489D01*
X228230Y44510D01*
X228314Y44527D01*
X228399Y44541D01*
X228485Y44550D01*
X228571Y44556D01*
X228657Y44558D01*
X228743Y44556D01*
X228829Y44550D01*
X228915Y44541D01*
X229000Y44527D01*
X229084Y44510D01*
X229168Y44489D01*
X229250Y44464D01*
X229331Y44436D01*
X229411Y44404D01*
X229490Y44368D01*
X229566Y44329D01*
X229641Y44286D01*
X229714Y44241D01*
X229785Y44192D01*
X229853Y44139D01*
X229920Y44084D01*
X229983Y44026D01*
X230044Y43965D01*
X230102Y43902D01*
X230157Y43835D01*
X230210Y43767D01*
X230259Y43696D01*
X230304Y43623D01*
X230347Y43548D01*
X230386Y43472D01*
X230422Y43393D01*
X230454Y43313D01*
X230482Y43232D01*
X230507Y43150D01*
X230528Y43066D01*
X230545Y42982D01*
X230559Y42897D01*
X230568Y42811D01*
X230574Y42725D01*
X230576Y42639D01*
X230574Y42553D01*
X230568Y42467D01*
X230559Y42381D01*
X230545Y42296D01*
X230528Y42212D01*
X230507Y42128D01*
X230482Y42046D01*
X230454Y41965D01*
X230422Y41885D01*
X230386Y41806D01*
X230347Y41730D01*
X230304Y41655D01*
X230259Y41582D01*
X230210Y41511D01*
X230157Y41443D01*
X230102Y41376D01*
X230044Y41313D01*
X229983Y41252D01*
X229920Y41194D01*
X229853Y41139D01*
X229785Y41086D01*
X229714Y41037D01*
X229641Y40992D01*
X229566Y40949D01*
X229490Y40910D01*
X229411Y40874D01*
X229331Y40842D01*
X229250Y40814D01*
X229168Y40789D01*
X229084Y40768D01*
X229000Y40751D01*
X228915Y40737D01*
X228829Y40728D01*
X228743Y40722D01*
X228657Y40720D01*
X228571Y40722D01*
X228485Y40728D01*
X228399Y40737D01*
X228314Y40751D01*
X228230Y40768D01*
X228146Y40789D01*
X228064Y40814D01*
X227983Y40842D01*
X227903Y40874D01*
X227824Y40910D01*
X227748Y40949D01*
X227673Y40992D01*
X227600Y41037D01*
X227529Y41086D01*
X227461Y41139D01*
X227394Y41194D01*
X227331Y41252D01*
X227270Y41313D01*
X227212Y41376D01*
X227157Y41443D01*
X227104Y41511D01*
X227055Y41582D01*
X227010Y41655D01*
X226967Y41730D01*
X226928Y41806D01*
X226892Y41885D01*
X226860Y41965D01*
X226832Y42046D01*
X226807Y42128D01*
X226786Y42212D01*
X226769Y42296D01*
X226755Y42381D01*
X226746Y42467D01*
X226740Y42553D01*
X226738Y42639D01*
X173243Y19722D02*
X169404Y19722D01*
X176719Y19722D02*
X180558Y19722D01*
X184035Y19722D02*
X187873Y30278D01*
X193280Y25000D02*
X193278Y24802D01*
X193270Y24605D01*
X193259Y24408D01*
X193242Y24211D01*
X193221Y24014D01*
X193195Y23818D01*
X193164Y23623D01*
X193128Y23429D01*
X193088Y23235D01*
X193043Y23043D01*
X192994Y22851D01*
X192940Y22661D01*
X192882Y22473D01*
X192819Y22285D01*
X192751Y22100D01*
X192679Y21916D01*
X192603Y21733D01*
X192522Y21553D01*
X192437Y21375D01*
X192348Y21198D01*
X192254Y21024D01*
X192156Y20852D01*
X192054Y20683D01*
X191949Y20516D01*
X191839Y20352D01*
X191725Y20190D01*
X191607Y20032D01*
X191486Y19876D01*
X191361Y19723D01*
X193280Y25000D02*
X193278Y25198D01*
X193270Y25395D01*
X193259Y25592D01*
X193242Y25789D01*
X193221Y25986D01*
X193195Y26182D01*
X193164Y26377D01*
X193128Y26571D01*
X193088Y26765D01*
X193043Y26957D01*
X192994Y27149D01*
X192940Y27339D01*
X192882Y27527D01*
X192819Y27715D01*
X192751Y27900D01*
X192679Y28084D01*
X192603Y28267D01*
X192522Y28447D01*
X192437Y28625D01*
X192348Y28802D01*
X192254Y28976D01*
X192156Y29148D01*
X192054Y29317D01*
X191949Y29484D01*
X191839Y29648D01*
X191725Y29810D01*
X191607Y29969D01*
X191486Y30124D01*
X191361Y30277D01*
X197141Y19722D02*
X200979Y19722D01*
X204456Y19722D02*
X208294Y19722D01*
X211771Y19722D02*
X215609Y30278D01*
X221016Y25000D02*
X221014Y24802D01*
X221006Y24605D01*
X220995Y24408D01*
X220978Y24211D01*
X220957Y24014D01*
X220931Y23818D01*
X220900Y23623D01*
X220864Y23429D01*
X220824Y23235D01*
X220779Y23043D01*
X220730Y22851D01*
X220676Y22661D01*
X220618Y22473D01*
X220555Y22285D01*
X220487Y22100D01*
X220415Y21916D01*
X220339Y21733D01*
X220258Y21553D01*
X220173Y21375D01*
X220084Y21198D01*
X219990Y21024D01*
X219892Y20852D01*
X219790Y20683D01*
X219685Y20516D01*
X219575Y20352D01*
X219461Y20190D01*
X219343Y20032D01*
X219222Y19876D01*
X219097Y19723D01*
X221017Y25000D02*
X221015Y25198D01*
X221007Y25395D01*
X220996Y25592D01*
X220979Y25789D01*
X220958Y25986D01*
X220932Y26182D01*
X220901Y26377D01*
X220865Y26571D01*
X220825Y26765D01*
X220780Y26957D01*
X220731Y27149D01*
X220677Y27339D01*
X220619Y27527D01*
X220556Y27715D01*
X220488Y27900D01*
X220416Y28084D01*
X220340Y28267D01*
X220259Y28447D01*
X220174Y28625D01*
X220085Y28802D01*
X219991Y28976D01*
X219893Y29148D01*
X219791Y29317D01*
X219686Y29484D01*
X219576Y29648D01*
X219462Y29810D01*
X219344Y29969D01*
X219223Y30124D01*
X219098Y30277D01*
X224877Y19722D02*
X228716Y19722D01*
D10*
X1187000Y107500D02*
X1200500Y121000D01*
X1240500Y121000D01*
X1254000Y107500D01*
D12*
X330822Y114622D02*
X330822Y120379D01*
X333221Y120379D01*
X333296Y120377D01*
X333371Y120371D01*
X333446Y120361D01*
X333520Y120348D01*
X333593Y120330D01*
X333666Y120309D01*
X333737Y120283D01*
X333806Y120255D01*
X333874Y120222D01*
X333940Y120186D01*
X334005Y120147D01*
X334067Y120104D01*
X334127Y120058D01*
X334184Y120009D01*
X334239Y119958D01*
X334290Y119903D01*
X334339Y119846D01*
X334385Y119786D01*
X334428Y119724D01*
X334467Y119660D01*
X334503Y119593D01*
X334536Y119525D01*
X334564Y119456D01*
X334590Y119385D01*
X334611Y119312D01*
X334629Y119239D01*
X334642Y119165D01*
X334652Y119090D01*
X334658Y119015D01*
X334660Y118940D01*
X334660Y114622D01*
X341580Y114622D02*
X338702Y123258D01*
X344459Y123258D02*
X341580Y114622D01*
X347981Y114622D02*
X347981Y120379D01*
X347741Y122778D02*
X347741Y123258D01*
X348221Y123258D01*
X348221Y122778D01*
X347741Y122778D01*
X352113Y117980D02*
X357870Y117980D01*
X330822Y108018D02*
X330822Y99382D01*
X330822Y108018D02*
X333221Y108018D01*
X333318Y108016D01*
X333414Y108010D01*
X333510Y108001D01*
X333606Y107987D01*
X333701Y107970D01*
X333795Y107948D01*
X333888Y107923D01*
X333981Y107895D01*
X334072Y107862D01*
X334161Y107826D01*
X334249Y107786D01*
X334336Y107743D01*
X334421Y107697D01*
X334503Y107647D01*
X334584Y107593D01*
X334662Y107537D01*
X334738Y107477D01*
X334812Y107415D01*
X334883Y107349D01*
X334951Y107281D01*
X335017Y107210D01*
X335079Y107136D01*
X335139Y107060D01*
X335195Y106982D01*
X335249Y106901D01*
X335299Y106819D01*
X335345Y106734D01*
X335388Y106647D01*
X335428Y106559D01*
X335464Y106470D01*
X335497Y106379D01*
X335525Y106286D01*
X335550Y106193D01*
X335572Y106099D01*
X335589Y106004D01*
X335603Y105908D01*
X335612Y105812D01*
X335618Y105716D01*
X335620Y105619D01*
X335620Y101781D01*
X335618Y101684D01*
X335612Y101588D01*
X335603Y101492D01*
X335589Y101396D01*
X335572Y101301D01*
X335550Y101207D01*
X335525Y101114D01*
X335497Y101021D01*
X335464Y100930D01*
X335428Y100841D01*
X335388Y100753D01*
X335345Y100666D01*
X335299Y100581D01*
X335249Y100499D01*
X335195Y100418D01*
X335139Y100340D01*
X335079Y100264D01*
X335017Y100190D01*
X334951Y100119D01*
X334883Y100051D01*
X334812Y99985D01*
X334738Y99923D01*
X334662Y99863D01*
X334584Y99807D01*
X334503Y99753D01*
X334421Y99703D01*
X334336Y99657D01*
X334249Y99614D01*
X334161Y99574D01*
X334072Y99538D01*
X333981Y99505D01*
X333888Y99477D01*
X333795Y99452D01*
X333701Y99430D01*
X333606Y99413D01*
X333510Y99399D01*
X333414Y99390D01*
X333318Y99384D01*
X333221Y99382D01*
X330822Y99382D01*
X341580Y99382D02*
X343979Y99382D01*
X341580Y99382D02*
X341505Y99384D01*
X341430Y99390D01*
X341355Y99400D01*
X341281Y99413D01*
X341208Y99431D01*
X341135Y99452D01*
X341064Y99478D01*
X340995Y99506D01*
X340927Y99539D01*
X340861Y99575D01*
X340796Y99614D01*
X340734Y99657D01*
X340674Y99703D01*
X340617Y99752D01*
X340562Y99803D01*
X340511Y99858D01*
X340462Y99915D01*
X340416Y99975D01*
X340373Y100037D01*
X340334Y100102D01*
X340298Y100168D01*
X340265Y100236D01*
X340237Y100305D01*
X340211Y100376D01*
X340190Y100449D01*
X340172Y100522D01*
X340159Y100596D01*
X340149Y100671D01*
X340143Y100746D01*
X340141Y100821D01*
X340141Y103220D01*
X340143Y103306D01*
X340149Y103392D01*
X340158Y103478D01*
X340172Y103563D01*
X340189Y103647D01*
X340210Y103731D01*
X340235Y103813D01*
X340263Y103894D01*
X340295Y103974D01*
X340331Y104053D01*
X340370Y104129D01*
X340413Y104204D01*
X340458Y104277D01*
X340507Y104348D01*
X340560Y104416D01*
X340615Y104483D01*
X340673Y104546D01*
X340734Y104607D01*
X340797Y104665D01*
X340864Y104720D01*
X340932Y104773D01*
X341003Y104822D01*
X341076Y104867D01*
X341151Y104910D01*
X341227Y104949D01*
X341306Y104985D01*
X341386Y105017D01*
X341467Y105045D01*
X341549Y105070D01*
X341633Y105091D01*
X341717Y105108D01*
X341802Y105122D01*
X341888Y105131D01*
X341974Y105137D01*
X342060Y105139D01*
X342146Y105137D01*
X342232Y105131D01*
X342318Y105122D01*
X342403Y105108D01*
X342487Y105091D01*
X342571Y105070D01*
X342653Y105045D01*
X342734Y105017D01*
X342814Y104985D01*
X342893Y104949D01*
X342969Y104910D01*
X343044Y104867D01*
X343117Y104822D01*
X343188Y104773D01*
X343256Y104720D01*
X343323Y104665D01*
X343386Y104607D01*
X343447Y104546D01*
X343505Y104483D01*
X343560Y104416D01*
X343613Y104348D01*
X343662Y104277D01*
X343707Y104204D01*
X343750Y104129D01*
X343789Y104053D01*
X343825Y103974D01*
X343857Y103894D01*
X343885Y103813D01*
X343910Y103731D01*
X343931Y103647D01*
X343948Y103563D01*
X343962Y103478D01*
X343971Y103392D01*
X343977Y103306D01*
X343979Y103220D01*
X343979Y102261D01*
X340141Y102261D01*
X348695Y104180D02*
X351094Y104180D01*
X351191Y104178D01*
X351287Y104172D01*
X351383Y104163D01*
X351479Y104149D01*
X351574Y104132D01*
X351668Y104110D01*
X351761Y104085D01*
X351854Y104057D01*
X351945Y104024D01*
X352034Y103988D01*
X352122Y103948D01*
X352209Y103905D01*
X352294Y103859D01*
X352376Y103809D01*
X352457Y103755D01*
X352535Y103699D01*
X352611Y103639D01*
X352685Y103577D01*
X352756Y103511D01*
X352824Y103443D01*
X352890Y103372D01*
X352952Y103298D01*
X353012Y103222D01*
X353068Y103144D01*
X353122Y103063D01*
X353172Y102980D01*
X353218Y102896D01*
X353261Y102809D01*
X353301Y102721D01*
X353337Y102632D01*
X353370Y102541D01*
X353398Y102448D01*
X353423Y102355D01*
X353445Y102261D01*
X353462Y102166D01*
X353476Y102070D01*
X353485Y101974D01*
X353491Y101878D01*
X353493Y101781D01*
X353491Y101684D01*
X353485Y101588D01*
X353476Y101492D01*
X353462Y101396D01*
X353445Y101301D01*
X353423Y101207D01*
X353398Y101114D01*
X353370Y101021D01*
X353337Y100930D01*
X353301Y100841D01*
X353261Y100753D01*
X353218Y100666D01*
X353172Y100581D01*
X353122Y100499D01*
X353068Y100418D01*
X353012Y100340D01*
X352952Y100264D01*
X352890Y100190D01*
X352824Y100119D01*
X352756Y100051D01*
X352685Y99985D01*
X352611Y99923D01*
X352535Y99863D01*
X352457Y99807D01*
X352376Y99753D01*
X352294Y99703D01*
X352209Y99657D01*
X352122Y99614D01*
X352034Y99574D01*
X351945Y99538D01*
X351854Y99505D01*
X351761Y99477D01*
X351668Y99452D01*
X351574Y99430D01*
X351479Y99413D01*
X351383Y99399D01*
X351287Y99390D01*
X351191Y99384D01*
X351094Y99382D01*
X348695Y99382D01*
X348695Y108018D01*
X351094Y108018D01*
X351180Y108016D01*
X351266Y108010D01*
X351352Y108001D01*
X351437Y107987D01*
X351521Y107970D01*
X351605Y107949D01*
X351687Y107924D01*
X351768Y107896D01*
X351848Y107864D01*
X351927Y107828D01*
X352003Y107789D01*
X352078Y107746D01*
X352151Y107701D01*
X352222Y107652D01*
X352290Y107599D01*
X352357Y107544D01*
X352420Y107486D01*
X352481Y107425D01*
X352539Y107362D01*
X352594Y107295D01*
X352647Y107227D01*
X352696Y107156D01*
X352741Y107083D01*
X352784Y107008D01*
X352823Y106932D01*
X352859Y106853D01*
X352891Y106773D01*
X352919Y106692D01*
X352944Y106610D01*
X352965Y106526D01*
X352982Y106442D01*
X352996Y106357D01*
X353005Y106271D01*
X353011Y106185D01*
X353013Y106099D01*
X353011Y106013D01*
X353005Y105927D01*
X352996Y105841D01*
X352982Y105756D01*
X352965Y105672D01*
X352944Y105588D01*
X352919Y105506D01*
X352891Y105425D01*
X352859Y105345D01*
X352823Y105266D01*
X352784Y105190D01*
X352741Y105115D01*
X352696Y105042D01*
X352647Y104971D01*
X352594Y104903D01*
X352539Y104836D01*
X352481Y104773D01*
X352420Y104712D01*
X352357Y104654D01*
X352290Y104599D01*
X352222Y104546D01*
X352151Y104497D01*
X352078Y104452D01*
X352003Y104409D01*
X351927Y104370D01*
X351848Y104334D01*
X351768Y104302D01*
X351687Y104274D01*
X351605Y104249D01*
X351521Y104228D01*
X351437Y104211D01*
X351352Y104197D01*
X351266Y104188D01*
X351180Y104182D01*
X351094Y104180D01*
X357248Y100821D02*
X357248Y108018D01*
X357249Y100821D02*
X357251Y100746D01*
X357257Y100671D01*
X357267Y100596D01*
X357280Y100522D01*
X357298Y100449D01*
X357319Y100376D01*
X357345Y100305D01*
X357373Y100236D01*
X357406Y100168D01*
X357442Y100102D01*
X357481Y100037D01*
X357524Y99975D01*
X357570Y99915D01*
X357619Y99858D01*
X357670Y99803D01*
X357725Y99752D01*
X357782Y99703D01*
X357842Y99657D01*
X357904Y99614D01*
X357969Y99575D01*
X358035Y99539D01*
X358103Y99506D01*
X358172Y99478D01*
X358243Y99452D01*
X358316Y99431D01*
X358389Y99413D01*
X358463Y99400D01*
X358538Y99390D01*
X358613Y99384D01*
X358688Y99382D01*
X362391Y100821D02*
X362391Y105139D01*
X362392Y100821D02*
X362394Y100746D01*
X362400Y100671D01*
X362410Y100596D01*
X362423Y100522D01*
X362441Y100449D01*
X362462Y100376D01*
X362488Y100305D01*
X362516Y100236D01*
X362549Y100168D01*
X362585Y100102D01*
X362624Y100037D01*
X362667Y99975D01*
X362713Y99915D01*
X362762Y99858D01*
X362813Y99803D01*
X362868Y99752D01*
X362925Y99703D01*
X362985Y99657D01*
X363047Y99614D01*
X363112Y99575D01*
X363178Y99539D01*
X363246Y99506D01*
X363315Y99478D01*
X363386Y99452D01*
X363459Y99431D01*
X363532Y99413D01*
X363606Y99400D01*
X363681Y99390D01*
X363756Y99384D01*
X363831Y99382D01*
X366229Y99382D01*
X366229Y105139D01*
X371002Y105139D02*
X371002Y99382D01*
X371002Y105139D02*
X373881Y105139D01*
X373881Y104180D01*
D13*
X72500Y78500D02*
X57500Y78500D01*
X57500Y109500D02*
X72500Y109500D01*
X72500Y36500D02*
X57500Y36500D01*
X57500Y67500D02*
X72500Y67500D01*
X72500Y-5500D02*
X57500Y-5500D01*
X57500Y25500D02*
X72500Y25500D01*
X72500Y-16500D02*
X57500Y-16500D01*
X57500Y-47500D02*
X72500Y-47500D01*
M02*
