G04 EAGLE Gerber X2 export*
%TF.Part,Single*%
%TF.FileFunction,Other,padmask top*%
%TF.FilePolarity,Positive*%
%TF.GenerationSoftware,Autodesk,EAGLE,9.6.2*%
%TF.CreationDate,2022-04-17T12:17:04Z*%
G75*
%MOMM*%
%FSLAX34Y34*%
%LPD*%
%INpadmask top*%
%AMOC8*
5,1,8,0,0,1.08239X$1,22.5*%
G01*
%ADD10R,0.900000X0.500000*%
%ADD11R,1.350000X0.450000*%


D10*
X57000Y106000D03*
X57000Y98000D03*
X57000Y90000D03*
X57000Y82000D03*
X73000Y82000D03*
X73000Y90000D03*
X73000Y98000D03*
X73000Y106000D03*
X57000Y64000D03*
X57000Y56000D03*
X57000Y48000D03*
X57000Y40000D03*
X73000Y40000D03*
X73000Y48000D03*
X73000Y56000D03*
X73000Y64000D03*
X57000Y22000D03*
X57000Y14000D03*
X57000Y6000D03*
X57000Y-2000D03*
X73000Y-2000D03*
X73000Y6000D03*
X73000Y14000D03*
X73000Y22000D03*
D11*
X6500Y0D03*
X6500Y6500D03*
X6500Y19500D03*
X6500Y26000D03*
X6500Y32500D03*
X6500Y45500D03*
X6500Y52000D03*
X6500Y58500D03*
X6500Y65000D03*
X6500Y78000D03*
X6500Y84500D03*
X6500Y91000D03*
X6500Y-6500D03*
X6500Y-19500D03*
X6500Y-26000D03*
X6500Y-32500D03*
D10*
X73000Y-44000D03*
X73000Y-36000D03*
X73000Y-28000D03*
X73000Y-20000D03*
X57000Y-20000D03*
X57000Y-28000D03*
X57000Y-36000D03*
X57000Y-44000D03*
D11*
X6500Y110500D03*
M02*
