M48
;GenerationSoftware,Autodesk,EAGLE,9.6.2*%
;CreationDate,2022-04-17T12:17:04Z*%
FMAT,2
ICI,OFF
METRIC,TZ,000.000
T4C0.300
T3C0.350
T2C0.600
T1C0.800
%
G90
M71
T1
X500Y-7700
X27200Y11800
X17300Y14300
X17400Y-4800
T2
X122800Y7100
X2000Y-7700
X25800Y11800
X22500Y11800
X21000Y11800
X19500Y11800
X121300Y7100
X119800Y7100
X18800Y-4800
X18700Y14300
X22100Y14300
X122000Y9700
X120500Y9700
X23600Y14300
T3
X1950Y7200
X1950Y3950
X1950Y-1250
X4450Y-500
X8350Y-2800
X10000Y1400
X1950Y-1950
X11600Y7250
X50050Y-2850
X15050Y-5850
X15550Y-6350
X9750Y-9150
X9750Y-8450
X6450Y3100
X8950Y-200
X29200Y6950
X28200Y6950
X27200Y6950
X96800Y5550
X1950Y6500
X1950Y3250
X1950Y650
X98100Y5550
X99400Y5550
X12700Y1400
X1950Y11050
X10450Y-2400
X48200Y-2850
X11050Y-1800
X4550Y3100
X1950Y10300
T4
X122750Y-750
X122750Y-2250
X123750Y-2250
X124650Y-2250
X124650Y-3250
X123750Y-3250
X122750Y-3250
X0Y3250
X650Y0
X650Y6500
X23950Y-8350
X23050Y-8350
X650Y3250
X22150Y-8350
X650Y650
X650Y-1950
X650Y1950
X650Y2600
X650Y4550
X650Y5200
X650Y5850
X650Y8450
X650Y7800
X650Y9100
X13000Y-7100
X0Y-1950
X0Y11050
X650Y11050
X0Y6500
X0Y650
X124650Y1250
X123750Y1250
X122750Y1250
X124650Y8550
X47100Y-4800
X0Y0
X0Y1950
X0Y2600
X0Y4550
X0Y5200
X0Y5850
X0Y8450
X0Y7800
X0Y9100
X650Y-650
X0Y-650
X650Y-3250
X0Y-3250
X0Y-2600
X650Y-2600
X49150Y-4200
X124050Y8550
X123250Y8550
X124650Y5550
X123750Y5550
X122750Y5550
X124650Y250
X123750Y250
X122750Y250
X121650Y-750
X120800Y8400
X124650Y-750
X123750Y-750
M30