%TF.GenerationSoftware,KiCad,Pcbnew,(6.0.7)*%
%TF.CreationDate,2023-11-27T18:07:28+01:00*%
%TF.ProjectId,rcp2n64adv2,72637032-6e36-4346-9164-76322e6b6963,v20231105*%
%TF.SameCoordinates,Original*%
%TF.FileFunction,Other,User*%
%FSLAX46Y46*%
G04 Gerber Fmt 4.6, Leading zero omitted, Abs format (unit mm)*
G04 Created by KiCad (PCBNEW (6.0.7)) date 2023-11-27 18:07:28*
%MOMM*%
%LPD*%
G01*
G04 APERTURE LIST*
%ADD10C,0.150000*%
G04 APERTURE END LIST*
D10*
G36*
X96690000Y-107070000D02*
G01*
X110020000Y-107080000D01*
X110020000Y-110900000D01*
X98580000Y-110900000D01*
X96000000Y-109600000D01*
X96030000Y-106380000D01*
X96690000Y-107070000D01*
G37*
X96690000Y-107070000D02*
X110020000Y-107080000D01*
X110020000Y-110900000D01*
X98580000Y-110900000D01*
X96000000Y-109600000D01*
X96030000Y-106380000D01*
X96690000Y-107070000D01*
G36*
X211100000Y-94050000D02*
G01*
X215200000Y-94050000D01*
X215200000Y-109300000D01*
X211050000Y-109300000D01*
X209700000Y-110650000D01*
X207000000Y-110650000D01*
X207000000Y-92700000D01*
X209750000Y-92700000D01*
X211100000Y-94050000D01*
G37*
X211100000Y-94050000D02*
X215200000Y-94050000D01*
X215200000Y-109300000D01*
X211050000Y-109300000D01*
X209700000Y-110650000D01*
X207000000Y-110650000D01*
X207000000Y-92700000D01*
X209750000Y-92700000D01*
X211100000Y-94050000D01*
X145350000Y-94050000D02*
X167800000Y-94050000D01*
X167800000Y-94050000D02*
X167800000Y-109300000D01*
X167800000Y-109300000D02*
X145350000Y-109300000D01*
X145350000Y-109300000D02*
X145350000Y-94050000D01*
G36*
X145350000Y-94050000D02*
G01*
X167800000Y-94050000D01*
X167800000Y-109300000D01*
X145350000Y-109300000D01*
X145350000Y-94050000D01*
G37*
G36*
X96000000Y-109600000D02*
G01*
X90500000Y-109600000D01*
X90500000Y-92250000D01*
X96000000Y-92250000D01*
X96000000Y-109600000D01*
G37*
X96000000Y-109600000D02*
X90500000Y-109600000D01*
X90500000Y-92250000D01*
X96000000Y-92250000D01*
X96000000Y-109600000D01*
M02*
