%TF.GenerationSoftware,KiCad,Pcbnew,(6.0.7)*%
%TF.CreationDate,2023-11-27T18:07:28+01:00*%
%TF.ProjectId,rcp2n64adv2,72637032-6e36-4346-9164-76322e6b6963,v20231105*%
%TF.SameCoordinates,Original*%
%TF.FileFunction,Paste,Top*%
%TF.FilePolarity,Positive*%
%FSLAX46Y46*%
G04 Gerber Fmt 4.6, Leading zero omitted, Abs format (unit mm)*
G04 Created by KiCad (PCBNEW (6.0.7)) date 2023-11-27 18:07:28*
%MOMM*%
%LPD*%
G01*
G04 APERTURE LIST*
G04 Aperture macros list*
%AMRoundRect*
0 Rectangle with rounded corners*
0 $1 Rounding radius*
0 $2 $3 $4 $5 $6 $7 $8 $9 X,Y pos of 4 corners*
0 Add a 4 corners polygon primitive as box body*
4,1,4,$2,$3,$4,$5,$6,$7,$8,$9,$2,$3,0*
0 Add four circle primitives for the rounded corners*
1,1,$1+$1,$2,$3*
1,1,$1+$1,$4,$5*
1,1,$1+$1,$6,$7*
1,1,$1+$1,$8,$9*
0 Add four rect primitives between the rounded corners*
20,1,$1+$1,$2,$3,$4,$5,0*
20,1,$1+$1,$4,$5,$6,$7,0*
20,1,$1+$1,$6,$7,$8,$9,0*
20,1,$1+$1,$8,$9,$2,$3,0*%
G04 Aperture macros list end*
%ADD10RoundRect,0.237500X0.300000X0.237500X-0.300000X0.237500X-0.300000X-0.237500X0.300000X-0.237500X0*%
%ADD11R,0.800000X0.500000*%
%ADD12R,0.800000X0.400000*%
%ADD13RoundRect,0.237500X-0.250000X-0.237500X0.250000X-0.237500X0.250000X0.237500X-0.250000X0.237500X0*%
%ADD14R,0.510000X0.700000*%
G04 APERTURE END LIST*
D10*
%TO.C,C1*%
X100062500Y-109350000D03*
X98337500Y-109350000D03*
%TD*%
D11*
%TO.C,RN4*%
X92160000Y-106370000D03*
D12*
X92160000Y-107170000D03*
X92160000Y-107970000D03*
D11*
X92160000Y-108770000D03*
X93960000Y-108770000D03*
D12*
X93960000Y-107970000D03*
X93960000Y-107170000D03*
D11*
X93960000Y-106370000D03*
%TD*%
%TO.C,RN3*%
X92160000Y-102350000D03*
D12*
X92160000Y-103150000D03*
X92160000Y-103950000D03*
D11*
X92160000Y-104750000D03*
X93960000Y-104750000D03*
D12*
X93960000Y-103950000D03*
X93960000Y-103150000D03*
D11*
X93960000Y-102350000D03*
%TD*%
D13*
%TO.C,R2*%
X107257500Y-110000000D03*
X109082500Y-110000000D03*
%TD*%
D11*
%TO.C,RN2*%
X92160000Y-98420000D03*
D12*
X92160000Y-99220000D03*
X92160000Y-100020000D03*
D11*
X92160000Y-100820000D03*
X93960000Y-100820000D03*
D12*
X93960000Y-100020000D03*
X93960000Y-99220000D03*
D11*
X93960000Y-98420000D03*
%TD*%
D13*
%TO.C,R1*%
X107257500Y-108000000D03*
X109082500Y-108000000D03*
%TD*%
D11*
%TO.C,RN1*%
X92160000Y-94350000D03*
D12*
X92160000Y-95150000D03*
X92160000Y-95950000D03*
D11*
X92160000Y-96750000D03*
X93960000Y-96750000D03*
D12*
X93960000Y-95950000D03*
X93960000Y-95150000D03*
D11*
X93960000Y-94350000D03*
%TD*%
D14*
%TO.C,U1*%
X102200000Y-110170000D03*
X103150000Y-110170000D03*
X104100000Y-110170000D03*
X104100000Y-107850000D03*
X102200000Y-107850000D03*
%TD*%
M02*
