%TF.GenerationSoftware,KiCad,Pcbnew,(6.0.4)*%
%TF.CreationDate,2022-07-22T09:07:41+02:00*%
%TF.ProjectId,rcp2n64adv2,72637032-6e36-4346-9164-76322e6b6963,rev?*%
%TF.SameCoordinates,Original*%
%TF.FileFunction,Copper,L1,Top*%
%TF.FilePolarity,Positive*%
%FSLAX46Y46*%
G04 Gerber Fmt 4.6, Leading zero omitted, Abs format (unit mm)*
G04 Created by KiCad (PCBNEW (6.0.4)) date 2022-07-22 09:07:41*
%MOMM*%
%LPD*%
G01*
G04 APERTURE LIST*
%TA.AperFunction,SMDPad,CuDef*%
%ADD10C,1.500000*%
%TD*%
%TA.AperFunction,SMDPad,CuDef*%
%ADD11R,0.800000X0.500000*%
%TD*%
%TA.AperFunction,SMDPad,CuDef*%
%ADD12R,0.800000X0.400000*%
%TD*%
%TA.AperFunction,ComponentPad*%
%ADD13C,0.450000*%
%TD*%
%TA.AperFunction,SMDPad,CuDef*%
%ADD14R,1.350000X0.450000*%
%TD*%
%TA.AperFunction,ComponentPad*%
%ADD15C,1.200000*%
%TD*%
%TA.AperFunction,SMDPad,CuDef*%
%ADD16R,2.540000X1.270000*%
%TD*%
%TA.AperFunction,SMDPad,CuDef*%
%ADD17R,3.500000X0.300000*%
%TD*%
%TA.AperFunction,ComponentPad*%
%ADD18C,0.635000*%
%TD*%
%TA.AperFunction,SMDPad,CuDef*%
%ADD19R,1.270000X0.635000*%
%TD*%
%TA.AperFunction,ViaPad*%
%ADD20C,0.650000*%
%TD*%
%TA.AperFunction,ViaPad*%
%ADD21C,0.900000*%
%TD*%
%TA.AperFunction,ViaPad*%
%ADD22C,0.600000*%
%TD*%
%TA.AperFunction,ViaPad*%
%ADD23C,0.400000*%
%TD*%
%TA.AperFunction,ViaPad*%
%ADD24C,0.550000*%
%TD*%
%TA.AperFunction,Conductor*%
%ADD25C,0.800000*%
%TD*%
%TA.AperFunction,Conductor*%
%ADD26C,0.500000*%
%TD*%
%TA.AperFunction,Conductor*%
%ADD27C,0.400000*%
%TD*%
%TA.AperFunction,Conductor*%
%ADD28C,0.250000*%
%TD*%
%TA.AperFunction,Conductor*%
%ADD29C,0.200000*%
%TD*%
%TA.AperFunction,Conductor*%
%ADD30C,0.300000*%
%TD*%
%TA.AperFunction,Conductor*%
%ADD31C,1.000000*%
%TD*%
G04 APERTURE END LIST*
D10*
%TO.P,J3.1,1,Pin_1*%
%TO.N,GND*%
X117650000Y-93950000D03*
%TD*%
D11*
%TO.P,RN4,1,R1.1*%
%TO.N,Net-(RN4-Pad1)*%
X92160000Y-106370000D03*
D12*
%TO.P,RN4,2,R2.1*%
%TO.N,GND*%
X92160000Y-107170000D03*
%TO.P,RN4,3,R3.1*%
%TO.N,Net-(RN4-Pad3)*%
X92160000Y-107970000D03*
D11*
%TO.P,RN4,4,R4.1*%
%TO.N,Net-(RN4-Pad4)*%
X92160000Y-108770000D03*
%TO.P,RN4,5,R4.2*%
%TO.N,Net-(J6-Pad27)*%
X93960000Y-108770000D03*
D12*
%TO.P,RN4,6,R3.2*%
%TO.N,Net-(J6-Pad25)*%
X93960000Y-107970000D03*
%TO.P,RN4,7,R2.2*%
%TO.N,GND*%
X93960000Y-107170000D03*
D11*
%TO.P,RN4,8,R1.2*%
%TO.N,Net-(J6-Pad24)*%
X93960000Y-106370000D03*
%TD*%
%TO.P,RN3,1,R1.1*%
%TO.N,Net-(RN3-Pad1)*%
X92160000Y-102350000D03*
D12*
%TO.P,RN3,2,R2.1*%
%TO.N,GND*%
X92160000Y-103150000D03*
%TO.P,RN3,3,R3.1*%
%TO.N,Net-(RN3-Pad3)*%
X92160000Y-103950000D03*
D11*
%TO.P,RN3,4,R4.1*%
%TO.N,GND*%
X92160000Y-104750000D03*
%TO.P,RN3,5,R4.2*%
X93960000Y-104750000D03*
D12*
%TO.P,RN3,6,R3.2*%
%TO.N,Net-(J6-Pad22)*%
X93960000Y-103950000D03*
%TO.P,RN3,7,R2.2*%
%TO.N,GND*%
X93960000Y-103150000D03*
D11*
%TO.P,RN3,8,R1.2*%
%TO.N,Net-(J6-Pad20)*%
X93960000Y-102350000D03*
%TD*%
%TO.P,RN2,1,R1.1*%
%TO.N,Net-(RN2-Pad1)*%
X92160000Y-98420000D03*
D12*
%TO.P,RN2,2,R2.1*%
%TO.N,Net-(RN2-Pad2)*%
X92160000Y-99220000D03*
%TO.P,RN2,3,R3.1*%
%TO.N,Net-(RN2-Pad3)*%
X92160000Y-100020000D03*
D11*
%TO.P,RN2,4,R4.1*%
%TO.N,Net-(RN2-Pad4)*%
X92160000Y-100820000D03*
%TO.P,RN2,5,R4.2*%
%TO.N,Net-(J6-Pad18)*%
X93960000Y-100820000D03*
D12*
%TO.P,RN2,6,R3.2*%
%TO.N,Net-(J6-Pad17)*%
X93960000Y-100020000D03*
%TO.P,RN2,7,R2.2*%
%TO.N,Net-(J6-Pad16)*%
X93960000Y-99220000D03*
D11*
%TO.P,RN2,8,R1.2*%
%TO.N,Net-(J6-Pad15)*%
X93960000Y-98420000D03*
%TD*%
D13*
%TO.P,X2,1,Pin_1*%
%TO.N,+3V3*%
X86435000Y-105980000D03*
D14*
X86435000Y-105980000D03*
D13*
X85760000Y-105980000D03*
%TD*%
D15*
%TO.P,J1,1,Pin_1*%
%TO.N,+5V*%
X104307500Y-90365000D03*
X103037500Y-90365000D03*
D16*
X103712500Y-90365000D03*
%TD*%
D10*
%TO.P,J3,1,Pin_1*%
%TO.N,Net-(J3-Pad1)*%
X112300000Y-95950000D03*
%TD*%
D17*
%TO.P,J6,30,Pin_30*%
%TO.N,Net-(J6-Pad30)*%
X213405000Y-108920000D03*
%TO.P,J6,29,Pin_29*%
%TO.N,Net-(J6-Pad29)*%
X213405000Y-108420000D03*
%TO.P,J6,28,Pin_28*%
%TO.N,GND*%
X213405000Y-107920000D03*
%TO.P,J6,27,Pin_27*%
%TO.N,Net-(J6-Pad27)*%
X213405000Y-107420000D03*
%TO.P,J6,26,Pin_26*%
%TO.N,GND*%
X213405000Y-106920000D03*
%TO.P,J6,25,Pin_25*%
%TO.N,Net-(J6-Pad25)*%
X213405000Y-106420000D03*
%TO.P,J6,24,Pin_24*%
%TO.N,Net-(J6-Pad24)*%
X213405000Y-105920000D03*
%TO.P,J6,23,Pin_23*%
%TO.N,Net-(J3-Pad1)*%
X213405000Y-105420000D03*
%TO.P,J6,22,Pin_22*%
%TO.N,Net-(J6-Pad22)*%
X213405000Y-104920000D03*
%TO.P,J6,21,Pin_21*%
%TO.N,GND*%
X213405000Y-104420000D03*
%TO.P,J6,20,Pin_20*%
%TO.N,Net-(J6-Pad20)*%
X213405000Y-103920000D03*
%TO.P,J6,19,Pin_19*%
%TO.N,GND*%
X213405000Y-103420000D03*
%TO.P,J6,18,Pin_18*%
%TO.N,Net-(J6-Pad18)*%
X213405000Y-102920000D03*
%TO.P,J6,17,Pin_17*%
%TO.N,Net-(J6-Pad17)*%
X213405000Y-102420000D03*
%TO.P,J6,16,Pin_16*%
%TO.N,Net-(J6-Pad16)*%
X213405000Y-101920000D03*
%TO.P,J6,15,Pin_15*%
%TO.N,Net-(J6-Pad15)*%
X213405000Y-101420000D03*
%TO.P,J6,14,Pin_14*%
%TO.N,Net-(J6-Pad14)*%
X213405000Y-100920000D03*
%TO.P,J6,13,Pin_13*%
%TO.N,Net-(J6-Pad13)*%
X213405000Y-100420000D03*
%TO.P,J6,12,Pin_12*%
%TO.N,Net-(J6-Pad12)*%
X213405000Y-99920000D03*
%TO.P,J6,11,Pin_11*%
%TO.N,GND*%
X213405000Y-99420000D03*
%TO.P,J6,10,Pin_10*%
X213405000Y-98920000D03*
%TO.P,J6,9,Pin_9*%
%TO.N,+3V3*%
X213405000Y-98420000D03*
%TO.P,J6,8,Pin_8*%
X213405000Y-97920000D03*
%TO.P,J6,7,Pin_7*%
X213405000Y-97420000D03*
%TO.P,J6,6,Pin_6*%
X213405000Y-96920000D03*
%TO.P,J6,5,Pin_5*%
%TO.N,GND*%
X213405000Y-96420000D03*
%TO.P,J6,4,Pin_4*%
X213405000Y-95920000D03*
%TO.P,J6,3,Pin_3*%
%TO.N,+5V*%
X213405000Y-95420000D03*
%TO.P,J6,2,Pin_2*%
X213405000Y-94920000D03*
%TO.P,J6,1,Pin_1*%
X213405000Y-94420000D03*
%TD*%
D11*
%TO.P,RN1,1,R1.1*%
%TO.N,GND*%
X92160000Y-94350000D03*
D12*
%TO.P,RN1,2,R2.1*%
%TO.N,Net-(RN1-Pad2)*%
X92160000Y-95150000D03*
%TO.P,RN1,3,R3.1*%
%TO.N,Net-(RN1-Pad3)*%
X92160000Y-95950000D03*
D11*
%TO.P,RN1,4,R4.1*%
%TO.N,Net-(RN1-Pad4)*%
X92160000Y-96750000D03*
%TO.P,RN1,5,R4.2*%
%TO.N,Net-(J6-Pad14)*%
X93960000Y-96750000D03*
D12*
%TO.P,RN1,6,R3.2*%
%TO.N,Net-(J6-Pad13)*%
X93960000Y-95950000D03*
%TO.P,RN1,7,R2.2*%
%TO.N,Net-(J6-Pad12)*%
X93960000Y-95150000D03*
D11*
%TO.P,RN1,8,R1.2*%
%TO.N,GND*%
X93960000Y-94350000D03*
%TD*%
D15*
%TO.P,J2,1,Pin_1*%
%TO.N,+3V3*%
X112925000Y-92870000D03*
X111655000Y-92870000D03*
D16*
X112250000Y-92870000D03*
%TD*%
D13*
%TO.P,X1,6,SCLK*%
%TO.N,Net-(RN4-Pad4)*%
X86430000Y-107930000D03*
X85755000Y-107930000D03*
D14*
X86430000Y-107930000D03*
D13*
%TO.P,X1,7,SDATA*%
%TO.N,Net-(RN4-Pad3)*%
X86430000Y-107280000D03*
X85755000Y-107280000D03*
D14*
X86430000Y-107280000D03*
D13*
%TO.P,X1,8,GND*%
%TO.N,GND*%
X86430000Y-106630000D03*
X85755000Y-106630000D03*
D14*
X86430000Y-106630000D03*
D13*
%TO.P,X1,10,LRCLK*%
%TO.N,Net-(RN4-Pad1)*%
X86430000Y-105330000D03*
X85755000Y-105330000D03*
D14*
X86430000Y-105330000D03*
D13*
%TO.P,X1,11,VCLK*%
%TO.N,Net-(RN3-Pad3)*%
X85755000Y-104680000D03*
X86430000Y-104680000D03*
D14*
X86430000Y-104680000D03*
D13*
%TO.P,X1,12,GND*%
%TO.N,GND*%
X86430000Y-104030000D03*
X85755000Y-104030000D03*
D14*
X86430000Y-104030000D03*
D13*
%TO.P,X1,14,nDSYNC*%
%TO.N,Net-(RN3-Pad1)*%
X86430000Y-102730000D03*
D14*
X86430000Y-102730000D03*
D13*
X85755000Y-102730000D03*
%TO.P,X1,15,D6*%
%TO.N,Net-(RN2-Pad4)*%
X85755000Y-102080000D03*
X86430000Y-102080000D03*
D14*
X86430000Y-102080000D03*
%TO.P,X1,16,GND*%
%TO.N,GND*%
X86430000Y-101430000D03*
D13*
X85755000Y-101430000D03*
X86430000Y-101430000D03*
%TO.P,X1,18,D5*%
%TO.N,Net-(RN2-Pad3)*%
X86430000Y-100130000D03*
X85755000Y-100130000D03*
D14*
X86430000Y-100130000D03*
D13*
%TO.P,X1,19,D4*%
%TO.N,Net-(RN2-Pad2)*%
X85755000Y-99480000D03*
D14*
X86430000Y-99480000D03*
D13*
X86430000Y-99480000D03*
%TO.P,X1,20,D3*%
%TO.N,Net-(RN2-Pad1)*%
X86430000Y-98830000D03*
X85755000Y-98830000D03*
D14*
X86430000Y-98830000D03*
D13*
%TO.P,X1,21,GND*%
%TO.N,GND*%
X86430000Y-98180000D03*
X85755000Y-98180000D03*
D14*
X86430000Y-98180000D03*
D13*
%TO.P,X1,23,D2*%
%TO.N,Net-(RN1-Pad4)*%
X86430000Y-96880000D03*
D14*
X86430000Y-96880000D03*
D13*
X85755000Y-96880000D03*
D14*
%TO.P,X1,24,D1*%
%TO.N,Net-(RN1-Pad3)*%
X86430000Y-96230000D03*
D13*
X85755000Y-96230000D03*
X86430000Y-96230000D03*
%TO.P,X1,25,D0*%
%TO.N,Net-(RN1-Pad2)*%
X86430000Y-95580000D03*
X85755000Y-95580000D03*
D14*
X86430000Y-95580000D03*
%TO.P,X1,28,GND*%
%TO.N,GND*%
X86430000Y-93630000D03*
D13*
X85755000Y-93630000D03*
X86430000Y-93630000D03*
%TD*%
D18*
%TO.P,J5,1,Pin_1*%
%TO.N,Net-(J5-Pad1)*%
X104787500Y-109490000D03*
D19*
X104257500Y-109490000D03*
D18*
X104092500Y-109490000D03*
%TD*%
%TO.P,J4,1,Pin_1*%
%TO.N,Net-(J4-Pad1)*%
X86927500Y-112370000D03*
X86232500Y-112370000D03*
D19*
X86397500Y-112370000D03*
%TD*%
D20*
%TO.N,GND*%
X116750000Y-92150000D03*
D21*
%TO.N,+3V3*%
X206750000Y-97680000D03*
X108570000Y-92870000D03*
X105810000Y-92870000D03*
X208100000Y-97680000D03*
X205440000Y-97680000D03*
X107220000Y-92870000D03*
D20*
%TO.N,GND*%
X91350000Y-94350000D03*
X91113553Y-107170000D03*
D22*
X106000000Y-114010000D03*
D23*
X207780000Y-106920000D03*
X206700000Y-103420000D03*
X136030000Y-106920000D03*
X209080000Y-107920000D03*
X102780000Y-103420000D03*
X209080000Y-103420000D03*
X207800000Y-104420000D03*
X209080000Y-104420000D03*
X103880000Y-103420000D03*
D20*
X134950000Y-108300000D03*
X96750000Y-103150000D03*
D23*
X206680000Y-106920000D03*
D20*
X95260000Y-104750000D03*
X97420000Y-104630000D03*
D22*
X94500000Y-113000000D03*
D23*
X207800000Y-103420000D03*
X122020000Y-96600000D03*
X102780000Y-104420000D03*
D20*
X88950000Y-97800000D03*
D23*
X206700000Y-104420000D03*
D22*
X101170000Y-113040000D03*
D23*
X137080000Y-106920000D03*
D20*
X102060000Y-98950000D03*
D23*
X207780000Y-107920000D03*
D20*
X99080000Y-107050000D03*
X95220000Y-107160000D03*
D23*
X206680000Y-107920000D03*
X207800000Y-96600000D03*
D20*
X119800000Y-94850000D03*
X90940000Y-104750000D03*
D23*
X134730000Y-106430000D03*
X138030000Y-106920000D03*
X120780000Y-96610000D03*
D20*
X95290000Y-103150000D03*
X90610000Y-103150000D03*
X88780000Y-101030000D03*
X120950000Y-95200000D03*
D23*
X103880000Y-104420000D03*
D20*
X88350000Y-93630000D03*
D23*
X101680000Y-103420000D03*
X100900000Y-98600000D03*
X101680000Y-104420000D03*
X206700000Y-99420000D03*
X207800000Y-99420000D03*
X209030000Y-106920000D03*
X206700000Y-96600000D03*
X209080000Y-99420000D03*
D21*
%TO.N,+5V*%
X109960000Y-90370000D03*
X206820000Y-95170000D03*
X106880000Y-90370000D03*
X108380000Y-90370000D03*
X208160000Y-95170000D03*
X205540000Y-95170000D03*
D24*
%TO.N,Net-(J4-Pad1)*%
X98930000Y-112370000D03*
D23*
%TO.N,Net-(J3-Pad1)*%
X209330000Y-105420000D03*
X208400000Y-96050000D03*
%TO.N,Net-(J6-Pad29)*%
X105030000Y-113300000D03*
%TO.N,Net-(J6-Pad30)*%
X129180000Y-110770000D03*
%TD*%
D25*
%TO.N,GND*%
X119800007Y-94849993D02*
G75*
G03*
X120644974Y-95200000I844993J844993D01*
G01*
X120950000Y-95200000D02*
X120644974Y-95200000D01*
D26*
X117650000Y-93950000D02*
X117650000Y-93326454D01*
X117650038Y-93326454D02*
G75*
G03*
X117454518Y-92854518I-667438J-46D01*
G01*
X116750000Y-92150000D02*
X117454518Y-92854518D01*
D27*
X119783884Y-94833883D02*
X119314271Y-94364278D01*
X117650000Y-93950000D02*
X118314105Y-93950000D01*
D28*
X119783884Y-94833883D02*
X119800000Y-94850000D01*
D27*
X119314277Y-94364272D02*
G75*
G03*
X118314105Y-93950000I-1000177J-1000228D01*
G01*
D29*
%TO.N,Net-(J3-Pad1)*%
X112400000Y-96050000D02*
X112300000Y-95950000D01*
X208400000Y-96050000D02*
X112400000Y-96050000D01*
D25*
%TO.N,+3V3*%
X108570000Y-92870000D02*
X107220000Y-92870000D01*
X205760000Y-97680000D02*
X206750000Y-97680000D01*
X97260000Y-93939411D02*
X97260000Y-94226741D01*
D30*
X208850589Y-97680000D02*
X208100000Y-97680000D01*
X213405000Y-97420000D02*
X209380000Y-97420000D01*
X86435000Y-105980000D02*
X87750000Y-105980000D01*
D31*
X205440000Y-97680000D02*
X208100000Y-97680000D01*
D30*
X209430000Y-97920000D02*
X208679411Y-97920000D01*
D25*
X207110000Y-97680000D02*
X208100000Y-97680000D01*
X103810386Y-97680000D02*
X205440000Y-97680000D01*
D31*
X105810000Y-92870000D02*
X108570000Y-92870000D01*
D25*
X111655000Y-92870000D02*
X108570000Y-92870000D01*
X206750000Y-97680000D02*
X207110000Y-97680000D01*
X107220000Y-92870000D02*
X105810000Y-92870000D01*
D30*
X213405000Y-96920000D02*
X209934802Y-96920000D01*
D25*
X205440000Y-97680000D02*
X205760000Y-97680000D01*
D30*
X213405000Y-97920000D02*
X209430000Y-97920000D01*
D25*
X105810000Y-92870000D02*
X98682964Y-92870000D01*
D30*
X213405000Y-98420000D02*
X209886518Y-98420000D01*
X209380000Y-97420000D02*
X208727695Y-97420000D01*
X208752305Y-97680000D02*
X208100000Y-97680000D01*
X208100001Y-97680001D02*
G75*
G02*
X208727695Y-97420000I627699J-627699D01*
G01*
X208850589Y-97680005D02*
G75*
G02*
X209430000Y-97920000I11J-819395D01*
G01*
X208752305Y-97680001D02*
G75*
G03*
X209379999Y-97419999I-5J887701D01*
G01*
D25*
X103810386Y-97680005D02*
G75*
G02*
X97630000Y-95120000I14J8740405D01*
G01*
D30*
X208099995Y-97680005D02*
G75*
G03*
X209886518Y-98420000I1786505J1786505D01*
G01*
D25*
X97260005Y-93939411D02*
G75*
G02*
X97500000Y-93360000I819395J11D01*
G01*
X97630012Y-95119988D02*
G75*
G02*
X97260000Y-94226741I893288J893288D01*
G01*
D30*
X208099999Y-97679999D02*
G75*
G02*
X209934802Y-96920000I1834801J-1834801D01*
G01*
X208099997Y-97680003D02*
G75*
G03*
X208679411Y-97920000I579403J579403D01*
G01*
D25*
X97500010Y-93360010D02*
G75*
G02*
X98682964Y-92870000I1182990J-1182990D01*
G01*
D30*
%TO.N,GND*%
X104038406Y-114010000D02*
X106000000Y-114010000D01*
X208280000Y-103420000D02*
X207480000Y-103420000D01*
X91113553Y-107170000D02*
X92160000Y-107170000D01*
X206680000Y-107920000D02*
X135867401Y-107920000D01*
D28*
X117650000Y-93950000D02*
X118510000Y-93090000D01*
X117650000Y-93950000D02*
X118530000Y-94830000D01*
X117650000Y-93950000D02*
X116760000Y-94840000D01*
D30*
X102980000Y-113720000D02*
X103270000Y-114010000D01*
X207780000Y-106920000D02*
X209030000Y-106920000D01*
D27*
X209080000Y-107920000D02*
X206680000Y-107920000D01*
D30*
X94500000Y-113000000D02*
X94505489Y-112994511D01*
X137080000Y-106920000D02*
X138030000Y-106920000D01*
X206680000Y-106920000D02*
X206960000Y-106920000D01*
X206700000Y-96600000D02*
X122020000Y-96600000D01*
D27*
X206700000Y-103420000D02*
X209080000Y-103420000D01*
D30*
X101170000Y-113040000D02*
X101696620Y-113040000D01*
X101680000Y-103420000D02*
X97860000Y-103420000D01*
X207007452Y-106920000D02*
X206960000Y-106920000D01*
X102780000Y-103420000D02*
X101680000Y-103420000D01*
X102190000Y-114010000D02*
X103270000Y-114010000D01*
D28*
X208280000Y-99420000D02*
X207480000Y-99420000D01*
X207480000Y-99420000D02*
X104547883Y-99420000D01*
D30*
X213405000Y-104420000D02*
X209080000Y-104420000D01*
X99080000Y-107050000D02*
X99080000Y-107048715D01*
X208552548Y-106920000D02*
X209030000Y-106920000D01*
X134169168Y-106360000D02*
X207200589Y-106360000D01*
X136030000Y-106920000D02*
X137080000Y-106920000D01*
X209080000Y-103420000D02*
X208280000Y-103420000D01*
X209080000Y-104420000D02*
X208280000Y-104420000D01*
X103880000Y-104420000D02*
X102780000Y-104420000D01*
X138030000Y-106920000D02*
X206680000Y-106920000D01*
X95635489Y-112994511D02*
X101124511Y-112994511D01*
X94784511Y-112994511D02*
X95635489Y-112994511D01*
X86430000Y-101430000D02*
X87814315Y-101430000D01*
X94995062Y-113205061D02*
X94784511Y-112994511D01*
X90262253Y-103150000D02*
X90610000Y-103150000D01*
X213405000Y-107920000D02*
X209080000Y-107920000D01*
X213405000Y-96420000D02*
X209073907Y-96420000D01*
D28*
X209080000Y-99420000D02*
X208280000Y-99420000D01*
D30*
X86430000Y-98180000D02*
X88032599Y-98180000D01*
X208280000Y-104420000D02*
X207480000Y-104420000D01*
D28*
X103340777Y-98920000D02*
X104000000Y-98920000D01*
D30*
X86430000Y-104030000D02*
X88137747Y-104030000D01*
X213405000Y-103420000D02*
X209080000Y-103420000D01*
X208896527Y-96493473D02*
X208862205Y-96527795D01*
X94505489Y-112994511D02*
X94784511Y-112994511D01*
X207480000Y-104420000D02*
X103880000Y-104420000D01*
D27*
X138030000Y-106920000D02*
X135912964Y-106920000D01*
D30*
X92160000Y-107170000D02*
X93960000Y-107170000D01*
X209030000Y-106920000D02*
X213405000Y-106920000D01*
X102190000Y-114010000D02*
X102279879Y-114010000D01*
X135521126Y-106920000D02*
X136030000Y-106920000D01*
D27*
X206700000Y-99420000D02*
X209080000Y-99420000D01*
D30*
X86430000Y-93630000D02*
X88350000Y-93630000D01*
D27*
X122020000Y-96600000D02*
X120804142Y-96600000D01*
D30*
X93960000Y-94350000D02*
X94710239Y-94350000D01*
D27*
X101680000Y-103420000D02*
X103880000Y-103420000D01*
X101680000Y-104420000D02*
X103880000Y-104420000D01*
D30*
X91001543Y-94350000D02*
X91350000Y-94350000D01*
X102780000Y-104420000D02*
X101680000Y-104420000D01*
X92160000Y-104750000D02*
X93960000Y-104750000D01*
X213405000Y-95920000D02*
X210281013Y-95920000D01*
X88350000Y-93630000D02*
X89263310Y-93630000D01*
X96938355Y-114010000D02*
X102190000Y-114010000D01*
X92160000Y-94350000D02*
X93960000Y-94350000D01*
X207480000Y-103420000D02*
X103880000Y-103420000D01*
X207780000Y-107920000D02*
X206680000Y-107920000D01*
X102726654Y-113466654D02*
X102980000Y-113720000D01*
X96297440Y-95007440D02*
X97996206Y-96706206D01*
D27*
X206700000Y-96600000D02*
X207800000Y-96600000D01*
D30*
X206960000Y-106920000D02*
X207780000Y-106920000D01*
X103880000Y-103420000D02*
X102780000Y-103420000D01*
X99080000Y-107048715D02*
X99670056Y-106458659D01*
X90610000Y-103150000D02*
X92160000Y-103150000D01*
D27*
X209030000Y-106920000D02*
X206680000Y-106920000D01*
D28*
X117650000Y-93950000D02*
X116790000Y-93090000D01*
D30*
X95635489Y-112994511D02*
X95503374Y-112994511D01*
X91350000Y-94350000D02*
X92160000Y-94350000D01*
X93960000Y-104750000D02*
X95260000Y-104750000D01*
D28*
X213405000Y-99420000D02*
X209080000Y-99420000D01*
D27*
X206700000Y-104420000D02*
X209080000Y-104420000D01*
D30*
X93960000Y-103150000D02*
X95290000Y-103150000D01*
X208687886Y-96600000D02*
X207800000Y-96600000D01*
X209080000Y-103420000D02*
X206748284Y-103420000D01*
X86430000Y-106630000D02*
X89809879Y-106630000D01*
X93960000Y-107170000D02*
X95195858Y-107170000D01*
X92160000Y-104750000D02*
X90940000Y-104750000D01*
X209080000Y-107920000D02*
X207780000Y-107920000D01*
X103270000Y-114010000D02*
X104038406Y-114010000D01*
X101680000Y-104420000D02*
X97926984Y-104420000D01*
X100073553Y-106360000D02*
X134169168Y-106360000D01*
X101124511Y-112994511D02*
X101170000Y-113040000D01*
D28*
X104000000Y-98920000D02*
X213405000Y-98920000D01*
D30*
X97860000Y-103420000D02*
X97401837Y-103420000D01*
X92160000Y-103150000D02*
X93960000Y-103150000D01*
X104038406Y-114009997D02*
G75*
G02*
X103290000Y-113700000I-6J1058397D01*
G01*
X97420004Y-104630004D02*
G75*
G02*
X97926984Y-104420000I506996J-506996D01*
G01*
X207780003Y-106599997D02*
G75*
G03*
X207200589Y-106360000I-579403J-579403D01*
G01*
X90262253Y-103149952D02*
G75*
G03*
X89200000Y-103590000I47J-1502248D01*
G01*
X96297412Y-95007468D02*
G75*
G03*
X94710239Y-94350000I-1587212J-1587132D01*
G01*
X135521126Y-106919988D02*
G75*
G02*
X134990001Y-106699999I-26J751088D01*
G01*
X94995069Y-113205068D02*
G75*
G02*
X95503374Y-112994511I508331J-508332D01*
G01*
X207007452Y-106919979D02*
G75*
G03*
X207779999Y-106599999I48J1092479D01*
G01*
D27*
X134730010Y-106429990D02*
G75*
G03*
X135912964Y-106920000I1182990J1182990D01*
G01*
D30*
X90059997Y-93960003D02*
G75*
G03*
X89263310Y-93630000I-796697J-796697D01*
G01*
X95220012Y-107160012D02*
G75*
G02*
X95195858Y-107170000I-24112J24112D01*
G01*
X134950000Y-108300000D02*
G75*
G02*
X135867401Y-107920000I917400J-917400D01*
G01*
X208896512Y-96493458D02*
G75*
G02*
X210281013Y-95920000I1384488J-1384542D01*
G01*
X103289994Y-113700006D02*
G75*
G03*
X101696620Y-113040000I-1593394J-1593394D01*
G01*
X96749989Y-103150011D02*
G75*
G03*
X97401837Y-103420000I651811J651811D01*
G01*
X208552548Y-106919979D02*
G75*
G02*
X207780001Y-106599999I-48J1092479D01*
G01*
X96938355Y-114010018D02*
G75*
G02*
X94500000Y-113000000I45J3448418D01*
G01*
X102980006Y-113720006D02*
G75*
G02*
X102279879Y-114010000I-700106J700106D01*
G01*
X89199987Y-103589987D02*
G75*
G02*
X88137747Y-104030000I-1062287J1062287D01*
G01*
X206700005Y-103399995D02*
G75*
G03*
X206748284Y-103420000I48295J48295D01*
G01*
X91113553Y-107170019D02*
G75*
G02*
X90510000Y-106920000I47J853619D01*
G01*
X120779988Y-96609988D02*
G75*
G02*
X120804142Y-96600000I24112J-24112D01*
G01*
X88950000Y-97800000D02*
G75*
G02*
X88032599Y-98180000I-917400J917400D01*
G01*
X94995091Y-113205032D02*
G75*
G03*
X96938355Y-114010000I1943309J1943232D01*
G01*
X102726646Y-113466662D02*
G75*
G03*
X101696620Y-113040000I-1030046J-1030038D01*
G01*
X91001543Y-94349982D02*
G75*
G02*
X90060000Y-93960000I-43J1331482D01*
G01*
X208687886Y-96599997D02*
G75*
G03*
X208862205Y-96527795I14J246497D01*
G01*
X208896514Y-96493460D02*
G75*
G02*
X209073907Y-96420000I177386J-177440D01*
G01*
X134990010Y-106699990D02*
G75*
G03*
X134169168Y-106360000I-820810J-820810D01*
G01*
X103340777Y-98920005D02*
G75*
G02*
X97996207Y-96706205I23J7558405D01*
G01*
X100073553Y-106360022D02*
G75*
G03*
X99670056Y-106458660I5247J-896078D01*
G01*
X104547883Y-99420002D02*
G75*
G02*
X97996207Y-96706205I17J9265502D01*
G01*
X88779996Y-101029996D02*
G75*
G02*
X87814315Y-101430000I-965696J965696D01*
G01*
X90510006Y-106919994D02*
G75*
G03*
X89809879Y-106630000I-700106J-700106D01*
G01*
%TO.N,+5V*%
X208763553Y-95420000D02*
X207423553Y-95420000D01*
D25*
X205540000Y-95170000D02*
X124431492Y-95170000D01*
D30*
X213405000Y-95420000D02*
X208763553Y-95420000D01*
D25*
X116630000Y-90370000D02*
X109960000Y-90370000D01*
D30*
X213405000Y-94920000D02*
X209380000Y-94920000D01*
D25*
X106880000Y-90370000D02*
X104319571Y-90370000D01*
X109960000Y-90370000D02*
X108380000Y-90370000D01*
D30*
X213405000Y-94420000D02*
X209970660Y-94420000D01*
D25*
X208160000Y-95170000D02*
X206820000Y-95170000D01*
X121800000Y-94080000D02*
X119122376Y-91402376D01*
D30*
X208776447Y-95170000D02*
X208160000Y-95170000D01*
D25*
X206820000Y-95170000D02*
X205540000Y-95170000D01*
D31*
X205540000Y-95170000D02*
X208160000Y-95170000D01*
D25*
X108380000Y-90370000D02*
X106880000Y-90370000D01*
D30*
X209380000Y-94920000D02*
X208763553Y-94920000D01*
D31*
X106880000Y-90370000D02*
X109960000Y-90370000D01*
D25*
X104307508Y-90364992D02*
G75*
G03*
X104319571Y-90370000I12092J12092D01*
G01*
D30*
X208160014Y-95170014D02*
G75*
G02*
X208763553Y-94920000I603586J-603586D01*
G01*
X206820014Y-95169986D02*
G75*
G03*
X207423553Y-95420000I603586J603586D01*
G01*
X208160014Y-95169986D02*
G75*
G03*
X208763553Y-95420000I603586J603586D01*
G01*
D25*
X121800002Y-94079998D02*
G75*
G03*
X124431492Y-95170000I2631498J2631498D01*
G01*
D30*
X208776447Y-95170019D02*
G75*
G03*
X209380000Y-94920000I-47J853619D01*
G01*
D25*
X116630000Y-90369985D02*
G75*
G02*
X119122376Y-91402376I0J-3524715D01*
G01*
D30*
X208160012Y-95170012D02*
G75*
G02*
X209970660Y-94420000I1810688J-1810688D01*
G01*
D28*
%TO.N,Net-(J3-Pad1)*%
X112300000Y-95950000D02*
X111410000Y-96840000D01*
X112300000Y-95950000D02*
X113200000Y-96850000D01*
X112300000Y-95950000D02*
X111490000Y-95140000D01*
X112300000Y-95950000D02*
X113200000Y-95050000D01*
D29*
%TO.N,Net-(J4-Pad1)*%
X98930000Y-112370000D02*
X86927500Y-112370000D01*
%TO.N,Net-(J5-Pad1)*%
X104787500Y-109490000D02*
X105900000Y-109490000D01*
%TO.N,Net-(J6-Pad12)*%
X93960000Y-95150000D02*
X94519879Y-95150000D01*
X99390000Y-99470000D02*
X95458994Y-95538994D01*
X213405000Y-99920000D02*
X100476396Y-99920000D01*
X94519879Y-95150013D02*
G75*
G02*
X95458993Y-95538995I21J-1328087D01*
G01*
X99390001Y-99469999D02*
G75*
G03*
X100476396Y-99920000I1086399J1086399D01*
G01*
%TO.N,Net-(J6-Pad13)*%
X93960000Y-95950000D02*
X94433961Y-95950000D01*
X213405000Y-100420000D02*
X100040538Y-100420000D01*
X98930000Y-99960000D02*
X95263681Y-96293681D01*
X98929989Y-99960011D02*
G75*
G03*
X100040538Y-100420000I1110511J1110511D01*
G01*
X94433961Y-95950028D02*
G75*
G02*
X95263680Y-96293682I39J-1173372D01*
G01*
%TO.N,Net-(J6-Pad14)*%
X93960000Y-96750000D02*
X94403847Y-96750000D01*
X98520000Y-100440000D02*
X95131335Y-97051335D01*
X213405000Y-100920000D02*
X99678822Y-100920000D01*
X98519993Y-100440007D02*
G75*
G03*
X99678822Y-100920000I1158807J1158807D01*
G01*
X94403847Y-96749960D02*
G75*
G02*
X95131335Y-97051335I-47J-1028840D01*
G01*
%TO.N,Net-(J6-Pad15)*%
X98220000Y-100910000D02*
X96213806Y-98903806D01*
X213405000Y-101420000D02*
X99451248Y-101420000D01*
X93960000Y-98420000D02*
X95045795Y-98420000D01*
X95045795Y-98419999D02*
G75*
G02*
X96213806Y-98903806I5J-1651801D01*
G01*
X98219986Y-100910014D02*
G75*
G03*
X99451248Y-101420000I1231214J1231214D01*
G01*
%TO.N,Net-(J6-Pad16)*%
X213405000Y-101920000D02*
X98956396Y-101920000D01*
X93960000Y-99220000D02*
X94913362Y-99220000D01*
X97870000Y-101470000D02*
X96119668Y-99719668D01*
X97870001Y-101469999D02*
G75*
G03*
X98956396Y-101920000I1086399J1086399D01*
G01*
X94913362Y-99220035D02*
G75*
G02*
X96119667Y-99719669I38J-1705965D01*
G01*
%TO.N,Net-(J6-Pad17)*%
X93960000Y-100020000D02*
X94933261Y-100020000D01*
X213405000Y-102420000D02*
X98427401Y-102420000D01*
X97510000Y-102040000D02*
X95883673Y-100413673D01*
X94933261Y-100020032D02*
G75*
G02*
X95883673Y-100413673I39J-1344068D01*
G01*
X97510000Y-102040000D02*
G75*
G03*
X98427401Y-102420000I917400J917400D01*
G01*
%TO.N,Net-(J6-Pad18)*%
X93960000Y-100820000D02*
X94842639Y-100820000D01*
X97070000Y-102520000D02*
X95742900Y-101192900D01*
X213405000Y-102920000D02*
X98035685Y-102920000D01*
X97070004Y-102519996D02*
G75*
G03*
X98035685Y-102920000I965696J965696D01*
G01*
X94842639Y-100819984D02*
G75*
G02*
X95742900Y-101192900I-39J-1273216D01*
G01*
%TO.N,Net-(J6-Pad20)*%
X96070000Y-102893847D02*
X96070000Y-103161300D01*
X93960000Y-102350000D02*
X95384731Y-102350000D01*
X96984264Y-103920000D02*
X213405000Y-103920000D01*
X96984264Y-103920014D02*
G75*
G02*
X96260001Y-103619999I36J1024314D01*
G01*
X96260000Y-103620000D02*
G75*
G02*
X96070000Y-103161300I458700J458700D01*
G01*
X95939991Y-102580009D02*
G75*
G03*
X95384731Y-102350000I-555291J-555291D01*
G01*
X96069980Y-102893847D02*
G75*
G03*
X95940000Y-102580000I-443780J47D01*
G01*
%TO.N,Net-(J6-Pad22)*%
X96724939Y-105084939D02*
X95891594Y-104251594D01*
X95163481Y-103950000D02*
X93960000Y-103950000D01*
X213405000Y-104920000D02*
X98784558Y-104920000D01*
X97891300Y-105290000D02*
X97220000Y-105290000D01*
X97891300Y-105289999D02*
G75*
G03*
X98349999Y-105099999I0J648699D01*
G01*
X95163481Y-103950012D02*
G75*
G02*
X95891593Y-104251595I19J-1029688D01*
G01*
X98350012Y-105100012D02*
G75*
G02*
X98784558Y-104920000I434588J-434588D01*
G01*
X96724944Y-105084934D02*
G75*
G03*
X97220000Y-105290000I495056J495034D01*
G01*
%TO.N,Net-(J3-Pad1)*%
X209330000Y-105420000D02*
X213405000Y-105420000D01*
%TO.N,Net-(J6-Pad24)*%
X93960000Y-106370000D02*
X97384021Y-106370000D01*
X99098406Y-105450000D02*
X207783310Y-105450000D01*
X98060000Y-106090000D02*
X98418284Y-105731716D01*
X208917989Y-105920000D02*
X213405000Y-105920000D01*
X208917989Y-105920004D02*
G75*
G02*
X208580000Y-105780000I11J478004D01*
G01*
X98059994Y-106089994D02*
G75*
G02*
X97384021Y-106370000I-675994J675994D01*
G01*
X99098406Y-105449994D02*
G75*
G03*
X98418284Y-105731716I-6J-961806D01*
G01*
X208579997Y-105780003D02*
G75*
G03*
X207783310Y-105450000I-796697J-796697D01*
G01*
%TO.N,Net-(J6-Pad25)*%
X95050884Y-107970000D02*
X93960000Y-107970000D01*
X213405000Y-106420000D02*
X208935979Y-106420000D01*
X98660000Y-106290000D02*
X98344092Y-106605908D01*
X207680589Y-105900000D02*
X99601543Y-105900000D01*
X208260006Y-106139994D02*
G75*
G03*
X208935979Y-106420000I675994J675994D01*
G01*
X98659987Y-106289987D02*
G75*
G02*
X99601543Y-105900000I941513J-941513D01*
G01*
X95050884Y-107969988D02*
G75*
G03*
X98344092Y-106605908I16J4657288D01*
G01*
X207680589Y-105900005D02*
G75*
G02*
X208260000Y-106140000I11J-819395D01*
G01*
%TO.N,Net-(J6-Pad27)*%
X93960000Y-108770000D02*
X95552894Y-108770000D01*
X97701543Y-107880000D02*
X99083899Y-107880000D01*
X135093553Y-107420000D02*
X213405000Y-107420000D01*
X101618822Y-106830000D02*
X133669168Y-106830000D01*
X97701543Y-107880018D02*
G75*
G03*
X96760000Y-108270000I-43J-1331482D01*
G01*
X135093553Y-107420019D02*
G75*
G02*
X134490000Y-107170000I47J853619D01*
G01*
X134490010Y-107169990D02*
G75*
G03*
X133669168Y-106830000I-820810J-820810D01*
G01*
X100460001Y-107310001D02*
G75*
G02*
X99083899Y-107880000I-1376101J1376101D01*
G01*
X101618822Y-106830010D02*
G75*
G03*
X100460000Y-107310000I-22J-1638790D01*
G01*
X96760002Y-108270002D02*
G75*
G02*
X95552894Y-108770000I-1207102J1207102D01*
G01*
%TO.N,Net-(J6-Pad29)*%
X135773984Y-108936016D02*
X135099538Y-109610462D01*
X127930000Y-110660000D02*
X126103173Y-112486827D01*
X124140000Y-113300000D02*
X105030000Y-113300000D01*
X133796978Y-110150000D02*
X129161248Y-110150000D01*
X213405000Y-108420000D02*
X137019757Y-108420000D01*
X135774003Y-108936035D02*
G75*
G02*
X137019757Y-108420000I1245797J-1245765D01*
G01*
X124140000Y-113300013D02*
G75*
G03*
X126103173Y-112486827I0J2776313D01*
G01*
X127930015Y-110660015D02*
G75*
G02*
X129161248Y-110150000I1231285J-1231285D01*
G01*
X133796978Y-110149983D02*
G75*
G03*
X135099537Y-109610461I22J1842083D01*
G01*
%TO.N,Net-(J6-Pad30)*%
X136247867Y-109582133D02*
X135718904Y-110111096D01*
X213405000Y-108920000D02*
X137846397Y-108920000D01*
X134128169Y-110770000D02*
X129180000Y-110770000D01*
X136247861Y-109582127D02*
G75*
G02*
X137846397Y-108920000I1598539J-1598573D01*
G01*
X134128169Y-110769989D02*
G75*
G03*
X135718904Y-110111096I31J2249589D01*
G01*
%TO.N,Net-(RN1-Pad2)*%
X89683422Y-95406578D02*
X89743581Y-95346419D01*
X90217779Y-95150000D02*
X92160000Y-95150000D01*
X86430000Y-95580000D02*
X89264744Y-95580000D01*
X89683400Y-95406556D02*
G75*
G02*
X89264744Y-95580000I-418700J418656D01*
G01*
X90217779Y-95149980D02*
G75*
G03*
X89743581Y-95346419I21J-670620D01*
G01*
%TO.N,Net-(RN1-Pad3)*%
X86430000Y-96230000D02*
X89567868Y-96230000D01*
X90243847Y-95950000D02*
X92160000Y-95950000D01*
X89930009Y-96080009D02*
G75*
G02*
X89567868Y-96230000I-362109J362109D01*
G01*
X90243847Y-95950020D02*
G75*
G03*
X89930000Y-96080000I-47J-443780D01*
G01*
%TO.N,Net-(RN1-Pad4)*%
X86430000Y-96880000D02*
X91846153Y-96880000D01*
X92160014Y-96750014D02*
G75*
G02*
X91846153Y-96880000I-313814J313814D01*
G01*
%TO.N,Net-(RN2-Pad1)*%
X90337695Y-98420000D02*
X92160000Y-98420000D01*
X86430000Y-98830000D02*
X89347868Y-98830000D01*
X89710009Y-98680009D02*
G75*
G02*
X89347868Y-98830000I-362109J362109D01*
G01*
X90337695Y-98419999D02*
G75*
G03*
X89710001Y-98680001I5J-887701D01*
G01*
%TO.N,Net-(RN2-Pad2)*%
X90253847Y-99220000D02*
X92160000Y-99220000D01*
X86430000Y-99480000D02*
X89626153Y-99480000D01*
X89940014Y-99350014D02*
G75*
G02*
X89626153Y-99480000I-313814J313814D01*
G01*
X90253847Y-99220020D02*
G75*
G03*
X89940000Y-99350000I-47J-443780D01*
G01*
%TO.N,Net-(RN2-Pad3)*%
X86430000Y-100130000D02*
X91894437Y-100130000D01*
X92159989Y-100019989D02*
G75*
G02*
X91894437Y-100130000I-265589J265589D01*
G01*
%TO.N,Net-(RN2-Pad4)*%
X86430000Y-102080000D02*
X88679462Y-102080000D01*
X91721370Y-100820000D02*
X92160000Y-100820000D01*
X89790011Y-101620011D02*
G75*
G02*
X88679462Y-102080000I-1110511J1110511D01*
G01*
X91721370Y-100819988D02*
G75*
G03*
X89790000Y-101620000I30J-2731412D01*
G01*
%TO.N,Net-(RN3-Pad1)*%
X90135563Y-102350000D02*
X92160000Y-102350000D01*
X86430000Y-102730000D02*
X89218163Y-102730000D01*
X89870011Y-102460011D02*
G75*
G02*
X89218163Y-102730000I-651811J651811D01*
G01*
X90135563Y-102349985D02*
G75*
G03*
X89870000Y-102460000I37J-375615D01*
G01*
%TO.N,Net-(RN3-Pad3)*%
X90811543Y-103950000D02*
X92160000Y-103950000D01*
X86430000Y-104680000D02*
X89049168Y-104680000D01*
X89870010Y-104340010D02*
G75*
G02*
X89049168Y-104680000I-820810J820810D01*
G01*
X90811543Y-103950018D02*
G75*
G03*
X89870000Y-104340000I-43J-1331482D01*
G01*
%TO.N,Net-(RN4-Pad1)*%
X86430000Y-105330000D02*
X88884315Y-105330000D01*
X91395096Y-106370000D02*
X92160000Y-106370000D01*
X91395096Y-106370001D02*
G75*
G02*
X89850000Y-105730000I4J2185101D01*
G01*
X89849996Y-105730004D02*
G75*
G03*
X88884315Y-105330000I-965696J-965696D01*
G01*
%TO.N,Net-(RN4-Pad3)*%
X91280832Y-107970000D02*
X92160000Y-107970000D01*
X86430000Y-107280000D02*
X89615026Y-107280000D01*
X91280832Y-107969986D02*
G75*
G02*
X90460000Y-107630000I-32J1160786D01*
G01*
X90459993Y-107630007D02*
G75*
G03*
X89615026Y-107280000I-844993J-844993D01*
G01*
%TO.N,Net-(RN4-Pad4)*%
X91025685Y-108770000D02*
X92160000Y-108770000D01*
X86430000Y-107930000D02*
X88997747Y-107930000D01*
X91025685Y-108770006D02*
G75*
G02*
X90060000Y-108370000I15J1365706D01*
G01*
X90059987Y-108370013D02*
G75*
G03*
X88997747Y-107930000I-1062287J-1062287D01*
G01*
%TD*%
M02*
