%TF.GenerationSoftware,KiCad,Pcbnew,(6.0.7)*%
%TF.CreationDate,2023-11-27T18:07:28+01:00*%
%TF.ProjectId,rcp2n64adv2,72637032-6e36-4346-9164-76322e6b6963,v20231105*%
%TF.SameCoordinates,Original*%
%TF.FileFunction,Legend,Bot*%
%TF.FilePolarity,Positive*%
%FSLAX46Y46*%
G04 Gerber Fmt 4.6, Leading zero omitted, Abs format (unit mm)*
G04 Created by KiCad (PCBNEW (6.0.7)) date 2023-11-27 18:07:28*
%MOMM*%
%LPD*%
G01*
G04 APERTURE LIST*
%ADD10C,0.150000*%
%ADD11C,0.010000*%
G04 APERTURE END LIST*
D10*
X162568571Y-113225714D02*
X162606666Y-113263809D01*
X162720952Y-113301904D01*
X162797142Y-113301904D01*
X162911428Y-113263809D01*
X162987619Y-113187619D01*
X163025714Y-113111428D01*
X163063809Y-112959047D01*
X163063809Y-112844761D01*
X163025714Y-112692380D01*
X162987619Y-112616190D01*
X162911428Y-112540000D01*
X162797142Y-112501904D01*
X162720952Y-112501904D01*
X162606666Y-112540000D01*
X162568571Y-112578095D01*
X162340000Y-112768571D02*
X162035238Y-112768571D01*
X162225714Y-112501904D02*
X162225714Y-113187619D01*
X162187619Y-113263809D01*
X162111428Y-113301904D01*
X162035238Y-113301904D01*
X161768571Y-113301904D02*
X161768571Y-112768571D01*
X161768571Y-112920952D02*
X161730476Y-112844761D01*
X161692380Y-112806666D01*
X161616190Y-112768571D01*
X161540000Y-112768571D01*
X161159047Y-113301904D02*
X161235238Y-113263809D01*
X161273333Y-113187619D01*
X161273333Y-112501904D01*
X160854285Y-113225714D02*
X160816190Y-113263809D01*
X160854285Y-113301904D01*
X160892380Y-113263809D01*
X160854285Y-113225714D01*
X160854285Y-113301904D01*
X150275238Y-111291904D02*
X150541904Y-110910952D01*
X150732380Y-111291904D02*
X150732380Y-110491904D01*
X150427619Y-110491904D01*
X150351428Y-110530000D01*
X150313333Y-110568095D01*
X150275238Y-110644285D01*
X150275238Y-110758571D01*
X150313333Y-110834761D01*
X150351428Y-110872857D01*
X150427619Y-110910952D01*
X150732380Y-110910952D01*
X149970476Y-111253809D02*
X149894285Y-111291904D01*
X149741904Y-111291904D01*
X149665714Y-111253809D01*
X149627619Y-111177619D01*
X149627619Y-111139523D01*
X149665714Y-111063333D01*
X149741904Y-111025238D01*
X149856190Y-111025238D01*
X149932380Y-110987142D01*
X149970476Y-110910952D01*
X149970476Y-110872857D01*
X149932380Y-110796666D01*
X149856190Y-110758571D01*
X149741904Y-110758571D01*
X149665714Y-110796666D01*
X149399047Y-110758571D02*
X149094285Y-110758571D01*
X149284761Y-110491904D02*
X149284761Y-111177619D01*
X149246666Y-111253809D01*
X149170476Y-111291904D01*
X149094285Y-111291904D01*
X148827619Y-111215714D02*
X148789523Y-111253809D01*
X148827619Y-111291904D01*
X148865714Y-111253809D01*
X148827619Y-111215714D01*
X148827619Y-111291904D01*
X111890476Y-89902380D02*
X112366666Y-89902380D01*
X112414285Y-90378571D01*
X112366666Y-90330952D01*
X112271428Y-90283333D01*
X112033333Y-90283333D01*
X111938095Y-90330952D01*
X111890476Y-90378571D01*
X111842857Y-90473809D01*
X111842857Y-90711904D01*
X111890476Y-90807142D01*
X111938095Y-90854761D01*
X112033333Y-90902380D01*
X112271428Y-90902380D01*
X112366666Y-90854761D01*
X112414285Y-90807142D01*
X111557142Y-89902380D02*
X111223809Y-90902380D01*
X110890476Y-89902380D01*
X104926190Y-92402380D02*
X104307142Y-92402380D01*
X104640476Y-92783333D01*
X104497619Y-92783333D01*
X104402380Y-92830952D01*
X104354761Y-92878571D01*
X104307142Y-92973809D01*
X104307142Y-93211904D01*
X104354761Y-93307142D01*
X104402380Y-93354761D01*
X104497619Y-93402380D01*
X104783333Y-93402380D01*
X104878571Y-93354761D01*
X104926190Y-93307142D01*
X103878571Y-93307142D02*
X103830952Y-93354761D01*
X103878571Y-93402380D01*
X103926190Y-93354761D01*
X103878571Y-93307142D01*
X103878571Y-93402380D01*
X103497619Y-92402380D02*
X102878571Y-92402380D01*
X103211904Y-92783333D01*
X103069047Y-92783333D01*
X102973809Y-92830952D01*
X102926190Y-92878571D01*
X102878571Y-92973809D01*
X102878571Y-93211904D01*
X102926190Y-93307142D01*
X102973809Y-93354761D01*
X103069047Y-93402380D01*
X103354761Y-93402380D01*
X103450000Y-93354761D01*
X103497619Y-93307142D01*
X102592857Y-92402380D02*
X102259523Y-93402380D01*
X101926190Y-92402380D01*
X115350000Y-105137904D02*
X115730952Y-105137904D01*
X115730952Y-104337904D01*
X115083333Y-105137904D02*
X115083333Y-104604571D01*
X115083333Y-104337904D02*
X115121428Y-104376000D01*
X115083333Y-104414095D01*
X115045238Y-104376000D01*
X115083333Y-104337904D01*
X115083333Y-104414095D01*
X114359523Y-105099809D02*
X114435714Y-105137904D01*
X114588095Y-105137904D01*
X114664285Y-105099809D01*
X114702380Y-105061714D01*
X114740476Y-104985523D01*
X114740476Y-104756952D01*
X114702380Y-104680761D01*
X114664285Y-104642666D01*
X114588095Y-104604571D01*
X114435714Y-104604571D01*
X114359523Y-104642666D01*
X113711904Y-105099809D02*
X113788095Y-105137904D01*
X113940476Y-105137904D01*
X114016666Y-105099809D01*
X114054761Y-105023619D01*
X114054761Y-104718857D01*
X114016666Y-104642666D01*
X113940476Y-104604571D01*
X113788095Y-104604571D01*
X113711904Y-104642666D01*
X113673809Y-104718857D01*
X113673809Y-104795047D01*
X114054761Y-104871238D01*
X113330952Y-104604571D02*
X113330952Y-105137904D01*
X113330952Y-104680761D02*
X113292857Y-104642666D01*
X113216666Y-104604571D01*
X113102380Y-104604571D01*
X113026190Y-104642666D01*
X112988095Y-104718857D01*
X112988095Y-105137904D01*
X112645238Y-105099809D02*
X112569047Y-105137904D01*
X112416666Y-105137904D01*
X112340476Y-105099809D01*
X112302380Y-105023619D01*
X112302380Y-104985523D01*
X112340476Y-104909333D01*
X112416666Y-104871238D01*
X112530952Y-104871238D01*
X112607142Y-104833142D01*
X112645238Y-104756952D01*
X112645238Y-104718857D01*
X112607142Y-104642666D01*
X112530952Y-104604571D01*
X112416666Y-104604571D01*
X112340476Y-104642666D01*
X111654761Y-105099809D02*
X111730952Y-105137904D01*
X111883333Y-105137904D01*
X111959523Y-105099809D01*
X111997619Y-105023619D01*
X111997619Y-104718857D01*
X111959523Y-104642666D01*
X111883333Y-104604571D01*
X111730952Y-104604571D01*
X111654761Y-104642666D01*
X111616666Y-104718857D01*
X111616666Y-104795047D01*
X111997619Y-104871238D01*
X110930952Y-105137904D02*
X110930952Y-104337904D01*
X110930952Y-105099809D02*
X111007142Y-105137904D01*
X111159523Y-105137904D01*
X111235714Y-105099809D01*
X111273809Y-105061714D01*
X111311904Y-104985523D01*
X111311904Y-104756952D01*
X111273809Y-104680761D01*
X111235714Y-104642666D01*
X111159523Y-104604571D01*
X111007142Y-104604571D01*
X110930952Y-104642666D01*
X109597619Y-104604571D02*
X109597619Y-105137904D01*
X109940476Y-104604571D02*
X109940476Y-105023619D01*
X109902380Y-105099809D01*
X109826190Y-105137904D01*
X109711904Y-105137904D01*
X109635714Y-105099809D01*
X109597619Y-105061714D01*
X109216666Y-104604571D02*
X109216666Y-105137904D01*
X109216666Y-104680761D02*
X109178571Y-104642666D01*
X109102380Y-104604571D01*
X108988095Y-104604571D01*
X108911904Y-104642666D01*
X108873809Y-104718857D01*
X108873809Y-105137904D01*
X108150000Y-105137904D02*
X108150000Y-104337904D01*
X108150000Y-105099809D02*
X108226190Y-105137904D01*
X108378571Y-105137904D01*
X108454761Y-105099809D01*
X108492857Y-105061714D01*
X108530952Y-104985523D01*
X108530952Y-104756952D01*
X108492857Y-104680761D01*
X108454761Y-104642666D01*
X108378571Y-104604571D01*
X108226190Y-104604571D01*
X108150000Y-104642666D01*
X107464285Y-105099809D02*
X107540476Y-105137904D01*
X107692857Y-105137904D01*
X107769047Y-105099809D01*
X107807142Y-105023619D01*
X107807142Y-104718857D01*
X107769047Y-104642666D01*
X107692857Y-104604571D01*
X107540476Y-104604571D01*
X107464285Y-104642666D01*
X107426190Y-104718857D01*
X107426190Y-104795047D01*
X107807142Y-104871238D01*
X107083333Y-105137904D02*
X107083333Y-104604571D01*
X107083333Y-104756952D02*
X107045238Y-104680761D01*
X107007142Y-104642666D01*
X106930952Y-104604571D01*
X106854761Y-104604571D01*
X115883333Y-106349714D02*
X115921428Y-106387809D01*
X116035714Y-106425904D01*
X116111904Y-106425904D01*
X116226190Y-106387809D01*
X116302380Y-106311619D01*
X116340476Y-106235428D01*
X116378571Y-106083047D01*
X116378571Y-105968761D01*
X116340476Y-105816380D01*
X116302380Y-105740190D01*
X116226190Y-105664000D01*
X116111904Y-105625904D01*
X116035714Y-105625904D01*
X115921428Y-105664000D01*
X115883333Y-105702095D01*
X115540476Y-106006857D02*
X115273809Y-106006857D01*
X115159523Y-106425904D02*
X115540476Y-106425904D01*
X115540476Y-105625904D01*
X115159523Y-105625904D01*
X114359523Y-106425904D02*
X114626190Y-106044952D01*
X114816666Y-106425904D02*
X114816666Y-105625904D01*
X114511904Y-105625904D01*
X114435714Y-105664000D01*
X114397619Y-105702095D01*
X114359523Y-105778285D01*
X114359523Y-105892571D01*
X114397619Y-105968761D01*
X114435714Y-106006857D01*
X114511904Y-106044952D01*
X114816666Y-106044952D01*
X114016666Y-106425904D02*
X114016666Y-105625904D01*
X113559523Y-106425904D01*
X113559523Y-105625904D01*
X113178571Y-106121142D02*
X112569047Y-106121142D01*
X112035714Y-105625904D02*
X111883333Y-105625904D01*
X111807142Y-105664000D01*
X111730952Y-105740190D01*
X111692857Y-105892571D01*
X111692857Y-106159238D01*
X111730952Y-106311619D01*
X111807142Y-106387809D01*
X111883333Y-106425904D01*
X112035714Y-106425904D01*
X112111904Y-106387809D01*
X112188095Y-106311619D01*
X112226190Y-106159238D01*
X112226190Y-105892571D01*
X112188095Y-105740190D01*
X112111904Y-105664000D01*
X112035714Y-105625904D01*
X111350000Y-106425904D02*
X111350000Y-105625904D01*
X111350000Y-106006857D02*
X110892857Y-106006857D01*
X110892857Y-106425904D02*
X110892857Y-105625904D01*
X110130952Y-106425904D02*
X110511904Y-106425904D01*
X110511904Y-105625904D01*
X109864285Y-106121142D02*
X109254761Y-106121142D01*
X108950000Y-105625904D02*
X108759523Y-106425904D01*
X108607142Y-105854476D01*
X108454761Y-106425904D01*
X108264285Y-105625904D01*
X107426190Y-105892571D02*
X107235714Y-106425904D01*
X107045238Y-105892571D01*
X106778571Y-105702095D02*
X106740476Y-105664000D01*
X106664285Y-105625904D01*
X106473809Y-105625904D01*
X106397619Y-105664000D01*
X106359523Y-105702095D01*
X106321428Y-105778285D01*
X106321428Y-105854476D01*
X106359523Y-105968761D01*
X106816666Y-106425904D01*
X106321428Y-106425904D01*
%TO.C,REF\u002A\u002A*%
G36*
X108967825Y-102316121D02*
G01*
X108967615Y-102318014D01*
X108949535Y-102406325D01*
X108916870Y-102474986D01*
X108868601Y-102525506D01*
X108803713Y-102559393D01*
X108791801Y-102563268D01*
X108717971Y-102574688D01*
X108641614Y-102568320D01*
X108570626Y-102545563D01*
X108512904Y-102507819D01*
X108469667Y-102467872D01*
X108515625Y-102431532D01*
X108561583Y-102395193D01*
X108616969Y-102422101D01*
X108681056Y-102443905D01*
X108737632Y-102444558D01*
X108783920Y-102424525D01*
X108817230Y-102384315D01*
X108829171Y-102360222D01*
X108835837Y-102339630D01*
X108831980Y-102325720D01*
X108814675Y-102317181D01*
X108780997Y-102312704D01*
X108728021Y-102310978D01*
X108652822Y-102310693D01*
X108470495Y-102310693D01*
X108470495Y-102223492D01*
X108471857Y-102185210D01*
X108600234Y-102185210D01*
X108606399Y-102192251D01*
X108624654Y-102195916D01*
X108659352Y-102197306D01*
X108714846Y-102197525D01*
X108744603Y-102197176D01*
X108791562Y-102194867D01*
X108823416Y-102190822D01*
X108835148Y-102185542D01*
X108832146Y-102166062D01*
X108810988Y-102128786D01*
X108775731Y-102098164D01*
X108733699Y-102079668D01*
X108692220Y-102078773D01*
X108660997Y-102093604D01*
X108625618Y-102127355D01*
X108603122Y-102169233D01*
X108601805Y-102173690D01*
X108600234Y-102185210D01*
X108471857Y-102185210D01*
X108472136Y-102177371D01*
X108476955Y-102131740D01*
X108483840Y-102100893D01*
X108488859Y-102089117D01*
X108525390Y-102036667D01*
X108578175Y-101992921D01*
X108639904Y-101964279D01*
X108672102Y-101956457D01*
X108748820Y-101952896D01*
X108817179Y-101971009D01*
X108875299Y-102008779D01*
X108921302Y-102064191D01*
X108953310Y-102135229D01*
X108962900Y-102185542D01*
X108969444Y-102219878D01*
X108967825Y-102316121D01*
G37*
D11*
X108967825Y-102316121D02*
X108967615Y-102318014D01*
X108949535Y-102406325D01*
X108916870Y-102474986D01*
X108868601Y-102525506D01*
X108803713Y-102559393D01*
X108791801Y-102563268D01*
X108717971Y-102574688D01*
X108641614Y-102568320D01*
X108570626Y-102545563D01*
X108512904Y-102507819D01*
X108469667Y-102467872D01*
X108515625Y-102431532D01*
X108561583Y-102395193D01*
X108616969Y-102422101D01*
X108681056Y-102443905D01*
X108737632Y-102444558D01*
X108783920Y-102424525D01*
X108817230Y-102384315D01*
X108829171Y-102360222D01*
X108835837Y-102339630D01*
X108831980Y-102325720D01*
X108814675Y-102317181D01*
X108780997Y-102312704D01*
X108728021Y-102310978D01*
X108652822Y-102310693D01*
X108470495Y-102310693D01*
X108470495Y-102223492D01*
X108471857Y-102185210D01*
X108600234Y-102185210D01*
X108606399Y-102192251D01*
X108624654Y-102195916D01*
X108659352Y-102197306D01*
X108714846Y-102197525D01*
X108744603Y-102197176D01*
X108791562Y-102194867D01*
X108823416Y-102190822D01*
X108835148Y-102185542D01*
X108832146Y-102166062D01*
X108810988Y-102128786D01*
X108775731Y-102098164D01*
X108733699Y-102079668D01*
X108692220Y-102078773D01*
X108660997Y-102093604D01*
X108625618Y-102127355D01*
X108603122Y-102169233D01*
X108601805Y-102173690D01*
X108600234Y-102185210D01*
X108471857Y-102185210D01*
X108472136Y-102177371D01*
X108476955Y-102131740D01*
X108483840Y-102100893D01*
X108488859Y-102089117D01*
X108525390Y-102036667D01*
X108578175Y-101992921D01*
X108639904Y-101964279D01*
X108672102Y-101956457D01*
X108748820Y-101952896D01*
X108817179Y-101971009D01*
X108875299Y-102008779D01*
X108921302Y-102064191D01*
X108953310Y-102135229D01*
X108962900Y-102185542D01*
X108969444Y-102219878D01*
X108967825Y-102316121D01*
G36*
X111448874Y-101958207D02*
G01*
X111521495Y-101976408D01*
X111574546Y-102010144D01*
X111608329Y-102059642D01*
X111623147Y-102125126D01*
X111620147Y-102187820D01*
X111598493Y-102240699D01*
X111556967Y-102279796D01*
X111494736Y-102305873D01*
X111410969Y-102319695D01*
X111356540Y-102326940D01*
X111306860Y-102342615D01*
X111281211Y-102365314D01*
X111279662Y-102394998D01*
X111289984Y-102413507D01*
X111321951Y-102435443D01*
X111367395Y-102445818D01*
X111420649Y-102444399D01*
X111476048Y-102430952D01*
X111527928Y-102405243D01*
X111579653Y-102371013D01*
X111625148Y-102417049D01*
X111670643Y-102463084D01*
X111632921Y-102493876D01*
X111618253Y-102504574D01*
X111576983Y-102528880D01*
X111532327Y-102549825D01*
X111496984Y-102561845D01*
X111445234Y-102570552D01*
X111381435Y-102570667D01*
X111303200Y-102561081D01*
X111232722Y-102536783D01*
X111182836Y-102498188D01*
X111153423Y-102445198D01*
X111144365Y-102377718D01*
X111150921Y-102318354D01*
X111171970Y-102269752D01*
X111209864Y-102234946D01*
X111267004Y-102211798D01*
X111345785Y-102198170D01*
X111354834Y-102197183D01*
X111403885Y-102190892D01*
X111443675Y-102184309D01*
X111466312Y-102178708D01*
X111473866Y-102174197D01*
X111486637Y-102150941D01*
X111484563Y-102121171D01*
X111467495Y-102095327D01*
X111458533Y-102089691D01*
X111421188Y-102080660D01*
X111372950Y-102081267D01*
X111322650Y-102090878D01*
X111279115Y-102108858D01*
X111233372Y-102135847D01*
X111197890Y-102094384D01*
X111189280Y-102083850D01*
X111169883Y-102055632D01*
X111161897Y-102036508D01*
X111170283Y-102024781D01*
X111196226Y-102006476D01*
X111233688Y-101986777D01*
X111238966Y-101984370D01*
X111288366Y-101965482D01*
X111335983Y-101956452D01*
X111395072Y-101954639D01*
X111448874Y-101958207D01*
G37*
X111448874Y-101958207D02*
X111521495Y-101976408D01*
X111574546Y-102010144D01*
X111608329Y-102059642D01*
X111623147Y-102125126D01*
X111620147Y-102187820D01*
X111598493Y-102240699D01*
X111556967Y-102279796D01*
X111494736Y-102305873D01*
X111410969Y-102319695D01*
X111356540Y-102326940D01*
X111306860Y-102342615D01*
X111281211Y-102365314D01*
X111279662Y-102394998D01*
X111289984Y-102413507D01*
X111321951Y-102435443D01*
X111367395Y-102445818D01*
X111420649Y-102444399D01*
X111476048Y-102430952D01*
X111527928Y-102405243D01*
X111579653Y-102371013D01*
X111625148Y-102417049D01*
X111670643Y-102463084D01*
X111632921Y-102493876D01*
X111618253Y-102504574D01*
X111576983Y-102528880D01*
X111532327Y-102549825D01*
X111496984Y-102561845D01*
X111445234Y-102570552D01*
X111381435Y-102570667D01*
X111303200Y-102561081D01*
X111232722Y-102536783D01*
X111182836Y-102498188D01*
X111153423Y-102445198D01*
X111144365Y-102377718D01*
X111150921Y-102318354D01*
X111171970Y-102269752D01*
X111209864Y-102234946D01*
X111267004Y-102211798D01*
X111345785Y-102198170D01*
X111354834Y-102197183D01*
X111403885Y-102190892D01*
X111443675Y-102184309D01*
X111466312Y-102178708D01*
X111473866Y-102174197D01*
X111486637Y-102150941D01*
X111484563Y-102121171D01*
X111467495Y-102095327D01*
X111458533Y-102089691D01*
X111421188Y-102080660D01*
X111372950Y-102081267D01*
X111322650Y-102090878D01*
X111279115Y-102108858D01*
X111233372Y-102135847D01*
X111197890Y-102094384D01*
X111189280Y-102083850D01*
X111169883Y-102055632D01*
X111161897Y-102036508D01*
X111170283Y-102024781D01*
X111196226Y-102006476D01*
X111233688Y-101986777D01*
X111238966Y-101984370D01*
X111288366Y-101965482D01*
X111335983Y-101956452D01*
X111395072Y-101954639D01*
X111448874Y-101958207D01*
G36*
X110624244Y-103409419D02*
G01*
X110591277Y-103458255D01*
X110541270Y-103493386D01*
X110536362Y-103495521D01*
X110481646Y-103510903D01*
X110419993Y-103516899D01*
X110361376Y-103513233D01*
X110315767Y-103499629D01*
X110297549Y-103490754D01*
X110284179Y-103488637D01*
X110281188Y-103499706D01*
X110275524Y-103509942D01*
X110253607Y-103516038D01*
X110211068Y-103517822D01*
X110140948Y-103517822D01*
X110144680Y-103297773D01*
X110281188Y-103297773D01*
X110285924Y-103330666D01*
X110306336Y-103366931D01*
X110313871Y-103373597D01*
X110344753Y-103387620D01*
X110391213Y-103391228D01*
X110419090Y-103389819D01*
X110471255Y-103379204D01*
X110503587Y-103359425D01*
X110514492Y-103331824D01*
X110502374Y-103297743D01*
X110495304Y-103288824D01*
X110463724Y-103268818D01*
X110413744Y-103257395D01*
X110342487Y-103253763D01*
X110281188Y-103253763D01*
X110281188Y-103297773D01*
X110144680Y-103297773D01*
X110145053Y-103275768D01*
X110146169Y-103219794D01*
X110149106Y-103135996D01*
X110154058Y-103071920D01*
X110162002Y-103024073D01*
X110173917Y-102988962D01*
X110190780Y-102963093D01*
X110213572Y-102942974D01*
X110243269Y-102925110D01*
X110258589Y-102918290D01*
X110311589Y-102905417D01*
X110375513Y-102900095D01*
X110441602Y-102902227D01*
X110501099Y-102911714D01*
X110545247Y-102928461D01*
X110560604Y-102938185D01*
X110595960Y-102967005D01*
X110607926Y-102991137D01*
X110605020Y-102995800D01*
X110586909Y-103012088D01*
X110557672Y-103033817D01*
X110542725Y-103043987D01*
X110517270Y-103058397D01*
X110500728Y-103059773D01*
X110485370Y-103049827D01*
X110447094Y-103029684D01*
X110395590Y-103021400D01*
X110342957Y-103027742D01*
X110341961Y-103028030D01*
X110304838Y-103044158D01*
X110286463Y-103069405D01*
X110281380Y-103111158D01*
X110281188Y-103150879D01*
X110412423Y-103155168D01*
X110433331Y-103155873D01*
X110486043Y-103158326D01*
X110521381Y-103162180D01*
X110545267Y-103168878D01*
X110563624Y-103179864D01*
X110582376Y-103196580D01*
X110613337Y-103235244D01*
X110636029Y-103292456D01*
X110638254Y-103331824D01*
X110639413Y-103352333D01*
X110624244Y-103409419D01*
G37*
X110624244Y-103409419D02*
X110591277Y-103458255D01*
X110541270Y-103493386D01*
X110536362Y-103495521D01*
X110481646Y-103510903D01*
X110419993Y-103516899D01*
X110361376Y-103513233D01*
X110315767Y-103499629D01*
X110297549Y-103490754D01*
X110284179Y-103488637D01*
X110281188Y-103499706D01*
X110275524Y-103509942D01*
X110253607Y-103516038D01*
X110211068Y-103517822D01*
X110140948Y-103517822D01*
X110144680Y-103297773D01*
X110281188Y-103297773D01*
X110285924Y-103330666D01*
X110306336Y-103366931D01*
X110313871Y-103373597D01*
X110344753Y-103387620D01*
X110391213Y-103391228D01*
X110419090Y-103389819D01*
X110471255Y-103379204D01*
X110503587Y-103359425D01*
X110514492Y-103331824D01*
X110502374Y-103297743D01*
X110495304Y-103288824D01*
X110463724Y-103268818D01*
X110413744Y-103257395D01*
X110342487Y-103253763D01*
X110281188Y-103253763D01*
X110281188Y-103297773D01*
X110144680Y-103297773D01*
X110145053Y-103275768D01*
X110146169Y-103219794D01*
X110149106Y-103135996D01*
X110154058Y-103071920D01*
X110162002Y-103024073D01*
X110173917Y-102988962D01*
X110190780Y-102963093D01*
X110213572Y-102942974D01*
X110243269Y-102925110D01*
X110258589Y-102918290D01*
X110311589Y-102905417D01*
X110375513Y-102900095D01*
X110441602Y-102902227D01*
X110501099Y-102911714D01*
X110545247Y-102928461D01*
X110560604Y-102938185D01*
X110595960Y-102967005D01*
X110607926Y-102991137D01*
X110605020Y-102995800D01*
X110586909Y-103012088D01*
X110557672Y-103033817D01*
X110542725Y-103043987D01*
X110517270Y-103058397D01*
X110500728Y-103059773D01*
X110485370Y-103049827D01*
X110447094Y-103029684D01*
X110395590Y-103021400D01*
X110342957Y-103027742D01*
X110341961Y-103028030D01*
X110304838Y-103044158D01*
X110286463Y-103069405D01*
X110281380Y-103111158D01*
X110281188Y-103150879D01*
X110412423Y-103155168D01*
X110433331Y-103155873D01*
X110486043Y-103158326D01*
X110521381Y-103162180D01*
X110545267Y-103168878D01*
X110563624Y-103179864D01*
X110582376Y-103196580D01*
X110613337Y-103235244D01*
X110636029Y-103292456D01*
X110638254Y-103331824D01*
X110639413Y-103352333D01*
X110624244Y-103409419D01*
G36*
X110130297Y-102154342D02*
G01*
X110131357Y-102242394D01*
X110135509Y-102313510D01*
X110143921Y-102365199D01*
X110157757Y-102400360D01*
X110178182Y-102421889D01*
X110206364Y-102432682D01*
X110243465Y-102435636D01*
X110278890Y-102433000D01*
X110307500Y-102422679D01*
X110328296Y-102401772D01*
X110342442Y-102367381D01*
X110351103Y-102316610D01*
X110355445Y-102246563D01*
X110356633Y-102154342D01*
X110356633Y-101958614D01*
X110482376Y-101958614D01*
X110482376Y-102194578D01*
X110482160Y-102257561D01*
X110480484Y-102339007D01*
X110476277Y-102401121D01*
X110468521Y-102447458D01*
X110456196Y-102481573D01*
X110438285Y-102507022D01*
X110413767Y-102527362D01*
X110381623Y-102546147D01*
X110314125Y-102569928D01*
X110243681Y-102571480D01*
X110177264Y-102549580D01*
X110148286Y-102535383D01*
X110133909Y-102533261D01*
X110130297Y-102543293D01*
X110124299Y-102554556D01*
X110102830Y-102560489D01*
X110061138Y-102562179D01*
X109991980Y-102562179D01*
X109991980Y-101958614D01*
X110130297Y-101958614D01*
X110130297Y-102154342D01*
G37*
X110130297Y-102154342D02*
X110131357Y-102242394D01*
X110135509Y-102313510D01*
X110143921Y-102365199D01*
X110157757Y-102400360D01*
X110178182Y-102421889D01*
X110206364Y-102432682D01*
X110243465Y-102435636D01*
X110278890Y-102433000D01*
X110307500Y-102422679D01*
X110328296Y-102401772D01*
X110342442Y-102367381D01*
X110351103Y-102316610D01*
X110355445Y-102246563D01*
X110356633Y-102154342D01*
X110356633Y-101958614D01*
X110482376Y-101958614D01*
X110482376Y-102194578D01*
X110482160Y-102257561D01*
X110480484Y-102339007D01*
X110476277Y-102401121D01*
X110468521Y-102447458D01*
X110456196Y-102481573D01*
X110438285Y-102507022D01*
X110413767Y-102527362D01*
X110381623Y-102546147D01*
X110314125Y-102569928D01*
X110243681Y-102571480D01*
X110177264Y-102549580D01*
X110148286Y-102535383D01*
X110133909Y-102533261D01*
X110130297Y-102543293D01*
X110124299Y-102554556D01*
X110102830Y-102560489D01*
X110061138Y-102562179D01*
X109991980Y-102562179D01*
X109991980Y-101958614D01*
X110130297Y-101958614D01*
X110130297Y-102154342D01*
G36*
X111182997Y-103099130D02*
G01*
X111199997Y-103149850D01*
X111220107Y-103205997D01*
X111236899Y-103248532D01*
X111248986Y-103273990D01*
X111254980Y-103278903D01*
X111256426Y-103274630D01*
X111264254Y-103248422D01*
X111276723Y-103204649D01*
X111292447Y-103148211D01*
X111310043Y-103084010D01*
X111357914Y-102907971D01*
X111431007Y-102904152D01*
X111437177Y-102903846D01*
X111476592Y-102903441D01*
X111495533Y-102907487D01*
X111497945Y-102916726D01*
X111494898Y-102925749D01*
X111484874Y-102956632D01*
X111469180Y-103005544D01*
X111448934Y-103068987D01*
X111425256Y-103143462D01*
X111399263Y-103225471D01*
X111306736Y-103517822D01*
X111190993Y-103517822D01*
X111136457Y-103332352D01*
X111126386Y-103298294D01*
X111107775Y-103236378D01*
X111091872Y-103184787D01*
X111080109Y-103148130D01*
X111073918Y-103131018D01*
X111072154Y-103129741D01*
X111063571Y-103140779D01*
X111051316Y-103169969D01*
X111037426Y-103212750D01*
X111036692Y-103215263D01*
X111018096Y-103278400D01*
X110996818Y-103349889D01*
X110977321Y-103414734D01*
X110945705Y-103519122D01*
X110887402Y-103515328D01*
X110829098Y-103511535D01*
X110775098Y-103341782D01*
X110751390Y-103267193D01*
X110724833Y-103183539D01*
X110699404Y-103103342D01*
X110678354Y-103036857D01*
X110635609Y-102901683D01*
X110778612Y-102901683D01*
X110813274Y-103030570D01*
X110822488Y-103064625D01*
X110839915Y-103128115D01*
X110856054Y-103185874D01*
X110868322Y-103228614D01*
X110888709Y-103297773D01*
X111018745Y-102907971D01*
X111068476Y-102904237D01*
X111118206Y-102900504D01*
X111182997Y-103099130D01*
G37*
X111182997Y-103099130D02*
X111199997Y-103149850D01*
X111220107Y-103205997D01*
X111236899Y-103248532D01*
X111248986Y-103273990D01*
X111254980Y-103278903D01*
X111256426Y-103274630D01*
X111264254Y-103248422D01*
X111276723Y-103204649D01*
X111292447Y-103148211D01*
X111310043Y-103084010D01*
X111357914Y-102907971D01*
X111431007Y-102904152D01*
X111437177Y-102903846D01*
X111476592Y-102903441D01*
X111495533Y-102907487D01*
X111497945Y-102916726D01*
X111494898Y-102925749D01*
X111484874Y-102956632D01*
X111469180Y-103005544D01*
X111448934Y-103068987D01*
X111425256Y-103143462D01*
X111399263Y-103225471D01*
X111306736Y-103517822D01*
X111190993Y-103517822D01*
X111136457Y-103332352D01*
X111126386Y-103298294D01*
X111107775Y-103236378D01*
X111091872Y-103184787D01*
X111080109Y-103148130D01*
X111073918Y-103131018D01*
X111072154Y-103129741D01*
X111063571Y-103140779D01*
X111051316Y-103169969D01*
X111037426Y-103212750D01*
X111036692Y-103215263D01*
X111018096Y-103278400D01*
X110996818Y-103349889D01*
X110977321Y-103414734D01*
X110945705Y-103519122D01*
X110887402Y-103515328D01*
X110829098Y-103511535D01*
X110775098Y-103341782D01*
X110751390Y-103267193D01*
X110724833Y-103183539D01*
X110699404Y-103103342D01*
X110678354Y-103036857D01*
X110635609Y-102901683D01*
X110778612Y-102901683D01*
X110813274Y-103030570D01*
X110822488Y-103064625D01*
X110839915Y-103128115D01*
X110856054Y-103185874D01*
X110868322Y-103228614D01*
X110888709Y-103297773D01*
X111018745Y-102907971D01*
X111068476Y-102904237D01*
X111118206Y-102900504D01*
X111182997Y-103099130D01*
G36*
X109612718Y-103256692D02*
G01*
X109597827Y-103346459D01*
X109567185Y-103417045D01*
X109520524Y-103468952D01*
X109457574Y-103502686D01*
X109437235Y-103508647D01*
X109364612Y-103516971D01*
X109287928Y-103509946D01*
X109218663Y-103488265D01*
X109194262Y-103475959D01*
X109159275Y-103454879D01*
X109138072Y-103437534D01*
X109134942Y-103433571D01*
X109129085Y-103419077D01*
X109137524Y-103403321D01*
X109163221Y-103379460D01*
X109175622Y-103369072D01*
X109200052Y-103350063D01*
X109212861Y-103342293D01*
X109216530Y-103343094D01*
X109237561Y-103351745D01*
X109268960Y-103366931D01*
X109279197Y-103371926D01*
X109339590Y-103390475D01*
X109392057Y-103385694D01*
X109438065Y-103357500D01*
X109443419Y-103352291D01*
X109469013Y-103319659D01*
X109483637Y-103288342D01*
X109491736Y-103253763D01*
X109111782Y-103253763D01*
X109111852Y-103187748D01*
X109111892Y-103181182D01*
X109117022Y-103128218D01*
X109250099Y-103128218D01*
X109251670Y-103139203D01*
X109259738Y-103146773D01*
X109278967Y-103150975D01*
X109314019Y-103152783D01*
X109369554Y-103153169D01*
X109400429Y-103152768D01*
X109446002Y-103150429D01*
X109477348Y-103146465D01*
X109489010Y-103141413D01*
X109479064Y-103099827D01*
X109449947Y-103061013D01*
X109407952Y-103034086D01*
X109359440Y-103024772D01*
X109323723Y-103035272D01*
X109288020Y-103060940D01*
X109260879Y-103094381D01*
X109250099Y-103128218D01*
X109117022Y-103128218D01*
X109119758Y-103099965D01*
X109142655Y-103033895D01*
X109182607Y-102976940D01*
X109206979Y-102952848D01*
X109257315Y-102920597D01*
X109317419Y-102904970D01*
X109393338Y-102903871D01*
X109430010Y-102908179D01*
X109497703Y-102930549D01*
X109549530Y-102971263D01*
X109585945Y-103030949D01*
X109607401Y-103110236D01*
X109609579Y-103141413D01*
X109614353Y-103209753D01*
X109612718Y-103256692D01*
G37*
X109612718Y-103256692D02*
X109597827Y-103346459D01*
X109567185Y-103417045D01*
X109520524Y-103468952D01*
X109457574Y-103502686D01*
X109437235Y-103508647D01*
X109364612Y-103516971D01*
X109287928Y-103509946D01*
X109218663Y-103488265D01*
X109194262Y-103475959D01*
X109159275Y-103454879D01*
X109138072Y-103437534D01*
X109134942Y-103433571D01*
X109129085Y-103419077D01*
X109137524Y-103403321D01*
X109163221Y-103379460D01*
X109175622Y-103369072D01*
X109200052Y-103350063D01*
X109212861Y-103342293D01*
X109216530Y-103343094D01*
X109237561Y-103351745D01*
X109268960Y-103366931D01*
X109279197Y-103371926D01*
X109339590Y-103390475D01*
X109392057Y-103385694D01*
X109438065Y-103357500D01*
X109443419Y-103352291D01*
X109469013Y-103319659D01*
X109483637Y-103288342D01*
X109491736Y-103253763D01*
X109111782Y-103253763D01*
X109111852Y-103187748D01*
X109111892Y-103181182D01*
X109117022Y-103128218D01*
X109250099Y-103128218D01*
X109251670Y-103139203D01*
X109259738Y-103146773D01*
X109278967Y-103150975D01*
X109314019Y-103152783D01*
X109369554Y-103153169D01*
X109400429Y-103152768D01*
X109446002Y-103150429D01*
X109477348Y-103146465D01*
X109489010Y-103141413D01*
X109479064Y-103099827D01*
X109449947Y-103061013D01*
X109407952Y-103034086D01*
X109359440Y-103024772D01*
X109323723Y-103035272D01*
X109288020Y-103060940D01*
X109260879Y-103094381D01*
X109250099Y-103128218D01*
X109117022Y-103128218D01*
X109119758Y-103099965D01*
X109142655Y-103033895D01*
X109182607Y-102976940D01*
X109206979Y-102952848D01*
X109257315Y-102920597D01*
X109317419Y-102904970D01*
X109393338Y-102903871D01*
X109430010Y-102908179D01*
X109497703Y-102930549D01*
X109549530Y-102971263D01*
X109585945Y-103030949D01*
X109607401Y-103110236D01*
X109609579Y-103141413D01*
X109614353Y-103209753D01*
X109612718Y-103256692D01*
G36*
X112232605Y-101957424D02*
G01*
X112289926Y-101975434D01*
X112315199Y-101987674D01*
X112327910Y-101988938D01*
X112330792Y-101977798D01*
X112330795Y-101977461D01*
X112337006Y-101966087D01*
X112358428Y-101960256D01*
X112399950Y-101958614D01*
X112469109Y-101958614D01*
X112469109Y-102562179D01*
X112330792Y-102562179D01*
X112330792Y-102354132D01*
X112330697Y-102283879D01*
X112330051Y-102226170D01*
X112328320Y-102185787D01*
X112324974Y-102158615D01*
X112319481Y-102140540D01*
X112311310Y-102127447D01*
X112299928Y-102115221D01*
X112284424Y-102102217D01*
X112239843Y-102084745D01*
X112193047Y-102089873D01*
X112150180Y-102117507D01*
X112137927Y-102130368D01*
X112129132Y-102143384D01*
X112123233Y-102160706D01*
X112119651Y-102186501D01*
X112117809Y-102224939D01*
X112117128Y-102280189D01*
X112117030Y-102356418D01*
X112117030Y-102562179D01*
X111978713Y-102562179D01*
X111978989Y-102338985D01*
X111979008Y-102329044D01*
X111980207Y-102234106D01*
X111983891Y-102160358D01*
X111991006Y-102104214D01*
X112002500Y-102062087D01*
X112019318Y-102030391D01*
X112042409Y-102005541D01*
X112072717Y-101983950D01*
X112104012Y-101969002D01*
X112167037Y-101955421D01*
X112232605Y-101957424D01*
G37*
X112232605Y-101957424D02*
X112289926Y-101975434D01*
X112315199Y-101987674D01*
X112327910Y-101988938D01*
X112330792Y-101977798D01*
X112330795Y-101977461D01*
X112337006Y-101966087D01*
X112358428Y-101960256D01*
X112399950Y-101958614D01*
X112469109Y-101958614D01*
X112469109Y-102562179D01*
X112330792Y-102562179D01*
X112330792Y-102354132D01*
X112330697Y-102283879D01*
X112330051Y-102226170D01*
X112328320Y-102185787D01*
X112324974Y-102158615D01*
X112319481Y-102140540D01*
X112311310Y-102127447D01*
X112299928Y-102115221D01*
X112284424Y-102102217D01*
X112239843Y-102084745D01*
X112193047Y-102089873D01*
X112150180Y-102117507D01*
X112137927Y-102130368D01*
X112129132Y-102143384D01*
X112123233Y-102160706D01*
X112119651Y-102186501D01*
X112117809Y-102224939D01*
X112117128Y-102280189D01*
X112117030Y-102356418D01*
X112117030Y-102562179D01*
X111978713Y-102562179D01*
X111978989Y-102338985D01*
X111979008Y-102329044D01*
X111980207Y-102234106D01*
X111983891Y-102160358D01*
X111991006Y-102104214D01*
X112002500Y-102062087D01*
X112019318Y-102030391D01*
X112042409Y-102005541D01*
X112072717Y-101983950D01*
X112104012Y-101969002D01*
X112167037Y-101955421D01*
X112232605Y-101957424D01*
G36*
X112443960Y-103517822D02*
G01*
X112318218Y-103517822D01*
X112318218Y-103323740D01*
X112318078Y-103278594D01*
X112316649Y-103203823D01*
X112313029Y-103148467D01*
X112306434Y-103108702D01*
X112296079Y-103080700D01*
X112281178Y-103060635D01*
X112260946Y-103044681D01*
X112238859Y-103032792D01*
X112212705Y-103029421D01*
X112175508Y-103036917D01*
X112163555Y-103040038D01*
X112133718Y-103044735D01*
X112112383Y-103038005D01*
X112087655Y-103017177D01*
X112082963Y-103012647D01*
X112057020Y-102984626D01*
X112040291Y-102961843D01*
X112037996Y-102956355D01*
X112042543Y-102936088D01*
X112065602Y-102919884D01*
X112101995Y-102908513D01*
X112146544Y-102902740D01*
X112194072Y-102903334D01*
X112239400Y-102911063D01*
X112277351Y-102926694D01*
X112289381Y-102933993D01*
X112309632Y-102944676D01*
X112317129Y-102942230D01*
X112318218Y-102926647D01*
X112318473Y-102921053D01*
X112324539Y-102908660D01*
X112343356Y-102903020D01*
X112381089Y-102901683D01*
X112443960Y-102901683D01*
X112443960Y-103517822D01*
G37*
X112443960Y-103517822D02*
X112318218Y-103517822D01*
X112318218Y-103323740D01*
X112318078Y-103278594D01*
X112316649Y-103203823D01*
X112313029Y-103148467D01*
X112306434Y-103108702D01*
X112296079Y-103080700D01*
X112281178Y-103060635D01*
X112260946Y-103044681D01*
X112238859Y-103032792D01*
X112212705Y-103029421D01*
X112175508Y-103036917D01*
X112163555Y-103040038D01*
X112133718Y-103044735D01*
X112112383Y-103038005D01*
X112087655Y-103017177D01*
X112082963Y-103012647D01*
X112057020Y-102984626D01*
X112040291Y-102961843D01*
X112037996Y-102956355D01*
X112042543Y-102936088D01*
X112065602Y-102919884D01*
X112101995Y-102908513D01*
X112146544Y-102902740D01*
X112194072Y-102903334D01*
X112239400Y-102911063D01*
X112277351Y-102926694D01*
X112289381Y-102933993D01*
X112309632Y-102944676D01*
X112317129Y-102942230D01*
X112318218Y-102926647D01*
X112318473Y-102921053D01*
X112324539Y-102908660D01*
X112343356Y-102903020D01*
X112381089Y-102901683D01*
X112443960Y-102901683D01*
X112443960Y-103517822D01*
G36*
X109820265Y-102909965D02*
G01*
X109858255Y-102927745D01*
X109891386Y-102953806D01*
X109891386Y-102927745D01*
X109892211Y-102917849D01*
X109899893Y-102907358D01*
X109920667Y-102902725D01*
X109960544Y-102901683D01*
X110029703Y-102901683D01*
X110029703Y-103517822D01*
X109891386Y-103517822D01*
X109891386Y-103317226D01*
X109891369Y-103305710D01*
X109890189Y-103224758D01*
X109887294Y-103158817D01*
X109882888Y-103111258D01*
X109877181Y-103085452D01*
X109871940Y-103075710D01*
X109839676Y-103045156D01*
X109795730Y-103031631D01*
X109747743Y-103037941D01*
X109735973Y-103042217D01*
X109710898Y-103049776D01*
X109693762Y-103047428D01*
X109676518Y-103032064D01*
X109651124Y-103000571D01*
X109609936Y-102948568D01*
X109638886Y-102925125D01*
X109666405Y-102911015D01*
X109714745Y-102901486D01*
X109769230Y-102901174D01*
X109820265Y-102909965D01*
G37*
X109820265Y-102909965D02*
X109858255Y-102927745D01*
X109891386Y-102953806D01*
X109891386Y-102927745D01*
X109892211Y-102917849D01*
X109899893Y-102907358D01*
X109920667Y-102902725D01*
X109960544Y-102901683D01*
X110029703Y-102901683D01*
X110029703Y-103517822D01*
X109891386Y-103517822D01*
X109891386Y-103317226D01*
X109891369Y-103305710D01*
X109890189Y-103224758D01*
X109887294Y-103158817D01*
X109882888Y-103111258D01*
X109877181Y-103085452D01*
X109871940Y-103075710D01*
X109839676Y-103045156D01*
X109795730Y-103031631D01*
X109747743Y-103037941D01*
X109735973Y-103042217D01*
X109710898Y-103049776D01*
X109693762Y-103047428D01*
X109676518Y-103032064D01*
X109651124Y-103000571D01*
X109609936Y-102948568D01*
X109638886Y-102925125D01*
X109666405Y-102911015D01*
X109714745Y-102901486D01*
X109769230Y-102901174D01*
X109820265Y-102909965D01*
G36*
X113061421Y-102272936D02*
G01*
X113060322Y-102311371D01*
X113047926Y-102395367D01*
X113020608Y-102461595D01*
X112976941Y-102512784D01*
X112915495Y-102551663D01*
X112855888Y-102569812D01*
X112781110Y-102573284D01*
X112705664Y-102559930D01*
X112638366Y-102530425D01*
X112613428Y-102514012D01*
X112585951Y-102492973D01*
X112573414Y-102479129D01*
X112574124Y-102473417D01*
X112588158Y-102453955D01*
X112614533Y-102430376D01*
X112660240Y-102395513D01*
X112713799Y-102422262D01*
X112728282Y-102428882D01*
X112770916Y-102443273D01*
X112806649Y-102449010D01*
X112832998Y-102444282D01*
X112874347Y-102421514D01*
X112909104Y-102386170D01*
X112928983Y-102345273D01*
X112937083Y-102310693D01*
X112557129Y-102310693D01*
X112557199Y-102244679D01*
X112557774Y-102223757D01*
X112561972Y-102178862D01*
X112695445Y-102178862D01*
X112695690Y-102181434D01*
X112702604Y-102189443D01*
X112722141Y-102194364D01*
X112758467Y-102196843D01*
X112815748Y-102197525D01*
X112834575Y-102197517D01*
X112883470Y-102197065D01*
X112912863Y-102195113D01*
X112927115Y-102190558D01*
X112930582Y-102182299D01*
X112927625Y-102169233D01*
X112927173Y-102167752D01*
X112901699Y-102122285D01*
X112861539Y-102090981D01*
X112813651Y-102079327D01*
X112795949Y-102080259D01*
X112763094Y-102091408D01*
X112731575Y-102119763D01*
X112723085Y-102129789D01*
X112703336Y-102158423D01*
X112695445Y-102178862D01*
X112561972Y-102178862D01*
X112562512Y-102173091D01*
X112570459Y-102131166D01*
X112579168Y-102107696D01*
X112609790Y-102056646D01*
X112650799Y-102010283D01*
X112694168Y-101978514D01*
X112706699Y-101972614D01*
X112779661Y-101953046D01*
X112854168Y-101955109D01*
X112924217Y-101977931D01*
X112983807Y-102020639D01*
X113016038Y-102060025D01*
X113042392Y-102115510D01*
X113056482Y-102182299D01*
X113057022Y-102184861D01*
X113061421Y-102272936D01*
G37*
X113061421Y-102272936D02*
X113060322Y-102311371D01*
X113047926Y-102395367D01*
X113020608Y-102461595D01*
X112976941Y-102512784D01*
X112915495Y-102551663D01*
X112855888Y-102569812D01*
X112781110Y-102573284D01*
X112705664Y-102559930D01*
X112638366Y-102530425D01*
X112613428Y-102514012D01*
X112585951Y-102492973D01*
X112573414Y-102479129D01*
X112574124Y-102473417D01*
X112588158Y-102453955D01*
X112614533Y-102430376D01*
X112660240Y-102395513D01*
X112713799Y-102422262D01*
X112728282Y-102428882D01*
X112770916Y-102443273D01*
X112806649Y-102449010D01*
X112832998Y-102444282D01*
X112874347Y-102421514D01*
X112909104Y-102386170D01*
X112928983Y-102345273D01*
X112937083Y-102310693D01*
X112557129Y-102310693D01*
X112557199Y-102244679D01*
X112557774Y-102223757D01*
X112561972Y-102178862D01*
X112695445Y-102178862D01*
X112695690Y-102181434D01*
X112702604Y-102189443D01*
X112722141Y-102194364D01*
X112758467Y-102196843D01*
X112815748Y-102197525D01*
X112834575Y-102197517D01*
X112883470Y-102197065D01*
X112912863Y-102195113D01*
X112927115Y-102190558D01*
X112930582Y-102182299D01*
X112927625Y-102169233D01*
X112927173Y-102167752D01*
X112901699Y-102122285D01*
X112861539Y-102090981D01*
X112813651Y-102079327D01*
X112795949Y-102080259D01*
X112763094Y-102091408D01*
X112731575Y-102119763D01*
X112723085Y-102129789D01*
X112703336Y-102158423D01*
X112695445Y-102178862D01*
X112561972Y-102178862D01*
X112562512Y-102173091D01*
X112570459Y-102131166D01*
X112579168Y-102107696D01*
X112609790Y-102056646D01*
X112650799Y-102010283D01*
X112694168Y-101978514D01*
X112706699Y-101972614D01*
X112779661Y-101953046D01*
X112854168Y-101955109D01*
X112924217Y-101977931D01*
X112983807Y-102020639D01*
X113016038Y-102060025D01*
X113042392Y-102115510D01*
X113056482Y-102182299D01*
X113057022Y-102184861D01*
X113061421Y-102272936D01*
G36*
X113559926Y-103515336D02*
G01*
X113493911Y-103511535D01*
X113490772Y-103310347D01*
X113489844Y-103261425D01*
X113487208Y-103187926D01*
X113482683Y-103133991D01*
X113475438Y-103095995D01*
X113464642Y-103070313D01*
X113449462Y-103053320D01*
X113429066Y-103041389D01*
X113390797Y-103029205D01*
X113352738Y-103033940D01*
X113312549Y-103059979D01*
X113273861Y-103092533D01*
X113273861Y-103517822D01*
X113135544Y-103517822D01*
X113135544Y-103287176D01*
X113135677Y-103214882D01*
X113136413Y-103150641D01*
X113138181Y-103103618D01*
X113141411Y-103069548D01*
X113146530Y-103044170D01*
X113153967Y-103023221D01*
X113164150Y-103002436D01*
X113166564Y-102998024D01*
X113198675Y-102955047D01*
X113236256Y-102925013D01*
X113281564Y-102909243D01*
X113341561Y-102902222D01*
X113401643Y-102906025D01*
X113450525Y-102920868D01*
X113487624Y-102940052D01*
X113487624Y-102524859D01*
X113436792Y-102551354D01*
X113415558Y-102560980D01*
X113348536Y-102574592D01*
X113281930Y-102565184D01*
X113220187Y-102533905D01*
X113167757Y-102481902D01*
X113159543Y-102469680D01*
X113151649Y-102451763D01*
X113146500Y-102427404D01*
X113143527Y-102391927D01*
X113142161Y-102340656D01*
X113141915Y-102287236D01*
X113274749Y-102287236D01*
X113274861Y-102331849D01*
X113278272Y-102361601D01*
X113285937Y-102382835D01*
X113298814Y-102401896D01*
X113315171Y-102419617D01*
X113341329Y-102433028D01*
X113380742Y-102436436D01*
X113415559Y-102433471D01*
X113450020Y-102418631D01*
X113472215Y-102388569D01*
X113484097Y-102340254D01*
X113487624Y-102270650D01*
X113486712Y-102233624D01*
X113477609Y-102163728D01*
X113458828Y-102116464D01*
X113430476Y-102092168D01*
X113401840Y-102085332D01*
X113351970Y-102088537D01*
X113309833Y-102108380D01*
X113299749Y-102117480D01*
X113289063Y-102133223D01*
X113282456Y-102156658D01*
X113278532Y-102193604D01*
X113275897Y-102249880D01*
X113274749Y-102287236D01*
X113141915Y-102287236D01*
X113141831Y-102268917D01*
X113141944Y-102236184D01*
X113143872Y-102160044D01*
X113149240Y-102103166D01*
X113159406Y-102061249D01*
X113175725Y-102029996D01*
X113199553Y-102005106D01*
X113232247Y-101982282D01*
X113258759Y-101969184D01*
X113321615Y-101954739D01*
X113387869Y-101956707D01*
X113446757Y-101975433D01*
X113472030Y-101987673D01*
X113484742Y-101988938D01*
X113487624Y-101977798D01*
X113487626Y-101977461D01*
X113493838Y-101966087D01*
X113515260Y-101960256D01*
X113556782Y-101958614D01*
X113625940Y-101958614D01*
X113625940Y-103519136D01*
X113559926Y-103515336D01*
G37*
X113559926Y-103515336D02*
X113493911Y-103511535D01*
X113490772Y-103310347D01*
X113489844Y-103261425D01*
X113487208Y-103187926D01*
X113482683Y-103133991D01*
X113475438Y-103095995D01*
X113464642Y-103070313D01*
X113449462Y-103053320D01*
X113429066Y-103041389D01*
X113390797Y-103029205D01*
X113352738Y-103033940D01*
X113312549Y-103059979D01*
X113273861Y-103092533D01*
X113273861Y-103517822D01*
X113135544Y-103517822D01*
X113135544Y-103287176D01*
X113135677Y-103214882D01*
X113136413Y-103150641D01*
X113138181Y-103103618D01*
X113141411Y-103069548D01*
X113146530Y-103044170D01*
X113153967Y-103023221D01*
X113164150Y-103002436D01*
X113166564Y-102998024D01*
X113198675Y-102955047D01*
X113236256Y-102925013D01*
X113281564Y-102909243D01*
X113341561Y-102902222D01*
X113401643Y-102906025D01*
X113450525Y-102920868D01*
X113487624Y-102940052D01*
X113487624Y-102524859D01*
X113436792Y-102551354D01*
X113415558Y-102560980D01*
X113348536Y-102574592D01*
X113281930Y-102565184D01*
X113220187Y-102533905D01*
X113167757Y-102481902D01*
X113159543Y-102469680D01*
X113151649Y-102451763D01*
X113146500Y-102427404D01*
X113143527Y-102391927D01*
X113142161Y-102340656D01*
X113141915Y-102287236D01*
X113274749Y-102287236D01*
X113274861Y-102331849D01*
X113278272Y-102361601D01*
X113285937Y-102382835D01*
X113298814Y-102401896D01*
X113315171Y-102419617D01*
X113341329Y-102433028D01*
X113380742Y-102436436D01*
X113415559Y-102433471D01*
X113450020Y-102418631D01*
X113472215Y-102388569D01*
X113484097Y-102340254D01*
X113487624Y-102270650D01*
X113486712Y-102233624D01*
X113477609Y-102163728D01*
X113458828Y-102116464D01*
X113430476Y-102092168D01*
X113401840Y-102085332D01*
X113351970Y-102088537D01*
X113309833Y-102108380D01*
X113299749Y-102117480D01*
X113289063Y-102133223D01*
X113282456Y-102156658D01*
X113278532Y-102193604D01*
X113275897Y-102249880D01*
X113274749Y-102287236D01*
X113141915Y-102287236D01*
X113141831Y-102268917D01*
X113141944Y-102236184D01*
X113143872Y-102160044D01*
X113149240Y-102103166D01*
X113159406Y-102061249D01*
X113175725Y-102029996D01*
X113199553Y-102005106D01*
X113232247Y-101982282D01*
X113258759Y-101969184D01*
X113321615Y-101954739D01*
X113387869Y-101956707D01*
X113446757Y-101975433D01*
X113472030Y-101987673D01*
X113484742Y-101988938D01*
X113487624Y-101977798D01*
X113487626Y-101977461D01*
X113493838Y-101966087D01*
X113515260Y-101960256D01*
X113556782Y-101958614D01*
X113625940Y-101958614D01*
X113625940Y-103519136D01*
X113559926Y-103515336D01*
G36*
X112039167Y-103310571D02*
G01*
X112035962Y-103348018D01*
X112035413Y-103351450D01*
X112013838Y-103412835D01*
X111974438Y-103464877D01*
X111922752Y-103500135D01*
X111867248Y-103514729D01*
X111798977Y-103513597D01*
X111736173Y-103494029D01*
X111719815Y-103485771D01*
X111698779Y-103476923D01*
X111690774Y-103479676D01*
X111689505Y-103494029D01*
X111688922Y-103501186D01*
X111681394Y-103511772D01*
X111660488Y-103516645D01*
X111620346Y-103517822D01*
X111551188Y-103517822D01*
X111551188Y-103215930D01*
X111689505Y-103215930D01*
X111690496Y-103268230D01*
X111694519Y-103303050D01*
X111703108Y-103326905D01*
X111717797Y-103346895D01*
X111756584Y-103376618D01*
X111801974Y-103386582D01*
X111845989Y-103374260D01*
X111883060Y-103339888D01*
X111892859Y-103314735D01*
X111900097Y-103270194D01*
X111903279Y-103216155D01*
X111902277Y-103160728D01*
X111896961Y-103112022D01*
X111887204Y-103078148D01*
X111884087Y-103072593D01*
X111854038Y-103044674D01*
X111813315Y-103032306D01*
X111769579Y-103035183D01*
X111730491Y-103053000D01*
X111703710Y-103085452D01*
X111702603Y-103088181D01*
X111695963Y-103118634D01*
X111691278Y-103164139D01*
X111689505Y-103215930D01*
X111551188Y-103215930D01*
X111551188Y-102662773D01*
X111689505Y-102662773D01*
X111689505Y-102955878D01*
X111715124Y-102932693D01*
X111739792Y-102918282D01*
X111786480Y-102906236D01*
X111841056Y-102902354D01*
X111894354Y-102907120D01*
X111937207Y-102921014D01*
X111967878Y-102940779D01*
X111999471Y-102974449D01*
X112020733Y-103019730D01*
X112033514Y-103080981D01*
X112039664Y-103162563D01*
X112040568Y-103195540D01*
X112040633Y-103216155D01*
X112040761Y-103256813D01*
X112039167Y-103310571D01*
G37*
X112039167Y-103310571D02*
X112035962Y-103348018D01*
X112035413Y-103351450D01*
X112013838Y-103412835D01*
X111974438Y-103464877D01*
X111922752Y-103500135D01*
X111867248Y-103514729D01*
X111798977Y-103513597D01*
X111736173Y-103494029D01*
X111719815Y-103485771D01*
X111698779Y-103476923D01*
X111690774Y-103479676D01*
X111689505Y-103494029D01*
X111688922Y-103501186D01*
X111681394Y-103511772D01*
X111660488Y-103516645D01*
X111620346Y-103517822D01*
X111551188Y-103517822D01*
X111551188Y-103215930D01*
X111689505Y-103215930D01*
X111690496Y-103268230D01*
X111694519Y-103303050D01*
X111703108Y-103326905D01*
X111717797Y-103346895D01*
X111756584Y-103376618D01*
X111801974Y-103386582D01*
X111845989Y-103374260D01*
X111883060Y-103339888D01*
X111892859Y-103314735D01*
X111900097Y-103270194D01*
X111903279Y-103216155D01*
X111902277Y-103160728D01*
X111896961Y-103112022D01*
X111887204Y-103078148D01*
X111884087Y-103072593D01*
X111854038Y-103044674D01*
X111813315Y-103032306D01*
X111769579Y-103035183D01*
X111730491Y-103053000D01*
X111703710Y-103085452D01*
X111702603Y-103088181D01*
X111695963Y-103118634D01*
X111691278Y-103164139D01*
X111689505Y-103215930D01*
X111551188Y-103215930D01*
X111551188Y-102662773D01*
X111689505Y-102662773D01*
X111689505Y-102955878D01*
X111715124Y-102932693D01*
X111739792Y-102918282D01*
X111786480Y-102906236D01*
X111841056Y-102902354D01*
X111894354Y-102907120D01*
X111937207Y-102921014D01*
X111967878Y-102940779D01*
X111999471Y-102974449D01*
X112020733Y-103019730D01*
X112033514Y-103080981D01*
X112039664Y-103162563D01*
X112040568Y-103195540D01*
X112040633Y-103216155D01*
X112040761Y-103256813D01*
X112039167Y-103310571D01*
G36*
X111714389Y-97790018D02*
G01*
X111771237Y-98091570D01*
X111981001Y-98178041D01*
X112190764Y-98264512D01*
X112442410Y-98093395D01*
X112492216Y-98059661D01*
X112558244Y-98015381D01*
X112615410Y-97977561D01*
X112660744Y-97948142D01*
X112691280Y-97929067D01*
X112704046Y-97922278D01*
X112711887Y-97927106D01*
X112735325Y-97947339D01*
X112770794Y-97980543D01*
X112815289Y-98023670D01*
X112865805Y-98073670D01*
X112919336Y-98127495D01*
X112972877Y-98182095D01*
X113023423Y-98234423D01*
X113067968Y-98281428D01*
X113103507Y-98320063D01*
X113127034Y-98347278D01*
X113135544Y-98360024D01*
X113133565Y-98365500D01*
X113119857Y-98389927D01*
X113094825Y-98430129D01*
X113060499Y-98482952D01*
X113018907Y-98545247D01*
X112972079Y-98613862D01*
X112946380Y-98651283D01*
X112902173Y-98716432D01*
X112864272Y-98773289D01*
X112834698Y-98818770D01*
X112815472Y-98849793D01*
X112808614Y-98863274D01*
X112808726Y-98864021D01*
X112814776Y-98881110D01*
X112828654Y-98916006D01*
X112848427Y-98964151D01*
X112872160Y-99020986D01*
X112897918Y-99081953D01*
X112923766Y-99142492D01*
X112947771Y-99198047D01*
X112967998Y-99244057D01*
X112982511Y-99275965D01*
X112989377Y-99289212D01*
X112993439Y-99290387D01*
X113018121Y-99295687D01*
X113062111Y-99304467D01*
X113121887Y-99316040D01*
X113193929Y-99329721D01*
X113274716Y-99344823D01*
X113317294Y-99352830D01*
X113395445Y-99368107D01*
X113463775Y-99382215D01*
X113518551Y-99394345D01*
X113556037Y-99403686D01*
X113572500Y-99409427D01*
X113575457Y-99415119D01*
X113580362Y-99442930D01*
X113584216Y-99489250D01*
X113587021Y-99549720D01*
X113588781Y-99619983D01*
X113589499Y-99695680D01*
X113589177Y-99772453D01*
X113587819Y-99845944D01*
X113585428Y-99911794D01*
X113582006Y-99965645D01*
X113577556Y-100003138D01*
X113572082Y-100019916D01*
X113568760Y-100021809D01*
X113543987Y-100029926D01*
X113501011Y-100040666D01*
X113444802Y-100052853D01*
X113380325Y-100065310D01*
X113358570Y-100069277D01*
X113258093Y-100087729D01*
X113179126Y-100102559D01*
X113118934Y-100114380D01*
X113074778Y-100123809D01*
X113043920Y-100131460D01*
X113023625Y-100137948D01*
X113011154Y-100143888D01*
X113003771Y-100149894D01*
X113002913Y-100150902D01*
X112990838Y-100171919D01*
X112972971Y-100210376D01*
X112951042Y-100261761D01*
X112926784Y-100321563D01*
X112901927Y-100385270D01*
X112878205Y-100448371D01*
X112857347Y-100506355D01*
X112841087Y-100554709D01*
X112831156Y-100588922D01*
X112829285Y-100604483D01*
X112830536Y-100606502D01*
X112843486Y-100626028D01*
X112867840Y-100662042D01*
X112901340Y-100711228D01*
X112941727Y-100770267D01*
X112986745Y-100835842D01*
X112999100Y-100853884D01*
X113042545Y-100918599D01*
X113080091Y-100976476D01*
X113109594Y-101024082D01*
X113128914Y-101057985D01*
X113135905Y-101074752D01*
X113134398Y-101079161D01*
X113118695Y-101100882D01*
X113087714Y-101136354D01*
X113043673Y-101183188D01*
X112988790Y-101238996D01*
X112925286Y-101301392D01*
X112888988Y-101336317D01*
X112831595Y-101390711D01*
X112781361Y-101437302D01*
X112740984Y-101473636D01*
X112713161Y-101497261D01*
X112700590Y-101505724D01*
X112691952Y-101502587D01*
X112665360Y-101487747D01*
X112626741Y-101463477D01*
X112581134Y-101432852D01*
X112548707Y-101410503D01*
X112483970Y-101366122D01*
X112414886Y-101318987D01*
X112351787Y-101276155D01*
X112228178Y-101192547D01*
X112124417Y-101248650D01*
X112099984Y-101261599D01*
X112055552Y-101283749D01*
X112021191Y-101299041D01*
X112002828Y-101304743D01*
X111996818Y-101297421D01*
X111981895Y-101269541D01*
X111959852Y-101223575D01*
X111931917Y-101162441D01*
X111899317Y-101089055D01*
X111863276Y-101006335D01*
X111825023Y-100917197D01*
X111785783Y-100824559D01*
X111746783Y-100731337D01*
X111709249Y-100640450D01*
X111674409Y-100554814D01*
X111643488Y-100477345D01*
X111617714Y-100410962D01*
X111598311Y-100358582D01*
X111586508Y-100323121D01*
X111583531Y-100307496D01*
X111583732Y-100307039D01*
X111597601Y-100292595D01*
X111626611Y-100269974D01*
X111664772Y-100243864D01*
X111676817Y-100235892D01*
X111768469Y-100160256D01*
X111844323Y-100070169D01*
X111902581Y-99969381D01*
X111941448Y-99861640D01*
X111959128Y-99750697D01*
X111953826Y-99640303D01*
X111932347Y-99542115D01*
X111893782Y-99442966D01*
X111837562Y-99354512D01*
X111760410Y-99270487D01*
X111730095Y-99243645D01*
X111632094Y-99177510D01*
X111526227Y-99132970D01*
X111415561Y-99109625D01*
X111303164Y-99107078D01*
X111192105Y-99124929D01*
X111085451Y-99162780D01*
X110986270Y-99220232D01*
X110897631Y-99296887D01*
X110822600Y-99392345D01*
X110808175Y-99415985D01*
X110759143Y-99524034D01*
X110733103Y-99636548D01*
X110729372Y-99750614D01*
X110747268Y-99863318D01*
X110786109Y-99971745D01*
X110845214Y-100072982D01*
X110923900Y-100164114D01*
X111021485Y-100242228D01*
X111024654Y-100244333D01*
X111062411Y-100270940D01*
X111090709Y-100293561D01*
X111103634Y-100307496D01*
X111102003Y-100318421D01*
X111091864Y-100350231D01*
X111073884Y-100399534D01*
X111049292Y-100463413D01*
X111019311Y-100538948D01*
X110985170Y-100623223D01*
X110948092Y-100713320D01*
X110909306Y-100806321D01*
X110870036Y-100899308D01*
X110831509Y-100989364D01*
X110794950Y-101073571D01*
X110761586Y-101149010D01*
X110732643Y-101212765D01*
X110709346Y-101261917D01*
X110692923Y-101293549D01*
X110684598Y-101304743D01*
X110677674Y-101303227D01*
X110650477Y-101292331D01*
X110610280Y-101273228D01*
X110563009Y-101248650D01*
X110459248Y-101192547D01*
X110335639Y-101276155D01*
X110299120Y-101300913D01*
X110231194Y-101347171D01*
X110163475Y-101393503D01*
X110106291Y-101432852D01*
X110074732Y-101454297D01*
X110033714Y-101480939D01*
X110003301Y-101499178D01*
X109988446Y-101505941D01*
X109982065Y-101503070D01*
X109958996Y-101485485D01*
X109923433Y-101454523D01*
X109878471Y-101413231D01*
X109827206Y-101364653D01*
X109772733Y-101311835D01*
X109718148Y-101257823D01*
X109666547Y-101205661D01*
X109621024Y-101158396D01*
X109584675Y-101119072D01*
X109560595Y-101090736D01*
X109551881Y-101076432D01*
X109552383Y-101073711D01*
X109562755Y-101051560D01*
X109584912Y-101013235D01*
X109616712Y-100962200D01*
X109656016Y-100901914D01*
X109700681Y-100835842D01*
X109713207Y-100817617D01*
X109757193Y-100753485D01*
X109795937Y-100696789D01*
X109827182Y-100650844D01*
X109848669Y-100618970D01*
X109858140Y-100604483D01*
X109858373Y-100603862D01*
X109855578Y-100586139D01*
X109844903Y-100550235D01*
X109828081Y-100500662D01*
X109806843Y-100441932D01*
X109782921Y-100378556D01*
X109758046Y-100315046D01*
X109733950Y-100255913D01*
X109712365Y-100205669D01*
X109695023Y-100168826D01*
X109683655Y-100149894D01*
X109682516Y-100148719D01*
X109674376Y-100142773D01*
X109660629Y-100136776D01*
X109638537Y-100130114D01*
X109605363Y-100122173D01*
X109558370Y-100112337D01*
X109494820Y-100099991D01*
X109411976Y-100084520D01*
X109307100Y-100065310D01*
X109285348Y-100061267D01*
X109223036Y-100048769D01*
X109170619Y-100036927D01*
X109133066Y-100026917D01*
X109115343Y-100019916D01*
X109112378Y-100014075D01*
X109107435Y-99986016D01*
X109103518Y-99939500D01*
X109100629Y-99878886D01*
X109098773Y-99808532D01*
X109097952Y-99732796D01*
X109098168Y-99656037D01*
X109099426Y-99582612D01*
X109101728Y-99516880D01*
X109105076Y-99463200D01*
X109109474Y-99425930D01*
X109114926Y-99409427D01*
X109120491Y-99406989D01*
X109148178Y-99399305D01*
X109194979Y-99388436D01*
X109257157Y-99375192D01*
X109330979Y-99360384D01*
X109412710Y-99344823D01*
X109457336Y-99336509D01*
X109533824Y-99322092D01*
X109599660Y-99309467D01*
X109651323Y-99299321D01*
X109685293Y-99292341D01*
X109698048Y-99289212D01*
X109698528Y-99288568D01*
X109706651Y-99272181D01*
X109722137Y-99237852D01*
X109743050Y-99190136D01*
X109767455Y-99133586D01*
X109793416Y-99072758D01*
X109818997Y-99012206D01*
X109842262Y-98956485D01*
X109861277Y-98910150D01*
X109874105Y-98877755D01*
X109878812Y-98863855D01*
X109876736Y-98858965D01*
X109862920Y-98835692D01*
X109837860Y-98796519D01*
X109803568Y-98744520D01*
X109762059Y-98682768D01*
X109715346Y-98614336D01*
X109689718Y-98576860D01*
X109645490Y-98511156D01*
X109607570Y-98453492D01*
X109577980Y-98407014D01*
X109558743Y-98374865D01*
X109551881Y-98360190D01*
X109556649Y-98352230D01*
X109576593Y-98328446D01*
X109609313Y-98292451D01*
X109651805Y-98247295D01*
X109701065Y-98196028D01*
X109754091Y-98141701D01*
X109807877Y-98087364D01*
X109859421Y-98036067D01*
X109905720Y-97990859D01*
X109943769Y-97954792D01*
X109970565Y-97930914D01*
X109983105Y-97922278D01*
X109990066Y-97925636D01*
X110015627Y-97941210D01*
X110056874Y-97967715D01*
X110110837Y-98003210D01*
X110174542Y-98045750D01*
X110245016Y-98093395D01*
X110496662Y-98264512D01*
X110916188Y-98091570D01*
X110973036Y-97790018D01*
X111029885Y-97488466D01*
X111657540Y-97488466D01*
X111714389Y-97790018D01*
G37*
X111714389Y-97790018D02*
X111771237Y-98091570D01*
X111981001Y-98178041D01*
X112190764Y-98264512D01*
X112442410Y-98093395D01*
X112492216Y-98059661D01*
X112558244Y-98015381D01*
X112615410Y-97977561D01*
X112660744Y-97948142D01*
X112691280Y-97929067D01*
X112704046Y-97922278D01*
X112711887Y-97927106D01*
X112735325Y-97947339D01*
X112770794Y-97980543D01*
X112815289Y-98023670D01*
X112865805Y-98073670D01*
X112919336Y-98127495D01*
X112972877Y-98182095D01*
X113023423Y-98234423D01*
X113067968Y-98281428D01*
X113103507Y-98320063D01*
X113127034Y-98347278D01*
X113135544Y-98360024D01*
X113133565Y-98365500D01*
X113119857Y-98389927D01*
X113094825Y-98430129D01*
X113060499Y-98482952D01*
X113018907Y-98545247D01*
X112972079Y-98613862D01*
X112946380Y-98651283D01*
X112902173Y-98716432D01*
X112864272Y-98773289D01*
X112834698Y-98818770D01*
X112815472Y-98849793D01*
X112808614Y-98863274D01*
X112808726Y-98864021D01*
X112814776Y-98881110D01*
X112828654Y-98916006D01*
X112848427Y-98964151D01*
X112872160Y-99020986D01*
X112897918Y-99081953D01*
X112923766Y-99142492D01*
X112947771Y-99198047D01*
X112967998Y-99244057D01*
X112982511Y-99275965D01*
X112989377Y-99289212D01*
X112993439Y-99290387D01*
X113018121Y-99295687D01*
X113062111Y-99304467D01*
X113121887Y-99316040D01*
X113193929Y-99329721D01*
X113274716Y-99344823D01*
X113317294Y-99352830D01*
X113395445Y-99368107D01*
X113463775Y-99382215D01*
X113518551Y-99394345D01*
X113556037Y-99403686D01*
X113572500Y-99409427D01*
X113575457Y-99415119D01*
X113580362Y-99442930D01*
X113584216Y-99489250D01*
X113587021Y-99549720D01*
X113588781Y-99619983D01*
X113589499Y-99695680D01*
X113589177Y-99772453D01*
X113587819Y-99845944D01*
X113585428Y-99911794D01*
X113582006Y-99965645D01*
X113577556Y-100003138D01*
X113572082Y-100019916D01*
X113568760Y-100021809D01*
X113543987Y-100029926D01*
X113501011Y-100040666D01*
X113444802Y-100052853D01*
X113380325Y-100065310D01*
X113358570Y-100069277D01*
X113258093Y-100087729D01*
X113179126Y-100102559D01*
X113118934Y-100114380D01*
X113074778Y-100123809D01*
X113043920Y-100131460D01*
X113023625Y-100137948D01*
X113011154Y-100143888D01*
X113003771Y-100149894D01*
X113002913Y-100150902D01*
X112990838Y-100171919D01*
X112972971Y-100210376D01*
X112951042Y-100261761D01*
X112926784Y-100321563D01*
X112901927Y-100385270D01*
X112878205Y-100448371D01*
X112857347Y-100506355D01*
X112841087Y-100554709D01*
X112831156Y-100588922D01*
X112829285Y-100604483D01*
X112830536Y-100606502D01*
X112843486Y-100626028D01*
X112867840Y-100662042D01*
X112901340Y-100711228D01*
X112941727Y-100770267D01*
X112986745Y-100835842D01*
X112999100Y-100853884D01*
X113042545Y-100918599D01*
X113080091Y-100976476D01*
X113109594Y-101024082D01*
X113128914Y-101057985D01*
X113135905Y-101074752D01*
X113134398Y-101079161D01*
X113118695Y-101100882D01*
X113087714Y-101136354D01*
X113043673Y-101183188D01*
X112988790Y-101238996D01*
X112925286Y-101301392D01*
X112888988Y-101336317D01*
X112831595Y-101390711D01*
X112781361Y-101437302D01*
X112740984Y-101473636D01*
X112713161Y-101497261D01*
X112700590Y-101505724D01*
X112691952Y-101502587D01*
X112665360Y-101487747D01*
X112626741Y-101463477D01*
X112581134Y-101432852D01*
X112548707Y-101410503D01*
X112483970Y-101366122D01*
X112414886Y-101318987D01*
X112351787Y-101276155D01*
X112228178Y-101192547D01*
X112124417Y-101248650D01*
X112099984Y-101261599D01*
X112055552Y-101283749D01*
X112021191Y-101299041D01*
X112002828Y-101304743D01*
X111996818Y-101297421D01*
X111981895Y-101269541D01*
X111959852Y-101223575D01*
X111931917Y-101162441D01*
X111899317Y-101089055D01*
X111863276Y-101006335D01*
X111825023Y-100917197D01*
X111785783Y-100824559D01*
X111746783Y-100731337D01*
X111709249Y-100640450D01*
X111674409Y-100554814D01*
X111643488Y-100477345D01*
X111617714Y-100410962D01*
X111598311Y-100358582D01*
X111586508Y-100323121D01*
X111583531Y-100307496D01*
X111583732Y-100307039D01*
X111597601Y-100292595D01*
X111626611Y-100269974D01*
X111664772Y-100243864D01*
X111676817Y-100235892D01*
X111768469Y-100160256D01*
X111844323Y-100070169D01*
X111902581Y-99969381D01*
X111941448Y-99861640D01*
X111959128Y-99750697D01*
X111953826Y-99640303D01*
X111932347Y-99542115D01*
X111893782Y-99442966D01*
X111837562Y-99354512D01*
X111760410Y-99270487D01*
X111730095Y-99243645D01*
X111632094Y-99177510D01*
X111526227Y-99132970D01*
X111415561Y-99109625D01*
X111303164Y-99107078D01*
X111192105Y-99124929D01*
X111085451Y-99162780D01*
X110986270Y-99220232D01*
X110897631Y-99296887D01*
X110822600Y-99392345D01*
X110808175Y-99415985D01*
X110759143Y-99524034D01*
X110733103Y-99636548D01*
X110729372Y-99750614D01*
X110747268Y-99863318D01*
X110786109Y-99971745D01*
X110845214Y-100072982D01*
X110923900Y-100164114D01*
X111021485Y-100242228D01*
X111024654Y-100244333D01*
X111062411Y-100270940D01*
X111090709Y-100293561D01*
X111103634Y-100307496D01*
X111102003Y-100318421D01*
X111091864Y-100350231D01*
X111073884Y-100399534D01*
X111049292Y-100463413D01*
X111019311Y-100538948D01*
X110985170Y-100623223D01*
X110948092Y-100713320D01*
X110909306Y-100806321D01*
X110870036Y-100899308D01*
X110831509Y-100989364D01*
X110794950Y-101073571D01*
X110761586Y-101149010D01*
X110732643Y-101212765D01*
X110709346Y-101261917D01*
X110692923Y-101293549D01*
X110684598Y-101304743D01*
X110677674Y-101303227D01*
X110650477Y-101292331D01*
X110610280Y-101273228D01*
X110563009Y-101248650D01*
X110459248Y-101192547D01*
X110335639Y-101276155D01*
X110299120Y-101300913D01*
X110231194Y-101347171D01*
X110163475Y-101393503D01*
X110106291Y-101432852D01*
X110074732Y-101454297D01*
X110033714Y-101480939D01*
X110003301Y-101499178D01*
X109988446Y-101505941D01*
X109982065Y-101503070D01*
X109958996Y-101485485D01*
X109923433Y-101454523D01*
X109878471Y-101413231D01*
X109827206Y-101364653D01*
X109772733Y-101311835D01*
X109718148Y-101257823D01*
X109666547Y-101205661D01*
X109621024Y-101158396D01*
X109584675Y-101119072D01*
X109560595Y-101090736D01*
X109551881Y-101076432D01*
X109552383Y-101073711D01*
X109562755Y-101051560D01*
X109584912Y-101013235D01*
X109616712Y-100962200D01*
X109656016Y-100901914D01*
X109700681Y-100835842D01*
X109713207Y-100817617D01*
X109757193Y-100753485D01*
X109795937Y-100696789D01*
X109827182Y-100650844D01*
X109848669Y-100618970D01*
X109858140Y-100604483D01*
X109858373Y-100603862D01*
X109855578Y-100586139D01*
X109844903Y-100550235D01*
X109828081Y-100500662D01*
X109806843Y-100441932D01*
X109782921Y-100378556D01*
X109758046Y-100315046D01*
X109733950Y-100255913D01*
X109712365Y-100205669D01*
X109695023Y-100168826D01*
X109683655Y-100149894D01*
X109682516Y-100148719D01*
X109674376Y-100142773D01*
X109660629Y-100136776D01*
X109638537Y-100130114D01*
X109605363Y-100122173D01*
X109558370Y-100112337D01*
X109494820Y-100099991D01*
X109411976Y-100084520D01*
X109307100Y-100065310D01*
X109285348Y-100061267D01*
X109223036Y-100048769D01*
X109170619Y-100036927D01*
X109133066Y-100026917D01*
X109115343Y-100019916D01*
X109112378Y-100014075D01*
X109107435Y-99986016D01*
X109103518Y-99939500D01*
X109100629Y-99878886D01*
X109098773Y-99808532D01*
X109097952Y-99732796D01*
X109098168Y-99656037D01*
X109099426Y-99582612D01*
X109101728Y-99516880D01*
X109105076Y-99463200D01*
X109109474Y-99425930D01*
X109114926Y-99409427D01*
X109120491Y-99406989D01*
X109148178Y-99399305D01*
X109194979Y-99388436D01*
X109257157Y-99375192D01*
X109330979Y-99360384D01*
X109412710Y-99344823D01*
X109457336Y-99336509D01*
X109533824Y-99322092D01*
X109599660Y-99309467D01*
X109651323Y-99299321D01*
X109685293Y-99292341D01*
X109698048Y-99289212D01*
X109698528Y-99288568D01*
X109706651Y-99272181D01*
X109722137Y-99237852D01*
X109743050Y-99190136D01*
X109767455Y-99133586D01*
X109793416Y-99072758D01*
X109818997Y-99012206D01*
X109842262Y-98956485D01*
X109861277Y-98910150D01*
X109874105Y-98877755D01*
X109878812Y-98863855D01*
X109876736Y-98858965D01*
X109862920Y-98835692D01*
X109837860Y-98796519D01*
X109803568Y-98744520D01*
X109762059Y-98682768D01*
X109715346Y-98614336D01*
X109689718Y-98576860D01*
X109645490Y-98511156D01*
X109607570Y-98453492D01*
X109577980Y-98407014D01*
X109558743Y-98374865D01*
X109551881Y-98360190D01*
X109556649Y-98352230D01*
X109576593Y-98328446D01*
X109609313Y-98292451D01*
X109651805Y-98247295D01*
X109701065Y-98196028D01*
X109754091Y-98141701D01*
X109807877Y-98087364D01*
X109859421Y-98036067D01*
X109905720Y-97990859D01*
X109943769Y-97954792D01*
X109970565Y-97930914D01*
X109983105Y-97922278D01*
X109990066Y-97925636D01*
X110015627Y-97941210D01*
X110056874Y-97967715D01*
X110110837Y-98003210D01*
X110174542Y-98045750D01*
X110245016Y-98093395D01*
X110496662Y-98264512D01*
X110916188Y-98091570D01*
X110973036Y-97790018D01*
X111029885Y-97488466D01*
X111657540Y-97488466D01*
X111714389Y-97790018D01*
G36*
X114213373Y-102334310D02*
G01*
X114209688Y-102382332D01*
X114203410Y-102416368D01*
X114193044Y-102443338D01*
X114177092Y-102470158D01*
X114176412Y-102471175D01*
X114137132Y-102514629D01*
X114089072Y-102547772D01*
X114033185Y-102567439D01*
X113959666Y-102573824D01*
X113887609Y-102561268D01*
X113823201Y-102531011D01*
X113772627Y-102484294D01*
X113758108Y-102462221D01*
X113730993Y-102393602D01*
X113717546Y-102308939D01*
X113717776Y-102287523D01*
X113852920Y-102287523D01*
X113853174Y-102327574D01*
X113857421Y-102354313D01*
X113867096Y-102374859D01*
X113883638Y-102396331D01*
X113906593Y-102417639D01*
X113952505Y-102436653D01*
X114001802Y-102433122D01*
X114048917Y-102406694D01*
X114062207Y-102394072D01*
X114076397Y-102372465D01*
X114084266Y-102342094D01*
X114088726Y-102294770D01*
X114089955Y-102259219D01*
X114083224Y-102186620D01*
X114062567Y-102134642D01*
X114027894Y-102102999D01*
X113987249Y-102087847D01*
X113938777Y-102089123D01*
X113893845Y-102114703D01*
X113883103Y-102124442D01*
X113869548Y-102141480D01*
X113861505Y-102163772D01*
X113857043Y-102197947D01*
X113854228Y-102250638D01*
X113852920Y-102287523D01*
X113717776Y-102287523D01*
X113718583Y-102212351D01*
X113719907Y-102198651D01*
X113738374Y-102110908D01*
X113772540Y-102042793D01*
X113822479Y-101994231D01*
X113888261Y-101965148D01*
X113969961Y-101955471D01*
X114000828Y-101956379D01*
X114064128Y-101967493D01*
X114115889Y-101994021D01*
X114164147Y-102039436D01*
X114171865Y-102048551D01*
X114192681Y-102079248D01*
X114206362Y-102114007D01*
X114213948Y-102158056D01*
X114216479Y-102216621D01*
X114215672Y-102259219D01*
X114214997Y-102294931D01*
X114213373Y-102334310D01*
G37*
X114213373Y-102334310D02*
X114209688Y-102382332D01*
X114203410Y-102416368D01*
X114193044Y-102443338D01*
X114177092Y-102470158D01*
X114176412Y-102471175D01*
X114137132Y-102514629D01*
X114089072Y-102547772D01*
X114033185Y-102567439D01*
X113959666Y-102573824D01*
X113887609Y-102561268D01*
X113823201Y-102531011D01*
X113772627Y-102484294D01*
X113758108Y-102462221D01*
X113730993Y-102393602D01*
X113717546Y-102308939D01*
X113717776Y-102287523D01*
X113852920Y-102287523D01*
X113853174Y-102327574D01*
X113857421Y-102354313D01*
X113867096Y-102374859D01*
X113883638Y-102396331D01*
X113906593Y-102417639D01*
X113952505Y-102436653D01*
X114001802Y-102433122D01*
X114048917Y-102406694D01*
X114062207Y-102394072D01*
X114076397Y-102372465D01*
X114084266Y-102342094D01*
X114088726Y-102294770D01*
X114089955Y-102259219D01*
X114083224Y-102186620D01*
X114062567Y-102134642D01*
X114027894Y-102102999D01*
X113987249Y-102087847D01*
X113938777Y-102089123D01*
X113893845Y-102114703D01*
X113883103Y-102124442D01*
X113869548Y-102141480D01*
X113861505Y-102163772D01*
X113857043Y-102197947D01*
X113854228Y-102250638D01*
X113852920Y-102287523D01*
X113717776Y-102287523D01*
X113718583Y-102212351D01*
X113719907Y-102198651D01*
X113738374Y-102110908D01*
X113772540Y-102042793D01*
X113822479Y-101994231D01*
X113888261Y-101965148D01*
X113969961Y-101955471D01*
X114000828Y-101956379D01*
X114064128Y-101967493D01*
X114115889Y-101994021D01*
X114164147Y-102039436D01*
X114171865Y-102048551D01*
X114192681Y-102079248D01*
X114206362Y-102114007D01*
X114213948Y-102158056D01*
X114216479Y-102216621D01*
X114215672Y-102259219D01*
X114214997Y-102294931D01*
X114213373Y-102334310D01*
G36*
X111079349Y-102343565D02*
G01*
X111063844Y-102419538D01*
X111036110Y-102477511D01*
X110993898Y-102521300D01*
X110934960Y-102554722D01*
X110912076Y-102562676D01*
X110852812Y-102572601D01*
X110790447Y-102572331D01*
X110737823Y-102561430D01*
X110736789Y-102561034D01*
X110694381Y-102536087D01*
X110651537Y-102497468D01*
X110615986Y-102453306D01*
X110595459Y-102411727D01*
X110589374Y-102381334D01*
X110584164Y-102324429D01*
X110583291Y-102273705D01*
X110709976Y-102273705D01*
X110717549Y-102334545D01*
X110735341Y-102384538D01*
X110762296Y-102417204D01*
X110772513Y-102422812D01*
X110811473Y-102433007D01*
X110856536Y-102435104D01*
X110894448Y-102428020D01*
X110909244Y-102417861D01*
X110930014Y-102382334D01*
X110943083Y-102326732D01*
X110947624Y-102253766D01*
X110947551Y-102232762D01*
X110945974Y-102190203D01*
X110940728Y-102162439D01*
X110929723Y-102141925D01*
X110910868Y-102121112D01*
X110874989Y-102095887D01*
X110828280Y-102085573D01*
X110783151Y-102095396D01*
X110745680Y-102123805D01*
X110721943Y-102169253D01*
X110713675Y-102208497D01*
X110709976Y-102273705D01*
X110583291Y-102273705D01*
X110583049Y-102259621D01*
X110585844Y-102195116D01*
X110592366Y-102139121D01*
X110602432Y-102099842D01*
X110625877Y-102055372D01*
X110675637Y-102000692D01*
X110739238Y-101966055D01*
X110814790Y-101952345D01*
X110900399Y-101960448D01*
X110914644Y-101963899D01*
X110980982Y-101993664D01*
X111030971Y-102042530D01*
X111064612Y-102110501D01*
X111081906Y-102197580D01*
X111082410Y-102253766D01*
X111082857Y-102303771D01*
X111079349Y-102343565D01*
G37*
X111079349Y-102343565D02*
X111063844Y-102419538D01*
X111036110Y-102477511D01*
X110993898Y-102521300D01*
X110934960Y-102554722D01*
X110912076Y-102562676D01*
X110852812Y-102572601D01*
X110790447Y-102572331D01*
X110737823Y-102561430D01*
X110736789Y-102561034D01*
X110694381Y-102536087D01*
X110651537Y-102497468D01*
X110615986Y-102453306D01*
X110595459Y-102411727D01*
X110589374Y-102381334D01*
X110584164Y-102324429D01*
X110583291Y-102273705D01*
X110709976Y-102273705D01*
X110717549Y-102334545D01*
X110735341Y-102384538D01*
X110762296Y-102417204D01*
X110772513Y-102422812D01*
X110811473Y-102433007D01*
X110856536Y-102435104D01*
X110894448Y-102428020D01*
X110909244Y-102417861D01*
X110930014Y-102382334D01*
X110943083Y-102326732D01*
X110947624Y-102253766D01*
X110947551Y-102232762D01*
X110945974Y-102190203D01*
X110940728Y-102162439D01*
X110929723Y-102141925D01*
X110910868Y-102121112D01*
X110874989Y-102095887D01*
X110828280Y-102085573D01*
X110783151Y-102095396D01*
X110745680Y-102123805D01*
X110721943Y-102169253D01*
X110713675Y-102208497D01*
X110709976Y-102273705D01*
X110583291Y-102273705D01*
X110583049Y-102259621D01*
X110585844Y-102195116D01*
X110592366Y-102139121D01*
X110602432Y-102099842D01*
X110625877Y-102055372D01*
X110675637Y-102000692D01*
X110739238Y-101966055D01*
X110814790Y-101952345D01*
X110900399Y-101960448D01*
X110914644Y-101963899D01*
X110980982Y-101993664D01*
X111030971Y-102042530D01*
X111064612Y-102110501D01*
X111081906Y-102197580D01*
X111082410Y-102253766D01*
X111082857Y-102303771D01*
X111079349Y-102343565D01*
G36*
X109283409Y-101961493D02*
G01*
X109352021Y-101988224D01*
X109410048Y-102032351D01*
X109452907Y-102092958D01*
X109455801Y-102099137D01*
X109474176Y-102159409D01*
X109483357Y-102231407D01*
X109483285Y-102306369D01*
X109473901Y-102375536D01*
X109455149Y-102430149D01*
X109431995Y-102468212D01*
X109381030Y-102522135D01*
X109317306Y-102556411D01*
X109262785Y-102570272D01*
X109179767Y-102571785D01*
X109100326Y-102550882D01*
X109029879Y-102508464D01*
X108984284Y-102470880D01*
X109025351Y-102428510D01*
X109051296Y-102403409D01*
X109074764Y-102389434D01*
X109096524Y-102392511D01*
X109124356Y-102411287D01*
X109135454Y-102418638D01*
X109182337Y-102433683D01*
X109236224Y-102433673D01*
X109286675Y-102418168D01*
X109305672Y-102405716D01*
X109333537Y-102368946D01*
X109347506Y-102314939D01*
X109348405Y-102241331D01*
X109348403Y-102241289D01*
X109338009Y-102175433D01*
X109315114Y-102129772D01*
X109277439Y-102101528D01*
X109222708Y-102087920D01*
X109188241Y-102086090D01*
X109158126Y-102093584D01*
X109127240Y-102115295D01*
X109087272Y-102148926D01*
X109036656Y-102108250D01*
X109018163Y-102092667D01*
X108995065Y-102070340D01*
X108986039Y-102057183D01*
X108989236Y-102051253D01*
X109007646Y-102033048D01*
X109036973Y-102009895D01*
X109059920Y-101994830D01*
X109132774Y-101963880D01*
X109208799Y-101953073D01*
X109283409Y-101961493D01*
G37*
X109283409Y-101961493D02*
X109352021Y-101988224D01*
X109410048Y-102032351D01*
X109452907Y-102092958D01*
X109455801Y-102099137D01*
X109474176Y-102159409D01*
X109483357Y-102231407D01*
X109483285Y-102306369D01*
X109473901Y-102375536D01*
X109455149Y-102430149D01*
X109431995Y-102468212D01*
X109381030Y-102522135D01*
X109317306Y-102556411D01*
X109262785Y-102570272D01*
X109179767Y-102571785D01*
X109100326Y-102550882D01*
X109029879Y-102508464D01*
X108984284Y-102470880D01*
X109025351Y-102428510D01*
X109051296Y-102403409D01*
X109074764Y-102389434D01*
X109096524Y-102392511D01*
X109124356Y-102411287D01*
X109135454Y-102418638D01*
X109182337Y-102433683D01*
X109236224Y-102433673D01*
X109286675Y-102418168D01*
X109305672Y-102405716D01*
X109333537Y-102368946D01*
X109347506Y-102314939D01*
X109348405Y-102241331D01*
X109348403Y-102241289D01*
X109338009Y-102175433D01*
X109315114Y-102129772D01*
X109277439Y-102101528D01*
X109222708Y-102087920D01*
X109188241Y-102086090D01*
X109158126Y-102093584D01*
X109127240Y-102115295D01*
X109087272Y-102148926D01*
X109036656Y-102108250D01*
X109018163Y-102092667D01*
X108995065Y-102070340D01*
X108986039Y-102057183D01*
X108989236Y-102051253D01*
X109007646Y-102033048D01*
X109036973Y-102009895D01*
X109059920Y-101994830D01*
X109132774Y-101963880D01*
X109208799Y-101953073D01*
X109283409Y-101961493D01*
G36*
X109637128Y-101953945D02*
G01*
X109667954Y-101963568D01*
X109705916Y-101979563D01*
X109724296Y-101988159D01*
X109737561Y-101989713D01*
X109740495Y-101977798D01*
X109740498Y-101977461D01*
X109746709Y-101966087D01*
X109768131Y-101960256D01*
X109809653Y-101958614D01*
X109878812Y-101958614D01*
X109878812Y-102562179D01*
X109740495Y-102562179D01*
X109740495Y-102146027D01*
X109706110Y-102114161D01*
X109695368Y-102105104D01*
X109663370Y-102089630D01*
X109623965Y-102089010D01*
X109570312Y-102102664D01*
X109552225Y-102103529D01*
X109531008Y-102090283D01*
X109502768Y-102058800D01*
X109489069Y-102041385D01*
X109472868Y-102016797D01*
X109470371Y-102001145D01*
X109479442Y-101987941D01*
X109507289Y-101971245D01*
X109550540Y-101958030D01*
X109597464Y-101951478D01*
X109637128Y-101953945D01*
G37*
X109637128Y-101953945D02*
X109667954Y-101963568D01*
X109705916Y-101979563D01*
X109724296Y-101988159D01*
X109737561Y-101989713D01*
X109740495Y-101977798D01*
X109740498Y-101977461D01*
X109746709Y-101966087D01*
X109768131Y-101960256D01*
X109809653Y-101958614D01*
X109878812Y-101958614D01*
X109878812Y-102562179D01*
X109740495Y-102562179D01*
X109740495Y-102146027D01*
X109706110Y-102114161D01*
X109695368Y-102105104D01*
X109663370Y-102089630D01*
X109623965Y-102089010D01*
X109570312Y-102102664D01*
X109552225Y-102103529D01*
X109531008Y-102090283D01*
X109502768Y-102058800D01*
X109489069Y-102041385D01*
X109472868Y-102016797D01*
X109470371Y-102001145D01*
X109479442Y-101987941D01*
X109507289Y-101971245D01*
X109550540Y-101958030D01*
X109597464Y-101951478D01*
X109637128Y-101953945D01*
G36*
X113057157Y-103351882D02*
G01*
X113041835Y-103416479D01*
X113007753Y-103465063D01*
X112953218Y-103500072D01*
X112925036Y-103508589D01*
X112876764Y-103515228D01*
X112823978Y-103516813D01*
X112776353Y-103513160D01*
X112743566Y-103504083D01*
X112723652Y-103496813D01*
X112704155Y-103504083D01*
X112697023Y-103508295D01*
X112668557Y-103515126D01*
X112630059Y-103517822D01*
X112569703Y-103517822D01*
X112569703Y-103302111D01*
X112708020Y-103302111D01*
X112712668Y-103338904D01*
X112731015Y-103371269D01*
X112741514Y-103378274D01*
X112778988Y-103389191D01*
X112825773Y-103391917D01*
X112871652Y-103386379D01*
X112906410Y-103372505D01*
X112923726Y-103354161D01*
X112934356Y-103321566D01*
X112924929Y-103295729D01*
X112893764Y-103273263D01*
X112843667Y-103258850D01*
X112777582Y-103253763D01*
X112708020Y-103253763D01*
X112708020Y-103302111D01*
X112569703Y-103302111D01*
X112569703Y-103274484D01*
X112569707Y-103253440D01*
X112569937Y-103174122D01*
X112570797Y-103115154D01*
X112572679Y-103072616D01*
X112575974Y-103042592D01*
X112581073Y-103021163D01*
X112588366Y-103004411D01*
X112598246Y-102988419D01*
X112630023Y-102950948D01*
X112675055Y-102922339D01*
X112734210Y-102906555D01*
X112812161Y-102901703D01*
X112814695Y-102901708D01*
X112868880Y-102904155D01*
X112917380Y-102910256D01*
X112950478Y-102918809D01*
X112959552Y-102923096D01*
X112988433Y-102941248D01*
X113014568Y-102962822D01*
X113031764Y-102982236D01*
X113033825Y-102993909D01*
X113029803Y-102997063D01*
X112985976Y-103030739D01*
X112956671Y-103050600D01*
X112937294Y-103058613D01*
X112923253Y-103056746D01*
X112909957Y-103046965D01*
X112885418Y-103034756D01*
X112844064Y-103026615D01*
X112797326Y-103024503D01*
X112755034Y-103028800D01*
X112727017Y-103039887D01*
X112725543Y-103041236D01*
X112712953Y-103066581D01*
X112708020Y-103104411D01*
X112708020Y-103153169D01*
X112824331Y-103153216D01*
X112877760Y-103154061D01*
X112922735Y-103157740D01*
X112954907Y-103165309D01*
X112980899Y-103177808D01*
X112986948Y-103181647D01*
X113030710Y-103223845D01*
X113053987Y-103279647D01*
X113055955Y-103321566D01*
X113057299Y-103350223D01*
X113057157Y-103351882D01*
G37*
X113057157Y-103351882D02*
X113041835Y-103416479D01*
X113007753Y-103465063D01*
X112953218Y-103500072D01*
X112925036Y-103508589D01*
X112876764Y-103515228D01*
X112823978Y-103516813D01*
X112776353Y-103513160D01*
X112743566Y-103504083D01*
X112723652Y-103496813D01*
X112704155Y-103504083D01*
X112697023Y-103508295D01*
X112668557Y-103515126D01*
X112630059Y-103517822D01*
X112569703Y-103517822D01*
X112569703Y-103302111D01*
X112708020Y-103302111D01*
X112712668Y-103338904D01*
X112731015Y-103371269D01*
X112741514Y-103378274D01*
X112778988Y-103389191D01*
X112825773Y-103391917D01*
X112871652Y-103386379D01*
X112906410Y-103372505D01*
X112923726Y-103354161D01*
X112934356Y-103321566D01*
X112924929Y-103295729D01*
X112893764Y-103273263D01*
X112843667Y-103258850D01*
X112777582Y-103253763D01*
X112708020Y-103253763D01*
X112708020Y-103302111D01*
X112569703Y-103302111D01*
X112569703Y-103274484D01*
X112569707Y-103253440D01*
X112569937Y-103174122D01*
X112570797Y-103115154D01*
X112572679Y-103072616D01*
X112575974Y-103042592D01*
X112581073Y-103021163D01*
X112588366Y-103004411D01*
X112598246Y-102988419D01*
X112630023Y-102950948D01*
X112675055Y-102922339D01*
X112734210Y-102906555D01*
X112812161Y-102901703D01*
X112814695Y-102901708D01*
X112868880Y-102904155D01*
X112917380Y-102910256D01*
X112950478Y-102918809D01*
X112959552Y-102923096D01*
X112988433Y-102941248D01*
X113014568Y-102962822D01*
X113031764Y-102982236D01*
X113033825Y-102993909D01*
X113029803Y-102997063D01*
X112985976Y-103030739D01*
X112956671Y-103050600D01*
X112937294Y-103058613D01*
X112923253Y-103056746D01*
X112909957Y-103046965D01*
X112885418Y-103034756D01*
X112844064Y-103026615D01*
X112797326Y-103024503D01*
X112755034Y-103028800D01*
X112727017Y-103039887D01*
X112725543Y-103041236D01*
X112712953Y-103066581D01*
X112708020Y-103104411D01*
X112708020Y-103153169D01*
X112824331Y-103153216D01*
X112877760Y-103154061D01*
X112922735Y-103157740D01*
X112954907Y-103165309D01*
X112980899Y-103177808D01*
X112986948Y-103181647D01*
X113030710Y-103223845D01*
X113053987Y-103279647D01*
X113055955Y-103321566D01*
X113057299Y-103350223D01*
X113057157Y-103351882D01*
%TD*%
M02*
