G04 EAGLE Gerber X2 export*
%TF.Part,Single*%
%TF.FileFunction,Other,top copper*%
%TF.FilePolarity,Positive*%
%TF.GenerationSoftware,Autodesk,EAGLE,9.6.2*%
%TF.CreationDate,2022-04-17T12:17:04Z*%
G75*
%MOMM*%
%FSLAX34Y34*%
%LPD*%
%INtop copper*%
%AMOC8*
5,1,8,0,0,1.08239X$1,22.5*%
G01*
%ADD10C,0.000000*%
%ADD11R,0.900000X0.500000*%
%ADD12R,1.350000X0.450000*%
%ADD13R,2.540000X1.270000*%
%ADD14R,3.500000X0.300000*%
%ADD15R,1.270000X2.540000*%
%ADD16C,0.450000*%
%ADD17C,0.254000*%
%ADD18C,0.406400*%
%ADD19C,0.600000*%
%ADD20C,0.455000*%
%ADD21C,0.304800*%
%ADD22C,0.609600*%
%ADD23C,0.430000*%
%ADD24C,1.000000*%
%ADD25C,1.016000*%
%ADD26C,0.812800*%
%ADD27C,1.040000*%


D10*
X0Y-36000D02*
X3000Y-39000D01*
X32500Y-39000D01*
X0Y113500D02*
X1000Y114500D01*
X0Y113500D02*
X0Y107500D01*
X0Y94000D02*
X0Y75000D01*
X1000Y74000D01*
X4000Y74000D01*
X5000Y73000D01*
X5000Y70000D02*
X4000Y69000D01*
X1000Y69000D01*
X0Y68000D01*
X5000Y70000D02*
X5000Y73000D01*
X0Y68000D02*
X0Y42500D01*
X1000Y41500D01*
X4000Y41500D01*
X5000Y40500D01*
X5000Y37500D02*
X4000Y36500D01*
X1000Y36500D01*
X0Y35500D01*
X5000Y37500D02*
X5000Y40500D01*
X0Y42000D02*
X0Y35500D01*
X0Y16500D02*
X1000Y15500D01*
X4000Y15500D01*
X5000Y14500D01*
X5000Y11500D02*
X4000Y10500D01*
X1000Y10500D01*
X0Y9500D01*
X5000Y11500D02*
X5000Y14500D01*
X0Y-16500D02*
X0Y-36000D01*
X0Y-9500D02*
X0Y9500D01*
X0Y16500D02*
X0Y35500D01*
X0Y-9500D02*
X1000Y-10500D01*
X4000Y-10500D02*
X5000Y-11500D01*
X4000Y-10500D02*
X1000Y-10500D01*
X5000Y-11500D02*
X5000Y-14500D01*
X4000Y-15500D01*
X1000Y-15500D01*
X0Y-16500D01*
X1000Y106500D02*
X0Y107500D01*
X1000Y106500D02*
X4000Y106500D01*
X5000Y105500D01*
X5000Y96000D01*
X4000Y95000D01*
X1000Y95000D01*
X0Y94000D01*
X1000Y114500D02*
X5000Y114500D01*
X7500Y117000D01*
X7500Y122000D01*
X11500Y126000D01*
X270000Y126000D01*
X272000Y124000D01*
X272000Y112000D01*
X270000Y110000D01*
X129000Y110000D01*
X126000Y107000D02*
X126000Y104000D01*
X129000Y101000D02*
X295000Y101000D01*
X301000Y108000D02*
X301000Y128000D01*
X295000Y135000D02*
X175000Y135000D01*
X173000Y137000D01*
X173000Y149000D01*
X175000Y151000D01*
X339000Y151000D01*
X382500Y107500D01*
X1295500Y107500D02*
X1296000Y107000D01*
X1296000Y-46500D01*
X1295000Y-47500D01*
X1295500Y107500D02*
X1254000Y107500D01*
X1187000Y107500D02*
X382500Y107500D01*
X129000Y110000D02*
X128893Y109998D01*
X128786Y109992D01*
X128679Y109983D01*
X128573Y109969D01*
X128467Y109952D01*
X128362Y109931D01*
X128258Y109907D01*
X128155Y109878D01*
X128053Y109846D01*
X127952Y109811D01*
X127852Y109772D01*
X127754Y109729D01*
X127657Y109683D01*
X127562Y109633D01*
X127469Y109580D01*
X127378Y109524D01*
X127289Y109464D01*
X127202Y109402D01*
X127118Y109336D01*
X127035Y109267D01*
X126956Y109196D01*
X126879Y109121D01*
X126804Y109044D01*
X126733Y108965D01*
X126664Y108882D01*
X126598Y108798D01*
X126536Y108711D01*
X126476Y108622D01*
X126420Y108531D01*
X126367Y108438D01*
X126317Y108343D01*
X126271Y108246D01*
X126228Y108148D01*
X126189Y108048D01*
X126154Y107947D01*
X126122Y107845D01*
X126093Y107742D01*
X126069Y107638D01*
X126048Y107533D01*
X126031Y107427D01*
X126017Y107321D01*
X126008Y107214D01*
X126002Y107107D01*
X126000Y107000D01*
X126000Y104000D02*
X126002Y103893D01*
X126008Y103786D01*
X126017Y103679D01*
X126031Y103573D01*
X126048Y103467D01*
X126069Y103362D01*
X126093Y103258D01*
X126122Y103155D01*
X126154Y103053D01*
X126189Y102952D01*
X126228Y102852D01*
X126271Y102754D01*
X126317Y102657D01*
X126367Y102562D01*
X126420Y102469D01*
X126476Y102378D01*
X126536Y102289D01*
X126598Y102202D01*
X126664Y102118D01*
X126733Y102035D01*
X126804Y101956D01*
X126879Y101879D01*
X126956Y101804D01*
X127035Y101733D01*
X127118Y101664D01*
X127202Y101598D01*
X127289Y101536D01*
X127378Y101476D01*
X127469Y101420D01*
X127562Y101367D01*
X127657Y101317D01*
X127754Y101271D01*
X127852Y101228D01*
X127952Y101189D01*
X128053Y101154D01*
X128155Y101122D01*
X128258Y101093D01*
X128362Y101069D01*
X128467Y101048D01*
X128573Y101031D01*
X128679Y101017D01*
X128786Y101008D01*
X128893Y101002D01*
X129000Y101000D01*
X295000Y101000D02*
X295159Y101014D01*
X295318Y101033D01*
X295477Y101055D01*
X295635Y101081D01*
X295792Y101110D01*
X295948Y101144D01*
X296104Y101181D01*
X296258Y101223D01*
X296412Y101268D01*
X296564Y101316D01*
X296715Y101369D01*
X296865Y101425D01*
X297014Y101485D01*
X297160Y101549D01*
X297306Y101616D01*
X297449Y101686D01*
X297591Y101760D01*
X297731Y101838D01*
X297869Y101919D01*
X298005Y102003D01*
X298139Y102091D01*
X298270Y102182D01*
X298400Y102276D01*
X298527Y102373D01*
X298651Y102474D01*
X298774Y102577D01*
X298893Y102684D01*
X299010Y102793D01*
X299124Y102905D01*
X299235Y103020D01*
X299344Y103137D01*
X299450Y103257D01*
X299552Y103380D01*
X299652Y103505D01*
X299748Y103633D01*
X299842Y103763D01*
X299932Y103895D01*
X300019Y104030D01*
X300102Y104166D01*
X300182Y104305D01*
X300259Y104445D01*
X300332Y104587D01*
X300402Y104731D01*
X300468Y104877D01*
X300531Y105024D01*
X300590Y105173D01*
X300645Y105323D01*
X300696Y105475D01*
X300744Y105627D01*
X300788Y105781D01*
X300829Y105936D01*
X300865Y106092D01*
X300898Y106248D01*
X300926Y106406D01*
X300951Y106564D01*
X300972Y106722D01*
X300990Y106881D01*
X301003Y107041D01*
X301012Y107201D01*
X301018Y107360D01*
X301019Y107520D01*
X301017Y107680D01*
X301010Y107840D01*
X301000Y108000D01*
X301000Y128000D02*
X301021Y128153D01*
X301039Y128306D01*
X301053Y128459D01*
X301063Y128613D01*
X301069Y128767D01*
X301071Y128921D01*
X301069Y129074D01*
X301064Y129228D01*
X301054Y129382D01*
X301041Y129535D01*
X301023Y129688D01*
X301002Y129841D01*
X300977Y129993D01*
X300948Y130144D01*
X300915Y130294D01*
X300879Y130444D01*
X300839Y130592D01*
X300795Y130740D01*
X300747Y130886D01*
X300695Y131031D01*
X300640Y131175D01*
X300581Y131317D01*
X300519Y131458D01*
X300453Y131597D01*
X300384Y131735D01*
X300311Y131870D01*
X300235Y132004D01*
X300155Y132136D01*
X300072Y132265D01*
X299986Y132393D01*
X299896Y132518D01*
X299804Y132641D01*
X299708Y132762D01*
X299609Y132880D01*
X299508Y132996D01*
X299403Y133109D01*
X299296Y133219D01*
X299186Y133326D01*
X299073Y133431D01*
X298957Y133533D01*
X298839Y133632D01*
X298719Y133728D01*
X298596Y133820D01*
X298471Y133910D01*
X298343Y133996D01*
X298214Y134080D01*
X298082Y134159D01*
X297949Y134236D01*
X297813Y134309D01*
X297676Y134378D01*
X297537Y134445D01*
X297396Y134507D01*
X297254Y134566D01*
X297110Y134621D01*
X296965Y134673D01*
X296819Y134721D01*
X296672Y134765D01*
X296523Y134806D01*
X296374Y134843D01*
X296223Y134876D01*
X296072Y134905D01*
X295920Y134930D01*
X295768Y134951D01*
X295615Y134969D01*
X295461Y134982D01*
X295308Y134992D01*
X295154Y134998D01*
X295000Y135000D01*
X102000Y-52000D02*
X45500Y-52000D01*
X32500Y-39000D01*
X102000Y-52000D02*
X129000Y-25000D01*
X473000Y-31000D02*
X473000Y-34000D01*
X467000Y-40000D02*
X176000Y-40000D01*
X174000Y-42000D01*
X174000Y-55000D01*
X176000Y-57000D01*
X467000Y-24999D02*
X467148Y-24990D01*
X467296Y-24985D01*
X467445Y-24983D01*
X467593Y-24985D01*
X467741Y-24992D01*
X467889Y-25002D01*
X468036Y-25016D01*
X468184Y-25034D01*
X468330Y-25056D01*
X468476Y-25082D01*
X468621Y-25112D01*
X468766Y-25145D01*
X468909Y-25183D01*
X469052Y-25224D01*
X469193Y-25269D01*
X469333Y-25317D01*
X469472Y-25370D01*
X469609Y-25426D01*
X469745Y-25485D01*
X469879Y-25549D01*
X470011Y-25615D01*
X470142Y-25686D01*
X470270Y-25759D01*
X470397Y-25836D01*
X470521Y-25917D01*
X470644Y-26000D01*
X470764Y-26087D01*
X470882Y-26177D01*
X470997Y-26270D01*
X471110Y-26367D01*
X471220Y-26466D01*
X471328Y-26568D01*
X471432Y-26672D01*
X471534Y-26780D01*
X471633Y-26890D01*
X471730Y-27003D01*
X471823Y-27118D01*
X471913Y-27236D01*
X472000Y-27356D01*
X472083Y-27479D01*
X472164Y-27603D01*
X472241Y-27730D01*
X472314Y-27858D01*
X472385Y-27989D01*
X472451Y-28121D01*
X472515Y-28255D01*
X472574Y-28391D01*
X472630Y-28528D01*
X472683Y-28667D01*
X472731Y-28807D01*
X472776Y-28948D01*
X472817Y-29091D01*
X472855Y-29234D01*
X472888Y-29379D01*
X472918Y-29524D01*
X472944Y-29670D01*
X472966Y-29816D01*
X472984Y-29964D01*
X472998Y-30111D01*
X473008Y-30259D01*
X473015Y-30407D01*
X473017Y-30555D01*
X473015Y-30704D01*
X473010Y-30852D01*
X473001Y-31000D01*
X473001Y-34000D02*
X473010Y-34148D01*
X473015Y-34296D01*
X473017Y-34445D01*
X473015Y-34593D01*
X473008Y-34741D01*
X472998Y-34889D01*
X472984Y-35036D01*
X472966Y-35184D01*
X472944Y-35330D01*
X472918Y-35476D01*
X472888Y-35621D01*
X472855Y-35766D01*
X472817Y-35909D01*
X472776Y-36052D01*
X472731Y-36193D01*
X472683Y-36333D01*
X472630Y-36472D01*
X472574Y-36609D01*
X472515Y-36745D01*
X472451Y-36879D01*
X472385Y-37011D01*
X472314Y-37142D01*
X472241Y-37270D01*
X472164Y-37397D01*
X472083Y-37521D01*
X472000Y-37644D01*
X471913Y-37764D01*
X471823Y-37882D01*
X471730Y-37997D01*
X471633Y-38110D01*
X471534Y-38220D01*
X471432Y-38328D01*
X471328Y-38432D01*
X471220Y-38534D01*
X471110Y-38633D01*
X470997Y-38730D01*
X470882Y-38823D01*
X470764Y-38913D01*
X470644Y-39000D01*
X470521Y-39083D01*
X470397Y-39164D01*
X470270Y-39241D01*
X470142Y-39314D01*
X470011Y-39385D01*
X469879Y-39451D01*
X469745Y-39515D01*
X469609Y-39574D01*
X469472Y-39630D01*
X469333Y-39683D01*
X469193Y-39731D01*
X469052Y-39776D01*
X468909Y-39817D01*
X468766Y-39855D01*
X468621Y-39888D01*
X468476Y-39918D01*
X468330Y-39944D01*
X468184Y-39966D01*
X468036Y-39984D01*
X467889Y-39998D01*
X467741Y-40008D01*
X467593Y-40015D01*
X467445Y-40017D01*
X467296Y-40015D01*
X467148Y-40010D01*
X467000Y-40001D01*
X467000Y-25000D02*
X129000Y-25000D01*
X7000Y-85000D02*
X5000Y-83000D01*
X5000Y-71000D01*
X7000Y-69000D01*
X72000Y-69000D01*
X81000Y-60000D01*
X108000Y-60000D01*
X117000Y-51000D01*
X152000Y-51000D01*
X165000Y-64000D01*
X180000Y-64000D01*
X391000Y-56999D02*
X391148Y-56990D01*
X391296Y-56985D01*
X391445Y-56983D01*
X391593Y-56985D01*
X391741Y-56992D01*
X391889Y-57002D01*
X392036Y-57016D01*
X392184Y-57034D01*
X392330Y-57056D01*
X392476Y-57082D01*
X392621Y-57112D01*
X392766Y-57145D01*
X392909Y-57183D01*
X393052Y-57224D01*
X393193Y-57269D01*
X393333Y-57317D01*
X393472Y-57370D01*
X393609Y-57426D01*
X393745Y-57485D01*
X393879Y-57549D01*
X394011Y-57615D01*
X394142Y-57686D01*
X394270Y-57759D01*
X394397Y-57836D01*
X394521Y-57917D01*
X394644Y-58000D01*
X394764Y-58087D01*
X394882Y-58177D01*
X394997Y-58270D01*
X395110Y-58367D01*
X395220Y-58466D01*
X395328Y-58568D01*
X395432Y-58672D01*
X395534Y-58780D01*
X395633Y-58890D01*
X395730Y-59003D01*
X395823Y-59118D01*
X395913Y-59236D01*
X396000Y-59356D01*
X396083Y-59479D01*
X396164Y-59603D01*
X396241Y-59730D01*
X396314Y-59858D01*
X396385Y-59989D01*
X396451Y-60121D01*
X396515Y-60255D01*
X396574Y-60391D01*
X396630Y-60528D01*
X396683Y-60667D01*
X396731Y-60807D01*
X396776Y-60948D01*
X396817Y-61091D01*
X396855Y-61234D01*
X396888Y-61379D01*
X396918Y-61524D01*
X396944Y-61670D01*
X396966Y-61816D01*
X396984Y-61964D01*
X396998Y-62111D01*
X397008Y-62259D01*
X397015Y-62407D01*
X397017Y-62555D01*
X397015Y-62704D01*
X397010Y-62852D01*
X397001Y-63000D01*
X397000Y-63000D02*
X397000Y-66000D01*
X397001Y-66000D02*
X397010Y-66148D01*
X397015Y-66296D01*
X397017Y-66445D01*
X397015Y-66593D01*
X397008Y-66741D01*
X396998Y-66889D01*
X396984Y-67036D01*
X396966Y-67184D01*
X396944Y-67330D01*
X396918Y-67476D01*
X396888Y-67621D01*
X396855Y-67766D01*
X396817Y-67909D01*
X396776Y-68052D01*
X396731Y-68193D01*
X396683Y-68333D01*
X396630Y-68472D01*
X396574Y-68609D01*
X396515Y-68745D01*
X396451Y-68879D01*
X396385Y-69011D01*
X396314Y-69142D01*
X396241Y-69270D01*
X396164Y-69397D01*
X396083Y-69521D01*
X396000Y-69644D01*
X395913Y-69764D01*
X395823Y-69882D01*
X395730Y-69997D01*
X395633Y-70110D01*
X395534Y-70220D01*
X395432Y-70328D01*
X395328Y-70432D01*
X395220Y-70534D01*
X395110Y-70633D01*
X394997Y-70730D01*
X394882Y-70823D01*
X394764Y-70913D01*
X394644Y-71000D01*
X394521Y-71083D01*
X394397Y-71164D01*
X394270Y-71241D01*
X394142Y-71314D01*
X394011Y-71385D01*
X393879Y-71451D01*
X393745Y-71515D01*
X393609Y-71574D01*
X393472Y-71630D01*
X393333Y-71683D01*
X393193Y-71731D01*
X393052Y-71776D01*
X392909Y-71817D01*
X392766Y-71855D01*
X392621Y-71888D01*
X392476Y-71918D01*
X392330Y-71944D01*
X392184Y-71966D01*
X392036Y-71984D01*
X391889Y-71998D01*
X391741Y-72008D01*
X391593Y-72015D01*
X391445Y-72017D01*
X391296Y-72015D01*
X391148Y-72010D01*
X391000Y-72001D01*
X391000Y-72000D02*
X188000Y-72000D01*
X180000Y-64000D01*
X176000Y-57000D02*
X391000Y-57000D01*
X72000Y-85000D02*
X7000Y-85000D01*
X72000Y-85000D02*
X86000Y-99000D01*
X474500Y-99000D01*
X526000Y-47500D01*
X1187000Y-47500D02*
X1200500Y-61000D01*
X1240500Y-61000D01*
X1254000Y-47500D01*
X1295000Y-47500D01*
X1187000Y-47500D02*
X526000Y-47500D01*
X1187000Y107500D02*
X1200500Y121000D01*
X1240500Y121000D01*
X1254000Y107500D01*
D11*
X57000Y106000D03*
X57000Y98000D03*
X57000Y90000D03*
X57000Y82000D03*
X73000Y82000D03*
X73000Y90000D03*
X73000Y98000D03*
X73000Y106000D03*
X57000Y64000D03*
X57000Y56000D03*
X57000Y48000D03*
X57000Y40000D03*
X73000Y40000D03*
X73000Y48000D03*
X73000Y56000D03*
X73000Y64000D03*
X57000Y22000D03*
X57000Y14000D03*
X57000Y6000D03*
X57000Y-2000D03*
X73000Y-2000D03*
X73000Y6000D03*
X73000Y14000D03*
X73000Y22000D03*
D12*
X6500Y0D03*
X6500Y6500D03*
X6500Y19500D03*
X6500Y26000D03*
X6500Y32500D03*
X6500Y45500D03*
X6500Y52000D03*
X6500Y58500D03*
X6500Y65000D03*
X6500Y78000D03*
X6500Y84500D03*
X6500Y91000D03*
X6500Y-6500D03*
X6500Y-19500D03*
X6500Y-26000D03*
X6500Y-32500D03*
D11*
X73000Y-44000D03*
X73000Y-36000D03*
X73000Y-28000D03*
X73000Y-20000D03*
X57000Y-20000D03*
X57000Y-28000D03*
X57000Y-36000D03*
X57000Y-44000D03*
D12*
X6500Y110500D03*
D13*
X269500Y118000D03*
X176000Y143000D03*
D14*
X1275500Y102500D03*
X1275500Y97500D03*
X1275500Y92500D03*
X1275500Y87500D03*
X1275500Y82500D03*
X1275500Y77500D03*
X1275500Y72500D03*
X1275500Y67500D03*
X1275500Y62500D03*
X1275500Y57500D03*
X1275500Y52500D03*
X1275500Y47500D03*
X1275500Y42500D03*
X1275500Y37500D03*
X1275500Y32500D03*
X1275500Y27500D03*
X1275500Y22500D03*
X1275500Y17500D03*
X1275500Y12500D03*
X1275500Y7500D03*
X1275500Y2500D03*
X1275500Y-2500D03*
X1275500Y-7500D03*
X1275500Y-12500D03*
X1275500Y-17500D03*
X1275500Y-22500D03*
X1275500Y-27500D03*
X1275500Y-32500D03*
X1275500Y-37500D03*
X1275500Y-42500D03*
D13*
X177500Y-48000D03*
X9500Y-77000D03*
D15*
X318000Y112500D03*
D16*
X6500Y0D03*
D17*
X26000Y0D01*
X45500Y6000D01*
X57000Y6000D01*
D16*
X6500Y65000D03*
X6500Y32500D03*
X6500Y6500D03*
X6500Y-19500D03*
X0Y-19500D03*
D18*
X6500Y65000D02*
X15000Y65000D01*
X19500Y65000D01*
X14500Y-19500D02*
X6500Y-19500D01*
D19*
X19500Y-19500D03*
D18*
X14500Y-19500D01*
D19*
X19500Y65000D03*
X19500Y32500D03*
D20*
X19500Y6500D03*
D18*
X19500Y32500D02*
X14500Y32500D01*
D16*
X0Y110500D03*
X6500Y110500D03*
D19*
X19500Y110500D03*
D18*
X14500Y32500D02*
X6500Y32500D01*
X6500Y110500D02*
X15000Y110500D01*
X19500Y110500D01*
X19500Y6500D02*
X6500Y6500D01*
D17*
X6500Y-19500D02*
X0Y-19500D01*
D16*
X0Y65000D03*
X0Y32500D03*
X0Y6500D03*
D17*
X3270Y6500D02*
X6500Y6500D01*
D21*
X45500Y14000D02*
X57000Y14000D01*
X45500Y14000D02*
X26000Y6500D01*
X19500Y6500D01*
X24037Y109715D02*
X19500Y110500D01*
X24037Y109715D02*
X45500Y106000D01*
X57000Y106000D01*
X73000Y106000D01*
X78000Y106000D01*
D19*
X45500Y31000D03*
D21*
X69177Y31000D01*
X24000Y-19500D02*
X19500Y-19500D01*
X57000Y14000D02*
X73000Y14000D01*
D17*
X6500Y110500D02*
X3270Y110500D01*
D21*
X69177Y31000D02*
X86506Y29000D01*
X100500Y28000D01*
X89000Y104000D02*
X78000Y106000D01*
X89000Y104000D02*
X101000Y98000D01*
X107000Y89500D01*
X110500Y78500D01*
X113155Y74880D01*
X114697Y72777D01*
X116000Y71000D01*
D17*
X121000Y68000D01*
X120036Y72867D02*
X128000Y73000D01*
X120036Y72867D02*
X114697Y72777D01*
X113155Y74880D02*
X120036Y72867D01*
D19*
X19500Y103000D03*
X19500Y72000D03*
X19500Y39500D03*
X19500Y-12500D03*
D22*
X19500Y-19500D01*
X19500Y32500D02*
X19500Y39500D01*
X19500Y65000D02*
X19500Y72000D01*
X19500Y103000D02*
X19500Y110500D01*
D21*
X19500Y105178D02*
X19500Y103000D01*
X19500Y105178D02*
X24037Y109715D01*
X19500Y106000D02*
X19500Y103000D01*
X19500Y106000D02*
X15000Y110500D01*
X19500Y69500D02*
X15000Y65000D01*
X19500Y69500D02*
X19500Y72000D01*
X19500Y39500D02*
X19500Y37500D01*
X14500Y32500D01*
X19500Y-12500D02*
X19500Y-14500D01*
X14500Y-19500D01*
X19500Y-15000D02*
X19500Y-12500D01*
X19500Y-15000D02*
X24000Y-19500D01*
X47586Y-28000D02*
X57000Y-28000D01*
X47586Y-28000D02*
X47424Y-27998D01*
X47261Y-27992D01*
X47099Y-27983D01*
X46937Y-27969D01*
X46775Y-27952D01*
X46614Y-27931D01*
X46454Y-27905D01*
X46294Y-27877D01*
X46135Y-27844D01*
X45976Y-27808D01*
X45819Y-27767D01*
X45662Y-27723D01*
X45507Y-27676D01*
X45353Y-27624D01*
X45200Y-27569D01*
X45048Y-27511D01*
X44898Y-27449D01*
X44750Y-27383D01*
X44603Y-27314D01*
X44457Y-27241D01*
X44314Y-27165D01*
X44172Y-27085D01*
X44032Y-27002D01*
X43895Y-26916D01*
X43759Y-26827D01*
X43625Y-26734D01*
X43494Y-26638D01*
X43365Y-26539D01*
X43239Y-26437D01*
X43115Y-26332D01*
X42993Y-26224D01*
X42874Y-26114D01*
X42758Y-26000D01*
X27065Y-19500D02*
X24000Y-19500D01*
X27065Y-19500D02*
X27593Y-19506D01*
X28121Y-19525D01*
X28648Y-19557D01*
X29174Y-19600D01*
X29700Y-19657D01*
X30223Y-19726D01*
X30745Y-19807D01*
X31265Y-19901D01*
X31782Y-20007D01*
X32297Y-20126D01*
X32809Y-20256D01*
X33317Y-20399D01*
X33822Y-20554D01*
X34323Y-20721D01*
X34820Y-20899D01*
X35313Y-21090D01*
X35801Y-21292D01*
X36284Y-21505D01*
X36762Y-21731D01*
X37234Y-21967D01*
X37700Y-22215D01*
X38161Y-22473D01*
X38615Y-22743D01*
X39063Y-23023D01*
X39504Y-23314D01*
X39938Y-23615D01*
X40364Y-23926D01*
X40783Y-24248D01*
X41194Y-24579D01*
X41598Y-24920D01*
X41993Y-25271D01*
X42379Y-25631D01*
X42757Y-26000D01*
D19*
X44500Y-5000D03*
D21*
X51743Y-2000D02*
X57000Y-2000D01*
X51743Y-2000D02*
X51499Y-2003D01*
X51256Y-2012D01*
X51012Y-2026D01*
X50769Y-2046D01*
X50527Y-2072D01*
X50285Y-2104D01*
X50044Y-2142D01*
X49805Y-2185D01*
X49566Y-2234D01*
X49328Y-2289D01*
X49092Y-2349D01*
X48857Y-2415D01*
X48624Y-2486D01*
X48393Y-2563D01*
X48163Y-2646D01*
X47936Y-2734D01*
X47711Y-2827D01*
X47488Y-2926D01*
X47267Y-3030D01*
X47049Y-3139D01*
X46834Y-3253D01*
X46622Y-3372D01*
X46412Y-3497D01*
X46205Y-3626D01*
X46002Y-3760D01*
X45801Y-3899D01*
X45605Y-4043D01*
X45411Y-4191D01*
X45221Y-4344D01*
X45035Y-4502D01*
X44853Y-4664D01*
X44675Y-4830D01*
X44500Y-5000D01*
X57000Y-2000D02*
X73000Y-2000D01*
D23*
X1246500Y12500D03*
X1237500Y12500D03*
X1227500Y12500D03*
X1246500Y85500D03*
X1240500Y85500D03*
X1232500Y85500D03*
X1246500Y55500D03*
X1237500Y55500D03*
X1227500Y55500D03*
X1246500Y2500D03*
X1237500Y2500D03*
X1227500Y2500D03*
X1216500Y-7500D03*
X1227500Y-7500D03*
D18*
X1216500Y-7500D01*
X1227500Y2500D02*
X1237500Y2500D01*
X1246500Y2500D01*
X1246500Y12500D02*
X1237500Y12500D01*
X1227500Y12500D01*
X1227500Y55500D02*
X1237500Y55500D01*
X1246500Y55500D01*
D21*
X1251328Y57500D02*
X1275500Y57500D01*
X1251328Y57500D02*
X1251166Y57498D01*
X1251003Y57492D01*
X1250841Y57483D01*
X1250679Y57469D01*
X1250517Y57452D01*
X1250356Y57431D01*
X1250196Y57405D01*
X1250036Y57377D01*
X1249877Y57344D01*
X1249718Y57308D01*
X1249561Y57267D01*
X1249404Y57223D01*
X1249249Y57176D01*
X1249095Y57124D01*
X1248942Y57069D01*
X1248790Y57011D01*
X1248640Y56949D01*
X1248492Y56883D01*
X1248345Y56814D01*
X1248199Y56741D01*
X1248056Y56665D01*
X1247914Y56585D01*
X1247774Y56502D01*
X1247637Y56416D01*
X1247501Y56327D01*
X1247367Y56234D01*
X1247236Y56138D01*
X1247107Y56039D01*
X1246981Y55937D01*
X1246857Y55832D01*
X1246735Y55724D01*
X1246616Y55614D01*
X1246500Y55500D01*
X1253743Y52500D02*
X1275500Y52500D01*
X1253743Y52500D02*
X1253499Y52503D01*
X1253256Y52512D01*
X1253012Y52526D01*
X1252769Y52546D01*
X1252527Y52572D01*
X1252285Y52604D01*
X1252044Y52642D01*
X1251805Y52685D01*
X1251566Y52734D01*
X1251328Y52789D01*
X1251092Y52849D01*
X1250857Y52915D01*
X1250624Y52986D01*
X1250393Y53063D01*
X1250163Y53146D01*
X1249936Y53234D01*
X1249711Y53327D01*
X1249488Y53426D01*
X1249267Y53530D01*
X1249049Y53639D01*
X1248834Y53753D01*
X1248622Y53872D01*
X1248412Y53997D01*
X1248205Y54126D01*
X1248002Y54260D01*
X1247801Y54399D01*
X1247605Y54543D01*
X1247411Y54691D01*
X1247221Y54844D01*
X1247035Y55002D01*
X1246853Y55164D01*
X1246675Y55330D01*
X1246500Y55500D01*
X1251328Y87500D02*
X1275500Y87500D01*
X1251328Y87500D02*
X1251166Y87498D01*
X1251003Y87492D01*
X1250841Y87483D01*
X1250679Y87469D01*
X1250517Y87452D01*
X1250356Y87431D01*
X1250196Y87405D01*
X1250036Y87377D01*
X1249877Y87344D01*
X1249718Y87308D01*
X1249561Y87267D01*
X1249404Y87223D01*
X1249249Y87176D01*
X1249095Y87124D01*
X1248942Y87069D01*
X1248790Y87011D01*
X1248640Y86949D01*
X1248492Y86883D01*
X1248345Y86814D01*
X1248199Y86741D01*
X1248056Y86665D01*
X1247914Y86585D01*
X1247774Y86502D01*
X1247637Y86416D01*
X1247501Y86327D01*
X1247367Y86234D01*
X1247236Y86138D01*
X1247107Y86039D01*
X1246981Y85937D01*
X1246857Y85832D01*
X1246735Y85724D01*
X1246616Y85614D01*
X1246500Y85500D01*
X1253743Y82500D02*
X1275500Y82500D01*
X1253743Y82500D02*
X1253499Y82503D01*
X1253256Y82512D01*
X1253012Y82526D01*
X1252769Y82546D01*
X1252527Y82572D01*
X1252285Y82604D01*
X1252044Y82642D01*
X1251805Y82685D01*
X1251566Y82734D01*
X1251328Y82789D01*
X1251092Y82849D01*
X1250857Y82915D01*
X1250624Y82986D01*
X1250393Y83063D01*
X1250163Y83146D01*
X1249936Y83234D01*
X1249711Y83327D01*
X1249488Y83426D01*
X1249267Y83530D01*
X1249049Y83639D01*
X1248834Y83753D01*
X1248622Y83872D01*
X1248412Y83997D01*
X1248205Y84126D01*
X1248002Y84260D01*
X1247801Y84399D01*
X1247605Y84543D01*
X1247411Y84691D01*
X1247221Y84844D01*
X1247035Y85002D01*
X1246853Y85164D01*
X1246675Y85330D01*
X1246500Y85500D01*
X1246500Y12500D02*
X1275500Y12500D01*
X1275500Y2500D02*
X1246500Y2500D01*
D18*
X1240500Y85500D02*
X1232500Y85500D01*
X1240500Y85500D02*
X1246500Y85500D01*
D21*
X1227500Y12500D02*
X936021Y12500D01*
X935417Y12507D01*
X934812Y12529D01*
X934209Y12565D01*
X933607Y12615D01*
X933006Y12680D01*
X932406Y12759D01*
X931809Y12852D01*
X931214Y12959D01*
X930622Y13080D01*
X930033Y13216D01*
X929447Y13365D01*
X928865Y13529D01*
X928287Y13706D01*
X927713Y13897D01*
X927145Y14101D01*
X926581Y14319D01*
X926022Y14551D01*
X925469Y14795D01*
X924923Y15053D01*
X924382Y15324D01*
X923848Y15607D01*
X923321Y15903D01*
X922801Y16211D01*
X922289Y16532D01*
X921784Y16865D01*
X921288Y17210D01*
X920799Y17566D01*
X920320Y17934D01*
X919849Y18314D01*
X919388Y18704D01*
X918935Y19105D01*
X918493Y19517D01*
X918060Y19939D01*
X917440Y20561D02*
X916993Y20996D01*
X916537Y21420D01*
X916070Y21833D01*
X915593Y22234D01*
X915106Y22624D01*
X914610Y23001D01*
X914105Y23367D01*
X913590Y23719D01*
X913068Y24059D01*
X912537Y24386D01*
X911999Y24700D01*
X911452Y25001D01*
X910899Y25288D01*
X910339Y25561D01*
X909772Y25821D01*
X909199Y26067D01*
X908620Y26298D01*
X908036Y26515D01*
X907447Y26718D01*
X906852Y26906D01*
X906254Y27080D01*
X905651Y27239D01*
X905044Y27383D01*
X904434Y27512D01*
X903821Y27626D01*
X903206Y27725D01*
X902588Y27809D01*
X901969Y27878D01*
X901348Y27931D01*
X900725Y27969D01*
X900102Y27992D01*
X899479Y28000D01*
X917440Y20561D02*
X918061Y19940D01*
X899479Y28000D02*
X100500Y28000D01*
X886515Y14000D02*
X887018Y13994D01*
X887520Y13975D01*
X888022Y13944D01*
X888523Y13901D01*
X889023Y13846D01*
X889521Y13778D01*
X890017Y13698D01*
X890511Y13606D01*
X891003Y13502D01*
X891492Y13386D01*
X891979Y13258D01*
X892461Y13118D01*
X892941Y12966D01*
X893416Y12803D01*
X893887Y12627D01*
X894354Y12441D01*
X894816Y12243D01*
X895273Y12033D01*
X895725Y11813D01*
X896172Y11581D01*
X896612Y11339D01*
X897046Y11086D01*
X897474Y10822D01*
X897896Y10548D01*
X898310Y10263D01*
X898718Y9969D01*
X899118Y9664D01*
X899511Y9350D01*
X899895Y9026D01*
X900272Y8693D01*
X900640Y8351D01*
X901000Y8000D01*
X901330Y7678D01*
X901667Y7364D01*
X902013Y7059D01*
X902365Y6762D01*
X902725Y6474D01*
X903092Y6195D01*
X903465Y5925D01*
X903846Y5665D01*
X904232Y5413D01*
X904624Y5172D01*
X905022Y4940D01*
X905426Y4717D01*
X905835Y4505D01*
X906249Y4303D01*
X906668Y4111D01*
X907092Y3929D01*
X907520Y3758D01*
X907952Y3598D01*
X908388Y3448D01*
X908827Y3309D01*
X909270Y3180D01*
X909715Y3063D01*
X910164Y2956D01*
X910615Y2861D01*
X911068Y2776D01*
X911523Y2703D01*
X911979Y2641D01*
X912437Y2590D01*
X912897Y2551D01*
X913357Y2523D01*
X913817Y2506D01*
X914278Y2500D01*
X1227500Y2500D01*
X886515Y14000D02*
X73000Y14000D01*
X901571Y-7500D02*
X1227500Y-7500D01*
X901571Y-7500D02*
X604450Y-7500D01*
X604166Y-7497D01*
X603881Y-7486D01*
X603597Y-7470D01*
X603314Y-7446D01*
X603031Y-7415D01*
X602749Y-7378D01*
X602468Y-7335D01*
X602188Y-7284D01*
X601910Y-7227D01*
X601633Y-7163D01*
X601357Y-7093D01*
X601083Y-7016D01*
X600811Y-6933D01*
X600542Y-6843D01*
X600274Y-6747D01*
X600009Y-6644D01*
X599746Y-6535D01*
X599486Y-6420D01*
X599229Y-6299D01*
X598974Y-6172D01*
X598723Y-6038D01*
X598475Y-5899D01*
X598230Y-5754D01*
X597989Y-5603D01*
X597752Y-5446D01*
X597518Y-5284D01*
X597289Y-5116D01*
X597063Y-4943D01*
X596842Y-4765D01*
X596624Y-4581D01*
X596412Y-4392D01*
X596204Y-4199D01*
X596000Y-4000D01*
X595709Y-3716D01*
X595412Y-3439D01*
X595108Y-3170D01*
X594798Y-2907D01*
X594482Y-2652D01*
X594159Y-2405D01*
X593831Y-2165D01*
X593497Y-1934D01*
X593158Y-1710D01*
X592814Y-1494D01*
X592465Y-1287D01*
X592110Y-1088D01*
X591751Y-898D01*
X591388Y-716D01*
X591021Y-543D01*
X590649Y-378D01*
X590274Y-223D01*
X589895Y-76D01*
X589512Y61D01*
X589127Y189D01*
X588738Y309D01*
X588347Y418D01*
X587954Y519D01*
X587558Y610D01*
X587160Y692D01*
X586760Y764D01*
X586358Y826D01*
X585956Y879D01*
X585552Y923D01*
X585147Y957D01*
X584741Y981D01*
X584335Y995D01*
X583929Y1000D01*
X103828Y1000D02*
X103660Y998D01*
X103493Y992D01*
X103326Y981D01*
X103159Y967D01*
X102992Y949D01*
X102826Y926D01*
X102661Y899D01*
X102496Y869D01*
X102332Y834D01*
X102169Y795D01*
X102007Y753D01*
X101846Y706D01*
X101686Y655D01*
X101528Y601D01*
X101371Y542D01*
X101215Y480D01*
X101061Y414D01*
X100909Y344D01*
X100758Y271D01*
X100609Y194D01*
X100462Y113D01*
X100318Y29D01*
X100175Y-59D01*
X100035Y-151D01*
X99896Y-246D01*
X99761Y-344D01*
X99627Y-445D01*
X99496Y-550D01*
X99368Y-658D01*
X99243Y-769D01*
X99120Y-883D01*
X99000Y-1000D01*
X98916Y-1081D01*
X98830Y-1159D01*
X98741Y-1234D01*
X98649Y-1306D01*
X98555Y-1375D01*
X98458Y-1441D01*
X98360Y-1503D01*
X98259Y-1562D01*
X98157Y-1617D01*
X98052Y-1669D01*
X97946Y-1717D01*
X97838Y-1762D01*
X97729Y-1803D01*
X97619Y-1840D01*
X97507Y-1873D01*
X97394Y-1903D01*
X97281Y-1929D01*
X97166Y-1950D01*
X97051Y-1968D01*
X96935Y-1982D01*
X96819Y-1992D01*
X96703Y-1998D01*
X96586Y-2000D01*
X73000Y-2000D01*
X103828Y1000D02*
X583929Y1000D01*
X73000Y-28000D02*
X57000Y-28000D01*
X73000Y-28000D02*
X83500Y-28000D01*
D17*
X1221464Y53000D02*
X1221667Y53002D01*
X1221870Y53010D01*
X1222073Y53022D01*
X1222275Y53039D01*
X1222477Y53060D01*
X1222679Y53087D01*
X1222880Y53118D01*
X1223079Y53154D01*
X1223278Y53195D01*
X1223476Y53241D01*
X1223673Y53291D01*
X1223869Y53346D01*
X1224063Y53405D01*
X1224256Y53469D01*
X1224447Y53538D01*
X1224637Y53611D01*
X1224824Y53689D01*
X1225010Y53771D01*
X1225194Y53858D01*
X1225375Y53949D01*
X1225555Y54044D01*
X1225732Y54144D01*
X1225907Y54247D01*
X1226079Y54355D01*
X1226248Y54467D01*
X1226415Y54583D01*
X1226579Y54703D01*
X1226741Y54826D01*
X1226899Y54954D01*
X1227054Y55085D01*
X1227206Y55220D01*
X1227355Y55358D01*
X1227500Y55500D01*
X1227296Y55699D01*
X1227088Y55892D01*
X1226876Y56081D01*
X1226658Y56265D01*
X1226437Y56443D01*
X1226211Y56616D01*
X1225982Y56784D01*
X1225748Y56946D01*
X1225511Y57103D01*
X1225270Y57254D01*
X1225025Y57399D01*
X1224777Y57538D01*
X1224526Y57672D01*
X1224271Y57799D01*
X1224014Y57920D01*
X1223754Y58035D01*
X1223491Y58144D01*
X1223226Y58247D01*
X1222958Y58343D01*
X1222689Y58433D01*
X1222417Y58516D01*
X1222143Y58593D01*
X1221867Y58663D01*
X1221590Y58727D01*
X1221312Y58784D01*
X1221032Y58835D01*
X1220751Y58878D01*
X1220469Y58915D01*
X1220186Y58946D01*
X1219903Y58970D01*
X1219619Y58986D01*
X1219334Y58997D01*
X1219050Y59000D01*
D19*
X83500Y-28000D03*
D21*
X889500Y-2500D02*
X889791Y-2784D01*
X890088Y-3061D01*
X890392Y-3330D01*
X890702Y-3593D01*
X891018Y-3848D01*
X891341Y-4095D01*
X891669Y-4335D01*
X892003Y-4566D01*
X892342Y-4790D01*
X892686Y-5006D01*
X893035Y-5213D01*
X893390Y-5412D01*
X893749Y-5602D01*
X894112Y-5784D01*
X894479Y-5957D01*
X894851Y-6122D01*
X895226Y-6277D01*
X895605Y-6424D01*
X895988Y-6561D01*
X896373Y-6689D01*
X896762Y-6809D01*
X897153Y-6918D01*
X897546Y-7019D01*
X897942Y-7110D01*
X898340Y-7192D01*
X898740Y-7264D01*
X899142Y-7326D01*
X899544Y-7379D01*
X899948Y-7423D01*
X900353Y-7457D01*
X900759Y-7481D01*
X901165Y-7495D01*
X901571Y-7500D01*
X889500Y-2500D02*
X889296Y-2301D01*
X889088Y-2108D01*
X888876Y-1919D01*
X888658Y-1735D01*
X888437Y-1557D01*
X888211Y-1384D01*
X887982Y-1216D01*
X887748Y-1054D01*
X887511Y-897D01*
X887270Y-746D01*
X887025Y-601D01*
X886777Y-462D01*
X886526Y-328D01*
X886271Y-201D01*
X886014Y-80D01*
X885754Y35D01*
X885491Y144D01*
X885226Y247D01*
X884958Y343D01*
X884689Y433D01*
X884417Y516D01*
X884143Y593D01*
X883867Y663D01*
X883590Y727D01*
X883312Y784D01*
X883032Y835D01*
X882751Y878D01*
X882469Y915D01*
X882186Y946D01*
X881903Y970D01*
X881619Y986D01*
X881334Y997D01*
X881050Y1000D01*
X583929Y1000D01*
D19*
X100000Y14000D03*
X127000Y14000D03*
X116000Y72500D03*
X64500Y31000D03*
X89500Y-2000D03*
X292000Y69500D03*
X282000Y69500D03*
X272000Y69500D03*
X968000Y55500D03*
X981000Y55500D03*
X994000Y55500D03*
D17*
X994204Y55699D01*
X994412Y55892D01*
X994624Y56081D01*
X994842Y56265D01*
X995063Y56443D01*
X995289Y56616D01*
X995518Y56784D01*
X995752Y56946D01*
X995989Y57103D01*
X996230Y57254D01*
X996475Y57399D01*
X996723Y57538D01*
X996974Y57672D01*
X997229Y57799D01*
X997486Y57920D01*
X997746Y58035D01*
X998009Y58144D01*
X998274Y58247D01*
X998542Y58343D01*
X998811Y58433D01*
X999083Y58516D01*
X999357Y58593D01*
X999633Y58663D01*
X999910Y58727D01*
X1000188Y58784D01*
X1000468Y58835D01*
X1000749Y58878D01*
X1001031Y58915D01*
X1001314Y58946D01*
X1001597Y58970D01*
X1001881Y58986D01*
X1002166Y58997D01*
X1002450Y59000D01*
X1219050Y59000D01*
X1000036Y53000D02*
X999833Y53002D01*
X999630Y53010D01*
X999427Y53022D01*
X999225Y53039D01*
X999023Y53060D01*
X998821Y53087D01*
X998620Y53118D01*
X998421Y53154D01*
X998222Y53195D01*
X998024Y53241D01*
X997827Y53291D01*
X997631Y53346D01*
X997437Y53405D01*
X997244Y53469D01*
X997053Y53538D01*
X996863Y53611D01*
X996676Y53689D01*
X996490Y53771D01*
X996306Y53858D01*
X996125Y53949D01*
X995945Y54044D01*
X995768Y54144D01*
X995593Y54247D01*
X995421Y54355D01*
X995252Y54467D01*
X995085Y54583D01*
X994921Y54703D01*
X994759Y54826D01*
X994601Y54954D01*
X994446Y55085D01*
X994294Y55220D01*
X994145Y55358D01*
X994000Y55500D01*
X1000036Y53000D02*
X1221464Y53000D01*
D18*
X981000Y55500D02*
X968000Y55500D01*
X981000Y55500D02*
X994000Y55500D01*
X282000Y69500D02*
X272000Y69500D01*
X282000Y69500D02*
X292000Y69500D01*
D17*
X268379Y68000D02*
X121000Y68000D01*
X268379Y68000D02*
X268518Y68002D01*
X268656Y68008D01*
X268795Y68017D01*
X268933Y68030D01*
X269070Y68047D01*
X269207Y68067D01*
X269344Y68092D01*
X269480Y68120D01*
X269615Y68151D01*
X269749Y68187D01*
X269882Y68226D01*
X270014Y68268D01*
X270145Y68314D01*
X270274Y68364D01*
X270403Y68417D01*
X270529Y68473D01*
X270654Y68533D01*
X270778Y68597D01*
X270899Y68663D01*
X271019Y68733D01*
X271137Y68806D01*
X271253Y68882D01*
X271367Y68962D01*
X271478Y69044D01*
X271587Y69130D01*
X271694Y69218D01*
X271799Y69309D01*
X271901Y69403D01*
X272000Y69500D01*
X263550Y73000D02*
X128000Y73000D01*
X263550Y73000D02*
X263843Y72996D01*
X264136Y72986D01*
X264429Y72968D01*
X264721Y72942D01*
X265013Y72910D01*
X265303Y72871D01*
X265593Y72824D01*
X265881Y72770D01*
X266168Y72710D01*
X266454Y72642D01*
X266737Y72567D01*
X267019Y72485D01*
X267298Y72397D01*
X267576Y72301D01*
X267851Y72199D01*
X268123Y72090D01*
X268393Y71975D01*
X268659Y71853D01*
X268923Y71724D01*
X269183Y71589D01*
X269440Y71448D01*
X269694Y71300D01*
X269943Y71146D01*
X270189Y70986D01*
X270431Y70820D01*
X270669Y70648D01*
X270902Y70471D01*
X271131Y70287D01*
X271355Y70099D01*
X271575Y69904D01*
X271790Y69705D01*
X272000Y69500D01*
D19*
X104500Y-24000D03*
X110500Y-18000D03*
D18*
X104500Y-24000D01*
D21*
X110500Y-18000D02*
X110733Y-17773D01*
X110970Y-17551D01*
X111214Y-17336D01*
X111462Y-17126D01*
X111715Y-16922D01*
X111973Y-16724D01*
X112235Y-16532D01*
X112502Y-16347D01*
X112773Y-16168D01*
X113049Y-15996D01*
X113328Y-15830D01*
X113612Y-15671D01*
X113899Y-15518D01*
X114190Y-15373D01*
X114484Y-15234D01*
X114781Y-15103D01*
X115081Y-14978D01*
X115384Y-14861D01*
X115690Y-14751D01*
X115999Y-14648D01*
X116309Y-14553D01*
X116622Y-14465D01*
X116937Y-14385D01*
X117254Y-14312D01*
X117572Y-14247D01*
X117892Y-14189D01*
X118213Y-14139D01*
X118536Y-14097D01*
X118859Y-14062D01*
X119183Y-14035D01*
X119507Y-14015D01*
X119832Y-14004D01*
X120157Y-14000D01*
X562343Y-14000D01*
X562668Y-14004D01*
X562993Y-14015D01*
X563317Y-14035D01*
X563641Y-14062D01*
X563964Y-14097D01*
X564287Y-14139D01*
X564608Y-14189D01*
X564928Y-14247D01*
X565246Y-14312D01*
X565563Y-14385D01*
X565878Y-14465D01*
X566191Y-14553D01*
X566501Y-14648D01*
X566810Y-14751D01*
X567116Y-14861D01*
X567419Y-14978D01*
X567719Y-15103D01*
X568016Y-15234D01*
X568310Y-15373D01*
X568601Y-15518D01*
X568888Y-15671D01*
X569172Y-15830D01*
X569451Y-15996D01*
X569727Y-16168D01*
X569998Y-16347D01*
X570265Y-16532D01*
X570527Y-16724D01*
X570785Y-16922D01*
X571038Y-17126D01*
X571286Y-17336D01*
X571530Y-17551D01*
X571767Y-17773D01*
X572000Y-18000D01*
X572262Y-18255D01*
X572529Y-18505D01*
X572803Y-18747D01*
X573082Y-18983D01*
X573367Y-19213D01*
X573657Y-19436D01*
X573952Y-19651D01*
X574252Y-19860D01*
X574558Y-20061D01*
X574868Y-20255D01*
X575182Y-20442D01*
X575501Y-20621D01*
X575824Y-20792D01*
X576151Y-20956D01*
X576482Y-21112D01*
X576816Y-21260D01*
X577154Y-21399D01*
X577495Y-21531D01*
X577839Y-21655D01*
X578186Y-21770D01*
X578535Y-21878D01*
X578888Y-21976D01*
X579242Y-22067D01*
X579598Y-22149D01*
X579956Y-22222D01*
X580316Y-22287D01*
X580677Y-22344D01*
X581040Y-22391D01*
X581404Y-22430D01*
X581768Y-22461D01*
X582133Y-22483D01*
X582498Y-22496D01*
X582864Y-22500D01*
D23*
X1227500Y-22500D03*
D21*
X582864Y-22500D01*
D18*
X1227500Y-22500D02*
X1237500Y-22500D01*
D23*
X1237500Y-22500D03*
X1246500Y-22500D03*
D18*
X1237500Y-22500D01*
D21*
X1246500Y-22500D02*
X1275500Y-22500D01*
D23*
X1246500Y-32500D03*
D21*
X1275500Y-32500D01*
D18*
X1246500Y-32500D02*
X1237500Y-32500D01*
D23*
X1237500Y-32500D03*
X1227500Y-32500D03*
D18*
X1237500Y-32500D01*
D21*
X1227500Y-32500D02*
X540036Y-32500D01*
X539833Y-32498D01*
X539630Y-32490D01*
X539427Y-32478D01*
X539225Y-32461D01*
X539023Y-32440D01*
X538821Y-32413D01*
X538620Y-32382D01*
X538421Y-32346D01*
X538222Y-32305D01*
X538024Y-32259D01*
X537827Y-32209D01*
X537631Y-32154D01*
X537437Y-32095D01*
X537244Y-32031D01*
X537053Y-31962D01*
X536863Y-31889D01*
X536676Y-31811D01*
X536490Y-31729D01*
X536306Y-31642D01*
X536125Y-31551D01*
X535945Y-31456D01*
X535768Y-31356D01*
X535593Y-31253D01*
X535421Y-31145D01*
X535252Y-31033D01*
X535085Y-30917D01*
X534921Y-30797D01*
X534759Y-30674D01*
X534601Y-30546D01*
X534446Y-30415D01*
X534294Y-30280D01*
X534145Y-30142D01*
X534000Y-30000D01*
X533901Y-29903D01*
X533799Y-29809D01*
X533694Y-29718D01*
X533587Y-29630D01*
X533478Y-29544D01*
X533367Y-29462D01*
X533253Y-29382D01*
X533137Y-29306D01*
X533019Y-29233D01*
X532899Y-29163D01*
X532778Y-29097D01*
X532654Y-29033D01*
X532529Y-28973D01*
X532403Y-28917D01*
X532274Y-28864D01*
X532145Y-28814D01*
X532014Y-28768D01*
X531882Y-28726D01*
X531749Y-28687D01*
X531615Y-28651D01*
X531480Y-28620D01*
X531344Y-28592D01*
X531207Y-28567D01*
X531070Y-28547D01*
X530933Y-28530D01*
X530795Y-28517D01*
X530656Y-28508D01*
X530518Y-28502D01*
X530379Y-28500D01*
D19*
X482000Y-28500D03*
D22*
X500500Y-28500D01*
D21*
X530379Y-28500D01*
D19*
X500500Y-28500D03*
X150500Y-58500D03*
D23*
X239500Y-83500D03*
D18*
X230500Y-83500D01*
D23*
X230500Y-83500D03*
D18*
X155500Y-63500D02*
X150500Y-58500D01*
D19*
X155500Y-63500D03*
D21*
X168061Y-76061D01*
D23*
X221500Y-83500D03*
D18*
X230500Y-83500D01*
D21*
X221500Y-83500D02*
X186021Y-83500D01*
X185417Y-83493D01*
X184812Y-83471D01*
X184209Y-83435D01*
X183607Y-83385D01*
X183006Y-83320D01*
X182406Y-83241D01*
X181809Y-83148D01*
X181214Y-83041D01*
X180622Y-82920D01*
X180033Y-82784D01*
X179447Y-82635D01*
X178865Y-82471D01*
X178287Y-82294D01*
X177713Y-82103D01*
X177145Y-81899D01*
X176581Y-81681D01*
X176022Y-81449D01*
X175469Y-81205D01*
X174923Y-80947D01*
X174382Y-80676D01*
X173848Y-80393D01*
X173321Y-80097D01*
X172801Y-79789D01*
X172289Y-79468D01*
X171784Y-79135D01*
X171288Y-78790D01*
X170799Y-78434D01*
X170320Y-78066D01*
X169849Y-77686D01*
X169388Y-77296D01*
X168935Y-76895D01*
X168493Y-76483D01*
X168060Y-76061D01*
X173000Y-83000D02*
X176000Y-81500D01*
X173000Y-83000D02*
X172500Y-80000D01*
X183607Y-84500D02*
X183719Y-84498D01*
X183830Y-84493D01*
X183942Y-84484D01*
X184053Y-84471D01*
X184163Y-84454D01*
X184273Y-84434D01*
X184382Y-84411D01*
X184491Y-84384D01*
X184598Y-84353D01*
X184704Y-84319D01*
X184810Y-84281D01*
X184913Y-84240D01*
X185016Y-84196D01*
X185117Y-84148D01*
X185216Y-84097D01*
X185314Y-84043D01*
X185410Y-83985D01*
X185504Y-83925D01*
X185596Y-83861D01*
X185685Y-83795D01*
X185773Y-83725D01*
X185858Y-83653D01*
X185941Y-83578D01*
X186021Y-83500D01*
X183607Y-84500D02*
X170000Y-84500D01*
X173000Y-83000D01*
X170000Y-84500D02*
X102000Y-84500D01*
X99268Y-87232D01*
X99161Y-87341D01*
X99057Y-87454D01*
X98956Y-87568D01*
X98858Y-87686D01*
X98763Y-87805D01*
X98671Y-87927D01*
X98582Y-88052D01*
X98496Y-88178D01*
X98414Y-88307D01*
X98334Y-88438D01*
X98258Y-88571D01*
X98186Y-88705D01*
X98117Y-88842D01*
X98051Y-88980D01*
X97989Y-89120D01*
X97931Y-89261D01*
X97876Y-89404D01*
X97824Y-89548D01*
X97777Y-89693D01*
X97733Y-89840D01*
X97693Y-89987D01*
X97656Y-90136D01*
X97624Y-90285D01*
X97595Y-90435D01*
X97570Y-90586D01*
X97548Y-90737D01*
X97531Y-90889D01*
X97517Y-91042D01*
X97508Y-91194D01*
X97502Y-91347D01*
X97500Y-91500D01*
D19*
X97500Y-91500D03*
D18*
X97500Y-84500D01*
D21*
X102000Y-84500D01*
D19*
X97500Y-84500D03*
D16*
X6500Y19500D03*
D17*
X26000Y19500D01*
X45500Y22000D01*
X57000Y22000D01*
D16*
X6500Y26000D03*
D17*
X24500Y26000D01*
X34000Y30000D01*
X40500Y37500D01*
X49000Y40000D01*
X57000Y40000D01*
D16*
X6500Y45500D03*
D17*
X26000Y45500D01*
X45500Y48000D01*
X57000Y48000D01*
D16*
X6500Y52000D03*
D17*
X26000Y52000D01*
X45500Y56000D01*
X57000Y56000D01*
D16*
X6500Y58500D03*
D17*
X26000Y58500D01*
X45500Y64000D01*
X57000Y64000D01*
D16*
X6500Y84500D03*
D17*
X26000Y84500D01*
X45500Y90000D01*
X57000Y90000D01*
D16*
X6500Y78000D03*
D17*
X26000Y78000D01*
X45500Y82000D01*
X57000Y82000D01*
D16*
X6500Y91000D03*
D17*
X26000Y91000D01*
X45500Y98000D01*
X57000Y98000D01*
X20000Y-77000D02*
X9500Y-77000D01*
X20000Y-77000D02*
X28000Y-77000D01*
D19*
X130000Y-71000D03*
D24*
X20000Y-77000D03*
D17*
X20000Y-73000D02*
X28000Y-77000D01*
X20000Y-81000D01*
X115515Y-77000D02*
X116002Y-76994D01*
X116490Y-76977D01*
X116976Y-76948D01*
X117462Y-76907D01*
X117947Y-76855D01*
X118430Y-76791D01*
X118912Y-76716D01*
X119392Y-76630D01*
X119869Y-76532D01*
X120345Y-76423D01*
X120817Y-76302D01*
X121286Y-76170D01*
X121752Y-76027D01*
X122215Y-75873D01*
X122674Y-75708D01*
X123129Y-75533D01*
X123579Y-75346D01*
X124025Y-75149D01*
X124466Y-74941D01*
X124902Y-74723D01*
X125332Y-74494D01*
X125758Y-74256D01*
X126177Y-74007D01*
X126590Y-73748D01*
X126997Y-73480D01*
X127397Y-73202D01*
X127791Y-72914D01*
X128178Y-72617D01*
X128558Y-72311D01*
X128930Y-71997D01*
X129294Y-71673D01*
X129651Y-71341D01*
X130000Y-71000D01*
X115515Y-77000D02*
X28000Y-77000D01*
D24*
X258000Y118000D03*
X225000Y118000D03*
X210000Y118000D03*
X195000Y118000D03*
X1228000Y71000D03*
X1213000Y71000D03*
X1198000Y71000D03*
D25*
X1213000Y71000D01*
X1228000Y71000D01*
X210000Y118000D02*
X195000Y118000D01*
X210000Y118000D02*
X225000Y118000D01*
D26*
X258000Y118000D01*
X1237000Y71000D02*
X1242586Y71000D01*
X1237000Y71000D02*
X1228000Y71000D01*
D17*
X1260021Y77500D02*
X1275500Y77500D01*
X1242061Y70061D02*
X1242000Y70000D01*
D21*
X1247950Y72500D02*
X1275500Y72500D01*
X1247950Y72500D02*
X1247794Y72498D01*
X1247638Y72492D01*
X1247483Y72483D01*
X1247327Y72469D01*
X1247172Y72452D01*
X1247018Y72431D01*
X1246864Y72406D01*
X1246710Y72378D01*
X1246558Y72346D01*
X1246406Y72310D01*
X1246255Y72270D01*
X1246106Y72226D01*
X1245957Y72179D01*
X1245809Y72129D01*
X1245663Y72074D01*
X1245518Y72016D01*
X1245375Y71955D01*
X1245233Y71890D01*
X1245093Y71822D01*
X1244955Y71750D01*
X1244818Y71675D01*
X1244683Y71596D01*
X1244551Y71514D01*
X1244420Y71429D01*
X1244291Y71341D01*
X1244165Y71250D01*
X1244041Y71155D01*
X1243919Y71058D01*
X1243800Y70957D01*
X1243683Y70854D01*
X1243569Y70748D01*
X1243457Y70639D01*
X1248036Y67500D02*
X1275500Y67500D01*
X1248036Y67500D02*
X1242000Y70000D01*
X1242586Y71000D02*
X1242636Y70952D01*
X1242689Y70908D01*
X1242744Y70866D01*
X1242802Y70828D01*
X1242861Y70793D01*
X1242922Y70761D01*
X1242986Y70733D01*
X1243050Y70708D01*
X1243116Y70687D01*
X1243183Y70670D01*
X1243251Y70656D01*
X1243319Y70647D01*
X1243388Y70641D01*
X1243457Y70639D01*
X1256021Y62500D02*
X1275500Y62500D01*
X1256021Y62500D02*
X1255398Y62508D01*
X1254775Y62531D01*
X1254152Y62569D01*
X1253531Y62622D01*
X1252912Y62691D01*
X1252294Y62775D01*
X1251679Y62874D01*
X1251066Y62988D01*
X1250456Y63117D01*
X1249849Y63261D01*
X1249246Y63420D01*
X1248648Y63594D01*
X1248053Y63782D01*
X1247464Y63985D01*
X1246880Y64202D01*
X1246301Y64433D01*
X1245728Y64679D01*
X1245161Y64939D01*
X1244601Y65212D01*
X1244048Y65499D01*
X1243501Y65800D01*
X1242963Y66114D01*
X1242432Y66441D01*
X1241910Y66781D01*
X1241395Y67133D01*
X1240890Y67499D01*
X1240394Y67876D01*
X1239907Y68266D01*
X1239430Y68667D01*
X1238963Y69080D01*
X1238507Y69504D01*
X1238060Y69939D01*
D17*
X1238061Y69940D02*
X1238000Y70000D01*
X1237000Y71000D01*
D21*
X1256021Y77500D02*
X1275500Y77500D01*
X1256021Y77500D02*
X1255398Y77492D01*
X1254775Y77469D01*
X1254152Y77431D01*
X1253531Y77378D01*
X1252912Y77309D01*
X1252294Y77225D01*
X1251679Y77126D01*
X1251066Y77012D01*
X1250456Y76883D01*
X1249849Y76739D01*
X1249246Y76580D01*
X1248648Y76406D01*
X1248053Y76218D01*
X1247464Y76015D01*
X1246880Y75798D01*
X1246301Y75567D01*
X1245728Y75321D01*
X1245161Y75061D01*
X1244601Y74788D01*
X1244048Y74501D01*
X1243501Y74200D01*
X1242963Y73886D01*
X1242432Y73559D01*
X1241910Y73219D01*
X1241395Y72867D01*
X1240890Y72501D01*
X1240394Y72124D01*
X1239907Y71734D01*
X1239430Y71333D01*
X1238963Y70920D01*
X1238507Y70496D01*
X1238060Y70061D01*
D17*
X1238061Y70061D02*
X1238000Y70000D01*
D26*
X195000Y118000D02*
X128071Y118000D01*
X127665Y117995D01*
X127259Y117981D01*
X126853Y117957D01*
X126448Y117923D01*
X126044Y117879D01*
X125642Y117826D01*
X125240Y117764D01*
X124840Y117692D01*
X124442Y117610D01*
X124046Y117519D01*
X123653Y117418D01*
X123262Y117309D01*
X122873Y117189D01*
X122488Y117061D01*
X122105Y116924D01*
X121726Y116777D01*
X121351Y116622D01*
X120979Y116457D01*
X120612Y116284D01*
X120249Y116102D01*
X119890Y115912D01*
X119535Y115713D01*
X119186Y115506D01*
X118842Y115290D01*
X118503Y115066D01*
X118169Y114835D01*
X117841Y114595D01*
X117518Y114348D01*
X117202Y114093D01*
X116892Y113830D01*
X116588Y113561D01*
X116291Y113284D01*
X116000Y113000D01*
X115243Y112243D01*
X115243Y112242D02*
X115002Y111996D01*
X114767Y111743D01*
X114538Y111486D01*
X114315Y111222D01*
X114099Y110954D01*
X113889Y110681D01*
X113686Y110402D01*
X113489Y110119D01*
X113299Y109831D01*
X113117Y109539D01*
X112941Y109243D01*
X112772Y108942D01*
X112610Y108637D01*
X112456Y108329D01*
X112309Y108017D01*
X112170Y107702D01*
X112038Y107384D01*
X111913Y107062D01*
X111797Y106738D01*
X111688Y106410D01*
X111587Y106081D01*
X111494Y105749D01*
X111408Y105415D01*
X111331Y105079D01*
X111262Y104741D01*
X111201Y104402D01*
X111147Y104061D01*
X111102Y103720D01*
X111066Y103377D01*
X111037Y103033D01*
X111016Y102689D01*
X111004Y102345D01*
X111000Y102000D01*
X111003Y101713D01*
X111014Y101426D01*
X111031Y101139D01*
X111055Y100853D01*
X111085Y100567D01*
X111123Y100282D01*
X111167Y99998D01*
X111218Y99716D01*
X111276Y99434D01*
X111340Y99154D01*
X111411Y98876D01*
X111489Y98599D01*
X111573Y98325D01*
X111664Y98052D01*
X111761Y97782D01*
X111865Y97514D01*
X111975Y97248D01*
X112091Y96986D01*
X112213Y96726D01*
X112342Y96469D01*
X112477Y96215D01*
X112617Y95965D01*
X112764Y95717D01*
X112916Y95474D01*
X113074Y95234D01*
X113238Y94998D01*
X113408Y94766D01*
X113583Y94538D01*
X113763Y94315D01*
X113948Y94095D01*
X114139Y93880D01*
X114335Y93670D01*
X114536Y93465D01*
X114536Y93464D02*
X117000Y91000D01*
X116999Y91000D02*
X117406Y90603D01*
X117822Y90215D01*
X118248Y89838D01*
X118682Y89470D01*
X119125Y89113D01*
X119576Y88767D01*
X120036Y88432D01*
X120503Y88107D01*
X120978Y87794D01*
X121460Y87492D01*
X121949Y87202D01*
X122445Y86923D01*
X122947Y86657D01*
X123456Y86402D01*
X123971Y86160D01*
X124491Y85930D01*
X125016Y85712D01*
X125547Y85507D01*
X126082Y85314D01*
X126622Y85135D01*
X127166Y84968D01*
X127713Y84814D01*
X128264Y84674D01*
X128819Y84546D01*
X129376Y84432D01*
X129936Y84331D01*
X130498Y84243D01*
X131062Y84169D01*
X131627Y84108D01*
X132194Y84061D01*
X132762Y84027D01*
X133330Y84007D01*
X133899Y84000D01*
X292101Y84000D02*
X292670Y83993D01*
X293238Y83973D01*
X293806Y83939D01*
X294373Y83892D01*
X294938Y83831D01*
X295502Y83757D01*
X296064Y83669D01*
X296624Y83568D01*
X297181Y83454D01*
X297736Y83326D01*
X298287Y83186D01*
X298834Y83032D01*
X299378Y82865D01*
X299918Y82686D01*
X300453Y82493D01*
X300984Y82288D01*
X301509Y82070D01*
X302029Y81840D01*
X302544Y81598D01*
X303053Y81343D01*
X303555Y81077D01*
X304051Y80798D01*
X304540Y80508D01*
X305022Y80206D01*
X305497Y79893D01*
X305964Y79568D01*
X306424Y79233D01*
X306875Y78887D01*
X307318Y78530D01*
X307752Y78162D01*
X308178Y77785D01*
X308594Y77397D01*
X309001Y77000D01*
X309000Y77000D02*
X309291Y76716D01*
X309588Y76439D01*
X309892Y76170D01*
X310202Y75907D01*
X310518Y75652D01*
X310841Y75405D01*
X311169Y75165D01*
X311503Y74934D01*
X311842Y74710D01*
X312186Y74494D01*
X312535Y74287D01*
X312890Y74088D01*
X313249Y73898D01*
X313612Y73716D01*
X313979Y73543D01*
X314351Y73378D01*
X314726Y73223D01*
X315105Y73076D01*
X315488Y72939D01*
X315873Y72811D01*
X316262Y72691D01*
X316653Y72582D01*
X317046Y72481D01*
X317442Y72390D01*
X317840Y72308D01*
X318240Y72236D01*
X318642Y72174D01*
X319044Y72121D01*
X319448Y72077D01*
X319853Y72043D01*
X320259Y72019D01*
X320665Y72005D01*
X321071Y72000D01*
X292101Y84000D02*
X133900Y84000D01*
X321071Y72000D02*
X1197000Y72000D01*
X1198000Y71000D01*
D24*
X188000Y-48000D03*
D19*
X471000Y-48000D03*
D17*
X511343Y-50000D02*
X511678Y-49996D01*
X512013Y-49984D01*
X512348Y-49963D01*
X512682Y-49934D01*
X513015Y-49897D01*
X513347Y-49852D01*
X513678Y-49799D01*
X514007Y-49738D01*
X514335Y-49668D01*
X514661Y-49591D01*
X514985Y-49505D01*
X515307Y-49412D01*
X515627Y-49311D01*
X515944Y-49202D01*
X516258Y-49085D01*
X516569Y-48960D01*
X516877Y-48828D01*
X517182Y-48689D01*
X517483Y-48542D01*
X517781Y-48387D01*
X518075Y-48226D01*
X518364Y-48057D01*
X518649Y-47881D01*
X518930Y-47698D01*
X519207Y-47509D01*
X519478Y-47312D01*
X519745Y-47109D01*
X520007Y-46900D01*
X520263Y-46684D01*
X520514Y-46462D01*
X520760Y-46234D01*
X521000Y-46000D01*
X521204Y-45801D01*
X521412Y-45608D01*
X521624Y-45419D01*
X521842Y-45235D01*
X522063Y-45057D01*
X522289Y-44884D01*
X522518Y-44716D01*
X522752Y-44554D01*
X522989Y-44397D01*
X523230Y-44246D01*
X523475Y-44101D01*
X523723Y-43962D01*
X523974Y-43828D01*
X524229Y-43701D01*
X524486Y-43580D01*
X524746Y-43465D01*
X525009Y-43356D01*
X525274Y-43253D01*
X525542Y-43157D01*
X525811Y-43067D01*
X526083Y-42984D01*
X526357Y-42907D01*
X526633Y-42837D01*
X526910Y-42773D01*
X527188Y-42716D01*
X527468Y-42665D01*
X527749Y-42622D01*
X528031Y-42585D01*
X528314Y-42554D01*
X528597Y-42530D01*
X528881Y-42514D01*
X529166Y-42503D01*
X529450Y-42500D01*
X1275500Y-42500D01*
X475828Y-50000D02*
X475666Y-49998D01*
X475503Y-49992D01*
X475341Y-49983D01*
X475179Y-49969D01*
X475017Y-49952D01*
X474856Y-49931D01*
X474696Y-49905D01*
X474536Y-49877D01*
X474377Y-49844D01*
X474218Y-49808D01*
X474061Y-49767D01*
X473904Y-49723D01*
X473749Y-49676D01*
X473595Y-49624D01*
X473442Y-49569D01*
X473290Y-49511D01*
X473140Y-49449D01*
X472992Y-49383D01*
X472845Y-49314D01*
X472699Y-49241D01*
X472556Y-49165D01*
X472414Y-49085D01*
X472274Y-49002D01*
X472137Y-48916D01*
X472001Y-48827D01*
X471867Y-48734D01*
X471736Y-48638D01*
X471607Y-48539D01*
X471481Y-48437D01*
X471357Y-48332D01*
X471235Y-48224D01*
X471116Y-48114D01*
X471000Y-48000D01*
X475828Y-50000D02*
X511343Y-50000D01*
D16*
X0Y0D03*
X0Y19500D03*
X0Y26000D03*
X0Y45500D03*
X0Y52000D03*
X0Y58500D03*
X0Y84500D03*
X0Y78000D03*
X0Y91000D03*
X6500Y-6500D03*
X0Y-6500D03*
X6500Y-32500D03*
X0Y-32500D03*
X0Y-26000D03*
X6500Y-26000D03*
D17*
X6500Y-32500D02*
X26414Y-32500D01*
X26500Y-32500D01*
X53071Y-44000D02*
X57000Y-44000D01*
X53071Y-44000D02*
X52665Y-43995D01*
X52259Y-43981D01*
X51853Y-43957D01*
X51448Y-43923D01*
X51044Y-43879D01*
X50642Y-43826D01*
X50240Y-43764D01*
X49840Y-43692D01*
X49442Y-43610D01*
X49046Y-43519D01*
X48653Y-43418D01*
X48262Y-43309D01*
X47873Y-43189D01*
X47488Y-43061D01*
X47105Y-42924D01*
X46726Y-42777D01*
X46351Y-42622D01*
X45979Y-42457D01*
X45612Y-42284D01*
X45249Y-42102D01*
X44890Y-41912D01*
X44536Y-41713D01*
X44186Y-41506D01*
X43842Y-41290D01*
X43503Y-41066D01*
X43169Y-40835D01*
X42841Y-40595D01*
X42518Y-40348D01*
X42202Y-40093D01*
X41892Y-39830D01*
X41588Y-39561D01*
X41291Y-39284D01*
X41000Y-39000D01*
X40218Y-38218D01*
X40217Y-38218D02*
X39885Y-37893D01*
X39545Y-37576D01*
X39198Y-37268D01*
X38843Y-36968D01*
X38481Y-36676D01*
X38113Y-36394D01*
X37737Y-36120D01*
X37356Y-35855D01*
X36968Y-35599D01*
X36574Y-35352D01*
X36175Y-35115D01*
X35769Y-34888D01*
X35359Y-34670D01*
X34944Y-34462D01*
X34523Y-34264D01*
X34098Y-34076D01*
X33669Y-33898D01*
X33236Y-33731D01*
X32799Y-33574D01*
X32358Y-33427D01*
X31914Y-33291D01*
X31466Y-33165D01*
X31016Y-33050D01*
X30564Y-32946D01*
X30108Y-32853D01*
X29651Y-32770D01*
X29192Y-32699D01*
X28732Y-32638D01*
X28270Y-32588D01*
X27807Y-32550D01*
X27343Y-32522D01*
X26879Y-32506D01*
X26414Y-32500D01*
X28328Y-26000D02*
X6500Y-26000D01*
X52414Y-36000D02*
X57000Y-36000D01*
X52414Y-36000D02*
X51975Y-35995D01*
X51536Y-35978D01*
X51097Y-35951D01*
X50659Y-35914D01*
X50223Y-35865D01*
X49788Y-35806D01*
X49354Y-35736D01*
X48922Y-35656D01*
X48492Y-35565D01*
X48065Y-35464D01*
X47640Y-35352D01*
X47218Y-35229D01*
X46799Y-35097D01*
X46384Y-34954D01*
X45972Y-34801D01*
X45564Y-34637D01*
X45160Y-34464D01*
X44761Y-34281D01*
X44366Y-34089D01*
X43976Y-33886D01*
X43591Y-33675D01*
X43212Y-33453D01*
X42838Y-33223D01*
X42469Y-32983D01*
X42107Y-32735D01*
X41751Y-32477D01*
X41401Y-32211D01*
X41058Y-31937D01*
X40722Y-31654D01*
X40393Y-31363D01*
X40071Y-31064D01*
X39757Y-30757D01*
X39718Y-30718D01*
X39717Y-30718D02*
X39434Y-30442D01*
X39145Y-30172D01*
X38849Y-29911D01*
X38546Y-29656D01*
X38238Y-29409D01*
X37923Y-29170D01*
X37603Y-28938D01*
X37277Y-28715D01*
X36945Y-28499D01*
X36609Y-28292D01*
X36267Y-28093D01*
X35921Y-27902D01*
X35570Y-27720D01*
X35215Y-27546D01*
X34855Y-27382D01*
X34492Y-27226D01*
X34125Y-27079D01*
X33754Y-26942D01*
X33380Y-26813D01*
X33004Y-26694D01*
X32624Y-26583D01*
X32242Y-26483D01*
X31857Y-26391D01*
X31470Y-26309D01*
X31082Y-26237D01*
X30691Y-26174D01*
X30300Y-26121D01*
X29907Y-26078D01*
X29513Y-26044D01*
X29118Y-26019D01*
X28723Y-26005D01*
X28328Y-26000D01*
X20000Y-6500D02*
X6500Y-6500D01*
X20000Y-6500D02*
X20603Y-6507D01*
X21206Y-6529D01*
X21808Y-6565D01*
X22410Y-6615D01*
X23009Y-6679D01*
X23608Y-6758D01*
X24204Y-6851D01*
X24797Y-6958D01*
X25388Y-7079D01*
X25976Y-7215D01*
X26561Y-7364D01*
X27142Y-7527D01*
X27718Y-7704D01*
X28291Y-7894D01*
X28859Y-8098D01*
X29421Y-8316D01*
X29979Y-8547D01*
X30530Y-8791D01*
X31076Y-9048D01*
X31616Y-9318D01*
X32148Y-9601D01*
X32675Y-9896D01*
X33193Y-10204D01*
X33705Y-10524D01*
X34208Y-10856D01*
X34704Y-11200D01*
X35191Y-11556D01*
X35670Y-11923D01*
X36139Y-12302D01*
X36600Y-12692D01*
X37051Y-13092D01*
X37493Y-13503D01*
X37924Y-13925D01*
X37147Y-13146D02*
X37545Y-13535D01*
X37953Y-13915D01*
X38369Y-14285D01*
X38794Y-14644D01*
X39228Y-14994D01*
X39670Y-15333D01*
X40120Y-15661D01*
X40577Y-15979D01*
X41042Y-16285D01*
X41514Y-16581D01*
X41993Y-16865D01*
X42479Y-17138D01*
X42970Y-17399D01*
X43468Y-17648D01*
X43972Y-17885D01*
X44482Y-18111D01*
X44996Y-18324D01*
X45516Y-18525D01*
X46040Y-18713D01*
X46568Y-18889D01*
X47100Y-19052D01*
X47637Y-19203D01*
X48176Y-19340D01*
X48719Y-19465D01*
X49265Y-19577D01*
X49813Y-19676D01*
X50363Y-19762D01*
X50915Y-19835D01*
X51469Y-19894D01*
X52024Y-19940D01*
X52580Y-19973D01*
X53136Y-19993D01*
X53693Y-20000D01*
X57000Y-20000D01*
X37925Y-13925D02*
X37146Y-13146D01*
X73000Y98000D02*
X79500Y98000D01*
X112500Y64500D02*
X118500Y63000D01*
X112500Y64500D02*
X108000Y68500D01*
X100000Y84500D02*
X95000Y92500D01*
X88500Y96500D01*
X79500Y98000D01*
X100000Y84500D02*
X108000Y68500D01*
X936479Y63000D02*
X937102Y62992D01*
X937725Y62969D01*
X938348Y62931D01*
X938969Y62878D01*
X939588Y62809D01*
X940206Y62725D01*
X940821Y62626D01*
X941434Y62512D01*
X942044Y62383D01*
X942651Y62239D01*
X943254Y62080D01*
X943852Y61906D01*
X944447Y61718D01*
X945036Y61515D01*
X945620Y61298D01*
X946199Y61067D01*
X946772Y60821D01*
X947339Y60561D01*
X947899Y60288D01*
X948452Y60001D01*
X948999Y59700D01*
X949537Y59386D01*
X950068Y59059D01*
X950590Y58719D01*
X951105Y58367D01*
X951610Y58001D01*
X952106Y57624D01*
X952593Y57234D01*
X953070Y56833D01*
X953537Y56420D01*
X953993Y55996D01*
X954440Y55561D01*
X956000Y54000D01*
X956378Y53631D01*
X956764Y53271D01*
X957159Y52920D01*
X957563Y52579D01*
X957974Y52248D01*
X958393Y51926D01*
X958819Y51615D01*
X959253Y51314D01*
X959694Y51023D01*
X960142Y50743D01*
X960596Y50473D01*
X961057Y50215D01*
X961523Y49967D01*
X961995Y49731D01*
X962473Y49505D01*
X962956Y49292D01*
X963444Y49090D01*
X963937Y48899D01*
X964434Y48721D01*
X964935Y48554D01*
X965440Y48399D01*
X965948Y48256D01*
X966460Y48126D01*
X966975Y48007D01*
X967492Y47901D01*
X968012Y47807D01*
X968534Y47726D01*
X969057Y47657D01*
X969583Y47600D01*
X970109Y47557D01*
X970636Y47525D01*
X971164Y47506D01*
X971692Y47500D01*
X1275500Y47500D01*
X936479Y63000D02*
X118500Y63000D01*
X80000Y90000D02*
X73000Y90000D01*
X80000Y90000D02*
X87500Y89000D01*
X92000Y85000D01*
X96000Y78000D01*
X97500Y74000D01*
X103500Y64000D01*
X107500Y60500D01*
X113000Y58500D01*
X116500Y58000D01*
X967692Y42500D02*
X1275500Y42500D01*
X967692Y42500D02*
X967147Y42507D01*
X966603Y42527D01*
X966059Y42560D01*
X965517Y42607D01*
X964975Y42667D01*
X964436Y42740D01*
X963898Y42827D01*
X963363Y42926D01*
X962830Y43039D01*
X962300Y43165D01*
X961773Y43304D01*
X961250Y43456D01*
X960731Y43620D01*
X960216Y43797D01*
X959705Y43987D01*
X959199Y44189D01*
X958699Y44404D01*
X958204Y44631D01*
X957714Y44870D01*
X957231Y45120D01*
X956754Y45383D01*
X956283Y45657D01*
X955819Y45943D01*
X955363Y46240D01*
X954914Y46548D01*
X954472Y46867D01*
X954039Y47197D01*
X953614Y47537D01*
X953197Y47888D01*
X952789Y48249D01*
X952390Y48620D01*
X952000Y49000D01*
X950440Y50561D01*
X949993Y50996D01*
X949537Y51420D01*
X949070Y51833D01*
X948593Y52234D01*
X948106Y52624D01*
X947610Y53001D01*
X947105Y53367D01*
X946590Y53719D01*
X946068Y54059D01*
X945537Y54386D01*
X944999Y54700D01*
X944452Y55001D01*
X943899Y55288D01*
X943339Y55561D01*
X942772Y55821D01*
X942199Y56067D01*
X941620Y56298D01*
X941036Y56515D01*
X940447Y56718D01*
X939852Y56906D01*
X939254Y57080D01*
X938651Y57239D01*
X938044Y57383D01*
X937434Y57512D01*
X936821Y57626D01*
X936206Y57725D01*
X935588Y57809D01*
X934969Y57878D01*
X934348Y57931D01*
X933725Y57969D01*
X933102Y57992D01*
X932479Y58000D01*
X116500Y58000D01*
X117000Y53000D02*
X112000Y53500D01*
X106000Y55000D01*
X100500Y58000D01*
X96000Y62500D01*
X92500Y68500D01*
X91000Y74000D01*
X89000Y79000D01*
X87000Y81000D01*
X84500Y82000D01*
X73000Y82000D01*
X929101Y53000D02*
X929688Y52993D01*
X930274Y52971D01*
X930859Y52935D01*
X931444Y52885D01*
X932027Y52820D01*
X932608Y52741D01*
X933187Y52648D01*
X933764Y52541D01*
X934338Y52419D01*
X934908Y52284D01*
X935475Y52134D01*
X936039Y51971D01*
X936598Y51794D01*
X937153Y51603D01*
X937702Y51399D01*
X938247Y51181D01*
X938786Y50950D01*
X939320Y50705D01*
X939847Y50448D01*
X940367Y50178D01*
X940881Y49895D01*
X941388Y49600D01*
X941887Y49292D01*
X942379Y48972D01*
X942863Y48640D01*
X943338Y48297D01*
X943805Y47941D01*
X944263Y47575D01*
X944712Y47197D01*
X945151Y46809D01*
X945581Y46410D01*
X946001Y46000D01*
X946000Y46000D02*
X947061Y44940D01*
X947060Y44939D02*
X947493Y44517D01*
X947935Y44105D01*
X948388Y43704D01*
X948849Y43314D01*
X949320Y42934D01*
X949799Y42566D01*
X950288Y42210D01*
X950784Y41865D01*
X951289Y41532D01*
X951801Y41211D01*
X952321Y40903D01*
X952848Y40607D01*
X953382Y40324D01*
X953923Y40053D01*
X954469Y39795D01*
X955022Y39551D01*
X955581Y39319D01*
X956145Y39101D01*
X956713Y38897D01*
X957287Y38706D01*
X957865Y38529D01*
X958447Y38365D01*
X959033Y38216D01*
X959622Y38080D01*
X960214Y37959D01*
X960809Y37852D01*
X961406Y37759D01*
X962006Y37680D01*
X962607Y37615D01*
X963209Y37565D01*
X963812Y37529D01*
X964417Y37507D01*
X965021Y37500D01*
X1275500Y37500D01*
X929101Y53000D02*
X117000Y53000D01*
X79500Y64000D02*
X73000Y64000D01*
X119000Y48000D02*
X120000Y48000D01*
X110424Y48399D01*
X102140Y50371D01*
X89846Y59769D02*
X85000Y63000D01*
X79500Y64000D01*
X89846Y59769D02*
X102140Y50371D01*
X957278Y32500D02*
X1275500Y32500D01*
X957278Y32500D02*
X956817Y32506D01*
X956357Y32523D01*
X955897Y32551D01*
X955437Y32590D01*
X954979Y32641D01*
X954523Y32703D01*
X954068Y32776D01*
X953615Y32861D01*
X953164Y32956D01*
X952715Y33063D01*
X952270Y33180D01*
X951827Y33309D01*
X951388Y33448D01*
X950952Y33598D01*
X950520Y33758D01*
X950092Y33929D01*
X949668Y34111D01*
X949249Y34303D01*
X948835Y34505D01*
X948426Y34717D01*
X948022Y34940D01*
X947624Y35172D01*
X947232Y35413D01*
X946846Y35665D01*
X946465Y35925D01*
X946092Y36195D01*
X945725Y36474D01*
X945365Y36762D01*
X945013Y37059D01*
X944667Y37364D01*
X944330Y37678D01*
X944000Y38000D01*
X941440Y40561D01*
X940993Y40996D01*
X940537Y41420D01*
X940070Y41833D01*
X939593Y42234D01*
X939106Y42624D01*
X938610Y43001D01*
X938105Y43367D01*
X937590Y43719D01*
X937068Y44059D01*
X936537Y44386D01*
X935999Y44700D01*
X935452Y45001D01*
X934899Y45288D01*
X934339Y45561D01*
X933772Y45821D01*
X933199Y46067D01*
X932620Y46298D01*
X932036Y46515D01*
X931447Y46718D01*
X930852Y46906D01*
X930254Y47080D01*
X929651Y47239D01*
X929044Y47383D01*
X928434Y47512D01*
X927821Y47626D01*
X927206Y47725D01*
X926588Y47809D01*
X925969Y47878D01*
X925348Y47931D01*
X924725Y47969D01*
X924102Y47992D01*
X923479Y48000D01*
X120000Y48000D01*
X79500Y56000D02*
X73000Y56000D01*
X106500Y43500D02*
X117500Y43000D01*
X106500Y43500D02*
X100500Y45500D01*
X95000Y48500D01*
X91000Y51500D01*
X87000Y54000D01*
X79500Y56000D01*
X919101Y43000D02*
X919688Y42993D01*
X920274Y42971D01*
X920859Y42935D01*
X921444Y42885D01*
X922027Y42820D01*
X922608Y42741D01*
X923187Y42648D01*
X923764Y42541D01*
X924338Y42419D01*
X924908Y42284D01*
X925475Y42134D01*
X926039Y41971D01*
X926598Y41794D01*
X927153Y41603D01*
X927702Y41399D01*
X928247Y41181D01*
X928786Y40950D01*
X929320Y40705D01*
X929847Y40448D01*
X930367Y40178D01*
X930881Y39895D01*
X931388Y39600D01*
X931887Y39292D01*
X932379Y38972D01*
X932863Y38640D01*
X933338Y38297D01*
X933805Y37941D01*
X934263Y37575D01*
X934712Y37197D01*
X935151Y36809D01*
X935581Y36410D01*
X936001Y36000D01*
X936000Y36000D02*
X937061Y34940D01*
X937060Y34939D02*
X937493Y34517D01*
X937935Y34105D01*
X938388Y33704D01*
X938849Y33314D01*
X939320Y32934D01*
X939799Y32566D01*
X940288Y32210D01*
X940784Y31865D01*
X941289Y31532D01*
X941801Y31211D01*
X942321Y30903D01*
X942848Y30607D01*
X943382Y30324D01*
X943923Y30053D01*
X944469Y29795D01*
X945022Y29551D01*
X945581Y29319D01*
X946145Y29101D01*
X946713Y28897D01*
X947287Y28706D01*
X947865Y28529D01*
X948447Y28365D01*
X949033Y28216D01*
X949622Y28080D01*
X950214Y27959D01*
X950809Y27852D01*
X951406Y27759D01*
X952006Y27680D01*
X952607Y27615D01*
X953209Y27565D01*
X953812Y27529D01*
X954417Y27507D01*
X955021Y27500D01*
X1275500Y27500D01*
X919101Y43000D02*
X117500Y43000D01*
X79500Y48000D02*
X73000Y48000D01*
X104500Y38500D02*
X116000Y38000D01*
X104500Y38500D02*
X95000Y41500D01*
X89500Y44500D01*
X86000Y46500D01*
X79500Y48000D01*
X948692Y22500D02*
X1275500Y22500D01*
X948692Y22500D02*
X948147Y22507D01*
X947603Y22527D01*
X947059Y22560D01*
X946517Y22607D01*
X945975Y22667D01*
X945436Y22740D01*
X944898Y22827D01*
X944363Y22926D01*
X943830Y23039D01*
X943300Y23165D01*
X942773Y23304D01*
X942250Y23456D01*
X941731Y23620D01*
X941216Y23797D01*
X940705Y23987D01*
X940199Y24189D01*
X939699Y24404D01*
X939204Y24631D01*
X938714Y24870D01*
X938231Y25120D01*
X937754Y25383D01*
X937283Y25657D01*
X936819Y25943D01*
X936363Y26240D01*
X935914Y26548D01*
X935472Y26867D01*
X935039Y27197D01*
X934614Y27537D01*
X934197Y27888D01*
X933789Y28249D01*
X933390Y28620D01*
X933000Y29000D01*
X931440Y30561D01*
X930993Y30996D01*
X930537Y31420D01*
X930070Y31833D01*
X929593Y32234D01*
X929106Y32624D01*
X928610Y33001D01*
X928105Y33367D01*
X927590Y33719D01*
X927068Y34059D01*
X926537Y34386D01*
X925999Y34700D01*
X925452Y35001D01*
X924899Y35288D01*
X924339Y35561D01*
X923772Y35821D01*
X923199Y36067D01*
X922620Y36298D01*
X922036Y36515D01*
X921447Y36718D01*
X920852Y36906D01*
X920254Y37080D01*
X919651Y37239D01*
X919044Y37383D01*
X918434Y37512D01*
X917821Y37626D01*
X917206Y37725D01*
X916588Y37809D01*
X915969Y37878D01*
X915348Y37931D01*
X914725Y37969D01*
X914102Y37992D01*
X913479Y38000D01*
X116000Y38000D01*
X79500Y40000D02*
X73000Y40000D01*
X79500Y40000D02*
X86000Y39000D01*
X93500Y36000D01*
X104000Y33500D01*
X115000Y33000D01*
X911929Y33000D02*
X912335Y32995D01*
X912741Y32981D01*
X913147Y32957D01*
X913552Y32923D01*
X913956Y32879D01*
X914358Y32826D01*
X914760Y32764D01*
X915160Y32692D01*
X915558Y32610D01*
X915954Y32519D01*
X916347Y32418D01*
X916738Y32309D01*
X917127Y32189D01*
X917512Y32061D01*
X917895Y31924D01*
X918274Y31777D01*
X918649Y31622D01*
X919021Y31457D01*
X919388Y31284D01*
X919751Y31102D01*
X920110Y30912D01*
X920465Y30713D01*
X920814Y30506D01*
X921158Y30290D01*
X921497Y30066D01*
X921831Y29835D01*
X922159Y29595D01*
X922482Y29348D01*
X922798Y29093D01*
X923108Y28830D01*
X923412Y28561D01*
X923709Y28284D01*
X924000Y28000D01*
X927061Y24940D01*
X927060Y24939D02*
X927493Y24517D01*
X927935Y24105D01*
X928388Y23704D01*
X928849Y23314D01*
X929320Y22934D01*
X929799Y22566D01*
X930288Y22210D01*
X930784Y21865D01*
X931289Y21532D01*
X931801Y21211D01*
X932321Y20903D01*
X932848Y20607D01*
X933382Y20324D01*
X933923Y20053D01*
X934469Y19795D01*
X935022Y19551D01*
X935581Y19319D01*
X936145Y19101D01*
X936713Y18897D01*
X937287Y18706D01*
X937865Y18529D01*
X938447Y18365D01*
X939033Y18216D01*
X939622Y18080D01*
X940214Y17959D01*
X940809Y17852D01*
X941406Y17759D01*
X942006Y17680D01*
X942607Y17615D01*
X943209Y17565D01*
X943812Y17529D01*
X944417Y17507D01*
X945021Y17500D01*
X1275500Y17500D01*
X911929Y33000D02*
X115000Y33000D01*
X892101Y22000D02*
X892688Y21993D01*
X893274Y21971D01*
X893859Y21935D01*
X894444Y21885D01*
X895027Y21820D01*
X895608Y21741D01*
X896187Y21648D01*
X896764Y21541D01*
X897338Y21419D01*
X897908Y21284D01*
X898475Y21134D01*
X899039Y20971D01*
X899598Y20794D01*
X900153Y20603D01*
X900702Y20399D01*
X901247Y20181D01*
X901786Y19950D01*
X902320Y19705D01*
X902847Y19448D01*
X903367Y19178D01*
X903881Y18895D01*
X904388Y18600D01*
X904887Y18292D01*
X905379Y17972D01*
X905863Y17640D01*
X906338Y17297D01*
X906805Y16941D01*
X907263Y16575D01*
X907712Y16197D01*
X908151Y15809D01*
X908581Y15410D01*
X909001Y15000D01*
X909000Y15000D02*
X909061Y14940D01*
X909060Y14939D02*
X909493Y14517D01*
X909935Y14105D01*
X910388Y13704D01*
X910849Y13314D01*
X911320Y12934D01*
X911799Y12566D01*
X912288Y12210D01*
X912784Y11865D01*
X913289Y11532D01*
X913801Y11211D01*
X914321Y10903D01*
X914848Y10607D01*
X915382Y10324D01*
X915923Y10053D01*
X916469Y9795D01*
X917022Y9551D01*
X917581Y9319D01*
X918145Y9101D01*
X918713Y8897D01*
X919287Y8706D01*
X919865Y8529D01*
X920447Y8365D01*
X921033Y8216D01*
X921622Y8080D01*
X922214Y7959D01*
X922809Y7852D01*
X923406Y7759D01*
X924006Y7680D01*
X924607Y7615D01*
X925209Y7565D01*
X925812Y7529D01*
X926417Y7507D01*
X927021Y7500D01*
X892101Y22000D02*
X73000Y22000D01*
X927021Y7500D02*
X1275500Y7500D01*
X1275500Y-2500D02*
X1282500Y-2500D01*
X894000Y2000D02*
X893767Y2227D01*
X893530Y2449D01*
X893286Y2664D01*
X893038Y2874D01*
X892785Y3078D01*
X892527Y3276D01*
X892265Y3468D01*
X891998Y3653D01*
X891727Y3832D01*
X891451Y4004D01*
X891172Y4170D01*
X890888Y4329D01*
X890601Y4482D01*
X890310Y4627D01*
X890016Y4766D01*
X889719Y4897D01*
X889419Y5022D01*
X889116Y5139D01*
X888810Y5249D01*
X888501Y5352D01*
X888191Y5447D01*
X887878Y5535D01*
X887563Y5615D01*
X887246Y5688D01*
X886928Y5753D01*
X886608Y5811D01*
X886287Y5861D01*
X885964Y5903D01*
X885641Y5938D01*
X885317Y5965D01*
X884993Y5985D01*
X884668Y5996D01*
X884343Y6000D01*
X894000Y2000D02*
X894262Y1745D01*
X894529Y1495D01*
X894803Y1253D01*
X895082Y1017D01*
X895367Y787D01*
X895657Y564D01*
X895952Y349D01*
X896252Y140D01*
X896558Y-61D01*
X896868Y-255D01*
X897182Y-442D01*
X897501Y-621D01*
X897824Y-792D01*
X898151Y-956D01*
X898482Y-1112D01*
X898816Y-1260D01*
X899154Y-1399D01*
X899495Y-1531D01*
X899839Y-1655D01*
X900186Y-1770D01*
X900535Y-1878D01*
X900888Y-1976D01*
X901242Y-2067D01*
X901598Y-2149D01*
X901956Y-2222D01*
X902316Y-2287D01*
X902677Y-2344D01*
X903040Y-2391D01*
X903404Y-2430D01*
X903768Y-2461D01*
X904133Y-2483D01*
X904498Y-2496D01*
X904864Y-2500D01*
X884343Y6000D02*
X73000Y6000D01*
X904864Y-2500D02*
X908000Y-2500D01*
X1275500Y-2500D01*
X1275500Y-12500D02*
X1282500Y-12500D01*
X114107Y-4000D02*
X113584Y-4006D01*
X113061Y-4025D01*
X112539Y-4056D01*
X112017Y-4100D01*
X111497Y-4155D01*
X110978Y-4224D01*
X110461Y-4304D01*
X109946Y-4397D01*
X109434Y-4502D01*
X108924Y-4620D01*
X108417Y-4749D01*
X107913Y-4891D01*
X107413Y-5044D01*
X106916Y-5209D01*
X106424Y-5386D01*
X105936Y-5575D01*
X105452Y-5775D01*
X104974Y-5987D01*
X104500Y-6210D01*
X104032Y-6444D01*
X103570Y-6689D01*
X103114Y-6946D01*
X102664Y-7213D01*
X102220Y-7490D01*
X101784Y-7778D01*
X101354Y-8077D01*
X100931Y-8385D01*
X100516Y-8704D01*
X100109Y-9032D01*
X99709Y-9370D01*
X99318Y-9717D01*
X98935Y-10074D01*
X98561Y-10440D01*
X96440Y-12561D02*
X96007Y-12983D01*
X95565Y-13395D01*
X95112Y-13796D01*
X94651Y-14186D01*
X94180Y-14566D01*
X93701Y-14934D01*
X93212Y-15290D01*
X92716Y-15635D01*
X92211Y-15968D01*
X91699Y-16289D01*
X91179Y-16597D01*
X90652Y-16893D01*
X90118Y-17176D01*
X89577Y-17447D01*
X89031Y-17705D01*
X88478Y-17949D01*
X87919Y-18181D01*
X87355Y-18399D01*
X86787Y-18603D01*
X86213Y-18794D01*
X85635Y-18971D01*
X85053Y-19135D01*
X84467Y-19284D01*
X83878Y-19420D01*
X83286Y-19541D01*
X82691Y-19648D01*
X82094Y-19741D01*
X81494Y-19820D01*
X80893Y-19885D01*
X80291Y-19935D01*
X79688Y-19971D01*
X79083Y-19993D01*
X78479Y-20000D01*
X96440Y-12561D02*
X98561Y-10440D01*
X78479Y-20000D02*
X73000Y-20000D01*
X580343Y-4000D02*
X580668Y-4004D01*
X580993Y-4015D01*
X581317Y-4035D01*
X581641Y-4062D01*
X581964Y-4097D01*
X582287Y-4139D01*
X582608Y-4189D01*
X582928Y-4247D01*
X583246Y-4312D01*
X583563Y-4385D01*
X583878Y-4465D01*
X584191Y-4553D01*
X584501Y-4648D01*
X584810Y-4751D01*
X585116Y-4861D01*
X585419Y-4978D01*
X585719Y-5103D01*
X586016Y-5234D01*
X586310Y-5373D01*
X586601Y-5518D01*
X586888Y-5671D01*
X587172Y-5830D01*
X587451Y-5996D01*
X587727Y-6168D01*
X587998Y-6347D01*
X588265Y-6532D01*
X588527Y-6724D01*
X588785Y-6922D01*
X589038Y-7126D01*
X589286Y-7336D01*
X589530Y-7551D01*
X589767Y-7773D01*
X590000Y-8000D01*
X590262Y-8255D01*
X590529Y-8505D01*
X590803Y-8747D01*
X591082Y-8983D01*
X591367Y-9213D01*
X591657Y-9436D01*
X591952Y-9651D01*
X592252Y-9860D01*
X592558Y-10061D01*
X592868Y-10255D01*
X593182Y-10442D01*
X593501Y-10621D01*
X593824Y-10792D01*
X594151Y-10956D01*
X594482Y-11112D01*
X594816Y-11260D01*
X595154Y-11399D01*
X595495Y-11531D01*
X595839Y-11655D01*
X596186Y-11770D01*
X596535Y-11878D01*
X596888Y-11976D01*
X597242Y-12067D01*
X597598Y-12149D01*
X597956Y-12222D01*
X598316Y-12287D01*
X598677Y-12344D01*
X599040Y-12391D01*
X599404Y-12430D01*
X599768Y-12461D01*
X600133Y-12483D01*
X600498Y-12496D01*
X600864Y-12500D01*
X580343Y-4000D02*
X114107Y-4000D01*
X600864Y-12500D02*
X1275500Y-12500D01*
X1275500Y-17500D02*
X1282500Y-17500D01*
X595864Y-17500D02*
X595498Y-17496D01*
X595133Y-17483D01*
X594768Y-17461D01*
X594404Y-17430D01*
X594040Y-17391D01*
X593677Y-17344D01*
X593316Y-17287D01*
X592956Y-17222D01*
X592598Y-17149D01*
X592242Y-17067D01*
X591888Y-16976D01*
X591535Y-16878D01*
X591186Y-16770D01*
X590839Y-16655D01*
X590495Y-16531D01*
X590154Y-16399D01*
X589816Y-16260D01*
X589482Y-16112D01*
X589151Y-15956D01*
X588824Y-15792D01*
X588501Y-15621D01*
X588182Y-15442D01*
X587868Y-15255D01*
X587558Y-15061D01*
X587252Y-14860D01*
X586952Y-14651D01*
X586657Y-14436D01*
X586367Y-14213D01*
X586082Y-13983D01*
X585803Y-13747D01*
X585529Y-13505D01*
X585262Y-13255D01*
X585000Y-13000D01*
X584767Y-12773D01*
X584530Y-12551D01*
X584286Y-12336D01*
X584038Y-12126D01*
X583785Y-11922D01*
X583527Y-11724D01*
X583265Y-11532D01*
X582998Y-11347D01*
X582727Y-11168D01*
X582451Y-10996D01*
X582172Y-10830D01*
X581888Y-10671D01*
X581601Y-10518D01*
X581310Y-10373D01*
X581016Y-10234D01*
X580719Y-10103D01*
X580419Y-9978D01*
X580116Y-9861D01*
X579810Y-9751D01*
X579501Y-9648D01*
X579191Y-9553D01*
X578878Y-9465D01*
X578563Y-9385D01*
X578246Y-9312D01*
X577928Y-9247D01*
X577608Y-9189D01*
X577287Y-9139D01*
X576964Y-9097D01*
X576641Y-9062D01*
X576317Y-9035D01*
X575993Y-9015D01*
X575668Y-9004D01*
X575343Y-9000D01*
X595864Y-17500D02*
X1275500Y-17500D01*
X118521Y-9000D02*
X117917Y-9007D01*
X117312Y-9029D01*
X116709Y-9065D01*
X116107Y-9115D01*
X115506Y-9180D01*
X114906Y-9259D01*
X114309Y-9352D01*
X113714Y-9459D01*
X113122Y-9580D01*
X112533Y-9716D01*
X111947Y-9865D01*
X111365Y-10029D01*
X110787Y-10206D01*
X110213Y-10397D01*
X109645Y-10601D01*
X109081Y-10819D01*
X108522Y-11051D01*
X107969Y-11295D01*
X107423Y-11553D01*
X106882Y-11824D01*
X106348Y-12107D01*
X105821Y-12403D01*
X105301Y-12711D01*
X104789Y-13032D01*
X104284Y-13365D01*
X103788Y-13710D01*
X103299Y-14066D01*
X102820Y-14434D01*
X102349Y-14814D01*
X101888Y-15204D01*
X101435Y-15605D01*
X100993Y-16017D01*
X100560Y-16439D01*
X100561Y-16440D02*
X99000Y-18000D01*
X98883Y-18120D01*
X98769Y-18243D01*
X98658Y-18368D01*
X98550Y-18496D01*
X98445Y-18627D01*
X98344Y-18761D01*
X98246Y-18896D01*
X98151Y-19035D01*
X98059Y-19175D01*
X97971Y-19318D01*
X97887Y-19462D01*
X97806Y-19609D01*
X97729Y-19758D01*
X97656Y-19909D01*
X97586Y-20061D01*
X97520Y-20215D01*
X97458Y-20371D01*
X97399Y-20528D01*
X97345Y-20686D01*
X97294Y-20846D01*
X97247Y-21007D01*
X97205Y-21169D01*
X97166Y-21332D01*
X97131Y-21496D01*
X97101Y-21661D01*
X97074Y-21826D01*
X97051Y-21992D01*
X97033Y-22159D01*
X97019Y-22326D01*
X97008Y-22493D01*
X97002Y-22660D01*
X97000Y-22828D01*
X97000Y-24757D02*
X96997Y-25001D01*
X96988Y-25244D01*
X96974Y-25488D01*
X96954Y-25731D01*
X96928Y-25973D01*
X96896Y-26215D01*
X96858Y-26456D01*
X96815Y-26695D01*
X96766Y-26934D01*
X96711Y-27172D01*
X96651Y-27408D01*
X96585Y-27643D01*
X96514Y-27876D01*
X96437Y-28107D01*
X96354Y-28337D01*
X96266Y-28564D01*
X96173Y-28789D01*
X96074Y-29012D01*
X95970Y-29233D01*
X95861Y-29451D01*
X95747Y-29666D01*
X95628Y-29878D01*
X95503Y-30088D01*
X95374Y-30295D01*
X95240Y-30498D01*
X95101Y-30699D01*
X94957Y-30895D01*
X94809Y-31089D01*
X94656Y-31279D01*
X94498Y-31465D01*
X94336Y-31647D01*
X94170Y-31825D01*
X94000Y-32000D01*
X93536Y-32464D01*
X93535Y-32464D02*
X93330Y-32665D01*
X93120Y-32861D01*
X92905Y-33052D01*
X92685Y-33237D01*
X92462Y-33417D01*
X92234Y-33592D01*
X92002Y-33762D01*
X91766Y-33926D01*
X91526Y-34084D01*
X91283Y-34236D01*
X91035Y-34383D01*
X90785Y-34523D01*
X90531Y-34658D01*
X90274Y-34787D01*
X90014Y-34909D01*
X89752Y-35025D01*
X89486Y-35135D01*
X89218Y-35239D01*
X88948Y-35336D01*
X88675Y-35427D01*
X88401Y-35511D01*
X88124Y-35589D01*
X87846Y-35660D01*
X87566Y-35724D01*
X87284Y-35782D01*
X87002Y-35833D01*
X86718Y-35877D01*
X86433Y-35915D01*
X86147Y-35945D01*
X85861Y-35969D01*
X85574Y-35986D01*
X85287Y-35997D01*
X85000Y-36000D01*
X73000Y-36000D01*
X118521Y-9000D02*
X575343Y-9000D01*
X97000Y-22828D02*
X97000Y-24757D01*
X1275500Y-27500D02*
X1282500Y-27500D01*
X1275500Y-27500D02*
X569450Y-27500D01*
X569166Y-27497D01*
X568881Y-27486D01*
X568597Y-27470D01*
X568314Y-27446D01*
X568031Y-27415D01*
X567749Y-27378D01*
X567468Y-27335D01*
X567188Y-27284D01*
X566910Y-27227D01*
X566633Y-27163D01*
X566357Y-27093D01*
X566083Y-27016D01*
X565811Y-26933D01*
X565542Y-26843D01*
X565274Y-26747D01*
X565009Y-26644D01*
X564746Y-26535D01*
X564486Y-26420D01*
X564229Y-26299D01*
X563974Y-26172D01*
X563723Y-26038D01*
X563475Y-25899D01*
X563230Y-25754D01*
X562989Y-25603D01*
X562752Y-25446D01*
X562518Y-25284D01*
X562289Y-25116D01*
X562063Y-24943D01*
X561842Y-24765D01*
X561624Y-24581D01*
X561412Y-24392D01*
X561204Y-24199D01*
X561000Y-24000D01*
X560709Y-23716D01*
X560412Y-23439D01*
X560108Y-23170D01*
X559798Y-22907D01*
X559482Y-22652D01*
X559159Y-22405D01*
X558831Y-22165D01*
X558497Y-21934D01*
X558158Y-21710D01*
X557814Y-21494D01*
X557465Y-21287D01*
X557110Y-21088D01*
X556751Y-20898D01*
X556388Y-20716D01*
X556021Y-20543D01*
X555649Y-20378D01*
X555274Y-20223D01*
X554895Y-20076D01*
X554512Y-19939D01*
X554127Y-19811D01*
X553738Y-19691D01*
X553347Y-19582D01*
X552954Y-19481D01*
X552558Y-19390D01*
X552160Y-19308D01*
X551760Y-19236D01*
X551358Y-19174D01*
X550956Y-19121D01*
X550552Y-19077D01*
X550147Y-19043D01*
X549741Y-19019D01*
X549335Y-19005D01*
X548929Y-19000D01*
X129107Y-19000D02*
X128584Y-19006D01*
X128061Y-19025D01*
X127539Y-19056D01*
X127017Y-19100D01*
X126497Y-19155D01*
X125978Y-19224D01*
X125461Y-19304D01*
X124946Y-19397D01*
X124434Y-19502D01*
X123924Y-19620D01*
X123417Y-19749D01*
X122913Y-19891D01*
X122413Y-20044D01*
X121916Y-20209D01*
X121424Y-20386D01*
X120936Y-20575D01*
X120452Y-20775D01*
X119974Y-20987D01*
X119500Y-21210D01*
X119032Y-21444D01*
X118570Y-21689D01*
X118114Y-21946D01*
X117664Y-22213D01*
X117220Y-22490D01*
X116784Y-22778D01*
X116354Y-23077D01*
X115931Y-23385D01*
X115516Y-23704D01*
X115109Y-24032D01*
X114709Y-24370D01*
X114318Y-24717D01*
X113935Y-25074D01*
X113561Y-25440D01*
X102440Y-36561D02*
X102007Y-36983D01*
X101565Y-37395D01*
X101112Y-37796D01*
X100651Y-38186D01*
X100180Y-38566D01*
X99701Y-38934D01*
X99212Y-39290D01*
X98716Y-39635D01*
X98211Y-39968D01*
X97699Y-40289D01*
X97179Y-40597D01*
X96652Y-40893D01*
X96118Y-41176D01*
X95577Y-41447D01*
X95031Y-41705D01*
X94478Y-41949D01*
X93919Y-42181D01*
X93355Y-42399D01*
X92787Y-42603D01*
X92213Y-42794D01*
X91635Y-42971D01*
X91053Y-43135D01*
X90467Y-43284D01*
X89878Y-43420D01*
X89286Y-43541D01*
X88691Y-43648D01*
X88094Y-43741D01*
X87494Y-43820D01*
X86893Y-43885D01*
X86291Y-43935D01*
X85688Y-43971D01*
X85083Y-43993D01*
X84479Y-44000D01*
X129107Y-19000D02*
X548929Y-19000D01*
X113561Y-25440D02*
X102440Y-36561D01*
X84479Y-44000D02*
X73000Y-44000D01*
D19*
X491500Y-42000D03*
D17*
X491770Y-41737D01*
X492046Y-41480D01*
X492329Y-41230D01*
X492617Y-40987D01*
X492912Y-40752D01*
X493212Y-40524D01*
X493517Y-40303D01*
X493828Y-40089D01*
X494144Y-39884D01*
X494465Y-39686D01*
X494791Y-39496D01*
X495121Y-39314D01*
X495456Y-39141D01*
X495795Y-38975D01*
X496138Y-38818D01*
X496484Y-38670D01*
X496835Y-38529D01*
X497188Y-38398D01*
X497545Y-38275D01*
X497904Y-38162D01*
X498266Y-38057D01*
X498631Y-37960D01*
X498998Y-37873D01*
X499367Y-37795D01*
X499737Y-37726D01*
X500110Y-37666D01*
X500483Y-37616D01*
X500858Y-37574D01*
X501234Y-37542D01*
X501610Y-37519D01*
X501987Y-37505D01*
X502364Y-37500D01*
X1275500Y-37500D01*
D24*
X187000Y143000D03*
X221000Y143000D03*
X236000Y143000D03*
X1220000Y97000D03*
X1205000Y97000D03*
D25*
X1220000Y97000D01*
D26*
X221000Y143000D02*
X176000Y143000D01*
D25*
X221000Y143000D02*
X236000Y143000D01*
D26*
X1220000Y97000D02*
X1239000Y97000D01*
X1243000Y97000D01*
D21*
X1244207Y97500D02*
X1275500Y97500D01*
D17*
X1244207Y97500D02*
X1244128Y97498D01*
X1244049Y97493D01*
X1243971Y97484D01*
X1243893Y97471D01*
X1243816Y97455D01*
X1243740Y97435D01*
X1243665Y97412D01*
X1243590Y97385D01*
X1243518Y97355D01*
X1243446Y97321D01*
X1243376Y97284D01*
X1243308Y97244D01*
X1243242Y97201D01*
X1243178Y97155D01*
X1243116Y97106D01*
X1243057Y97054D01*
X1243000Y97000D01*
D21*
X1252278Y102500D02*
X1275500Y102500D01*
X1252278Y102500D02*
X1251831Y102495D01*
X1251385Y102479D01*
X1250938Y102452D01*
X1250493Y102415D01*
X1250049Y102367D01*
X1249606Y102309D01*
X1249164Y102240D01*
X1248724Y102161D01*
X1248286Y102071D01*
X1247851Y101971D01*
X1247418Y101860D01*
X1246988Y101739D01*
X1246560Y101608D01*
X1246136Y101467D01*
X1245716Y101316D01*
X1245299Y101155D01*
X1244886Y100984D01*
X1244477Y100803D01*
X1244073Y100613D01*
X1243673Y100413D01*
X1243279Y100203D01*
X1242889Y99984D01*
X1242505Y99756D01*
X1242126Y99519D01*
X1241753Y99273D01*
X1241386Y99018D01*
X1241025Y98755D01*
X1240670Y98483D01*
X1240322Y98202D01*
X1239981Y97913D01*
X1239647Y97617D01*
X1239320Y97312D01*
X1239000Y97000D01*
X1249864Y92500D02*
X1275500Y92500D01*
X1249864Y92500D02*
X1249498Y92504D01*
X1249133Y92517D01*
X1248768Y92539D01*
X1248404Y92570D01*
X1248040Y92609D01*
X1247677Y92656D01*
X1247316Y92713D01*
X1246956Y92778D01*
X1246598Y92851D01*
X1246242Y92933D01*
X1245888Y93024D01*
X1245535Y93122D01*
X1245186Y93230D01*
X1244839Y93345D01*
X1244495Y93469D01*
X1244154Y93601D01*
X1243816Y93740D01*
X1243482Y93888D01*
X1243151Y94044D01*
X1242824Y94208D01*
X1242501Y94379D01*
X1242182Y94558D01*
X1241868Y94745D01*
X1241558Y94939D01*
X1241252Y95140D01*
X1240952Y95349D01*
X1240657Y95564D01*
X1240367Y95787D01*
X1240082Y96017D01*
X1239803Y96253D01*
X1239529Y96495D01*
X1239262Y96745D01*
X1239000Y97000D01*
D26*
X318479Y143000D02*
X236000Y143000D01*
X318479Y143000D02*
X319102Y142992D01*
X319725Y142969D01*
X320348Y142931D01*
X320969Y142878D01*
X321588Y142809D01*
X322206Y142725D01*
X322821Y142626D01*
X323434Y142512D01*
X324044Y142383D01*
X324651Y142239D01*
X325254Y142080D01*
X325852Y141906D01*
X326447Y141718D01*
X327036Y141515D01*
X327620Y141298D01*
X328199Y141067D01*
X328772Y140821D01*
X329339Y140561D01*
X329899Y140288D01*
X330452Y140001D01*
X330999Y139700D01*
X331537Y139386D01*
X332068Y139059D01*
X332590Y138719D01*
X333105Y138367D01*
X333610Y138001D01*
X334106Y137624D01*
X334593Y137234D01*
X335070Y136833D01*
X335537Y136420D01*
X335993Y135996D01*
X336440Y135561D01*
X367560Y104439D02*
X368007Y104004D01*
X368463Y103580D01*
X368930Y103167D01*
X369407Y102766D01*
X369894Y102376D01*
X370390Y101999D01*
X370895Y101633D01*
X371410Y101281D01*
X371932Y100941D01*
X372463Y100614D01*
X373001Y100300D01*
X373548Y99999D01*
X374101Y99712D01*
X374661Y99439D01*
X375228Y99179D01*
X375801Y98933D01*
X376380Y98702D01*
X376964Y98485D01*
X377553Y98282D01*
X378148Y98094D01*
X378746Y97920D01*
X379349Y97761D01*
X379956Y97617D01*
X380566Y97488D01*
X381179Y97374D01*
X381794Y97275D01*
X382412Y97191D01*
X383031Y97122D01*
X383652Y97069D01*
X384275Y97031D01*
X384898Y97008D01*
X385521Y97000D01*
X1205000Y97000D01*
X367561Y104440D02*
X336440Y135561D01*
D27*
X272000Y118000D03*
X173000Y143000D03*
X174000Y-48000D03*
X5000Y-77000D03*
D19*
X1208000Y84000D03*
D17*
X358000Y84000D01*
X351000Y84000D01*
X345000Y84000D01*
X341000Y84000D01*
X332657Y84000D01*
X332332Y84004D01*
X332007Y84015D01*
X331683Y84035D01*
X331359Y84062D01*
X331036Y84097D01*
X330713Y84139D01*
X330392Y84189D01*
X330072Y84247D01*
X329754Y84312D01*
X329437Y84385D01*
X329122Y84465D01*
X328809Y84553D01*
X328499Y84648D01*
X328190Y84751D01*
X327884Y84861D01*
X327581Y84978D01*
X327281Y85103D01*
X326984Y85234D01*
X326690Y85373D01*
X326399Y85518D01*
X326112Y85671D01*
X325828Y85830D01*
X325549Y85996D01*
X325273Y86168D01*
X325002Y86347D01*
X324735Y86532D01*
X324473Y86724D01*
X324215Y86922D01*
X323962Y87126D01*
X323714Y87336D01*
X323470Y87551D01*
X323233Y87773D01*
X323000Y88000D01*
X318065Y112500D02*
X318000Y112500D01*
X318000Y112000D01*
X318000Y103000D01*
X318000Y97000D01*
X318003Y96763D01*
X318012Y96526D01*
X318026Y96290D01*
X318047Y96053D01*
X318073Y95818D01*
X318105Y95583D01*
X318142Y95349D01*
X318186Y95116D01*
X318235Y94884D01*
X318289Y94654D01*
X318350Y94424D01*
X318416Y94197D01*
X318487Y93971D01*
X318565Y93747D01*
X318647Y93524D01*
X318735Y93304D01*
X318828Y93087D01*
X318927Y92871D01*
X319031Y92658D01*
X319140Y92448D01*
X319255Y92240D01*
X319374Y92035D01*
X319498Y91834D01*
X319628Y91635D01*
X319762Y91439D01*
X319900Y91247D01*
X320044Y91059D01*
X320192Y90874D01*
X320345Y90692D01*
X320502Y90515D01*
X320663Y90341D01*
X320828Y90171D01*
X320828Y90172D02*
X323000Y88000D01*
X318000Y97000D02*
X322000Y103000D01*
X318000Y97000D02*
X313000Y103000D01*
X318000Y112000D02*
X329000Y112000D01*
X318000Y121000D01*
X329000Y112000D02*
X318000Y103000D01*
X341000Y84000D02*
X345000Y86000D01*
X347000Y88000D01*
X348000Y90000D01*
X348000Y92000D01*
X349000Y89000D01*
X351172Y86828D01*
X351171Y86828D02*
X351336Y86668D01*
X351504Y86511D01*
X351676Y86359D01*
X351851Y86210D01*
X352030Y86066D01*
X352213Y85926D01*
X352398Y85791D01*
X352587Y85660D01*
X352779Y85533D01*
X352974Y85411D01*
X353171Y85294D01*
X353372Y85181D01*
X353575Y85074D01*
X353780Y84971D01*
X353988Y84873D01*
X354199Y84780D01*
X354411Y84692D01*
X354625Y84609D01*
X354841Y84531D01*
X355060Y84459D01*
X355279Y84391D01*
X355501Y84329D01*
X355723Y84272D01*
X355947Y84221D01*
X356172Y84175D01*
X356399Y84134D01*
X356626Y84098D01*
X356854Y84068D01*
X357082Y84044D01*
X357311Y84025D01*
X357540Y84011D01*
X357770Y84003D01*
X358000Y84000D01*
X330343Y112000D02*
X329000Y112000D01*
X330343Y112000D02*
X330668Y111996D01*
X330993Y111985D01*
X331317Y111965D01*
X331641Y111938D01*
X331964Y111903D01*
X332287Y111861D01*
X332608Y111811D01*
X332928Y111753D01*
X333246Y111688D01*
X333563Y111615D01*
X333878Y111535D01*
X334191Y111447D01*
X334501Y111352D01*
X334810Y111249D01*
X335116Y111139D01*
X335419Y111022D01*
X335719Y110897D01*
X336016Y110766D01*
X336310Y110627D01*
X336601Y110482D01*
X336888Y110329D01*
X337172Y110170D01*
X337451Y110004D01*
X337727Y109832D01*
X337998Y109653D01*
X338265Y109468D01*
X338527Y109276D01*
X338785Y109078D01*
X339038Y108874D01*
X339286Y108664D01*
X339530Y108449D01*
X339767Y108227D01*
X340000Y108000D01*
X342343Y105657D01*
X342664Y105328D01*
X342977Y104992D01*
X343283Y104648D01*
X343579Y104297D01*
X343868Y103939D01*
X344148Y103574D01*
X344419Y103203D01*
X344681Y102826D01*
X344934Y102442D01*
X345178Y102052D01*
X345412Y101657D01*
X345637Y101256D01*
X345853Y100850D01*
X346059Y100439D01*
X346255Y100023D01*
X346441Y99603D01*
X346617Y99178D01*
X346782Y98750D01*
X346938Y98317D01*
X347083Y97881D01*
X347218Y97441D01*
X347342Y96999D01*
X347456Y96553D01*
X347559Y96105D01*
X347651Y95655D01*
X347733Y95203D01*
X347803Y94749D01*
X347863Y94293D01*
X347913Y93836D01*
X347951Y93378D01*
X347978Y92919D01*
X347995Y92460D01*
X348000Y92000D01*
X349000Y87000D02*
X345000Y84000D01*
X349000Y87000D02*
X351000Y84000D01*
X318000Y112500D02*
X307000Y112500D01*
X318000Y112500D02*
X318000Y132000D01*
D23*
X1246500Y-7500D03*
X1237500Y-7500D03*
D18*
X1246500Y-7500D01*
D17*
X1275500Y-7500D01*
M02*
