%TF.GenerationSoftware,KiCad,Pcbnew,(6.0.7)*%
%TF.CreationDate,2022-09-05T21:16:32+02:00*%
%TF.ProjectId,rcp2n64adv2,72637032-6e36-4346-9164-76322e6b6963,v20220903*%
%TF.SameCoordinates,Original*%
%TF.FileFunction,Soldermask,Bot*%
%TF.FilePolarity,Negative*%
%FSLAX46Y46*%
G04 Gerber Fmt 4.6, Leading zero omitted, Abs format (unit mm)*
G04 Created by KiCad (PCBNEW (6.0.7)) date 2022-09-05 21:16:32*
%MOMM*%
%LPD*%
G01*
G04 APERTURE LIST*
G04 Aperture macros list*
%AMRoundRect*
0 Rectangle with rounded corners*
0 $1 Rounding radius*
0 $2 $3 $4 $5 $6 $7 $8 $9 X,Y pos of 4 corners*
0 Add a 4 corners polygon primitive as box body*
4,1,4,$2,$3,$4,$5,$6,$7,$8,$9,$2,$3,0*
0 Add four circle primitives for the rounded corners*
1,1,$1+$1,$2,$3*
1,1,$1+$1,$4,$5*
1,1,$1+$1,$6,$7*
1,1,$1+$1,$8,$9*
0 Add four rect primitives between the rounded corners*
20,1,$1+$1,$2,$3,$4,$5,0*
20,1,$1+$1,$4,$5,$6,$7,0*
20,1,$1+$1,$6,$7,$8,$9,0*
20,1,$1+$1,$8,$9,$2,$3,0*%
%AMFreePoly0*
4,1,22,0.500000,-0.750000,0.000000,-0.750000,0.000000,-0.745033,-0.079941,-0.743568,-0.215256,-0.701293,-0.333266,-0.622738,-0.424486,-0.514219,-0.481581,-0.384460,-0.499164,-0.250000,-0.500000,-0.250000,-0.500000,0.250000,-0.499164,0.250000,-0.499963,0.256109,-0.478152,0.396186,-0.417904,0.524511,-0.324060,0.630769,-0.204165,0.706417,-0.067858,0.745374,0.000000,0.744959,0.000000,0.750000,
0.500000,0.750000,0.500000,-0.750000,0.500000,-0.750000,$1*%
%AMFreePoly1*
4,1,20,0.000000,0.744959,0.073905,0.744508,0.209726,0.703889,0.328688,0.626782,0.421226,0.519385,0.479903,0.390333,0.500000,0.250000,0.500000,-0.250000,0.499851,-0.262216,0.476331,-0.402017,0.414519,-0.529596,0.319384,-0.634700,0.198574,-0.708877,0.061801,-0.746166,0.000000,-0.745033,0.000000,-0.750000,-0.500000,-0.750000,-0.500000,0.750000,0.000000,0.750000,0.000000,0.744959,
0.000000,0.744959,$1*%
G04 Aperture macros list end*
%ADD10R,1.350000X0.450000*%
%ADD11C,0.450000*%
%ADD12C,1.200000*%
%ADD13R,2.540000X1.270000*%
%ADD14RoundRect,0.237500X0.300000X0.237500X-0.300000X0.237500X-0.300000X-0.237500X0.300000X-0.237500X0*%
%ADD15RoundRect,0.237500X-0.250000X-0.237500X0.250000X-0.237500X0.250000X0.237500X-0.250000X0.237500X0*%
%ADD16FreePoly0,270.000000*%
%ADD17FreePoly1,270.000000*%
%ADD18C,0.635000*%
%ADD19R,1.270000X0.635000*%
%ADD20R,0.700000X0.510000*%
G04 APERTURE END LIST*
D10*
%TO.C,X2*%
X85985000Y-105980000D03*
D11*
X86435000Y-105980000D03*
X85760000Y-105980000D03*
%TD*%
D12*
%TO.C,J1*%
X104307500Y-90365000D03*
X103037500Y-90365000D03*
D13*
X103097500Y-90365000D03*
%TD*%
D12*
%TO.C,J2*%
X112925000Y-92870000D03*
D13*
X112865000Y-92870000D03*
D12*
X111655000Y-92870000D03*
%TD*%
D10*
%TO.C,X1*%
X85980000Y-107930000D03*
D11*
X86430000Y-107930000D03*
X85755000Y-107930000D03*
D10*
X85980000Y-107280000D03*
D11*
X86430000Y-107280000D03*
X85755000Y-107280000D03*
X86430000Y-106630000D03*
X85755000Y-106630000D03*
D10*
X85980000Y-106630000D03*
X85980000Y-105330000D03*
D11*
X86430000Y-105330000D03*
X85755000Y-105330000D03*
X85755000Y-104680000D03*
X86430000Y-104680000D03*
D10*
X85980000Y-104680000D03*
X85980000Y-104030000D03*
D11*
X86430000Y-104030000D03*
X85755000Y-104030000D03*
X86430000Y-102730000D03*
X85755000Y-102730000D03*
D10*
X85980000Y-102730000D03*
D11*
X85755000Y-102080000D03*
X86430000Y-102080000D03*
D10*
X85980000Y-102080000D03*
X85980000Y-101430000D03*
D11*
X85755000Y-101430000D03*
X86430000Y-101430000D03*
X86430000Y-100130000D03*
X85755000Y-100130000D03*
D10*
X85980000Y-100130000D03*
D11*
X85755000Y-99480000D03*
D10*
X85980000Y-99480000D03*
D11*
X86430000Y-99480000D03*
X86430000Y-98830000D03*
X85755000Y-98830000D03*
D10*
X85980000Y-98830000D03*
D11*
X86430000Y-98180000D03*
D10*
X85980000Y-98180000D03*
D11*
X85755000Y-98180000D03*
X86430000Y-96880000D03*
D10*
X85980000Y-96880000D03*
D11*
X85755000Y-96880000D03*
X85755000Y-96230000D03*
X86430000Y-96230000D03*
D10*
X85980000Y-96230000D03*
D11*
X86430000Y-95580000D03*
X85755000Y-95580000D03*
D10*
X85980000Y-95580000D03*
X85980000Y-93630000D03*
D11*
X85755000Y-93630000D03*
X86430000Y-93630000D03*
%TD*%
D14*
%TO.C,C1*%
X96222500Y-111780000D03*
X94497500Y-111780000D03*
%TD*%
D15*
%TO.C,R2*%
X109937500Y-109520000D03*
X111762500Y-109520000D03*
%TD*%
D16*
%TO.C,SJ1*%
X102660000Y-112320000D03*
D17*
X102660000Y-113620000D03*
%TD*%
D15*
%TO.C,R1*%
X106495000Y-113160000D03*
X108320000Y-113160000D03*
%TD*%
D18*
%TO.C,J5*%
X104787500Y-109490000D03*
D19*
X104767500Y-109490000D03*
D18*
X104092500Y-109490000D03*
%TD*%
D19*
%TO.C,J4*%
X86907500Y-112370000D03*
D18*
X86927500Y-112370000D03*
X86232500Y-112370000D03*
%TD*%
D20*
%TO.C,U1*%
X100340000Y-111140000D03*
X100340000Y-112090000D03*
X100340000Y-113040000D03*
X98020000Y-113040000D03*
X98020000Y-111140000D03*
%TD*%
M02*
