%TF.GenerationSoftware,KiCad,Pcbnew,(6.0.4)*%
%TF.CreationDate,2022-07-22T09:07:41+02:00*%
%TF.ProjectId,rcp2n64adv2,72637032-6e36-4346-9164-76322e6b6963,rev?*%
%TF.SameCoordinates,Original*%
%TF.FileFunction,Legend,Top*%
%TF.FilePolarity,Positive*%
%FSLAX46Y46*%
G04 Gerber Fmt 4.6, Leading zero omitted, Abs format (unit mm)*
G04 Created by KiCad (PCBNEW (6.0.4)) date 2022-07-22 09:07:41*
%MOMM*%
%LPD*%
G01*
G04 APERTURE LIST*
%ADD10C,0.216421*%
%ADD11C,0.150000*%
%ADD12C,0.120000*%
G04 APERTURE END LIST*
D10*
X87808210Y-95550000D02*
G75*
G03*
X87808210Y-95550000I-108210J0D01*
G01*
X87808210Y-105350000D02*
G75*
G03*
X87808210Y-105350000I-108210J0D01*
G01*
X87808210Y-102041421D02*
G75*
G03*
X87808210Y-102041421I-108210J0D01*
G01*
X87808210Y-98791421D02*
G75*
G03*
X87808210Y-98791421I-108210J0D01*
G01*
D11*
X210602380Y-105997619D02*
X209602380Y-105997619D01*
X210602380Y-105426190D01*
X209602380Y-105426190D01*
X209602380Y-104521428D02*
X209602380Y-104711904D01*
X209650000Y-104807142D01*
X209697619Y-104854761D01*
X209840476Y-104950000D01*
X210030952Y-104997619D01*
X210411904Y-104997619D01*
X210507142Y-104950000D01*
X210554761Y-104902380D01*
X210602380Y-104807142D01*
X210602380Y-104616666D01*
X210554761Y-104521428D01*
X210507142Y-104473809D01*
X210411904Y-104426190D01*
X210173809Y-104426190D01*
X210078571Y-104473809D01*
X210030952Y-104521428D01*
X209983333Y-104616666D01*
X209983333Y-104807142D01*
X210030952Y-104902380D01*
X210078571Y-104950000D01*
X210173809Y-104997619D01*
X209935714Y-103569047D02*
X210602380Y-103569047D01*
X209554761Y-103807142D02*
X210269047Y-104045238D01*
X210269047Y-103426190D01*
X210316666Y-103092857D02*
X210316666Y-102616666D01*
X210602380Y-103188095D02*
X209602380Y-102854761D01*
X210602380Y-102521428D01*
X210602380Y-101759523D02*
X209602380Y-101759523D01*
X210554761Y-101759523D02*
X210602380Y-101854761D01*
X210602380Y-102045238D01*
X210554761Y-102140476D01*
X210507142Y-102188095D01*
X210411904Y-102235714D01*
X210126190Y-102235714D01*
X210030952Y-102188095D01*
X209983333Y-102140476D01*
X209935714Y-102045238D01*
X209935714Y-101854761D01*
X209983333Y-101759523D01*
X209935714Y-101378571D02*
X210602380Y-101140476D01*
X209935714Y-100902380D01*
X209697619Y-100569047D02*
X209650000Y-100521428D01*
X209602380Y-100426190D01*
X209602380Y-100188095D01*
X209650000Y-100092857D01*
X209697619Y-100045238D01*
X209792857Y-99997619D01*
X209888095Y-99997619D01*
X210030952Y-100045238D01*
X210602380Y-100616666D01*
X210602380Y-99997619D01*
X210221428Y-99569047D02*
X210221428Y-98807142D01*
X209602380Y-98426190D02*
X210602380Y-97759523D01*
X209602380Y-97759523D02*
X210602380Y-98426190D01*
X210602380Y-96854761D02*
X210602380Y-97426190D01*
X210602380Y-97140476D02*
X209602380Y-97140476D01*
X209745238Y-97235714D01*
X209840476Y-97330952D01*
X209888095Y-97426190D01*
X111459523Y-89902380D02*
X110983333Y-89902380D01*
X110935714Y-90378571D01*
X110983333Y-90330952D01*
X111078571Y-90283333D01*
X111316666Y-90283333D01*
X111411904Y-90330952D01*
X111459523Y-90378571D01*
X111507142Y-90473809D01*
X111507142Y-90711904D01*
X111459523Y-90807142D01*
X111411904Y-90854761D01*
X111316666Y-90902380D01*
X111078571Y-90902380D01*
X110983333Y-90854761D01*
X110935714Y-90807142D01*
X111792857Y-89902380D02*
X112126190Y-90902380D01*
X112459523Y-89902380D01*
X101923809Y-92402380D02*
X102542857Y-92402380D01*
X102209523Y-92783333D01*
X102352380Y-92783333D01*
X102447619Y-92830952D01*
X102495238Y-92878571D01*
X102542857Y-92973809D01*
X102542857Y-93211904D01*
X102495238Y-93307142D01*
X102447619Y-93354761D01*
X102352380Y-93402380D01*
X102066666Y-93402380D01*
X101971428Y-93354761D01*
X101923809Y-93307142D01*
X102971428Y-93307142D02*
X103019047Y-93354761D01*
X102971428Y-93402380D01*
X102923809Y-93354761D01*
X102971428Y-93307142D01*
X102971428Y-93402380D01*
X103352380Y-92402380D02*
X103971428Y-92402380D01*
X103638095Y-92783333D01*
X103780952Y-92783333D01*
X103876190Y-92830952D01*
X103923809Y-92878571D01*
X103971428Y-92973809D01*
X103971428Y-93211904D01*
X103923809Y-93307142D01*
X103876190Y-93354761D01*
X103780952Y-93402380D01*
X103495238Y-93402380D01*
X103400000Y-93354761D01*
X103352380Y-93307142D01*
X104257142Y-92402380D02*
X104590476Y-93402380D01*
X104923809Y-92402380D01*
X88152380Y-107461904D02*
X88000000Y-107461904D01*
X87923809Y-107500000D01*
X87885714Y-107538095D01*
X87809523Y-107652380D01*
X87771428Y-107804761D01*
X87771428Y-108109523D01*
X87809523Y-108185714D01*
X87847619Y-108223809D01*
X87923809Y-108261904D01*
X88076190Y-108261904D01*
X88152380Y-108223809D01*
X88190476Y-108185714D01*
X88228571Y-108109523D01*
X88228571Y-107919047D01*
X88190476Y-107842857D01*
X88152380Y-107804761D01*
X88076190Y-107766666D01*
X87923809Y-107766666D01*
X87847619Y-107804761D01*
X87809523Y-107842857D01*
X87771428Y-107919047D01*
X87590476Y-92538095D02*
X87628571Y-92500000D01*
X87704761Y-92461904D01*
X87895238Y-92461904D01*
X87971428Y-92500000D01*
X88009523Y-92538095D01*
X88047619Y-92614285D01*
X88047619Y-92690476D01*
X88009523Y-92804761D01*
X87552380Y-93261904D01*
X88047619Y-93261904D01*
X88504761Y-92804761D02*
X88428571Y-92766666D01*
X88390476Y-92728571D01*
X88352380Y-92652380D01*
X88352380Y-92614285D01*
X88390476Y-92538095D01*
X88428571Y-92500000D01*
X88504761Y-92461904D01*
X88657142Y-92461904D01*
X88733333Y-92500000D01*
X88771428Y-92538095D01*
X88809523Y-92614285D01*
X88809523Y-92652380D01*
X88771428Y-92728571D01*
X88733333Y-92766666D01*
X88657142Y-92804761D01*
X88504761Y-92804761D01*
X88428571Y-92842857D01*
X88390476Y-92880952D01*
X88352380Y-92957142D01*
X88352380Y-93109523D01*
X88390476Y-93185714D01*
X88428571Y-93223809D01*
X88504761Y-93261904D01*
X88657142Y-93261904D01*
X88733333Y-93223809D01*
X88771428Y-93185714D01*
X88809523Y-93109523D01*
X88809523Y-92957142D01*
X88771428Y-92880952D01*
X88733333Y-92842857D01*
X88657142Y-92804761D01*
%TO.C,RN4*%
X95711904Y-108102380D02*
X95330952Y-108369047D01*
X95711904Y-108559523D02*
X94911904Y-108559523D01*
X94911904Y-108254761D01*
X94950000Y-108178571D01*
X94988095Y-108140476D01*
X95064285Y-108102380D01*
X95178571Y-108102380D01*
X95254761Y-108140476D01*
X95292857Y-108178571D01*
X95330952Y-108254761D01*
X95330952Y-108559523D01*
X95711904Y-107759523D02*
X94911904Y-107759523D01*
X95711904Y-107302380D01*
X94911904Y-107302380D01*
X95178571Y-106578571D02*
X95711904Y-106578571D01*
X94873809Y-106769047D02*
X95445238Y-106959523D01*
X95445238Y-106464285D01*
%TO.C,RN3*%
X95711904Y-104102380D02*
X95330952Y-104369047D01*
X95711904Y-104559523D02*
X94911904Y-104559523D01*
X94911904Y-104254761D01*
X94950000Y-104178571D01*
X94988095Y-104140476D01*
X95064285Y-104102380D01*
X95178571Y-104102380D01*
X95254761Y-104140476D01*
X95292857Y-104178571D01*
X95330952Y-104254761D01*
X95330952Y-104559523D01*
X95711904Y-103759523D02*
X94911904Y-103759523D01*
X95711904Y-103302380D01*
X94911904Y-103302380D01*
X94911904Y-102997619D02*
X94911904Y-102502380D01*
X95216666Y-102769047D01*
X95216666Y-102654761D01*
X95254761Y-102578571D01*
X95292857Y-102540476D01*
X95369047Y-102502380D01*
X95559523Y-102502380D01*
X95635714Y-102540476D01*
X95673809Y-102578571D01*
X95711904Y-102654761D01*
X95711904Y-102883333D01*
X95673809Y-102959523D01*
X95635714Y-102997619D01*
%TO.C,RN2*%
X95761904Y-100152380D02*
X95380952Y-100419047D01*
X95761904Y-100609523D02*
X94961904Y-100609523D01*
X94961904Y-100304761D01*
X95000000Y-100228571D01*
X95038095Y-100190476D01*
X95114285Y-100152380D01*
X95228571Y-100152380D01*
X95304761Y-100190476D01*
X95342857Y-100228571D01*
X95380952Y-100304761D01*
X95380952Y-100609523D01*
X95761904Y-99809523D02*
X94961904Y-99809523D01*
X95761904Y-99352380D01*
X94961904Y-99352380D01*
X95038095Y-99009523D02*
X95000000Y-98971428D01*
X94961904Y-98895238D01*
X94961904Y-98704761D01*
X95000000Y-98628571D01*
X95038095Y-98590476D01*
X95114285Y-98552380D01*
X95190476Y-98552380D01*
X95304761Y-98590476D01*
X95761904Y-99047619D01*
X95761904Y-98552380D01*
%TO.C,J3*%
X114766666Y-95352380D02*
X114766666Y-96066666D01*
X114719047Y-96209523D01*
X114623809Y-96304761D01*
X114480952Y-96352380D01*
X114385714Y-96352380D01*
X115147619Y-95352380D02*
X115766666Y-95352380D01*
X115433333Y-95733333D01*
X115576190Y-95733333D01*
X115671428Y-95780952D01*
X115719047Y-95828571D01*
X115766666Y-95923809D01*
X115766666Y-96161904D01*
X115719047Y-96257142D01*
X115671428Y-96304761D01*
X115576190Y-96352380D01*
X115290476Y-96352380D01*
X115195238Y-96304761D01*
X115147619Y-96257142D01*
%TO.C,RN1*%
X95711904Y-96102380D02*
X95330952Y-96369047D01*
X95711904Y-96559523D02*
X94911904Y-96559523D01*
X94911904Y-96254761D01*
X94950000Y-96178571D01*
X94988095Y-96140476D01*
X95064285Y-96102380D01*
X95178571Y-96102380D01*
X95254761Y-96140476D01*
X95292857Y-96178571D01*
X95330952Y-96254761D01*
X95330952Y-96559523D01*
X95711904Y-95759523D02*
X94911904Y-95759523D01*
X95711904Y-95302380D01*
X94911904Y-95302380D01*
X95711904Y-94502380D02*
X95711904Y-94959523D01*
X95711904Y-94730952D02*
X94911904Y-94730952D01*
X95026190Y-94807142D01*
X95102380Y-94883333D01*
X95140476Y-94959523D01*
%TO.C,X1*%
X88702380Y-96109523D02*
X89702380Y-95442857D01*
X88702380Y-95442857D02*
X89702380Y-96109523D01*
X89702380Y-94538095D02*
X89702380Y-95109523D01*
X89702380Y-94823809D02*
X88702380Y-94823809D01*
X88845238Y-94919047D01*
X88940476Y-95014285D01*
X88988095Y-95109523D01*
D12*
%TO.C,J3.1*%
X118600000Y-93950000D02*
G75*
G03*
X118600000Y-93950000I-950000J0D01*
G01*
%TO.C,RN4*%
X93560000Y-109250000D02*
X92560000Y-109250000D01*
X93560000Y-105890000D02*
X92560000Y-105890000D01*
%TO.C,RN3*%
X93560000Y-105230000D02*
X92560000Y-105230000D01*
X93560000Y-101870000D02*
X92560000Y-101870000D01*
%TO.C,RN2*%
X93560000Y-101300000D02*
X92560000Y-101300000D01*
X93560000Y-97940000D02*
X92560000Y-97940000D01*
%TO.C,J3*%
X113250000Y-95950000D02*
G75*
G03*
X113250000Y-95950000I-950000J0D01*
G01*
%TO.C,RN1*%
X93560000Y-93870000D02*
X92560000Y-93870000D01*
X93560000Y-97230000D02*
X92560000Y-97230000D01*
%TD*%
M02*
