%TF.GenerationSoftware,KiCad,Pcbnew,(6.0.7)*%
%TF.CreationDate,2022-09-05T21:16:32+02:00*%
%TF.ProjectId,rcp2n64adv2,72637032-6e36-4346-9164-76322e6b6963,v20220903*%
%TF.SameCoordinates,Original*%
%TF.FileFunction,Legend,Bot*%
%TF.FilePolarity,Positive*%
%FSLAX46Y46*%
G04 Gerber Fmt 4.6, Leading zero omitted, Abs format (unit mm)*
G04 Created by KiCad (PCBNEW (6.0.7)) date 2022-09-05 21:16:32*
%MOMM*%
%LPD*%
G01*
G04 APERTURE LIST*
%ADD10C,0.150000*%
%ADD11C,0.120000*%
%ADD12C,0.010000*%
G04 APERTURE END LIST*
D10*
X111890476Y-89902380D02*
X112366666Y-89902380D01*
X112414285Y-90378571D01*
X112366666Y-90330952D01*
X112271428Y-90283333D01*
X112033333Y-90283333D01*
X111938095Y-90330952D01*
X111890476Y-90378571D01*
X111842857Y-90473809D01*
X111842857Y-90711904D01*
X111890476Y-90807142D01*
X111938095Y-90854761D01*
X112033333Y-90902380D01*
X112271428Y-90902380D01*
X112366666Y-90854761D01*
X112414285Y-90807142D01*
X111557142Y-89902380D02*
X111223809Y-90902380D01*
X110890476Y-89902380D01*
X104926190Y-92402380D02*
X104307142Y-92402380D01*
X104640476Y-92783333D01*
X104497619Y-92783333D01*
X104402380Y-92830952D01*
X104354761Y-92878571D01*
X104307142Y-92973809D01*
X104307142Y-93211904D01*
X104354761Y-93307142D01*
X104402380Y-93354761D01*
X104497619Y-93402380D01*
X104783333Y-93402380D01*
X104878571Y-93354761D01*
X104926190Y-93307142D01*
X103878571Y-93307142D02*
X103830952Y-93354761D01*
X103878571Y-93402380D01*
X103926190Y-93354761D01*
X103878571Y-93307142D01*
X103878571Y-93402380D01*
X103497619Y-92402380D02*
X102878571Y-92402380D01*
X103211904Y-92783333D01*
X103069047Y-92783333D01*
X102973809Y-92830952D01*
X102926190Y-92878571D01*
X102878571Y-92973809D01*
X102878571Y-93211904D01*
X102926190Y-93307142D01*
X102973809Y-93354761D01*
X103069047Y-93402380D01*
X103354761Y-93402380D01*
X103450000Y-93354761D01*
X103497619Y-93307142D01*
X102592857Y-92402380D02*
X102259523Y-93402380D01*
X101926190Y-92402380D01*
X115350000Y-105137904D02*
X115730952Y-105137904D01*
X115730952Y-104337904D01*
X115083333Y-105137904D02*
X115083333Y-104604571D01*
X115083333Y-104337904D02*
X115121428Y-104376000D01*
X115083333Y-104414095D01*
X115045238Y-104376000D01*
X115083333Y-104337904D01*
X115083333Y-104414095D01*
X114359523Y-105099809D02*
X114435714Y-105137904D01*
X114588095Y-105137904D01*
X114664285Y-105099809D01*
X114702380Y-105061714D01*
X114740476Y-104985523D01*
X114740476Y-104756952D01*
X114702380Y-104680761D01*
X114664285Y-104642666D01*
X114588095Y-104604571D01*
X114435714Y-104604571D01*
X114359523Y-104642666D01*
X113711904Y-105099809D02*
X113788095Y-105137904D01*
X113940476Y-105137904D01*
X114016666Y-105099809D01*
X114054761Y-105023619D01*
X114054761Y-104718857D01*
X114016666Y-104642666D01*
X113940476Y-104604571D01*
X113788095Y-104604571D01*
X113711904Y-104642666D01*
X113673809Y-104718857D01*
X113673809Y-104795047D01*
X114054761Y-104871238D01*
X113330952Y-104604571D02*
X113330952Y-105137904D01*
X113330952Y-104680761D02*
X113292857Y-104642666D01*
X113216666Y-104604571D01*
X113102380Y-104604571D01*
X113026190Y-104642666D01*
X112988095Y-104718857D01*
X112988095Y-105137904D01*
X112645238Y-105099809D02*
X112569047Y-105137904D01*
X112416666Y-105137904D01*
X112340476Y-105099809D01*
X112302380Y-105023619D01*
X112302380Y-104985523D01*
X112340476Y-104909333D01*
X112416666Y-104871238D01*
X112530952Y-104871238D01*
X112607142Y-104833142D01*
X112645238Y-104756952D01*
X112645238Y-104718857D01*
X112607142Y-104642666D01*
X112530952Y-104604571D01*
X112416666Y-104604571D01*
X112340476Y-104642666D01*
X111654761Y-105099809D02*
X111730952Y-105137904D01*
X111883333Y-105137904D01*
X111959523Y-105099809D01*
X111997619Y-105023619D01*
X111997619Y-104718857D01*
X111959523Y-104642666D01*
X111883333Y-104604571D01*
X111730952Y-104604571D01*
X111654761Y-104642666D01*
X111616666Y-104718857D01*
X111616666Y-104795047D01*
X111997619Y-104871238D01*
X110930952Y-105137904D02*
X110930952Y-104337904D01*
X110930952Y-105099809D02*
X111007142Y-105137904D01*
X111159523Y-105137904D01*
X111235714Y-105099809D01*
X111273809Y-105061714D01*
X111311904Y-104985523D01*
X111311904Y-104756952D01*
X111273809Y-104680761D01*
X111235714Y-104642666D01*
X111159523Y-104604571D01*
X111007142Y-104604571D01*
X110930952Y-104642666D01*
X109597619Y-104604571D02*
X109597619Y-105137904D01*
X109940476Y-104604571D02*
X109940476Y-105023619D01*
X109902380Y-105099809D01*
X109826190Y-105137904D01*
X109711904Y-105137904D01*
X109635714Y-105099809D01*
X109597619Y-105061714D01*
X109216666Y-104604571D02*
X109216666Y-105137904D01*
X109216666Y-104680761D02*
X109178571Y-104642666D01*
X109102380Y-104604571D01*
X108988095Y-104604571D01*
X108911904Y-104642666D01*
X108873809Y-104718857D01*
X108873809Y-105137904D01*
X108150000Y-105137904D02*
X108150000Y-104337904D01*
X108150000Y-105099809D02*
X108226190Y-105137904D01*
X108378571Y-105137904D01*
X108454761Y-105099809D01*
X108492857Y-105061714D01*
X108530952Y-104985523D01*
X108530952Y-104756952D01*
X108492857Y-104680761D01*
X108454761Y-104642666D01*
X108378571Y-104604571D01*
X108226190Y-104604571D01*
X108150000Y-104642666D01*
X107464285Y-105099809D02*
X107540476Y-105137904D01*
X107692857Y-105137904D01*
X107769047Y-105099809D01*
X107807142Y-105023619D01*
X107807142Y-104718857D01*
X107769047Y-104642666D01*
X107692857Y-104604571D01*
X107540476Y-104604571D01*
X107464285Y-104642666D01*
X107426190Y-104718857D01*
X107426190Y-104795047D01*
X107807142Y-104871238D01*
X107083333Y-105137904D02*
X107083333Y-104604571D01*
X107083333Y-104756952D02*
X107045238Y-104680761D01*
X107007142Y-104642666D01*
X106930952Y-104604571D01*
X106854761Y-104604571D01*
X115883333Y-106349714D02*
X115921428Y-106387809D01*
X116035714Y-106425904D01*
X116111904Y-106425904D01*
X116226190Y-106387809D01*
X116302380Y-106311619D01*
X116340476Y-106235428D01*
X116378571Y-106083047D01*
X116378571Y-105968761D01*
X116340476Y-105816380D01*
X116302380Y-105740190D01*
X116226190Y-105664000D01*
X116111904Y-105625904D01*
X116035714Y-105625904D01*
X115921428Y-105664000D01*
X115883333Y-105702095D01*
X115540476Y-106006857D02*
X115273809Y-106006857D01*
X115159523Y-106425904D02*
X115540476Y-106425904D01*
X115540476Y-105625904D01*
X115159523Y-105625904D01*
X114359523Y-106425904D02*
X114626190Y-106044952D01*
X114816666Y-106425904D02*
X114816666Y-105625904D01*
X114511904Y-105625904D01*
X114435714Y-105664000D01*
X114397619Y-105702095D01*
X114359523Y-105778285D01*
X114359523Y-105892571D01*
X114397619Y-105968761D01*
X114435714Y-106006857D01*
X114511904Y-106044952D01*
X114816666Y-106044952D01*
X114016666Y-106425904D02*
X114016666Y-105625904D01*
X113559523Y-106425904D01*
X113559523Y-105625904D01*
X113178571Y-106121142D02*
X112569047Y-106121142D01*
X112035714Y-105625904D02*
X111883333Y-105625904D01*
X111807142Y-105664000D01*
X111730952Y-105740190D01*
X111692857Y-105892571D01*
X111692857Y-106159238D01*
X111730952Y-106311619D01*
X111807142Y-106387809D01*
X111883333Y-106425904D01*
X112035714Y-106425904D01*
X112111904Y-106387809D01*
X112188095Y-106311619D01*
X112226190Y-106159238D01*
X112226190Y-105892571D01*
X112188095Y-105740190D01*
X112111904Y-105664000D01*
X112035714Y-105625904D01*
X111350000Y-106425904D02*
X111350000Y-105625904D01*
X111350000Y-106006857D02*
X110892857Y-106006857D01*
X110892857Y-106425904D02*
X110892857Y-105625904D01*
X110130952Y-106425904D02*
X110511904Y-106425904D01*
X110511904Y-105625904D01*
X109864285Y-106121142D02*
X109254761Y-106121142D01*
X108950000Y-105625904D02*
X108759523Y-106425904D01*
X108607142Y-105854476D01*
X108454761Y-106425904D01*
X108264285Y-105625904D01*
X107426190Y-105892571D02*
X107235714Y-106425904D01*
X107045238Y-105892571D01*
X106778571Y-105702095D02*
X106740476Y-105664000D01*
X106664285Y-105625904D01*
X106473809Y-105625904D01*
X106397619Y-105664000D01*
X106359523Y-105702095D01*
X106321428Y-105778285D01*
X106321428Y-105854476D01*
X106359523Y-105968761D01*
X106816666Y-106425904D01*
X106321428Y-106425904D01*
X119918571Y-113790000D02*
X119947142Y-113761428D01*
X120004285Y-113675714D01*
X120032857Y-113618571D01*
X120061428Y-113532857D01*
X120090000Y-113390000D01*
X120090000Y-113275714D01*
X120061428Y-113132857D01*
X120032857Y-113047142D01*
X120004285Y-112990000D01*
X119947142Y-112904285D01*
X119918571Y-112875714D01*
X119690000Y-112961428D02*
X119690000Y-113447142D01*
X119661428Y-113504285D01*
X119632857Y-113532857D01*
X119575714Y-113561428D01*
X119461428Y-113561428D01*
X119404285Y-113532857D01*
X119375714Y-113504285D01*
X119347142Y-113447142D01*
X119347142Y-112961428D01*
X118747142Y-113561428D02*
X119090000Y-113561428D01*
X118918571Y-113561428D02*
X118918571Y-112961428D01*
X118975714Y-113047142D01*
X119032857Y-113104285D01*
X119090000Y-113132857D01*
X118461428Y-113532857D02*
X118461428Y-113561428D01*
X118490000Y-113618571D01*
X118518571Y-113647142D01*
X117861428Y-113504285D02*
X117890000Y-113532857D01*
X117975714Y-113561428D01*
X118032857Y-113561428D01*
X118118571Y-113532857D01*
X118175714Y-113475714D01*
X118204285Y-113418571D01*
X118232857Y-113304285D01*
X118232857Y-113218571D01*
X118204285Y-113104285D01*
X118175714Y-113047142D01*
X118118571Y-112990000D01*
X118032857Y-112961428D01*
X117975714Y-112961428D01*
X117890000Y-112990000D01*
X117861428Y-113018571D01*
X117290000Y-113561428D02*
X117632857Y-113561428D01*
X117461428Y-113561428D02*
X117461428Y-112961428D01*
X117518571Y-113047142D01*
X117575714Y-113104285D01*
X117632857Y-113132857D01*
X117090000Y-113790000D02*
X117061428Y-113761428D01*
X117004285Y-113675714D01*
X116975714Y-113618571D01*
X116947142Y-113532857D01*
X116918571Y-113390000D01*
X116918571Y-113275714D01*
X116947142Y-113132857D01*
X116975714Y-113047142D01*
X117004285Y-112990000D01*
X117061428Y-112904285D01*
X117090000Y-112875714D01*
X116090000Y-113561428D02*
X116147142Y-113532857D01*
X116175714Y-113504285D01*
X116204285Y-113447142D01*
X116204285Y-113275714D01*
X116175714Y-113218571D01*
X116147142Y-113190000D01*
X116090000Y-113161428D01*
X116004285Y-113161428D01*
X115947142Y-113190000D01*
X115918571Y-113218571D01*
X115890000Y-113275714D01*
X115890000Y-113447142D01*
X115918571Y-113504285D01*
X115947142Y-113532857D01*
X116004285Y-113561428D01*
X116090000Y-113561428D01*
X115632857Y-113561428D02*
X115632857Y-113161428D01*
X115632857Y-113275714D02*
X115604285Y-113218571D01*
X115575714Y-113190000D01*
X115518571Y-113161428D01*
X115461428Y-113161428D01*
X114832857Y-113532857D02*
X114747142Y-113561428D01*
X114604285Y-113561428D01*
X114547142Y-113532857D01*
X114518571Y-113504285D01*
X114490000Y-113447142D01*
X114490000Y-113390000D01*
X114518571Y-113332857D01*
X114547142Y-113304285D01*
X114604285Y-113275714D01*
X114718571Y-113247142D01*
X114775714Y-113218571D01*
X114804285Y-113190000D01*
X114832857Y-113132857D01*
X114832857Y-113075714D01*
X114804285Y-113018571D01*
X114775714Y-112990000D01*
X114718571Y-112961428D01*
X114575714Y-112961428D01*
X114490000Y-112990000D01*
X114061428Y-112961428D02*
X114061428Y-113390000D01*
X114090000Y-113475714D01*
X114147142Y-113532857D01*
X114232857Y-113561428D01*
X114290000Y-113561428D01*
X113461428Y-113561428D02*
X113804285Y-113561428D01*
X113632857Y-113561428D02*
X113632857Y-112961428D01*
X113690000Y-113047142D01*
X113747142Y-113104285D01*
X113804285Y-113132857D01*
%TO.C,C1*%
X95733333Y-113485714D02*
X95771428Y-113523809D01*
X95885714Y-113561904D01*
X95961904Y-113561904D01*
X96076190Y-113523809D01*
X96152380Y-113447619D01*
X96190476Y-113371428D01*
X96228571Y-113219047D01*
X96228571Y-113104761D01*
X96190476Y-112952380D01*
X96152380Y-112876190D01*
X96076190Y-112800000D01*
X95961904Y-112761904D01*
X95885714Y-112761904D01*
X95771428Y-112800000D01*
X95733333Y-112838095D01*
X94971428Y-113561904D02*
X95428571Y-113561904D01*
X95200000Y-113561904D02*
X95200000Y-112761904D01*
X95276190Y-112876190D01*
X95352380Y-112952380D01*
X95428571Y-112990476D01*
%TO.C,R2*%
X113833333Y-109911904D02*
X114100000Y-109530952D01*
X114290476Y-109911904D02*
X114290476Y-109111904D01*
X113985714Y-109111904D01*
X113909523Y-109150000D01*
X113871428Y-109188095D01*
X113833333Y-109264285D01*
X113833333Y-109378571D01*
X113871428Y-109454761D01*
X113909523Y-109492857D01*
X113985714Y-109530952D01*
X114290476Y-109530952D01*
X113528571Y-109188095D02*
X113490476Y-109150000D01*
X113414285Y-109111904D01*
X113223809Y-109111904D01*
X113147619Y-109150000D01*
X113109523Y-109188095D01*
X113071428Y-109264285D01*
X113071428Y-109340476D01*
X113109523Y-109454761D01*
X113566666Y-109911904D01*
X113071428Y-109911904D01*
%TO.C,SJ1*%
X104853809Y-112435714D02*
X104891904Y-112550000D01*
X104891904Y-112740476D01*
X104853809Y-112816666D01*
X104815714Y-112854761D01*
X104739523Y-112892857D01*
X104663333Y-112892857D01*
X104587142Y-112854761D01*
X104549047Y-112816666D01*
X104510952Y-112740476D01*
X104472857Y-112588095D01*
X104434761Y-112511904D01*
X104396666Y-112473809D01*
X104320476Y-112435714D01*
X104244285Y-112435714D01*
X104168095Y-112473809D01*
X104130000Y-112511904D01*
X104091904Y-112588095D01*
X104091904Y-112778571D01*
X104130000Y-112892857D01*
X104091904Y-113464285D02*
X104663333Y-113464285D01*
X104777619Y-113426190D01*
X104853809Y-113350000D01*
X104891904Y-113235714D01*
X104891904Y-113159523D01*
X104891904Y-114264285D02*
X104891904Y-113807142D01*
X104891904Y-114035714D02*
X104091904Y-114035714D01*
X104206190Y-113959523D01*
X104282380Y-113883333D01*
X104320476Y-113807142D01*
%TO.C,R1*%
X110253333Y-113511904D02*
X110520000Y-113130952D01*
X110710476Y-113511904D02*
X110710476Y-112711904D01*
X110405714Y-112711904D01*
X110329523Y-112750000D01*
X110291428Y-112788095D01*
X110253333Y-112864285D01*
X110253333Y-112978571D01*
X110291428Y-113054761D01*
X110329523Y-113092857D01*
X110405714Y-113130952D01*
X110710476Y-113130952D01*
X109491428Y-113511904D02*
X109948571Y-113511904D01*
X109720000Y-113511904D02*
X109720000Y-112711904D01*
X109796190Y-112826190D01*
X109872380Y-112902380D01*
X109948571Y-112940476D01*
%TO.C,U1*%
X102359523Y-110161904D02*
X102359523Y-110809523D01*
X102321428Y-110885714D01*
X102283333Y-110923809D01*
X102207142Y-110961904D01*
X102054761Y-110961904D01*
X101978571Y-110923809D01*
X101940476Y-110885714D01*
X101902380Y-110809523D01*
X101902380Y-110161904D01*
X101102380Y-110961904D02*
X101559523Y-110961904D01*
X101330952Y-110961904D02*
X101330952Y-110161904D01*
X101407142Y-110276190D01*
X101483333Y-110352380D01*
X101559523Y-110390476D01*
D11*
%TO.C,C1*%
X95506267Y-112290000D02*
X95213733Y-112290000D01*
X95506267Y-111270000D02*
X95213733Y-111270000D01*
%TO.C,REF\u002A\u002A*%
G36*
X109283409Y-101841493D02*
G01*
X109352021Y-101868224D01*
X109410048Y-101912351D01*
X109452907Y-101972958D01*
X109455801Y-101979137D01*
X109474176Y-102039409D01*
X109483357Y-102111407D01*
X109483285Y-102186369D01*
X109473901Y-102255536D01*
X109455149Y-102310149D01*
X109431995Y-102348212D01*
X109381030Y-102402135D01*
X109317306Y-102436411D01*
X109262785Y-102450272D01*
X109179767Y-102451785D01*
X109100326Y-102430882D01*
X109029879Y-102388464D01*
X108984284Y-102350880D01*
X109025351Y-102308510D01*
X109051296Y-102283409D01*
X109074764Y-102269434D01*
X109096524Y-102272511D01*
X109124356Y-102291287D01*
X109135454Y-102298638D01*
X109182337Y-102313683D01*
X109236224Y-102313673D01*
X109286675Y-102298168D01*
X109305672Y-102285716D01*
X109333537Y-102248946D01*
X109347506Y-102194939D01*
X109348405Y-102121331D01*
X109348403Y-102121289D01*
X109338009Y-102055433D01*
X109315114Y-102009772D01*
X109277439Y-101981528D01*
X109222708Y-101967920D01*
X109188241Y-101966090D01*
X109158126Y-101973584D01*
X109127240Y-101995295D01*
X109087272Y-102028926D01*
X109036656Y-101988250D01*
X109018163Y-101972667D01*
X108995065Y-101950340D01*
X108986039Y-101937183D01*
X108989236Y-101931253D01*
X109007646Y-101913048D01*
X109036973Y-101889895D01*
X109059920Y-101874830D01*
X109132774Y-101843880D01*
X109208799Y-101833073D01*
X109283409Y-101841493D01*
G37*
D12*
X109283409Y-101841493D02*
X109352021Y-101868224D01*
X109410048Y-101912351D01*
X109452907Y-101972958D01*
X109455801Y-101979137D01*
X109474176Y-102039409D01*
X109483357Y-102111407D01*
X109483285Y-102186369D01*
X109473901Y-102255536D01*
X109455149Y-102310149D01*
X109431995Y-102348212D01*
X109381030Y-102402135D01*
X109317306Y-102436411D01*
X109262785Y-102450272D01*
X109179767Y-102451785D01*
X109100326Y-102430882D01*
X109029879Y-102388464D01*
X108984284Y-102350880D01*
X109025351Y-102308510D01*
X109051296Y-102283409D01*
X109074764Y-102269434D01*
X109096524Y-102272511D01*
X109124356Y-102291287D01*
X109135454Y-102298638D01*
X109182337Y-102313683D01*
X109236224Y-102313673D01*
X109286675Y-102298168D01*
X109305672Y-102285716D01*
X109333537Y-102248946D01*
X109347506Y-102194939D01*
X109348405Y-102121331D01*
X109348403Y-102121289D01*
X109338009Y-102055433D01*
X109315114Y-102009772D01*
X109277439Y-101981528D01*
X109222708Y-101967920D01*
X109188241Y-101966090D01*
X109158126Y-101973584D01*
X109127240Y-101995295D01*
X109087272Y-102028926D01*
X109036656Y-101988250D01*
X109018163Y-101972667D01*
X108995065Y-101950340D01*
X108986039Y-101937183D01*
X108989236Y-101931253D01*
X109007646Y-101913048D01*
X109036973Y-101889895D01*
X109059920Y-101874830D01*
X109132774Y-101843880D01*
X109208799Y-101833073D01*
X109283409Y-101841493D01*
G36*
X112443960Y-103397822D02*
G01*
X112318218Y-103397822D01*
X112318218Y-103203740D01*
X112318078Y-103158594D01*
X112316649Y-103083823D01*
X112313029Y-103028467D01*
X112306434Y-102988702D01*
X112296079Y-102960700D01*
X112281178Y-102940635D01*
X112260946Y-102924681D01*
X112238859Y-102912792D01*
X112212705Y-102909421D01*
X112175508Y-102916917D01*
X112163555Y-102920038D01*
X112133718Y-102924735D01*
X112112383Y-102918005D01*
X112087655Y-102897177D01*
X112082963Y-102892647D01*
X112057020Y-102864626D01*
X112040291Y-102841843D01*
X112037996Y-102836355D01*
X112042543Y-102816088D01*
X112065602Y-102799884D01*
X112101995Y-102788513D01*
X112146544Y-102782740D01*
X112194072Y-102783334D01*
X112239400Y-102791063D01*
X112277351Y-102806694D01*
X112289381Y-102813993D01*
X112309632Y-102824676D01*
X112317129Y-102822230D01*
X112318218Y-102806647D01*
X112318473Y-102801053D01*
X112324539Y-102788660D01*
X112343356Y-102783020D01*
X112381089Y-102781683D01*
X112443960Y-102781683D01*
X112443960Y-103397822D01*
G37*
X112443960Y-103397822D02*
X112318218Y-103397822D01*
X112318218Y-103203740D01*
X112318078Y-103158594D01*
X112316649Y-103083823D01*
X112313029Y-103028467D01*
X112306434Y-102988702D01*
X112296079Y-102960700D01*
X112281178Y-102940635D01*
X112260946Y-102924681D01*
X112238859Y-102912792D01*
X112212705Y-102909421D01*
X112175508Y-102916917D01*
X112163555Y-102920038D01*
X112133718Y-102924735D01*
X112112383Y-102918005D01*
X112087655Y-102897177D01*
X112082963Y-102892647D01*
X112057020Y-102864626D01*
X112040291Y-102841843D01*
X112037996Y-102836355D01*
X112042543Y-102816088D01*
X112065602Y-102799884D01*
X112101995Y-102788513D01*
X112146544Y-102782740D01*
X112194072Y-102783334D01*
X112239400Y-102791063D01*
X112277351Y-102806694D01*
X112289381Y-102813993D01*
X112309632Y-102824676D01*
X112317129Y-102822230D01*
X112318218Y-102806647D01*
X112318473Y-102801053D01*
X112324539Y-102788660D01*
X112343356Y-102783020D01*
X112381089Y-102781683D01*
X112443960Y-102781683D01*
X112443960Y-103397822D01*
G36*
X110624244Y-103289419D02*
G01*
X110591277Y-103338255D01*
X110541270Y-103373386D01*
X110536362Y-103375521D01*
X110481646Y-103390903D01*
X110419993Y-103396899D01*
X110361376Y-103393233D01*
X110315767Y-103379629D01*
X110297549Y-103370754D01*
X110284179Y-103368637D01*
X110281188Y-103379706D01*
X110275524Y-103389942D01*
X110253607Y-103396038D01*
X110211068Y-103397822D01*
X110140948Y-103397822D01*
X110144680Y-103177773D01*
X110281188Y-103177773D01*
X110285924Y-103210666D01*
X110306336Y-103246931D01*
X110313871Y-103253597D01*
X110344753Y-103267620D01*
X110391213Y-103271228D01*
X110419090Y-103269819D01*
X110471255Y-103259204D01*
X110503587Y-103239425D01*
X110514492Y-103211824D01*
X110502374Y-103177743D01*
X110495304Y-103168824D01*
X110463724Y-103148818D01*
X110413744Y-103137395D01*
X110342487Y-103133763D01*
X110281188Y-103133763D01*
X110281188Y-103177773D01*
X110144680Y-103177773D01*
X110145053Y-103155768D01*
X110146169Y-103099794D01*
X110149106Y-103015996D01*
X110154058Y-102951920D01*
X110162002Y-102904073D01*
X110173917Y-102868962D01*
X110190780Y-102843093D01*
X110213572Y-102822974D01*
X110243269Y-102805110D01*
X110258589Y-102798290D01*
X110311589Y-102785417D01*
X110375513Y-102780095D01*
X110441602Y-102782227D01*
X110501099Y-102791714D01*
X110545247Y-102808461D01*
X110560604Y-102818185D01*
X110595960Y-102847005D01*
X110607926Y-102871137D01*
X110605020Y-102875800D01*
X110586909Y-102892088D01*
X110557672Y-102913817D01*
X110542725Y-102923987D01*
X110517270Y-102938397D01*
X110500728Y-102939773D01*
X110485370Y-102929827D01*
X110447094Y-102909684D01*
X110395590Y-102901400D01*
X110342957Y-102907742D01*
X110341961Y-102908030D01*
X110304838Y-102924158D01*
X110286463Y-102949405D01*
X110281380Y-102991158D01*
X110281188Y-103030879D01*
X110412423Y-103035168D01*
X110433331Y-103035873D01*
X110486043Y-103038326D01*
X110521381Y-103042180D01*
X110545267Y-103048878D01*
X110563624Y-103059864D01*
X110582376Y-103076580D01*
X110613337Y-103115244D01*
X110636029Y-103172456D01*
X110638254Y-103211824D01*
X110639413Y-103232333D01*
X110624244Y-103289419D01*
G37*
X110624244Y-103289419D02*
X110591277Y-103338255D01*
X110541270Y-103373386D01*
X110536362Y-103375521D01*
X110481646Y-103390903D01*
X110419993Y-103396899D01*
X110361376Y-103393233D01*
X110315767Y-103379629D01*
X110297549Y-103370754D01*
X110284179Y-103368637D01*
X110281188Y-103379706D01*
X110275524Y-103389942D01*
X110253607Y-103396038D01*
X110211068Y-103397822D01*
X110140948Y-103397822D01*
X110144680Y-103177773D01*
X110281188Y-103177773D01*
X110285924Y-103210666D01*
X110306336Y-103246931D01*
X110313871Y-103253597D01*
X110344753Y-103267620D01*
X110391213Y-103271228D01*
X110419090Y-103269819D01*
X110471255Y-103259204D01*
X110503587Y-103239425D01*
X110514492Y-103211824D01*
X110502374Y-103177743D01*
X110495304Y-103168824D01*
X110463724Y-103148818D01*
X110413744Y-103137395D01*
X110342487Y-103133763D01*
X110281188Y-103133763D01*
X110281188Y-103177773D01*
X110144680Y-103177773D01*
X110145053Y-103155768D01*
X110146169Y-103099794D01*
X110149106Y-103015996D01*
X110154058Y-102951920D01*
X110162002Y-102904073D01*
X110173917Y-102868962D01*
X110190780Y-102843093D01*
X110213572Y-102822974D01*
X110243269Y-102805110D01*
X110258589Y-102798290D01*
X110311589Y-102785417D01*
X110375513Y-102780095D01*
X110441602Y-102782227D01*
X110501099Y-102791714D01*
X110545247Y-102808461D01*
X110560604Y-102818185D01*
X110595960Y-102847005D01*
X110607926Y-102871137D01*
X110605020Y-102875800D01*
X110586909Y-102892088D01*
X110557672Y-102913817D01*
X110542725Y-102923987D01*
X110517270Y-102938397D01*
X110500728Y-102939773D01*
X110485370Y-102929827D01*
X110447094Y-102909684D01*
X110395590Y-102901400D01*
X110342957Y-102907742D01*
X110341961Y-102908030D01*
X110304838Y-102924158D01*
X110286463Y-102949405D01*
X110281380Y-102991158D01*
X110281188Y-103030879D01*
X110412423Y-103035168D01*
X110433331Y-103035873D01*
X110486043Y-103038326D01*
X110521381Y-103042180D01*
X110545267Y-103048878D01*
X110563624Y-103059864D01*
X110582376Y-103076580D01*
X110613337Y-103115244D01*
X110636029Y-103172456D01*
X110638254Y-103211824D01*
X110639413Y-103232333D01*
X110624244Y-103289419D01*
G36*
X108967825Y-102196121D02*
G01*
X108967615Y-102198014D01*
X108949535Y-102286325D01*
X108916870Y-102354986D01*
X108868601Y-102405506D01*
X108803713Y-102439393D01*
X108791801Y-102443268D01*
X108717971Y-102454688D01*
X108641614Y-102448320D01*
X108570626Y-102425563D01*
X108512904Y-102387819D01*
X108469667Y-102347872D01*
X108515625Y-102311532D01*
X108561583Y-102275193D01*
X108616969Y-102302101D01*
X108681056Y-102323905D01*
X108737632Y-102324558D01*
X108783920Y-102304525D01*
X108817230Y-102264315D01*
X108829171Y-102240222D01*
X108835837Y-102219630D01*
X108831980Y-102205720D01*
X108814675Y-102197181D01*
X108780997Y-102192704D01*
X108728021Y-102190978D01*
X108652822Y-102190693D01*
X108470495Y-102190693D01*
X108470495Y-102103492D01*
X108471857Y-102065210D01*
X108600234Y-102065210D01*
X108606399Y-102072251D01*
X108624654Y-102075916D01*
X108659352Y-102077306D01*
X108714846Y-102077525D01*
X108744603Y-102077176D01*
X108791562Y-102074867D01*
X108823416Y-102070822D01*
X108835148Y-102065542D01*
X108832146Y-102046062D01*
X108810988Y-102008786D01*
X108775731Y-101978164D01*
X108733699Y-101959668D01*
X108692220Y-101958773D01*
X108660997Y-101973604D01*
X108625618Y-102007355D01*
X108603122Y-102049233D01*
X108601805Y-102053690D01*
X108600234Y-102065210D01*
X108471857Y-102065210D01*
X108472136Y-102057371D01*
X108476955Y-102011740D01*
X108483840Y-101980893D01*
X108488859Y-101969117D01*
X108525390Y-101916667D01*
X108578175Y-101872921D01*
X108639904Y-101844279D01*
X108672102Y-101836457D01*
X108748820Y-101832896D01*
X108817179Y-101851009D01*
X108875299Y-101888779D01*
X108921302Y-101944191D01*
X108953310Y-102015229D01*
X108962900Y-102065542D01*
X108969444Y-102099878D01*
X108967825Y-102196121D01*
G37*
X108967825Y-102196121D02*
X108967615Y-102198014D01*
X108949535Y-102286325D01*
X108916870Y-102354986D01*
X108868601Y-102405506D01*
X108803713Y-102439393D01*
X108791801Y-102443268D01*
X108717971Y-102454688D01*
X108641614Y-102448320D01*
X108570626Y-102425563D01*
X108512904Y-102387819D01*
X108469667Y-102347872D01*
X108515625Y-102311532D01*
X108561583Y-102275193D01*
X108616969Y-102302101D01*
X108681056Y-102323905D01*
X108737632Y-102324558D01*
X108783920Y-102304525D01*
X108817230Y-102264315D01*
X108829171Y-102240222D01*
X108835837Y-102219630D01*
X108831980Y-102205720D01*
X108814675Y-102197181D01*
X108780997Y-102192704D01*
X108728021Y-102190978D01*
X108652822Y-102190693D01*
X108470495Y-102190693D01*
X108470495Y-102103492D01*
X108471857Y-102065210D01*
X108600234Y-102065210D01*
X108606399Y-102072251D01*
X108624654Y-102075916D01*
X108659352Y-102077306D01*
X108714846Y-102077525D01*
X108744603Y-102077176D01*
X108791562Y-102074867D01*
X108823416Y-102070822D01*
X108835148Y-102065542D01*
X108832146Y-102046062D01*
X108810988Y-102008786D01*
X108775731Y-101978164D01*
X108733699Y-101959668D01*
X108692220Y-101958773D01*
X108660997Y-101973604D01*
X108625618Y-102007355D01*
X108603122Y-102049233D01*
X108601805Y-102053690D01*
X108600234Y-102065210D01*
X108471857Y-102065210D01*
X108472136Y-102057371D01*
X108476955Y-102011740D01*
X108483840Y-101980893D01*
X108488859Y-101969117D01*
X108525390Y-101916667D01*
X108578175Y-101872921D01*
X108639904Y-101844279D01*
X108672102Y-101836457D01*
X108748820Y-101832896D01*
X108817179Y-101851009D01*
X108875299Y-101888779D01*
X108921302Y-101944191D01*
X108953310Y-102015229D01*
X108962900Y-102065542D01*
X108969444Y-102099878D01*
X108967825Y-102196121D01*
G36*
X113057157Y-103231882D02*
G01*
X113041835Y-103296479D01*
X113007753Y-103345063D01*
X112953218Y-103380072D01*
X112925036Y-103388589D01*
X112876764Y-103395228D01*
X112823978Y-103396813D01*
X112776353Y-103393160D01*
X112743566Y-103384083D01*
X112723652Y-103376813D01*
X112704155Y-103384083D01*
X112697023Y-103388295D01*
X112668557Y-103395126D01*
X112630059Y-103397822D01*
X112569703Y-103397822D01*
X112569703Y-103182111D01*
X112708020Y-103182111D01*
X112712668Y-103218904D01*
X112731015Y-103251269D01*
X112741514Y-103258274D01*
X112778988Y-103269191D01*
X112825773Y-103271917D01*
X112871652Y-103266379D01*
X112906410Y-103252505D01*
X112923726Y-103234161D01*
X112934356Y-103201566D01*
X112924929Y-103175729D01*
X112893764Y-103153263D01*
X112843667Y-103138850D01*
X112777582Y-103133763D01*
X112708020Y-103133763D01*
X112708020Y-103182111D01*
X112569703Y-103182111D01*
X112569703Y-103154484D01*
X112569707Y-103133440D01*
X112569937Y-103054122D01*
X112570797Y-102995154D01*
X112572679Y-102952616D01*
X112575974Y-102922592D01*
X112581073Y-102901163D01*
X112588366Y-102884411D01*
X112598246Y-102868419D01*
X112630023Y-102830948D01*
X112675055Y-102802339D01*
X112734210Y-102786555D01*
X112812161Y-102781703D01*
X112814695Y-102781708D01*
X112868880Y-102784155D01*
X112917380Y-102790256D01*
X112950478Y-102798809D01*
X112959552Y-102803096D01*
X112988433Y-102821248D01*
X113014568Y-102842822D01*
X113031764Y-102862236D01*
X113033825Y-102873909D01*
X113029803Y-102877063D01*
X112985976Y-102910739D01*
X112956671Y-102930600D01*
X112937294Y-102938613D01*
X112923253Y-102936746D01*
X112909957Y-102926965D01*
X112885418Y-102914756D01*
X112844064Y-102906615D01*
X112797326Y-102904503D01*
X112755034Y-102908800D01*
X112727017Y-102919887D01*
X112725543Y-102921236D01*
X112712953Y-102946581D01*
X112708020Y-102984411D01*
X112708020Y-103033169D01*
X112824331Y-103033216D01*
X112877760Y-103034061D01*
X112922735Y-103037740D01*
X112954907Y-103045309D01*
X112980899Y-103057808D01*
X112986948Y-103061647D01*
X113030710Y-103103845D01*
X113053987Y-103159647D01*
X113055955Y-103201566D01*
X113057299Y-103230223D01*
X113057157Y-103231882D01*
G37*
X113057157Y-103231882D02*
X113041835Y-103296479D01*
X113007753Y-103345063D01*
X112953218Y-103380072D01*
X112925036Y-103388589D01*
X112876764Y-103395228D01*
X112823978Y-103396813D01*
X112776353Y-103393160D01*
X112743566Y-103384083D01*
X112723652Y-103376813D01*
X112704155Y-103384083D01*
X112697023Y-103388295D01*
X112668557Y-103395126D01*
X112630059Y-103397822D01*
X112569703Y-103397822D01*
X112569703Y-103182111D01*
X112708020Y-103182111D01*
X112712668Y-103218904D01*
X112731015Y-103251269D01*
X112741514Y-103258274D01*
X112778988Y-103269191D01*
X112825773Y-103271917D01*
X112871652Y-103266379D01*
X112906410Y-103252505D01*
X112923726Y-103234161D01*
X112934356Y-103201566D01*
X112924929Y-103175729D01*
X112893764Y-103153263D01*
X112843667Y-103138850D01*
X112777582Y-103133763D01*
X112708020Y-103133763D01*
X112708020Y-103182111D01*
X112569703Y-103182111D01*
X112569703Y-103154484D01*
X112569707Y-103133440D01*
X112569937Y-103054122D01*
X112570797Y-102995154D01*
X112572679Y-102952616D01*
X112575974Y-102922592D01*
X112581073Y-102901163D01*
X112588366Y-102884411D01*
X112598246Y-102868419D01*
X112630023Y-102830948D01*
X112675055Y-102802339D01*
X112734210Y-102786555D01*
X112812161Y-102781703D01*
X112814695Y-102781708D01*
X112868880Y-102784155D01*
X112917380Y-102790256D01*
X112950478Y-102798809D01*
X112959552Y-102803096D01*
X112988433Y-102821248D01*
X113014568Y-102842822D01*
X113031764Y-102862236D01*
X113033825Y-102873909D01*
X113029803Y-102877063D01*
X112985976Y-102910739D01*
X112956671Y-102930600D01*
X112937294Y-102938613D01*
X112923253Y-102936746D01*
X112909957Y-102926965D01*
X112885418Y-102914756D01*
X112844064Y-102906615D01*
X112797326Y-102904503D01*
X112755034Y-102908800D01*
X112727017Y-102919887D01*
X112725543Y-102921236D01*
X112712953Y-102946581D01*
X112708020Y-102984411D01*
X112708020Y-103033169D01*
X112824331Y-103033216D01*
X112877760Y-103034061D01*
X112922735Y-103037740D01*
X112954907Y-103045309D01*
X112980899Y-103057808D01*
X112986948Y-103061647D01*
X113030710Y-103103845D01*
X113053987Y-103159647D01*
X113055955Y-103201566D01*
X113057299Y-103230223D01*
X113057157Y-103231882D01*
G36*
X111448874Y-101838207D02*
G01*
X111521495Y-101856408D01*
X111574546Y-101890144D01*
X111608329Y-101939642D01*
X111623147Y-102005126D01*
X111620147Y-102067820D01*
X111598493Y-102120699D01*
X111556967Y-102159796D01*
X111494736Y-102185873D01*
X111410969Y-102199695D01*
X111356540Y-102206940D01*
X111306860Y-102222615D01*
X111281211Y-102245314D01*
X111279662Y-102274998D01*
X111289984Y-102293507D01*
X111321951Y-102315443D01*
X111367395Y-102325818D01*
X111420649Y-102324399D01*
X111476048Y-102310952D01*
X111527928Y-102285243D01*
X111579653Y-102251013D01*
X111625148Y-102297049D01*
X111670643Y-102343084D01*
X111632921Y-102373876D01*
X111618253Y-102384574D01*
X111576983Y-102408880D01*
X111532327Y-102429825D01*
X111496984Y-102441845D01*
X111445234Y-102450552D01*
X111381435Y-102450667D01*
X111303200Y-102441081D01*
X111232722Y-102416783D01*
X111182836Y-102378188D01*
X111153423Y-102325198D01*
X111144365Y-102257718D01*
X111150921Y-102198354D01*
X111171970Y-102149752D01*
X111209864Y-102114946D01*
X111267004Y-102091798D01*
X111345785Y-102078170D01*
X111354834Y-102077183D01*
X111403885Y-102070892D01*
X111443675Y-102064309D01*
X111466312Y-102058708D01*
X111473866Y-102054197D01*
X111486637Y-102030941D01*
X111484563Y-102001171D01*
X111467495Y-101975327D01*
X111458533Y-101969691D01*
X111421188Y-101960660D01*
X111372950Y-101961267D01*
X111322650Y-101970878D01*
X111279115Y-101988858D01*
X111233372Y-102015847D01*
X111197890Y-101974384D01*
X111189280Y-101963850D01*
X111169883Y-101935632D01*
X111161897Y-101916508D01*
X111170283Y-101904781D01*
X111196226Y-101886476D01*
X111233688Y-101866777D01*
X111238966Y-101864370D01*
X111288366Y-101845482D01*
X111335983Y-101836452D01*
X111395072Y-101834639D01*
X111448874Y-101838207D01*
G37*
X111448874Y-101838207D02*
X111521495Y-101856408D01*
X111574546Y-101890144D01*
X111608329Y-101939642D01*
X111623147Y-102005126D01*
X111620147Y-102067820D01*
X111598493Y-102120699D01*
X111556967Y-102159796D01*
X111494736Y-102185873D01*
X111410969Y-102199695D01*
X111356540Y-102206940D01*
X111306860Y-102222615D01*
X111281211Y-102245314D01*
X111279662Y-102274998D01*
X111289984Y-102293507D01*
X111321951Y-102315443D01*
X111367395Y-102325818D01*
X111420649Y-102324399D01*
X111476048Y-102310952D01*
X111527928Y-102285243D01*
X111579653Y-102251013D01*
X111625148Y-102297049D01*
X111670643Y-102343084D01*
X111632921Y-102373876D01*
X111618253Y-102384574D01*
X111576983Y-102408880D01*
X111532327Y-102429825D01*
X111496984Y-102441845D01*
X111445234Y-102450552D01*
X111381435Y-102450667D01*
X111303200Y-102441081D01*
X111232722Y-102416783D01*
X111182836Y-102378188D01*
X111153423Y-102325198D01*
X111144365Y-102257718D01*
X111150921Y-102198354D01*
X111171970Y-102149752D01*
X111209864Y-102114946D01*
X111267004Y-102091798D01*
X111345785Y-102078170D01*
X111354834Y-102077183D01*
X111403885Y-102070892D01*
X111443675Y-102064309D01*
X111466312Y-102058708D01*
X111473866Y-102054197D01*
X111486637Y-102030941D01*
X111484563Y-102001171D01*
X111467495Y-101975327D01*
X111458533Y-101969691D01*
X111421188Y-101960660D01*
X111372950Y-101961267D01*
X111322650Y-101970878D01*
X111279115Y-101988858D01*
X111233372Y-102015847D01*
X111197890Y-101974384D01*
X111189280Y-101963850D01*
X111169883Y-101935632D01*
X111161897Y-101916508D01*
X111170283Y-101904781D01*
X111196226Y-101886476D01*
X111233688Y-101866777D01*
X111238966Y-101864370D01*
X111288366Y-101845482D01*
X111335983Y-101836452D01*
X111395072Y-101834639D01*
X111448874Y-101838207D01*
G36*
X114213373Y-102214310D02*
G01*
X114209688Y-102262332D01*
X114203410Y-102296368D01*
X114193044Y-102323338D01*
X114177092Y-102350158D01*
X114176412Y-102351175D01*
X114137132Y-102394629D01*
X114089072Y-102427772D01*
X114033185Y-102447439D01*
X113959666Y-102453824D01*
X113887609Y-102441268D01*
X113823201Y-102411011D01*
X113772627Y-102364294D01*
X113758108Y-102342221D01*
X113730993Y-102273602D01*
X113717546Y-102188939D01*
X113717776Y-102167523D01*
X113852920Y-102167523D01*
X113853174Y-102207574D01*
X113857421Y-102234313D01*
X113867096Y-102254859D01*
X113883638Y-102276331D01*
X113906593Y-102297639D01*
X113952505Y-102316653D01*
X114001802Y-102313122D01*
X114048917Y-102286694D01*
X114062207Y-102274072D01*
X114076397Y-102252465D01*
X114084266Y-102222094D01*
X114088726Y-102174770D01*
X114089955Y-102139219D01*
X114083224Y-102066620D01*
X114062567Y-102014642D01*
X114027894Y-101982999D01*
X113987249Y-101967847D01*
X113938777Y-101969123D01*
X113893845Y-101994703D01*
X113883103Y-102004442D01*
X113869548Y-102021480D01*
X113861505Y-102043772D01*
X113857043Y-102077947D01*
X113854228Y-102130638D01*
X113852920Y-102167523D01*
X113717776Y-102167523D01*
X113718583Y-102092351D01*
X113719907Y-102078651D01*
X113738374Y-101990908D01*
X113772540Y-101922793D01*
X113822479Y-101874231D01*
X113888261Y-101845148D01*
X113969961Y-101835471D01*
X114000828Y-101836379D01*
X114064128Y-101847493D01*
X114115889Y-101874021D01*
X114164147Y-101919436D01*
X114171865Y-101928551D01*
X114192681Y-101959248D01*
X114206362Y-101994007D01*
X114213948Y-102038056D01*
X114216479Y-102096621D01*
X114215672Y-102139219D01*
X114214997Y-102174931D01*
X114213373Y-102214310D01*
G37*
X114213373Y-102214310D02*
X114209688Y-102262332D01*
X114203410Y-102296368D01*
X114193044Y-102323338D01*
X114177092Y-102350158D01*
X114176412Y-102351175D01*
X114137132Y-102394629D01*
X114089072Y-102427772D01*
X114033185Y-102447439D01*
X113959666Y-102453824D01*
X113887609Y-102441268D01*
X113823201Y-102411011D01*
X113772627Y-102364294D01*
X113758108Y-102342221D01*
X113730993Y-102273602D01*
X113717546Y-102188939D01*
X113717776Y-102167523D01*
X113852920Y-102167523D01*
X113853174Y-102207574D01*
X113857421Y-102234313D01*
X113867096Y-102254859D01*
X113883638Y-102276331D01*
X113906593Y-102297639D01*
X113952505Y-102316653D01*
X114001802Y-102313122D01*
X114048917Y-102286694D01*
X114062207Y-102274072D01*
X114076397Y-102252465D01*
X114084266Y-102222094D01*
X114088726Y-102174770D01*
X114089955Y-102139219D01*
X114083224Y-102066620D01*
X114062567Y-102014642D01*
X114027894Y-101982999D01*
X113987249Y-101967847D01*
X113938777Y-101969123D01*
X113893845Y-101994703D01*
X113883103Y-102004442D01*
X113869548Y-102021480D01*
X113861505Y-102043772D01*
X113857043Y-102077947D01*
X113854228Y-102130638D01*
X113852920Y-102167523D01*
X113717776Y-102167523D01*
X113718583Y-102092351D01*
X113719907Y-102078651D01*
X113738374Y-101990908D01*
X113772540Y-101922793D01*
X113822479Y-101874231D01*
X113888261Y-101845148D01*
X113969961Y-101835471D01*
X114000828Y-101836379D01*
X114064128Y-101847493D01*
X114115889Y-101874021D01*
X114164147Y-101919436D01*
X114171865Y-101928551D01*
X114192681Y-101959248D01*
X114206362Y-101994007D01*
X114213948Y-102038056D01*
X114216479Y-102096621D01*
X114215672Y-102139219D01*
X114214997Y-102174931D01*
X114213373Y-102214310D01*
G36*
X109637128Y-101833945D02*
G01*
X109667954Y-101843568D01*
X109705916Y-101859563D01*
X109724296Y-101868159D01*
X109737561Y-101869713D01*
X109740495Y-101857798D01*
X109740498Y-101857461D01*
X109746709Y-101846087D01*
X109768131Y-101840256D01*
X109809653Y-101838614D01*
X109878812Y-101838614D01*
X109878812Y-102442179D01*
X109740495Y-102442179D01*
X109740495Y-102026027D01*
X109706110Y-101994161D01*
X109695368Y-101985104D01*
X109663370Y-101969630D01*
X109623965Y-101969010D01*
X109570312Y-101982664D01*
X109552225Y-101983529D01*
X109531008Y-101970283D01*
X109502768Y-101938800D01*
X109489069Y-101921385D01*
X109472868Y-101896797D01*
X109470371Y-101881145D01*
X109479442Y-101867941D01*
X109507289Y-101851245D01*
X109550540Y-101838030D01*
X109597464Y-101831478D01*
X109637128Y-101833945D01*
G37*
X109637128Y-101833945D02*
X109667954Y-101843568D01*
X109705916Y-101859563D01*
X109724296Y-101868159D01*
X109737561Y-101869713D01*
X109740495Y-101857798D01*
X109740498Y-101857461D01*
X109746709Y-101846087D01*
X109768131Y-101840256D01*
X109809653Y-101838614D01*
X109878812Y-101838614D01*
X109878812Y-102442179D01*
X109740495Y-102442179D01*
X109740495Y-102026027D01*
X109706110Y-101994161D01*
X109695368Y-101985104D01*
X109663370Y-101969630D01*
X109623965Y-101969010D01*
X109570312Y-101982664D01*
X109552225Y-101983529D01*
X109531008Y-101970283D01*
X109502768Y-101938800D01*
X109489069Y-101921385D01*
X109472868Y-101896797D01*
X109470371Y-101881145D01*
X109479442Y-101867941D01*
X109507289Y-101851245D01*
X109550540Y-101838030D01*
X109597464Y-101831478D01*
X109637128Y-101833945D01*
G36*
X113061421Y-102152936D02*
G01*
X113060322Y-102191371D01*
X113047926Y-102275367D01*
X113020608Y-102341595D01*
X112976941Y-102392784D01*
X112915495Y-102431663D01*
X112855888Y-102449812D01*
X112781110Y-102453284D01*
X112705664Y-102439930D01*
X112638366Y-102410425D01*
X112613428Y-102394012D01*
X112585951Y-102372973D01*
X112573414Y-102359129D01*
X112574124Y-102353417D01*
X112588158Y-102333955D01*
X112614533Y-102310376D01*
X112660240Y-102275513D01*
X112713799Y-102302262D01*
X112728282Y-102308882D01*
X112770916Y-102323273D01*
X112806649Y-102329010D01*
X112832998Y-102324282D01*
X112874347Y-102301514D01*
X112909104Y-102266170D01*
X112928983Y-102225273D01*
X112937083Y-102190693D01*
X112557129Y-102190693D01*
X112557199Y-102124679D01*
X112557774Y-102103757D01*
X112561972Y-102058862D01*
X112695445Y-102058862D01*
X112695690Y-102061434D01*
X112702604Y-102069443D01*
X112722141Y-102074364D01*
X112758467Y-102076843D01*
X112815748Y-102077525D01*
X112834575Y-102077517D01*
X112883470Y-102077065D01*
X112912863Y-102075113D01*
X112927115Y-102070558D01*
X112930582Y-102062299D01*
X112927625Y-102049233D01*
X112927173Y-102047752D01*
X112901699Y-102002285D01*
X112861539Y-101970981D01*
X112813651Y-101959327D01*
X112795949Y-101960259D01*
X112763094Y-101971408D01*
X112731575Y-101999763D01*
X112723085Y-102009789D01*
X112703336Y-102038423D01*
X112695445Y-102058862D01*
X112561972Y-102058862D01*
X112562512Y-102053091D01*
X112570459Y-102011166D01*
X112579168Y-101987696D01*
X112609790Y-101936646D01*
X112650799Y-101890283D01*
X112694168Y-101858514D01*
X112706699Y-101852614D01*
X112779661Y-101833046D01*
X112854168Y-101835109D01*
X112924217Y-101857931D01*
X112983807Y-101900639D01*
X113016038Y-101940025D01*
X113042392Y-101995510D01*
X113056482Y-102062299D01*
X113057022Y-102064861D01*
X113061421Y-102152936D01*
G37*
X113061421Y-102152936D02*
X113060322Y-102191371D01*
X113047926Y-102275367D01*
X113020608Y-102341595D01*
X112976941Y-102392784D01*
X112915495Y-102431663D01*
X112855888Y-102449812D01*
X112781110Y-102453284D01*
X112705664Y-102439930D01*
X112638366Y-102410425D01*
X112613428Y-102394012D01*
X112585951Y-102372973D01*
X112573414Y-102359129D01*
X112574124Y-102353417D01*
X112588158Y-102333955D01*
X112614533Y-102310376D01*
X112660240Y-102275513D01*
X112713799Y-102302262D01*
X112728282Y-102308882D01*
X112770916Y-102323273D01*
X112806649Y-102329010D01*
X112832998Y-102324282D01*
X112874347Y-102301514D01*
X112909104Y-102266170D01*
X112928983Y-102225273D01*
X112937083Y-102190693D01*
X112557129Y-102190693D01*
X112557199Y-102124679D01*
X112557774Y-102103757D01*
X112561972Y-102058862D01*
X112695445Y-102058862D01*
X112695690Y-102061434D01*
X112702604Y-102069443D01*
X112722141Y-102074364D01*
X112758467Y-102076843D01*
X112815748Y-102077525D01*
X112834575Y-102077517D01*
X112883470Y-102077065D01*
X112912863Y-102075113D01*
X112927115Y-102070558D01*
X112930582Y-102062299D01*
X112927625Y-102049233D01*
X112927173Y-102047752D01*
X112901699Y-102002285D01*
X112861539Y-101970981D01*
X112813651Y-101959327D01*
X112795949Y-101960259D01*
X112763094Y-101971408D01*
X112731575Y-101999763D01*
X112723085Y-102009789D01*
X112703336Y-102038423D01*
X112695445Y-102058862D01*
X112561972Y-102058862D01*
X112562512Y-102053091D01*
X112570459Y-102011166D01*
X112579168Y-101987696D01*
X112609790Y-101936646D01*
X112650799Y-101890283D01*
X112694168Y-101858514D01*
X112706699Y-101852614D01*
X112779661Y-101833046D01*
X112854168Y-101835109D01*
X112924217Y-101857931D01*
X112983807Y-101900639D01*
X113016038Y-101940025D01*
X113042392Y-101995510D01*
X113056482Y-102062299D01*
X113057022Y-102064861D01*
X113061421Y-102152936D01*
G36*
X110130297Y-102034342D02*
G01*
X110131357Y-102122394D01*
X110135509Y-102193510D01*
X110143921Y-102245199D01*
X110157757Y-102280360D01*
X110178182Y-102301889D01*
X110206364Y-102312682D01*
X110243465Y-102315636D01*
X110278890Y-102313000D01*
X110307500Y-102302679D01*
X110328296Y-102281772D01*
X110342442Y-102247381D01*
X110351103Y-102196610D01*
X110355445Y-102126563D01*
X110356633Y-102034342D01*
X110356633Y-101838614D01*
X110482376Y-101838614D01*
X110482376Y-102074578D01*
X110482160Y-102137561D01*
X110480484Y-102219007D01*
X110476277Y-102281121D01*
X110468521Y-102327458D01*
X110456196Y-102361573D01*
X110438285Y-102387022D01*
X110413767Y-102407362D01*
X110381623Y-102426147D01*
X110314125Y-102449928D01*
X110243681Y-102451480D01*
X110177264Y-102429580D01*
X110148286Y-102415383D01*
X110133909Y-102413261D01*
X110130297Y-102423293D01*
X110124299Y-102434556D01*
X110102830Y-102440489D01*
X110061138Y-102442179D01*
X109991980Y-102442179D01*
X109991980Y-101838614D01*
X110130297Y-101838614D01*
X110130297Y-102034342D01*
G37*
X110130297Y-102034342D02*
X110131357Y-102122394D01*
X110135509Y-102193510D01*
X110143921Y-102245199D01*
X110157757Y-102280360D01*
X110178182Y-102301889D01*
X110206364Y-102312682D01*
X110243465Y-102315636D01*
X110278890Y-102313000D01*
X110307500Y-102302679D01*
X110328296Y-102281772D01*
X110342442Y-102247381D01*
X110351103Y-102196610D01*
X110355445Y-102126563D01*
X110356633Y-102034342D01*
X110356633Y-101838614D01*
X110482376Y-101838614D01*
X110482376Y-102074578D01*
X110482160Y-102137561D01*
X110480484Y-102219007D01*
X110476277Y-102281121D01*
X110468521Y-102327458D01*
X110456196Y-102361573D01*
X110438285Y-102387022D01*
X110413767Y-102407362D01*
X110381623Y-102426147D01*
X110314125Y-102449928D01*
X110243681Y-102451480D01*
X110177264Y-102429580D01*
X110148286Y-102415383D01*
X110133909Y-102413261D01*
X110130297Y-102423293D01*
X110124299Y-102434556D01*
X110102830Y-102440489D01*
X110061138Y-102442179D01*
X109991980Y-102442179D01*
X109991980Y-101838614D01*
X110130297Y-101838614D01*
X110130297Y-102034342D01*
G36*
X109820265Y-102789965D02*
G01*
X109858255Y-102807745D01*
X109891386Y-102833806D01*
X109891386Y-102807745D01*
X109892211Y-102797849D01*
X109899893Y-102787358D01*
X109920667Y-102782725D01*
X109960544Y-102781683D01*
X110029703Y-102781683D01*
X110029703Y-103397822D01*
X109891386Y-103397822D01*
X109891386Y-103197226D01*
X109891369Y-103185710D01*
X109890189Y-103104758D01*
X109887294Y-103038817D01*
X109882888Y-102991258D01*
X109877181Y-102965452D01*
X109871940Y-102955710D01*
X109839676Y-102925156D01*
X109795730Y-102911631D01*
X109747743Y-102917941D01*
X109735973Y-102922217D01*
X109710898Y-102929776D01*
X109693762Y-102927428D01*
X109676518Y-102912064D01*
X109651124Y-102880571D01*
X109609936Y-102828568D01*
X109638886Y-102805125D01*
X109666405Y-102791015D01*
X109714745Y-102781486D01*
X109769230Y-102781174D01*
X109820265Y-102789965D01*
G37*
X109820265Y-102789965D02*
X109858255Y-102807745D01*
X109891386Y-102833806D01*
X109891386Y-102807745D01*
X109892211Y-102797849D01*
X109899893Y-102787358D01*
X109920667Y-102782725D01*
X109960544Y-102781683D01*
X110029703Y-102781683D01*
X110029703Y-103397822D01*
X109891386Y-103397822D01*
X109891386Y-103197226D01*
X109891369Y-103185710D01*
X109890189Y-103104758D01*
X109887294Y-103038817D01*
X109882888Y-102991258D01*
X109877181Y-102965452D01*
X109871940Y-102955710D01*
X109839676Y-102925156D01*
X109795730Y-102911631D01*
X109747743Y-102917941D01*
X109735973Y-102922217D01*
X109710898Y-102929776D01*
X109693762Y-102927428D01*
X109676518Y-102912064D01*
X109651124Y-102880571D01*
X109609936Y-102828568D01*
X109638886Y-102805125D01*
X109666405Y-102791015D01*
X109714745Y-102781486D01*
X109769230Y-102781174D01*
X109820265Y-102789965D01*
G36*
X111714389Y-97670018D02*
G01*
X111771237Y-97971570D01*
X111981001Y-98058041D01*
X112190764Y-98144512D01*
X112442410Y-97973395D01*
X112492216Y-97939661D01*
X112558244Y-97895381D01*
X112615410Y-97857561D01*
X112660744Y-97828142D01*
X112691280Y-97809067D01*
X112704046Y-97802278D01*
X112711887Y-97807106D01*
X112735325Y-97827339D01*
X112770794Y-97860543D01*
X112815289Y-97903670D01*
X112865805Y-97953670D01*
X112919336Y-98007495D01*
X112972877Y-98062095D01*
X113023423Y-98114423D01*
X113067968Y-98161428D01*
X113103507Y-98200063D01*
X113127034Y-98227278D01*
X113135544Y-98240024D01*
X113133565Y-98245500D01*
X113119857Y-98269927D01*
X113094825Y-98310129D01*
X113060499Y-98362952D01*
X113018907Y-98425247D01*
X112972079Y-98493862D01*
X112946380Y-98531283D01*
X112902173Y-98596432D01*
X112864272Y-98653289D01*
X112834698Y-98698770D01*
X112815472Y-98729793D01*
X112808614Y-98743274D01*
X112808726Y-98744021D01*
X112814776Y-98761110D01*
X112828654Y-98796006D01*
X112848427Y-98844151D01*
X112872160Y-98900986D01*
X112897918Y-98961953D01*
X112923766Y-99022492D01*
X112947771Y-99078047D01*
X112967998Y-99124057D01*
X112982511Y-99155965D01*
X112989377Y-99169212D01*
X112993439Y-99170387D01*
X113018121Y-99175687D01*
X113062111Y-99184467D01*
X113121887Y-99196040D01*
X113193929Y-99209721D01*
X113274716Y-99224823D01*
X113317294Y-99232830D01*
X113395445Y-99248107D01*
X113463775Y-99262215D01*
X113518551Y-99274345D01*
X113556037Y-99283686D01*
X113572500Y-99289427D01*
X113575457Y-99295119D01*
X113580362Y-99322930D01*
X113584216Y-99369250D01*
X113587021Y-99429720D01*
X113588781Y-99499983D01*
X113589499Y-99575680D01*
X113589177Y-99652453D01*
X113587819Y-99725944D01*
X113585428Y-99791794D01*
X113582006Y-99845645D01*
X113577556Y-99883138D01*
X113572082Y-99899916D01*
X113568760Y-99901809D01*
X113543987Y-99909926D01*
X113501011Y-99920666D01*
X113444802Y-99932853D01*
X113380325Y-99945310D01*
X113358570Y-99949277D01*
X113258093Y-99967729D01*
X113179126Y-99982559D01*
X113118934Y-99994380D01*
X113074778Y-100003809D01*
X113043920Y-100011460D01*
X113023625Y-100017948D01*
X113011154Y-100023888D01*
X113003771Y-100029894D01*
X113002913Y-100030902D01*
X112990838Y-100051919D01*
X112972971Y-100090376D01*
X112951042Y-100141761D01*
X112926784Y-100201563D01*
X112901927Y-100265270D01*
X112878205Y-100328371D01*
X112857347Y-100386355D01*
X112841087Y-100434709D01*
X112831156Y-100468922D01*
X112829285Y-100484483D01*
X112830536Y-100486502D01*
X112843486Y-100506028D01*
X112867840Y-100542042D01*
X112901340Y-100591228D01*
X112941727Y-100650267D01*
X112986745Y-100715842D01*
X112999100Y-100733884D01*
X113042545Y-100798599D01*
X113080091Y-100856476D01*
X113109594Y-100904082D01*
X113128914Y-100937985D01*
X113135905Y-100954752D01*
X113134398Y-100959161D01*
X113118695Y-100980882D01*
X113087714Y-101016354D01*
X113043673Y-101063188D01*
X112988790Y-101118996D01*
X112925286Y-101181392D01*
X112888988Y-101216317D01*
X112831595Y-101270711D01*
X112781361Y-101317302D01*
X112740984Y-101353636D01*
X112713161Y-101377261D01*
X112700590Y-101385724D01*
X112691952Y-101382587D01*
X112665360Y-101367747D01*
X112626741Y-101343477D01*
X112581134Y-101312852D01*
X112548707Y-101290503D01*
X112483970Y-101246122D01*
X112414886Y-101198987D01*
X112351787Y-101156155D01*
X112228178Y-101072547D01*
X112124417Y-101128650D01*
X112099984Y-101141599D01*
X112055552Y-101163749D01*
X112021191Y-101179041D01*
X112002828Y-101184743D01*
X111996818Y-101177421D01*
X111981895Y-101149541D01*
X111959852Y-101103575D01*
X111931917Y-101042441D01*
X111899317Y-100969055D01*
X111863276Y-100886335D01*
X111825023Y-100797197D01*
X111785783Y-100704559D01*
X111746783Y-100611337D01*
X111709249Y-100520450D01*
X111674409Y-100434814D01*
X111643488Y-100357345D01*
X111617714Y-100290962D01*
X111598311Y-100238582D01*
X111586508Y-100203121D01*
X111583531Y-100187496D01*
X111583732Y-100187039D01*
X111597601Y-100172595D01*
X111626611Y-100149974D01*
X111664772Y-100123864D01*
X111676817Y-100115892D01*
X111768469Y-100040256D01*
X111844323Y-99950169D01*
X111902581Y-99849381D01*
X111941448Y-99741640D01*
X111959128Y-99630697D01*
X111953826Y-99520303D01*
X111932347Y-99422115D01*
X111893782Y-99322966D01*
X111837562Y-99234512D01*
X111760410Y-99150487D01*
X111730095Y-99123645D01*
X111632094Y-99057510D01*
X111526227Y-99012970D01*
X111415561Y-98989625D01*
X111303164Y-98987078D01*
X111192105Y-99004929D01*
X111085451Y-99042780D01*
X110986270Y-99100232D01*
X110897631Y-99176887D01*
X110822600Y-99272345D01*
X110808175Y-99295985D01*
X110759143Y-99404034D01*
X110733103Y-99516548D01*
X110729372Y-99630614D01*
X110747268Y-99743318D01*
X110786109Y-99851745D01*
X110845214Y-99952982D01*
X110923900Y-100044114D01*
X111021485Y-100122228D01*
X111024654Y-100124333D01*
X111062411Y-100150940D01*
X111090709Y-100173561D01*
X111103634Y-100187496D01*
X111102003Y-100198421D01*
X111091864Y-100230231D01*
X111073884Y-100279534D01*
X111049292Y-100343413D01*
X111019311Y-100418948D01*
X110985170Y-100503223D01*
X110948092Y-100593320D01*
X110909306Y-100686321D01*
X110870036Y-100779308D01*
X110831509Y-100869364D01*
X110794950Y-100953571D01*
X110761586Y-101029010D01*
X110732643Y-101092765D01*
X110709346Y-101141917D01*
X110692923Y-101173549D01*
X110684598Y-101184743D01*
X110677674Y-101183227D01*
X110650477Y-101172331D01*
X110610280Y-101153228D01*
X110563009Y-101128650D01*
X110459248Y-101072547D01*
X110335639Y-101156155D01*
X110299120Y-101180913D01*
X110231194Y-101227171D01*
X110163475Y-101273503D01*
X110106291Y-101312852D01*
X110074732Y-101334297D01*
X110033714Y-101360939D01*
X110003301Y-101379178D01*
X109988446Y-101385941D01*
X109982065Y-101383070D01*
X109958996Y-101365485D01*
X109923433Y-101334523D01*
X109878471Y-101293231D01*
X109827206Y-101244653D01*
X109772733Y-101191835D01*
X109718148Y-101137823D01*
X109666547Y-101085661D01*
X109621024Y-101038396D01*
X109584675Y-100999072D01*
X109560595Y-100970736D01*
X109551881Y-100956432D01*
X109552383Y-100953711D01*
X109562755Y-100931560D01*
X109584912Y-100893235D01*
X109616712Y-100842200D01*
X109656016Y-100781914D01*
X109700681Y-100715842D01*
X109713207Y-100697617D01*
X109757193Y-100633485D01*
X109795937Y-100576789D01*
X109827182Y-100530844D01*
X109848669Y-100498970D01*
X109858140Y-100484483D01*
X109858373Y-100483862D01*
X109855578Y-100466139D01*
X109844903Y-100430235D01*
X109828081Y-100380662D01*
X109806843Y-100321932D01*
X109782921Y-100258556D01*
X109758046Y-100195046D01*
X109733950Y-100135913D01*
X109712365Y-100085669D01*
X109695023Y-100048826D01*
X109683655Y-100029894D01*
X109682516Y-100028719D01*
X109674376Y-100022773D01*
X109660629Y-100016776D01*
X109638537Y-100010114D01*
X109605363Y-100002173D01*
X109558370Y-99992337D01*
X109494820Y-99979991D01*
X109411976Y-99964520D01*
X109307100Y-99945310D01*
X109285348Y-99941267D01*
X109223036Y-99928769D01*
X109170619Y-99916927D01*
X109133066Y-99906917D01*
X109115343Y-99899916D01*
X109112378Y-99894075D01*
X109107435Y-99866016D01*
X109103518Y-99819500D01*
X109100629Y-99758886D01*
X109098773Y-99688532D01*
X109097952Y-99612796D01*
X109098168Y-99536037D01*
X109099426Y-99462612D01*
X109101728Y-99396880D01*
X109105076Y-99343200D01*
X109109474Y-99305930D01*
X109114926Y-99289427D01*
X109120491Y-99286989D01*
X109148178Y-99279305D01*
X109194979Y-99268436D01*
X109257157Y-99255192D01*
X109330979Y-99240384D01*
X109412710Y-99224823D01*
X109457336Y-99216509D01*
X109533824Y-99202092D01*
X109599660Y-99189467D01*
X109651323Y-99179321D01*
X109685293Y-99172341D01*
X109698048Y-99169212D01*
X109698528Y-99168568D01*
X109706651Y-99152181D01*
X109722137Y-99117852D01*
X109743050Y-99070136D01*
X109767455Y-99013586D01*
X109793416Y-98952758D01*
X109818997Y-98892206D01*
X109842262Y-98836485D01*
X109861277Y-98790150D01*
X109874105Y-98757755D01*
X109878812Y-98743855D01*
X109876736Y-98738965D01*
X109862920Y-98715692D01*
X109837860Y-98676519D01*
X109803568Y-98624520D01*
X109762059Y-98562768D01*
X109715346Y-98494336D01*
X109689718Y-98456860D01*
X109645490Y-98391156D01*
X109607570Y-98333492D01*
X109577980Y-98287014D01*
X109558743Y-98254865D01*
X109551881Y-98240190D01*
X109556649Y-98232230D01*
X109576593Y-98208446D01*
X109609313Y-98172451D01*
X109651805Y-98127295D01*
X109701065Y-98076028D01*
X109754091Y-98021701D01*
X109807877Y-97967364D01*
X109859421Y-97916067D01*
X109905720Y-97870859D01*
X109943769Y-97834792D01*
X109970565Y-97810914D01*
X109983105Y-97802278D01*
X109990066Y-97805636D01*
X110015627Y-97821210D01*
X110056874Y-97847715D01*
X110110837Y-97883210D01*
X110174542Y-97925750D01*
X110245016Y-97973395D01*
X110496662Y-98144512D01*
X110916188Y-97971570D01*
X110973036Y-97670018D01*
X111029885Y-97368466D01*
X111657540Y-97368466D01*
X111714389Y-97670018D01*
G37*
X111714389Y-97670018D02*
X111771237Y-97971570D01*
X111981001Y-98058041D01*
X112190764Y-98144512D01*
X112442410Y-97973395D01*
X112492216Y-97939661D01*
X112558244Y-97895381D01*
X112615410Y-97857561D01*
X112660744Y-97828142D01*
X112691280Y-97809067D01*
X112704046Y-97802278D01*
X112711887Y-97807106D01*
X112735325Y-97827339D01*
X112770794Y-97860543D01*
X112815289Y-97903670D01*
X112865805Y-97953670D01*
X112919336Y-98007495D01*
X112972877Y-98062095D01*
X113023423Y-98114423D01*
X113067968Y-98161428D01*
X113103507Y-98200063D01*
X113127034Y-98227278D01*
X113135544Y-98240024D01*
X113133565Y-98245500D01*
X113119857Y-98269927D01*
X113094825Y-98310129D01*
X113060499Y-98362952D01*
X113018907Y-98425247D01*
X112972079Y-98493862D01*
X112946380Y-98531283D01*
X112902173Y-98596432D01*
X112864272Y-98653289D01*
X112834698Y-98698770D01*
X112815472Y-98729793D01*
X112808614Y-98743274D01*
X112808726Y-98744021D01*
X112814776Y-98761110D01*
X112828654Y-98796006D01*
X112848427Y-98844151D01*
X112872160Y-98900986D01*
X112897918Y-98961953D01*
X112923766Y-99022492D01*
X112947771Y-99078047D01*
X112967998Y-99124057D01*
X112982511Y-99155965D01*
X112989377Y-99169212D01*
X112993439Y-99170387D01*
X113018121Y-99175687D01*
X113062111Y-99184467D01*
X113121887Y-99196040D01*
X113193929Y-99209721D01*
X113274716Y-99224823D01*
X113317294Y-99232830D01*
X113395445Y-99248107D01*
X113463775Y-99262215D01*
X113518551Y-99274345D01*
X113556037Y-99283686D01*
X113572500Y-99289427D01*
X113575457Y-99295119D01*
X113580362Y-99322930D01*
X113584216Y-99369250D01*
X113587021Y-99429720D01*
X113588781Y-99499983D01*
X113589499Y-99575680D01*
X113589177Y-99652453D01*
X113587819Y-99725944D01*
X113585428Y-99791794D01*
X113582006Y-99845645D01*
X113577556Y-99883138D01*
X113572082Y-99899916D01*
X113568760Y-99901809D01*
X113543987Y-99909926D01*
X113501011Y-99920666D01*
X113444802Y-99932853D01*
X113380325Y-99945310D01*
X113358570Y-99949277D01*
X113258093Y-99967729D01*
X113179126Y-99982559D01*
X113118934Y-99994380D01*
X113074778Y-100003809D01*
X113043920Y-100011460D01*
X113023625Y-100017948D01*
X113011154Y-100023888D01*
X113003771Y-100029894D01*
X113002913Y-100030902D01*
X112990838Y-100051919D01*
X112972971Y-100090376D01*
X112951042Y-100141761D01*
X112926784Y-100201563D01*
X112901927Y-100265270D01*
X112878205Y-100328371D01*
X112857347Y-100386355D01*
X112841087Y-100434709D01*
X112831156Y-100468922D01*
X112829285Y-100484483D01*
X112830536Y-100486502D01*
X112843486Y-100506028D01*
X112867840Y-100542042D01*
X112901340Y-100591228D01*
X112941727Y-100650267D01*
X112986745Y-100715842D01*
X112999100Y-100733884D01*
X113042545Y-100798599D01*
X113080091Y-100856476D01*
X113109594Y-100904082D01*
X113128914Y-100937985D01*
X113135905Y-100954752D01*
X113134398Y-100959161D01*
X113118695Y-100980882D01*
X113087714Y-101016354D01*
X113043673Y-101063188D01*
X112988790Y-101118996D01*
X112925286Y-101181392D01*
X112888988Y-101216317D01*
X112831595Y-101270711D01*
X112781361Y-101317302D01*
X112740984Y-101353636D01*
X112713161Y-101377261D01*
X112700590Y-101385724D01*
X112691952Y-101382587D01*
X112665360Y-101367747D01*
X112626741Y-101343477D01*
X112581134Y-101312852D01*
X112548707Y-101290503D01*
X112483970Y-101246122D01*
X112414886Y-101198987D01*
X112351787Y-101156155D01*
X112228178Y-101072547D01*
X112124417Y-101128650D01*
X112099984Y-101141599D01*
X112055552Y-101163749D01*
X112021191Y-101179041D01*
X112002828Y-101184743D01*
X111996818Y-101177421D01*
X111981895Y-101149541D01*
X111959852Y-101103575D01*
X111931917Y-101042441D01*
X111899317Y-100969055D01*
X111863276Y-100886335D01*
X111825023Y-100797197D01*
X111785783Y-100704559D01*
X111746783Y-100611337D01*
X111709249Y-100520450D01*
X111674409Y-100434814D01*
X111643488Y-100357345D01*
X111617714Y-100290962D01*
X111598311Y-100238582D01*
X111586508Y-100203121D01*
X111583531Y-100187496D01*
X111583732Y-100187039D01*
X111597601Y-100172595D01*
X111626611Y-100149974D01*
X111664772Y-100123864D01*
X111676817Y-100115892D01*
X111768469Y-100040256D01*
X111844323Y-99950169D01*
X111902581Y-99849381D01*
X111941448Y-99741640D01*
X111959128Y-99630697D01*
X111953826Y-99520303D01*
X111932347Y-99422115D01*
X111893782Y-99322966D01*
X111837562Y-99234512D01*
X111760410Y-99150487D01*
X111730095Y-99123645D01*
X111632094Y-99057510D01*
X111526227Y-99012970D01*
X111415561Y-98989625D01*
X111303164Y-98987078D01*
X111192105Y-99004929D01*
X111085451Y-99042780D01*
X110986270Y-99100232D01*
X110897631Y-99176887D01*
X110822600Y-99272345D01*
X110808175Y-99295985D01*
X110759143Y-99404034D01*
X110733103Y-99516548D01*
X110729372Y-99630614D01*
X110747268Y-99743318D01*
X110786109Y-99851745D01*
X110845214Y-99952982D01*
X110923900Y-100044114D01*
X111021485Y-100122228D01*
X111024654Y-100124333D01*
X111062411Y-100150940D01*
X111090709Y-100173561D01*
X111103634Y-100187496D01*
X111102003Y-100198421D01*
X111091864Y-100230231D01*
X111073884Y-100279534D01*
X111049292Y-100343413D01*
X111019311Y-100418948D01*
X110985170Y-100503223D01*
X110948092Y-100593320D01*
X110909306Y-100686321D01*
X110870036Y-100779308D01*
X110831509Y-100869364D01*
X110794950Y-100953571D01*
X110761586Y-101029010D01*
X110732643Y-101092765D01*
X110709346Y-101141917D01*
X110692923Y-101173549D01*
X110684598Y-101184743D01*
X110677674Y-101183227D01*
X110650477Y-101172331D01*
X110610280Y-101153228D01*
X110563009Y-101128650D01*
X110459248Y-101072547D01*
X110335639Y-101156155D01*
X110299120Y-101180913D01*
X110231194Y-101227171D01*
X110163475Y-101273503D01*
X110106291Y-101312852D01*
X110074732Y-101334297D01*
X110033714Y-101360939D01*
X110003301Y-101379178D01*
X109988446Y-101385941D01*
X109982065Y-101383070D01*
X109958996Y-101365485D01*
X109923433Y-101334523D01*
X109878471Y-101293231D01*
X109827206Y-101244653D01*
X109772733Y-101191835D01*
X109718148Y-101137823D01*
X109666547Y-101085661D01*
X109621024Y-101038396D01*
X109584675Y-100999072D01*
X109560595Y-100970736D01*
X109551881Y-100956432D01*
X109552383Y-100953711D01*
X109562755Y-100931560D01*
X109584912Y-100893235D01*
X109616712Y-100842200D01*
X109656016Y-100781914D01*
X109700681Y-100715842D01*
X109713207Y-100697617D01*
X109757193Y-100633485D01*
X109795937Y-100576789D01*
X109827182Y-100530844D01*
X109848669Y-100498970D01*
X109858140Y-100484483D01*
X109858373Y-100483862D01*
X109855578Y-100466139D01*
X109844903Y-100430235D01*
X109828081Y-100380662D01*
X109806843Y-100321932D01*
X109782921Y-100258556D01*
X109758046Y-100195046D01*
X109733950Y-100135913D01*
X109712365Y-100085669D01*
X109695023Y-100048826D01*
X109683655Y-100029894D01*
X109682516Y-100028719D01*
X109674376Y-100022773D01*
X109660629Y-100016776D01*
X109638537Y-100010114D01*
X109605363Y-100002173D01*
X109558370Y-99992337D01*
X109494820Y-99979991D01*
X109411976Y-99964520D01*
X109307100Y-99945310D01*
X109285348Y-99941267D01*
X109223036Y-99928769D01*
X109170619Y-99916927D01*
X109133066Y-99906917D01*
X109115343Y-99899916D01*
X109112378Y-99894075D01*
X109107435Y-99866016D01*
X109103518Y-99819500D01*
X109100629Y-99758886D01*
X109098773Y-99688532D01*
X109097952Y-99612796D01*
X109098168Y-99536037D01*
X109099426Y-99462612D01*
X109101728Y-99396880D01*
X109105076Y-99343200D01*
X109109474Y-99305930D01*
X109114926Y-99289427D01*
X109120491Y-99286989D01*
X109148178Y-99279305D01*
X109194979Y-99268436D01*
X109257157Y-99255192D01*
X109330979Y-99240384D01*
X109412710Y-99224823D01*
X109457336Y-99216509D01*
X109533824Y-99202092D01*
X109599660Y-99189467D01*
X109651323Y-99179321D01*
X109685293Y-99172341D01*
X109698048Y-99169212D01*
X109698528Y-99168568D01*
X109706651Y-99152181D01*
X109722137Y-99117852D01*
X109743050Y-99070136D01*
X109767455Y-99013586D01*
X109793416Y-98952758D01*
X109818997Y-98892206D01*
X109842262Y-98836485D01*
X109861277Y-98790150D01*
X109874105Y-98757755D01*
X109878812Y-98743855D01*
X109876736Y-98738965D01*
X109862920Y-98715692D01*
X109837860Y-98676519D01*
X109803568Y-98624520D01*
X109762059Y-98562768D01*
X109715346Y-98494336D01*
X109689718Y-98456860D01*
X109645490Y-98391156D01*
X109607570Y-98333492D01*
X109577980Y-98287014D01*
X109558743Y-98254865D01*
X109551881Y-98240190D01*
X109556649Y-98232230D01*
X109576593Y-98208446D01*
X109609313Y-98172451D01*
X109651805Y-98127295D01*
X109701065Y-98076028D01*
X109754091Y-98021701D01*
X109807877Y-97967364D01*
X109859421Y-97916067D01*
X109905720Y-97870859D01*
X109943769Y-97834792D01*
X109970565Y-97810914D01*
X109983105Y-97802278D01*
X109990066Y-97805636D01*
X110015627Y-97821210D01*
X110056874Y-97847715D01*
X110110837Y-97883210D01*
X110174542Y-97925750D01*
X110245016Y-97973395D01*
X110496662Y-98144512D01*
X110916188Y-97971570D01*
X110973036Y-97670018D01*
X111029885Y-97368466D01*
X111657540Y-97368466D01*
X111714389Y-97670018D01*
G36*
X113559926Y-103395336D02*
G01*
X113493911Y-103391535D01*
X113490772Y-103190347D01*
X113489844Y-103141425D01*
X113487208Y-103067926D01*
X113482683Y-103013991D01*
X113475438Y-102975995D01*
X113464642Y-102950313D01*
X113449462Y-102933320D01*
X113429066Y-102921389D01*
X113390797Y-102909205D01*
X113352738Y-102913940D01*
X113312549Y-102939979D01*
X113273861Y-102972533D01*
X113273861Y-103397822D01*
X113135544Y-103397822D01*
X113135544Y-103167176D01*
X113135677Y-103094882D01*
X113136413Y-103030641D01*
X113138181Y-102983618D01*
X113141411Y-102949548D01*
X113146530Y-102924170D01*
X113153967Y-102903221D01*
X113164150Y-102882436D01*
X113166564Y-102878024D01*
X113198675Y-102835047D01*
X113236256Y-102805013D01*
X113281564Y-102789243D01*
X113341561Y-102782222D01*
X113401643Y-102786025D01*
X113450525Y-102800868D01*
X113487624Y-102820052D01*
X113487624Y-102404859D01*
X113436792Y-102431354D01*
X113415558Y-102440980D01*
X113348536Y-102454592D01*
X113281930Y-102445184D01*
X113220187Y-102413905D01*
X113167757Y-102361902D01*
X113159543Y-102349680D01*
X113151649Y-102331763D01*
X113146500Y-102307404D01*
X113143527Y-102271927D01*
X113142161Y-102220656D01*
X113141915Y-102167236D01*
X113274749Y-102167236D01*
X113274861Y-102211849D01*
X113278272Y-102241601D01*
X113285937Y-102262835D01*
X113298814Y-102281896D01*
X113315171Y-102299617D01*
X113341329Y-102313028D01*
X113380742Y-102316436D01*
X113415559Y-102313471D01*
X113450020Y-102298631D01*
X113472215Y-102268569D01*
X113484097Y-102220254D01*
X113487624Y-102150650D01*
X113486712Y-102113624D01*
X113477609Y-102043728D01*
X113458828Y-101996464D01*
X113430476Y-101972168D01*
X113401840Y-101965332D01*
X113351970Y-101968537D01*
X113309833Y-101988380D01*
X113299749Y-101997480D01*
X113289063Y-102013223D01*
X113282456Y-102036658D01*
X113278532Y-102073604D01*
X113275897Y-102129880D01*
X113274749Y-102167236D01*
X113141915Y-102167236D01*
X113141831Y-102148917D01*
X113141944Y-102116184D01*
X113143872Y-102040044D01*
X113149240Y-101983166D01*
X113159406Y-101941249D01*
X113175725Y-101909996D01*
X113199553Y-101885106D01*
X113232247Y-101862282D01*
X113258759Y-101849184D01*
X113321615Y-101834739D01*
X113387869Y-101836707D01*
X113446757Y-101855433D01*
X113472030Y-101867673D01*
X113484742Y-101868938D01*
X113487624Y-101857798D01*
X113487626Y-101857461D01*
X113493838Y-101846087D01*
X113515260Y-101840256D01*
X113556782Y-101838614D01*
X113625940Y-101838614D01*
X113625940Y-103399136D01*
X113559926Y-103395336D01*
G37*
X113559926Y-103395336D02*
X113493911Y-103391535D01*
X113490772Y-103190347D01*
X113489844Y-103141425D01*
X113487208Y-103067926D01*
X113482683Y-103013991D01*
X113475438Y-102975995D01*
X113464642Y-102950313D01*
X113449462Y-102933320D01*
X113429066Y-102921389D01*
X113390797Y-102909205D01*
X113352738Y-102913940D01*
X113312549Y-102939979D01*
X113273861Y-102972533D01*
X113273861Y-103397822D01*
X113135544Y-103397822D01*
X113135544Y-103167176D01*
X113135677Y-103094882D01*
X113136413Y-103030641D01*
X113138181Y-102983618D01*
X113141411Y-102949548D01*
X113146530Y-102924170D01*
X113153967Y-102903221D01*
X113164150Y-102882436D01*
X113166564Y-102878024D01*
X113198675Y-102835047D01*
X113236256Y-102805013D01*
X113281564Y-102789243D01*
X113341561Y-102782222D01*
X113401643Y-102786025D01*
X113450525Y-102800868D01*
X113487624Y-102820052D01*
X113487624Y-102404859D01*
X113436792Y-102431354D01*
X113415558Y-102440980D01*
X113348536Y-102454592D01*
X113281930Y-102445184D01*
X113220187Y-102413905D01*
X113167757Y-102361902D01*
X113159543Y-102349680D01*
X113151649Y-102331763D01*
X113146500Y-102307404D01*
X113143527Y-102271927D01*
X113142161Y-102220656D01*
X113141915Y-102167236D01*
X113274749Y-102167236D01*
X113274861Y-102211849D01*
X113278272Y-102241601D01*
X113285937Y-102262835D01*
X113298814Y-102281896D01*
X113315171Y-102299617D01*
X113341329Y-102313028D01*
X113380742Y-102316436D01*
X113415559Y-102313471D01*
X113450020Y-102298631D01*
X113472215Y-102268569D01*
X113484097Y-102220254D01*
X113487624Y-102150650D01*
X113486712Y-102113624D01*
X113477609Y-102043728D01*
X113458828Y-101996464D01*
X113430476Y-101972168D01*
X113401840Y-101965332D01*
X113351970Y-101968537D01*
X113309833Y-101988380D01*
X113299749Y-101997480D01*
X113289063Y-102013223D01*
X113282456Y-102036658D01*
X113278532Y-102073604D01*
X113275897Y-102129880D01*
X113274749Y-102167236D01*
X113141915Y-102167236D01*
X113141831Y-102148917D01*
X113141944Y-102116184D01*
X113143872Y-102040044D01*
X113149240Y-101983166D01*
X113159406Y-101941249D01*
X113175725Y-101909996D01*
X113199553Y-101885106D01*
X113232247Y-101862282D01*
X113258759Y-101849184D01*
X113321615Y-101834739D01*
X113387869Y-101836707D01*
X113446757Y-101855433D01*
X113472030Y-101867673D01*
X113484742Y-101868938D01*
X113487624Y-101857798D01*
X113487626Y-101857461D01*
X113493838Y-101846087D01*
X113515260Y-101840256D01*
X113556782Y-101838614D01*
X113625940Y-101838614D01*
X113625940Y-103399136D01*
X113559926Y-103395336D01*
G36*
X112039167Y-103190571D02*
G01*
X112035962Y-103228018D01*
X112035413Y-103231450D01*
X112013838Y-103292835D01*
X111974438Y-103344877D01*
X111922752Y-103380135D01*
X111867248Y-103394729D01*
X111798977Y-103393597D01*
X111736173Y-103374029D01*
X111719815Y-103365771D01*
X111698779Y-103356923D01*
X111690774Y-103359676D01*
X111689505Y-103374029D01*
X111688922Y-103381186D01*
X111681394Y-103391772D01*
X111660488Y-103396645D01*
X111620346Y-103397822D01*
X111551188Y-103397822D01*
X111551188Y-103095930D01*
X111689505Y-103095930D01*
X111690496Y-103148230D01*
X111694519Y-103183050D01*
X111703108Y-103206905D01*
X111717797Y-103226895D01*
X111756584Y-103256618D01*
X111801974Y-103266582D01*
X111845989Y-103254260D01*
X111883060Y-103219888D01*
X111892859Y-103194735D01*
X111900097Y-103150194D01*
X111903279Y-103096155D01*
X111902277Y-103040728D01*
X111896961Y-102992022D01*
X111887204Y-102958148D01*
X111884087Y-102952593D01*
X111854038Y-102924674D01*
X111813315Y-102912306D01*
X111769579Y-102915183D01*
X111730491Y-102933000D01*
X111703710Y-102965452D01*
X111702603Y-102968181D01*
X111695963Y-102998634D01*
X111691278Y-103044139D01*
X111689505Y-103095930D01*
X111551188Y-103095930D01*
X111551188Y-102542773D01*
X111689505Y-102542773D01*
X111689505Y-102835878D01*
X111715124Y-102812693D01*
X111739792Y-102798282D01*
X111786480Y-102786236D01*
X111841056Y-102782354D01*
X111894354Y-102787120D01*
X111937207Y-102801014D01*
X111967878Y-102820779D01*
X111999471Y-102854449D01*
X112020733Y-102899730D01*
X112033514Y-102960981D01*
X112039664Y-103042563D01*
X112040568Y-103075540D01*
X112040633Y-103096155D01*
X112040761Y-103136813D01*
X112039167Y-103190571D01*
G37*
X112039167Y-103190571D02*
X112035962Y-103228018D01*
X112035413Y-103231450D01*
X112013838Y-103292835D01*
X111974438Y-103344877D01*
X111922752Y-103380135D01*
X111867248Y-103394729D01*
X111798977Y-103393597D01*
X111736173Y-103374029D01*
X111719815Y-103365771D01*
X111698779Y-103356923D01*
X111690774Y-103359676D01*
X111689505Y-103374029D01*
X111688922Y-103381186D01*
X111681394Y-103391772D01*
X111660488Y-103396645D01*
X111620346Y-103397822D01*
X111551188Y-103397822D01*
X111551188Y-103095930D01*
X111689505Y-103095930D01*
X111690496Y-103148230D01*
X111694519Y-103183050D01*
X111703108Y-103206905D01*
X111717797Y-103226895D01*
X111756584Y-103256618D01*
X111801974Y-103266582D01*
X111845989Y-103254260D01*
X111883060Y-103219888D01*
X111892859Y-103194735D01*
X111900097Y-103150194D01*
X111903279Y-103096155D01*
X111902277Y-103040728D01*
X111896961Y-102992022D01*
X111887204Y-102958148D01*
X111884087Y-102952593D01*
X111854038Y-102924674D01*
X111813315Y-102912306D01*
X111769579Y-102915183D01*
X111730491Y-102933000D01*
X111703710Y-102965452D01*
X111702603Y-102968181D01*
X111695963Y-102998634D01*
X111691278Y-103044139D01*
X111689505Y-103095930D01*
X111551188Y-103095930D01*
X111551188Y-102542773D01*
X111689505Y-102542773D01*
X111689505Y-102835878D01*
X111715124Y-102812693D01*
X111739792Y-102798282D01*
X111786480Y-102786236D01*
X111841056Y-102782354D01*
X111894354Y-102787120D01*
X111937207Y-102801014D01*
X111967878Y-102820779D01*
X111999471Y-102854449D01*
X112020733Y-102899730D01*
X112033514Y-102960981D01*
X112039664Y-103042563D01*
X112040568Y-103075540D01*
X112040633Y-103096155D01*
X112040761Y-103136813D01*
X112039167Y-103190571D01*
G36*
X111079349Y-102223565D02*
G01*
X111063844Y-102299538D01*
X111036110Y-102357511D01*
X110993898Y-102401300D01*
X110934960Y-102434722D01*
X110912076Y-102442676D01*
X110852812Y-102452601D01*
X110790447Y-102452331D01*
X110737823Y-102441430D01*
X110736789Y-102441034D01*
X110694381Y-102416087D01*
X110651537Y-102377468D01*
X110615986Y-102333306D01*
X110595459Y-102291727D01*
X110589374Y-102261334D01*
X110584164Y-102204429D01*
X110583291Y-102153705D01*
X110709976Y-102153705D01*
X110717549Y-102214545D01*
X110735341Y-102264538D01*
X110762296Y-102297204D01*
X110772513Y-102302812D01*
X110811473Y-102313007D01*
X110856536Y-102315104D01*
X110894448Y-102308020D01*
X110909244Y-102297861D01*
X110930014Y-102262334D01*
X110943083Y-102206732D01*
X110947624Y-102133766D01*
X110947551Y-102112762D01*
X110945974Y-102070203D01*
X110940728Y-102042439D01*
X110929723Y-102021925D01*
X110910868Y-102001112D01*
X110874989Y-101975887D01*
X110828280Y-101965573D01*
X110783151Y-101975396D01*
X110745680Y-102003805D01*
X110721943Y-102049253D01*
X110713675Y-102088497D01*
X110709976Y-102153705D01*
X110583291Y-102153705D01*
X110583049Y-102139621D01*
X110585844Y-102075116D01*
X110592366Y-102019121D01*
X110602432Y-101979842D01*
X110625877Y-101935372D01*
X110675637Y-101880692D01*
X110739238Y-101846055D01*
X110814790Y-101832345D01*
X110900399Y-101840448D01*
X110914644Y-101843899D01*
X110980982Y-101873664D01*
X111030971Y-101922530D01*
X111064612Y-101990501D01*
X111081906Y-102077580D01*
X111082410Y-102133766D01*
X111082857Y-102183771D01*
X111079349Y-102223565D01*
G37*
X111079349Y-102223565D02*
X111063844Y-102299538D01*
X111036110Y-102357511D01*
X110993898Y-102401300D01*
X110934960Y-102434722D01*
X110912076Y-102442676D01*
X110852812Y-102452601D01*
X110790447Y-102452331D01*
X110737823Y-102441430D01*
X110736789Y-102441034D01*
X110694381Y-102416087D01*
X110651537Y-102377468D01*
X110615986Y-102333306D01*
X110595459Y-102291727D01*
X110589374Y-102261334D01*
X110584164Y-102204429D01*
X110583291Y-102153705D01*
X110709976Y-102153705D01*
X110717549Y-102214545D01*
X110735341Y-102264538D01*
X110762296Y-102297204D01*
X110772513Y-102302812D01*
X110811473Y-102313007D01*
X110856536Y-102315104D01*
X110894448Y-102308020D01*
X110909244Y-102297861D01*
X110930014Y-102262334D01*
X110943083Y-102206732D01*
X110947624Y-102133766D01*
X110947551Y-102112762D01*
X110945974Y-102070203D01*
X110940728Y-102042439D01*
X110929723Y-102021925D01*
X110910868Y-102001112D01*
X110874989Y-101975887D01*
X110828280Y-101965573D01*
X110783151Y-101975396D01*
X110745680Y-102003805D01*
X110721943Y-102049253D01*
X110713675Y-102088497D01*
X110709976Y-102153705D01*
X110583291Y-102153705D01*
X110583049Y-102139621D01*
X110585844Y-102075116D01*
X110592366Y-102019121D01*
X110602432Y-101979842D01*
X110625877Y-101935372D01*
X110675637Y-101880692D01*
X110739238Y-101846055D01*
X110814790Y-101832345D01*
X110900399Y-101840448D01*
X110914644Y-101843899D01*
X110980982Y-101873664D01*
X111030971Y-101922530D01*
X111064612Y-101990501D01*
X111081906Y-102077580D01*
X111082410Y-102133766D01*
X111082857Y-102183771D01*
X111079349Y-102223565D01*
G36*
X111182997Y-102979130D02*
G01*
X111199997Y-103029850D01*
X111220107Y-103085997D01*
X111236899Y-103128532D01*
X111248986Y-103153990D01*
X111254980Y-103158903D01*
X111256426Y-103154630D01*
X111264254Y-103128422D01*
X111276723Y-103084649D01*
X111292447Y-103028211D01*
X111310043Y-102964010D01*
X111357914Y-102787971D01*
X111431007Y-102784152D01*
X111437177Y-102783846D01*
X111476592Y-102783441D01*
X111495533Y-102787487D01*
X111497945Y-102796726D01*
X111494898Y-102805749D01*
X111484874Y-102836632D01*
X111469180Y-102885544D01*
X111448934Y-102948987D01*
X111425256Y-103023462D01*
X111399263Y-103105471D01*
X111306736Y-103397822D01*
X111190993Y-103397822D01*
X111136457Y-103212352D01*
X111126386Y-103178294D01*
X111107775Y-103116378D01*
X111091872Y-103064787D01*
X111080109Y-103028130D01*
X111073918Y-103011018D01*
X111072154Y-103009741D01*
X111063571Y-103020779D01*
X111051316Y-103049969D01*
X111037426Y-103092750D01*
X111036692Y-103095263D01*
X111018096Y-103158400D01*
X110996818Y-103229889D01*
X110977321Y-103294734D01*
X110945705Y-103399122D01*
X110887402Y-103395328D01*
X110829098Y-103391535D01*
X110775098Y-103221782D01*
X110751390Y-103147193D01*
X110724833Y-103063539D01*
X110699404Y-102983342D01*
X110678354Y-102916857D01*
X110635609Y-102781683D01*
X110778612Y-102781683D01*
X110813274Y-102910570D01*
X110822488Y-102944625D01*
X110839915Y-103008115D01*
X110856054Y-103065874D01*
X110868322Y-103108614D01*
X110888709Y-103177773D01*
X111018745Y-102787971D01*
X111068476Y-102784237D01*
X111118206Y-102780504D01*
X111182997Y-102979130D01*
G37*
X111182997Y-102979130D02*
X111199997Y-103029850D01*
X111220107Y-103085997D01*
X111236899Y-103128532D01*
X111248986Y-103153990D01*
X111254980Y-103158903D01*
X111256426Y-103154630D01*
X111264254Y-103128422D01*
X111276723Y-103084649D01*
X111292447Y-103028211D01*
X111310043Y-102964010D01*
X111357914Y-102787971D01*
X111431007Y-102784152D01*
X111437177Y-102783846D01*
X111476592Y-102783441D01*
X111495533Y-102787487D01*
X111497945Y-102796726D01*
X111494898Y-102805749D01*
X111484874Y-102836632D01*
X111469180Y-102885544D01*
X111448934Y-102948987D01*
X111425256Y-103023462D01*
X111399263Y-103105471D01*
X111306736Y-103397822D01*
X111190993Y-103397822D01*
X111136457Y-103212352D01*
X111126386Y-103178294D01*
X111107775Y-103116378D01*
X111091872Y-103064787D01*
X111080109Y-103028130D01*
X111073918Y-103011018D01*
X111072154Y-103009741D01*
X111063571Y-103020779D01*
X111051316Y-103049969D01*
X111037426Y-103092750D01*
X111036692Y-103095263D01*
X111018096Y-103158400D01*
X110996818Y-103229889D01*
X110977321Y-103294734D01*
X110945705Y-103399122D01*
X110887402Y-103395328D01*
X110829098Y-103391535D01*
X110775098Y-103221782D01*
X110751390Y-103147193D01*
X110724833Y-103063539D01*
X110699404Y-102983342D01*
X110678354Y-102916857D01*
X110635609Y-102781683D01*
X110778612Y-102781683D01*
X110813274Y-102910570D01*
X110822488Y-102944625D01*
X110839915Y-103008115D01*
X110856054Y-103065874D01*
X110868322Y-103108614D01*
X110888709Y-103177773D01*
X111018745Y-102787971D01*
X111068476Y-102784237D01*
X111118206Y-102780504D01*
X111182997Y-102979130D01*
G36*
X109612718Y-103136692D02*
G01*
X109597827Y-103226459D01*
X109567185Y-103297045D01*
X109520524Y-103348952D01*
X109457574Y-103382686D01*
X109437235Y-103388647D01*
X109364612Y-103396971D01*
X109287928Y-103389946D01*
X109218663Y-103368265D01*
X109194262Y-103355959D01*
X109159275Y-103334879D01*
X109138072Y-103317534D01*
X109134942Y-103313571D01*
X109129085Y-103299077D01*
X109137524Y-103283321D01*
X109163221Y-103259460D01*
X109175622Y-103249072D01*
X109200052Y-103230063D01*
X109212861Y-103222293D01*
X109216530Y-103223094D01*
X109237561Y-103231745D01*
X109268960Y-103246931D01*
X109279197Y-103251926D01*
X109339590Y-103270475D01*
X109392057Y-103265694D01*
X109438065Y-103237500D01*
X109443419Y-103232291D01*
X109469013Y-103199659D01*
X109483637Y-103168342D01*
X109491736Y-103133763D01*
X109111782Y-103133763D01*
X109111852Y-103067748D01*
X109111892Y-103061182D01*
X109117022Y-103008218D01*
X109250099Y-103008218D01*
X109251670Y-103019203D01*
X109259738Y-103026773D01*
X109278967Y-103030975D01*
X109314019Y-103032783D01*
X109369554Y-103033169D01*
X109400429Y-103032768D01*
X109446002Y-103030429D01*
X109477348Y-103026465D01*
X109489010Y-103021413D01*
X109479064Y-102979827D01*
X109449947Y-102941013D01*
X109407952Y-102914086D01*
X109359440Y-102904772D01*
X109323723Y-102915272D01*
X109288020Y-102940940D01*
X109260879Y-102974381D01*
X109250099Y-103008218D01*
X109117022Y-103008218D01*
X109119758Y-102979965D01*
X109142655Y-102913895D01*
X109182607Y-102856940D01*
X109206979Y-102832848D01*
X109257315Y-102800597D01*
X109317419Y-102784970D01*
X109393338Y-102783871D01*
X109430010Y-102788179D01*
X109497703Y-102810549D01*
X109549530Y-102851263D01*
X109585945Y-102910949D01*
X109607401Y-102990236D01*
X109609579Y-103021413D01*
X109614353Y-103089753D01*
X109612718Y-103136692D01*
G37*
X109612718Y-103136692D02*
X109597827Y-103226459D01*
X109567185Y-103297045D01*
X109520524Y-103348952D01*
X109457574Y-103382686D01*
X109437235Y-103388647D01*
X109364612Y-103396971D01*
X109287928Y-103389946D01*
X109218663Y-103368265D01*
X109194262Y-103355959D01*
X109159275Y-103334879D01*
X109138072Y-103317534D01*
X109134942Y-103313571D01*
X109129085Y-103299077D01*
X109137524Y-103283321D01*
X109163221Y-103259460D01*
X109175622Y-103249072D01*
X109200052Y-103230063D01*
X109212861Y-103222293D01*
X109216530Y-103223094D01*
X109237561Y-103231745D01*
X109268960Y-103246931D01*
X109279197Y-103251926D01*
X109339590Y-103270475D01*
X109392057Y-103265694D01*
X109438065Y-103237500D01*
X109443419Y-103232291D01*
X109469013Y-103199659D01*
X109483637Y-103168342D01*
X109491736Y-103133763D01*
X109111782Y-103133763D01*
X109111852Y-103067748D01*
X109111892Y-103061182D01*
X109117022Y-103008218D01*
X109250099Y-103008218D01*
X109251670Y-103019203D01*
X109259738Y-103026773D01*
X109278967Y-103030975D01*
X109314019Y-103032783D01*
X109369554Y-103033169D01*
X109400429Y-103032768D01*
X109446002Y-103030429D01*
X109477348Y-103026465D01*
X109489010Y-103021413D01*
X109479064Y-102979827D01*
X109449947Y-102941013D01*
X109407952Y-102914086D01*
X109359440Y-102904772D01*
X109323723Y-102915272D01*
X109288020Y-102940940D01*
X109260879Y-102974381D01*
X109250099Y-103008218D01*
X109117022Y-103008218D01*
X109119758Y-102979965D01*
X109142655Y-102913895D01*
X109182607Y-102856940D01*
X109206979Y-102832848D01*
X109257315Y-102800597D01*
X109317419Y-102784970D01*
X109393338Y-102783871D01*
X109430010Y-102788179D01*
X109497703Y-102810549D01*
X109549530Y-102851263D01*
X109585945Y-102910949D01*
X109607401Y-102990236D01*
X109609579Y-103021413D01*
X109614353Y-103089753D01*
X109612718Y-103136692D01*
G36*
X112232605Y-101837424D02*
G01*
X112289926Y-101855434D01*
X112315199Y-101867674D01*
X112327910Y-101868938D01*
X112330792Y-101857798D01*
X112330795Y-101857461D01*
X112337006Y-101846087D01*
X112358428Y-101840256D01*
X112399950Y-101838614D01*
X112469109Y-101838614D01*
X112469109Y-102442179D01*
X112330792Y-102442179D01*
X112330792Y-102234132D01*
X112330697Y-102163879D01*
X112330051Y-102106170D01*
X112328320Y-102065787D01*
X112324974Y-102038615D01*
X112319481Y-102020540D01*
X112311310Y-102007447D01*
X112299928Y-101995221D01*
X112284424Y-101982217D01*
X112239843Y-101964745D01*
X112193047Y-101969873D01*
X112150180Y-101997507D01*
X112137927Y-102010368D01*
X112129132Y-102023384D01*
X112123233Y-102040706D01*
X112119651Y-102066501D01*
X112117809Y-102104939D01*
X112117128Y-102160189D01*
X112117030Y-102236418D01*
X112117030Y-102442179D01*
X111978713Y-102442179D01*
X111978989Y-102218985D01*
X111979008Y-102209044D01*
X111980207Y-102114106D01*
X111983891Y-102040358D01*
X111991006Y-101984214D01*
X112002500Y-101942087D01*
X112019318Y-101910391D01*
X112042409Y-101885541D01*
X112072717Y-101863950D01*
X112104012Y-101849002D01*
X112167037Y-101835421D01*
X112232605Y-101837424D01*
G37*
X112232605Y-101837424D02*
X112289926Y-101855434D01*
X112315199Y-101867674D01*
X112327910Y-101868938D01*
X112330792Y-101857798D01*
X112330795Y-101857461D01*
X112337006Y-101846087D01*
X112358428Y-101840256D01*
X112399950Y-101838614D01*
X112469109Y-101838614D01*
X112469109Y-102442179D01*
X112330792Y-102442179D01*
X112330792Y-102234132D01*
X112330697Y-102163879D01*
X112330051Y-102106170D01*
X112328320Y-102065787D01*
X112324974Y-102038615D01*
X112319481Y-102020540D01*
X112311310Y-102007447D01*
X112299928Y-101995221D01*
X112284424Y-101982217D01*
X112239843Y-101964745D01*
X112193047Y-101969873D01*
X112150180Y-101997507D01*
X112137927Y-102010368D01*
X112129132Y-102023384D01*
X112123233Y-102040706D01*
X112119651Y-102066501D01*
X112117809Y-102104939D01*
X112117128Y-102160189D01*
X112117030Y-102236418D01*
X112117030Y-102442179D01*
X111978713Y-102442179D01*
X111978989Y-102218985D01*
X111979008Y-102209044D01*
X111980207Y-102114106D01*
X111983891Y-102040358D01*
X111991006Y-101984214D01*
X112002500Y-101942087D01*
X112019318Y-101910391D01*
X112042409Y-101885541D01*
X112072717Y-101863950D01*
X112104012Y-101849002D01*
X112167037Y-101835421D01*
X112232605Y-101837424D01*
D11*
%TO.C,R2*%
X110595276Y-108997500D02*
X111104724Y-108997500D01*
X110595276Y-110042500D02*
X111104724Y-110042500D01*
%TO.C,SJ1*%
X103660000Y-113670000D02*
X103660000Y-112270000D01*
X102360000Y-114370000D02*
X102960000Y-114370000D01*
X102960000Y-111570000D02*
X102360000Y-111570000D01*
X101660000Y-112270000D02*
X101660000Y-113670000D01*
X102360000Y-111570000D02*
G75*
G03*
X101660000Y-112270000I-1J-699999D01*
G01*
X103660000Y-112270000D02*
G75*
G03*
X102960000Y-111570000I-699999J1D01*
G01*
X101660000Y-113670000D02*
G75*
G03*
X102360000Y-114370000I700000J0D01*
G01*
X102960000Y-114370000D02*
G75*
G03*
X103660000Y-113670000I0J700000D01*
G01*
%TO.C,R1*%
X107152776Y-112637500D02*
X107662224Y-112637500D01*
X107152776Y-113682500D02*
X107662224Y-113682500D01*
%TO.C,U1*%
X99980000Y-113690000D02*
X98380000Y-113690000D01*
X98380000Y-110490000D02*
X100680000Y-110490000D01*
%TD*%
M02*
