%TF.GenerationSoftware,KiCad,Pcbnew,(6.0.4)*%
%TF.CreationDate,2022-07-22T09:07:41+02:00*%
%TF.ProjectId,rcp2n64adv2,72637032-6e36-4346-9164-76322e6b6963,rev?*%
%TF.SameCoordinates,Original*%
%TF.FileFunction,Other,User*%
%FSLAX46Y46*%
G04 Gerber Fmt 4.6, Leading zero omitted, Abs format (unit mm)*
G04 Created by KiCad (PCBNEW (6.0.4)) date 2022-07-22 09:07:41*
%MOMM*%
%LPD*%
G01*
G04 APERTURE LIST*
%ADD10C,0.150000*%
G04 APERTURE END LIST*
D10*
X145350000Y-94050000D02*
X167800000Y-94050000D01*
X167800000Y-94050000D02*
X167800000Y-109300000D01*
X167800000Y-109300000D02*
X145350000Y-109300000D01*
X145350000Y-109300000D02*
X145350000Y-94050000D01*
G36*
X145350000Y-94050000D02*
G01*
X167800000Y-94050000D01*
X167800000Y-109300000D01*
X145350000Y-109300000D01*
X145350000Y-94050000D01*
G37*
G36*
X112750000Y-110250000D02*
G01*
X109000000Y-110250000D01*
X108700000Y-109950000D01*
X108700000Y-109000000D01*
X108900000Y-108800000D01*
X112750000Y-108800000D01*
X112750000Y-110250000D01*
G37*
X112750000Y-110250000D02*
X109000000Y-110250000D01*
X108700000Y-109950000D01*
X108700000Y-109000000D01*
X108900000Y-108800000D01*
X112750000Y-108800000D01*
X112750000Y-110250000D01*
G36*
X104450000Y-112000000D02*
G01*
X105100000Y-112000000D01*
X105100000Y-114450000D01*
X94400000Y-114450000D01*
X92750000Y-112900000D01*
X92750000Y-111850000D01*
X93900000Y-110800000D01*
X96600000Y-110800000D01*
X97500000Y-109900000D01*
X102350000Y-109900000D01*
X104450000Y-112000000D01*
G37*
X104450000Y-112000000D02*
X105100000Y-112000000D01*
X105100000Y-114450000D01*
X94400000Y-114450000D01*
X92750000Y-112900000D01*
X92750000Y-111850000D01*
X93900000Y-110800000D01*
X96600000Y-110800000D01*
X97500000Y-109900000D01*
X102350000Y-109900000D01*
X104450000Y-112000000D01*
M02*
