%TF.GenerationSoftware,KiCad,Pcbnew,(6.0.4)*%
%TF.CreationDate,2022-07-22T09:07:41+02:00*%
%TF.ProjectId,rcp2n64adv2,72637032-6e36-4346-9164-76322e6b6963,rev?*%
%TF.SameCoordinates,Original*%
%TF.FileFunction,Profile,NP*%
%FSLAX46Y46*%
G04 Gerber Fmt 4.6, Leading zero omitted, Abs format (unit mm)*
G04 Created by KiCad (PCBNEW (6.0.4)) date 2022-07-22 09:07:41*
%MOMM*%
%LPD*%
G01*
G04 APERTURE LIST*
%TA.AperFunction,Profile*%
%ADD10C,0.050000*%
%TD*%
G04 APERTURE END LIST*
D10*
X215280000Y-93920000D02*
X211130000Y-93920000D01*
X204430000Y-109420000D02*
X205780000Y-110770000D01*
X104290000Y-108900000D02*
X108595000Y-108900000D01*
X98330000Y-94270000D02*
G75*
G03*
X98630000Y-94570000I300000J0D01*
G01*
X104530000Y-111870000D02*
X103730000Y-111070000D01*
X86430000Y-111790000D02*
X92600000Y-111790000D01*
X103230000Y-91170000D02*
X103030000Y-90970000D01*
X85730000Y-100420000D02*
X85830000Y-100520000D01*
X209780000Y-110770000D02*
X211130000Y-109420000D01*
X132410000Y-108680000D02*
X108845000Y-108675000D01*
X85730000Y-106320000D02*
X85730000Y-103720000D01*
X95930000Y-109870000D02*
X97300000Y-108500000D01*
X215280000Y-93920000D02*
X215330000Y-93970000D01*
X85730000Y-103020000D02*
X85830000Y-103120000D01*
X86030000Y-108570000D02*
X88980000Y-108570000D01*
X124830000Y-111870000D02*
X104530000Y-111870000D01*
X205780000Y-110770000D02*
X209780000Y-110770000D01*
X85830000Y-103620000D02*
X85730000Y-103720000D01*
X86230000Y-100920000D02*
X86130000Y-101020000D01*
X104290000Y-110050000D02*
X108600000Y-110050000D01*
X86130000Y-94020000D02*
X86230000Y-94120000D01*
X86430000Y-112950000D02*
X86230000Y-112750000D01*
X205780000Y-92570000D02*
X209780000Y-92570000D01*
X86130000Y-97270000D02*
X86230000Y-97370000D01*
X86430000Y-112950000D02*
X92600000Y-112950000D01*
X100650000Y-108500000D02*
X101975000Y-107175000D01*
X124830000Y-111870000D02*
G75*
G03*
X125430000Y-111270000I42900J557100D01*
G01*
X125430000Y-110970000D02*
X125430000Y-111270000D01*
X86480000Y-92970000D02*
X86480000Y-92470000D01*
X119630000Y-89570000D02*
X123980000Y-93920000D01*
X204430000Y-93920000D02*
X123980000Y-93920000D01*
X85730000Y-103020000D02*
X85730000Y-101120000D01*
X86230000Y-103220000D02*
X86230000Y-103520000D01*
X108600000Y-110050000D02*
X108920000Y-110370000D01*
X85830000Y-101020000D02*
X85730000Y-101120000D01*
X86130000Y-101020000D02*
X85830000Y-101020000D01*
X115830000Y-93870000D02*
X115830000Y-91870000D01*
X86230000Y-111990000D02*
X86430000Y-111790000D01*
X211130000Y-109420000D02*
X215230000Y-109420000D01*
X108920000Y-110370000D02*
X124830000Y-110370000D01*
X125430000Y-110969999D02*
G75*
G03*
X124830000Y-110370000I-557100J42899D01*
G01*
X90280000Y-109870000D02*
X88980000Y-108570000D01*
X85730000Y-108270000D02*
X85730000Y-106320000D01*
X97430000Y-109770000D02*
X102430000Y-109770000D01*
X86480000Y-92470000D02*
X86880000Y-92070000D01*
X86130000Y-97770000D02*
X85830000Y-97770000D01*
X85830000Y-97770000D02*
X85730000Y-97870000D01*
X112930000Y-92270000D02*
X112930000Y-93470000D01*
X85730000Y-93320000D02*
X85730000Y-93920000D01*
X86230000Y-94120000D02*
X86230000Y-95070000D01*
X103030000Y-90970000D02*
X103030000Y-89770000D01*
X103230000Y-89570000D02*
X119630000Y-89570000D01*
X115230000Y-94570000D02*
G75*
G03*
X115830000Y-93870000I-50000J650000D01*
G01*
X85730000Y-95270000D02*
X85730000Y-97170000D01*
X85830000Y-103120000D02*
X86130000Y-103120000D01*
X86230000Y-95070000D02*
X86130000Y-95170000D01*
X85730000Y-108270000D02*
X86030000Y-108570000D01*
X93830000Y-110670000D02*
X96530000Y-110670000D01*
X108845000Y-108675000D02*
X108595000Y-108900000D01*
X85730000Y-93920000D02*
X85830000Y-94020000D01*
X86230000Y-93220000D02*
X86480000Y-92970000D01*
X86230000Y-112750000D02*
X86230000Y-111990000D01*
X112730000Y-92070000D02*
X112930000Y-92270000D01*
X204430000Y-93920000D02*
X205780000Y-92570000D01*
X85730000Y-97170000D02*
X85830000Y-97270000D01*
X133030000Y-107769999D02*
G75*
G03*
X132430000Y-107170000I-557100J42899D01*
G01*
X115829951Y-91869992D02*
G75*
G03*
X115230000Y-91170000I-599951J92892D01*
G01*
X132430000Y-107170000D02*
X101975000Y-107175000D01*
X92600000Y-112950000D02*
X94330000Y-114570000D01*
X86130000Y-100520000D02*
X86230000Y-100620000D01*
X215330000Y-93970000D02*
X215330000Y-109320000D01*
X96530000Y-110670000D02*
X97430000Y-109770000D01*
X209780000Y-92570000D02*
X211130000Y-93920000D01*
X85830000Y-93220000D02*
X85730000Y-93320000D01*
X133030000Y-107770000D02*
X133030000Y-108070000D01*
X215330000Y-109320000D02*
X215230000Y-109420000D01*
X85730000Y-97870000D02*
X85730000Y-100420000D01*
X98630000Y-93670000D02*
G75*
G03*
X98330000Y-93970000I0J-300000D01*
G01*
X95930000Y-109870000D02*
X90280000Y-109870000D01*
X86230000Y-100620000D02*
X86230000Y-100920000D01*
X86880000Y-92070000D02*
X112730000Y-92070000D01*
X98630000Y-94570000D02*
X115230000Y-94570000D01*
X86230000Y-103520000D02*
X86130000Y-103620000D01*
X104090000Y-109850000D02*
X104290000Y-110050000D01*
X115230000Y-91170000D02*
X103230000Y-91170000D01*
X138330000Y-109420000D02*
X204430000Y-109420000D01*
X85830000Y-93220000D02*
X86230000Y-93220000D01*
X86230000Y-97370000D02*
X86230000Y-97670000D01*
X85830000Y-100520000D02*
X86130000Y-100520000D01*
X86130000Y-103120000D02*
X86230000Y-103220000D01*
X92600000Y-111790000D02*
X93830000Y-110670000D01*
X133180000Y-114570000D02*
X138330000Y-109420000D01*
X86130000Y-95170000D02*
X85830000Y-95170000D01*
X97300000Y-108500000D02*
X100650000Y-108500000D01*
X85830000Y-95170000D02*
X85730000Y-95270000D01*
X98330000Y-93970000D02*
X98330000Y-94270000D01*
X112730000Y-93670000D02*
X98630000Y-93670000D01*
X94330000Y-114570000D02*
X133180000Y-114570000D01*
X86130000Y-103620000D02*
X85830000Y-103620000D01*
X85830000Y-94020000D02*
X86130000Y-94020000D01*
X85830000Y-97270000D02*
X86130000Y-97270000D01*
X112930000Y-93470000D02*
X112730000Y-93670000D01*
X102430000Y-109770000D02*
X103730000Y-111070000D01*
X86230000Y-97670000D02*
X86130000Y-97770000D01*
X103030000Y-89770000D02*
X103230000Y-89570000D01*
X132430000Y-108670000D02*
G75*
G03*
X133030000Y-108070000I42900J557100D01*
G01*
X104090000Y-109100000D02*
X104290000Y-108900000D01*
X104090000Y-109100000D02*
X104090000Y-109850000D01*
M02*
