M48
; DRILL file {KiCad (6.0.7)} date Mon Nov 27 18:07:29 2023
; FORMAT={-:-/ absolute / metric / decimal}
; #@! TF.CreationDate,2023-11-27T18:07:29+01:00
; #@! TF.GenerationSoftware,Kicad,Pcbnew,(6.0.7)
; #@! TF.FileFunction,MixedPlating,1,2
FMAT,2
METRIC
; #@! TA.AperFunction,Plated,PTH,ViaDrill
T1C0.200
; #@! TA.AperFunction,Plated,PTH,ComponentDrill
T2C0.254
; #@! TA.AperFunction,Plated,PTH,ViaDrill
T3C0.400
; #@! TA.AperFunction,Plated,PTH,ComponentDrill
T4C0.400
; #@! TA.AperFunction,Plated,PTH,ViaDrill
T5C0.600
; #@! TA.AperFunction,Plated,PTH,ComponentDrill
T6C0.800
%
G90
G05
T1
X100.9Y-98.6
X101.68Y-103.42
X101.68Y-104.42
X102.78Y-103.42
X102.78Y-104.42
X103.88Y-103.42
X103.88Y-104.42
X106.12Y-109.99
X110.33Y-109.01
X115.23Y-109.28
X116.36Y-109.27
X120.78Y-96.61
X122.02Y-96.6
X134.73Y-106.43
X136.03Y-106.92
X137.08Y-106.92
X138.03Y-106.92
X206.68Y-106.92
X206.68Y-107.92
X206.7Y-96.6
X206.7Y-99.42
X206.7Y-103.42
X206.7Y-104.42
X207.78Y-106.92
X207.78Y-107.92
X207.8Y-96.6
X207.8Y-99.42
X207.8Y-103.42
X207.8Y-104.42
X208.4Y-96.05
X209.03Y-106.92
X209.08Y-99.42
X209.08Y-103.42
X209.08Y-104.42
X209.08Y-107.92
X209.33Y-105.42
T2
X85.755Y-93.63
X85.755Y-95.58
X85.755Y-96.23
X85.755Y-96.88
X85.755Y-98.18
X85.755Y-98.83
X85.755Y-99.48
X85.755Y-100.13
X85.755Y-101.43
X85.755Y-102.08
X85.755Y-102.73
X85.755Y-104.03
X85.755Y-104.68
X85.755Y-105.33
X85.755Y-106.63
X85.755Y-107.28
X85.755Y-107.93
X85.76Y-105.98
X86.43Y-93.63
X86.43Y-95.58
X86.43Y-96.23
X86.43Y-96.88
X86.43Y-98.18
X86.43Y-98.83
X86.43Y-99.48
X86.43Y-100.13
X86.43Y-101.43
X86.43Y-102.08
X86.43Y-102.73
X86.43Y-104.03
X86.43Y-104.68
X86.43Y-105.33
X86.43Y-106.63
X86.43Y-107.28
X86.43Y-107.93
X86.435Y-105.98
T3
X88.35Y-93.63
X88.78Y-101.03
X88.95Y-97.8
X90.61Y-103.15
X90.94Y-104.75
X91.114Y-107.17
X91.35Y-94.35
X95.22Y-107.16
X95.26Y-104.75
X95.29Y-103.15
X96.75Y-103.15
X97.32Y-109.35
X97.42Y-104.63
X99.08Y-107.05
X101.2Y-109.36
X102.06Y-98.95
X105.06Y-110.16
X116.75Y-92.15
X119.8Y-94.85
X120.95Y-95.2
X133.86Y-107.64
T4
X151.79Y-110.88
X152.485Y-110.88
X164.28Y-112.89
X164.975Y-112.89
T5
X105.81Y-92.87
X106.88Y-90.37
X107.22Y-92.87
X108.38Y-90.37
X108.57Y-92.87
X109.96Y-90.37
X205.44Y-97.68
X205.54Y-95.17
X206.75Y-97.68
X206.82Y-95.17
X208.1Y-97.68
X208.16Y-95.17
T6
X103.037Y-90.365
X104.307Y-90.365
X111.655Y-92.87
X112.925Y-92.87
T0
M30
