G04 EAGLE Gerber X2 export*
%TF.Part,Single*%
%TF.FileFunction,Other,bottom copper*%
%TF.FilePolarity,Positive*%
%TF.GenerationSoftware,Autodesk,EAGLE,9.6.2*%
%TF.CreationDate,2021-11-14T09:40:45Z*%
G75*
%MOMM*%
%FSLAX34Y34*%
%LPD*%
%INbottom copper*%
%AMOC8*
5,1,8,0,0,1.08239X$1,22.5*%
G01*
%ADD10C,0.000000*%
%ADD11R,1.350000X0.450000*%
%ADD12R,1.000000X1.100000*%
%ADD13R,0.690000X0.990000*%
%ADD14R,1.100000X1.000000*%
%ADD15R,2.540000X1.270000*%
%ADD16R,1.524000X1.270000*%
%ADD17C,0.450000*%
%ADD18C,0.600000*%
%ADD19C,0.609600*%
%ADD20C,0.455000*%
%ADD21C,0.304800*%
%ADD22C,0.430000*%
%ADD23C,0.406400*%
%ADD24C,0.152400*%
%ADD25C,0.254000*%
%ADD26C,1.000000*%
%ADD27C,1.016000*%
%ADD28C,0.812800*%
%ADD29C,1.040000*%


D10*
X0Y-36000D02*
X3000Y-39000D01*
X32500Y-39000D01*
X0Y113500D02*
X1000Y114500D01*
X0Y113500D02*
X0Y107500D01*
X0Y94000D02*
X0Y75000D01*
X1000Y74000D01*
X4000Y74000D01*
X5000Y73000D01*
X5000Y70000D02*
X4000Y69000D01*
X1000Y69000D01*
X0Y68000D01*
X5000Y70000D02*
X5000Y73000D01*
X0Y68000D02*
X0Y42500D01*
X1000Y41500D01*
X4000Y41500D01*
X5000Y40500D01*
X5000Y37500D02*
X4000Y36500D01*
X1000Y36500D01*
X0Y35500D01*
X5000Y37500D02*
X5000Y40500D01*
X0Y42000D02*
X0Y35500D01*
X0Y16500D02*
X1000Y15500D01*
X4000Y15500D01*
X5000Y14500D01*
X5000Y11500D02*
X4000Y10500D01*
X1000Y10500D01*
X0Y9500D01*
X5000Y11500D02*
X5000Y14500D01*
X0Y-16500D02*
X0Y-36000D01*
X0Y-9500D02*
X0Y9500D01*
X0Y16500D02*
X0Y35500D01*
X0Y-9500D02*
X1000Y-10500D01*
X4000Y-10500D02*
X5000Y-11500D01*
X4000Y-10500D02*
X1000Y-10500D01*
X5000Y-11500D02*
X5000Y-14500D01*
X4000Y-15500D01*
X1000Y-15500D01*
X0Y-16500D01*
X1000Y106500D02*
X0Y107500D01*
X1000Y106500D02*
X4000Y106500D01*
X5000Y105500D01*
X5000Y96000D01*
X4000Y95000D01*
X1000Y95000D01*
X0Y94000D01*
X1000Y114500D02*
X5000Y114500D01*
X7500Y117000D01*
X7500Y122000D01*
X11500Y126000D01*
X270000Y126000D01*
X272000Y124000D01*
X272000Y112000D01*
X270000Y110000D01*
X129000Y110000D01*
X126000Y107000D02*
X126000Y104000D01*
X129000Y101000D02*
X295000Y101000D01*
X301000Y108000D02*
X301000Y128000D01*
X295000Y135000D02*
X175000Y135000D01*
X173000Y137000D01*
X173000Y149000D01*
X175000Y151000D01*
X320000Y151000D01*
X363500Y107500D01*
X1295500Y106500D02*
X1296000Y106000D01*
X1296000Y-45500D01*
X1295000Y-46500D01*
X1295500Y106500D02*
X1251000Y106500D01*
X1187000Y107500D02*
X363500Y107500D01*
X129000Y110000D02*
X128893Y109998D01*
X128786Y109992D01*
X128679Y109983D01*
X128573Y109969D01*
X128467Y109952D01*
X128362Y109931D01*
X128258Y109907D01*
X128155Y109878D01*
X128053Y109846D01*
X127952Y109811D01*
X127852Y109772D01*
X127754Y109729D01*
X127657Y109683D01*
X127562Y109633D01*
X127469Y109580D01*
X127378Y109524D01*
X127289Y109464D01*
X127202Y109402D01*
X127118Y109336D01*
X127035Y109267D01*
X126956Y109196D01*
X126879Y109121D01*
X126804Y109044D01*
X126733Y108965D01*
X126664Y108882D01*
X126598Y108798D01*
X126536Y108711D01*
X126476Y108622D01*
X126420Y108531D01*
X126367Y108438D01*
X126317Y108343D01*
X126271Y108246D01*
X126228Y108148D01*
X126189Y108048D01*
X126154Y107947D01*
X126122Y107845D01*
X126093Y107742D01*
X126069Y107638D01*
X126048Y107533D01*
X126031Y107427D01*
X126017Y107321D01*
X126008Y107214D01*
X126002Y107107D01*
X126000Y107000D01*
X126000Y104000D02*
X126002Y103893D01*
X126008Y103786D01*
X126017Y103679D01*
X126031Y103573D01*
X126048Y103467D01*
X126069Y103362D01*
X126093Y103258D01*
X126122Y103155D01*
X126154Y103053D01*
X126189Y102952D01*
X126228Y102852D01*
X126271Y102754D01*
X126317Y102657D01*
X126367Y102562D01*
X126420Y102469D01*
X126476Y102378D01*
X126536Y102289D01*
X126598Y102202D01*
X126664Y102118D01*
X126733Y102035D01*
X126804Y101956D01*
X126879Y101879D01*
X126956Y101804D01*
X127035Y101733D01*
X127118Y101664D01*
X127202Y101598D01*
X127289Y101536D01*
X127378Y101476D01*
X127469Y101420D01*
X127562Y101367D01*
X127657Y101317D01*
X127754Y101271D01*
X127852Y101228D01*
X127952Y101189D01*
X128053Y101154D01*
X128155Y101122D01*
X128258Y101093D01*
X128362Y101069D01*
X128467Y101048D01*
X128573Y101031D01*
X128679Y101017D01*
X128786Y101008D01*
X128893Y101002D01*
X129000Y101000D01*
X295000Y101000D02*
X295159Y101014D01*
X295318Y101033D01*
X295477Y101055D01*
X295635Y101081D01*
X295792Y101110D01*
X295948Y101144D01*
X296104Y101181D01*
X296258Y101223D01*
X296412Y101268D01*
X296564Y101316D01*
X296715Y101369D01*
X296865Y101425D01*
X297014Y101485D01*
X297160Y101549D01*
X297306Y101616D01*
X297449Y101686D01*
X297591Y101760D01*
X297731Y101838D01*
X297869Y101919D01*
X298005Y102003D01*
X298139Y102091D01*
X298270Y102182D01*
X298400Y102276D01*
X298527Y102373D01*
X298651Y102474D01*
X298774Y102577D01*
X298893Y102684D01*
X299010Y102793D01*
X299124Y102905D01*
X299235Y103020D01*
X299344Y103137D01*
X299450Y103257D01*
X299552Y103380D01*
X299652Y103505D01*
X299748Y103633D01*
X299842Y103763D01*
X299932Y103895D01*
X300019Y104030D01*
X300102Y104166D01*
X300182Y104305D01*
X300259Y104445D01*
X300332Y104587D01*
X300402Y104731D01*
X300468Y104877D01*
X300531Y105024D01*
X300590Y105173D01*
X300645Y105323D01*
X300696Y105475D01*
X300744Y105627D01*
X300788Y105781D01*
X300829Y105936D01*
X300865Y106092D01*
X300898Y106248D01*
X300926Y106406D01*
X300951Y106564D01*
X300972Y106722D01*
X300990Y106881D01*
X301003Y107041D01*
X301012Y107201D01*
X301018Y107360D01*
X301019Y107520D01*
X301017Y107680D01*
X301010Y107840D01*
X301000Y108000D01*
X301000Y128000D02*
X301021Y128153D01*
X301039Y128306D01*
X301053Y128459D01*
X301063Y128613D01*
X301069Y128767D01*
X301071Y128921D01*
X301069Y129074D01*
X301064Y129228D01*
X301054Y129382D01*
X301041Y129535D01*
X301023Y129688D01*
X301002Y129841D01*
X300977Y129993D01*
X300948Y130144D01*
X300915Y130294D01*
X300879Y130444D01*
X300839Y130592D01*
X300795Y130740D01*
X300747Y130886D01*
X300695Y131031D01*
X300640Y131175D01*
X300581Y131317D01*
X300519Y131458D01*
X300453Y131597D01*
X300384Y131735D01*
X300311Y131870D01*
X300235Y132004D01*
X300155Y132136D01*
X300072Y132265D01*
X299986Y132393D01*
X299896Y132518D01*
X299804Y132641D01*
X299708Y132762D01*
X299609Y132880D01*
X299508Y132996D01*
X299403Y133109D01*
X299296Y133219D01*
X299186Y133326D01*
X299073Y133431D01*
X298957Y133533D01*
X298839Y133632D01*
X298719Y133728D01*
X298596Y133820D01*
X298471Y133910D01*
X298343Y133996D01*
X298214Y134080D01*
X298082Y134159D01*
X297949Y134236D01*
X297813Y134309D01*
X297676Y134378D01*
X297537Y134445D01*
X297396Y134507D01*
X297254Y134566D01*
X297110Y134621D01*
X296965Y134673D01*
X296819Y134721D01*
X296672Y134765D01*
X296523Y134806D01*
X296374Y134843D01*
X296223Y134876D01*
X296072Y134905D01*
X295920Y134930D01*
X295768Y134951D01*
X295615Y134969D01*
X295461Y134982D01*
X295308Y134992D01*
X295154Y134998D01*
X295000Y135000D01*
X102000Y-52000D02*
X45500Y-52000D01*
X32500Y-39000D01*
X102000Y-52000D02*
X129000Y-25000D01*
X514000Y-31000D02*
X514000Y-34000D01*
X508000Y-40000D02*
X186000Y-40000D01*
X184000Y-42000D01*
X184000Y-55000D01*
X186000Y-57000D01*
X508000Y-24999D02*
X508148Y-24990D01*
X508296Y-24985D01*
X508445Y-24983D01*
X508593Y-24985D01*
X508741Y-24992D01*
X508889Y-25002D01*
X509036Y-25016D01*
X509184Y-25034D01*
X509330Y-25056D01*
X509476Y-25082D01*
X509621Y-25112D01*
X509766Y-25145D01*
X509909Y-25183D01*
X510052Y-25224D01*
X510193Y-25269D01*
X510333Y-25317D01*
X510472Y-25370D01*
X510609Y-25426D01*
X510745Y-25485D01*
X510879Y-25549D01*
X511011Y-25615D01*
X511142Y-25686D01*
X511270Y-25759D01*
X511397Y-25836D01*
X511521Y-25917D01*
X511644Y-26000D01*
X511764Y-26087D01*
X511882Y-26177D01*
X511997Y-26270D01*
X512110Y-26367D01*
X512220Y-26466D01*
X512328Y-26568D01*
X512432Y-26672D01*
X512534Y-26780D01*
X512633Y-26890D01*
X512730Y-27003D01*
X512823Y-27118D01*
X512913Y-27236D01*
X513000Y-27356D01*
X513083Y-27479D01*
X513164Y-27603D01*
X513241Y-27730D01*
X513314Y-27858D01*
X513385Y-27989D01*
X513451Y-28121D01*
X513515Y-28255D01*
X513574Y-28391D01*
X513630Y-28528D01*
X513683Y-28667D01*
X513731Y-28807D01*
X513776Y-28948D01*
X513817Y-29091D01*
X513855Y-29234D01*
X513888Y-29379D01*
X513918Y-29524D01*
X513944Y-29670D01*
X513966Y-29816D01*
X513984Y-29964D01*
X513998Y-30111D01*
X514008Y-30259D01*
X514015Y-30407D01*
X514017Y-30555D01*
X514015Y-30704D01*
X514010Y-30852D01*
X514001Y-31000D01*
X514001Y-34000D02*
X514010Y-34148D01*
X514015Y-34296D01*
X514017Y-34445D01*
X514015Y-34593D01*
X514008Y-34741D01*
X513998Y-34889D01*
X513984Y-35036D01*
X513966Y-35184D01*
X513944Y-35330D01*
X513918Y-35476D01*
X513888Y-35621D01*
X513855Y-35766D01*
X513817Y-35909D01*
X513776Y-36052D01*
X513731Y-36193D01*
X513683Y-36333D01*
X513630Y-36472D01*
X513574Y-36609D01*
X513515Y-36745D01*
X513451Y-36879D01*
X513385Y-37011D01*
X513314Y-37142D01*
X513241Y-37270D01*
X513164Y-37397D01*
X513083Y-37521D01*
X513000Y-37644D01*
X512913Y-37764D01*
X512823Y-37882D01*
X512730Y-37997D01*
X512633Y-38110D01*
X512534Y-38220D01*
X512432Y-38328D01*
X512328Y-38432D01*
X512220Y-38534D01*
X512110Y-38633D01*
X511997Y-38730D01*
X511882Y-38823D01*
X511764Y-38913D01*
X511644Y-39000D01*
X511521Y-39083D01*
X511397Y-39164D01*
X511270Y-39241D01*
X511142Y-39314D01*
X511011Y-39385D01*
X510879Y-39451D01*
X510745Y-39515D01*
X510609Y-39574D01*
X510472Y-39630D01*
X510333Y-39683D01*
X510193Y-39731D01*
X510052Y-39776D01*
X509909Y-39817D01*
X509766Y-39855D01*
X509621Y-39888D01*
X509476Y-39918D01*
X509330Y-39944D01*
X509184Y-39966D01*
X509036Y-39984D01*
X508889Y-39998D01*
X508741Y-40008D01*
X508593Y-40015D01*
X508445Y-40017D01*
X508296Y-40015D01*
X508148Y-40010D01*
X508000Y-40001D01*
X508000Y-25000D02*
X129000Y-25000D01*
X7000Y-85000D02*
X5000Y-83000D01*
X5000Y-71000D01*
X7000Y-69000D01*
X72000Y-69000D01*
X81000Y-60000D01*
X108000Y-60000D01*
X117000Y-51000D01*
X152000Y-51000D01*
X163000Y-62000D01*
X178000Y-62000D01*
X391000Y-56999D02*
X391148Y-56990D01*
X391296Y-56985D01*
X391445Y-56983D01*
X391593Y-56985D01*
X391741Y-56992D01*
X391889Y-57002D01*
X392036Y-57016D01*
X392184Y-57034D01*
X392330Y-57056D01*
X392476Y-57082D01*
X392621Y-57112D01*
X392766Y-57145D01*
X392909Y-57183D01*
X393052Y-57224D01*
X393193Y-57269D01*
X393333Y-57317D01*
X393472Y-57370D01*
X393609Y-57426D01*
X393745Y-57485D01*
X393879Y-57549D01*
X394011Y-57615D01*
X394142Y-57686D01*
X394270Y-57759D01*
X394397Y-57836D01*
X394521Y-57917D01*
X394644Y-58000D01*
X394764Y-58087D01*
X394882Y-58177D01*
X394997Y-58270D01*
X395110Y-58367D01*
X395220Y-58466D01*
X395328Y-58568D01*
X395432Y-58672D01*
X395534Y-58780D01*
X395633Y-58890D01*
X395730Y-59003D01*
X395823Y-59118D01*
X395913Y-59236D01*
X396000Y-59356D01*
X396083Y-59479D01*
X396164Y-59603D01*
X396241Y-59730D01*
X396314Y-59858D01*
X396385Y-59989D01*
X396451Y-60121D01*
X396515Y-60255D01*
X396574Y-60391D01*
X396630Y-60528D01*
X396683Y-60667D01*
X396731Y-60807D01*
X396776Y-60948D01*
X396817Y-61091D01*
X396855Y-61234D01*
X396888Y-61379D01*
X396918Y-61524D01*
X396944Y-61670D01*
X396966Y-61816D01*
X396984Y-61964D01*
X396998Y-62111D01*
X397008Y-62259D01*
X397015Y-62407D01*
X397017Y-62555D01*
X397015Y-62704D01*
X397010Y-62852D01*
X397001Y-63000D01*
X397000Y-63000D02*
X397000Y-66000D01*
X397001Y-66000D02*
X397010Y-66148D01*
X397015Y-66296D01*
X397017Y-66445D01*
X397015Y-66593D01*
X397008Y-66741D01*
X396998Y-66889D01*
X396984Y-67036D01*
X396966Y-67184D01*
X396944Y-67330D01*
X396918Y-67476D01*
X396888Y-67621D01*
X396855Y-67766D01*
X396817Y-67909D01*
X396776Y-68052D01*
X396731Y-68193D01*
X396683Y-68333D01*
X396630Y-68472D01*
X396574Y-68609D01*
X396515Y-68745D01*
X396451Y-68879D01*
X396385Y-69011D01*
X396314Y-69142D01*
X396241Y-69270D01*
X396164Y-69397D01*
X396083Y-69521D01*
X396000Y-69644D01*
X395913Y-69764D01*
X395823Y-69882D01*
X395730Y-69997D01*
X395633Y-70110D01*
X395534Y-70220D01*
X395432Y-70328D01*
X395328Y-70432D01*
X395220Y-70534D01*
X395110Y-70633D01*
X394997Y-70730D01*
X394882Y-70823D01*
X394764Y-70913D01*
X394644Y-71000D01*
X394521Y-71083D01*
X394397Y-71164D01*
X394270Y-71241D01*
X394142Y-71314D01*
X394011Y-71385D01*
X393879Y-71451D01*
X393745Y-71515D01*
X393609Y-71574D01*
X393472Y-71630D01*
X393333Y-71683D01*
X393193Y-71731D01*
X393052Y-71776D01*
X392909Y-71817D01*
X392766Y-71855D01*
X392621Y-71888D01*
X392476Y-71918D01*
X392330Y-71944D01*
X392184Y-71966D01*
X392036Y-71984D01*
X391889Y-71998D01*
X391741Y-72008D01*
X391593Y-72015D01*
X391445Y-72017D01*
X391296Y-72015D01*
X391148Y-72010D01*
X391000Y-72001D01*
X391000Y-72000D02*
X188000Y-72000D01*
X178000Y-62000D01*
X186000Y-57000D02*
X391000Y-57000D01*
X72000Y-85000D02*
X7000Y-85000D01*
X72000Y-85000D02*
X86000Y-99000D01*
X543500Y-99000D01*
X595000Y-47500D01*
X1187000Y-47500D02*
X1200500Y-61000D01*
X1236500Y-61000D01*
X1251000Y-46500D01*
X1295000Y-46500D01*
X1187000Y-47500D02*
X595000Y-47500D01*
X1187000Y107500D02*
X1200500Y121000D01*
X1236500Y121000D01*
X1251000Y106500D01*
D11*
X2000Y91000D03*
X2000Y84500D03*
X2000Y78000D03*
X2000Y65000D03*
X2000Y58500D03*
X2000Y52000D03*
X2000Y45500D03*
X2000Y32500D03*
X2000Y26000D03*
X2000Y19500D03*
X2000Y6500D03*
X2000Y0D03*
X2000Y-6500D03*
X2000Y-19500D03*
X2000Y-26000D03*
X2000Y-32500D03*
X2000Y110500D03*
D12*
X157500Y-74000D03*
X174500Y-74000D03*
X283500Y-48000D03*
X300500Y-48000D03*
D13*
X120500Y-60100D03*
X130000Y-60100D03*
X139500Y-60100D03*
X139500Y-86000D03*
X120500Y-86000D03*
D14*
X103500Y-73000D03*
X86500Y-73000D03*
D15*
X193500Y-48000D03*
X15500Y-77000D03*
X262500Y118000D03*
X181000Y143000D03*
D16*
X197000Y-89000D03*
D17*
X6500Y0D03*
X6500Y65000D03*
X6500Y32500D03*
X6500Y6500D03*
X6500Y-19500D03*
X0Y-19500D03*
D18*
X19500Y-19500D03*
D19*
X19500Y6000D01*
D18*
X19500Y65000D03*
X19500Y32500D03*
D20*
X19500Y6500D03*
D19*
X19500Y6000D02*
X19500Y24500D01*
X19500Y31000D01*
X19500Y37500D01*
X19500Y65000D01*
D17*
X0Y110500D03*
X6500Y110500D03*
D18*
X19500Y110500D03*
D19*
X19500Y65000D01*
D17*
X0Y65000D03*
X0Y32500D03*
X0Y6500D03*
D18*
X45500Y31000D03*
D21*
X26000Y31000D01*
X19500Y31000D01*
X26000Y31000D02*
X19500Y37500D01*
X26000Y31000D02*
X19500Y24500D01*
D18*
X19500Y103000D03*
X19500Y72000D03*
X19500Y39500D03*
X19500Y-12500D03*
X44500Y-5000D03*
D22*
X1246500Y12500D03*
X1237500Y12500D03*
X1227500Y12500D03*
X1246500Y85500D03*
X1237500Y85500D03*
X1227500Y85500D03*
X1246500Y55500D03*
X1237500Y55500D03*
X1227500Y55500D03*
X1246500Y2500D03*
X1237500Y2500D03*
X1227500Y2500D03*
X1246500Y-7500D03*
X1237500Y-7500D03*
X1227500Y-7500D03*
X1246500Y-22500D03*
X1237500Y-22500D03*
X1227500Y-22500D03*
X1246500Y-32500D03*
X1237500Y-32500D03*
X1227500Y-32500D03*
D23*
X155500Y-63500D02*
X150500Y-58500D01*
D21*
X145000Y-58500D01*
X141100Y-58500D01*
X139500Y-60100D01*
X141000Y-62500D02*
X145000Y-58500D01*
X141000Y-62500D02*
X140000Y-62500D01*
D22*
X221500Y-83500D03*
X230500Y-83500D03*
X239500Y-83500D03*
D23*
X230500Y-83500D02*
X221500Y-83500D01*
X230500Y-83500D02*
X239500Y-83500D01*
D24*
X1242412Y-32500D02*
X1246500Y-32500D01*
X1246500Y-32500D01*
X1237500Y-32500D01*
X1237500Y-32500D01*
X1242412Y-32500D01*
X1241588Y-7500D02*
X1246500Y-7500D01*
X1246500Y-7500D01*
X1237500Y-7500D01*
X1237500Y-7500D01*
X1241588Y-7500D01*
X1242412Y55500D02*
X1246500Y55500D01*
X1246500Y55500D01*
X1237500Y55500D01*
X1237500Y55500D01*
X1242412Y55500D01*
X1242412Y85500D02*
X1246500Y85500D01*
X1246500Y85500D01*
X1237500Y85500D01*
X1237500Y85500D01*
X1242412Y85500D01*
X19613Y-18262D02*
X19613Y-19387D01*
X19387Y-19387D01*
X19387Y-12613D01*
X19613Y-12613D01*
X19613Y-18262D01*
X19387Y104738D02*
X19387Y110387D01*
X19613Y110387D01*
X19613Y103113D01*
X19387Y103113D01*
X19387Y104738D01*
X1242412Y12500D02*
X1246500Y12500D01*
X1246500Y12500D01*
X1237500Y12500D01*
X1237500Y12500D01*
X1242412Y12500D01*
X1242412Y2500D02*
X1246500Y2500D01*
X1246500Y2500D01*
X1237500Y2500D01*
X1237500Y2500D01*
X1242412Y2500D01*
X1242412Y-22500D02*
X1246500Y-22500D01*
X1246500Y-22500D01*
X1237500Y-22500D01*
X1237500Y-22500D01*
X1242412Y-22500D01*
X571786Y-36810D02*
X571786Y-41190D01*
X571786Y-36810D02*
X568690Y-33714D01*
X564310Y-33714D01*
X561214Y-36810D01*
X561214Y-39257D01*
X550233Y-50238D01*
X491237Y-50238D01*
X491286Y-50190D01*
X491286Y-45810D01*
X488237Y-42762D01*
X507894Y-42762D01*
X510249Y-42943D01*
X510249Y-42943D01*
X514585Y-40585D01*
X514585Y-40585D01*
X516943Y-36249D01*
X516762Y-33894D01*
X516762Y-31106D01*
X516943Y-28751D01*
X516943Y-28751D01*
X514585Y-24415D01*
X514585Y-24415D01*
X514585Y-24415D01*
X510249Y-22057D01*
X510249Y-22057D01*
X507894Y-22238D01*
X127856Y-22238D01*
X100856Y-49238D01*
X46644Y-49238D01*
X33644Y-36238D01*
X12762Y-36238D01*
X12762Y123238D01*
X115045Y123238D01*
X111516Y121200D01*
X111516Y121200D01*
X109158Y118842D01*
X109158Y118842D01*
X108856Y118540D01*
X108855Y118540D01*
X108209Y117893D01*
X107996Y117680D01*
X107693Y117378D01*
X104834Y114518D01*
X104834Y114518D01*
X101738Y107045D01*
X101738Y100005D01*
X103288Y94220D01*
X103288Y94220D01*
X106283Y89033D01*
X106283Y89033D01*
X108401Y86915D01*
X109310Y86006D01*
X109548Y85767D01*
X109563Y85753D01*
X110472Y84844D01*
X113366Y81950D01*
X113366Y81950D01*
X120455Y77857D01*
X120455Y77857D01*
X128363Y75738D01*
X961515Y75738D01*
X963110Y75633D01*
X966192Y74808D01*
X968956Y73212D01*
X970158Y72158D01*
X970718Y71597D01*
X970797Y71519D01*
X971320Y70996D01*
X973852Y68464D01*
X981528Y64032D01*
X981528Y64032D01*
X990089Y61738D01*
X1228643Y61738D01*
X1231680Y62996D01*
X1234004Y65320D01*
X1234193Y65776D01*
X1234245Y65827D01*
X1235366Y68535D01*
X1235366Y71465D01*
X1234245Y74173D01*
X1234193Y74224D01*
X1234004Y74680D01*
X1231680Y77004D01*
X1228643Y78262D01*
X1218762Y78262D01*
X1218762Y88738D01*
X1221643Y88738D01*
X1224680Y89996D01*
X1225922Y91238D01*
X1253238Y91238D01*
X1253238Y-43738D01*
X1249856Y-43738D01*
X1248238Y-45356D01*
X1248238Y-45356D01*
X1235356Y-58238D01*
X1201644Y-58238D01*
X1188144Y-44738D01*
X593856Y-44738D01*
X588356Y-50238D01*
X560291Y-50238D01*
X566243Y-44286D01*
X568690Y-44286D01*
X571786Y-41190D01*
X89613Y-1887D02*
X89613Y3762D01*
X89613Y-1887D02*
X89387Y-1887D01*
X89387Y3762D01*
X88741Y3762D01*
X87276Y3369D01*
X85962Y2611D01*
X84889Y1538D01*
X84131Y224D01*
X83738Y-1241D01*
X83738Y-1887D01*
X89387Y-1887D01*
X89387Y-2113D01*
X83738Y-2113D01*
X83738Y-2759D01*
X84131Y-4224D01*
X84889Y-5538D01*
X85962Y-6611D01*
X87276Y-7369D01*
X88741Y-7762D01*
X89387Y-7762D01*
X89387Y-2113D01*
X89613Y-2113D01*
X89613Y-7762D01*
X90259Y-7762D01*
X91724Y-7369D01*
X93038Y-6611D01*
X94111Y-5538D01*
X94869Y-4224D01*
X95262Y-2759D01*
X95262Y-2113D01*
X89613Y-2113D01*
X89613Y-1887D01*
X95262Y-1887D01*
X95262Y-1241D01*
X94869Y224D01*
X94111Y1538D01*
X93038Y2611D01*
X91724Y3369D01*
X90259Y3762D01*
X89613Y3762D01*
X533113Y-26738D02*
X533113Y-32387D01*
X532887Y-32387D01*
X532887Y-26738D01*
X532241Y-26738D01*
X530776Y-27131D01*
X529462Y-27889D01*
X528389Y-28962D01*
X527631Y-30276D01*
X527238Y-31741D01*
X527238Y-32387D01*
X532887Y-32387D01*
X532887Y-32613D01*
X527238Y-32613D01*
X527238Y-33259D01*
X527631Y-34724D01*
X528389Y-36038D01*
X529462Y-37111D01*
X530776Y-37869D01*
X532241Y-38262D01*
X532887Y-38262D01*
X532887Y-32613D01*
X533113Y-32613D01*
X533113Y-38262D01*
X533759Y-38262D01*
X535224Y-37869D01*
X536538Y-37111D01*
X537611Y-36038D01*
X538369Y-34724D01*
X538762Y-33259D01*
X538762Y-32613D01*
X533113Y-32613D01*
X533113Y-32387D01*
X538762Y-32387D01*
X538762Y-31741D01*
X538369Y-30276D01*
X537611Y-28962D01*
X536538Y-27889D01*
X535224Y-27131D01*
X533759Y-26738D01*
X533113Y-26738D01*
X127113Y14113D02*
X127113Y19762D01*
X127113Y14113D02*
X126887Y14113D01*
X126887Y19762D01*
X126241Y19762D01*
X124776Y19369D01*
X123462Y18611D01*
X122389Y17538D01*
X121631Y16224D01*
X121238Y14759D01*
X121238Y14113D01*
X126887Y14113D01*
X126887Y13887D01*
X121238Y13887D01*
X121238Y13241D01*
X121631Y11776D01*
X122389Y10462D01*
X123462Y9389D01*
X124776Y8631D01*
X126241Y8238D01*
X126887Y8238D01*
X126887Y13887D01*
X127113Y13887D01*
X127113Y8238D01*
X127759Y8238D01*
X129224Y8631D01*
X130538Y9389D01*
X131611Y10462D01*
X132369Y11776D01*
X132762Y13241D01*
X132762Y13887D01*
X127113Y13887D01*
X127113Y14113D01*
X132762Y14113D01*
X132762Y14759D01*
X132369Y16224D01*
X131611Y17538D01*
X130538Y18611D01*
X129224Y19369D01*
X127759Y19762D01*
X127113Y19762D01*
X551613Y-26738D02*
X551613Y-32387D01*
X551387Y-32387D01*
X551387Y-26738D01*
X550741Y-26738D01*
X549276Y-27131D01*
X547962Y-27889D01*
X546889Y-28962D01*
X546131Y-30276D01*
X545738Y-31741D01*
X545738Y-32387D01*
X551387Y-32387D01*
X551387Y-32613D01*
X545738Y-32613D01*
X545738Y-33259D01*
X546131Y-34724D01*
X546889Y-36038D01*
X547962Y-37111D01*
X549276Y-37869D01*
X550741Y-38262D01*
X551387Y-38262D01*
X551387Y-32613D01*
X551613Y-32613D01*
X551613Y-38262D01*
X552259Y-38262D01*
X553724Y-37869D01*
X555038Y-37111D01*
X556111Y-36038D01*
X556869Y-34724D01*
X557262Y-33259D01*
X557262Y-32613D01*
X551613Y-32613D01*
X551613Y-32387D01*
X557262Y-32387D01*
X557262Y-31741D01*
X556869Y-30276D01*
X556111Y-28962D01*
X555038Y-27889D01*
X553724Y-27131D01*
X552259Y-26738D01*
X551613Y-26738D01*
X110613Y-17887D02*
X110613Y-12238D01*
X110613Y-17887D02*
X110387Y-17887D01*
X110387Y-12238D01*
X109741Y-12238D01*
X108276Y-12631D01*
X106962Y-13389D01*
X105889Y-14462D01*
X105131Y-15776D01*
X104738Y-17241D01*
X104738Y-17887D01*
X110387Y-17887D01*
X110387Y-18113D01*
X104738Y-18113D01*
X104738Y-18238D01*
X104613Y-18238D01*
X104613Y-23887D01*
X104387Y-23887D01*
X104387Y-18238D01*
X103741Y-18238D01*
X102276Y-18631D01*
X100962Y-19389D01*
X99889Y-20462D01*
X99131Y-21776D01*
X98738Y-23241D01*
X98738Y-23887D01*
X104387Y-23887D01*
X104387Y-24113D01*
X98738Y-24113D01*
X98738Y-24759D01*
X99131Y-26224D01*
X99889Y-27538D01*
X100962Y-28611D01*
X102276Y-29369D01*
X103741Y-29762D01*
X104387Y-29762D01*
X104387Y-24113D01*
X104613Y-24113D01*
X104613Y-29762D01*
X105259Y-29762D01*
X106724Y-29369D01*
X108038Y-28611D01*
X109111Y-27538D01*
X109869Y-26224D01*
X110262Y-24759D01*
X110262Y-24113D01*
X104613Y-24113D01*
X104613Y-23887D01*
X110262Y-23887D01*
X110262Y-23762D01*
X110387Y-23762D01*
X110387Y-18113D01*
X110613Y-18113D01*
X110613Y-23762D01*
X111259Y-23762D01*
X112724Y-23369D01*
X114038Y-22611D01*
X115111Y-21538D01*
X115869Y-20224D01*
X116262Y-18759D01*
X116262Y-18113D01*
X110613Y-18113D01*
X110613Y-17887D01*
X116262Y-17887D01*
X116262Y-17241D01*
X115869Y-15776D01*
X115111Y-14462D01*
X114038Y-13389D01*
X112724Y-12631D01*
X111259Y-12238D01*
X110613Y-12238D01*
X1227500Y-27588D02*
X1227500Y-32500D01*
X1227500Y-32500D01*
X1227500Y-27588D01*
X1226853Y-27588D01*
X1225604Y-27923D01*
X1224484Y-28569D01*
X1223569Y-29484D01*
X1222923Y-30604D01*
X1222588Y-31853D01*
X1222588Y-32500D01*
X1227500Y-32500D01*
X1227500Y-32500D01*
X1222588Y-32500D01*
X1222588Y-33147D01*
X1222923Y-34396D01*
X1223569Y-35516D01*
X1224484Y-36431D01*
X1225604Y-37077D01*
X1226853Y-37412D01*
X1227500Y-37412D01*
X1227500Y-32500D01*
X1227500Y-32500D01*
X1227500Y-37412D01*
X1228147Y-37412D01*
X1229396Y-37077D01*
X1230516Y-36431D01*
X1231431Y-35516D01*
X1232077Y-34396D01*
X1232412Y-33147D01*
X1232412Y-32500D01*
X1227500Y-32500D01*
X1227500Y-32500D01*
X1232412Y-32500D01*
X1232412Y-31853D01*
X1232077Y-30604D01*
X1231431Y-29484D01*
X1230516Y-28569D01*
X1229396Y-27923D01*
X1228147Y-27588D01*
X1227500Y-27588D01*
X1232588Y-22500D02*
X1232588Y-21853D01*
X1232588Y-22500D02*
X1237500Y-22500D01*
X1237500Y-22500D01*
X1232588Y-22500D01*
X1232588Y-23147D01*
X1232923Y-24396D01*
X1233569Y-25516D01*
X1234484Y-26431D01*
X1235604Y-27077D01*
X1236853Y-27412D01*
X1237500Y-27412D01*
X1237500Y-22500D01*
X1237500Y-22500D01*
X1237500Y-27412D01*
X1238147Y-27412D01*
X1239396Y-27077D01*
X1240516Y-26431D01*
X1241431Y-25516D01*
X1242000Y-24530D01*
X1242569Y-25516D01*
X1243484Y-26431D01*
X1244604Y-27077D01*
X1245853Y-27412D01*
X1246500Y-27412D01*
X1246500Y-22500D01*
X1246500Y-22500D01*
X1246500Y-27412D01*
X1247147Y-27412D01*
X1248396Y-27077D01*
X1249516Y-26431D01*
X1250431Y-25516D01*
X1251077Y-24396D01*
X1251412Y-23147D01*
X1251412Y-22500D01*
X1246500Y-22500D01*
X1246500Y-22500D01*
X1251412Y-22500D01*
X1251412Y-21853D01*
X1251077Y-20604D01*
X1250431Y-19484D01*
X1249516Y-18569D01*
X1248396Y-17923D01*
X1247147Y-17588D01*
X1246500Y-17588D01*
X1246500Y-22500D01*
X1246500Y-22500D01*
X1246500Y-17588D01*
X1245853Y-17588D01*
X1244604Y-17923D01*
X1243484Y-18569D01*
X1242569Y-19484D01*
X1242000Y-20470D01*
X1241431Y-19484D01*
X1240516Y-18569D01*
X1239396Y-17923D01*
X1238147Y-17588D01*
X1237500Y-17588D01*
X1237500Y-22500D01*
X1237500Y-22500D01*
X1237500Y-17588D01*
X1236853Y-17588D01*
X1235604Y-17923D01*
X1234484Y-18569D01*
X1233569Y-19484D01*
X1232923Y-20604D01*
X1232588Y-21853D01*
X1227500Y-7500D02*
X1227500Y-2588D01*
X1227500Y-7500D02*
X1227500Y-7500D01*
X1227500Y-2588D01*
X1226853Y-2588D01*
X1225604Y-2923D01*
X1224484Y-3569D01*
X1223569Y-4484D01*
X1222923Y-5604D01*
X1222588Y-6853D01*
X1222588Y-7500D01*
X1227500Y-7500D01*
X1227500Y-7500D01*
X1222588Y-7500D01*
X1222588Y-8147D01*
X1222923Y-9396D01*
X1223569Y-10516D01*
X1224484Y-11431D01*
X1225604Y-12077D01*
X1226853Y-12412D01*
X1227500Y-12412D01*
X1227500Y-7500D01*
X1227500Y-7500D01*
X1227500Y-12412D01*
X1228147Y-12412D01*
X1229396Y-12077D01*
X1230516Y-11431D01*
X1231431Y-10516D01*
X1232077Y-9396D01*
X1232412Y-8147D01*
X1232412Y-7500D01*
X1227500Y-7500D01*
X1227500Y-7500D01*
X1232412Y-7500D01*
X1232412Y-6853D01*
X1232077Y-5604D01*
X1231431Y-4484D01*
X1230516Y-3569D01*
X1229396Y-2923D01*
X1228147Y-2588D01*
X1227500Y-2588D01*
X1232588Y2500D02*
X1232588Y3147D01*
X1232588Y2500D02*
X1237500Y2500D01*
X1237500Y2500D01*
X1232588Y2500D01*
X1232588Y1853D01*
X1232923Y604D01*
X1233569Y-516D01*
X1234484Y-1431D01*
X1235604Y-2077D01*
X1236853Y-2412D01*
X1237500Y-2412D01*
X1237500Y2500D01*
X1237500Y2500D01*
X1237500Y-2412D01*
X1238147Y-2412D01*
X1239396Y-2077D01*
X1240516Y-1431D01*
X1241431Y-516D01*
X1242000Y470D01*
X1242569Y-516D01*
X1243484Y-1431D01*
X1244604Y-2077D01*
X1245853Y-2412D01*
X1246500Y-2412D01*
X1246500Y2500D01*
X1246500Y2500D01*
X1246500Y-2412D01*
X1247147Y-2412D01*
X1248396Y-2077D01*
X1249516Y-1431D01*
X1250431Y-516D01*
X1251077Y604D01*
X1251412Y1853D01*
X1251412Y2500D01*
X1246500Y2500D01*
X1246500Y2500D01*
X1251412Y2500D01*
X1251412Y3147D01*
X1251077Y4396D01*
X1250431Y5516D01*
X1249516Y6431D01*
X1248396Y7077D01*
X1247147Y7412D01*
X1246500Y7412D01*
X1246500Y2500D01*
X1246500Y2500D01*
X1246500Y7412D01*
X1245853Y7412D01*
X1244604Y7077D01*
X1243484Y6431D01*
X1242569Y5516D01*
X1242000Y4530D01*
X1241431Y5516D01*
X1240516Y6431D01*
X1239396Y7077D01*
X1238147Y7412D01*
X1237500Y7412D01*
X1237500Y2500D01*
X1237500Y2500D01*
X1237500Y7412D01*
X1236853Y7412D01*
X1235604Y7077D01*
X1234484Y6431D01*
X1233569Y5516D01*
X1232923Y4396D01*
X1232588Y3147D01*
X1227500Y55500D02*
X1227500Y60412D01*
X1227500Y55500D02*
X1227500Y55500D01*
X1227500Y60412D01*
X1226853Y60412D01*
X1225604Y60077D01*
X1224484Y59431D01*
X1223569Y58516D01*
X1222923Y57396D01*
X1222588Y56147D01*
X1222588Y55500D01*
X1227500Y55500D01*
X1227500Y55500D01*
X1222588Y55500D01*
X1222588Y54853D01*
X1222923Y53604D01*
X1223569Y52484D01*
X1224484Y51569D01*
X1225604Y50923D01*
X1226853Y50588D01*
X1227500Y50588D01*
X1227500Y55500D01*
X1227500Y55500D01*
X1227500Y50588D01*
X1228147Y50588D01*
X1229396Y50923D01*
X1230516Y51569D01*
X1231431Y52484D01*
X1232077Y53604D01*
X1232412Y54853D01*
X1232412Y55500D01*
X1227500Y55500D01*
X1227500Y55500D01*
X1232412Y55500D01*
X1232412Y56147D01*
X1232077Y57396D01*
X1231431Y58516D01*
X1230516Y59431D01*
X1229396Y60077D01*
X1228147Y60412D01*
X1227500Y60412D01*
X1232588Y13147D02*
X1232588Y12500D01*
X1237500Y12500D01*
X1237500Y12500D01*
X1232588Y12500D01*
X1232588Y11853D01*
X1232923Y10604D01*
X1233569Y9484D01*
X1234484Y8569D01*
X1235604Y7923D01*
X1236853Y7588D01*
X1237500Y7588D01*
X1237500Y12500D01*
X1237500Y12500D01*
X1237500Y7588D01*
X1238147Y7588D01*
X1239396Y7923D01*
X1240516Y8569D01*
X1241431Y9484D01*
X1242000Y10470D01*
X1242569Y9484D01*
X1243484Y8569D01*
X1244604Y7923D01*
X1245853Y7588D01*
X1246500Y7588D01*
X1246500Y12500D01*
X1246500Y12500D01*
X1246500Y7588D01*
X1247147Y7588D01*
X1248396Y7923D01*
X1249516Y8569D01*
X1250431Y9484D01*
X1251077Y10604D01*
X1251412Y11853D01*
X1251412Y12500D01*
X1246500Y12500D01*
X1246500Y12500D01*
X1251412Y12500D01*
X1251412Y13147D01*
X1251077Y14396D01*
X1250431Y15516D01*
X1249516Y16431D01*
X1248396Y17077D01*
X1247147Y17412D01*
X1246500Y17412D01*
X1246500Y12500D01*
X1246500Y12500D01*
X1246500Y17412D01*
X1245853Y17412D01*
X1244604Y17077D01*
X1243484Y16431D01*
X1242569Y15516D01*
X1242000Y14530D01*
X1241431Y15516D01*
X1240516Y16431D01*
X1239396Y17077D01*
X1238147Y17412D01*
X1237500Y17412D01*
X1237500Y12500D01*
X1237500Y12500D01*
X1237500Y17412D01*
X1236853Y17412D01*
X1235604Y17077D01*
X1234484Y16431D01*
X1233569Y15516D01*
X1232923Y14396D01*
X1232588Y13147D01*
X44613Y762D02*
X44613Y-4887D01*
X44387Y-4887D01*
X44387Y762D01*
X43741Y762D01*
X42276Y369D01*
X40962Y-389D01*
X39889Y-1462D01*
X39131Y-2776D01*
X38738Y-4241D01*
X38738Y-4887D01*
X44387Y-4887D01*
X44387Y-5113D01*
X38738Y-5113D01*
X38738Y-5759D01*
X39131Y-7224D01*
X39889Y-8538D01*
X40962Y-9611D01*
X42276Y-10369D01*
X43741Y-10762D01*
X44387Y-10762D01*
X44387Y-5113D01*
X44613Y-5113D01*
X44613Y-10762D01*
X45259Y-10762D01*
X46724Y-10369D01*
X48038Y-9611D01*
X49111Y-8538D01*
X49869Y-7224D01*
X50262Y-5759D01*
X50262Y-5113D01*
X44613Y-5113D01*
X44613Y-4887D01*
X50262Y-4887D01*
X50262Y-4241D01*
X49869Y-2776D01*
X49111Y-1462D01*
X48038Y-389D01*
X46724Y369D01*
X45259Y762D01*
X44613Y762D01*
X19613Y39613D02*
X19613Y45262D01*
X19613Y39613D02*
X19387Y39613D01*
X19387Y45262D01*
X18741Y45262D01*
X17276Y44869D01*
X15962Y44111D01*
X14889Y43038D01*
X14131Y41724D01*
X13738Y40259D01*
X13738Y39613D01*
X19387Y39613D01*
X19387Y39387D01*
X13738Y39387D01*
X13738Y38741D01*
X14131Y37276D01*
X14867Y36000D01*
X14131Y34724D01*
X13738Y33259D01*
X13738Y32613D01*
X19387Y32613D01*
X19387Y32387D01*
X13738Y32387D01*
X13738Y31741D01*
X14131Y30276D01*
X14889Y28962D01*
X15962Y27889D01*
X17276Y27131D01*
X18741Y26738D01*
X19387Y26738D01*
X19387Y32387D01*
X19613Y32387D01*
X19613Y26738D01*
X20259Y26738D01*
X21724Y27131D01*
X23038Y27889D01*
X24111Y28962D01*
X24869Y30276D01*
X25262Y31741D01*
X25262Y32387D01*
X19613Y32387D01*
X19613Y32613D01*
X25262Y32613D01*
X25262Y33259D01*
X24869Y34724D01*
X24133Y36000D01*
X24869Y37276D01*
X25262Y38741D01*
X25262Y39387D01*
X19613Y39387D01*
X19613Y39613D01*
X25262Y39613D01*
X25262Y40259D01*
X24869Y41724D01*
X24111Y43038D01*
X23038Y44111D01*
X21724Y44869D01*
X20259Y45262D01*
X19613Y45262D01*
X19387Y97238D02*
X18741Y97238D01*
X19387Y97238D02*
X19387Y102887D01*
X19613Y102887D01*
X19613Y97238D01*
X20259Y97238D01*
X21724Y97631D01*
X23038Y98389D01*
X24111Y99462D01*
X24869Y100776D01*
X25262Y102241D01*
X25262Y102887D01*
X19613Y102887D01*
X19613Y103113D01*
X25262Y103113D01*
X25262Y103759D01*
X24869Y105224D01*
X24111Y106538D01*
X23899Y106750D01*
X24111Y106962D01*
X24869Y108276D01*
X25262Y109741D01*
X25262Y110387D01*
X19613Y110387D01*
X19613Y110613D01*
X25262Y110613D01*
X25262Y111259D01*
X24869Y112724D01*
X24111Y114038D01*
X23038Y115111D01*
X21724Y115869D01*
X20259Y116262D01*
X19613Y116262D01*
X19613Y110613D01*
X19387Y110613D01*
X19387Y116262D01*
X18741Y116262D01*
X17276Y115869D01*
X15962Y115111D01*
X14889Y114038D01*
X14131Y112724D01*
X13738Y111259D01*
X13738Y110613D01*
X19387Y110613D01*
X19387Y110387D01*
X13738Y110387D01*
X13738Y109741D01*
X14131Y108276D01*
X14889Y106962D01*
X15101Y106750D01*
X14889Y106538D01*
X14131Y105224D01*
X13738Y103759D01*
X13738Y103113D01*
X19387Y103113D01*
X19387Y102887D01*
X13738Y102887D01*
X13738Y102241D01*
X14131Y100776D01*
X14889Y99462D01*
X15962Y98389D01*
X17276Y97631D01*
X18741Y97238D01*
X19613Y11537D02*
X19613Y6613D01*
X19387Y6613D01*
X19387Y11537D01*
X18837Y11537D01*
X17556Y11194D01*
X16407Y10531D01*
X15469Y9593D01*
X14806Y8444D01*
X14463Y7163D01*
X14463Y6613D01*
X19387Y6613D01*
X19387Y6387D01*
X14463Y6387D01*
X14463Y5837D01*
X14806Y4556D01*
X15469Y3407D01*
X16407Y2469D01*
X17556Y1806D01*
X18837Y1463D01*
X19387Y1463D01*
X19387Y6387D01*
X19613Y6387D01*
X19613Y1463D01*
X20163Y1463D01*
X21444Y1806D01*
X22593Y2469D01*
X23531Y3407D01*
X24194Y4556D01*
X24537Y5837D01*
X24537Y6387D01*
X19613Y6387D01*
X19613Y6613D01*
X24537Y6613D01*
X24537Y7163D01*
X24194Y8444D01*
X23531Y9593D01*
X22593Y10531D01*
X21444Y11194D01*
X20163Y11537D01*
X19613Y11537D01*
X45613Y31113D02*
X45613Y36762D01*
X45613Y31113D02*
X45387Y31113D01*
X45387Y36762D01*
X44741Y36762D01*
X43276Y36369D01*
X41962Y35611D01*
X40889Y34538D01*
X40131Y33224D01*
X39738Y31759D01*
X39738Y31113D01*
X45387Y31113D01*
X45387Y30887D01*
X39738Y30887D01*
X39738Y30241D01*
X40131Y28776D01*
X40889Y27462D01*
X41962Y26389D01*
X43276Y25631D01*
X44741Y25238D01*
X45387Y25238D01*
X45387Y30887D01*
X45613Y30887D01*
X45613Y25238D01*
X46259Y25238D01*
X47724Y25631D01*
X49038Y26389D01*
X50111Y27462D01*
X50869Y28776D01*
X51262Y30241D01*
X51262Y30887D01*
X45613Y30887D01*
X45613Y31113D01*
X51262Y31113D01*
X51262Y31759D01*
X50869Y33224D01*
X50111Y34538D01*
X49038Y35611D01*
X47724Y36369D01*
X46259Y36762D01*
X45613Y36762D01*
X19613Y72113D02*
X19613Y77762D01*
X19613Y72113D02*
X19387Y72113D01*
X19387Y77762D01*
X18741Y77762D01*
X17276Y77369D01*
X15962Y76611D01*
X14889Y75538D01*
X14131Y74224D01*
X13738Y72759D01*
X13738Y72113D01*
X19387Y72113D01*
X19387Y71887D01*
X13738Y71887D01*
X13738Y71241D01*
X14131Y69776D01*
X14867Y68500D01*
X14131Y67224D01*
X13738Y65759D01*
X13738Y65113D01*
X19387Y65113D01*
X19387Y64887D01*
X13738Y64887D01*
X13738Y64241D01*
X14131Y62776D01*
X14889Y61462D01*
X15962Y60389D01*
X17276Y59631D01*
X18741Y59238D01*
X19387Y59238D01*
X19387Y64887D01*
X19613Y64887D01*
X19613Y59238D01*
X20259Y59238D01*
X21724Y59631D01*
X23038Y60389D01*
X24111Y61462D01*
X24869Y62776D01*
X25262Y64241D01*
X25262Y64887D01*
X19613Y64887D01*
X19613Y65113D01*
X25262Y65113D01*
X25262Y65759D01*
X24869Y67224D01*
X24133Y68500D01*
X24869Y69776D01*
X25262Y71241D01*
X25262Y71887D01*
X19613Y71887D01*
X19613Y72113D01*
X25262Y72113D01*
X25262Y72759D01*
X24869Y74224D01*
X24111Y75538D01*
X23038Y76611D01*
X21724Y77369D01*
X20259Y77762D01*
X19613Y77762D01*
X19613Y-6738D02*
X19613Y-12387D01*
X19387Y-12387D01*
X19387Y-6738D01*
X18741Y-6738D01*
X17276Y-7131D01*
X15962Y-7889D01*
X14889Y-8962D01*
X14131Y-10276D01*
X13738Y-11741D01*
X13738Y-12387D01*
X19387Y-12387D01*
X19387Y-12613D01*
X13738Y-12613D01*
X13738Y-13259D01*
X14131Y-14724D01*
X14867Y-16000D01*
X14131Y-17276D01*
X13738Y-18741D01*
X13738Y-19387D01*
X19387Y-19387D01*
X19387Y-19613D01*
X13738Y-19613D01*
X13738Y-20259D01*
X14131Y-21724D01*
X14889Y-23038D01*
X15962Y-24111D01*
X17276Y-24869D01*
X18741Y-25262D01*
X19387Y-25262D01*
X19387Y-19613D01*
X19613Y-19613D01*
X19613Y-25262D01*
X20259Y-25262D01*
X21724Y-24869D01*
X23038Y-24111D01*
X24111Y-23038D01*
X24869Y-21724D01*
X25262Y-20259D01*
X25262Y-19613D01*
X19613Y-19613D01*
X19613Y-19387D01*
X25262Y-19387D01*
X25262Y-18741D01*
X24869Y-17276D01*
X24133Y-16000D01*
X24869Y-14724D01*
X25262Y-13259D01*
X25262Y-12613D01*
X19613Y-12613D01*
X19613Y-12387D01*
X25262Y-12387D01*
X25262Y-11741D01*
X24869Y-10276D01*
X24111Y-8962D01*
X23038Y-7889D01*
X21724Y-7131D01*
X20259Y-6738D01*
X19613Y-6738D01*
X1227500Y12500D02*
X1227500Y17412D01*
X1227500Y12500D02*
X1227500Y12500D01*
X1227500Y17412D01*
X1226853Y17412D01*
X1225604Y17077D01*
X1224484Y16431D01*
X1223569Y15516D01*
X1222923Y14396D01*
X1222588Y13147D01*
X1222588Y12500D01*
X1227500Y12500D01*
X1227500Y12500D01*
X1222588Y12500D01*
X1222588Y11853D01*
X1222923Y10604D01*
X1223569Y9484D01*
X1224484Y8569D01*
X1225604Y7923D01*
X1226853Y7588D01*
X1227500Y7588D01*
X1227500Y12500D01*
X1227500Y12500D01*
X1227500Y7588D01*
X1228147Y7588D01*
X1229396Y7923D01*
X1230516Y8569D01*
X1231431Y9484D01*
X1232077Y10604D01*
X1232412Y11853D01*
X1232412Y12500D01*
X1227500Y12500D01*
X1227500Y12500D01*
X1232412Y12500D01*
X1232412Y13147D01*
X1232077Y14396D01*
X1231431Y15516D01*
X1230516Y16431D01*
X1229396Y17077D01*
X1228147Y17412D01*
X1227500Y17412D01*
X1232588Y85500D02*
X1232588Y86147D01*
X1232588Y85500D02*
X1237500Y85500D01*
X1237500Y85500D01*
X1232588Y85500D01*
X1232588Y84853D01*
X1232923Y83604D01*
X1233569Y82484D01*
X1234484Y81569D01*
X1235604Y80923D01*
X1236853Y80588D01*
X1237500Y80588D01*
X1237500Y85500D01*
X1237500Y85500D01*
X1237500Y80588D01*
X1238147Y80588D01*
X1239396Y80923D01*
X1240516Y81569D01*
X1241431Y82484D01*
X1242000Y83470D01*
X1242569Y82484D01*
X1243484Y81569D01*
X1244604Y80923D01*
X1245853Y80588D01*
X1246500Y80588D01*
X1246500Y85500D01*
X1246500Y85500D01*
X1246500Y80588D01*
X1247147Y80588D01*
X1248396Y80923D01*
X1249516Y81569D01*
X1250431Y82484D01*
X1251077Y83604D01*
X1251412Y84853D01*
X1251412Y85500D01*
X1246500Y85500D01*
X1246500Y85500D01*
X1251412Y85500D01*
X1251412Y86147D01*
X1251077Y87396D01*
X1250431Y88516D01*
X1249516Y89431D01*
X1248396Y90077D01*
X1247147Y90412D01*
X1246500Y90412D01*
X1246500Y85500D01*
X1246500Y85500D01*
X1246500Y90412D01*
X1245853Y90412D01*
X1244604Y90077D01*
X1243484Y89431D01*
X1242569Y88516D01*
X1242000Y87530D01*
X1241431Y88516D01*
X1240516Y89431D01*
X1239396Y90077D01*
X1238147Y90412D01*
X1237500Y90412D01*
X1237500Y85500D01*
X1237500Y85500D01*
X1237500Y90412D01*
X1236853Y90412D01*
X1235604Y90077D01*
X1234484Y89431D01*
X1233569Y88516D01*
X1232923Y87396D01*
X1232588Y86147D01*
X1227500Y85500D02*
X1227500Y90412D01*
X1227500Y85500D02*
X1227500Y85500D01*
X1227500Y90412D01*
X1226853Y90412D01*
X1225604Y90077D01*
X1224484Y89431D01*
X1223569Y88516D01*
X1222923Y87396D01*
X1222588Y86147D01*
X1222588Y85500D01*
X1227500Y85500D01*
X1227500Y85500D01*
X1222588Y85500D01*
X1222588Y84853D01*
X1222923Y83604D01*
X1223569Y82484D01*
X1224484Y81569D01*
X1225604Y80923D01*
X1226853Y80588D01*
X1227500Y80588D01*
X1227500Y85500D01*
X1227500Y85500D01*
X1227500Y80588D01*
X1228147Y80588D01*
X1229396Y80923D01*
X1230516Y81569D01*
X1231431Y82484D01*
X1232077Y83604D01*
X1232412Y84853D01*
X1232412Y85500D01*
X1227500Y85500D01*
X1227500Y85500D01*
X1232412Y85500D01*
X1232412Y86147D01*
X1232077Y87396D01*
X1231431Y88516D01*
X1230516Y89431D01*
X1229396Y90077D01*
X1228147Y90412D01*
X1227500Y90412D01*
X1232588Y56147D02*
X1232588Y55500D01*
X1237500Y55500D01*
X1237500Y55500D01*
X1232588Y55500D01*
X1232588Y54853D01*
X1232923Y53604D01*
X1233569Y52484D01*
X1234484Y51569D01*
X1235604Y50923D01*
X1236853Y50588D01*
X1237500Y50588D01*
X1237500Y55500D01*
X1237500Y55500D01*
X1237500Y50588D01*
X1238147Y50588D01*
X1239396Y50923D01*
X1240516Y51569D01*
X1241431Y52484D01*
X1242000Y53470D01*
X1242569Y52484D01*
X1243484Y51569D01*
X1244604Y50923D01*
X1245853Y50588D01*
X1246500Y50588D01*
X1246500Y55500D01*
X1246500Y55500D01*
X1246500Y50588D01*
X1247147Y50588D01*
X1248396Y50923D01*
X1249516Y51569D01*
X1250431Y52484D01*
X1251077Y53604D01*
X1251412Y54853D01*
X1251412Y55500D01*
X1246500Y55500D01*
X1246500Y55500D01*
X1251412Y55500D01*
X1251412Y56147D01*
X1251077Y57396D01*
X1250431Y58516D01*
X1249516Y59431D01*
X1248396Y60077D01*
X1247147Y60412D01*
X1246500Y60412D01*
X1246500Y55500D01*
X1246500Y55500D01*
X1246500Y60412D01*
X1245853Y60412D01*
X1244604Y60077D01*
X1243484Y59431D01*
X1242569Y58516D01*
X1242000Y57530D01*
X1241431Y58516D01*
X1240516Y59431D01*
X1239396Y60077D01*
X1238147Y60412D01*
X1237500Y60412D01*
X1237500Y55500D01*
X1237500Y55500D01*
X1237500Y60412D01*
X1236853Y60412D01*
X1235604Y60077D01*
X1234484Y59431D01*
X1233569Y58516D01*
X1232923Y57396D01*
X1232588Y56147D01*
X1227500Y7412D02*
X1227500Y2500D01*
X1227500Y2500D01*
X1227500Y7412D01*
X1226853Y7412D01*
X1225604Y7077D01*
X1224484Y6431D01*
X1223569Y5516D01*
X1222923Y4396D01*
X1222588Y3147D01*
X1222588Y2500D01*
X1227500Y2500D01*
X1227500Y2500D01*
X1222588Y2500D01*
X1222588Y1853D01*
X1222923Y604D01*
X1223569Y-516D01*
X1224484Y-1431D01*
X1225604Y-2077D01*
X1226853Y-2412D01*
X1227500Y-2412D01*
X1227500Y2500D01*
X1227500Y2500D01*
X1227500Y-2412D01*
X1228147Y-2412D01*
X1229396Y-2077D01*
X1230516Y-1431D01*
X1231431Y-516D01*
X1232077Y604D01*
X1232412Y1853D01*
X1232412Y2500D01*
X1227500Y2500D01*
X1227500Y2500D01*
X1232412Y2500D01*
X1232412Y3147D01*
X1232077Y4396D01*
X1231431Y5516D01*
X1230516Y6431D01*
X1229396Y7077D01*
X1228147Y7412D01*
X1227500Y7412D01*
X1232588Y-6853D02*
X1232588Y-7500D01*
X1237500Y-7500D01*
X1237500Y-7500D01*
X1232588Y-7500D01*
X1232588Y-8147D01*
X1232923Y-9396D01*
X1233569Y-10516D01*
X1234484Y-11431D01*
X1235604Y-12077D01*
X1236853Y-12412D01*
X1237500Y-12412D01*
X1237500Y-7500D01*
X1237500Y-7500D01*
X1237500Y-12412D01*
X1238147Y-12412D01*
X1239396Y-12077D01*
X1240516Y-11431D01*
X1241431Y-10516D01*
X1242000Y-9530D01*
X1242569Y-10516D01*
X1243484Y-11431D01*
X1244604Y-12077D01*
X1245853Y-12412D01*
X1246500Y-12412D01*
X1246500Y-7500D01*
X1246500Y-7500D01*
X1246500Y-12412D01*
X1247147Y-12412D01*
X1248396Y-12077D01*
X1249516Y-11431D01*
X1250431Y-10516D01*
X1251077Y-9396D01*
X1251412Y-8147D01*
X1251412Y-7500D01*
X1246500Y-7500D01*
X1246500Y-7500D01*
X1251412Y-7500D01*
X1251412Y-6853D01*
X1251077Y-5604D01*
X1250431Y-4484D01*
X1249516Y-3569D01*
X1248396Y-2923D01*
X1247147Y-2588D01*
X1246500Y-2588D01*
X1246500Y-7500D01*
X1246500Y-7500D01*
X1246500Y-2588D01*
X1245853Y-2588D01*
X1244604Y-2923D01*
X1243484Y-3569D01*
X1242569Y-4484D01*
X1242000Y-5470D01*
X1241431Y-4484D01*
X1240516Y-3569D01*
X1239396Y-2923D01*
X1238147Y-2588D01*
X1237500Y-2588D01*
X1237500Y-7500D01*
X1237500Y-7500D01*
X1237500Y-2588D01*
X1236853Y-2588D01*
X1235604Y-2923D01*
X1234484Y-3569D01*
X1233569Y-4484D01*
X1232923Y-5604D01*
X1232588Y-6853D01*
X1227500Y-17588D02*
X1227500Y-22500D01*
X1227500Y-22500D01*
X1227500Y-17588D01*
X1226853Y-17588D01*
X1225604Y-17923D01*
X1224484Y-18569D01*
X1223569Y-19484D01*
X1222923Y-20604D01*
X1222588Y-21853D01*
X1222588Y-22500D01*
X1227500Y-22500D01*
X1227500Y-22500D01*
X1222588Y-22500D01*
X1222588Y-23147D01*
X1222923Y-24396D01*
X1223569Y-25516D01*
X1224484Y-26431D01*
X1225604Y-27077D01*
X1226853Y-27412D01*
X1227500Y-27412D01*
X1227500Y-22500D01*
X1227500Y-22500D01*
X1227500Y-27412D01*
X1228147Y-27412D01*
X1229396Y-27077D01*
X1230516Y-26431D01*
X1231431Y-25516D01*
X1232077Y-24396D01*
X1232412Y-23147D01*
X1232412Y-22500D01*
X1227500Y-22500D01*
X1227500Y-22500D01*
X1232412Y-22500D01*
X1232412Y-21853D01*
X1232077Y-20604D01*
X1231431Y-19484D01*
X1230516Y-18569D01*
X1229396Y-17923D01*
X1228147Y-17588D01*
X1227500Y-17588D01*
X1232588Y-31853D02*
X1232588Y-32500D01*
X1237500Y-32500D01*
X1237500Y-32500D01*
X1232588Y-32500D01*
X1232588Y-33147D01*
X1232923Y-34396D01*
X1233569Y-35516D01*
X1234484Y-36431D01*
X1235604Y-37077D01*
X1236853Y-37412D01*
X1237500Y-37412D01*
X1237500Y-32500D01*
X1237500Y-32500D01*
X1237500Y-37412D01*
X1238147Y-37412D01*
X1239396Y-37077D01*
X1240516Y-36431D01*
X1241431Y-35516D01*
X1242000Y-34530D01*
X1242569Y-35516D01*
X1243484Y-36431D01*
X1244604Y-37077D01*
X1245853Y-37412D01*
X1246500Y-37412D01*
X1246500Y-32500D01*
X1246500Y-32500D01*
X1246500Y-37412D01*
X1247147Y-37412D01*
X1248396Y-37077D01*
X1249516Y-36431D01*
X1250431Y-35516D01*
X1251077Y-34396D01*
X1251412Y-33147D01*
X1251412Y-32500D01*
X1246500Y-32500D01*
X1246500Y-32500D01*
X1251412Y-32500D01*
X1251412Y-31853D01*
X1251077Y-30604D01*
X1250431Y-29484D01*
X1249516Y-28569D01*
X1248396Y-27923D01*
X1247147Y-27588D01*
X1246500Y-27588D01*
X1246500Y-32500D01*
X1246500Y-32500D01*
X1246500Y-27588D01*
X1245853Y-27588D01*
X1244604Y-27923D01*
X1243484Y-28569D01*
X1242569Y-29484D01*
X1242000Y-30470D01*
X1241431Y-29484D01*
X1240516Y-28569D01*
X1239396Y-27923D01*
X1238147Y-27588D01*
X1237500Y-27588D01*
X1237500Y-32500D01*
X1237500Y-32500D01*
X1237500Y-27588D01*
X1236853Y-27588D01*
X1235604Y-27923D01*
X1234484Y-28569D01*
X1233569Y-29484D01*
X1232923Y-30604D01*
X1232588Y-31853D01*
X83613Y-27887D02*
X83613Y-22238D01*
X83613Y-27887D02*
X83387Y-27887D01*
X83387Y-22238D01*
X82741Y-22238D01*
X81276Y-22631D01*
X79962Y-23389D01*
X78889Y-24462D01*
X78131Y-25776D01*
X77738Y-27241D01*
X77738Y-27887D01*
X83387Y-27887D01*
X83387Y-28113D01*
X77738Y-28113D01*
X77738Y-28759D01*
X78131Y-30224D01*
X78889Y-31538D01*
X79962Y-32611D01*
X81276Y-33369D01*
X82741Y-33762D01*
X83387Y-33762D01*
X83387Y-28113D01*
X83613Y-28113D01*
X83613Y-33762D01*
X84259Y-33762D01*
X85724Y-33369D01*
X87038Y-32611D01*
X88111Y-31538D01*
X88869Y-30224D01*
X89262Y-28759D01*
X89262Y-28113D01*
X83613Y-28113D01*
X83613Y-27887D01*
X89262Y-27887D01*
X89262Y-27241D01*
X88869Y-25776D01*
X88111Y-24462D01*
X87038Y-23389D01*
X85724Y-22631D01*
X84259Y-22238D01*
X83613Y-22238D01*
X100113Y14113D02*
X100113Y19762D01*
X100113Y14113D02*
X99887Y14113D01*
X99887Y19762D01*
X99241Y19762D01*
X97776Y19369D01*
X96462Y18611D01*
X95389Y17538D01*
X94631Y16224D01*
X94238Y14759D01*
X94238Y14113D01*
X99887Y14113D01*
X99887Y13887D01*
X94238Y13887D01*
X94238Y13241D01*
X94631Y11776D01*
X95389Y10462D01*
X96462Y9389D01*
X97776Y8631D01*
X99241Y8238D01*
X99887Y8238D01*
X99887Y13887D01*
X100113Y13887D01*
X100113Y8238D01*
X100759Y8238D01*
X102224Y8631D01*
X103538Y9389D01*
X104611Y10462D01*
X105369Y11776D01*
X105762Y13241D01*
X105762Y13887D01*
X100113Y13887D01*
X100113Y14113D01*
X105762Y14113D01*
X105762Y14759D01*
X105369Y16224D01*
X104611Y17538D01*
X103538Y18611D01*
X102224Y19369D01*
X100759Y19762D01*
X100113Y19762D01*
X116113Y72613D02*
X116113Y78262D01*
X116113Y72613D02*
X115887Y72613D01*
X115887Y78262D01*
X115241Y78262D01*
X113776Y77869D01*
X112462Y77111D01*
X111389Y76038D01*
X110631Y74724D01*
X110238Y73259D01*
X110238Y72613D01*
X115887Y72613D01*
X115887Y72387D01*
X110238Y72387D01*
X110238Y71741D01*
X110631Y70276D01*
X111389Y68962D01*
X112462Y67889D01*
X113776Y67131D01*
X115241Y66738D01*
X115887Y66738D01*
X115887Y72387D01*
X116113Y72387D01*
X116113Y66738D01*
X116759Y66738D01*
X118224Y67131D01*
X119538Y67889D01*
X120611Y68962D01*
X121369Y70276D01*
X121762Y71741D01*
X121762Y72387D01*
X116113Y72387D01*
X116113Y72613D01*
X121762Y72613D01*
X121762Y73259D01*
X121369Y74724D01*
X120611Y76038D01*
X119538Y77111D01*
X118224Y77869D01*
X116759Y78262D01*
X116113Y78262D01*
X64613Y36762D02*
X64613Y31113D01*
X64387Y31113D01*
X64387Y36762D01*
X63741Y36762D01*
X62276Y36369D01*
X60962Y35611D01*
X59889Y34538D01*
X59131Y33224D01*
X58738Y31759D01*
X58738Y31113D01*
X64387Y31113D01*
X64387Y30887D01*
X58738Y30887D01*
X58738Y30241D01*
X59131Y28776D01*
X59889Y27462D01*
X60962Y26389D01*
X62276Y25631D01*
X63741Y25238D01*
X64387Y25238D01*
X64387Y30887D01*
X64613Y30887D01*
X64613Y25238D01*
X65259Y25238D01*
X66724Y25631D01*
X68038Y26389D01*
X69111Y27462D01*
X69869Y28776D01*
X70262Y30241D01*
X70262Y30887D01*
X64613Y30887D01*
X64613Y31113D01*
X70262Y31113D01*
X70262Y31759D01*
X69869Y33224D01*
X69111Y34538D01*
X68038Y35611D01*
X66724Y36369D01*
X65259Y36762D01*
X64613Y36762D01*
X1200302Y-56896D02*
X1236698Y-56896D01*
X101326Y-48768D02*
X46174Y-48768D01*
X491286Y-48768D02*
X551703Y-48768D01*
X561761Y-48768D02*
X589826Y-48768D01*
X1192174Y-48768D02*
X1244826Y-48768D01*
X109454Y-40640D02*
X38046Y-40640D01*
X514485Y-40640D02*
X559831Y-40640D01*
X571786Y-40640D02*
X1253238Y-40640D01*
X79863Y-32512D02*
X12762Y-32512D01*
X83387Y-32512D02*
X83613Y-32512D01*
X87137Y-32512D02*
X117582Y-32512D01*
X516762Y-32512D02*
X532887Y-32512D01*
X533113Y-32512D02*
X551387Y-32512D01*
X551613Y-32512D02*
X1222588Y-32512D01*
X1227500Y-32512D02*
X1227500Y-32512D01*
X1232412Y-32512D02*
X1232588Y-32512D01*
X1237500Y-32512D02*
X1237500Y-32512D01*
X1246500Y-32512D02*
X1246500Y-32512D01*
X1251412Y-32512D02*
X1253238Y-32512D01*
X16435Y-24384D02*
X12762Y-24384D01*
X19387Y-24384D02*
X19613Y-24384D01*
X22565Y-24384D02*
X78967Y-24384D01*
X83387Y-24384D02*
X83613Y-24384D01*
X88033Y-24384D02*
X98738Y-24384D01*
X104387Y-24384D02*
X104613Y-24384D01*
X110262Y-24384D02*
X125710Y-24384D01*
X514529Y-24384D02*
X1222920Y-24384D01*
X1227500Y-24384D02*
X1227500Y-24384D01*
X1232080Y-24384D02*
X1232920Y-24384D01*
X1237500Y-24384D02*
X1237500Y-24384D01*
X1246500Y-24384D02*
X1246500Y-24384D01*
X1251080Y-24384D02*
X1253238Y-24384D01*
X14720Y-16256D02*
X12762Y-16256D01*
X19387Y-16256D02*
X19613Y-16256D01*
X24280Y-16256D02*
X105002Y-16256D01*
X110387Y-16256D02*
X110613Y-16256D01*
X115998Y-16256D02*
X1253238Y-16256D01*
X15723Y-8128D02*
X12762Y-8128D01*
X19387Y-8128D02*
X19613Y-8128D01*
X23277Y-8128D02*
X39653Y-8128D01*
X44387Y-8128D02*
X44613Y-8128D01*
X49347Y-8128D02*
X1222588Y-8128D01*
X1227500Y-8128D02*
X1227500Y-8128D01*
X1232412Y-8128D02*
X1232588Y-8128D01*
X1237500Y-8128D02*
X1237500Y-8128D01*
X1246500Y-8128D02*
X1246500Y-8128D01*
X1251412Y-8128D02*
X1253238Y-8128D01*
X41636Y0D02*
X12762Y0D01*
X44387Y0D02*
X44613Y0D01*
X47364Y0D02*
X84071Y0D01*
X89387Y0D02*
X89613Y0D01*
X94929Y0D02*
X1223271Y0D01*
X1227500Y0D02*
X1227500Y0D01*
X1231728Y0D02*
X1233271Y0D01*
X1237500Y0D02*
X1237500Y0D01*
X1241728Y0D02*
X1242271Y0D01*
X1246500Y0D02*
X1246500Y0D01*
X1250728Y0D02*
X1253238Y0D01*
X14722Y8128D02*
X12762Y8128D01*
X19387Y8128D02*
X19613Y8128D01*
X24278Y8128D02*
X1225249Y8128D01*
X1227500Y8128D02*
X1227500Y8128D01*
X1229751Y8128D02*
X1235249Y8128D01*
X1237500Y8128D02*
X1237500Y8128D01*
X1239751Y8128D02*
X1244249Y8128D01*
X1246500Y8128D02*
X1246500Y8128D01*
X1248751Y8128D02*
X1253238Y8128D01*
X94649Y16256D02*
X12762Y16256D01*
X99887Y16256D02*
X100113Y16256D01*
X105351Y16256D02*
X121649Y16256D01*
X126887Y16256D02*
X127113Y16256D01*
X132351Y16256D02*
X1224309Y16256D01*
X1227500Y16256D02*
X1227500Y16256D01*
X1230691Y16256D02*
X1234309Y16256D01*
X1237500Y16256D02*
X1237500Y16256D01*
X1240691Y16256D02*
X1243309Y16256D01*
X1246500Y16256D02*
X1246500Y16256D01*
X1249691Y16256D02*
X1253238Y16256D01*
X1253238Y24384D02*
X12762Y24384D01*
X12762Y32512D02*
X19387Y32512D01*
X19613Y32512D02*
X39940Y32512D01*
X45387Y32512D02*
X45613Y32512D01*
X51060Y32512D02*
X58940Y32512D01*
X64387Y32512D02*
X64613Y32512D01*
X70060Y32512D02*
X1253238Y32512D01*
X13840Y40640D02*
X12762Y40640D01*
X19387Y40640D02*
X19613Y40640D01*
X25160Y40640D02*
X1253238Y40640D01*
X1253238Y48768D02*
X12762Y48768D01*
X12762Y56896D02*
X1222789Y56896D01*
X1227500Y56896D02*
X1227500Y56896D01*
X1232211Y56896D02*
X1232789Y56896D01*
X1237500Y56896D02*
X1237500Y56896D01*
X1246500Y56896D02*
X1246500Y56896D01*
X1251211Y56896D02*
X1253238Y56896D01*
X19387Y65024D02*
X12762Y65024D01*
X19613Y65024D02*
X979810Y65024D01*
X1233708Y65024D02*
X1253238Y65024D01*
X13843Y73152D02*
X12762Y73152D01*
X19387Y73152D02*
X19613Y73152D01*
X25157Y73152D02*
X110238Y73152D01*
X115887Y73152D02*
X116113Y73152D01*
X121762Y73152D02*
X969024Y73152D01*
X1234667Y73152D02*
X1253238Y73152D01*
X114526Y81280D02*
X12762Y81280D01*
X1218762Y81280D02*
X1224985Y81280D01*
X1227500Y81280D02*
X1227500Y81280D01*
X1230015Y81280D02*
X1234985Y81280D01*
X1237500Y81280D02*
X1237500Y81280D01*
X1240015Y81280D02*
X1243985Y81280D01*
X1246500Y81280D02*
X1246500Y81280D01*
X1249015Y81280D02*
X1253238Y81280D01*
X106066Y89408D02*
X12762Y89408D01*
X1223261Y89408D02*
X1224461Y89408D01*
X1227500Y89408D02*
X1227500Y89408D01*
X1230539Y89408D02*
X1234461Y89408D01*
X1237500Y89408D02*
X1237500Y89408D01*
X1240539Y89408D02*
X1243461Y89408D01*
X1246500Y89408D02*
X1246500Y89408D01*
X1249539Y89408D02*
X1253238Y89408D01*
X17629Y97536D02*
X12762Y97536D01*
X19387Y97536D02*
X19613Y97536D01*
X21371Y97536D02*
X102400Y97536D01*
X14385Y105664D02*
X12762Y105664D01*
X19387Y105664D02*
X19613Y105664D01*
X24615Y105664D02*
X101738Y105664D01*
X14747Y113792D02*
X12762Y113792D01*
X19387Y113792D02*
X19613Y113792D01*
X24253Y113792D02*
X104533Y113792D01*
X112763Y121920D02*
X12762Y121920D01*
X16256Y-24280D02*
X16256Y-36238D01*
X16256Y-19613D02*
X16256Y-19387D01*
X16256Y-12613D02*
X16256Y-12387D01*
X16256Y-7720D02*
X16256Y2621D01*
X16256Y6387D02*
X16256Y6613D01*
X16256Y10379D02*
X16256Y27720D01*
X16256Y32387D02*
X16256Y32613D01*
X16256Y39387D02*
X16256Y39613D01*
X16256Y44280D02*
X16256Y60220D01*
X16256Y64887D02*
X16256Y65113D01*
X16256Y71887D02*
X16256Y72113D01*
X16256Y76780D02*
X16256Y98220D01*
X16256Y102887D02*
X16256Y103113D01*
X16256Y110387D02*
X16256Y110613D01*
X16256Y115280D02*
X16256Y123238D01*
X24384Y-22565D02*
X24384Y-36238D01*
X24384Y-19613D02*
X24384Y-19387D01*
X24384Y-16435D02*
X24384Y-15565D01*
X24384Y-12613D02*
X24384Y-12387D01*
X24384Y-9435D02*
X24384Y5266D01*
X24384Y6387D02*
X24384Y6613D01*
X24384Y7734D02*
X24384Y29435D01*
X24384Y32387D02*
X24384Y32613D01*
X24384Y35565D02*
X24384Y36435D01*
X24384Y39387D02*
X24384Y39613D01*
X24384Y42565D02*
X24384Y61935D01*
X24384Y64887D02*
X24384Y65113D01*
X24384Y68065D02*
X24384Y68935D01*
X24384Y71887D02*
X24384Y72113D01*
X24384Y75065D02*
X24384Y99935D01*
X24384Y102887D02*
X24384Y103113D01*
X24384Y106065D02*
X24384Y107435D01*
X24384Y110387D02*
X24384Y110613D01*
X24384Y113565D02*
X24384Y123238D01*
X32512Y123238D02*
X32512Y-36238D01*
X40640Y-43234D02*
X40640Y-9289D01*
X40640Y-5113D02*
X40640Y-4887D01*
X40640Y-711D02*
X40640Y27894D01*
X40640Y30887D02*
X40640Y31113D01*
X40640Y34106D02*
X40640Y123238D01*
X48768Y-8881D02*
X48768Y-49238D01*
X48768Y-5113D02*
X48768Y-4887D01*
X48768Y-1119D02*
X48768Y26233D01*
X48768Y30887D02*
X48768Y31113D01*
X48768Y35767D02*
X48768Y123238D01*
X56896Y123238D02*
X56896Y-49238D01*
X65024Y-49238D02*
X65024Y25238D01*
X65024Y30887D02*
X65024Y31113D01*
X65024Y36762D02*
X65024Y123238D01*
X73152Y123238D02*
X73152Y-49238D01*
X81280Y-49238D02*
X81280Y-33370D01*
X81280Y-28113D02*
X81280Y-27887D01*
X81280Y-22630D02*
X81280Y123238D01*
X89408Y-2113D02*
X89408Y-49238D01*
X89408Y-1887D02*
X89408Y123238D01*
X97536Y8769D02*
X97536Y-49238D01*
X97536Y13887D02*
X97536Y14113D01*
X97536Y19231D02*
X97536Y123238D01*
X105664Y-29653D02*
X105664Y-44430D01*
X105664Y-24113D02*
X105664Y-23887D01*
X105664Y-18113D02*
X105664Y-17887D01*
X105664Y-14852D02*
X105664Y12876D01*
X105664Y13887D02*
X105664Y14113D01*
X105664Y15124D02*
X105664Y90105D01*
X105664Y115348D02*
X105664Y123238D01*
X113792Y-22753D02*
X113792Y-36302D01*
X113792Y-18113D02*
X113792Y-17887D01*
X113792Y-13247D02*
X113792Y67126D01*
X113792Y72387D02*
X113792Y72613D01*
X113792Y77874D02*
X113792Y81704D01*
X113792Y122514D02*
X113792Y123238D01*
X121920Y11275D02*
X121920Y-28174D01*
X121920Y13887D02*
X121920Y14113D01*
X121920Y16725D02*
X121920Y77464D01*
X130048Y9106D02*
X130048Y-22238D01*
X130048Y13887D02*
X130048Y14113D01*
X130048Y18894D02*
X130048Y75738D01*
X138176Y75738D02*
X138176Y-22238D01*
X146304Y-22238D02*
X146304Y75738D01*
X154432Y75738D02*
X154432Y-22238D01*
X162560Y-22238D02*
X162560Y75738D01*
X170688Y75738D02*
X170688Y-22238D01*
X178816Y-22238D02*
X178816Y75738D01*
X186944Y75738D02*
X186944Y-22238D01*
X195072Y-22238D02*
X195072Y75738D01*
X203200Y75738D02*
X203200Y-22238D01*
X211328Y-22238D02*
X211328Y75738D01*
X219456Y75738D02*
X219456Y-22238D01*
X227584Y-22238D02*
X227584Y75738D01*
X235712Y75738D02*
X235712Y-22238D01*
X243840Y-22238D02*
X243840Y75738D01*
X251968Y75738D02*
X251968Y-22238D01*
X260096Y-22238D02*
X260096Y75738D01*
X268224Y75738D02*
X268224Y-22238D01*
X276352Y-22238D02*
X276352Y75738D01*
X284480Y75738D02*
X284480Y-22238D01*
X292608Y-22238D02*
X292608Y75738D01*
X300736Y75738D02*
X300736Y-22238D01*
X308864Y-22238D02*
X308864Y75738D01*
X316992Y75738D02*
X316992Y-22238D01*
X325120Y-22238D02*
X325120Y75738D01*
X333248Y75738D02*
X333248Y-22238D01*
X341376Y-22238D02*
X341376Y75738D01*
X349504Y75738D02*
X349504Y-22238D01*
X357632Y-22238D02*
X357632Y75738D01*
X365760Y75738D02*
X365760Y-22238D01*
X373888Y-22238D02*
X373888Y75738D01*
X382016Y75738D02*
X382016Y-22238D01*
X390144Y-22238D02*
X390144Y75738D01*
X398272Y75738D02*
X398272Y-22238D01*
X406400Y-22238D02*
X406400Y75738D01*
X414528Y75738D02*
X414528Y-22238D01*
X422656Y-22238D02*
X422656Y75738D01*
X430784Y75738D02*
X430784Y-22238D01*
X438912Y-22238D02*
X438912Y75738D01*
X447040Y75738D02*
X447040Y-22238D01*
X455168Y-22238D02*
X455168Y75738D01*
X463296Y75738D02*
X463296Y-22238D01*
X471424Y-22238D02*
X471424Y75738D01*
X479552Y75738D02*
X479552Y-22238D01*
X487680Y-22238D02*
X487680Y75738D01*
X495808Y-42762D02*
X495808Y-50238D01*
X495808Y-22238D02*
X495808Y75738D01*
X503936Y-42762D02*
X503936Y-50238D01*
X503936Y-22238D02*
X503936Y75738D01*
X512064Y-41956D02*
X512064Y-50238D01*
X512064Y-23044D02*
X512064Y75738D01*
X520192Y75738D02*
X520192Y-50238D01*
X528320Y-50238D02*
X528320Y-35918D01*
X528320Y-32613D02*
X528320Y-32387D01*
X528320Y-29082D02*
X528320Y75738D01*
X536448Y-37163D02*
X536448Y-50238D01*
X536448Y-32613D02*
X536448Y-32387D01*
X536448Y-27837D02*
X536448Y75738D01*
X544576Y75738D02*
X544576Y-50238D01*
X552704Y-47767D02*
X552704Y-38143D01*
X552704Y-32613D02*
X552704Y-32387D01*
X552704Y-26857D02*
X552704Y75738D01*
X560832Y-49697D02*
X560832Y-50238D01*
X560832Y-39639D02*
X560832Y75738D01*
X568960Y-44016D02*
X568960Y-50238D01*
X568960Y-33984D02*
X568960Y75738D01*
X577088Y75738D02*
X577088Y-50238D01*
X585216Y-50238D02*
X585216Y75738D01*
X593344Y75738D02*
X593344Y-45250D01*
X601472Y-44738D02*
X601472Y75738D01*
X609600Y75738D02*
X609600Y-44738D01*
X617728Y-44738D02*
X617728Y75738D01*
X625856Y75738D02*
X625856Y-44738D01*
X633984Y-44738D02*
X633984Y75738D01*
X642112Y75738D02*
X642112Y-44738D01*
X650240Y-44738D02*
X650240Y75738D01*
X658368Y75738D02*
X658368Y-44738D01*
X666496Y-44738D02*
X666496Y75738D01*
X674624Y75738D02*
X674624Y-44738D01*
X682752Y-44738D02*
X682752Y75738D01*
X690880Y75738D02*
X690880Y-44738D01*
X699008Y-44738D02*
X699008Y75738D01*
X707136Y75738D02*
X707136Y-44738D01*
X715264Y-44738D02*
X715264Y75738D01*
X723392Y75738D02*
X723392Y-44738D01*
X731520Y-44738D02*
X731520Y75738D01*
X739648Y75738D02*
X739648Y-44738D01*
X747776Y-44738D02*
X747776Y75738D01*
X755904Y75738D02*
X755904Y-44738D01*
X764032Y-44738D02*
X764032Y75738D01*
X772160Y75738D02*
X772160Y-44738D01*
X780288Y-44738D02*
X780288Y75738D01*
X788416Y75738D02*
X788416Y-44738D01*
X796544Y-44738D02*
X796544Y75738D01*
X804672Y75738D02*
X804672Y-44738D01*
X812800Y-44738D02*
X812800Y75738D01*
X820928Y75738D02*
X820928Y-44738D01*
X829056Y-44738D02*
X829056Y75738D01*
X837184Y75738D02*
X837184Y-44738D01*
X845312Y-44738D02*
X845312Y75738D01*
X853440Y75738D02*
X853440Y-44738D01*
X861568Y-44738D02*
X861568Y75738D01*
X869696Y75738D02*
X869696Y-44738D01*
X877824Y-44738D02*
X877824Y75738D01*
X885952Y75738D02*
X885952Y-44738D01*
X894080Y-44738D02*
X894080Y75738D01*
X902208Y75738D02*
X902208Y-44738D01*
X910336Y-44738D02*
X910336Y75738D01*
X918464Y75738D02*
X918464Y-44738D01*
X926592Y-44738D02*
X926592Y75738D01*
X934720Y75738D02*
X934720Y-44738D01*
X942848Y-44738D02*
X942848Y75738D01*
X950976Y75738D02*
X950976Y-44738D01*
X959104Y-44738D02*
X959104Y75738D01*
X967232Y74207D02*
X967232Y-44738D01*
X975360Y-44738D02*
X975360Y67593D01*
X983488Y63507D02*
X983488Y-44738D01*
X991616Y-44738D02*
X991616Y61738D01*
X999744Y61738D02*
X999744Y-44738D01*
X1007872Y-44738D02*
X1007872Y61738D01*
X1016000Y61738D02*
X1016000Y-44738D01*
X1024128Y-44738D02*
X1024128Y61738D01*
X1032256Y61738D02*
X1032256Y-44738D01*
X1040384Y-44738D02*
X1040384Y61738D01*
X1048512Y61738D02*
X1048512Y-44738D01*
X1056640Y-44738D02*
X1056640Y61738D01*
X1064768Y61738D02*
X1064768Y-44738D01*
X1072896Y-44738D02*
X1072896Y61738D01*
X1081024Y61738D02*
X1081024Y-44738D01*
X1089152Y-44738D02*
X1089152Y61738D01*
X1097280Y61738D02*
X1097280Y-44738D01*
X1105408Y-44738D02*
X1105408Y61738D01*
X1113536Y61738D02*
X1113536Y-44738D01*
X1121664Y-44738D02*
X1121664Y61738D01*
X1129792Y61738D02*
X1129792Y-44738D01*
X1137920Y-44738D02*
X1137920Y61738D01*
X1146048Y61738D02*
X1146048Y-44738D01*
X1154176Y-44738D02*
X1154176Y61738D01*
X1162304Y61738D02*
X1162304Y-44738D01*
X1170432Y-44738D02*
X1170432Y61738D01*
X1178560Y61738D02*
X1178560Y-44738D01*
X1186688Y-44738D02*
X1186688Y61738D01*
X1194816Y61738D02*
X1194816Y-51410D01*
X1202944Y-58238D02*
X1202944Y61738D01*
X1211072Y61738D02*
X1211072Y-58238D01*
X1219200Y-58238D02*
X1219200Y61738D01*
X1219200Y78262D02*
X1219200Y88738D01*
X1227328Y-37412D02*
X1227328Y-58238D01*
X1227328Y-32500D02*
X1227328Y-32500D01*
X1227328Y-27588D02*
X1227328Y-27412D01*
X1227328Y-22500D02*
X1227328Y-22500D01*
X1227328Y-17588D02*
X1227328Y-12412D01*
X1227328Y-7500D02*
X1227328Y-7500D01*
X1227328Y-2588D02*
X1227328Y-2412D01*
X1227328Y2500D02*
X1227328Y2500D01*
X1227328Y7412D02*
X1227328Y7588D01*
X1227328Y12500D02*
X1227328Y12500D01*
X1227328Y17412D02*
X1227328Y50588D01*
X1227328Y55500D02*
X1227328Y55500D01*
X1227328Y60412D02*
X1227328Y61738D01*
X1227328Y78262D02*
X1227328Y80588D01*
X1227328Y85500D02*
X1227328Y85500D01*
X1227328Y90412D02*
X1227328Y91238D01*
X1235456Y-36992D02*
X1235456Y-58138D01*
X1235456Y-32500D02*
X1235456Y-32500D01*
X1235456Y-28008D02*
X1235456Y-26992D01*
X1235456Y-22500D02*
X1235456Y-22500D01*
X1235456Y-18008D02*
X1235456Y-11992D01*
X1235456Y-7500D02*
X1235456Y-7500D01*
X1235456Y-3008D02*
X1235456Y-1992D01*
X1235456Y2500D02*
X1235456Y2500D01*
X1235456Y6992D02*
X1235456Y8008D01*
X1235456Y12500D02*
X1235456Y12500D01*
X1235456Y16992D02*
X1235456Y51008D01*
X1235456Y55500D02*
X1235456Y55500D01*
X1235456Y59992D02*
X1235456Y81008D01*
X1235456Y85500D02*
X1235456Y85500D01*
X1235456Y89992D02*
X1235456Y91238D01*
X1243584Y-36488D02*
X1243584Y-50010D01*
X1243584Y-32500D02*
X1243584Y-32500D01*
X1243584Y-28512D02*
X1243584Y-26488D01*
X1243584Y-22500D02*
X1243584Y-22500D01*
X1243584Y-18512D02*
X1243584Y-11488D01*
X1243584Y-7500D02*
X1243584Y-7500D01*
X1243584Y-3512D02*
X1243584Y-1488D01*
X1243584Y2500D02*
X1243584Y2500D01*
X1243584Y6488D02*
X1243584Y8512D01*
X1243584Y12500D02*
X1243584Y12500D01*
X1243584Y16488D02*
X1243584Y51512D01*
X1243584Y55500D02*
X1243584Y55500D01*
X1243584Y59488D02*
X1243584Y81512D01*
X1243584Y85500D02*
X1243584Y85500D01*
X1243584Y89488D02*
X1243584Y91238D01*
X1251712Y91238D02*
X1251712Y-43738D01*
D21*
X19500Y-19500D02*
X6500Y-19500D01*
X2000Y6500D02*
X19500Y6500D01*
X19500Y6000D01*
X19500Y32500D02*
X2000Y32500D01*
X19500Y32500D02*
X19500Y31000D01*
X19500Y65000D02*
X2000Y65000D01*
X6500Y110500D02*
X19500Y110500D01*
D23*
X97500Y-84500D02*
X97500Y-91500D01*
D21*
X86500Y-74550D02*
X86500Y-73000D01*
X86500Y-74550D02*
X86503Y-74834D01*
X86514Y-75119D01*
X86530Y-75403D01*
X86554Y-75686D01*
X86585Y-75969D01*
X86622Y-76251D01*
X86665Y-76532D01*
X86716Y-76812D01*
X86773Y-77090D01*
X86837Y-77367D01*
X86907Y-77643D01*
X86984Y-77917D01*
X87067Y-78189D01*
X87157Y-78458D01*
X87253Y-78726D01*
X87356Y-78991D01*
X87465Y-79254D01*
X87580Y-79514D01*
X87701Y-79771D01*
X87828Y-80026D01*
X87962Y-80277D01*
X88101Y-80525D01*
X88246Y-80770D01*
X88397Y-81011D01*
X88554Y-81248D01*
X88716Y-81482D01*
X88884Y-81711D01*
X89057Y-81937D01*
X89235Y-82158D01*
X89419Y-82376D01*
X89608Y-82588D01*
X89801Y-82796D01*
X90000Y-83000D01*
X90099Y-83097D01*
X90201Y-83191D01*
X90306Y-83282D01*
X90413Y-83370D01*
X90522Y-83456D01*
X90633Y-83538D01*
X90747Y-83618D01*
X90863Y-83694D01*
X90981Y-83767D01*
X91101Y-83837D01*
X91222Y-83903D01*
X91346Y-83967D01*
X91471Y-84027D01*
X91597Y-84083D01*
X91726Y-84136D01*
X91855Y-84186D01*
X91986Y-84232D01*
X92118Y-84274D01*
X92251Y-84313D01*
X92385Y-84349D01*
X92520Y-84380D01*
X92656Y-84408D01*
X92793Y-84433D01*
X92930Y-84453D01*
X93067Y-84470D01*
X93205Y-84483D01*
X93344Y-84492D01*
X93482Y-84498D01*
X93621Y-84500D01*
X97500Y-84500D01*
X95293Y-86171D02*
X95418Y-86300D01*
X95540Y-86431D01*
X95659Y-86565D01*
X95775Y-86702D01*
X95888Y-86842D01*
X95997Y-86984D01*
X96103Y-87129D01*
X96205Y-87276D01*
X96304Y-87426D01*
X96399Y-87578D01*
X96490Y-87732D01*
X96578Y-87888D01*
X96662Y-88047D01*
X96743Y-88207D01*
X96819Y-88369D01*
X96892Y-88533D01*
X96960Y-88699D01*
X97025Y-88866D01*
X97086Y-89035D01*
X97142Y-89205D01*
X97195Y-89377D01*
X97243Y-89550D01*
X97288Y-89723D01*
X97328Y-89898D01*
X97364Y-90074D01*
X97396Y-90250D01*
X97423Y-90428D01*
X97447Y-90605D01*
X97466Y-90784D01*
X97481Y-90962D01*
X97491Y-91141D01*
X97498Y-91321D01*
X97500Y-91500D01*
X95293Y-86172D02*
X93621Y-84500D01*
X86000Y-73000D02*
X84000Y-73000D01*
X84000Y-76500D01*
X88000Y-80500D01*
X239500Y-83500D02*
X527979Y-83500D01*
X528583Y-83493D01*
X529188Y-83471D01*
X529791Y-83435D01*
X530393Y-83385D01*
X530994Y-83320D01*
X531594Y-83241D01*
X532191Y-83148D01*
X532786Y-83041D01*
X533378Y-82920D01*
X533967Y-82784D01*
X534553Y-82635D01*
X535135Y-82471D01*
X535713Y-82294D01*
X536287Y-82103D01*
X536855Y-81899D01*
X537419Y-81681D01*
X537978Y-81449D01*
X538531Y-81205D01*
X539077Y-80947D01*
X539618Y-80676D01*
X540152Y-80393D01*
X540679Y-80097D01*
X541199Y-79789D01*
X541711Y-79468D01*
X542216Y-79135D01*
X542712Y-78790D01*
X543201Y-78434D01*
X543680Y-78066D01*
X544151Y-77686D01*
X544612Y-77296D01*
X545065Y-76895D01*
X545507Y-76483D01*
X545940Y-76061D01*
X569318Y-52682D02*
X569503Y-52501D01*
X569692Y-52325D01*
X569886Y-52154D01*
X570083Y-51987D01*
X570284Y-51824D01*
X570489Y-51667D01*
X570698Y-51514D01*
X570911Y-51367D01*
X571126Y-51225D01*
X571346Y-51087D01*
X571568Y-50955D01*
X571793Y-50829D01*
X572022Y-50708D01*
X572253Y-50592D01*
X572487Y-50482D01*
X572723Y-50377D01*
X572962Y-50278D01*
X573203Y-50185D01*
X573447Y-50098D01*
X573692Y-50016D01*
X573939Y-49940D01*
X574188Y-49870D01*
X574439Y-49806D01*
X574691Y-49748D01*
X574944Y-49696D01*
X575198Y-49650D01*
X575454Y-49611D01*
X575710Y-49577D01*
X575967Y-49549D01*
X576225Y-49528D01*
X576483Y-49512D01*
X576741Y-49503D01*
X577000Y-49500D01*
X563500Y-58500D02*
X545940Y-76061D01*
X563500Y-58500D02*
X567000Y-55000D01*
X569000Y-53000D01*
X569318Y-52682D01*
X566293Y-53293D02*
X566359Y-53361D01*
X566422Y-53432D01*
X566482Y-53506D01*
X566539Y-53581D01*
X566593Y-53659D01*
X566644Y-53739D01*
X566692Y-53820D01*
X566737Y-53904D01*
X566778Y-53989D01*
X566816Y-54076D01*
X566851Y-54164D01*
X566882Y-54254D01*
X566909Y-54345D01*
X566933Y-54436D01*
X566954Y-54529D01*
X566970Y-54622D01*
X566983Y-54716D01*
X566993Y-54811D01*
X566998Y-54905D01*
X567000Y-55000D01*
X566293Y-53293D02*
X565250Y-52250D01*
X563000Y-50000D01*
X563178Y-50002D01*
X563355Y-50009D01*
X563533Y-50020D01*
X563710Y-50035D01*
X563887Y-50054D01*
X564063Y-50078D01*
X564238Y-50107D01*
X564413Y-50139D01*
X564587Y-50176D01*
X564760Y-50217D01*
X564932Y-50262D01*
X565103Y-50312D01*
X565272Y-50366D01*
X565440Y-50423D01*
X565607Y-50485D01*
X565772Y-50551D01*
X565935Y-50621D01*
X566097Y-50695D01*
X566257Y-50773D01*
X566414Y-50855D01*
X566570Y-50941D01*
X566724Y-51030D01*
X566875Y-51124D01*
X567024Y-51221D01*
X567171Y-51321D01*
X567315Y-51425D01*
X567456Y-51533D01*
X567595Y-51644D01*
X567731Y-51759D01*
X567864Y-51876D01*
X567994Y-51997D01*
X568122Y-52121D01*
X568121Y-52121D02*
X569000Y-53000D01*
X565250Y-54275D02*
X565248Y-54426D01*
X565242Y-54578D01*
X565233Y-54729D01*
X565219Y-54879D01*
X565202Y-55030D01*
X565181Y-55180D01*
X565156Y-55329D01*
X565128Y-55478D01*
X565095Y-55626D01*
X565059Y-55773D01*
X565019Y-55919D01*
X564976Y-56064D01*
X564929Y-56208D01*
X564878Y-56350D01*
X564824Y-56491D01*
X564766Y-56631D01*
X564704Y-56770D01*
X564639Y-56906D01*
X564571Y-57041D01*
X564499Y-57175D01*
X564424Y-57306D01*
X564346Y-57436D01*
X564264Y-57563D01*
X564179Y-57688D01*
X564091Y-57811D01*
X564000Y-57932D01*
X563906Y-58051D01*
X563809Y-58167D01*
X563709Y-58281D01*
X563606Y-58392D01*
X563500Y-58500D01*
X565250Y-54275D02*
X565250Y-52250D01*
D18*
X97500Y-91500D03*
X104500Y-24000D03*
X110500Y-18000D03*
X83500Y-28000D03*
X150500Y-58500D03*
X155500Y-63500D03*
X97500Y-84500D03*
X551500Y-32500D03*
X100000Y14000D03*
X127000Y14000D03*
X116000Y72500D03*
X533000Y-32500D03*
X64500Y31000D03*
X89500Y-2000D03*
D23*
X1227500Y55500D02*
X1237500Y55500D01*
X1246500Y55500D01*
X1237500Y12500D02*
X1227500Y12500D01*
X1237500Y12500D02*
X1246500Y12500D01*
X1246500Y2500D02*
X1237500Y2500D01*
X1227500Y2500D01*
X1227500Y-7500D02*
X1237500Y-7500D01*
X1246500Y-7500D01*
X1237500Y-22500D02*
X1227500Y-22500D01*
X1237500Y-22500D02*
X1246500Y-22500D01*
X1246500Y-32500D02*
X1237500Y-32500D01*
X1227500Y-32500D01*
D17*
X6500Y19500D03*
X6500Y26000D03*
X6500Y45500D03*
X6500Y52000D03*
X6500Y58500D03*
X6500Y84500D03*
X6500Y78000D03*
X6500Y91000D03*
D18*
X130000Y-71000D03*
D25*
X130000Y-66000D01*
X130000Y-60100D01*
X130000Y-71000D02*
X136000Y-71000D01*
X146000Y-71000D01*
X149000Y-71000D01*
X151000Y-71000D01*
X154500Y-71000D01*
X157500Y-74000D01*
X156000Y-76000D02*
X151000Y-71000D01*
X156000Y-76000D02*
X157000Y-76000D01*
X156000Y-76000D02*
X154000Y-76000D01*
X149000Y-71000D01*
D26*
X20000Y-77000D03*
D25*
X15500Y-77000D02*
X32000Y-77000D01*
X39000Y-77000D01*
X32000Y-77000D02*
X24000Y-74000D01*
X23000Y-80000D02*
X32000Y-77000D01*
X15500Y-77000D02*
X12994Y-77000D01*
X133000Y-70000D02*
X136000Y-71000D01*
X133000Y-70000D02*
X130000Y-66000D01*
X146000Y-71000D02*
X152000Y-73000D01*
D26*
X258000Y118000D03*
X225000Y118000D03*
X210000Y118000D03*
X195000Y118000D03*
X1228000Y70000D03*
X1213000Y70000D03*
X1198000Y70000D03*
D27*
X1213000Y70000D01*
X1228000Y70000D01*
X225000Y118000D02*
X210000Y118000D01*
X195000Y118000D01*
D28*
X225000Y118000D02*
X262500Y118000D01*
X128071Y118000D02*
X127665Y117995D01*
X127259Y117981D01*
X126853Y117957D01*
X126448Y117923D01*
X126044Y117879D01*
X125642Y117826D01*
X125240Y117764D01*
X124840Y117692D01*
X124442Y117610D01*
X124046Y117519D01*
X123653Y117418D01*
X123262Y117309D01*
X122873Y117189D01*
X122488Y117061D01*
X122105Y116924D01*
X121726Y116777D01*
X121351Y116622D01*
X120979Y116457D01*
X120612Y116284D01*
X120249Y116102D01*
X119890Y115912D01*
X119535Y115713D01*
X119186Y115506D01*
X118842Y115290D01*
X118503Y115066D01*
X118169Y114835D01*
X117841Y114595D01*
X117518Y114348D01*
X117202Y114093D01*
X116892Y113830D01*
X116588Y113561D01*
X116291Y113284D01*
X116000Y113000D01*
X114536Y111536D01*
X114536Y111535D02*
X114335Y111330D01*
X114139Y111120D01*
X113948Y110905D01*
X113763Y110685D01*
X113583Y110462D01*
X113408Y110234D01*
X113238Y110002D01*
X113074Y109766D01*
X112916Y109526D01*
X112764Y109283D01*
X112617Y109035D01*
X112477Y108785D01*
X112342Y108531D01*
X112213Y108274D01*
X112091Y108014D01*
X111975Y107752D01*
X111865Y107486D01*
X111761Y107218D01*
X111664Y106948D01*
X111573Y106675D01*
X111489Y106401D01*
X111411Y106124D01*
X111340Y105846D01*
X111276Y105566D01*
X111218Y105284D01*
X111167Y105002D01*
X111123Y104718D01*
X111085Y104433D01*
X111055Y104147D01*
X111031Y103861D01*
X111014Y103574D01*
X111003Y103287D01*
X111000Y103000D01*
X111004Y102655D01*
X111016Y102311D01*
X111037Y101967D01*
X111066Y101623D01*
X111102Y101280D01*
X111147Y100939D01*
X111201Y100598D01*
X111262Y100259D01*
X111331Y99921D01*
X111408Y99585D01*
X111494Y99251D01*
X111587Y98919D01*
X111688Y98590D01*
X111797Y98262D01*
X111913Y97938D01*
X112038Y97616D01*
X112170Y97298D01*
X112309Y96983D01*
X112456Y96671D01*
X112610Y96363D01*
X112772Y96058D01*
X112941Y95757D01*
X113117Y95461D01*
X113299Y95169D01*
X113489Y94881D01*
X113686Y94598D01*
X113889Y94319D01*
X114099Y94046D01*
X114315Y93778D01*
X114538Y93514D01*
X114767Y93257D01*
X115002Y93004D01*
X115243Y92758D01*
X117314Y90686D02*
X117703Y90307D01*
X118101Y89936D01*
X118507Y89576D01*
X118922Y89225D01*
X119345Y88884D01*
X119776Y88553D01*
X120214Y88233D01*
X120661Y87923D01*
X121114Y87624D01*
X121575Y87336D01*
X122042Y87058D01*
X122516Y86792D01*
X122996Y86538D01*
X123481Y86294D01*
X123973Y86063D01*
X124470Y85843D01*
X124972Y85635D01*
X125478Y85439D01*
X125990Y85256D01*
X126505Y85084D01*
X127025Y84925D01*
X127548Y84778D01*
X128074Y84643D01*
X128604Y84522D01*
X129136Y84413D01*
X129670Y84316D01*
X130207Y84232D01*
X130746Y84161D01*
X131286Y84103D01*
X131827Y84058D01*
X132370Y84026D01*
X132913Y84006D01*
X133456Y84000D01*
X128071Y118000D02*
X195000Y118000D01*
X117314Y90686D02*
X115243Y92757D01*
X962515Y84000D02*
X963018Y83994D01*
X963520Y83975D01*
X964022Y83944D01*
X964523Y83901D01*
X965023Y83846D01*
X965521Y83778D01*
X966017Y83698D01*
X966511Y83606D01*
X967003Y83502D01*
X967492Y83386D01*
X967979Y83258D01*
X968461Y83118D01*
X968941Y82966D01*
X969416Y82803D01*
X969887Y82627D01*
X970354Y82441D01*
X970816Y82243D01*
X971273Y82033D01*
X971725Y81813D01*
X972172Y81581D01*
X972612Y81339D01*
X973046Y81086D01*
X973474Y80822D01*
X973896Y80548D01*
X974310Y80263D01*
X974718Y79969D01*
X975118Y79664D01*
X975511Y79350D01*
X975895Y79026D01*
X976272Y78693D01*
X976640Y78351D01*
X977000Y78000D01*
X977561Y77440D01*
X977560Y77439D02*
X978007Y77004D01*
X978463Y76580D01*
X978930Y76167D01*
X979407Y75766D01*
X979894Y75376D01*
X980390Y74999D01*
X980895Y74633D01*
X981410Y74281D01*
X981932Y73941D01*
X982463Y73614D01*
X983001Y73300D01*
X983548Y72999D01*
X984101Y72712D01*
X984661Y72439D01*
X985228Y72179D01*
X985801Y71933D01*
X986380Y71702D01*
X986964Y71485D01*
X987553Y71282D01*
X988148Y71094D01*
X988746Y70920D01*
X989349Y70761D01*
X989956Y70617D01*
X990566Y70488D01*
X991179Y70374D01*
X991794Y70275D01*
X992412Y70191D01*
X993031Y70122D01*
X993652Y70069D01*
X994275Y70031D01*
X994898Y70008D01*
X995521Y70000D01*
X962515Y84000D02*
X133456Y84000D01*
X995521Y70000D02*
X1198000Y70000D01*
D21*
X120500Y-86000D02*
X120000Y-86000D01*
X115000Y-86000D01*
X110828Y-86000D01*
X110660Y-85998D01*
X110493Y-85992D01*
X110326Y-85981D01*
X110159Y-85967D01*
X109992Y-85949D01*
X109826Y-85926D01*
X109661Y-85899D01*
X109496Y-85869D01*
X109332Y-85834D01*
X109169Y-85795D01*
X109007Y-85753D01*
X108846Y-85706D01*
X108686Y-85655D01*
X108528Y-85601D01*
X108371Y-85542D01*
X108215Y-85480D01*
X108061Y-85414D01*
X107909Y-85344D01*
X107758Y-85271D01*
X107609Y-85194D01*
X107462Y-85113D01*
X107318Y-85029D01*
X107175Y-84941D01*
X107035Y-84849D01*
X106896Y-84754D01*
X106761Y-84656D01*
X106627Y-84555D01*
X106496Y-84450D01*
X106368Y-84342D01*
X106243Y-84231D01*
X106120Y-84117D01*
X106000Y-84000D01*
X105858Y-83855D01*
X105720Y-83706D01*
X105585Y-83554D01*
X105454Y-83399D01*
X105326Y-83241D01*
X105203Y-83079D01*
X105083Y-82915D01*
X104967Y-82748D01*
X104855Y-82579D01*
X104747Y-82407D01*
X104644Y-82232D01*
X104544Y-82055D01*
X104449Y-81875D01*
X104358Y-81694D01*
X104271Y-81510D01*
X104189Y-81324D01*
X104111Y-81137D01*
X104038Y-80947D01*
X103969Y-80756D01*
X103905Y-80563D01*
X103846Y-80369D01*
X103791Y-80173D01*
X103741Y-79976D01*
X103695Y-79778D01*
X103654Y-79579D01*
X103618Y-79380D01*
X103587Y-79179D01*
X103560Y-78977D01*
X103539Y-78775D01*
X103522Y-78573D01*
X103510Y-78370D01*
X103502Y-78167D01*
X103500Y-77964D01*
X103500Y-74500D01*
X103500Y-73000D01*
X115000Y-86000D02*
X120000Y-83000D01*
X115000Y-86000D02*
X120000Y-89000D01*
X107000Y-74500D02*
X103500Y-74500D01*
X107000Y-74500D02*
X104000Y-79500D01*
X100000Y-74500D01*
X120500Y-86000D02*
X120757Y-86000D01*
X121008Y-86003D01*
X121260Y-86012D01*
X121511Y-86028D01*
X121761Y-86049D01*
X122011Y-86077D01*
X122260Y-86111D01*
X122508Y-86151D01*
X122755Y-86197D01*
X123001Y-86249D01*
X123246Y-86307D01*
X123489Y-86371D01*
X123730Y-86441D01*
X123970Y-86517D01*
X124208Y-86599D01*
X124443Y-86686D01*
X124677Y-86780D01*
X124908Y-86879D01*
X125136Y-86983D01*
X125362Y-87094D01*
X125586Y-87209D01*
X125806Y-87331D01*
X126023Y-87457D01*
X126237Y-87589D01*
X126448Y-87726D01*
X126655Y-87868D01*
X126859Y-88016D01*
X127059Y-88168D01*
X127255Y-88325D01*
X127447Y-88487D01*
X127636Y-88653D01*
X127820Y-88825D01*
X128000Y-89000D01*
X131879Y-92879D01*
X131878Y-92879D02*
X132002Y-92999D01*
X132128Y-93116D01*
X132257Y-93231D01*
X132388Y-93342D01*
X132523Y-93450D01*
X132659Y-93555D01*
X132799Y-93657D01*
X132940Y-93755D01*
X133084Y-93850D01*
X133230Y-93942D01*
X133379Y-94030D01*
X133529Y-94114D01*
X133681Y-94195D01*
X133835Y-94272D01*
X133991Y-94345D01*
X134149Y-94415D01*
X134308Y-94481D01*
X134469Y-94543D01*
X134631Y-94602D01*
X134795Y-94656D01*
X134959Y-94707D01*
X135125Y-94753D01*
X135292Y-94796D01*
X135460Y-94834D01*
X135629Y-94869D01*
X135799Y-94900D01*
X135969Y-94926D01*
X136140Y-94949D01*
X136312Y-94967D01*
X136483Y-94982D01*
X136655Y-94992D01*
X136828Y-94998D01*
X137000Y-95000D01*
X122000Y-84000D02*
X120000Y-86000D01*
X122000Y-84000D02*
X125000Y-87000D01*
X122000Y-89000D01*
X168757Y-95000D02*
X169001Y-94997D01*
X169244Y-94988D01*
X169488Y-94974D01*
X169731Y-94954D01*
X169973Y-94928D01*
X170215Y-94896D01*
X170456Y-94858D01*
X170695Y-94815D01*
X170934Y-94766D01*
X171172Y-94711D01*
X171408Y-94651D01*
X171643Y-94585D01*
X171876Y-94514D01*
X172107Y-94437D01*
X172337Y-94354D01*
X172564Y-94266D01*
X172789Y-94173D01*
X173012Y-94074D01*
X173233Y-93970D01*
X173451Y-93861D01*
X173666Y-93747D01*
X173878Y-93628D01*
X174088Y-93503D01*
X174295Y-93374D01*
X174498Y-93240D01*
X174699Y-93101D01*
X174895Y-92957D01*
X175089Y-92809D01*
X175279Y-92656D01*
X175465Y-92498D01*
X175647Y-92336D01*
X175825Y-92170D01*
X176000Y-92000D01*
X176180Y-91825D01*
X176364Y-91653D01*
X176553Y-91487D01*
X176745Y-91325D01*
X176941Y-91168D01*
X177141Y-91016D01*
X177345Y-90868D01*
X177552Y-90726D01*
X177763Y-90589D01*
X177977Y-90457D01*
X178194Y-90331D01*
X178414Y-90209D01*
X178638Y-90094D01*
X178864Y-89983D01*
X179092Y-89879D01*
X179323Y-89780D01*
X179557Y-89686D01*
X179792Y-89599D01*
X180030Y-89517D01*
X180270Y-89441D01*
X180511Y-89371D01*
X180754Y-89307D01*
X180999Y-89249D01*
X181245Y-89197D01*
X181492Y-89151D01*
X181740Y-89111D01*
X181989Y-89077D01*
X182239Y-89049D01*
X182489Y-89028D01*
X182740Y-89012D01*
X182992Y-89003D01*
X183243Y-89000D01*
X185000Y-89000D01*
X197000Y-89000D01*
X168757Y-95000D02*
X137000Y-95000D01*
X185000Y-89000D02*
X193000Y-85000D01*
X192000Y-93000D02*
X185000Y-89000D01*
D25*
X193500Y-48000D02*
X198000Y-48000D01*
X208000Y-48000D01*
X209000Y-48000D01*
X276000Y-48000D01*
X283500Y-48000D01*
X208000Y-48000D02*
X205000Y-45000D01*
X203000Y-45000D01*
X209000Y-48000D02*
X205000Y-52000D01*
X204000Y-52000D01*
X209000Y-48000D02*
X205000Y-44000D01*
X204000Y-44000D01*
X276000Y-48000D02*
X280000Y-44000D01*
X276000Y-48000D02*
X280000Y-52000D01*
D26*
X198000Y-48000D03*
D25*
X300500Y-48000D02*
X309000Y-48000D01*
D18*
X486000Y-48000D03*
D25*
X309000Y-48000D01*
X302000Y-45000D01*
X302000Y-51000D02*
X309000Y-48000D01*
D17*
X0Y0D03*
X0Y19500D03*
X0Y26000D03*
X0Y45500D03*
X0Y52000D03*
X0Y58500D03*
X0Y84500D03*
X0Y78000D03*
X0Y91000D03*
X6500Y-6500D03*
X0Y-6500D03*
X6500Y-32500D03*
X0Y-32500D03*
X0Y-26000D03*
X6500Y-26000D03*
D25*
X174500Y-74000D02*
X177750Y-77250D01*
D18*
X566500Y-39000D03*
D25*
X178500Y-78000D02*
X177750Y-77250D01*
X145000Y-86000D02*
X139500Y-86000D01*
X145000Y-86000D02*
X169000Y-86000D01*
X174500Y-82500D02*
X174500Y-74000D01*
X174500Y-82500D02*
X173000Y-84000D01*
X142000Y-83000D02*
X140000Y-83000D01*
X142000Y-83000D02*
X145000Y-86000D01*
X142000Y-89000D01*
X141000Y-89000D01*
X174500Y-82500D02*
X178500Y-78500D01*
X178500Y-78000D01*
X173000Y-84000D02*
X169000Y-86000D01*
X535336Y-70164D02*
X566500Y-39000D01*
X535336Y-70164D02*
X534924Y-70566D01*
X534503Y-70959D01*
X534072Y-71341D01*
X533632Y-71713D01*
X533184Y-72074D01*
X532727Y-72424D01*
X532262Y-72764D01*
X531789Y-73092D01*
X531309Y-73409D01*
X530821Y-73715D01*
X530325Y-74009D01*
X529823Y-74291D01*
X529315Y-74561D01*
X528800Y-74818D01*
X528279Y-75064D01*
X527753Y-75297D01*
X527221Y-75517D01*
X526684Y-75725D01*
X526142Y-75919D01*
X525595Y-76101D01*
X525045Y-76270D01*
X524491Y-76426D01*
X523933Y-76568D01*
X523372Y-76697D01*
X522808Y-76813D01*
X522241Y-76915D01*
X521672Y-77004D01*
X521101Y-77079D01*
X520529Y-77140D01*
X519955Y-77188D01*
X519380Y-77223D01*
X518805Y-77243D01*
X518229Y-77250D01*
X185000Y-77250D01*
X177750Y-77250D01*
X182000Y-77000D02*
X176000Y-73000D01*
X174500Y-74000D01*
X185000Y-77250D01*
D26*
X187000Y143000D03*
X221000Y143000D03*
X236000Y143000D03*
X1220000Y97000D03*
X1205000Y97000D03*
D27*
X1220000Y97000D01*
X236000Y143000D02*
X221000Y143000D01*
D28*
X181000Y143000D01*
X236000Y143000D02*
X295101Y143000D01*
X295670Y142993D01*
X296238Y142973D01*
X296806Y142939D01*
X297373Y142892D01*
X297938Y142831D01*
X298502Y142757D01*
X299064Y142669D01*
X299624Y142568D01*
X300181Y142454D01*
X300736Y142326D01*
X301287Y142186D01*
X301834Y142032D01*
X302378Y141865D01*
X302918Y141686D01*
X303453Y141493D01*
X303984Y141288D01*
X304509Y141070D01*
X305029Y140840D01*
X305544Y140598D01*
X306053Y140343D01*
X306555Y140077D01*
X307051Y139798D01*
X307540Y139508D01*
X308022Y139206D01*
X308497Y138893D01*
X308964Y138568D01*
X309424Y138233D01*
X309875Y137887D01*
X310318Y137530D01*
X310752Y137162D01*
X311178Y136785D01*
X311594Y136397D01*
X312001Y136000D01*
X343560Y104439D02*
X344007Y104004D01*
X344463Y103580D01*
X344930Y103167D01*
X345407Y102766D01*
X345894Y102376D01*
X346390Y101999D01*
X346895Y101633D01*
X347410Y101281D01*
X347932Y100941D01*
X348463Y100614D01*
X349001Y100300D01*
X349548Y99999D01*
X350101Y99712D01*
X350661Y99439D01*
X351228Y99179D01*
X351801Y98933D01*
X352380Y98702D01*
X352964Y98485D01*
X353553Y98282D01*
X354148Y98094D01*
X354746Y97920D01*
X355349Y97761D01*
X355956Y97617D01*
X356566Y97488D01*
X357179Y97374D01*
X357794Y97275D01*
X358412Y97191D01*
X359031Y97122D01*
X359652Y97069D01*
X360275Y97031D01*
X360898Y97008D01*
X361521Y97000D01*
X1205000Y97000D01*
X343561Y104440D02*
X312000Y136000D01*
D29*
X272000Y118000D03*
X173000Y143000D03*
X184000Y-48000D03*
X5000Y-77000D03*
D25*
X120500Y-60000D02*
X120500Y-54500D01*
X120500Y-60000D02*
X120500Y-68000D01*
X120500Y-60000D02*
X114500Y-60000D01*
M02*
