G04 EAGLE Gerber X2 export*
%TF.Part,Single*%
%TF.FileFunction,Other,stiffener on bottom layer*%
%TF.FilePolarity,Positive*%
%TF.GenerationSoftware,Autodesk,EAGLE,9.6.2*%
%TF.CreationDate,2021-11-14T09:40:45Z*%
G75*
%MOMM*%
%FSLAX34Y34*%
%LPD*%
%INstiffener bottom*%
%AMOC8*
5,1,8,0,0,1.08239X$1,22.5*%
G01*

G36*
X789618Y-46254D02*
X789618Y-46254D01*
X789737Y-46247D01*
X789775Y-46234D01*
X789816Y-46229D01*
X789926Y-46186D01*
X790039Y-46149D01*
X790074Y-46127D01*
X790111Y-46112D01*
X790207Y-46043D01*
X790308Y-45979D01*
X790336Y-45949D01*
X790369Y-45926D01*
X790445Y-45834D01*
X790526Y-45747D01*
X790546Y-45712D01*
X790571Y-45681D01*
X790622Y-45573D01*
X790680Y-45469D01*
X790690Y-45429D01*
X790707Y-45393D01*
X790729Y-45276D01*
X790759Y-45161D01*
X790763Y-45101D01*
X790767Y-45081D01*
X790765Y-45060D01*
X790769Y-45000D01*
X790769Y105000D01*
X790754Y105118D01*
X790747Y105237D01*
X790734Y105275D01*
X790729Y105316D01*
X790686Y105426D01*
X790649Y105539D01*
X790627Y105574D01*
X790612Y105611D01*
X790543Y105707D01*
X790479Y105808D01*
X790449Y105836D01*
X790426Y105869D01*
X790334Y105945D01*
X790247Y106026D01*
X790212Y106046D01*
X790181Y106071D01*
X790073Y106122D01*
X789969Y106180D01*
X789929Y106190D01*
X789893Y106207D01*
X789776Y106229D01*
X789661Y106259D01*
X789601Y106263D01*
X789581Y106267D01*
X789560Y106265D01*
X789500Y106269D01*
X615000Y106269D01*
X614882Y106254D01*
X614763Y106247D01*
X614725Y106234D01*
X614684Y106229D01*
X614574Y106186D01*
X614461Y106149D01*
X614426Y106127D01*
X614389Y106112D01*
X614293Y106043D01*
X614192Y105979D01*
X614164Y105949D01*
X614131Y105926D01*
X614056Y105834D01*
X613974Y105747D01*
X613954Y105712D01*
X613929Y105681D01*
X613878Y105573D01*
X613820Y105469D01*
X613810Y105429D01*
X613793Y105393D01*
X613771Y105276D01*
X613741Y105161D01*
X613737Y105101D01*
X613733Y105081D01*
X613735Y105060D01*
X613731Y105000D01*
X613731Y-45000D01*
X613746Y-45118D01*
X613753Y-45237D01*
X613766Y-45275D01*
X613771Y-45316D01*
X613814Y-45426D01*
X613851Y-45539D01*
X613873Y-45574D01*
X613888Y-45611D01*
X613958Y-45707D01*
X614021Y-45808D01*
X614051Y-45836D01*
X614074Y-45869D01*
X614166Y-45945D01*
X614253Y-46026D01*
X614288Y-46046D01*
X614319Y-46071D01*
X614427Y-46122D01*
X614531Y-46180D01*
X614571Y-46190D01*
X614607Y-46207D01*
X614724Y-46229D01*
X614839Y-46259D01*
X614900Y-46263D01*
X614920Y-46267D01*
X614940Y-46265D01*
X615000Y-46269D01*
X789500Y-46269D01*
X789618Y-46254D01*
G37*
G36*
X1235098Y-60257D02*
X1235098Y-60257D01*
X1235197Y-60254D01*
X1235255Y-60237D01*
X1235316Y-60229D01*
X1235408Y-60193D01*
X1235503Y-60165D01*
X1235555Y-60135D01*
X1235611Y-60112D01*
X1235691Y-60054D01*
X1235777Y-60004D01*
X1235852Y-59938D01*
X1235869Y-59926D01*
X1235876Y-59916D01*
X1235898Y-59898D01*
X1250526Y-45269D01*
X1294000Y-45269D01*
X1294118Y-45254D01*
X1294237Y-45247D01*
X1294275Y-45234D01*
X1294316Y-45229D01*
X1294426Y-45186D01*
X1294539Y-45149D01*
X1294574Y-45127D01*
X1294611Y-45112D01*
X1294707Y-45043D01*
X1294808Y-44979D01*
X1294836Y-44949D01*
X1294869Y-44926D01*
X1294945Y-44834D01*
X1295026Y-44747D01*
X1295046Y-44712D01*
X1295071Y-44681D01*
X1295122Y-44573D01*
X1295180Y-44469D01*
X1295190Y-44429D01*
X1295207Y-44393D01*
X1295229Y-44276D01*
X1295259Y-44161D01*
X1295263Y-44101D01*
X1295267Y-44081D01*
X1295265Y-44060D01*
X1295269Y-44000D01*
X1295269Y104000D01*
X1295254Y104118D01*
X1295247Y104237D01*
X1295234Y104275D01*
X1295229Y104316D01*
X1295186Y104426D01*
X1295149Y104539D01*
X1295127Y104574D01*
X1295112Y104611D01*
X1295043Y104707D01*
X1294979Y104808D01*
X1294949Y104836D01*
X1294926Y104869D01*
X1294834Y104945D01*
X1294747Y105026D01*
X1294712Y105046D01*
X1294681Y105071D01*
X1294573Y105122D01*
X1294469Y105180D01*
X1294429Y105190D01*
X1294393Y105207D01*
X1294276Y105229D01*
X1294161Y105259D01*
X1294101Y105263D01*
X1294081Y105267D01*
X1294060Y105265D01*
X1294000Y105269D01*
X1251526Y105269D01*
X1236898Y119898D01*
X1236819Y119958D01*
X1236747Y120026D01*
X1236694Y120055D01*
X1236646Y120092D01*
X1236555Y120132D01*
X1236469Y120180D01*
X1236410Y120195D01*
X1236354Y120219D01*
X1236256Y120234D01*
X1236161Y120259D01*
X1236061Y120265D01*
X1236040Y120269D01*
X1236028Y120267D01*
X1236000Y120269D01*
X1220000Y120269D01*
X1219882Y120254D01*
X1219763Y120247D01*
X1219725Y120234D01*
X1219684Y120229D01*
X1219574Y120186D01*
X1219461Y120149D01*
X1219426Y120127D01*
X1219389Y120112D01*
X1219293Y120043D01*
X1219192Y119979D01*
X1219164Y119949D01*
X1219131Y119926D01*
X1219056Y119834D01*
X1218974Y119747D01*
X1218954Y119712D01*
X1218929Y119681D01*
X1218878Y119573D01*
X1218820Y119469D01*
X1218810Y119429D01*
X1218793Y119393D01*
X1218771Y119276D01*
X1218741Y119161D01*
X1218737Y119101D01*
X1218733Y119081D01*
X1218735Y119060D01*
X1218731Y119000D01*
X1218731Y-59000D01*
X1218746Y-59118D01*
X1218753Y-59237D01*
X1218766Y-59275D01*
X1218771Y-59316D01*
X1218814Y-59426D01*
X1218851Y-59539D01*
X1218873Y-59574D01*
X1218888Y-59611D01*
X1218958Y-59707D01*
X1219021Y-59808D01*
X1219051Y-59836D01*
X1219074Y-59869D01*
X1219166Y-59945D01*
X1219253Y-60026D01*
X1219288Y-60046D01*
X1219319Y-60071D01*
X1219427Y-60122D01*
X1219531Y-60180D01*
X1219571Y-60190D01*
X1219607Y-60207D01*
X1219724Y-60229D01*
X1219839Y-60259D01*
X1219900Y-60263D01*
X1219920Y-60267D01*
X1219940Y-60265D01*
X1220000Y-60269D01*
X1235000Y-60269D01*
X1235098Y-60257D01*
G37*
G36*
X93026Y-51520D02*
X93026Y-51520D01*
X93052Y-51522D01*
X93199Y-51500D01*
X93346Y-51483D01*
X93371Y-51475D01*
X93397Y-51471D01*
X93535Y-51416D01*
X93674Y-51366D01*
X93696Y-51352D01*
X93721Y-51342D01*
X93842Y-51257D01*
X93967Y-51177D01*
X93985Y-51158D01*
X94007Y-51143D01*
X94106Y-51033D01*
X94209Y-50926D01*
X94223Y-50904D01*
X94240Y-50884D01*
X94312Y-50754D01*
X94388Y-50627D01*
X94396Y-50602D01*
X94409Y-50579D01*
X94449Y-50436D01*
X94494Y-50295D01*
X94496Y-50269D01*
X94504Y-50244D01*
X94523Y-50000D01*
X94523Y124000D01*
X94520Y124026D01*
X94522Y124052D01*
X94500Y124199D01*
X94483Y124346D01*
X94475Y124371D01*
X94471Y124397D01*
X94416Y124535D01*
X94366Y124674D01*
X94352Y124696D01*
X94342Y124721D01*
X94257Y124842D01*
X94177Y124967D01*
X94158Y124985D01*
X94143Y125007D01*
X94033Y125106D01*
X93926Y125209D01*
X93904Y125223D01*
X93884Y125240D01*
X93754Y125312D01*
X93627Y125388D01*
X93602Y125396D01*
X93579Y125409D01*
X93436Y125449D01*
X93295Y125494D01*
X93269Y125496D01*
X93244Y125504D01*
X93000Y125523D01*
X40000Y125523D01*
X39974Y125520D01*
X39948Y125522D01*
X39801Y125500D01*
X39654Y125483D01*
X39629Y125475D01*
X39603Y125471D01*
X39465Y125416D01*
X39326Y125366D01*
X39304Y125352D01*
X39279Y125342D01*
X39158Y125257D01*
X39033Y125177D01*
X39015Y125158D01*
X38993Y125143D01*
X38894Y125033D01*
X38791Y124926D01*
X38777Y124904D01*
X38760Y124884D01*
X38688Y124754D01*
X38612Y124627D01*
X38604Y124602D01*
X38591Y124579D01*
X38551Y124436D01*
X38506Y124295D01*
X38504Y124269D01*
X38496Y124244D01*
X38477Y124000D01*
X38477Y-43000D01*
X38491Y-43126D01*
X38498Y-43252D01*
X38511Y-43298D01*
X38517Y-43346D01*
X38559Y-43465D01*
X38594Y-43587D01*
X38618Y-43629D01*
X38634Y-43674D01*
X38703Y-43781D01*
X38764Y-43891D01*
X38804Y-43937D01*
X38823Y-43967D01*
X38858Y-44001D01*
X38923Y-44077D01*
X45923Y-51077D01*
X46022Y-51156D01*
X46116Y-51240D01*
X46158Y-51264D01*
X46196Y-51294D01*
X46310Y-51348D01*
X46421Y-51409D01*
X46467Y-51422D01*
X46511Y-51443D01*
X46634Y-51469D01*
X46756Y-51504D01*
X46817Y-51509D01*
X46852Y-51516D01*
X46900Y-51515D01*
X47000Y-51523D01*
X93000Y-51523D01*
X93026Y-51520D01*
G37*
M02*
