G04 EAGLE Gerber X2 export*
%TF.Part,Single*%
%TF.FileFunction,Other,stiffener on top layer*%
%TF.FilePolarity,Positive*%
%TF.GenerationSoftware,Autodesk,EAGLE,9.6.2*%
%TF.CreationDate,2021-11-14T09:40:45Z*%
G75*
%MOMM*%
%FSLAX34Y34*%
%LPD*%
%INstiffener top*%
%AMOC8*
5,1,8,0,0,1.08239X$1,22.5*%
G01*
%ADD10R,3.500000X1.500000*%

G36*
X789618Y-46254D02*
X789618Y-46254D01*
X789737Y-46247D01*
X789775Y-46234D01*
X789816Y-46229D01*
X789926Y-46186D01*
X790039Y-46149D01*
X790074Y-46127D01*
X790111Y-46112D01*
X790207Y-46043D01*
X790308Y-45979D01*
X790336Y-45949D01*
X790369Y-45926D01*
X790445Y-45834D01*
X790526Y-45747D01*
X790546Y-45712D01*
X790571Y-45681D01*
X790622Y-45573D01*
X790680Y-45469D01*
X790690Y-45429D01*
X790707Y-45393D01*
X790729Y-45276D01*
X790759Y-45161D01*
X790763Y-45101D01*
X790767Y-45081D01*
X790765Y-45060D01*
X790769Y-45000D01*
X790769Y105000D01*
X790754Y105118D01*
X790747Y105237D01*
X790734Y105275D01*
X790729Y105316D01*
X790686Y105426D01*
X790649Y105539D01*
X790627Y105574D01*
X790612Y105611D01*
X790543Y105707D01*
X790479Y105808D01*
X790449Y105836D01*
X790426Y105869D01*
X790334Y105945D01*
X790247Y106026D01*
X790212Y106046D01*
X790181Y106071D01*
X790073Y106122D01*
X789969Y106180D01*
X789929Y106190D01*
X789893Y106207D01*
X789776Y106229D01*
X789661Y106259D01*
X789601Y106263D01*
X789581Y106267D01*
X789560Y106265D01*
X789500Y106269D01*
X615000Y106269D01*
X614882Y106254D01*
X614763Y106247D01*
X614725Y106234D01*
X614684Y106229D01*
X614574Y106186D01*
X614461Y106149D01*
X614426Y106127D01*
X614389Y106112D01*
X614293Y106043D01*
X614192Y105979D01*
X614164Y105949D01*
X614131Y105926D01*
X614056Y105834D01*
X613974Y105747D01*
X613954Y105712D01*
X613929Y105681D01*
X613878Y105573D01*
X613820Y105469D01*
X613810Y105429D01*
X613793Y105393D01*
X613771Y105276D01*
X613741Y105161D01*
X613737Y105101D01*
X613733Y105081D01*
X613735Y105060D01*
X613731Y105000D01*
X613731Y-45000D01*
X613746Y-45118D01*
X613753Y-45237D01*
X613766Y-45275D01*
X613771Y-45316D01*
X613814Y-45426D01*
X613851Y-45539D01*
X613873Y-45574D01*
X613888Y-45611D01*
X613958Y-45707D01*
X614021Y-45808D01*
X614051Y-45836D01*
X614074Y-45869D01*
X614166Y-45945D01*
X614253Y-46026D01*
X614288Y-46046D01*
X614319Y-46071D01*
X614427Y-46122D01*
X614531Y-46180D01*
X614571Y-46190D01*
X614607Y-46207D01*
X614724Y-46229D01*
X614839Y-46259D01*
X614900Y-46263D01*
X614920Y-46267D01*
X614940Y-46265D01*
X615000Y-46269D01*
X789500Y-46269D01*
X789618Y-46254D01*
G37*
G36*
X214026Y-98520D02*
X214026Y-98520D01*
X214052Y-98522D01*
X214199Y-98500D01*
X214346Y-98483D01*
X214371Y-98475D01*
X214397Y-98471D01*
X214535Y-98416D01*
X214674Y-98366D01*
X214696Y-98352D01*
X214721Y-98342D01*
X214842Y-98257D01*
X214967Y-98177D01*
X214985Y-98158D01*
X215007Y-98143D01*
X215106Y-98033D01*
X215209Y-97926D01*
X215223Y-97904D01*
X215240Y-97884D01*
X215312Y-97754D01*
X215388Y-97627D01*
X215396Y-97602D01*
X215409Y-97579D01*
X215449Y-97436D01*
X215494Y-97295D01*
X215496Y-97269D01*
X215504Y-97244D01*
X215523Y-97000D01*
X215523Y-74000D01*
X215520Y-73974D01*
X215522Y-73948D01*
X215500Y-73801D01*
X215483Y-73654D01*
X215475Y-73629D01*
X215471Y-73603D01*
X215416Y-73465D01*
X215366Y-73326D01*
X215352Y-73304D01*
X215342Y-73279D01*
X215257Y-73158D01*
X215177Y-73033D01*
X215158Y-73015D01*
X215143Y-72993D01*
X215033Y-72894D01*
X214926Y-72791D01*
X214904Y-72777D01*
X214884Y-72760D01*
X214754Y-72688D01*
X214627Y-72612D01*
X214602Y-72604D01*
X214579Y-72591D01*
X214436Y-72551D01*
X214295Y-72506D01*
X214269Y-72504D01*
X214244Y-72496D01*
X214000Y-72477D01*
X187631Y-72477D01*
X178077Y-62923D01*
X177978Y-62844D01*
X177884Y-62760D01*
X177842Y-62736D01*
X177804Y-62706D01*
X177690Y-62652D01*
X177579Y-62591D01*
X177533Y-62578D01*
X177489Y-62557D01*
X177366Y-62531D01*
X177244Y-62496D01*
X177183Y-62492D01*
X177148Y-62484D01*
X177100Y-62485D01*
X177000Y-62477D01*
X162631Y-62477D01*
X152077Y-51923D01*
X151978Y-51844D01*
X151884Y-51760D01*
X151842Y-51736D01*
X151804Y-51706D01*
X151690Y-51652D01*
X151579Y-51591D01*
X151533Y-51578D01*
X151489Y-51557D01*
X151366Y-51531D01*
X151244Y-51496D01*
X151183Y-51492D01*
X151148Y-51484D01*
X151100Y-51485D01*
X151000Y-51477D01*
X118000Y-51477D01*
X117874Y-51491D01*
X117748Y-51498D01*
X117702Y-51511D01*
X117654Y-51517D01*
X117535Y-51559D01*
X117413Y-51594D01*
X117371Y-51618D01*
X117326Y-51634D01*
X117219Y-51703D01*
X117109Y-51764D01*
X117063Y-51804D01*
X117033Y-51823D01*
X116999Y-51858D01*
X116923Y-51923D01*
X108369Y-60477D01*
X82000Y-60477D01*
X81874Y-60491D01*
X81748Y-60498D01*
X81702Y-60511D01*
X81654Y-60517D01*
X81535Y-60559D01*
X81413Y-60594D01*
X81371Y-60618D01*
X81326Y-60634D01*
X81219Y-60703D01*
X81109Y-60764D01*
X81063Y-60804D01*
X81033Y-60823D01*
X80999Y-60858D01*
X80923Y-60923D01*
X72923Y-68923D01*
X72844Y-69022D01*
X72760Y-69116D01*
X72736Y-69158D01*
X72706Y-69196D01*
X72652Y-69310D01*
X72591Y-69421D01*
X72578Y-69467D01*
X72557Y-69511D01*
X72531Y-69634D01*
X72496Y-69756D01*
X72492Y-69817D01*
X72484Y-69852D01*
X72485Y-69900D01*
X72477Y-70000D01*
X72477Y-84000D01*
X72491Y-84126D01*
X72498Y-84252D01*
X72511Y-84298D01*
X72517Y-84346D01*
X72559Y-84465D01*
X72594Y-84587D01*
X72618Y-84629D01*
X72634Y-84674D01*
X72703Y-84781D01*
X72764Y-84891D01*
X72804Y-84937D01*
X72823Y-84967D01*
X72858Y-85001D01*
X72923Y-85077D01*
X85923Y-98077D01*
X86022Y-98156D01*
X86116Y-98240D01*
X86158Y-98264D01*
X86196Y-98294D01*
X86310Y-98348D01*
X86421Y-98409D01*
X86467Y-98422D01*
X86511Y-98443D01*
X86634Y-98469D01*
X86756Y-98504D01*
X86817Y-98509D01*
X86852Y-98516D01*
X86900Y-98515D01*
X87000Y-98523D01*
X214000Y-98523D01*
X214026Y-98520D01*
G37*
D10*
X291500Y-48500D03*
M02*
