%
M48
M72
T01C0.0138
T02C0.0157
T03C0.0197
T04C0.0315
T05C0.0360
T06C0.0394
T07C0.0512
T08C0.0630
T09C0.0906
%
T01
X5183Y15933
X8883Y30633
X11433Y21083
X8383Y30733
X21233Y28283
X19433Y30283
T02
X3383Y10983
X6883Y7483
X7333Y6633
X10033Y6733
X10983Y7683
X11708Y10558
X12783Y13583
X13183Y15183
X10633Y17733
X8183Y16883
X6383Y15083
X5383Y14083
X4783Y13483
X2483Y12083
X9133Y7983
X14783Y13583
X8983Y18683
X3508Y9108
X13383Y10433
X10183Y15783
X7583Y16283
X6983Y15683
X3333Y6683
X5150Y9267
X24833Y32183
X17283Y33133
X13756Y14811
X12533Y17883
X12633Y9333
X11733Y5883
X11733Y4833
X24833Y31783
X24133Y33183
X12333Y6783
X8283Y32683
X833Y8783
X13383Y12783
X9333Y16733
X11433Y16633
X10783Y10933
X9733Y8383
X4283Y11983
X8333Y6333
X19683Y8283
X18983Y8383
X18283Y8683
X24783Y7833
X24383Y7383
X23983Y5883
X23383Y5483
X24983Y6783
X25383Y7233
X23983Y5083
X23383Y4683
X13333Y17083
X10833Y19883
X11533Y20483
X12583Y16783
X9233Y15783
X8833Y15283
X7183Y16108
X7933Y14483
X7233Y13783
X6633Y13183
X6033Y12483
X3633Y16183
X3733Y16683
X933Y16083
X1833Y16583
X1933Y13333
X5433Y6683
X833Y7583
X11133Y5583
X12783Y6933
X14733Y5383
X13733Y6283
X13733Y3983
X15233Y4383
X10033Y4783
X14733Y9283
X15483Y9433
X17333Y12808
X13733Y12383
X15833Y14733
X22133Y16133
X21833Y14833
X23133Y14833
X18983Y16083
X20283Y17833
X19133Y18183
X16683Y15683
X16683Y14983
X7833Y29083
X8533Y33083
X12133Y32958
X13333Y32958
X10683Y33633
X9883Y31933
X17733Y31183
X18983Y31383
X20183Y31683
X21083Y30883
X20583Y32583
X22633Y32883
X14933Y30983
X17033Y28583
X17033Y29383
X18383Y26083
X19483Y26083
X14083Y26033
X15783Y35183
X11883Y36833
X12483Y36833
X13083Y36833
X13683Y36833
X11833Y14133
X12483Y11033
X12608Y12308
X10533Y14183
X23733Y31783
X14983Y28833
X9683Y18433
X23433Y18233
X23433Y17533
X26333Y18733
X10333Y14683
X16033Y7933
X11508Y10058
X1583Y10583
X7683Y8583
X12783Y27583
X17233Y30683
X7133Y32283
X9033Y4383
X8133Y5283
X15908Y7333
X17333Y5708
X7333Y4583
X7333Y3833
X16333Y3583
X16333Y26033
X7483Y9183
X6933Y9583
X10383Y7333
X11383Y8333
X14083Y33083
X16183Y9183
X11833Y23783
X13433Y18583
X14233Y16183
X7233Y10883
X17483Y33883
X15283Y32033
X5583Y17233
X8633Y17583
X3933Y7683
X14833Y14883
X21683Y33883
X24133Y33883
X23433Y37383
X7133Y30983
X7033Y28683
X7333Y27283
X15383Y33183
X15383Y30883
X14433Y31733
X9733Y31183
X14933Y32383
X10433Y30463
X8391Y30069
X4233Y19083
X11151Y27583
X9483Y32249
X14533Y27033
X16183Y27533
X12135Y30783
X13316Y30783
X15583Y30583
X15633Y29783
X14083Y32233
X11348Y32033
X4633Y9983
X2016Y9233
X9283Y9683
X24433Y11783
X8683Y9083
X25233Y12083
X8983Y9383
X24833Y12083
X9283Y10083
X24133Y11483
X10783Y10183
X10833Y14873
X11433Y25383
X13483Y24783
X9983Y10783
X11533Y14816
X4033Y12983
X10983Y19383
X11933Y23283
X14683Y7883
X12611Y6461
T03
X9833Y4249
X10433Y4249
X1433Y11983
X1433Y11483
X1433Y13583
X1433Y14083
X15933Y5233
X15933Y6033
X15933Y5633
X18533Y13383
X18533Y12883
X19033Y12883
X19033Y13383
X20433Y17283
X20933Y17283
X12683Y11433
X12283Y11833
X17733Y14483
X18133Y14883
X18833Y15683
X19333Y15683
X1033Y4683
X1033Y4083
X1033Y3483
X1883Y3483
X1883Y4083
X1883Y4683
X4683Y3483
X4683Y4083
X4683Y4683
X18933Y4783
X18933Y5383
X18933Y3583
X19533Y3583
X20133Y3583
X20733Y3583
X19533Y4783
X20133Y4183
X19533Y4183
X18933Y4183
X2633Y19183
X2633Y19783
X3233Y19783
X3233Y19183
X2633Y18583
X3833Y19783
X1433Y17583
X833Y17583
X833Y16983
X21333Y9858
X21933Y9858
X22533Y9858
X23133Y9858
X23733Y9858
X23833Y26233
X21833Y26233
X21833Y25633
X23833Y25633
X20533Y28483
X20533Y28033
X19433Y28483
X19433Y28033
X18333Y28483
X18333Y28033
T04
X11533Y28483
X11533Y29883
X12933Y29883
X12933Y28483
X8833Y13783
X7583Y12533
X10083Y12533
X8833Y11283
X8233Y13158
X8233Y11908
X9458Y11908
X9458Y13158
T05
X22833Y26833
X22833Y25833
T06
X25833Y13483
X24833Y13483
X25833Y14483
X24833Y14483
X25833Y15483
X24833Y15483
X25833Y16483
X24833Y16483
X25833Y17483
X24833Y17483
T07
X16288Y36427
X10579Y36427
X16524Y38356
X10343Y38356
T08
X12233Y29183
X8833Y12533
T09
X22633Y36083
X24333Y36083
M30
