G75*
%MOIN*%
%OFA0B0*%
%FSLAX25Y25*%
%IPPOS*%
%LPD*%
%AMOC8*
5,1,8,0,0,1.08239X$1,22.5*
%
%ADD10C,0.00000*%
%ADD11C,0.00800*%
%ADD12C,0.00600*%
%ADD13C,0.00500*%
D10*
X0005833Y0030833D02*
X0003333Y0033333D01*
X0003333Y0200833D01*
X0005833Y0203333D01*
X0047833Y0203333D01*
X0075833Y0231333D01*
X0075833Y0258333D01*
X0065333Y0268833D01*
X0065333Y0333333D01*
X0067833Y0335833D01*
X0086833Y0335833D01*
X0089333Y0338333D01*
X0089333Y0387333D01*
X0091833Y0389833D01*
X0177333Y0389833D01*
X0179833Y0387333D01*
X0179833Y0338333D01*
X0182333Y0335833D01*
X0209833Y0335833D01*
X0212333Y0338333D01*
X0212333Y0377333D01*
X0214833Y0379833D01*
X0252833Y0379833D01*
X0255333Y0377333D01*
X0255333Y0243333D01*
X0252833Y0240833D01*
X0157333Y0240833D01*
X0157333Y0195333D01*
X0166833Y0185833D01*
X0166833Y0175833D01*
X0169333Y0173333D01*
X0175333Y0173333D01*
X0177833Y0175833D01*
X0177833Y0189333D01*
X0183333Y0194833D01*
X0265833Y0194833D01*
X0268333Y0192333D01*
X0268333Y0033333D01*
X0265833Y0030833D01*
X0180333Y0030833D01*
X0177833Y0033333D01*
X0177833Y0049833D01*
X0175333Y0052333D01*
X0170333Y0052333D01*
X0167833Y0049833D01*
X0167833Y0033333D01*
X0165333Y0030833D01*
X0005833Y0030833D01*
X0221805Y0360833D02*
X0221807Y0360967D01*
X0221813Y0361101D01*
X0221823Y0361235D01*
X0221837Y0361369D01*
X0221855Y0361502D01*
X0221876Y0361634D01*
X0221902Y0361766D01*
X0221932Y0361897D01*
X0221965Y0362027D01*
X0222002Y0362155D01*
X0222044Y0362283D01*
X0222088Y0362410D01*
X0222137Y0362535D01*
X0222189Y0362658D01*
X0222245Y0362780D01*
X0222305Y0362901D01*
X0222368Y0363019D01*
X0222434Y0363136D01*
X0222504Y0363250D01*
X0222577Y0363363D01*
X0222654Y0363473D01*
X0222734Y0363581D01*
X0222817Y0363686D01*
X0222903Y0363789D01*
X0222992Y0363889D01*
X0223084Y0363987D01*
X0223179Y0364082D01*
X0223277Y0364174D01*
X0223377Y0364263D01*
X0223480Y0364349D01*
X0223585Y0364432D01*
X0223693Y0364512D01*
X0223803Y0364589D01*
X0223916Y0364662D01*
X0224030Y0364732D01*
X0224147Y0364798D01*
X0224265Y0364861D01*
X0224386Y0364921D01*
X0224508Y0364977D01*
X0224631Y0365029D01*
X0224756Y0365078D01*
X0224883Y0365122D01*
X0225011Y0365164D01*
X0225139Y0365201D01*
X0225269Y0365234D01*
X0225400Y0365264D01*
X0225532Y0365290D01*
X0225664Y0365311D01*
X0225797Y0365329D01*
X0225931Y0365343D01*
X0226065Y0365353D01*
X0226199Y0365359D01*
X0226333Y0365361D01*
X0226467Y0365359D01*
X0226601Y0365353D01*
X0226735Y0365343D01*
X0226869Y0365329D01*
X0227002Y0365311D01*
X0227134Y0365290D01*
X0227266Y0365264D01*
X0227397Y0365234D01*
X0227527Y0365201D01*
X0227655Y0365164D01*
X0227783Y0365122D01*
X0227910Y0365078D01*
X0228035Y0365029D01*
X0228158Y0364977D01*
X0228280Y0364921D01*
X0228401Y0364861D01*
X0228519Y0364798D01*
X0228636Y0364732D01*
X0228750Y0364662D01*
X0228863Y0364589D01*
X0228973Y0364512D01*
X0229081Y0364432D01*
X0229186Y0364349D01*
X0229289Y0364263D01*
X0229389Y0364174D01*
X0229487Y0364082D01*
X0229582Y0363987D01*
X0229674Y0363889D01*
X0229763Y0363789D01*
X0229849Y0363686D01*
X0229932Y0363581D01*
X0230012Y0363473D01*
X0230089Y0363363D01*
X0230162Y0363250D01*
X0230232Y0363136D01*
X0230298Y0363019D01*
X0230361Y0362901D01*
X0230421Y0362780D01*
X0230477Y0362658D01*
X0230529Y0362535D01*
X0230578Y0362410D01*
X0230622Y0362283D01*
X0230664Y0362155D01*
X0230701Y0362027D01*
X0230734Y0361897D01*
X0230764Y0361766D01*
X0230790Y0361634D01*
X0230811Y0361502D01*
X0230829Y0361369D01*
X0230843Y0361235D01*
X0230853Y0361101D01*
X0230859Y0360967D01*
X0230861Y0360833D01*
X0230859Y0360699D01*
X0230853Y0360565D01*
X0230843Y0360431D01*
X0230829Y0360297D01*
X0230811Y0360164D01*
X0230790Y0360032D01*
X0230764Y0359900D01*
X0230734Y0359769D01*
X0230701Y0359639D01*
X0230664Y0359511D01*
X0230622Y0359383D01*
X0230578Y0359256D01*
X0230529Y0359131D01*
X0230477Y0359008D01*
X0230421Y0358886D01*
X0230361Y0358765D01*
X0230298Y0358647D01*
X0230232Y0358530D01*
X0230162Y0358416D01*
X0230089Y0358303D01*
X0230012Y0358193D01*
X0229932Y0358085D01*
X0229849Y0357980D01*
X0229763Y0357877D01*
X0229674Y0357777D01*
X0229582Y0357679D01*
X0229487Y0357584D01*
X0229389Y0357492D01*
X0229289Y0357403D01*
X0229186Y0357317D01*
X0229081Y0357234D01*
X0228973Y0357154D01*
X0228863Y0357077D01*
X0228750Y0357004D01*
X0228636Y0356934D01*
X0228519Y0356868D01*
X0228401Y0356805D01*
X0228280Y0356745D01*
X0228158Y0356689D01*
X0228035Y0356637D01*
X0227910Y0356588D01*
X0227783Y0356544D01*
X0227655Y0356502D01*
X0227527Y0356465D01*
X0227397Y0356432D01*
X0227266Y0356402D01*
X0227134Y0356376D01*
X0227002Y0356355D01*
X0226869Y0356337D01*
X0226735Y0356323D01*
X0226601Y0356313D01*
X0226467Y0356307D01*
X0226333Y0356305D01*
X0226199Y0356307D01*
X0226065Y0356313D01*
X0225931Y0356323D01*
X0225797Y0356337D01*
X0225664Y0356355D01*
X0225532Y0356376D01*
X0225400Y0356402D01*
X0225269Y0356432D01*
X0225139Y0356465D01*
X0225011Y0356502D01*
X0224883Y0356544D01*
X0224756Y0356588D01*
X0224631Y0356637D01*
X0224508Y0356689D01*
X0224386Y0356745D01*
X0224265Y0356805D01*
X0224147Y0356868D01*
X0224030Y0356934D01*
X0223916Y0357004D01*
X0223803Y0357077D01*
X0223693Y0357154D01*
X0223585Y0357234D01*
X0223480Y0357317D01*
X0223377Y0357403D01*
X0223277Y0357492D01*
X0223179Y0357584D01*
X0223084Y0357679D01*
X0222992Y0357777D01*
X0222903Y0357877D01*
X0222817Y0357980D01*
X0222734Y0358085D01*
X0222654Y0358193D01*
X0222577Y0358303D01*
X0222504Y0358416D01*
X0222434Y0358530D01*
X0222368Y0358647D01*
X0222305Y0358765D01*
X0222245Y0358886D01*
X0222189Y0359008D01*
X0222137Y0359131D01*
X0222088Y0359256D01*
X0222044Y0359383D01*
X0222002Y0359511D01*
X0221965Y0359639D01*
X0221932Y0359769D01*
X0221902Y0359900D01*
X0221876Y0360032D01*
X0221855Y0360164D01*
X0221837Y0360297D01*
X0221823Y0360431D01*
X0221813Y0360565D01*
X0221807Y0360699D01*
X0221805Y0360833D01*
X0238805Y0360833D02*
X0238807Y0360967D01*
X0238813Y0361101D01*
X0238823Y0361235D01*
X0238837Y0361369D01*
X0238855Y0361502D01*
X0238876Y0361634D01*
X0238902Y0361766D01*
X0238932Y0361897D01*
X0238965Y0362027D01*
X0239002Y0362155D01*
X0239044Y0362283D01*
X0239088Y0362410D01*
X0239137Y0362535D01*
X0239189Y0362658D01*
X0239245Y0362780D01*
X0239305Y0362901D01*
X0239368Y0363019D01*
X0239434Y0363136D01*
X0239504Y0363250D01*
X0239577Y0363363D01*
X0239654Y0363473D01*
X0239734Y0363581D01*
X0239817Y0363686D01*
X0239903Y0363789D01*
X0239992Y0363889D01*
X0240084Y0363987D01*
X0240179Y0364082D01*
X0240277Y0364174D01*
X0240377Y0364263D01*
X0240480Y0364349D01*
X0240585Y0364432D01*
X0240693Y0364512D01*
X0240803Y0364589D01*
X0240916Y0364662D01*
X0241030Y0364732D01*
X0241147Y0364798D01*
X0241265Y0364861D01*
X0241386Y0364921D01*
X0241508Y0364977D01*
X0241631Y0365029D01*
X0241756Y0365078D01*
X0241883Y0365122D01*
X0242011Y0365164D01*
X0242139Y0365201D01*
X0242269Y0365234D01*
X0242400Y0365264D01*
X0242532Y0365290D01*
X0242664Y0365311D01*
X0242797Y0365329D01*
X0242931Y0365343D01*
X0243065Y0365353D01*
X0243199Y0365359D01*
X0243333Y0365361D01*
X0243467Y0365359D01*
X0243601Y0365353D01*
X0243735Y0365343D01*
X0243869Y0365329D01*
X0244002Y0365311D01*
X0244134Y0365290D01*
X0244266Y0365264D01*
X0244397Y0365234D01*
X0244527Y0365201D01*
X0244655Y0365164D01*
X0244783Y0365122D01*
X0244910Y0365078D01*
X0245035Y0365029D01*
X0245158Y0364977D01*
X0245280Y0364921D01*
X0245401Y0364861D01*
X0245519Y0364798D01*
X0245636Y0364732D01*
X0245750Y0364662D01*
X0245863Y0364589D01*
X0245973Y0364512D01*
X0246081Y0364432D01*
X0246186Y0364349D01*
X0246289Y0364263D01*
X0246389Y0364174D01*
X0246487Y0364082D01*
X0246582Y0363987D01*
X0246674Y0363889D01*
X0246763Y0363789D01*
X0246849Y0363686D01*
X0246932Y0363581D01*
X0247012Y0363473D01*
X0247089Y0363363D01*
X0247162Y0363250D01*
X0247232Y0363136D01*
X0247298Y0363019D01*
X0247361Y0362901D01*
X0247421Y0362780D01*
X0247477Y0362658D01*
X0247529Y0362535D01*
X0247578Y0362410D01*
X0247622Y0362283D01*
X0247664Y0362155D01*
X0247701Y0362027D01*
X0247734Y0361897D01*
X0247764Y0361766D01*
X0247790Y0361634D01*
X0247811Y0361502D01*
X0247829Y0361369D01*
X0247843Y0361235D01*
X0247853Y0361101D01*
X0247859Y0360967D01*
X0247861Y0360833D01*
X0247859Y0360699D01*
X0247853Y0360565D01*
X0247843Y0360431D01*
X0247829Y0360297D01*
X0247811Y0360164D01*
X0247790Y0360032D01*
X0247764Y0359900D01*
X0247734Y0359769D01*
X0247701Y0359639D01*
X0247664Y0359511D01*
X0247622Y0359383D01*
X0247578Y0359256D01*
X0247529Y0359131D01*
X0247477Y0359008D01*
X0247421Y0358886D01*
X0247361Y0358765D01*
X0247298Y0358647D01*
X0247232Y0358530D01*
X0247162Y0358416D01*
X0247089Y0358303D01*
X0247012Y0358193D01*
X0246932Y0358085D01*
X0246849Y0357980D01*
X0246763Y0357877D01*
X0246674Y0357777D01*
X0246582Y0357679D01*
X0246487Y0357584D01*
X0246389Y0357492D01*
X0246289Y0357403D01*
X0246186Y0357317D01*
X0246081Y0357234D01*
X0245973Y0357154D01*
X0245863Y0357077D01*
X0245750Y0357004D01*
X0245636Y0356934D01*
X0245519Y0356868D01*
X0245401Y0356805D01*
X0245280Y0356745D01*
X0245158Y0356689D01*
X0245035Y0356637D01*
X0244910Y0356588D01*
X0244783Y0356544D01*
X0244655Y0356502D01*
X0244527Y0356465D01*
X0244397Y0356432D01*
X0244266Y0356402D01*
X0244134Y0356376D01*
X0244002Y0356355D01*
X0243869Y0356337D01*
X0243735Y0356323D01*
X0243601Y0356313D01*
X0243467Y0356307D01*
X0243333Y0356305D01*
X0243199Y0356307D01*
X0243065Y0356313D01*
X0242931Y0356323D01*
X0242797Y0356337D01*
X0242664Y0356355D01*
X0242532Y0356376D01*
X0242400Y0356402D01*
X0242269Y0356432D01*
X0242139Y0356465D01*
X0242011Y0356502D01*
X0241883Y0356544D01*
X0241756Y0356588D01*
X0241631Y0356637D01*
X0241508Y0356689D01*
X0241386Y0356745D01*
X0241265Y0356805D01*
X0241147Y0356868D01*
X0241030Y0356934D01*
X0240916Y0357004D01*
X0240803Y0357077D01*
X0240693Y0357154D01*
X0240585Y0357234D01*
X0240480Y0357317D01*
X0240377Y0357403D01*
X0240277Y0357492D01*
X0240179Y0357584D01*
X0240084Y0357679D01*
X0239992Y0357777D01*
X0239903Y0357877D01*
X0239817Y0357980D01*
X0239734Y0358085D01*
X0239654Y0358193D01*
X0239577Y0358303D01*
X0239504Y0358416D01*
X0239434Y0358530D01*
X0239368Y0358647D01*
X0239305Y0358765D01*
X0239245Y0358886D01*
X0239189Y0359008D01*
X0239137Y0359131D01*
X0239088Y0359256D01*
X0239044Y0359383D01*
X0239002Y0359511D01*
X0238965Y0359639D01*
X0238932Y0359769D01*
X0238902Y0359900D01*
X0238876Y0360032D01*
X0238855Y0360164D01*
X0238837Y0360297D01*
X0238823Y0360431D01*
X0238813Y0360565D01*
X0238807Y0360699D01*
X0238805Y0360833D01*
D11*
X0239933Y0248933D02*
X0237600Y0244733D01*
X0237600Y0248933D01*
X0239933Y0248933D02*
X0239933Y0244733D01*
X0235283Y0245900D02*
X0235283Y0247067D01*
X0233883Y0247067D01*
X0235284Y0247067D02*
X0235282Y0247151D01*
X0235276Y0247234D01*
X0235267Y0247318D01*
X0235254Y0247400D01*
X0235237Y0247482D01*
X0235217Y0247564D01*
X0235193Y0247644D01*
X0235165Y0247723D01*
X0235134Y0247801D01*
X0235099Y0247877D01*
X0235061Y0247952D01*
X0235020Y0248025D01*
X0234975Y0248096D01*
X0234927Y0248164D01*
X0234877Y0248231D01*
X0234823Y0248295D01*
X0234766Y0248357D01*
X0234707Y0248416D01*
X0234645Y0248473D01*
X0234581Y0248527D01*
X0234514Y0248577D01*
X0234446Y0248625D01*
X0234375Y0248670D01*
X0234302Y0248711D01*
X0234227Y0248749D01*
X0234151Y0248784D01*
X0234073Y0248815D01*
X0233994Y0248843D01*
X0233914Y0248867D01*
X0233832Y0248887D01*
X0233750Y0248904D01*
X0233668Y0248917D01*
X0233584Y0248926D01*
X0233501Y0248932D01*
X0233417Y0248934D01*
X0233883Y0247066D02*
X0233822Y0247064D01*
X0233761Y0247058D01*
X0233701Y0247048D01*
X0233642Y0247034D01*
X0233583Y0247016D01*
X0233526Y0246995D01*
X0233470Y0246970D01*
X0233417Y0246941D01*
X0233365Y0246909D01*
X0233315Y0246873D01*
X0233268Y0246834D01*
X0233223Y0246793D01*
X0233182Y0246748D01*
X0233143Y0246701D01*
X0233107Y0246651D01*
X0233075Y0246600D01*
X0233046Y0246546D01*
X0233021Y0246490D01*
X0233000Y0246433D01*
X0232982Y0246374D01*
X0232968Y0246315D01*
X0232958Y0246255D01*
X0232952Y0246194D01*
X0232950Y0246133D01*
X0232950Y0245900D01*
X0232952Y0245833D01*
X0232958Y0245767D01*
X0232967Y0245701D01*
X0232980Y0245636D01*
X0232997Y0245571D01*
X0233018Y0245508D01*
X0233042Y0245446D01*
X0233070Y0245385D01*
X0233101Y0245326D01*
X0233135Y0245269D01*
X0233173Y0245214D01*
X0233214Y0245161D01*
X0233257Y0245111D01*
X0233304Y0245063D01*
X0233353Y0245018D01*
X0233404Y0244976D01*
X0233458Y0244937D01*
X0233514Y0244901D01*
X0233572Y0244868D01*
X0233632Y0244838D01*
X0233694Y0244813D01*
X0233756Y0244790D01*
X0233820Y0244771D01*
X0233885Y0244756D01*
X0233951Y0244745D01*
X0234017Y0244737D01*
X0234084Y0244733D01*
X0234150Y0244733D01*
X0234217Y0244737D01*
X0234283Y0244745D01*
X0234349Y0244756D01*
X0234414Y0244771D01*
X0234478Y0244790D01*
X0234540Y0244813D01*
X0234602Y0244838D01*
X0234662Y0244868D01*
X0234720Y0244901D01*
X0234776Y0244937D01*
X0234830Y0244976D01*
X0234881Y0245018D01*
X0234930Y0245063D01*
X0234977Y0245111D01*
X0235020Y0245161D01*
X0235061Y0245214D01*
X0235099Y0245269D01*
X0235133Y0245326D01*
X0235164Y0245385D01*
X0235192Y0245446D01*
X0235216Y0245508D01*
X0235237Y0245571D01*
X0235254Y0245636D01*
X0235267Y0245701D01*
X0235276Y0245767D01*
X0235282Y0245833D01*
X0235284Y0245900D01*
X0230783Y0245667D02*
X0228450Y0245667D01*
X0229150Y0246600D02*
X0229150Y0244733D01*
X0230783Y0245667D02*
X0229850Y0248933D01*
X0225117Y0248933D02*
X0223717Y0244733D01*
X0224067Y0245783D02*
X0226167Y0245783D01*
X0226517Y0244733D02*
X0225117Y0248933D01*
X0222000Y0247533D02*
X0221067Y0244733D01*
X0220133Y0247533D01*
X0216200Y0247066D02*
X0216154Y0247113D01*
X0216111Y0247161D01*
X0216071Y0247213D01*
X0216033Y0247266D01*
X0215999Y0247322D01*
X0215969Y0247379D01*
X0215941Y0247439D01*
X0215917Y0247499D01*
X0215897Y0247561D01*
X0215880Y0247624D01*
X0215867Y0247688D01*
X0215858Y0247753D01*
X0215852Y0247818D01*
X0215850Y0247883D01*
X0216200Y0247067D02*
X0218183Y0244733D01*
X0215850Y0244733D01*
X0213900Y0244267D02*
X0212033Y0244267D01*
X0210083Y0244733D02*
X0207750Y0244733D01*
X0210083Y0244733D02*
X0208100Y0247067D01*
X0208800Y0248933D02*
X0208871Y0248931D01*
X0208941Y0248926D01*
X0209011Y0248916D01*
X0209081Y0248903D01*
X0209149Y0248887D01*
X0209217Y0248867D01*
X0209284Y0248843D01*
X0209349Y0248816D01*
X0209413Y0248786D01*
X0209475Y0248752D01*
X0209535Y0248715D01*
X0209593Y0248675D01*
X0209650Y0248632D01*
X0209703Y0248586D01*
X0209754Y0248537D01*
X0209803Y0248486D01*
X0209849Y0248432D01*
X0209892Y0248376D01*
X0209932Y0248318D01*
X0209969Y0248258D01*
X0210002Y0248195D01*
X0210033Y0248132D01*
X0210060Y0248066D01*
X0210083Y0248000D01*
X0208100Y0247066D02*
X0208054Y0247113D01*
X0208011Y0247161D01*
X0207971Y0247213D01*
X0207933Y0247266D01*
X0207899Y0247322D01*
X0207869Y0247379D01*
X0207841Y0247439D01*
X0207817Y0247499D01*
X0207797Y0247561D01*
X0207780Y0247624D01*
X0207767Y0247688D01*
X0207758Y0247753D01*
X0207752Y0247818D01*
X0207750Y0247883D01*
X0207752Y0247946D01*
X0207758Y0248010D01*
X0207767Y0248072D01*
X0207781Y0248134D01*
X0207798Y0248195D01*
X0207818Y0248255D01*
X0207843Y0248314D01*
X0207870Y0248371D01*
X0207901Y0248426D01*
X0207936Y0248479D01*
X0207973Y0248531D01*
X0208014Y0248579D01*
X0208058Y0248625D01*
X0208104Y0248669D01*
X0208152Y0248710D01*
X0208204Y0248747D01*
X0208257Y0248782D01*
X0208312Y0248813D01*
X0208369Y0248840D01*
X0208428Y0248865D01*
X0208488Y0248885D01*
X0208549Y0248902D01*
X0208611Y0248916D01*
X0208673Y0248925D01*
X0208737Y0248931D01*
X0208800Y0248933D01*
X0203250Y0246833D02*
X0203252Y0246721D01*
X0203257Y0246609D01*
X0203266Y0246497D01*
X0203279Y0246386D01*
X0203295Y0246275D01*
X0203315Y0246164D01*
X0203339Y0246055D01*
X0203366Y0245946D01*
X0203396Y0245838D01*
X0203430Y0245731D01*
X0203467Y0245625D01*
X0203508Y0245521D01*
X0203552Y0245418D01*
X0203600Y0245316D01*
X0204417Y0244734D02*
X0204473Y0244736D01*
X0204529Y0244741D01*
X0204585Y0244751D01*
X0204640Y0244763D01*
X0204694Y0244780D01*
X0204746Y0244799D01*
X0204798Y0244823D01*
X0204848Y0244849D01*
X0204895Y0244879D01*
X0204941Y0244911D01*
X0204985Y0244947D01*
X0205026Y0244986D01*
X0205065Y0245027D01*
X0205100Y0245070D01*
X0205133Y0245116D01*
X0205163Y0245164D01*
X0205190Y0245213D01*
X0205213Y0245264D01*
X0205233Y0245317D01*
X0205350Y0245667D02*
X0203483Y0248000D01*
X0203601Y0248350D02*
X0203621Y0248403D01*
X0203644Y0248454D01*
X0203671Y0248503D01*
X0203701Y0248551D01*
X0203734Y0248597D01*
X0203769Y0248640D01*
X0203808Y0248681D01*
X0203849Y0248720D01*
X0203893Y0248756D01*
X0203939Y0248788D01*
X0203986Y0248818D01*
X0204036Y0248844D01*
X0204088Y0248868D01*
X0204140Y0248887D01*
X0204194Y0248904D01*
X0204249Y0248916D01*
X0204305Y0248926D01*
X0204361Y0248931D01*
X0204417Y0248933D01*
X0204473Y0248931D01*
X0204529Y0248926D01*
X0204585Y0248916D01*
X0204640Y0248904D01*
X0204694Y0248887D01*
X0204746Y0248868D01*
X0204798Y0248844D01*
X0204848Y0248818D01*
X0204895Y0248788D01*
X0204941Y0248755D01*
X0204985Y0248720D01*
X0205026Y0248681D01*
X0205065Y0248640D01*
X0205100Y0248597D01*
X0205133Y0248551D01*
X0205163Y0248503D01*
X0205190Y0248454D01*
X0205213Y0248403D01*
X0205233Y0248350D01*
X0203600Y0248350D02*
X0203552Y0248248D01*
X0203508Y0248145D01*
X0203467Y0248041D01*
X0203430Y0247935D01*
X0203396Y0247828D01*
X0203366Y0247720D01*
X0203339Y0247611D01*
X0203315Y0247502D01*
X0203295Y0247391D01*
X0203279Y0247280D01*
X0203266Y0247169D01*
X0203257Y0247057D01*
X0203252Y0246945D01*
X0203250Y0246833D01*
X0205583Y0246833D02*
X0205581Y0246945D01*
X0205576Y0247057D01*
X0205567Y0247169D01*
X0205554Y0247280D01*
X0205538Y0247391D01*
X0205518Y0247502D01*
X0205494Y0247611D01*
X0205467Y0247720D01*
X0205437Y0247828D01*
X0205403Y0247935D01*
X0205366Y0248041D01*
X0205325Y0248145D01*
X0205281Y0248248D01*
X0205233Y0248350D01*
X0203601Y0245317D02*
X0203621Y0245264D01*
X0203644Y0245213D01*
X0203671Y0245164D01*
X0203701Y0245116D01*
X0203734Y0245070D01*
X0203769Y0245027D01*
X0203808Y0244986D01*
X0203849Y0244947D01*
X0203893Y0244911D01*
X0203939Y0244879D01*
X0203986Y0244849D01*
X0204036Y0244823D01*
X0204088Y0244799D01*
X0204140Y0244780D01*
X0204194Y0244763D01*
X0204249Y0244751D01*
X0204305Y0244741D01*
X0204361Y0244736D01*
X0204417Y0244734D01*
X0205233Y0245316D02*
X0205281Y0245418D01*
X0205325Y0245521D01*
X0205366Y0245625D01*
X0205403Y0245731D01*
X0205437Y0245838D01*
X0205467Y0245946D01*
X0205494Y0246055D01*
X0205518Y0246164D01*
X0205538Y0246275D01*
X0205554Y0246386D01*
X0205567Y0246497D01*
X0205576Y0246609D01*
X0205581Y0246721D01*
X0205583Y0246833D01*
X0201083Y0248000D02*
X0199917Y0248933D01*
X0199917Y0244733D01*
X0201083Y0244733D02*
X0198750Y0244733D01*
X0196584Y0245900D02*
X0196582Y0245833D01*
X0196576Y0245767D01*
X0196567Y0245701D01*
X0196554Y0245636D01*
X0196537Y0245571D01*
X0196516Y0245508D01*
X0196492Y0245446D01*
X0196464Y0245385D01*
X0196433Y0245326D01*
X0196399Y0245269D01*
X0196361Y0245214D01*
X0196320Y0245161D01*
X0196277Y0245111D01*
X0196230Y0245063D01*
X0196181Y0245018D01*
X0196130Y0244976D01*
X0196076Y0244937D01*
X0196020Y0244901D01*
X0195962Y0244868D01*
X0195902Y0244838D01*
X0195840Y0244813D01*
X0195778Y0244790D01*
X0195714Y0244771D01*
X0195649Y0244756D01*
X0195583Y0244745D01*
X0195517Y0244737D01*
X0195450Y0244733D01*
X0195384Y0244733D01*
X0195317Y0244737D01*
X0195251Y0244745D01*
X0195185Y0244756D01*
X0195120Y0244771D01*
X0195056Y0244790D01*
X0194994Y0244813D01*
X0194932Y0244838D01*
X0194872Y0244868D01*
X0194814Y0244901D01*
X0194758Y0244937D01*
X0194704Y0244976D01*
X0194653Y0245018D01*
X0194604Y0245063D01*
X0194557Y0245111D01*
X0194514Y0245161D01*
X0194473Y0245214D01*
X0194435Y0245269D01*
X0194401Y0245326D01*
X0194370Y0245385D01*
X0194342Y0245446D01*
X0194318Y0245508D01*
X0194297Y0245571D01*
X0194280Y0245636D01*
X0194267Y0245701D01*
X0194258Y0245767D01*
X0194252Y0245833D01*
X0194250Y0245900D01*
X0194252Y0245967D01*
X0194258Y0246033D01*
X0194267Y0246099D01*
X0194280Y0246164D01*
X0194297Y0246229D01*
X0194318Y0246292D01*
X0194342Y0246354D01*
X0194370Y0246415D01*
X0194401Y0246474D01*
X0194435Y0246531D01*
X0194473Y0246586D01*
X0194514Y0246639D01*
X0194557Y0246689D01*
X0194604Y0246737D01*
X0194653Y0246782D01*
X0194704Y0246824D01*
X0194758Y0246863D01*
X0194814Y0246899D01*
X0194872Y0246932D01*
X0194932Y0246962D01*
X0194994Y0246987D01*
X0195056Y0247010D01*
X0195120Y0247029D01*
X0195185Y0247044D01*
X0195251Y0247055D01*
X0195317Y0247063D01*
X0195384Y0247067D01*
X0195450Y0247067D01*
X0195517Y0247063D01*
X0195583Y0247055D01*
X0195649Y0247044D01*
X0195714Y0247029D01*
X0195778Y0247010D01*
X0195840Y0246987D01*
X0195902Y0246962D01*
X0195962Y0246932D01*
X0196020Y0246899D01*
X0196076Y0246863D01*
X0196130Y0246824D01*
X0196181Y0246782D01*
X0196230Y0246737D01*
X0196277Y0246689D01*
X0196320Y0246639D01*
X0196361Y0246586D01*
X0196399Y0246531D01*
X0196433Y0246474D01*
X0196464Y0246415D01*
X0196492Y0246354D01*
X0196516Y0246292D01*
X0196537Y0246229D01*
X0196554Y0246164D01*
X0196567Y0246099D01*
X0196576Y0246033D01*
X0196582Y0245967D01*
X0196584Y0245900D01*
X0196350Y0248000D02*
X0196348Y0247940D01*
X0196342Y0247881D01*
X0196333Y0247822D01*
X0196319Y0247763D01*
X0196302Y0247706D01*
X0196282Y0247650D01*
X0196258Y0247595D01*
X0196230Y0247542D01*
X0196199Y0247491D01*
X0196165Y0247442D01*
X0196127Y0247395D01*
X0196087Y0247351D01*
X0196044Y0247309D01*
X0195999Y0247271D01*
X0195951Y0247235D01*
X0195901Y0247202D01*
X0195849Y0247173D01*
X0195795Y0247147D01*
X0195739Y0247124D01*
X0195682Y0247106D01*
X0195625Y0247090D01*
X0195566Y0247079D01*
X0195507Y0247071D01*
X0195447Y0247067D01*
X0195387Y0247067D01*
X0195327Y0247071D01*
X0195268Y0247079D01*
X0195209Y0247090D01*
X0195152Y0247106D01*
X0195095Y0247124D01*
X0195039Y0247147D01*
X0194985Y0247173D01*
X0194933Y0247202D01*
X0194883Y0247235D01*
X0194835Y0247271D01*
X0194790Y0247309D01*
X0194747Y0247351D01*
X0194707Y0247395D01*
X0194669Y0247442D01*
X0194635Y0247491D01*
X0194604Y0247542D01*
X0194576Y0247595D01*
X0194552Y0247650D01*
X0194532Y0247706D01*
X0194515Y0247763D01*
X0194501Y0247822D01*
X0194492Y0247881D01*
X0194486Y0247940D01*
X0194484Y0248000D01*
X0194486Y0248060D01*
X0194492Y0248119D01*
X0194501Y0248178D01*
X0194515Y0248237D01*
X0194532Y0248294D01*
X0194552Y0248350D01*
X0194576Y0248405D01*
X0194604Y0248458D01*
X0194635Y0248509D01*
X0194669Y0248558D01*
X0194707Y0248605D01*
X0194747Y0248649D01*
X0194790Y0248691D01*
X0194835Y0248729D01*
X0194883Y0248765D01*
X0194933Y0248798D01*
X0194985Y0248827D01*
X0195039Y0248853D01*
X0195095Y0248876D01*
X0195152Y0248894D01*
X0195209Y0248910D01*
X0195268Y0248921D01*
X0195327Y0248929D01*
X0195387Y0248933D01*
X0195447Y0248933D01*
X0195507Y0248929D01*
X0195566Y0248921D01*
X0195625Y0248910D01*
X0195682Y0248894D01*
X0195739Y0248876D01*
X0195795Y0248853D01*
X0195849Y0248827D01*
X0195901Y0248798D01*
X0195951Y0248765D01*
X0195999Y0248729D01*
X0196044Y0248691D01*
X0196087Y0248649D01*
X0196127Y0248605D01*
X0196165Y0248558D01*
X0196199Y0248509D01*
X0196230Y0248458D01*
X0196258Y0248405D01*
X0196282Y0248350D01*
X0196302Y0248294D01*
X0196319Y0248237D01*
X0196333Y0248178D01*
X0196342Y0248119D01*
X0196348Y0248060D01*
X0196350Y0248000D01*
X0189750Y0246833D02*
X0189752Y0246721D01*
X0189757Y0246609D01*
X0189766Y0246497D01*
X0189779Y0246386D01*
X0189795Y0246275D01*
X0189815Y0246164D01*
X0189839Y0246055D01*
X0189866Y0245946D01*
X0189896Y0245838D01*
X0189930Y0245731D01*
X0189967Y0245625D01*
X0190008Y0245521D01*
X0190052Y0245418D01*
X0190100Y0245316D01*
X0190917Y0244734D02*
X0190973Y0244736D01*
X0191029Y0244741D01*
X0191085Y0244751D01*
X0191140Y0244763D01*
X0191194Y0244780D01*
X0191246Y0244799D01*
X0191298Y0244823D01*
X0191348Y0244849D01*
X0191395Y0244879D01*
X0191441Y0244911D01*
X0191485Y0244947D01*
X0191526Y0244986D01*
X0191565Y0245027D01*
X0191600Y0245070D01*
X0191633Y0245116D01*
X0191663Y0245164D01*
X0191690Y0245213D01*
X0191713Y0245264D01*
X0191733Y0245317D01*
X0191850Y0245667D02*
X0189983Y0248000D01*
X0190101Y0248350D02*
X0190121Y0248403D01*
X0190144Y0248454D01*
X0190171Y0248503D01*
X0190201Y0248551D01*
X0190234Y0248597D01*
X0190269Y0248640D01*
X0190308Y0248681D01*
X0190349Y0248720D01*
X0190393Y0248756D01*
X0190439Y0248788D01*
X0190486Y0248818D01*
X0190536Y0248844D01*
X0190588Y0248868D01*
X0190640Y0248887D01*
X0190694Y0248904D01*
X0190749Y0248916D01*
X0190805Y0248926D01*
X0190861Y0248931D01*
X0190917Y0248933D01*
X0190973Y0248931D01*
X0191029Y0248926D01*
X0191085Y0248916D01*
X0191140Y0248904D01*
X0191194Y0248887D01*
X0191246Y0248868D01*
X0191298Y0248844D01*
X0191348Y0248818D01*
X0191395Y0248788D01*
X0191441Y0248755D01*
X0191485Y0248720D01*
X0191526Y0248681D01*
X0191565Y0248640D01*
X0191600Y0248597D01*
X0191633Y0248551D01*
X0191663Y0248503D01*
X0191690Y0248454D01*
X0191713Y0248403D01*
X0191733Y0248350D01*
X0190100Y0248350D02*
X0190052Y0248248D01*
X0190008Y0248145D01*
X0189967Y0248041D01*
X0189930Y0247935D01*
X0189896Y0247828D01*
X0189866Y0247720D01*
X0189839Y0247611D01*
X0189815Y0247502D01*
X0189795Y0247391D01*
X0189779Y0247280D01*
X0189766Y0247169D01*
X0189757Y0247057D01*
X0189752Y0246945D01*
X0189750Y0246833D01*
X0192083Y0246833D02*
X0192081Y0246945D01*
X0192076Y0247057D01*
X0192067Y0247169D01*
X0192054Y0247280D01*
X0192038Y0247391D01*
X0192018Y0247502D01*
X0191994Y0247611D01*
X0191967Y0247720D01*
X0191937Y0247828D01*
X0191903Y0247935D01*
X0191866Y0248041D01*
X0191825Y0248145D01*
X0191781Y0248248D01*
X0191733Y0248350D01*
X0190101Y0245317D02*
X0190121Y0245264D01*
X0190144Y0245213D01*
X0190171Y0245164D01*
X0190201Y0245116D01*
X0190234Y0245070D01*
X0190269Y0245027D01*
X0190308Y0244986D01*
X0190349Y0244947D01*
X0190393Y0244911D01*
X0190439Y0244879D01*
X0190486Y0244849D01*
X0190536Y0244823D01*
X0190588Y0244799D01*
X0190640Y0244780D01*
X0190694Y0244763D01*
X0190749Y0244751D01*
X0190805Y0244741D01*
X0190861Y0244736D01*
X0190917Y0244734D01*
X0191733Y0245316D02*
X0191781Y0245418D01*
X0191825Y0245521D01*
X0191866Y0245625D01*
X0191903Y0245731D01*
X0191937Y0245838D01*
X0191967Y0245946D01*
X0191994Y0246055D01*
X0192018Y0246164D01*
X0192038Y0246275D01*
X0192054Y0246386D01*
X0192067Y0246497D01*
X0192076Y0246609D01*
X0192081Y0246721D01*
X0192083Y0246833D01*
X0187583Y0247533D02*
X0187583Y0247767D01*
X0187583Y0247533D02*
X0187581Y0247474D01*
X0187576Y0247416D01*
X0187566Y0247358D01*
X0187554Y0247301D01*
X0187537Y0247245D01*
X0187517Y0247190D01*
X0187494Y0247136D01*
X0187468Y0247084D01*
X0187438Y0247033D01*
X0187405Y0246985D01*
X0187369Y0246938D01*
X0187330Y0246894D01*
X0187289Y0246853D01*
X0187245Y0246814D01*
X0187198Y0246778D01*
X0187150Y0246745D01*
X0187099Y0246715D01*
X0187047Y0246689D01*
X0186993Y0246666D01*
X0186938Y0246646D01*
X0186882Y0246629D01*
X0186825Y0246617D01*
X0186767Y0246607D01*
X0186709Y0246602D01*
X0186650Y0246600D01*
X0185250Y0246600D01*
X0185250Y0247767D01*
X0185252Y0247834D01*
X0185258Y0247900D01*
X0185267Y0247966D01*
X0185280Y0248031D01*
X0185297Y0248096D01*
X0185318Y0248159D01*
X0185342Y0248221D01*
X0185370Y0248282D01*
X0185401Y0248341D01*
X0185435Y0248398D01*
X0185473Y0248453D01*
X0185514Y0248506D01*
X0185557Y0248556D01*
X0185604Y0248604D01*
X0185653Y0248649D01*
X0185704Y0248691D01*
X0185758Y0248730D01*
X0185814Y0248766D01*
X0185872Y0248799D01*
X0185932Y0248829D01*
X0185994Y0248854D01*
X0186056Y0248877D01*
X0186120Y0248896D01*
X0186185Y0248911D01*
X0186251Y0248922D01*
X0186317Y0248930D01*
X0186384Y0248934D01*
X0186450Y0248934D01*
X0186517Y0248930D01*
X0186583Y0248922D01*
X0186649Y0248911D01*
X0186714Y0248896D01*
X0186778Y0248877D01*
X0186840Y0248854D01*
X0186902Y0248829D01*
X0186962Y0248799D01*
X0187020Y0248766D01*
X0187076Y0248730D01*
X0187130Y0248691D01*
X0187181Y0248649D01*
X0187230Y0248604D01*
X0187277Y0248556D01*
X0187320Y0248506D01*
X0187361Y0248453D01*
X0187399Y0248398D01*
X0187433Y0248341D01*
X0187464Y0248282D01*
X0187492Y0248221D01*
X0187516Y0248159D01*
X0187537Y0248096D01*
X0187554Y0248031D01*
X0187567Y0247966D01*
X0187576Y0247900D01*
X0187582Y0247834D01*
X0187584Y0247767D01*
X0185250Y0246600D02*
X0185252Y0246516D01*
X0185258Y0246433D01*
X0185267Y0246349D01*
X0185280Y0246267D01*
X0185297Y0246185D01*
X0185317Y0246103D01*
X0185341Y0246023D01*
X0185369Y0245944D01*
X0185400Y0245866D01*
X0185435Y0245790D01*
X0185473Y0245715D01*
X0185514Y0245642D01*
X0185559Y0245571D01*
X0185607Y0245503D01*
X0185657Y0245436D01*
X0185711Y0245372D01*
X0185768Y0245310D01*
X0185827Y0245251D01*
X0185889Y0245194D01*
X0185953Y0245140D01*
X0186020Y0245090D01*
X0186088Y0245042D01*
X0186159Y0244997D01*
X0186232Y0244956D01*
X0186307Y0244918D01*
X0186383Y0244883D01*
X0186461Y0244852D01*
X0186540Y0244824D01*
X0186620Y0244800D01*
X0186702Y0244780D01*
X0186784Y0244763D01*
X0186866Y0244750D01*
X0186950Y0244741D01*
X0187033Y0244735D01*
X0187117Y0244733D01*
X0183083Y0244733D02*
X0180750Y0244733D01*
X0181917Y0244733D02*
X0181917Y0248933D01*
X0183083Y0248000D01*
X0178583Y0248933D02*
X0177183Y0248933D01*
X0177123Y0248931D01*
X0177064Y0248925D01*
X0177005Y0248916D01*
X0176946Y0248902D01*
X0176889Y0248885D01*
X0176833Y0248865D01*
X0176778Y0248841D01*
X0176725Y0248813D01*
X0176674Y0248782D01*
X0176625Y0248748D01*
X0176578Y0248710D01*
X0176534Y0248670D01*
X0176492Y0248627D01*
X0176454Y0248582D01*
X0176418Y0248534D01*
X0176385Y0248484D01*
X0176356Y0248432D01*
X0176330Y0248378D01*
X0176307Y0248322D01*
X0176289Y0248265D01*
X0176273Y0248208D01*
X0176262Y0248149D01*
X0176254Y0248090D01*
X0176250Y0248030D01*
X0176250Y0247970D01*
X0176254Y0247910D01*
X0176262Y0247851D01*
X0176273Y0247792D01*
X0176289Y0247735D01*
X0176307Y0247678D01*
X0176330Y0247622D01*
X0176356Y0247568D01*
X0176385Y0247516D01*
X0176418Y0247466D01*
X0176454Y0247418D01*
X0176492Y0247373D01*
X0176534Y0247330D01*
X0176578Y0247290D01*
X0176625Y0247252D01*
X0176674Y0247218D01*
X0176725Y0247187D01*
X0176778Y0247159D01*
X0176833Y0247135D01*
X0176889Y0247115D01*
X0176946Y0247098D01*
X0177005Y0247084D01*
X0177064Y0247075D01*
X0177123Y0247069D01*
X0177183Y0247067D01*
X0178117Y0247067D01*
X0177417Y0247067D02*
X0177350Y0247065D01*
X0177284Y0247059D01*
X0177218Y0247050D01*
X0177153Y0247037D01*
X0177088Y0247020D01*
X0177025Y0246999D01*
X0176963Y0246975D01*
X0176902Y0246947D01*
X0176843Y0246916D01*
X0176786Y0246882D01*
X0176731Y0246844D01*
X0176678Y0246803D01*
X0176628Y0246760D01*
X0176580Y0246713D01*
X0176535Y0246664D01*
X0176493Y0246613D01*
X0176454Y0246559D01*
X0176418Y0246503D01*
X0176385Y0246445D01*
X0176355Y0246385D01*
X0176330Y0246323D01*
X0176307Y0246261D01*
X0176288Y0246197D01*
X0176273Y0246132D01*
X0176262Y0246066D01*
X0176254Y0246000D01*
X0176250Y0245933D01*
X0176250Y0245867D01*
X0176254Y0245800D01*
X0176262Y0245734D01*
X0176273Y0245668D01*
X0176288Y0245603D01*
X0176307Y0245539D01*
X0176330Y0245477D01*
X0176355Y0245415D01*
X0176385Y0245355D01*
X0176418Y0245297D01*
X0176454Y0245241D01*
X0176493Y0245187D01*
X0176535Y0245136D01*
X0176580Y0245087D01*
X0176628Y0245040D01*
X0176678Y0244997D01*
X0176731Y0244956D01*
X0176786Y0244918D01*
X0176843Y0244884D01*
X0176902Y0244853D01*
X0176963Y0244825D01*
X0177025Y0244801D01*
X0177088Y0244780D01*
X0177153Y0244763D01*
X0177218Y0244750D01*
X0177284Y0244741D01*
X0177350Y0244735D01*
X0177417Y0244733D01*
X0178583Y0244733D01*
X0216900Y0248933D02*
X0216971Y0248931D01*
X0217041Y0248926D01*
X0217111Y0248916D01*
X0217181Y0248903D01*
X0217249Y0248887D01*
X0217317Y0248867D01*
X0217384Y0248843D01*
X0217449Y0248816D01*
X0217513Y0248786D01*
X0217575Y0248752D01*
X0217635Y0248715D01*
X0217693Y0248675D01*
X0217750Y0248632D01*
X0217803Y0248586D01*
X0217854Y0248537D01*
X0217903Y0248486D01*
X0217949Y0248432D01*
X0217992Y0248376D01*
X0218032Y0248318D01*
X0218069Y0248258D01*
X0218102Y0248195D01*
X0218133Y0248132D01*
X0218160Y0248066D01*
X0218183Y0248000D01*
X0216900Y0248933D02*
X0216837Y0248931D01*
X0216773Y0248925D01*
X0216711Y0248916D01*
X0216649Y0248902D01*
X0216588Y0248885D01*
X0216528Y0248865D01*
X0216469Y0248840D01*
X0216412Y0248813D01*
X0216357Y0248782D01*
X0216304Y0248747D01*
X0216252Y0248710D01*
X0216204Y0248669D01*
X0216158Y0248625D01*
X0216114Y0248579D01*
X0216073Y0248531D01*
X0216036Y0248479D01*
X0216001Y0248426D01*
X0215970Y0248371D01*
X0215943Y0248314D01*
X0215918Y0248255D01*
X0215898Y0248195D01*
X0215881Y0248134D01*
X0215867Y0248072D01*
X0215858Y0248010D01*
X0215852Y0247946D01*
X0215850Y0247883D01*
D12*
X0232271Y0334583D02*
X0232271Y0337083D01*
X0235396Y0337083D02*
X0235396Y0334583D01*
X0239924Y0342133D02*
X0241813Y0342133D01*
X0240869Y0342133D02*
X0240869Y0345533D01*
X0241813Y0344778D01*
X0243644Y0344589D02*
X0243644Y0343078D01*
X0243645Y0343078D02*
X0243647Y0343019D01*
X0243652Y0342960D01*
X0243662Y0342901D01*
X0243675Y0342843D01*
X0243691Y0342786D01*
X0243711Y0342730D01*
X0243735Y0342676D01*
X0243762Y0342623D01*
X0243792Y0342572D01*
X0243825Y0342523D01*
X0243862Y0342476D01*
X0243901Y0342432D01*
X0243943Y0342390D01*
X0243987Y0342351D01*
X0244034Y0342314D01*
X0244083Y0342281D01*
X0244134Y0342251D01*
X0244187Y0342224D01*
X0244241Y0342200D01*
X0244297Y0342180D01*
X0244354Y0342164D01*
X0244412Y0342151D01*
X0244471Y0342141D01*
X0244530Y0342136D01*
X0244589Y0342134D01*
X0244589Y0342133D02*
X0245533Y0342133D01*
X0245533Y0345533D01*
X0244589Y0345533D01*
X0244530Y0345531D01*
X0244471Y0345526D01*
X0244412Y0345516D01*
X0244354Y0345503D01*
X0244297Y0345487D01*
X0244241Y0345467D01*
X0244187Y0345443D01*
X0244134Y0345416D01*
X0244083Y0345386D01*
X0244034Y0345353D01*
X0243987Y0345316D01*
X0243943Y0345277D01*
X0243901Y0345235D01*
X0243862Y0345191D01*
X0243825Y0345144D01*
X0243792Y0345095D01*
X0243762Y0345044D01*
X0243735Y0344991D01*
X0243711Y0344937D01*
X0243691Y0344881D01*
X0243675Y0344824D01*
X0243662Y0344766D01*
X0243652Y0344707D01*
X0243647Y0344648D01*
X0243645Y0344589D01*
X0247271Y0337083D02*
X0247271Y0334583D01*
X0250396Y0334583D02*
X0250396Y0337083D01*
X0229033Y0342133D02*
X0228089Y0342133D01*
X0229033Y0342133D02*
X0229033Y0345533D01*
X0228089Y0345533D01*
X0228030Y0345531D01*
X0227971Y0345526D01*
X0227912Y0345516D01*
X0227854Y0345503D01*
X0227797Y0345487D01*
X0227741Y0345467D01*
X0227687Y0345443D01*
X0227634Y0345416D01*
X0227583Y0345386D01*
X0227534Y0345353D01*
X0227487Y0345316D01*
X0227443Y0345277D01*
X0227401Y0345235D01*
X0227362Y0345191D01*
X0227325Y0345144D01*
X0227292Y0345095D01*
X0227262Y0345044D01*
X0227235Y0344991D01*
X0227211Y0344937D01*
X0227191Y0344881D01*
X0227175Y0344824D01*
X0227162Y0344766D01*
X0227152Y0344707D01*
X0227147Y0344648D01*
X0227145Y0344589D01*
X0227144Y0344589D02*
X0227144Y0343078D01*
X0227145Y0343078D02*
X0227147Y0343019D01*
X0227152Y0342960D01*
X0227162Y0342901D01*
X0227175Y0342843D01*
X0227191Y0342786D01*
X0227211Y0342730D01*
X0227235Y0342676D01*
X0227262Y0342623D01*
X0227292Y0342572D01*
X0227325Y0342523D01*
X0227362Y0342476D01*
X0227401Y0342432D01*
X0227443Y0342390D01*
X0227487Y0342351D01*
X0227534Y0342314D01*
X0227583Y0342281D01*
X0227634Y0342251D01*
X0227687Y0342224D01*
X0227741Y0342200D01*
X0227797Y0342180D01*
X0227854Y0342164D01*
X0227912Y0342151D01*
X0227971Y0342141D01*
X0228030Y0342136D01*
X0228089Y0342134D01*
X0225313Y0342133D02*
X0223708Y0344022D01*
X0224274Y0345533D02*
X0224339Y0345531D01*
X0224404Y0345525D01*
X0224469Y0345515D01*
X0224533Y0345502D01*
X0224596Y0345484D01*
X0224658Y0345463D01*
X0224718Y0345438D01*
X0224777Y0345410D01*
X0224834Y0345378D01*
X0224890Y0345343D01*
X0224942Y0345305D01*
X0224993Y0345263D01*
X0225041Y0345218D01*
X0225086Y0345171D01*
X0225128Y0345121D01*
X0225167Y0345069D01*
X0225203Y0345014D01*
X0225236Y0344958D01*
X0225265Y0344899D01*
X0225291Y0344839D01*
X0225313Y0344777D01*
X0223707Y0344022D02*
X0223667Y0344062D01*
X0223630Y0344105D01*
X0223595Y0344150D01*
X0223564Y0344198D01*
X0223535Y0344247D01*
X0223509Y0344297D01*
X0223487Y0344350D01*
X0223468Y0344403D01*
X0223452Y0344458D01*
X0223440Y0344513D01*
X0223431Y0344570D01*
X0223426Y0344626D01*
X0223424Y0344683D01*
X0223426Y0344739D01*
X0223431Y0344794D01*
X0223440Y0344849D01*
X0223453Y0344903D01*
X0223469Y0344956D01*
X0223489Y0345008D01*
X0223512Y0345059D01*
X0223538Y0345108D01*
X0223567Y0345155D01*
X0223600Y0345200D01*
X0223635Y0345243D01*
X0223673Y0345284D01*
X0223714Y0345322D01*
X0223757Y0345357D01*
X0223802Y0345390D01*
X0223849Y0345419D01*
X0223898Y0345445D01*
X0223949Y0345468D01*
X0224001Y0345488D01*
X0224054Y0345504D01*
X0224108Y0345517D01*
X0224163Y0345526D01*
X0224218Y0345531D01*
X0224274Y0345533D01*
X0223424Y0342133D02*
X0225313Y0342133D01*
X0140583Y0309396D02*
X0138083Y0309396D01*
X0138083Y0306271D02*
X0140583Y0306271D01*
X0116583Y0306271D02*
X0114083Y0306271D01*
X0114083Y0309396D02*
X0116583Y0309396D01*
X0116583Y0277396D02*
X0119083Y0277396D01*
X0119083Y0274271D02*
X0116583Y0274271D01*
X0115896Y0247083D02*
X0115896Y0244583D01*
X0112771Y0244583D02*
X0112771Y0247083D01*
X0091396Y0195583D02*
X0091396Y0193083D01*
X0088271Y0193083D02*
X0088271Y0195583D01*
X0108845Y0182054D02*
X0110612Y0183822D01*
X0112822Y0181612D02*
X0111054Y0179845D01*
X0088322Y0164554D02*
X0086554Y0166322D01*
X0084345Y0164112D02*
X0086112Y0162345D01*
X0082322Y0158554D02*
X0080554Y0160322D01*
X0078345Y0158112D02*
X0080112Y0156345D01*
X0076322Y0152554D02*
X0074554Y0154322D01*
X0072345Y0152112D02*
X0074112Y0150345D01*
X0070322Y0146554D02*
X0068554Y0148322D01*
X0066345Y0146112D02*
X0068112Y0144345D01*
X0060322Y0136554D02*
X0058554Y0138322D01*
X0056345Y0136112D02*
X0058112Y0134345D01*
X0054322Y0130554D02*
X0052554Y0132322D01*
X0050345Y0130112D02*
X0052112Y0128345D01*
X0031822Y0104612D02*
X0030054Y0102845D01*
X0027845Y0105054D02*
X0029612Y0106822D01*
X0023896Y0123083D02*
X0023896Y0125583D01*
X0020771Y0125583D02*
X0020771Y0123083D01*
X0052408Y0161991D02*
X0054176Y0163759D01*
X0051966Y0165969D02*
X0050198Y0164201D01*
X0099845Y0153554D02*
X0101612Y0155322D01*
X0103822Y0153112D02*
X0102054Y0151345D01*
X0120845Y0136612D02*
X0122612Y0134845D01*
X0124822Y0137054D02*
X0123054Y0138822D01*
X0129271Y0124083D02*
X0129271Y0121583D01*
X0132396Y0121583D02*
X0132396Y0124083D01*
X0119322Y0109612D02*
X0117554Y0107845D01*
X0115345Y0110054D02*
X0117112Y0111822D01*
X0136845Y0097112D02*
X0138612Y0095345D01*
X0140822Y0097554D02*
X0139054Y0099322D01*
X0114554Y0074322D02*
X0116322Y0072554D01*
X0114112Y0070345D02*
X0112345Y0072112D01*
X0105054Y0064822D02*
X0106822Y0063054D01*
X0104612Y0060845D02*
X0102845Y0062612D01*
X0089583Y0081271D02*
X0087083Y0081271D01*
X0087083Y0084396D02*
X0089583Y0084396D01*
X0072612Y0063822D02*
X0070845Y0062054D01*
X0073054Y0059845D02*
X0074822Y0061612D01*
X0066322Y0070112D02*
X0064554Y0068345D01*
X0062345Y0070554D02*
X0064112Y0072322D01*
X0030583Y0072271D02*
X0028083Y0072271D01*
X0028083Y0075396D02*
X0030583Y0075396D01*
X0134345Y0156554D02*
X0136112Y0158322D01*
X0138322Y0156112D02*
X0136554Y0154345D01*
X0150345Y0140554D02*
X0152112Y0142322D01*
X0154322Y0140112D02*
X0152554Y0138345D01*
D13*
X0148557Y0142349D02*
X0149193Y0142986D01*
X0148557Y0142350D02*
X0148523Y0142318D01*
X0148486Y0142289D01*
X0148447Y0142262D01*
X0148405Y0142239D01*
X0148363Y0142220D01*
X0148318Y0142203D01*
X0148273Y0142191D01*
X0148227Y0142181D01*
X0148180Y0142176D01*
X0148133Y0142174D01*
X0148086Y0142176D01*
X0148039Y0142181D01*
X0147993Y0142191D01*
X0147948Y0142203D01*
X0147903Y0142220D01*
X0147861Y0142239D01*
X0147819Y0142262D01*
X0147780Y0142289D01*
X0147743Y0142318D01*
X0147709Y0142350D01*
X0147708Y0142349D02*
X0147496Y0142561D01*
X0147496Y0142562D02*
X0147464Y0142596D01*
X0147435Y0142633D01*
X0147408Y0142673D01*
X0147385Y0142714D01*
X0147366Y0142756D01*
X0147349Y0142801D01*
X0147337Y0142846D01*
X0147327Y0142892D01*
X0147322Y0142939D01*
X0147320Y0142986D01*
X0147322Y0143033D01*
X0147327Y0143080D01*
X0147337Y0143126D01*
X0147349Y0143171D01*
X0147366Y0143216D01*
X0147385Y0143258D01*
X0147408Y0143300D01*
X0147435Y0143339D01*
X0147464Y0143376D01*
X0147496Y0143410D01*
X0148133Y0144046D01*
X0147284Y0144895D01*
X0146223Y0143834D01*
X0145248Y0142858D02*
X0144611Y0142222D01*
X0144578Y0142187D01*
X0144548Y0142149D01*
X0144522Y0142108D01*
X0144498Y0142066D01*
X0144478Y0142022D01*
X0144462Y0141977D01*
X0144450Y0141930D01*
X0144441Y0141882D01*
X0144436Y0141834D01*
X0144435Y0141786D01*
X0144438Y0141738D01*
X0144445Y0141690D01*
X0144455Y0141643D01*
X0144470Y0141597D01*
X0144488Y0141552D01*
X0144509Y0141509D01*
X0144534Y0141467D01*
X0144563Y0141428D01*
X0144594Y0141391D01*
X0144628Y0141357D01*
X0144665Y0141326D01*
X0144704Y0141297D01*
X0144746Y0141272D01*
X0144789Y0141251D01*
X0144834Y0141233D01*
X0144880Y0141218D01*
X0144927Y0141208D01*
X0144975Y0141201D01*
X0145023Y0141198D01*
X0145071Y0141199D01*
X0145119Y0141204D01*
X0145167Y0141213D01*
X0145214Y0141225D01*
X0145259Y0141241D01*
X0145303Y0141261D01*
X0145345Y0141285D01*
X0145386Y0141311D01*
X0145424Y0141341D01*
X0145459Y0141374D01*
X0145460Y0141373D02*
X0145884Y0141798D01*
X0145566Y0141479D02*
X0145529Y0141440D01*
X0145496Y0141398D01*
X0145465Y0141354D01*
X0145438Y0141308D01*
X0145414Y0141261D01*
X0145393Y0141211D01*
X0145376Y0141160D01*
X0145363Y0141108D01*
X0145354Y0141056D01*
X0145348Y0141003D01*
X0145346Y0140949D01*
X0145348Y0140896D01*
X0145354Y0140842D01*
X0145363Y0140790D01*
X0145376Y0140738D01*
X0145393Y0140687D01*
X0145414Y0140637D01*
X0145438Y0140590D01*
X0145465Y0140544D01*
X0145496Y0140500D01*
X0145529Y0140458D01*
X0145566Y0140419D01*
X0145605Y0140382D01*
X0145647Y0140349D01*
X0145691Y0140318D01*
X0145737Y0140291D01*
X0145784Y0140267D01*
X0145834Y0140246D01*
X0145885Y0140229D01*
X0145937Y0140216D01*
X0145989Y0140207D01*
X0146042Y0140201D01*
X0146096Y0140199D01*
X0146150Y0140201D01*
X0146203Y0140207D01*
X0146255Y0140216D01*
X0146307Y0140229D01*
X0146358Y0140246D01*
X0146408Y0140267D01*
X0146455Y0140291D01*
X0146501Y0140318D01*
X0146545Y0140349D01*
X0146587Y0140382D01*
X0146626Y0140419D01*
X0147157Y0140949D01*
X0150169Y0143961D02*
X0151230Y0145022D01*
X0150699Y0144492D02*
X0148790Y0146401D01*
X0149745Y0146507D01*
X0150178Y0147789D02*
X0150602Y0148213D01*
X0150636Y0148245D01*
X0150673Y0148274D01*
X0150713Y0148301D01*
X0150754Y0148324D01*
X0150796Y0148343D01*
X0150841Y0148360D01*
X0150886Y0148372D01*
X0150932Y0148382D01*
X0150979Y0148387D01*
X0151026Y0148389D01*
X0151073Y0148387D01*
X0151120Y0148382D01*
X0151166Y0148372D01*
X0151211Y0148360D01*
X0151256Y0148343D01*
X0151298Y0148324D01*
X0151340Y0148301D01*
X0151379Y0148274D01*
X0151416Y0148245D01*
X0151450Y0148213D01*
X0151451Y0148213D02*
X0152511Y0147152D01*
X0152543Y0147118D01*
X0152572Y0147081D01*
X0152599Y0147042D01*
X0152622Y0147000D01*
X0152641Y0146958D01*
X0152658Y0146913D01*
X0152670Y0146868D01*
X0152680Y0146822D01*
X0152685Y0146775D01*
X0152687Y0146728D01*
X0152685Y0146681D01*
X0152680Y0146634D01*
X0152670Y0146588D01*
X0152658Y0146543D01*
X0152641Y0146498D01*
X0152622Y0146456D01*
X0152599Y0146415D01*
X0152572Y0146375D01*
X0152543Y0146338D01*
X0152511Y0146304D01*
X0152087Y0145879D01*
X0140334Y0137021D02*
X0139273Y0138082D01*
X0139273Y0138081D02*
X0139239Y0138113D01*
X0139202Y0138142D01*
X0139163Y0138169D01*
X0139121Y0138192D01*
X0139079Y0138211D01*
X0139034Y0138228D01*
X0138989Y0138240D01*
X0138943Y0138250D01*
X0138896Y0138255D01*
X0138849Y0138257D01*
X0138802Y0138255D01*
X0138755Y0138250D01*
X0138709Y0138240D01*
X0138664Y0138228D01*
X0138619Y0138211D01*
X0138577Y0138192D01*
X0138536Y0138169D01*
X0138496Y0138142D01*
X0138459Y0138113D01*
X0138425Y0138081D01*
X0138425Y0138082D02*
X0138000Y0137657D01*
X0137567Y0136376D02*
X0136613Y0136270D01*
X0138522Y0134361D01*
X0139052Y0134891D02*
X0137992Y0133830D01*
X0136485Y0133385D02*
X0135955Y0133915D01*
X0135319Y0133279D01*
X0135956Y0133916D02*
X0135907Y0133962D01*
X0135855Y0134005D01*
X0135801Y0134046D01*
X0135745Y0134083D01*
X0135687Y0134117D01*
X0135628Y0134148D01*
X0135566Y0134176D01*
X0135503Y0134200D01*
X0135439Y0134220D01*
X0135374Y0134237D01*
X0135308Y0134250D01*
X0135241Y0134259D01*
X0135174Y0134265D01*
X0135107Y0134267D01*
X0135040Y0134265D01*
X0134973Y0134259D01*
X0134906Y0134250D01*
X0134840Y0134237D01*
X0134775Y0134220D01*
X0134711Y0134200D01*
X0134648Y0134176D01*
X0134586Y0134148D01*
X0134527Y0134117D01*
X0134469Y0134083D01*
X0134413Y0134046D01*
X0134359Y0134005D01*
X0134307Y0133962D01*
X0134258Y0133916D01*
X0133070Y0132727D02*
X0132434Y0132091D01*
X0132401Y0132056D01*
X0132371Y0132018D01*
X0132345Y0131977D01*
X0132321Y0131935D01*
X0132301Y0131891D01*
X0132285Y0131846D01*
X0132273Y0131799D01*
X0132264Y0131751D01*
X0132259Y0131703D01*
X0132258Y0131655D01*
X0132261Y0131607D01*
X0132268Y0131559D01*
X0132278Y0131512D01*
X0132293Y0131466D01*
X0132311Y0131421D01*
X0132332Y0131378D01*
X0132357Y0131336D01*
X0132386Y0131297D01*
X0132417Y0131260D01*
X0132451Y0131226D01*
X0132488Y0131195D01*
X0132527Y0131166D01*
X0132569Y0131141D01*
X0132612Y0131120D01*
X0132657Y0131102D01*
X0132703Y0131087D01*
X0132750Y0131077D01*
X0132798Y0131070D01*
X0132846Y0131067D01*
X0132894Y0131068D01*
X0132942Y0131073D01*
X0132990Y0131082D01*
X0133037Y0131094D01*
X0133082Y0131110D01*
X0133126Y0131130D01*
X0133168Y0131154D01*
X0133209Y0131180D01*
X0133247Y0131210D01*
X0133282Y0131243D01*
X0133282Y0131242D02*
X0133706Y0131667D01*
X0133389Y0131348D02*
X0133352Y0131309D01*
X0133319Y0131267D01*
X0133288Y0131223D01*
X0133261Y0131177D01*
X0133237Y0131130D01*
X0133216Y0131080D01*
X0133199Y0131029D01*
X0133186Y0130977D01*
X0133177Y0130925D01*
X0133171Y0130872D01*
X0133169Y0130818D01*
X0133171Y0130765D01*
X0133177Y0130711D01*
X0133186Y0130659D01*
X0133199Y0130607D01*
X0133216Y0130556D01*
X0133237Y0130506D01*
X0133261Y0130459D01*
X0133288Y0130413D01*
X0133319Y0130369D01*
X0133352Y0130327D01*
X0133389Y0130288D01*
X0133428Y0130251D01*
X0133470Y0130218D01*
X0133514Y0130187D01*
X0133560Y0130160D01*
X0133607Y0130136D01*
X0133657Y0130115D01*
X0133708Y0130098D01*
X0133760Y0130085D01*
X0133812Y0130076D01*
X0133865Y0130070D01*
X0133919Y0130068D01*
X0133973Y0130070D01*
X0134026Y0130076D01*
X0134078Y0130085D01*
X0134130Y0130098D01*
X0134181Y0130115D01*
X0134231Y0130136D01*
X0134278Y0130160D01*
X0134324Y0130187D01*
X0134368Y0130218D01*
X0134410Y0130251D01*
X0134449Y0130288D01*
X0134979Y0130818D01*
X0135425Y0132324D02*
X0135319Y0132430D01*
X0135287Y0132464D01*
X0135258Y0132501D01*
X0135231Y0132541D01*
X0135208Y0132582D01*
X0135189Y0132624D01*
X0135172Y0132669D01*
X0135160Y0132714D01*
X0135150Y0132760D01*
X0135145Y0132807D01*
X0135143Y0132854D01*
X0135145Y0132901D01*
X0135150Y0132948D01*
X0135160Y0132994D01*
X0135172Y0133039D01*
X0135189Y0133084D01*
X0135208Y0133126D01*
X0135231Y0133168D01*
X0135258Y0133207D01*
X0135287Y0133244D01*
X0135319Y0133278D01*
X0135425Y0132324D02*
X0135464Y0132287D01*
X0135506Y0132254D01*
X0135550Y0132223D01*
X0135596Y0132196D01*
X0135643Y0132172D01*
X0135693Y0132151D01*
X0135744Y0132134D01*
X0135796Y0132121D01*
X0135848Y0132112D01*
X0135901Y0132106D01*
X0135955Y0132104D01*
X0136009Y0132106D01*
X0136062Y0132112D01*
X0136114Y0132121D01*
X0136166Y0132134D01*
X0136217Y0132151D01*
X0136267Y0132172D01*
X0136314Y0132196D01*
X0136360Y0132223D01*
X0136404Y0132254D01*
X0136446Y0132287D01*
X0136485Y0132324D01*
X0136522Y0132363D01*
X0136555Y0132405D01*
X0136586Y0132449D01*
X0136613Y0132495D01*
X0136637Y0132542D01*
X0136658Y0132592D01*
X0136675Y0132643D01*
X0136688Y0132695D01*
X0136697Y0132747D01*
X0136703Y0132801D01*
X0136705Y0132854D01*
X0136703Y0132908D01*
X0136697Y0132961D01*
X0136688Y0133013D01*
X0136675Y0133065D01*
X0136658Y0133116D01*
X0136637Y0133166D01*
X0136613Y0133213D01*
X0136586Y0133259D01*
X0136555Y0133303D01*
X0136522Y0133345D01*
X0136485Y0133384D01*
X0139909Y0135748D02*
X0140334Y0136172D01*
X0140333Y0136173D02*
X0140365Y0136207D01*
X0140394Y0136244D01*
X0140421Y0136284D01*
X0140444Y0136325D01*
X0140463Y0136367D01*
X0140480Y0136412D01*
X0140492Y0136457D01*
X0140502Y0136503D01*
X0140507Y0136550D01*
X0140509Y0136597D01*
X0140507Y0136644D01*
X0140502Y0136691D01*
X0140492Y0136737D01*
X0140480Y0136782D01*
X0140463Y0136827D01*
X0140444Y0136869D01*
X0140421Y0136911D01*
X0140394Y0136950D01*
X0140365Y0136987D01*
X0140333Y0137021D01*
X0129354Y0139172D02*
X0128293Y0138111D01*
X0128259Y0138079D01*
X0128222Y0138050D01*
X0128183Y0138023D01*
X0128141Y0138000D01*
X0128099Y0137981D01*
X0128054Y0137964D01*
X0128009Y0137952D01*
X0127963Y0137942D01*
X0127916Y0137937D01*
X0127869Y0137935D01*
X0127822Y0137937D01*
X0127775Y0137942D01*
X0127729Y0137952D01*
X0127684Y0137964D01*
X0127639Y0137981D01*
X0127597Y0138000D01*
X0127556Y0138023D01*
X0127516Y0138050D01*
X0127479Y0138079D01*
X0127445Y0138111D01*
X0127020Y0138535D01*
X0126163Y0139393D02*
X0125102Y0140453D01*
X0125633Y0139923D02*
X0127542Y0141832D01*
X0127648Y0140878D01*
X0128930Y0140445D02*
X0129354Y0140020D01*
X0129386Y0139986D01*
X0129415Y0139949D01*
X0129442Y0139910D01*
X0129465Y0139868D01*
X0129484Y0139826D01*
X0129501Y0139781D01*
X0129513Y0139736D01*
X0129523Y0139690D01*
X0129528Y0139643D01*
X0129530Y0139596D01*
X0129528Y0139549D01*
X0129523Y0139502D01*
X0129513Y0139456D01*
X0129501Y0139411D01*
X0129484Y0139366D01*
X0129465Y0139324D01*
X0129442Y0139283D01*
X0129415Y0139243D01*
X0129386Y0139206D01*
X0129354Y0139172D01*
X0126036Y0143338D02*
X0125399Y0143975D01*
X0125399Y0143974D02*
X0125364Y0144007D01*
X0125326Y0144037D01*
X0125285Y0144063D01*
X0125243Y0144087D01*
X0125199Y0144107D01*
X0125154Y0144123D01*
X0125107Y0144135D01*
X0125059Y0144144D01*
X0125011Y0144149D01*
X0124963Y0144150D01*
X0124915Y0144147D01*
X0124867Y0144140D01*
X0124820Y0144130D01*
X0124774Y0144115D01*
X0124729Y0144097D01*
X0124686Y0144076D01*
X0124644Y0144051D01*
X0124605Y0144022D01*
X0124568Y0143991D01*
X0124534Y0143957D01*
X0124503Y0143920D01*
X0124474Y0143881D01*
X0124449Y0143839D01*
X0124428Y0143796D01*
X0124410Y0143751D01*
X0124395Y0143705D01*
X0124385Y0143658D01*
X0124378Y0143610D01*
X0124375Y0143562D01*
X0124376Y0143514D01*
X0124381Y0143466D01*
X0124390Y0143418D01*
X0124402Y0143371D01*
X0124418Y0143326D01*
X0124438Y0143282D01*
X0124462Y0143240D01*
X0124488Y0143199D01*
X0124518Y0143161D01*
X0124551Y0143126D01*
X0124975Y0142702D01*
X0124657Y0143020D02*
X0124618Y0143057D01*
X0124576Y0143090D01*
X0124532Y0143121D01*
X0124486Y0143148D01*
X0124439Y0143172D01*
X0124389Y0143193D01*
X0124338Y0143210D01*
X0124286Y0143223D01*
X0124234Y0143232D01*
X0124181Y0143238D01*
X0124127Y0143240D01*
X0124074Y0143238D01*
X0124020Y0143232D01*
X0123968Y0143223D01*
X0123916Y0143210D01*
X0123865Y0143193D01*
X0123815Y0143172D01*
X0123768Y0143148D01*
X0123722Y0143121D01*
X0123678Y0143090D01*
X0123636Y0143057D01*
X0123597Y0143020D01*
X0123560Y0142981D01*
X0123527Y0142939D01*
X0123496Y0142895D01*
X0123469Y0142849D01*
X0123445Y0142802D01*
X0123424Y0142752D01*
X0123407Y0142701D01*
X0123394Y0142649D01*
X0123385Y0142597D01*
X0123379Y0142544D01*
X0123377Y0142490D01*
X0123379Y0142436D01*
X0123385Y0142383D01*
X0123394Y0142331D01*
X0123407Y0142279D01*
X0123424Y0142228D01*
X0123445Y0142178D01*
X0123469Y0142131D01*
X0123496Y0142085D01*
X0123527Y0142041D01*
X0123560Y0141999D01*
X0123597Y0141960D01*
X0123596Y0141959D02*
X0124127Y0141429D01*
X0122620Y0143996D02*
X0122581Y0143959D01*
X0122539Y0143926D01*
X0122495Y0143895D01*
X0122449Y0143868D01*
X0122402Y0143844D01*
X0122352Y0143823D01*
X0122301Y0143806D01*
X0122249Y0143793D01*
X0122197Y0143784D01*
X0122144Y0143778D01*
X0122090Y0143776D01*
X0122036Y0143778D01*
X0121983Y0143784D01*
X0121931Y0143793D01*
X0121879Y0143806D01*
X0121828Y0143823D01*
X0121778Y0143844D01*
X0121731Y0143868D01*
X0121685Y0143895D01*
X0121641Y0143926D01*
X0121599Y0143959D01*
X0121560Y0143996D01*
X0121523Y0144035D01*
X0121490Y0144077D01*
X0121459Y0144121D01*
X0121432Y0144167D01*
X0121408Y0144214D01*
X0121387Y0144264D01*
X0121370Y0144315D01*
X0121357Y0144367D01*
X0121348Y0144419D01*
X0121342Y0144472D01*
X0121340Y0144526D01*
X0121342Y0144579D01*
X0121348Y0144633D01*
X0121357Y0144685D01*
X0121370Y0144737D01*
X0121387Y0144788D01*
X0121408Y0144838D01*
X0121432Y0144885D01*
X0121459Y0144931D01*
X0121490Y0144975D01*
X0121523Y0145017D01*
X0121560Y0145056D01*
X0121599Y0145093D01*
X0121641Y0145126D01*
X0121685Y0145157D01*
X0121731Y0145184D01*
X0121778Y0145208D01*
X0121828Y0145229D01*
X0121879Y0145246D01*
X0121931Y0145259D01*
X0121983Y0145268D01*
X0122036Y0145274D01*
X0122090Y0145276D01*
X0122143Y0145274D01*
X0122197Y0145268D01*
X0122249Y0145259D01*
X0122301Y0145246D01*
X0122352Y0145229D01*
X0122402Y0145208D01*
X0122449Y0145184D01*
X0122495Y0145157D01*
X0122539Y0145126D01*
X0122581Y0145093D01*
X0122620Y0145056D01*
X0122657Y0145017D01*
X0122690Y0144975D01*
X0122721Y0144931D01*
X0122748Y0144885D01*
X0122772Y0144838D01*
X0122793Y0144788D01*
X0122810Y0144737D01*
X0122823Y0144685D01*
X0122832Y0144633D01*
X0122838Y0144580D01*
X0122840Y0144526D01*
X0122838Y0144472D01*
X0122832Y0144419D01*
X0122823Y0144367D01*
X0122810Y0144315D01*
X0122793Y0144264D01*
X0122772Y0144214D01*
X0122748Y0144167D01*
X0122721Y0144121D01*
X0122690Y0144077D01*
X0122657Y0144035D01*
X0122620Y0143996D01*
X0123469Y0145057D02*
X0123434Y0145024D01*
X0123396Y0144994D01*
X0123355Y0144968D01*
X0123313Y0144944D01*
X0123269Y0144924D01*
X0123224Y0144908D01*
X0123177Y0144896D01*
X0123129Y0144887D01*
X0123081Y0144882D01*
X0123033Y0144881D01*
X0122985Y0144884D01*
X0122937Y0144891D01*
X0122890Y0144901D01*
X0122844Y0144916D01*
X0122799Y0144934D01*
X0122756Y0144955D01*
X0122714Y0144980D01*
X0122675Y0145009D01*
X0122638Y0145040D01*
X0122604Y0145074D01*
X0122573Y0145111D01*
X0122544Y0145150D01*
X0122519Y0145192D01*
X0122498Y0145235D01*
X0122480Y0145280D01*
X0122465Y0145326D01*
X0122455Y0145373D01*
X0122448Y0145421D01*
X0122445Y0145469D01*
X0122446Y0145517D01*
X0122451Y0145565D01*
X0122460Y0145613D01*
X0122472Y0145660D01*
X0122488Y0145705D01*
X0122508Y0145749D01*
X0122532Y0145791D01*
X0122558Y0145832D01*
X0122588Y0145870D01*
X0122621Y0145905D01*
X0122656Y0145938D01*
X0122694Y0145968D01*
X0122735Y0145994D01*
X0122777Y0146018D01*
X0122821Y0146038D01*
X0122867Y0146054D01*
X0122913Y0146066D01*
X0122961Y0146075D01*
X0123009Y0146080D01*
X0123057Y0146081D01*
X0123105Y0146078D01*
X0123153Y0146071D01*
X0123200Y0146061D01*
X0123246Y0146046D01*
X0123291Y0146028D01*
X0123334Y0146007D01*
X0123376Y0145982D01*
X0123415Y0145953D01*
X0123452Y0145922D01*
X0123486Y0145888D01*
X0123517Y0145851D01*
X0123546Y0145812D01*
X0123571Y0145770D01*
X0123592Y0145727D01*
X0123610Y0145682D01*
X0123625Y0145636D01*
X0123635Y0145589D01*
X0123642Y0145541D01*
X0123645Y0145493D01*
X0123644Y0145445D01*
X0123639Y0145397D01*
X0123630Y0145349D01*
X0123618Y0145302D01*
X0123602Y0145257D01*
X0123582Y0145213D01*
X0123558Y0145171D01*
X0123532Y0145130D01*
X0123502Y0145092D01*
X0123469Y0145057D01*
X0129248Y0156737D02*
X0128717Y0157267D01*
X0129248Y0156737D02*
X0129884Y0157373D01*
X0129247Y0156737D02*
X0129296Y0156691D01*
X0129348Y0156648D01*
X0129402Y0156607D01*
X0129458Y0156570D01*
X0129516Y0156536D01*
X0129575Y0156505D01*
X0129637Y0156477D01*
X0129700Y0156453D01*
X0129764Y0156433D01*
X0129829Y0156416D01*
X0129895Y0156403D01*
X0129962Y0156394D01*
X0130029Y0156388D01*
X0130096Y0156386D01*
X0130163Y0156388D01*
X0130230Y0156394D01*
X0130297Y0156403D01*
X0130363Y0156416D01*
X0130428Y0156433D01*
X0130492Y0156453D01*
X0130555Y0156477D01*
X0130617Y0156505D01*
X0130676Y0156536D01*
X0130734Y0156570D01*
X0130790Y0156607D01*
X0130844Y0156648D01*
X0130896Y0156691D01*
X0130945Y0156737D01*
X0129884Y0158222D02*
X0129778Y0158328D01*
X0129884Y0158222D02*
X0129916Y0158188D01*
X0129945Y0158151D01*
X0129972Y0158111D01*
X0129995Y0158070D01*
X0130014Y0158028D01*
X0130031Y0157983D01*
X0130043Y0157938D01*
X0130053Y0157892D01*
X0130058Y0157845D01*
X0130060Y0157798D01*
X0130058Y0157751D01*
X0130053Y0157704D01*
X0130043Y0157658D01*
X0130031Y0157613D01*
X0130014Y0157568D01*
X0129995Y0157526D01*
X0129972Y0157485D01*
X0129945Y0157445D01*
X0129916Y0157408D01*
X0129884Y0157374D01*
X0129778Y0158328D02*
X0129739Y0158365D01*
X0129697Y0158398D01*
X0129653Y0158429D01*
X0129607Y0158456D01*
X0129560Y0158480D01*
X0129510Y0158501D01*
X0129459Y0158518D01*
X0129407Y0158531D01*
X0129355Y0158540D01*
X0129302Y0158546D01*
X0129248Y0158548D01*
X0129194Y0158546D01*
X0129141Y0158540D01*
X0129089Y0158531D01*
X0129037Y0158518D01*
X0128986Y0158501D01*
X0128936Y0158480D01*
X0128889Y0158456D01*
X0128843Y0158429D01*
X0128799Y0158398D01*
X0128757Y0158365D01*
X0128718Y0158328D01*
X0128681Y0158289D01*
X0128648Y0158247D01*
X0128617Y0158203D01*
X0128590Y0158157D01*
X0128566Y0158110D01*
X0128545Y0158060D01*
X0128528Y0158009D01*
X0128515Y0157957D01*
X0128506Y0157905D01*
X0128500Y0157852D01*
X0128498Y0157798D01*
X0128500Y0157745D01*
X0128506Y0157691D01*
X0128515Y0157639D01*
X0128528Y0157587D01*
X0128545Y0157536D01*
X0128566Y0157486D01*
X0128590Y0157439D01*
X0128617Y0157393D01*
X0128648Y0157349D01*
X0128681Y0157307D01*
X0128718Y0157268D01*
X0131496Y0159410D02*
X0131461Y0159377D01*
X0131423Y0159347D01*
X0131382Y0159321D01*
X0131340Y0159297D01*
X0131296Y0159277D01*
X0131251Y0159261D01*
X0131204Y0159249D01*
X0131156Y0159240D01*
X0131108Y0159235D01*
X0131060Y0159234D01*
X0131012Y0159237D01*
X0130964Y0159244D01*
X0130917Y0159254D01*
X0130871Y0159269D01*
X0130826Y0159287D01*
X0130783Y0159308D01*
X0130741Y0159333D01*
X0130702Y0159362D01*
X0130665Y0159393D01*
X0130631Y0159427D01*
X0130600Y0159464D01*
X0130571Y0159503D01*
X0130546Y0159545D01*
X0130525Y0159588D01*
X0130507Y0159633D01*
X0130492Y0159679D01*
X0130482Y0159726D01*
X0130475Y0159774D01*
X0130472Y0159822D01*
X0130473Y0159870D01*
X0130478Y0159918D01*
X0130487Y0159966D01*
X0130499Y0160013D01*
X0130515Y0160058D01*
X0130535Y0160102D01*
X0130559Y0160144D01*
X0130585Y0160185D01*
X0130615Y0160223D01*
X0130648Y0160258D01*
X0131284Y0160895D01*
X0131920Y0159834D02*
X0131496Y0159410D01*
X0131603Y0159516D02*
X0131566Y0159477D01*
X0131533Y0159435D01*
X0131502Y0159391D01*
X0131475Y0159345D01*
X0131451Y0159298D01*
X0131430Y0159248D01*
X0131413Y0159197D01*
X0131400Y0159145D01*
X0131391Y0159093D01*
X0131385Y0159040D01*
X0131383Y0158986D01*
X0131385Y0158933D01*
X0131391Y0158879D01*
X0131400Y0158827D01*
X0131413Y0158775D01*
X0131430Y0158724D01*
X0131451Y0158674D01*
X0131475Y0158627D01*
X0131502Y0158581D01*
X0131533Y0158537D01*
X0131566Y0158495D01*
X0131603Y0158456D01*
X0131642Y0158419D01*
X0131684Y0158386D01*
X0131728Y0158355D01*
X0131774Y0158328D01*
X0131821Y0158304D01*
X0131871Y0158283D01*
X0131922Y0158266D01*
X0131974Y0158253D01*
X0132026Y0158244D01*
X0132079Y0158238D01*
X0132133Y0158236D01*
X0132187Y0158238D01*
X0132240Y0158244D01*
X0132292Y0158253D01*
X0132344Y0158266D01*
X0132395Y0158283D01*
X0132445Y0158304D01*
X0132492Y0158328D01*
X0132538Y0158355D01*
X0132582Y0158386D01*
X0132624Y0158419D01*
X0132663Y0158456D01*
X0132663Y0158455D02*
X0133193Y0158986D01*
X0134169Y0159961D02*
X0135230Y0161022D01*
X0134699Y0160492D02*
X0132790Y0162401D01*
X0133745Y0162507D01*
X0134178Y0163789D02*
X0134602Y0164213D01*
X0134636Y0164245D01*
X0134673Y0164274D01*
X0134713Y0164301D01*
X0134754Y0164324D01*
X0134796Y0164343D01*
X0134841Y0164360D01*
X0134886Y0164372D01*
X0134932Y0164382D01*
X0134979Y0164387D01*
X0135026Y0164389D01*
X0135073Y0164387D01*
X0135120Y0164382D01*
X0135166Y0164372D01*
X0135211Y0164360D01*
X0135256Y0164343D01*
X0135298Y0164324D01*
X0135340Y0164301D01*
X0135379Y0164274D01*
X0135416Y0164245D01*
X0135450Y0164213D01*
X0135451Y0164213D02*
X0136511Y0163152D01*
X0136543Y0163118D01*
X0136572Y0163081D01*
X0136599Y0163042D01*
X0136622Y0163000D01*
X0136641Y0162958D01*
X0136658Y0162913D01*
X0136670Y0162868D01*
X0136680Y0162822D01*
X0136685Y0162775D01*
X0136687Y0162728D01*
X0136685Y0162681D01*
X0136680Y0162634D01*
X0136670Y0162588D01*
X0136658Y0162543D01*
X0136641Y0162498D01*
X0136622Y0162456D01*
X0136599Y0162415D01*
X0136572Y0162375D01*
X0136543Y0162338D01*
X0136511Y0162304D01*
X0136087Y0161879D01*
X0118587Y0179879D02*
X0119011Y0180304D01*
X0119043Y0180338D01*
X0119072Y0180375D01*
X0119099Y0180415D01*
X0119122Y0180456D01*
X0119141Y0180498D01*
X0119158Y0180543D01*
X0119170Y0180588D01*
X0119180Y0180634D01*
X0119185Y0180681D01*
X0119187Y0180728D01*
X0119185Y0180775D01*
X0119180Y0180822D01*
X0119170Y0180868D01*
X0119158Y0180913D01*
X0119141Y0180958D01*
X0119122Y0181000D01*
X0119099Y0181042D01*
X0119072Y0181081D01*
X0119043Y0181118D01*
X0119011Y0181152D01*
X0117951Y0182213D01*
X0117950Y0182213D02*
X0117916Y0182245D01*
X0117879Y0182274D01*
X0117840Y0182301D01*
X0117798Y0182324D01*
X0117756Y0182343D01*
X0117711Y0182360D01*
X0117666Y0182372D01*
X0117620Y0182382D01*
X0117573Y0182387D01*
X0117526Y0182389D01*
X0117479Y0182387D01*
X0117432Y0182382D01*
X0117386Y0182372D01*
X0117341Y0182360D01*
X0117296Y0182343D01*
X0117254Y0182324D01*
X0117213Y0182301D01*
X0117173Y0182274D01*
X0117136Y0182245D01*
X0117102Y0182213D01*
X0116678Y0181789D01*
X0116245Y0180507D02*
X0115290Y0180401D01*
X0117199Y0178492D01*
X0117730Y0179022D02*
X0116669Y0177961D01*
X0115269Y0177410D02*
X0114208Y0176349D01*
X0114102Y0177092D02*
X0114951Y0176243D01*
X0115269Y0177410D02*
X0113360Y0178471D01*
X0111111Y0175691D02*
X0111143Y0175605D01*
X0111178Y0175520D01*
X0111217Y0175437D01*
X0111259Y0175356D01*
X0111304Y0175276D01*
X0111353Y0175198D01*
X0111405Y0175122D01*
X0111460Y0175049D01*
X0111517Y0174978D01*
X0111578Y0174909D01*
X0111642Y0174843D01*
X0112702Y0175903D02*
X0112766Y0175837D01*
X0112827Y0175768D01*
X0112884Y0175697D01*
X0112939Y0175624D01*
X0112991Y0175548D01*
X0113040Y0175470D01*
X0113085Y0175390D01*
X0113127Y0175309D01*
X0113166Y0175226D01*
X0113201Y0175141D01*
X0113233Y0175055D01*
X0113126Y0175267D02*
X0111217Y0175480D01*
X0111111Y0175692D02*
X0111093Y0175734D01*
X0111078Y0175777D01*
X0111067Y0175822D01*
X0111059Y0175867D01*
X0111055Y0175913D01*
X0111055Y0175959D01*
X0111059Y0176005D01*
X0111067Y0176050D01*
X0111078Y0176094D01*
X0111093Y0176138D01*
X0111111Y0176180D01*
X0111133Y0176220D01*
X0111158Y0176258D01*
X0111186Y0176295D01*
X0111218Y0176328D01*
X0111251Y0176360D01*
X0111288Y0176388D01*
X0111326Y0176413D01*
X0111366Y0176435D01*
X0111408Y0176453D01*
X0111452Y0176468D01*
X0111496Y0176479D01*
X0111541Y0176487D01*
X0111587Y0176491D01*
X0111633Y0176491D01*
X0111679Y0176487D01*
X0111724Y0176479D01*
X0111769Y0176468D01*
X0111812Y0176453D01*
X0111854Y0176435D01*
X0111642Y0174843D02*
X0111708Y0174780D01*
X0111777Y0174719D01*
X0111848Y0174661D01*
X0111922Y0174607D01*
X0111998Y0174555D01*
X0112075Y0174506D01*
X0112155Y0174461D01*
X0112237Y0174419D01*
X0112320Y0174380D01*
X0112405Y0174345D01*
X0112491Y0174313D01*
X0112490Y0174312D02*
X0112532Y0174294D01*
X0112575Y0174279D01*
X0112620Y0174268D01*
X0112665Y0174260D01*
X0112711Y0174256D01*
X0112757Y0174256D01*
X0112803Y0174260D01*
X0112848Y0174268D01*
X0112892Y0174279D01*
X0112936Y0174294D01*
X0112978Y0174312D01*
X0113018Y0174334D01*
X0113056Y0174359D01*
X0113093Y0174387D01*
X0113126Y0174419D01*
X0113158Y0174452D01*
X0113186Y0174489D01*
X0113211Y0174527D01*
X0113233Y0174567D01*
X0113251Y0174609D01*
X0113266Y0174653D01*
X0113277Y0174697D01*
X0113285Y0174742D01*
X0113289Y0174788D01*
X0113289Y0174834D01*
X0113285Y0174880D01*
X0113277Y0174925D01*
X0113266Y0174970D01*
X0113251Y0175013D01*
X0113233Y0175055D01*
X0112702Y0175903D02*
X0112636Y0175967D01*
X0112567Y0176028D01*
X0112496Y0176085D01*
X0112423Y0176140D01*
X0112347Y0176192D01*
X0112269Y0176241D01*
X0112189Y0176286D01*
X0112108Y0176328D01*
X0112025Y0176367D01*
X0111940Y0176402D01*
X0111854Y0176434D01*
X0103495Y0163854D02*
X0104556Y0162793D01*
X0104555Y0162793D02*
X0104587Y0162759D01*
X0104616Y0162722D01*
X0104643Y0162683D01*
X0104666Y0162641D01*
X0104685Y0162599D01*
X0104702Y0162554D01*
X0104714Y0162509D01*
X0104724Y0162463D01*
X0104729Y0162416D01*
X0104731Y0162369D01*
X0104729Y0162322D01*
X0104724Y0162275D01*
X0104714Y0162229D01*
X0104702Y0162184D01*
X0104685Y0162139D01*
X0104666Y0162097D01*
X0104643Y0162056D01*
X0104616Y0162016D01*
X0104587Y0161979D01*
X0104555Y0161945D01*
X0104556Y0161945D02*
X0104131Y0161520D01*
X0103274Y0160663D02*
X0102213Y0159602D01*
X0102744Y0160133D02*
X0100834Y0162042D01*
X0101789Y0162148D01*
X0102222Y0163430D02*
X0102646Y0163854D01*
X0102647Y0163853D02*
X0102681Y0163885D01*
X0102718Y0163914D01*
X0102758Y0163941D01*
X0102799Y0163964D01*
X0102841Y0163983D01*
X0102886Y0164000D01*
X0102931Y0164012D01*
X0102977Y0164022D01*
X0103024Y0164027D01*
X0103071Y0164029D01*
X0103118Y0164027D01*
X0103165Y0164022D01*
X0103211Y0164012D01*
X0103256Y0164000D01*
X0103301Y0163983D01*
X0103343Y0163964D01*
X0103385Y0163941D01*
X0103424Y0163914D01*
X0103461Y0163885D01*
X0103495Y0163853D01*
X0099753Y0160111D02*
X0098798Y0160005D01*
X0100707Y0158096D01*
X0100177Y0157566D02*
X0101238Y0158627D01*
X0098670Y0157120D02*
X0098707Y0157081D01*
X0098740Y0157039D01*
X0098771Y0156995D01*
X0098798Y0156949D01*
X0098822Y0156902D01*
X0098843Y0156852D01*
X0098860Y0156801D01*
X0098873Y0156749D01*
X0098882Y0156697D01*
X0098888Y0156644D01*
X0098890Y0156590D01*
X0098888Y0156536D01*
X0098882Y0156483D01*
X0098873Y0156431D01*
X0098860Y0156379D01*
X0098843Y0156328D01*
X0098822Y0156278D01*
X0098798Y0156231D01*
X0098771Y0156185D01*
X0098740Y0156141D01*
X0098707Y0156099D01*
X0098670Y0156060D01*
X0098631Y0156023D01*
X0098589Y0155990D01*
X0098545Y0155959D01*
X0098499Y0155932D01*
X0098452Y0155908D01*
X0098402Y0155887D01*
X0098351Y0155870D01*
X0098299Y0155857D01*
X0098247Y0155848D01*
X0098194Y0155842D01*
X0098140Y0155840D01*
X0098087Y0155842D01*
X0098033Y0155848D01*
X0097981Y0155857D01*
X0097929Y0155870D01*
X0097878Y0155887D01*
X0097828Y0155908D01*
X0097781Y0155932D01*
X0097735Y0155959D01*
X0097691Y0155990D01*
X0097649Y0156023D01*
X0097610Y0156060D01*
X0097573Y0156099D01*
X0097540Y0156141D01*
X0097509Y0156185D01*
X0097482Y0156231D01*
X0097458Y0156278D01*
X0097437Y0156328D01*
X0097420Y0156379D01*
X0097407Y0156431D01*
X0097398Y0156483D01*
X0097392Y0156536D01*
X0097390Y0156590D01*
X0097392Y0156643D01*
X0097398Y0156697D01*
X0097407Y0156749D01*
X0097420Y0156801D01*
X0097437Y0156852D01*
X0097458Y0156902D01*
X0097482Y0156949D01*
X0097509Y0156995D01*
X0097540Y0157039D01*
X0097573Y0157081D01*
X0097610Y0157120D01*
X0097649Y0157157D01*
X0097691Y0157190D01*
X0097735Y0157221D01*
X0097781Y0157248D01*
X0097828Y0157272D01*
X0097878Y0157293D01*
X0097929Y0157310D01*
X0097981Y0157323D01*
X0098033Y0157332D01*
X0098086Y0157338D01*
X0098140Y0157340D01*
X0098194Y0157338D01*
X0098247Y0157332D01*
X0098299Y0157323D01*
X0098351Y0157310D01*
X0098402Y0157293D01*
X0098452Y0157272D01*
X0098499Y0157248D01*
X0098545Y0157221D01*
X0098589Y0157190D01*
X0098631Y0157157D01*
X0098670Y0157120D01*
X0097610Y0157969D02*
X0097643Y0157934D01*
X0097673Y0157896D01*
X0097699Y0157855D01*
X0097723Y0157813D01*
X0097743Y0157769D01*
X0097759Y0157724D01*
X0097771Y0157677D01*
X0097780Y0157629D01*
X0097785Y0157581D01*
X0097786Y0157533D01*
X0097783Y0157485D01*
X0097776Y0157437D01*
X0097766Y0157390D01*
X0097751Y0157344D01*
X0097733Y0157299D01*
X0097712Y0157256D01*
X0097687Y0157214D01*
X0097658Y0157175D01*
X0097627Y0157138D01*
X0097593Y0157104D01*
X0097556Y0157073D01*
X0097517Y0157044D01*
X0097475Y0157019D01*
X0097432Y0156998D01*
X0097387Y0156980D01*
X0097341Y0156965D01*
X0097294Y0156955D01*
X0097246Y0156948D01*
X0097198Y0156945D01*
X0097150Y0156946D01*
X0097102Y0156951D01*
X0097054Y0156960D01*
X0097007Y0156972D01*
X0096962Y0156988D01*
X0096918Y0157008D01*
X0096876Y0157032D01*
X0096835Y0157058D01*
X0096797Y0157088D01*
X0096762Y0157121D01*
X0096729Y0157156D01*
X0096699Y0157194D01*
X0096673Y0157235D01*
X0096649Y0157277D01*
X0096629Y0157321D01*
X0096613Y0157367D01*
X0096601Y0157413D01*
X0096592Y0157461D01*
X0096587Y0157509D01*
X0096586Y0157557D01*
X0096589Y0157605D01*
X0096596Y0157653D01*
X0096606Y0157700D01*
X0096621Y0157746D01*
X0096639Y0157791D01*
X0096660Y0157834D01*
X0096685Y0157876D01*
X0096714Y0157915D01*
X0096745Y0157952D01*
X0096779Y0157986D01*
X0096816Y0158017D01*
X0096855Y0158046D01*
X0096897Y0158071D01*
X0096940Y0158092D01*
X0096985Y0158110D01*
X0097031Y0158125D01*
X0097078Y0158135D01*
X0097126Y0158142D01*
X0097174Y0158145D01*
X0097222Y0158144D01*
X0097270Y0158139D01*
X0097318Y0158130D01*
X0097365Y0158118D01*
X0097410Y0158102D01*
X0097454Y0158082D01*
X0097496Y0158058D01*
X0097537Y0158032D01*
X0097575Y0158002D01*
X0097610Y0157969D01*
X0084048Y0171683D02*
X0084048Y0173183D01*
X0084046Y0173230D01*
X0084041Y0173277D01*
X0084031Y0173323D01*
X0084019Y0173368D01*
X0084002Y0173413D01*
X0083983Y0173455D01*
X0083960Y0173496D01*
X0083933Y0173536D01*
X0083904Y0173573D01*
X0083872Y0173607D01*
X0083838Y0173639D01*
X0083801Y0173668D01*
X0083761Y0173695D01*
X0083720Y0173718D01*
X0083678Y0173737D01*
X0083633Y0173754D01*
X0083588Y0173766D01*
X0083542Y0173776D01*
X0083495Y0173781D01*
X0083448Y0173783D01*
X0082848Y0173783D01*
X0081635Y0173183D02*
X0080885Y0173783D01*
X0080885Y0171083D01*
X0081635Y0171083D02*
X0080135Y0171083D01*
X0078755Y0171683D02*
X0077255Y0171683D01*
X0077705Y0172283D02*
X0077705Y0171083D01*
X0078755Y0171683D02*
X0078155Y0173783D01*
X0075875Y0173183D02*
X0075125Y0173783D01*
X0075125Y0171083D01*
X0075875Y0171083D02*
X0074375Y0171083D01*
X0074885Y0167783D02*
X0074885Y0165083D01*
X0075635Y0165083D02*
X0074135Y0165083D01*
X0072755Y0165083D02*
X0071255Y0165083D01*
X0072005Y0165083D02*
X0072005Y0167783D01*
X0072755Y0167183D01*
X0074885Y0167783D02*
X0075635Y0167183D01*
X0076848Y0167783D02*
X0077448Y0167783D01*
X0077495Y0167781D01*
X0077542Y0167776D01*
X0077588Y0167766D01*
X0077633Y0167754D01*
X0077678Y0167737D01*
X0077720Y0167718D01*
X0077761Y0167695D01*
X0077801Y0167668D01*
X0077838Y0167639D01*
X0077872Y0167607D01*
X0077904Y0167573D01*
X0077933Y0167536D01*
X0077960Y0167496D01*
X0077983Y0167455D01*
X0078002Y0167413D01*
X0078019Y0167368D01*
X0078031Y0167323D01*
X0078041Y0167277D01*
X0078046Y0167230D01*
X0078048Y0167183D01*
X0078048Y0165683D01*
X0078046Y0165636D01*
X0078041Y0165589D01*
X0078031Y0165543D01*
X0078019Y0165498D01*
X0078002Y0165453D01*
X0077983Y0165411D01*
X0077960Y0165370D01*
X0077933Y0165330D01*
X0077904Y0165293D01*
X0077872Y0165259D01*
X0077838Y0165227D01*
X0077801Y0165198D01*
X0077761Y0165171D01*
X0077720Y0165148D01*
X0077678Y0165129D01*
X0077633Y0165112D01*
X0077588Y0165100D01*
X0077542Y0165090D01*
X0077495Y0165085D01*
X0077448Y0165083D01*
X0076848Y0165083D01*
X0069875Y0166883D02*
X0069875Y0167033D01*
X0069875Y0166883D02*
X0069873Y0166836D01*
X0069868Y0166789D01*
X0069858Y0166743D01*
X0069846Y0166698D01*
X0069829Y0166653D01*
X0069810Y0166611D01*
X0069787Y0166570D01*
X0069760Y0166530D01*
X0069731Y0166493D01*
X0069699Y0166459D01*
X0069665Y0166427D01*
X0069628Y0166398D01*
X0069588Y0166371D01*
X0069547Y0166348D01*
X0069505Y0166329D01*
X0069460Y0166312D01*
X0069415Y0166300D01*
X0069369Y0166290D01*
X0069322Y0166285D01*
X0069275Y0166283D01*
X0068375Y0166283D01*
X0068375Y0167033D01*
X0068377Y0167087D01*
X0068383Y0167140D01*
X0068392Y0167192D01*
X0068405Y0167244D01*
X0068422Y0167295D01*
X0068443Y0167345D01*
X0068467Y0167392D01*
X0068494Y0167438D01*
X0068525Y0167482D01*
X0068558Y0167524D01*
X0068595Y0167563D01*
X0068634Y0167600D01*
X0068676Y0167633D01*
X0068720Y0167664D01*
X0068766Y0167691D01*
X0068813Y0167715D01*
X0068863Y0167736D01*
X0068914Y0167753D01*
X0068966Y0167766D01*
X0069018Y0167775D01*
X0069071Y0167781D01*
X0069125Y0167783D01*
X0069179Y0167781D01*
X0069232Y0167775D01*
X0069284Y0167766D01*
X0069336Y0167753D01*
X0069387Y0167736D01*
X0069437Y0167715D01*
X0069484Y0167691D01*
X0069530Y0167664D01*
X0069574Y0167633D01*
X0069616Y0167600D01*
X0069655Y0167563D01*
X0069692Y0167524D01*
X0069725Y0167482D01*
X0069756Y0167438D01*
X0069783Y0167392D01*
X0069807Y0167345D01*
X0069828Y0167295D01*
X0069845Y0167244D01*
X0069858Y0167192D01*
X0069867Y0167140D01*
X0069873Y0167087D01*
X0069875Y0167033D01*
X0068375Y0166283D02*
X0068377Y0166216D01*
X0068383Y0166149D01*
X0068392Y0166082D01*
X0068405Y0166016D01*
X0068422Y0165951D01*
X0068442Y0165887D01*
X0068466Y0165824D01*
X0068494Y0165762D01*
X0068525Y0165703D01*
X0068559Y0165645D01*
X0068596Y0165589D01*
X0068637Y0165535D01*
X0068680Y0165483D01*
X0068726Y0165434D01*
X0068775Y0165388D01*
X0068827Y0165345D01*
X0068881Y0165304D01*
X0068937Y0165267D01*
X0068995Y0165233D01*
X0069054Y0165202D01*
X0069116Y0165174D01*
X0069179Y0165150D01*
X0069243Y0165130D01*
X0069308Y0165113D01*
X0069374Y0165100D01*
X0069441Y0165091D01*
X0069508Y0165085D01*
X0069575Y0165083D01*
X0066948Y0157283D02*
X0066348Y0157283D01*
X0066948Y0157283D02*
X0066995Y0157281D01*
X0067042Y0157276D01*
X0067088Y0157266D01*
X0067133Y0157254D01*
X0067178Y0157237D01*
X0067220Y0157218D01*
X0067261Y0157195D01*
X0067301Y0157168D01*
X0067338Y0157139D01*
X0067372Y0157107D01*
X0067404Y0157073D01*
X0067433Y0157036D01*
X0067460Y0156996D01*
X0067483Y0156955D01*
X0067502Y0156913D01*
X0067519Y0156868D01*
X0067531Y0156823D01*
X0067541Y0156777D01*
X0067546Y0156730D01*
X0067548Y0156683D01*
X0067548Y0155183D01*
X0067546Y0155136D01*
X0067541Y0155089D01*
X0067531Y0155043D01*
X0067519Y0154998D01*
X0067502Y0154953D01*
X0067483Y0154911D01*
X0067460Y0154870D01*
X0067433Y0154830D01*
X0067404Y0154793D01*
X0067372Y0154759D01*
X0067338Y0154727D01*
X0067301Y0154698D01*
X0067261Y0154671D01*
X0067220Y0154648D01*
X0067178Y0154629D01*
X0067133Y0154612D01*
X0067088Y0154600D01*
X0067042Y0154590D01*
X0066995Y0154585D01*
X0066948Y0154583D01*
X0066348Y0154583D01*
X0065135Y0154583D02*
X0063635Y0154583D01*
X0064385Y0154583D02*
X0064385Y0157283D01*
X0065135Y0156683D01*
X0062255Y0154583D02*
X0060755Y0154583D01*
X0062255Y0154583D02*
X0060980Y0156083D01*
X0061430Y0157283D02*
X0061487Y0157281D01*
X0061544Y0157275D01*
X0061601Y0157266D01*
X0061657Y0157253D01*
X0061712Y0157236D01*
X0061765Y0157216D01*
X0061817Y0157192D01*
X0061868Y0157164D01*
X0061916Y0157134D01*
X0061963Y0157100D01*
X0062007Y0157063D01*
X0062048Y0157024D01*
X0062087Y0156981D01*
X0062123Y0156937D01*
X0062156Y0156890D01*
X0062186Y0156841D01*
X0062212Y0156790D01*
X0062235Y0156737D01*
X0062255Y0156683D01*
X0060980Y0156083D02*
X0060943Y0156121D01*
X0060908Y0156162D01*
X0060877Y0156205D01*
X0060849Y0156251D01*
X0060825Y0156298D01*
X0060804Y0156347D01*
X0060786Y0156398D01*
X0060773Y0156449D01*
X0060763Y0156502D01*
X0060757Y0156555D01*
X0060755Y0156608D01*
X0060757Y0156658D01*
X0060763Y0156709D01*
X0060772Y0156758D01*
X0060785Y0156807D01*
X0060802Y0156855D01*
X0060822Y0156901D01*
X0060845Y0156946D01*
X0060872Y0156988D01*
X0060902Y0157029D01*
X0060935Y0157067D01*
X0060971Y0157103D01*
X0061009Y0157136D01*
X0061050Y0157166D01*
X0061093Y0157193D01*
X0061137Y0157216D01*
X0061183Y0157236D01*
X0061231Y0157253D01*
X0061280Y0157266D01*
X0061329Y0157275D01*
X0061380Y0157281D01*
X0061430Y0157283D01*
X0057875Y0155933D02*
X0057877Y0155841D01*
X0057883Y0155750D01*
X0057892Y0155658D01*
X0057905Y0155568D01*
X0057922Y0155477D01*
X0057943Y0155388D01*
X0057967Y0155300D01*
X0057995Y0155212D01*
X0058026Y0155126D01*
X0058062Y0155041D01*
X0058100Y0154958D01*
X0058117Y0154915D01*
X0058137Y0154874D01*
X0058160Y0154835D01*
X0058187Y0154797D01*
X0058217Y0154762D01*
X0058249Y0154730D01*
X0058284Y0154700D01*
X0058321Y0154673D01*
X0058361Y0154650D01*
X0058402Y0154630D01*
X0058445Y0154613D01*
X0058489Y0154600D01*
X0058534Y0154591D01*
X0058579Y0154585D01*
X0058625Y0154583D01*
X0058671Y0154585D01*
X0058716Y0154591D01*
X0058761Y0154600D01*
X0058805Y0154613D01*
X0058848Y0154630D01*
X0058889Y0154650D01*
X0058929Y0154673D01*
X0058966Y0154700D01*
X0059001Y0154730D01*
X0059033Y0154762D01*
X0059063Y0154797D01*
X0059090Y0154835D01*
X0059113Y0154874D01*
X0059133Y0154915D01*
X0059150Y0154958D01*
X0059225Y0155183D02*
X0058025Y0156683D01*
X0058100Y0156908D02*
X0058117Y0156951D01*
X0058137Y0156992D01*
X0058160Y0157031D01*
X0058187Y0157069D01*
X0058217Y0157104D01*
X0058249Y0157136D01*
X0058284Y0157166D01*
X0058321Y0157193D01*
X0058361Y0157216D01*
X0058402Y0157236D01*
X0058445Y0157253D01*
X0058489Y0157266D01*
X0058534Y0157275D01*
X0058579Y0157281D01*
X0058625Y0157283D01*
X0058671Y0157281D01*
X0058716Y0157275D01*
X0058761Y0157266D01*
X0058805Y0157253D01*
X0058848Y0157236D01*
X0058889Y0157216D01*
X0058929Y0157193D01*
X0058966Y0157166D01*
X0059001Y0157136D01*
X0059033Y0157104D01*
X0059063Y0157069D01*
X0059090Y0157031D01*
X0059113Y0156992D01*
X0059133Y0156951D01*
X0059150Y0156908D01*
X0058100Y0156908D02*
X0058062Y0156825D01*
X0058026Y0156740D01*
X0057995Y0156654D01*
X0057967Y0156566D01*
X0057943Y0156478D01*
X0057922Y0156389D01*
X0057905Y0156298D01*
X0057892Y0156208D01*
X0057883Y0156116D01*
X0057877Y0156025D01*
X0057875Y0155933D01*
X0059375Y0155933D02*
X0059373Y0155841D01*
X0059367Y0155750D01*
X0059358Y0155658D01*
X0059345Y0155568D01*
X0059328Y0155477D01*
X0059307Y0155388D01*
X0059283Y0155300D01*
X0059255Y0155212D01*
X0059224Y0155126D01*
X0059188Y0155041D01*
X0059150Y0154958D01*
X0059375Y0155933D02*
X0059373Y0156025D01*
X0059367Y0156116D01*
X0059358Y0156208D01*
X0059345Y0156298D01*
X0059328Y0156389D01*
X0059307Y0156478D01*
X0059283Y0156566D01*
X0059255Y0156654D01*
X0059224Y0156740D01*
X0059188Y0156825D01*
X0059150Y0156908D01*
X0058385Y0151283D02*
X0058385Y0148583D01*
X0059135Y0148583D02*
X0057635Y0148583D01*
X0056255Y0149183D02*
X0054755Y0149183D01*
X0055205Y0149783D02*
X0055205Y0148583D01*
X0056255Y0149183D02*
X0055655Y0151283D01*
X0058385Y0151283D02*
X0059135Y0150683D01*
X0060348Y0151283D02*
X0060948Y0151283D01*
X0060995Y0151281D01*
X0061042Y0151276D01*
X0061088Y0151266D01*
X0061133Y0151254D01*
X0061178Y0151237D01*
X0061220Y0151218D01*
X0061261Y0151195D01*
X0061301Y0151168D01*
X0061338Y0151139D01*
X0061372Y0151107D01*
X0061404Y0151073D01*
X0061433Y0151036D01*
X0061460Y0150996D01*
X0061483Y0150955D01*
X0061502Y0150913D01*
X0061519Y0150868D01*
X0061531Y0150823D01*
X0061541Y0150777D01*
X0061546Y0150730D01*
X0061548Y0150683D01*
X0061548Y0149183D01*
X0061546Y0149136D01*
X0061541Y0149089D01*
X0061531Y0149043D01*
X0061519Y0148998D01*
X0061502Y0148953D01*
X0061483Y0148911D01*
X0061460Y0148870D01*
X0061433Y0148830D01*
X0061404Y0148793D01*
X0061372Y0148759D01*
X0061338Y0148727D01*
X0061301Y0148698D01*
X0061261Y0148671D01*
X0061220Y0148648D01*
X0061178Y0148629D01*
X0061133Y0148612D01*
X0061088Y0148600D01*
X0061042Y0148590D01*
X0060995Y0148585D01*
X0060948Y0148583D01*
X0060348Y0148583D01*
X0060222Y0144055D02*
X0060859Y0143419D01*
X0060222Y0144055D02*
X0060187Y0144088D01*
X0060149Y0144118D01*
X0060108Y0144144D01*
X0060066Y0144168D01*
X0060022Y0144188D01*
X0059977Y0144204D01*
X0059930Y0144216D01*
X0059882Y0144225D01*
X0059834Y0144230D01*
X0059786Y0144231D01*
X0059738Y0144228D01*
X0059690Y0144221D01*
X0059643Y0144211D01*
X0059597Y0144196D01*
X0059552Y0144178D01*
X0059509Y0144157D01*
X0059467Y0144132D01*
X0059428Y0144103D01*
X0059391Y0144072D01*
X0059357Y0144038D01*
X0059326Y0144001D01*
X0059297Y0143962D01*
X0059272Y0143920D01*
X0059251Y0143877D01*
X0059233Y0143832D01*
X0059218Y0143786D01*
X0059208Y0143739D01*
X0059201Y0143691D01*
X0059198Y0143643D01*
X0059199Y0143595D01*
X0059204Y0143547D01*
X0059213Y0143499D01*
X0059225Y0143452D01*
X0059241Y0143407D01*
X0059261Y0143363D01*
X0059285Y0143321D01*
X0059311Y0143280D01*
X0059341Y0143242D01*
X0059374Y0143207D01*
X0059798Y0142783D01*
X0059479Y0143101D02*
X0059440Y0143138D01*
X0059398Y0143171D01*
X0059354Y0143202D01*
X0059308Y0143229D01*
X0059261Y0143253D01*
X0059211Y0143274D01*
X0059160Y0143291D01*
X0059108Y0143304D01*
X0059056Y0143313D01*
X0059003Y0143319D01*
X0058949Y0143321D01*
X0058896Y0143319D01*
X0058842Y0143313D01*
X0058790Y0143304D01*
X0058738Y0143291D01*
X0058687Y0143274D01*
X0058637Y0143253D01*
X0058590Y0143229D01*
X0058544Y0143202D01*
X0058500Y0143171D01*
X0058458Y0143138D01*
X0058419Y0143101D01*
X0058382Y0143062D01*
X0058349Y0143020D01*
X0058318Y0142976D01*
X0058291Y0142930D01*
X0058267Y0142883D01*
X0058246Y0142833D01*
X0058229Y0142782D01*
X0058216Y0142730D01*
X0058207Y0142678D01*
X0058201Y0142625D01*
X0058199Y0142571D01*
X0058201Y0142517D01*
X0058207Y0142464D01*
X0058216Y0142412D01*
X0058229Y0142360D01*
X0058246Y0142309D01*
X0058267Y0142259D01*
X0058291Y0142212D01*
X0058318Y0142166D01*
X0058349Y0142122D01*
X0058382Y0142080D01*
X0058419Y0142041D01*
X0058419Y0142040D02*
X0058949Y0141510D01*
X0060349Y0140958D02*
X0061410Y0139898D01*
X0062471Y0141807D01*
X0061092Y0141064D02*
X0060243Y0140216D01*
X0061962Y0138498D02*
X0063022Y0137437D01*
X0062492Y0137967D02*
X0064401Y0139876D01*
X0064507Y0138922D01*
X0065789Y0138489D02*
X0066213Y0138065D01*
X0066213Y0138064D02*
X0066245Y0138030D01*
X0066274Y0137993D01*
X0066301Y0137954D01*
X0066324Y0137912D01*
X0066343Y0137870D01*
X0066360Y0137825D01*
X0066372Y0137780D01*
X0066382Y0137734D01*
X0066387Y0137687D01*
X0066389Y0137640D01*
X0066387Y0137593D01*
X0066382Y0137546D01*
X0066372Y0137500D01*
X0066360Y0137455D01*
X0066343Y0137410D01*
X0066324Y0137368D01*
X0066301Y0137327D01*
X0066274Y0137287D01*
X0066245Y0137250D01*
X0066213Y0137216D01*
X0065152Y0136155D01*
X0065152Y0136156D02*
X0065118Y0136124D01*
X0065081Y0136095D01*
X0065042Y0136068D01*
X0065000Y0136045D01*
X0064958Y0136026D01*
X0064913Y0136009D01*
X0064868Y0135997D01*
X0064822Y0135987D01*
X0064775Y0135982D01*
X0064728Y0135980D01*
X0064681Y0135982D01*
X0064634Y0135987D01*
X0064588Y0135997D01*
X0064543Y0136009D01*
X0064498Y0136026D01*
X0064456Y0136045D01*
X0064415Y0136068D01*
X0064375Y0136095D01*
X0064338Y0136124D01*
X0064304Y0136156D01*
X0064304Y0136155D02*
X0063879Y0136580D01*
X0053375Y0148583D02*
X0051875Y0148583D01*
X0053375Y0148583D02*
X0052100Y0150083D01*
X0052550Y0151283D02*
X0052607Y0151281D01*
X0052664Y0151275D01*
X0052721Y0151266D01*
X0052777Y0151253D01*
X0052832Y0151236D01*
X0052885Y0151216D01*
X0052937Y0151192D01*
X0052988Y0151164D01*
X0053036Y0151134D01*
X0053083Y0151100D01*
X0053127Y0151063D01*
X0053168Y0151024D01*
X0053207Y0150981D01*
X0053243Y0150937D01*
X0053276Y0150890D01*
X0053306Y0150841D01*
X0053332Y0150790D01*
X0053355Y0150737D01*
X0053375Y0150683D01*
X0052100Y0150083D02*
X0052063Y0150121D01*
X0052028Y0150162D01*
X0051997Y0150205D01*
X0051969Y0150251D01*
X0051945Y0150298D01*
X0051924Y0150347D01*
X0051906Y0150398D01*
X0051893Y0150449D01*
X0051883Y0150502D01*
X0051877Y0150555D01*
X0051875Y0150608D01*
X0051877Y0150658D01*
X0051883Y0150709D01*
X0051892Y0150758D01*
X0051905Y0150807D01*
X0051922Y0150855D01*
X0051942Y0150901D01*
X0051965Y0150946D01*
X0051992Y0150988D01*
X0052022Y0151029D01*
X0052055Y0151067D01*
X0052091Y0151103D01*
X0052129Y0151136D01*
X0052170Y0151166D01*
X0052213Y0151193D01*
X0052257Y0151216D01*
X0052303Y0151236D01*
X0052351Y0151253D01*
X0052400Y0151266D01*
X0052449Y0151275D01*
X0052500Y0151281D01*
X0052550Y0151283D01*
X0045701Y0163711D02*
X0046762Y0164772D01*
X0046231Y0164242D02*
X0044322Y0166151D01*
X0045277Y0166257D01*
X0046836Y0166968D02*
X0048798Y0166809D01*
X0047738Y0165748D01*
X0047313Y0168293D02*
X0047261Y0168318D01*
X0047208Y0168338D01*
X0047153Y0168356D01*
X0047098Y0168369D01*
X0047041Y0168379D01*
X0046984Y0168386D01*
X0046927Y0168388D01*
X0046869Y0168387D01*
X0046812Y0168381D01*
X0046756Y0168372D01*
X0046700Y0168360D01*
X0046645Y0168343D01*
X0046591Y0168323D01*
X0046538Y0168300D01*
X0046488Y0168273D01*
X0046439Y0168243D01*
X0046392Y0168210D01*
X0046348Y0168173D01*
X0046306Y0168134D01*
X0046271Y0168097D01*
X0046240Y0168058D01*
X0046211Y0168016D01*
X0046186Y0167972D01*
X0046164Y0167927D01*
X0046146Y0167880D01*
X0046131Y0167832D01*
X0046120Y0167782D01*
X0046112Y0167733D01*
X0046108Y0167682D01*
X0046108Y0167632D01*
X0046112Y0167581D01*
X0046120Y0167532D01*
X0046131Y0167482D01*
X0046146Y0167434D01*
X0046164Y0167387D01*
X0046186Y0167342D01*
X0046211Y0167298D01*
X0046240Y0167256D01*
X0046271Y0167217D01*
X0046306Y0167180D01*
X0046305Y0167179D02*
X0046344Y0167143D01*
X0046386Y0167110D01*
X0046430Y0167079D01*
X0046476Y0167053D01*
X0046524Y0167029D01*
X0046574Y0167009D01*
X0046625Y0166993D01*
X0046676Y0166981D01*
X0046729Y0166972D01*
X0046782Y0166968D01*
X0046836Y0166967D01*
X0049774Y0167784D02*
X0050835Y0168845D01*
X0050304Y0168315D02*
X0048395Y0170224D01*
X0049350Y0170330D01*
X0049783Y0171611D02*
X0050207Y0172036D01*
X0050207Y0172035D02*
X0050241Y0172067D01*
X0050278Y0172096D01*
X0050318Y0172123D01*
X0050359Y0172146D01*
X0050401Y0172165D01*
X0050446Y0172182D01*
X0050491Y0172194D01*
X0050537Y0172204D01*
X0050584Y0172209D01*
X0050631Y0172211D01*
X0050678Y0172209D01*
X0050725Y0172204D01*
X0050771Y0172194D01*
X0050816Y0172182D01*
X0050861Y0172165D01*
X0050903Y0172146D01*
X0050945Y0172123D01*
X0050984Y0172096D01*
X0051021Y0172067D01*
X0051055Y0172035D01*
X0051056Y0172036D02*
X0052116Y0170975D01*
X0052148Y0170941D01*
X0052177Y0170904D01*
X0052204Y0170865D01*
X0052227Y0170823D01*
X0052246Y0170781D01*
X0052263Y0170736D01*
X0052275Y0170691D01*
X0052285Y0170645D01*
X0052290Y0170598D01*
X0052292Y0170551D01*
X0052290Y0170504D01*
X0052285Y0170457D01*
X0052275Y0170411D01*
X0052263Y0170366D01*
X0052246Y0170321D01*
X0052227Y0170279D01*
X0052204Y0170238D01*
X0052177Y0170198D01*
X0052148Y0170161D01*
X0052116Y0170127D01*
X0051692Y0169702D01*
X0082848Y0171083D02*
X0083448Y0171083D01*
X0083495Y0171085D01*
X0083542Y0171090D01*
X0083588Y0171100D01*
X0083633Y0171112D01*
X0083678Y0171129D01*
X0083720Y0171148D01*
X0083761Y0171171D01*
X0083801Y0171198D01*
X0083838Y0171227D01*
X0083872Y0171259D01*
X0083904Y0171293D01*
X0083933Y0171330D01*
X0083960Y0171370D01*
X0083983Y0171411D01*
X0084002Y0171453D01*
X0084019Y0171498D01*
X0084031Y0171543D01*
X0084041Y0171589D01*
X0084046Y0171636D01*
X0084048Y0171683D01*
X0094683Y0192083D02*
X0096183Y0192083D01*
X0096230Y0192085D01*
X0096277Y0192090D01*
X0096323Y0192100D01*
X0096368Y0192112D01*
X0096413Y0192129D01*
X0096455Y0192148D01*
X0096496Y0192171D01*
X0096536Y0192198D01*
X0096573Y0192227D01*
X0096607Y0192259D01*
X0096639Y0192293D01*
X0096668Y0192330D01*
X0096695Y0192370D01*
X0096718Y0192411D01*
X0096737Y0192453D01*
X0096754Y0192498D01*
X0096766Y0192543D01*
X0096776Y0192589D01*
X0096781Y0192636D01*
X0096783Y0192683D01*
X0096783Y0193283D01*
X0096183Y0194496D02*
X0096783Y0195246D01*
X0094083Y0195246D01*
X0094083Y0194496D02*
X0094083Y0195996D01*
X0094083Y0197376D02*
X0094083Y0198276D01*
X0094085Y0198323D01*
X0094090Y0198370D01*
X0094100Y0198416D01*
X0094112Y0198461D01*
X0094129Y0198506D01*
X0094148Y0198548D01*
X0094171Y0198589D01*
X0094198Y0198629D01*
X0094227Y0198666D01*
X0094259Y0198700D01*
X0094293Y0198732D01*
X0094330Y0198761D01*
X0094370Y0198788D01*
X0094411Y0198811D01*
X0094453Y0198830D01*
X0094498Y0198847D01*
X0094543Y0198859D01*
X0094589Y0198869D01*
X0094636Y0198874D01*
X0094683Y0198876D01*
X0094983Y0198876D01*
X0095030Y0198874D01*
X0095077Y0198869D01*
X0095123Y0198859D01*
X0095168Y0198847D01*
X0095213Y0198830D01*
X0095255Y0198811D01*
X0095296Y0198788D01*
X0095336Y0198761D01*
X0095373Y0198732D01*
X0095407Y0198700D01*
X0095439Y0198666D01*
X0095468Y0198629D01*
X0095495Y0198589D01*
X0095518Y0198548D01*
X0095537Y0198506D01*
X0095554Y0198461D01*
X0095566Y0198416D01*
X0095576Y0198370D01*
X0095581Y0198323D01*
X0095583Y0198276D01*
X0095583Y0197376D01*
X0096783Y0197376D01*
X0096783Y0198876D01*
X0096783Y0200856D02*
X0094683Y0200256D01*
X0094683Y0201756D01*
X0095283Y0201306D02*
X0094083Y0201306D01*
X0094083Y0193283D02*
X0094083Y0192683D01*
X0094085Y0192636D01*
X0094090Y0192589D01*
X0094100Y0192543D01*
X0094112Y0192498D01*
X0094129Y0192453D01*
X0094148Y0192411D01*
X0094171Y0192370D01*
X0094198Y0192330D01*
X0094227Y0192293D01*
X0094259Y0192259D01*
X0094293Y0192227D01*
X0094330Y0192198D01*
X0094370Y0192171D01*
X0094411Y0192148D01*
X0094453Y0192129D01*
X0094498Y0192112D01*
X0094543Y0192100D01*
X0094589Y0192090D01*
X0094636Y0192085D01*
X0094683Y0192083D01*
X0119083Y0242583D02*
X0121783Y0242583D01*
X0121783Y0243333D01*
X0121781Y0243387D01*
X0121775Y0243440D01*
X0121766Y0243492D01*
X0121753Y0243544D01*
X0121736Y0243595D01*
X0121715Y0243645D01*
X0121691Y0243692D01*
X0121664Y0243738D01*
X0121633Y0243782D01*
X0121600Y0243824D01*
X0121563Y0243863D01*
X0121524Y0243900D01*
X0121482Y0243933D01*
X0121438Y0243964D01*
X0121392Y0243991D01*
X0121345Y0244015D01*
X0121295Y0244036D01*
X0121244Y0244053D01*
X0121192Y0244066D01*
X0121140Y0244075D01*
X0121087Y0244081D01*
X0121033Y0244083D01*
X0120979Y0244081D01*
X0120926Y0244075D01*
X0120874Y0244066D01*
X0120822Y0244053D01*
X0120771Y0244036D01*
X0120721Y0244015D01*
X0120674Y0243991D01*
X0120628Y0243964D01*
X0120584Y0243933D01*
X0120542Y0243900D01*
X0120503Y0243863D01*
X0120466Y0243824D01*
X0120433Y0243782D01*
X0120402Y0243738D01*
X0120375Y0243692D01*
X0120351Y0243645D01*
X0120330Y0243595D01*
X0120313Y0243544D01*
X0120300Y0243492D01*
X0120291Y0243440D01*
X0120285Y0243387D01*
X0120283Y0243333D01*
X0120283Y0242583D01*
X0120283Y0243483D02*
X0119083Y0244083D01*
X0119083Y0245436D02*
X0119083Y0246936D01*
X0119083Y0248316D02*
X0119083Y0249216D01*
X0119085Y0249263D01*
X0119090Y0249310D01*
X0119100Y0249356D01*
X0119112Y0249401D01*
X0119129Y0249446D01*
X0119148Y0249488D01*
X0119171Y0249529D01*
X0119198Y0249569D01*
X0119227Y0249606D01*
X0119259Y0249640D01*
X0119293Y0249672D01*
X0119330Y0249701D01*
X0119370Y0249728D01*
X0119411Y0249751D01*
X0119453Y0249770D01*
X0119498Y0249787D01*
X0119543Y0249799D01*
X0119589Y0249809D01*
X0119636Y0249814D01*
X0119683Y0249816D01*
X0119983Y0249816D01*
X0120030Y0249814D01*
X0120077Y0249809D01*
X0120123Y0249799D01*
X0120168Y0249787D01*
X0120213Y0249770D01*
X0120255Y0249751D01*
X0120296Y0249728D01*
X0120336Y0249701D01*
X0120373Y0249672D01*
X0120407Y0249640D01*
X0120439Y0249606D01*
X0120468Y0249569D01*
X0120495Y0249529D01*
X0120518Y0249488D01*
X0120537Y0249446D01*
X0120554Y0249401D01*
X0120566Y0249356D01*
X0120576Y0249310D01*
X0120581Y0249263D01*
X0120583Y0249216D01*
X0120583Y0248316D01*
X0121783Y0248316D01*
X0121783Y0249816D01*
X0120583Y0246711D02*
X0119083Y0245436D01*
X0121183Y0245436D02*
X0121237Y0245456D01*
X0121290Y0245479D01*
X0121341Y0245505D01*
X0121390Y0245535D01*
X0121437Y0245568D01*
X0121481Y0245604D01*
X0121524Y0245643D01*
X0121563Y0245684D01*
X0121600Y0245728D01*
X0121634Y0245775D01*
X0121664Y0245823D01*
X0121692Y0245874D01*
X0121716Y0245926D01*
X0121736Y0245979D01*
X0121753Y0246034D01*
X0121766Y0246090D01*
X0121775Y0246147D01*
X0121781Y0246204D01*
X0121783Y0246261D01*
X0121781Y0246311D01*
X0121775Y0246362D01*
X0121766Y0246411D01*
X0121753Y0246460D01*
X0121736Y0246508D01*
X0121716Y0246554D01*
X0121693Y0246599D01*
X0121666Y0246641D01*
X0121636Y0246682D01*
X0121603Y0246720D01*
X0121567Y0246756D01*
X0121529Y0246789D01*
X0121488Y0246819D01*
X0121446Y0246846D01*
X0121401Y0246869D01*
X0121355Y0246889D01*
X0121307Y0246906D01*
X0121258Y0246919D01*
X0121209Y0246928D01*
X0121158Y0246934D01*
X0121108Y0246936D01*
X0121055Y0246934D01*
X0121002Y0246928D01*
X0120949Y0246918D01*
X0120898Y0246905D01*
X0120847Y0246887D01*
X0120798Y0246866D01*
X0120751Y0246842D01*
X0120705Y0246814D01*
X0120662Y0246783D01*
X0120621Y0246748D01*
X0120583Y0246711D01*
X0120171Y0269083D02*
X0118671Y0269083D01*
X0117291Y0269083D02*
X0115791Y0269083D01*
X0116541Y0269083D02*
X0116541Y0271783D01*
X0117291Y0271183D01*
X0118896Y0270583D02*
X0120171Y0269083D01*
X0121383Y0269083D02*
X0121983Y0269083D01*
X0122030Y0269085D01*
X0122077Y0269090D01*
X0122123Y0269100D01*
X0122168Y0269112D01*
X0122213Y0269129D01*
X0122255Y0269148D01*
X0122296Y0269171D01*
X0122336Y0269198D01*
X0122373Y0269227D01*
X0122407Y0269259D01*
X0122439Y0269293D01*
X0122468Y0269330D01*
X0122495Y0269370D01*
X0122518Y0269411D01*
X0122537Y0269453D01*
X0122554Y0269498D01*
X0122566Y0269543D01*
X0122576Y0269589D01*
X0122581Y0269636D01*
X0122583Y0269683D01*
X0122583Y0271183D01*
X0122581Y0271230D01*
X0122576Y0271277D01*
X0122566Y0271323D01*
X0122554Y0271368D01*
X0122537Y0271413D01*
X0122518Y0271455D01*
X0122495Y0271496D01*
X0122468Y0271536D01*
X0122439Y0271573D01*
X0122407Y0271607D01*
X0122373Y0271639D01*
X0122336Y0271668D01*
X0122296Y0271695D01*
X0122255Y0271718D01*
X0122213Y0271737D01*
X0122168Y0271754D01*
X0122123Y0271766D01*
X0122077Y0271776D01*
X0122030Y0271781D01*
X0121983Y0271783D01*
X0121383Y0271783D01*
X0118896Y0270583D02*
X0118859Y0270621D01*
X0118824Y0270662D01*
X0118793Y0270705D01*
X0118765Y0270751D01*
X0118741Y0270798D01*
X0118720Y0270847D01*
X0118702Y0270898D01*
X0118689Y0270949D01*
X0118679Y0271002D01*
X0118673Y0271055D01*
X0118671Y0271108D01*
X0118673Y0271158D01*
X0118679Y0271209D01*
X0118688Y0271258D01*
X0118701Y0271307D01*
X0118718Y0271355D01*
X0118738Y0271401D01*
X0118761Y0271446D01*
X0118788Y0271488D01*
X0118818Y0271529D01*
X0118851Y0271567D01*
X0118887Y0271603D01*
X0118925Y0271636D01*
X0118966Y0271666D01*
X0119009Y0271693D01*
X0119053Y0271716D01*
X0119099Y0271736D01*
X0119147Y0271753D01*
X0119196Y0271766D01*
X0119245Y0271775D01*
X0119296Y0271781D01*
X0119346Y0271783D01*
X0119403Y0271781D01*
X0119460Y0271775D01*
X0119517Y0271766D01*
X0119573Y0271753D01*
X0119628Y0271736D01*
X0119681Y0271716D01*
X0119733Y0271692D01*
X0119784Y0271664D01*
X0119832Y0271634D01*
X0119879Y0271600D01*
X0119923Y0271563D01*
X0119964Y0271524D01*
X0120003Y0271481D01*
X0120039Y0271437D01*
X0120072Y0271390D01*
X0120102Y0271341D01*
X0120128Y0271290D01*
X0120151Y0271237D01*
X0120171Y0271183D01*
X0114411Y0269683D02*
X0112911Y0269683D01*
X0113361Y0270283D02*
X0113361Y0269083D01*
X0114411Y0269683D02*
X0113811Y0271783D01*
X0113291Y0312083D02*
X0114791Y0312083D01*
X0113516Y0313583D01*
X0113966Y0314783D02*
X0114023Y0314781D01*
X0114080Y0314775D01*
X0114137Y0314766D01*
X0114193Y0314753D01*
X0114248Y0314736D01*
X0114301Y0314716D01*
X0114353Y0314692D01*
X0114404Y0314664D01*
X0114452Y0314634D01*
X0114499Y0314600D01*
X0114543Y0314563D01*
X0114584Y0314524D01*
X0114623Y0314481D01*
X0114659Y0314437D01*
X0114692Y0314390D01*
X0114722Y0314341D01*
X0114748Y0314290D01*
X0114771Y0314237D01*
X0114791Y0314183D01*
X0113516Y0313583D02*
X0113479Y0313621D01*
X0113444Y0313662D01*
X0113413Y0313705D01*
X0113385Y0313751D01*
X0113361Y0313798D01*
X0113340Y0313847D01*
X0113322Y0313898D01*
X0113309Y0313949D01*
X0113299Y0314002D01*
X0113293Y0314055D01*
X0113291Y0314108D01*
X0113293Y0314158D01*
X0113299Y0314209D01*
X0113308Y0314258D01*
X0113321Y0314307D01*
X0113338Y0314355D01*
X0113358Y0314401D01*
X0113381Y0314446D01*
X0113408Y0314488D01*
X0113438Y0314529D01*
X0113471Y0314567D01*
X0113507Y0314603D01*
X0113545Y0314636D01*
X0113586Y0314666D01*
X0113629Y0314693D01*
X0113673Y0314716D01*
X0113719Y0314736D01*
X0113767Y0314753D01*
X0113816Y0314766D01*
X0113865Y0314775D01*
X0113916Y0314781D01*
X0113966Y0314783D01*
X0111911Y0314783D02*
X0111011Y0314783D01*
X0110963Y0314781D01*
X0110915Y0314775D01*
X0110867Y0314766D01*
X0110821Y0314752D01*
X0110776Y0314735D01*
X0110732Y0314714D01*
X0110690Y0314690D01*
X0110651Y0314663D01*
X0110613Y0314632D01*
X0110578Y0314599D01*
X0110546Y0314562D01*
X0110517Y0314524D01*
X0110491Y0314483D01*
X0110469Y0314440D01*
X0110450Y0314396D01*
X0110435Y0314350D01*
X0110423Y0314303D01*
X0110415Y0314255D01*
X0110411Y0314207D01*
X0110411Y0314159D01*
X0110415Y0314111D01*
X0110423Y0314063D01*
X0110435Y0314016D01*
X0110450Y0313970D01*
X0110469Y0313926D01*
X0110491Y0313883D01*
X0110517Y0313842D01*
X0110546Y0313804D01*
X0110578Y0313767D01*
X0110613Y0313734D01*
X0110651Y0313703D01*
X0110690Y0313676D01*
X0110732Y0313652D01*
X0110776Y0313631D01*
X0110821Y0313614D01*
X0110867Y0313600D01*
X0110915Y0313591D01*
X0110963Y0313585D01*
X0111011Y0313583D01*
X0111611Y0313583D01*
X0111161Y0313583D02*
X0111107Y0313581D01*
X0111054Y0313575D01*
X0111002Y0313566D01*
X0110950Y0313553D01*
X0110899Y0313536D01*
X0110849Y0313515D01*
X0110802Y0313491D01*
X0110756Y0313464D01*
X0110712Y0313433D01*
X0110670Y0313400D01*
X0110631Y0313363D01*
X0110594Y0313324D01*
X0110561Y0313282D01*
X0110530Y0313238D01*
X0110503Y0313192D01*
X0110479Y0313145D01*
X0110458Y0313095D01*
X0110441Y0313044D01*
X0110428Y0312992D01*
X0110419Y0312940D01*
X0110413Y0312887D01*
X0110411Y0312833D01*
X0110413Y0312779D01*
X0110419Y0312726D01*
X0110428Y0312674D01*
X0110441Y0312622D01*
X0110458Y0312571D01*
X0110479Y0312521D01*
X0110503Y0312474D01*
X0110530Y0312428D01*
X0110561Y0312384D01*
X0110594Y0312342D01*
X0110631Y0312303D01*
X0110670Y0312266D01*
X0110712Y0312233D01*
X0110756Y0312202D01*
X0110802Y0312175D01*
X0110849Y0312151D01*
X0110899Y0312130D01*
X0110950Y0312113D01*
X0111002Y0312100D01*
X0111054Y0312091D01*
X0111107Y0312085D01*
X0111161Y0312083D01*
X0111911Y0312083D01*
X0116171Y0312083D02*
X0117671Y0312083D01*
X0116396Y0313583D01*
X0116846Y0314783D02*
X0116903Y0314781D01*
X0116960Y0314775D01*
X0117017Y0314766D01*
X0117073Y0314753D01*
X0117128Y0314736D01*
X0117181Y0314716D01*
X0117233Y0314692D01*
X0117284Y0314664D01*
X0117332Y0314634D01*
X0117379Y0314600D01*
X0117423Y0314563D01*
X0117464Y0314524D01*
X0117503Y0314481D01*
X0117539Y0314437D01*
X0117572Y0314390D01*
X0117602Y0314341D01*
X0117628Y0314290D01*
X0117651Y0314237D01*
X0117671Y0314183D01*
X0116396Y0313583D02*
X0116359Y0313621D01*
X0116324Y0313662D01*
X0116293Y0313705D01*
X0116265Y0313751D01*
X0116241Y0313798D01*
X0116220Y0313847D01*
X0116202Y0313898D01*
X0116189Y0313949D01*
X0116179Y0314002D01*
X0116173Y0314055D01*
X0116171Y0314108D01*
X0116173Y0314158D01*
X0116179Y0314209D01*
X0116188Y0314258D01*
X0116201Y0314307D01*
X0116218Y0314355D01*
X0116238Y0314401D01*
X0116261Y0314446D01*
X0116288Y0314488D01*
X0116318Y0314529D01*
X0116351Y0314567D01*
X0116387Y0314603D01*
X0116425Y0314636D01*
X0116466Y0314666D01*
X0116509Y0314693D01*
X0116553Y0314716D01*
X0116599Y0314736D01*
X0116647Y0314753D01*
X0116696Y0314766D01*
X0116745Y0314775D01*
X0116796Y0314781D01*
X0116846Y0314783D01*
X0118883Y0314783D02*
X0119483Y0314783D01*
X0119530Y0314781D01*
X0119577Y0314776D01*
X0119623Y0314766D01*
X0119668Y0314754D01*
X0119713Y0314737D01*
X0119755Y0314718D01*
X0119796Y0314695D01*
X0119836Y0314668D01*
X0119873Y0314639D01*
X0119907Y0314607D01*
X0119939Y0314573D01*
X0119968Y0314536D01*
X0119995Y0314496D01*
X0120018Y0314455D01*
X0120037Y0314413D01*
X0120054Y0314368D01*
X0120066Y0314323D01*
X0120076Y0314277D01*
X0120081Y0314230D01*
X0120083Y0314183D01*
X0120083Y0312683D01*
X0120081Y0312636D01*
X0120076Y0312589D01*
X0120066Y0312543D01*
X0120054Y0312498D01*
X0120037Y0312453D01*
X0120018Y0312411D01*
X0119995Y0312370D01*
X0119968Y0312330D01*
X0119939Y0312293D01*
X0119907Y0312259D01*
X0119873Y0312227D01*
X0119836Y0312198D01*
X0119796Y0312171D01*
X0119755Y0312148D01*
X0119713Y0312129D01*
X0119668Y0312112D01*
X0119623Y0312100D01*
X0119577Y0312090D01*
X0119530Y0312085D01*
X0119483Y0312083D01*
X0118883Y0312083D01*
X0134411Y0312083D02*
X0135911Y0312083D01*
X0134636Y0313583D01*
X0135086Y0314783D02*
X0135143Y0314781D01*
X0135200Y0314775D01*
X0135257Y0314766D01*
X0135313Y0314753D01*
X0135368Y0314736D01*
X0135421Y0314716D01*
X0135473Y0314692D01*
X0135524Y0314664D01*
X0135572Y0314634D01*
X0135619Y0314600D01*
X0135663Y0314563D01*
X0135704Y0314524D01*
X0135743Y0314481D01*
X0135779Y0314437D01*
X0135812Y0314390D01*
X0135842Y0314341D01*
X0135868Y0314290D01*
X0135891Y0314237D01*
X0135911Y0314183D01*
X0134636Y0313583D02*
X0134599Y0313621D01*
X0134564Y0313662D01*
X0134533Y0313705D01*
X0134505Y0313751D01*
X0134481Y0313798D01*
X0134460Y0313847D01*
X0134442Y0313898D01*
X0134429Y0313949D01*
X0134419Y0314002D01*
X0134413Y0314055D01*
X0134411Y0314108D01*
X0134413Y0314158D01*
X0134419Y0314209D01*
X0134428Y0314258D01*
X0134441Y0314307D01*
X0134458Y0314355D01*
X0134478Y0314401D01*
X0134501Y0314446D01*
X0134528Y0314488D01*
X0134558Y0314529D01*
X0134591Y0314567D01*
X0134627Y0314603D01*
X0134665Y0314636D01*
X0134706Y0314666D01*
X0134749Y0314693D01*
X0134793Y0314716D01*
X0134839Y0314736D01*
X0134887Y0314753D01*
X0134936Y0314766D01*
X0134985Y0314775D01*
X0135036Y0314781D01*
X0135086Y0314783D01*
X0137516Y0313583D02*
X0138791Y0312083D01*
X0137291Y0312083D01*
X0138791Y0314183D02*
X0138771Y0314237D01*
X0138748Y0314290D01*
X0138722Y0314341D01*
X0138692Y0314390D01*
X0138659Y0314437D01*
X0138623Y0314481D01*
X0138584Y0314524D01*
X0138543Y0314563D01*
X0138499Y0314600D01*
X0138452Y0314634D01*
X0138404Y0314664D01*
X0138353Y0314692D01*
X0138301Y0314716D01*
X0138248Y0314736D01*
X0138193Y0314753D01*
X0138137Y0314766D01*
X0138080Y0314775D01*
X0138023Y0314781D01*
X0137966Y0314783D01*
X0137916Y0314781D01*
X0137865Y0314775D01*
X0137816Y0314766D01*
X0137767Y0314753D01*
X0137719Y0314736D01*
X0137673Y0314716D01*
X0137629Y0314693D01*
X0137586Y0314666D01*
X0137545Y0314636D01*
X0137507Y0314603D01*
X0137471Y0314567D01*
X0137438Y0314529D01*
X0137408Y0314488D01*
X0137381Y0314446D01*
X0137358Y0314401D01*
X0137338Y0314355D01*
X0137321Y0314307D01*
X0137308Y0314258D01*
X0137299Y0314209D01*
X0137293Y0314158D01*
X0137291Y0314108D01*
X0137293Y0314055D01*
X0137299Y0314002D01*
X0137309Y0313949D01*
X0137322Y0313898D01*
X0137340Y0313847D01*
X0137361Y0313798D01*
X0137385Y0313751D01*
X0137413Y0313705D01*
X0137444Y0313662D01*
X0137479Y0313621D01*
X0137516Y0313583D01*
X0140396Y0313583D02*
X0141671Y0312083D01*
X0140171Y0312083D01*
X0141671Y0314183D02*
X0141651Y0314237D01*
X0141628Y0314290D01*
X0141602Y0314341D01*
X0141572Y0314390D01*
X0141539Y0314437D01*
X0141503Y0314481D01*
X0141464Y0314524D01*
X0141423Y0314563D01*
X0141379Y0314600D01*
X0141332Y0314634D01*
X0141284Y0314664D01*
X0141233Y0314692D01*
X0141181Y0314716D01*
X0141128Y0314736D01*
X0141073Y0314753D01*
X0141017Y0314766D01*
X0140960Y0314775D01*
X0140903Y0314781D01*
X0140846Y0314783D01*
X0140796Y0314781D01*
X0140745Y0314775D01*
X0140696Y0314766D01*
X0140647Y0314753D01*
X0140599Y0314736D01*
X0140553Y0314716D01*
X0140509Y0314693D01*
X0140466Y0314666D01*
X0140425Y0314636D01*
X0140387Y0314603D01*
X0140351Y0314567D01*
X0140318Y0314529D01*
X0140288Y0314488D01*
X0140261Y0314446D01*
X0140238Y0314401D01*
X0140218Y0314355D01*
X0140201Y0314307D01*
X0140188Y0314258D01*
X0140179Y0314209D01*
X0140173Y0314158D01*
X0140171Y0314108D01*
X0140173Y0314055D01*
X0140179Y0314002D01*
X0140189Y0313949D01*
X0140202Y0313898D01*
X0140220Y0313847D01*
X0140241Y0313798D01*
X0140265Y0313751D01*
X0140293Y0313705D01*
X0140324Y0313662D01*
X0140359Y0313621D01*
X0140396Y0313583D01*
X0142883Y0314783D02*
X0143483Y0314783D01*
X0143530Y0314781D01*
X0143577Y0314776D01*
X0143623Y0314766D01*
X0143668Y0314754D01*
X0143713Y0314737D01*
X0143755Y0314718D01*
X0143796Y0314695D01*
X0143836Y0314668D01*
X0143873Y0314639D01*
X0143907Y0314607D01*
X0143939Y0314573D01*
X0143968Y0314536D01*
X0143995Y0314496D01*
X0144018Y0314455D01*
X0144037Y0314413D01*
X0144054Y0314368D01*
X0144066Y0314323D01*
X0144076Y0314277D01*
X0144081Y0314230D01*
X0144083Y0314183D01*
X0144083Y0312683D01*
X0144081Y0312636D01*
X0144076Y0312589D01*
X0144066Y0312543D01*
X0144054Y0312498D01*
X0144037Y0312453D01*
X0144018Y0312411D01*
X0143995Y0312370D01*
X0143968Y0312330D01*
X0143939Y0312293D01*
X0143907Y0312259D01*
X0143873Y0312227D01*
X0143836Y0312198D01*
X0143796Y0312171D01*
X0143755Y0312148D01*
X0143713Y0312129D01*
X0143668Y0312112D01*
X0143623Y0312100D01*
X0143577Y0312090D01*
X0143530Y0312085D01*
X0143483Y0312083D01*
X0142883Y0312083D01*
X0226883Y0331631D02*
X0226883Y0332381D01*
X0226883Y0331631D02*
X0229583Y0331631D01*
X0229583Y0332381D01*
X0229581Y0332435D01*
X0229575Y0332488D01*
X0229566Y0332540D01*
X0229553Y0332592D01*
X0229536Y0332643D01*
X0229515Y0332693D01*
X0229491Y0332740D01*
X0229464Y0332786D01*
X0229433Y0332830D01*
X0229400Y0332872D01*
X0229363Y0332911D01*
X0229324Y0332948D01*
X0229282Y0332981D01*
X0229238Y0333012D01*
X0229192Y0333039D01*
X0229145Y0333063D01*
X0229095Y0333084D01*
X0229044Y0333101D01*
X0228992Y0333114D01*
X0228940Y0333123D01*
X0228887Y0333129D01*
X0228833Y0333131D01*
X0227633Y0333131D01*
X0227579Y0333129D01*
X0227526Y0333123D01*
X0227474Y0333114D01*
X0227422Y0333101D01*
X0227371Y0333084D01*
X0227321Y0333063D01*
X0227274Y0333039D01*
X0227228Y0333012D01*
X0227184Y0332981D01*
X0227142Y0332948D01*
X0227103Y0332911D01*
X0227066Y0332872D01*
X0227033Y0332830D01*
X0227002Y0332786D01*
X0226975Y0332740D01*
X0226951Y0332693D01*
X0226930Y0332643D01*
X0226913Y0332592D01*
X0226900Y0332540D01*
X0226891Y0332488D01*
X0226885Y0332435D01*
X0226883Y0332381D01*
X0226883Y0334731D02*
X0229583Y0334731D01*
X0229583Y0335481D01*
X0229581Y0335535D01*
X0229575Y0335588D01*
X0229566Y0335640D01*
X0229553Y0335692D01*
X0229536Y0335743D01*
X0229515Y0335793D01*
X0229491Y0335840D01*
X0229464Y0335886D01*
X0229433Y0335930D01*
X0229400Y0335972D01*
X0229363Y0336011D01*
X0229324Y0336048D01*
X0229282Y0336081D01*
X0229238Y0336112D01*
X0229192Y0336139D01*
X0229145Y0336163D01*
X0229095Y0336184D01*
X0229044Y0336201D01*
X0228992Y0336214D01*
X0228940Y0336223D01*
X0228887Y0336229D01*
X0228833Y0336231D01*
X0228779Y0336229D01*
X0228726Y0336223D01*
X0228674Y0336214D01*
X0228622Y0336201D01*
X0228571Y0336184D01*
X0228521Y0336163D01*
X0228474Y0336139D01*
X0228428Y0336112D01*
X0228384Y0336081D01*
X0228342Y0336048D01*
X0228303Y0336011D01*
X0228266Y0335972D01*
X0228233Y0335930D01*
X0228202Y0335886D01*
X0228175Y0335840D01*
X0228151Y0335793D01*
X0228130Y0335743D01*
X0228113Y0335692D01*
X0228100Y0335640D01*
X0228091Y0335588D01*
X0228085Y0335535D01*
X0228083Y0335481D01*
X0228083Y0334731D01*
X0228083Y0335631D02*
X0226883Y0336231D01*
X0226883Y0337583D02*
X0226883Y0339083D01*
X0226883Y0337583D02*
X0228383Y0338858D01*
X0229583Y0338408D02*
X0229581Y0338351D01*
X0229575Y0338294D01*
X0229566Y0338237D01*
X0229553Y0338181D01*
X0229536Y0338126D01*
X0229516Y0338073D01*
X0229492Y0338021D01*
X0229464Y0337970D01*
X0229434Y0337922D01*
X0229400Y0337875D01*
X0229363Y0337831D01*
X0229324Y0337790D01*
X0229281Y0337751D01*
X0229237Y0337715D01*
X0229190Y0337682D01*
X0229141Y0337652D01*
X0229090Y0337626D01*
X0229037Y0337603D01*
X0228983Y0337583D01*
X0228383Y0338858D02*
X0228421Y0338895D01*
X0228462Y0338930D01*
X0228505Y0338961D01*
X0228551Y0338989D01*
X0228598Y0339013D01*
X0228647Y0339034D01*
X0228698Y0339052D01*
X0228749Y0339065D01*
X0228802Y0339075D01*
X0228855Y0339081D01*
X0228908Y0339083D01*
X0228958Y0339081D01*
X0229009Y0339075D01*
X0229058Y0339066D01*
X0229107Y0339053D01*
X0229155Y0339036D01*
X0229201Y0339016D01*
X0229246Y0338993D01*
X0229288Y0338966D01*
X0229329Y0338936D01*
X0229367Y0338903D01*
X0229403Y0338867D01*
X0229436Y0338829D01*
X0229466Y0338788D01*
X0229493Y0338746D01*
X0229516Y0338701D01*
X0229536Y0338655D01*
X0229553Y0338607D01*
X0229566Y0338558D01*
X0229575Y0338509D01*
X0229581Y0338458D01*
X0229583Y0338408D01*
X0241883Y0338333D02*
X0244583Y0338333D01*
X0243983Y0337583D01*
X0241883Y0337583D02*
X0241883Y0339083D01*
X0241883Y0336231D02*
X0243083Y0335631D01*
X0243083Y0335481D02*
X0243083Y0334731D01*
X0243083Y0335481D02*
X0243085Y0335535D01*
X0243091Y0335588D01*
X0243100Y0335640D01*
X0243113Y0335692D01*
X0243130Y0335743D01*
X0243151Y0335793D01*
X0243175Y0335840D01*
X0243202Y0335886D01*
X0243233Y0335930D01*
X0243266Y0335972D01*
X0243303Y0336011D01*
X0243342Y0336048D01*
X0243384Y0336081D01*
X0243428Y0336112D01*
X0243474Y0336139D01*
X0243521Y0336163D01*
X0243571Y0336184D01*
X0243622Y0336201D01*
X0243674Y0336214D01*
X0243726Y0336223D01*
X0243779Y0336229D01*
X0243833Y0336231D01*
X0243887Y0336229D01*
X0243940Y0336223D01*
X0243992Y0336214D01*
X0244044Y0336201D01*
X0244095Y0336184D01*
X0244145Y0336163D01*
X0244192Y0336139D01*
X0244238Y0336112D01*
X0244282Y0336081D01*
X0244324Y0336048D01*
X0244363Y0336011D01*
X0244400Y0335972D01*
X0244433Y0335930D01*
X0244464Y0335886D01*
X0244491Y0335840D01*
X0244515Y0335793D01*
X0244536Y0335743D01*
X0244553Y0335692D01*
X0244566Y0335640D01*
X0244575Y0335588D01*
X0244581Y0335535D01*
X0244583Y0335481D01*
X0244583Y0334731D01*
X0241883Y0334731D01*
X0242633Y0333131D02*
X0243833Y0333131D01*
X0243887Y0333129D01*
X0243940Y0333123D01*
X0243992Y0333114D01*
X0244044Y0333101D01*
X0244095Y0333084D01*
X0244145Y0333063D01*
X0244192Y0333039D01*
X0244238Y0333012D01*
X0244282Y0332981D01*
X0244324Y0332948D01*
X0244363Y0332911D01*
X0244400Y0332872D01*
X0244433Y0332830D01*
X0244464Y0332786D01*
X0244491Y0332740D01*
X0244515Y0332693D01*
X0244536Y0332643D01*
X0244553Y0332592D01*
X0244566Y0332540D01*
X0244575Y0332488D01*
X0244581Y0332435D01*
X0244583Y0332381D01*
X0244583Y0331631D01*
X0241883Y0331631D01*
X0241883Y0332381D01*
X0241885Y0332435D01*
X0241891Y0332488D01*
X0241900Y0332540D01*
X0241913Y0332592D01*
X0241930Y0332643D01*
X0241951Y0332693D01*
X0241975Y0332740D01*
X0242002Y0332786D01*
X0242033Y0332830D01*
X0242066Y0332872D01*
X0242103Y0332911D01*
X0242142Y0332948D01*
X0242184Y0332981D01*
X0242228Y0333012D01*
X0242274Y0333039D01*
X0242321Y0333063D01*
X0242371Y0333084D01*
X0242422Y0333101D01*
X0242474Y0333114D01*
X0242526Y0333123D01*
X0242579Y0333129D01*
X0242633Y0333131D01*
X0124951Y0110213D02*
X0126011Y0109152D01*
X0126043Y0109118D01*
X0126072Y0109081D01*
X0126099Y0109042D01*
X0126122Y0109000D01*
X0126141Y0108958D01*
X0126158Y0108913D01*
X0126170Y0108868D01*
X0126180Y0108822D01*
X0126185Y0108775D01*
X0126187Y0108728D01*
X0126185Y0108681D01*
X0126180Y0108634D01*
X0126170Y0108588D01*
X0126158Y0108543D01*
X0126141Y0108498D01*
X0126122Y0108456D01*
X0126099Y0108415D01*
X0126072Y0108375D01*
X0126043Y0108338D01*
X0126011Y0108304D01*
X0125587Y0107879D01*
X0124730Y0107022D02*
X0123669Y0105961D01*
X0124199Y0106492D02*
X0122290Y0108401D01*
X0123245Y0108507D01*
X0123678Y0109789D02*
X0124102Y0110213D01*
X0124136Y0110245D01*
X0124173Y0110274D01*
X0124213Y0110301D01*
X0124254Y0110324D01*
X0124296Y0110343D01*
X0124341Y0110360D01*
X0124386Y0110372D01*
X0124432Y0110382D01*
X0124479Y0110387D01*
X0124526Y0110389D01*
X0124573Y0110387D01*
X0124620Y0110382D01*
X0124666Y0110372D01*
X0124711Y0110360D01*
X0124756Y0110343D01*
X0124798Y0110324D01*
X0124840Y0110301D01*
X0124879Y0110274D01*
X0124916Y0110245D01*
X0124950Y0110213D01*
X0120784Y0106895D02*
X0120148Y0106258D01*
X0120115Y0106223D01*
X0120085Y0106185D01*
X0120059Y0106144D01*
X0120035Y0106102D01*
X0120015Y0106058D01*
X0119999Y0106013D01*
X0119987Y0105966D01*
X0119978Y0105918D01*
X0119973Y0105870D01*
X0119972Y0105822D01*
X0119975Y0105774D01*
X0119982Y0105726D01*
X0119992Y0105679D01*
X0120007Y0105633D01*
X0120025Y0105588D01*
X0120046Y0105545D01*
X0120071Y0105503D01*
X0120100Y0105464D01*
X0120131Y0105427D01*
X0120165Y0105393D01*
X0120202Y0105362D01*
X0120241Y0105333D01*
X0120283Y0105308D01*
X0120326Y0105287D01*
X0120371Y0105269D01*
X0120417Y0105254D01*
X0120464Y0105244D01*
X0120512Y0105237D01*
X0120560Y0105234D01*
X0120608Y0105235D01*
X0120656Y0105240D01*
X0120704Y0105249D01*
X0120751Y0105261D01*
X0120796Y0105277D01*
X0120840Y0105297D01*
X0120882Y0105321D01*
X0120923Y0105347D01*
X0120961Y0105377D01*
X0120996Y0105410D01*
X0121420Y0105834D01*
X0121103Y0105516D02*
X0121066Y0105477D01*
X0121033Y0105435D01*
X0121002Y0105391D01*
X0120975Y0105345D01*
X0120951Y0105298D01*
X0120930Y0105248D01*
X0120913Y0105197D01*
X0120900Y0105145D01*
X0120891Y0105093D01*
X0120885Y0105040D01*
X0120883Y0104986D01*
X0120885Y0104933D01*
X0120891Y0104879D01*
X0120900Y0104827D01*
X0120913Y0104775D01*
X0120930Y0104724D01*
X0120951Y0104674D01*
X0120975Y0104627D01*
X0121002Y0104581D01*
X0121033Y0104537D01*
X0121066Y0104495D01*
X0121103Y0104456D01*
X0121142Y0104419D01*
X0121184Y0104386D01*
X0121228Y0104355D01*
X0121274Y0104328D01*
X0121321Y0104304D01*
X0121371Y0104283D01*
X0121422Y0104266D01*
X0121474Y0104253D01*
X0121526Y0104244D01*
X0121579Y0104238D01*
X0121633Y0104236D01*
X0121687Y0104238D01*
X0121740Y0104244D01*
X0121792Y0104253D01*
X0121844Y0104266D01*
X0121895Y0104283D01*
X0121945Y0104304D01*
X0121992Y0104328D01*
X0122038Y0104355D01*
X0122082Y0104386D01*
X0122124Y0104419D01*
X0122163Y0104456D01*
X0122163Y0104455D02*
X0122693Y0104986D01*
X0120126Y0103480D02*
X0119596Y0104010D01*
X0118960Y0103373D01*
X0119597Y0104010D02*
X0119548Y0104056D01*
X0119496Y0104099D01*
X0119442Y0104140D01*
X0119386Y0104177D01*
X0119328Y0104211D01*
X0119269Y0104242D01*
X0119207Y0104270D01*
X0119144Y0104294D01*
X0119080Y0104314D01*
X0119015Y0104331D01*
X0118949Y0104344D01*
X0118882Y0104353D01*
X0118815Y0104359D01*
X0118748Y0104361D01*
X0118681Y0104359D01*
X0118614Y0104353D01*
X0118547Y0104344D01*
X0118481Y0104331D01*
X0118416Y0104314D01*
X0118352Y0104294D01*
X0118289Y0104270D01*
X0118227Y0104242D01*
X0118168Y0104211D01*
X0118110Y0104177D01*
X0118054Y0104140D01*
X0118000Y0104099D01*
X0117948Y0104056D01*
X0117899Y0104010D01*
X0118960Y0103373D02*
X0118928Y0103339D01*
X0118899Y0103302D01*
X0118872Y0103263D01*
X0118849Y0103221D01*
X0118830Y0103179D01*
X0118813Y0103134D01*
X0118801Y0103089D01*
X0118791Y0103043D01*
X0118786Y0102996D01*
X0118784Y0102949D01*
X0118786Y0102902D01*
X0118791Y0102855D01*
X0118801Y0102809D01*
X0118813Y0102764D01*
X0118830Y0102719D01*
X0118849Y0102677D01*
X0118872Y0102636D01*
X0118899Y0102596D01*
X0118928Y0102559D01*
X0118960Y0102525D01*
X0119066Y0102419D01*
X0119105Y0102382D01*
X0119147Y0102349D01*
X0119191Y0102318D01*
X0119237Y0102291D01*
X0119284Y0102267D01*
X0119334Y0102246D01*
X0119385Y0102229D01*
X0119437Y0102216D01*
X0119489Y0102207D01*
X0119542Y0102201D01*
X0119596Y0102199D01*
X0119650Y0102201D01*
X0119703Y0102207D01*
X0119755Y0102216D01*
X0119807Y0102229D01*
X0119858Y0102246D01*
X0119908Y0102267D01*
X0119955Y0102291D01*
X0120001Y0102318D01*
X0120045Y0102349D01*
X0120087Y0102382D01*
X0120126Y0102419D01*
X0120163Y0102458D01*
X0120196Y0102500D01*
X0120227Y0102544D01*
X0120254Y0102590D01*
X0120278Y0102637D01*
X0120299Y0102687D01*
X0120316Y0102738D01*
X0120329Y0102790D01*
X0120338Y0102842D01*
X0120344Y0102896D01*
X0120346Y0102949D01*
X0120344Y0103003D01*
X0120338Y0103056D01*
X0120329Y0103108D01*
X0120316Y0103160D01*
X0120299Y0103211D01*
X0120278Y0103261D01*
X0120254Y0103308D01*
X0120227Y0103354D01*
X0120196Y0103398D01*
X0120163Y0103440D01*
X0120126Y0103479D01*
X0133919Y0095601D02*
X0134025Y0095707D01*
X0134059Y0095739D01*
X0134096Y0095768D01*
X0134136Y0095795D01*
X0134177Y0095818D01*
X0134219Y0095837D01*
X0134264Y0095854D01*
X0134309Y0095866D01*
X0134355Y0095876D01*
X0134402Y0095881D01*
X0134449Y0095883D01*
X0134496Y0095881D01*
X0134543Y0095876D01*
X0134589Y0095866D01*
X0134634Y0095854D01*
X0134679Y0095837D01*
X0134721Y0095818D01*
X0134763Y0095795D01*
X0134802Y0095768D01*
X0134839Y0095739D01*
X0134873Y0095707D01*
X0134874Y0095707D02*
X0135510Y0095071D01*
X0134980Y0094540D01*
X0134979Y0094541D02*
X0134940Y0094504D01*
X0134898Y0094471D01*
X0134854Y0094440D01*
X0134808Y0094413D01*
X0134761Y0094389D01*
X0134711Y0094368D01*
X0134660Y0094351D01*
X0134608Y0094338D01*
X0134556Y0094329D01*
X0134503Y0094323D01*
X0134449Y0094321D01*
X0134396Y0094323D01*
X0134342Y0094329D01*
X0134290Y0094338D01*
X0134238Y0094351D01*
X0134187Y0094368D01*
X0134137Y0094389D01*
X0134090Y0094413D01*
X0134044Y0094440D01*
X0134000Y0094471D01*
X0133958Y0094504D01*
X0133919Y0094541D01*
X0133882Y0094580D01*
X0133849Y0094622D01*
X0133818Y0094666D01*
X0133791Y0094712D01*
X0133767Y0094759D01*
X0133746Y0094809D01*
X0133729Y0094860D01*
X0133716Y0094912D01*
X0133707Y0094964D01*
X0133701Y0095017D01*
X0133699Y0095071D01*
X0133701Y0095125D01*
X0133707Y0095178D01*
X0133716Y0095230D01*
X0133729Y0095282D01*
X0133746Y0095333D01*
X0133767Y0095383D01*
X0133791Y0095430D01*
X0133818Y0095476D01*
X0133849Y0095520D01*
X0133882Y0095562D01*
X0133919Y0095601D01*
X0135510Y0095070D02*
X0135556Y0095119D01*
X0135599Y0095171D01*
X0135640Y0095225D01*
X0135677Y0095281D01*
X0135711Y0095339D01*
X0135742Y0095398D01*
X0135770Y0095460D01*
X0135794Y0095523D01*
X0135814Y0095587D01*
X0135831Y0095652D01*
X0135844Y0095718D01*
X0135853Y0095785D01*
X0135859Y0095852D01*
X0135861Y0095919D01*
X0135859Y0095986D01*
X0135853Y0096053D01*
X0135844Y0096120D01*
X0135831Y0096186D01*
X0135814Y0096251D01*
X0135794Y0096315D01*
X0135770Y0096378D01*
X0135742Y0096440D01*
X0135711Y0096499D01*
X0135677Y0096557D01*
X0135640Y0096613D01*
X0135599Y0096667D01*
X0135556Y0096719D01*
X0135510Y0096768D01*
X0137865Y0094413D02*
X0135955Y0092504D01*
X0135425Y0093034D02*
X0136486Y0091973D01*
X0137462Y0090998D02*
X0138522Y0089937D01*
X0137992Y0090467D02*
X0139901Y0092376D01*
X0140007Y0091422D01*
X0141289Y0090989D02*
X0141713Y0090565D01*
X0141713Y0090564D02*
X0141745Y0090530D01*
X0141774Y0090493D01*
X0141801Y0090454D01*
X0141824Y0090412D01*
X0141843Y0090370D01*
X0141860Y0090325D01*
X0141872Y0090280D01*
X0141882Y0090234D01*
X0141887Y0090187D01*
X0141889Y0090140D01*
X0141887Y0090093D01*
X0141882Y0090046D01*
X0141872Y0090000D01*
X0141860Y0089955D01*
X0141843Y0089910D01*
X0141824Y0089868D01*
X0141801Y0089827D01*
X0141774Y0089787D01*
X0141745Y0089750D01*
X0141713Y0089716D01*
X0140652Y0088655D01*
X0140652Y0088656D02*
X0140618Y0088624D01*
X0140581Y0088595D01*
X0140542Y0088568D01*
X0140500Y0088545D01*
X0140458Y0088526D01*
X0140413Y0088509D01*
X0140368Y0088497D01*
X0140322Y0088487D01*
X0140275Y0088482D01*
X0140228Y0088480D01*
X0140181Y0088482D01*
X0140134Y0088487D01*
X0140088Y0088497D01*
X0140043Y0088509D01*
X0139998Y0088526D01*
X0139956Y0088545D01*
X0139915Y0088568D01*
X0139875Y0088595D01*
X0139838Y0088624D01*
X0139804Y0088656D01*
X0139804Y0088655D02*
X0139379Y0089080D01*
X0137971Y0093458D02*
X0137865Y0094413D01*
X0112901Y0067876D02*
X0110992Y0065967D01*
X0111522Y0065437D02*
X0110462Y0066498D01*
X0109486Y0067473D02*
X0108955Y0068004D01*
X0108956Y0068004D02*
X0108919Y0068043D01*
X0108886Y0068085D01*
X0108855Y0068129D01*
X0108828Y0068175D01*
X0108804Y0068222D01*
X0108783Y0068272D01*
X0108766Y0068323D01*
X0108753Y0068375D01*
X0108744Y0068427D01*
X0108738Y0068480D01*
X0108736Y0068534D01*
X0108738Y0068588D01*
X0108744Y0068641D01*
X0108753Y0068693D01*
X0108766Y0068745D01*
X0108783Y0068796D01*
X0108804Y0068846D01*
X0108828Y0068893D01*
X0108855Y0068939D01*
X0108886Y0068983D01*
X0108919Y0069025D01*
X0108956Y0069064D01*
X0108995Y0069101D01*
X0109037Y0069134D01*
X0109081Y0069165D01*
X0109127Y0069192D01*
X0109174Y0069216D01*
X0109224Y0069237D01*
X0109275Y0069254D01*
X0109327Y0069267D01*
X0109379Y0069276D01*
X0109433Y0069282D01*
X0109486Y0069284D01*
X0109540Y0069282D01*
X0109593Y0069276D01*
X0109645Y0069267D01*
X0109697Y0069254D01*
X0109748Y0069237D01*
X0109798Y0069216D01*
X0109845Y0069192D01*
X0109891Y0069165D01*
X0109935Y0069134D01*
X0109977Y0069101D01*
X0110016Y0069064D01*
X0109910Y0069170D02*
X0110334Y0068746D01*
X0109910Y0069171D02*
X0109877Y0069206D01*
X0109847Y0069244D01*
X0109821Y0069285D01*
X0109797Y0069327D01*
X0109777Y0069371D01*
X0109761Y0069416D01*
X0109749Y0069463D01*
X0109740Y0069511D01*
X0109735Y0069559D01*
X0109734Y0069607D01*
X0109737Y0069655D01*
X0109744Y0069703D01*
X0109754Y0069750D01*
X0109769Y0069796D01*
X0109787Y0069841D01*
X0109808Y0069884D01*
X0109833Y0069926D01*
X0109862Y0069965D01*
X0109893Y0070002D01*
X0109927Y0070036D01*
X0109964Y0070067D01*
X0110003Y0070096D01*
X0110045Y0070121D01*
X0110088Y0070142D01*
X0110133Y0070160D01*
X0110179Y0070175D01*
X0110226Y0070185D01*
X0110274Y0070192D01*
X0110322Y0070195D01*
X0110370Y0070194D01*
X0110418Y0070189D01*
X0110466Y0070180D01*
X0110513Y0070168D01*
X0110558Y0070152D01*
X0110602Y0070132D01*
X0110644Y0070108D01*
X0110685Y0070082D01*
X0110723Y0070052D01*
X0110758Y0070019D01*
X0110759Y0070019D02*
X0111395Y0069383D01*
X0112901Y0067876D02*
X0113007Y0066922D01*
X0114289Y0066489D02*
X0114713Y0066065D01*
X0114713Y0066064D02*
X0114745Y0066030D01*
X0114774Y0065993D01*
X0114801Y0065954D01*
X0114824Y0065912D01*
X0114843Y0065870D01*
X0114860Y0065825D01*
X0114872Y0065780D01*
X0114882Y0065734D01*
X0114887Y0065687D01*
X0114889Y0065640D01*
X0114887Y0065593D01*
X0114882Y0065546D01*
X0114872Y0065500D01*
X0114860Y0065455D01*
X0114843Y0065410D01*
X0114824Y0065368D01*
X0114801Y0065327D01*
X0114774Y0065287D01*
X0114745Y0065250D01*
X0114713Y0065216D01*
X0113652Y0064155D01*
X0113652Y0064156D02*
X0113618Y0064124D01*
X0113581Y0064095D01*
X0113542Y0064068D01*
X0113500Y0064045D01*
X0113458Y0064026D01*
X0113413Y0064009D01*
X0113368Y0063997D01*
X0113322Y0063987D01*
X0113275Y0063982D01*
X0113228Y0063980D01*
X0113181Y0063982D01*
X0113134Y0063987D01*
X0113088Y0063997D01*
X0113043Y0064009D01*
X0112998Y0064026D01*
X0112956Y0064045D01*
X0112915Y0064068D01*
X0112875Y0064095D01*
X0112838Y0064124D01*
X0112804Y0064156D01*
X0112804Y0064155D02*
X0112379Y0064580D01*
X0108510Y0070571D02*
X0109359Y0071419D01*
X0108298Y0072480D01*
X0107874Y0071207D02*
X0108510Y0070571D01*
X0107873Y0071207D02*
X0107839Y0071239D01*
X0107802Y0071268D01*
X0107763Y0071295D01*
X0107721Y0071318D01*
X0107679Y0071337D01*
X0107634Y0071354D01*
X0107589Y0071366D01*
X0107543Y0071376D01*
X0107496Y0071381D01*
X0107449Y0071383D01*
X0107402Y0071381D01*
X0107355Y0071376D01*
X0107309Y0071366D01*
X0107264Y0071354D01*
X0107219Y0071337D01*
X0107177Y0071318D01*
X0107136Y0071295D01*
X0107096Y0071268D01*
X0107059Y0071239D01*
X0107025Y0071207D01*
X0106813Y0070995D01*
X0106781Y0070961D01*
X0106752Y0070924D01*
X0106725Y0070884D01*
X0106702Y0070843D01*
X0106683Y0070801D01*
X0106666Y0070756D01*
X0106654Y0070711D01*
X0106644Y0070665D01*
X0106639Y0070618D01*
X0106637Y0070571D01*
X0106639Y0070524D01*
X0106644Y0070477D01*
X0106654Y0070431D01*
X0106666Y0070386D01*
X0106683Y0070341D01*
X0106702Y0070299D01*
X0106725Y0070258D01*
X0106752Y0070218D01*
X0106781Y0070181D01*
X0106813Y0070147D01*
X0106813Y0070146D02*
X0107449Y0069510D01*
X0099434Y0062343D02*
X0098374Y0060434D01*
X0097313Y0061495D01*
X0098055Y0061601D02*
X0097207Y0060752D01*
X0099455Y0058504D02*
X0099986Y0057973D01*
X0099456Y0058504D02*
X0099419Y0058543D01*
X0099386Y0058585D01*
X0099355Y0058629D01*
X0099328Y0058675D01*
X0099304Y0058722D01*
X0099283Y0058772D01*
X0099266Y0058823D01*
X0099253Y0058875D01*
X0099244Y0058927D01*
X0099238Y0058980D01*
X0099236Y0059034D01*
X0099238Y0059088D01*
X0099244Y0059141D01*
X0099253Y0059193D01*
X0099266Y0059245D01*
X0099283Y0059296D01*
X0099304Y0059346D01*
X0099328Y0059393D01*
X0099355Y0059439D01*
X0099386Y0059483D01*
X0099419Y0059525D01*
X0099456Y0059564D01*
X0099495Y0059601D01*
X0099537Y0059634D01*
X0099581Y0059665D01*
X0099627Y0059692D01*
X0099674Y0059716D01*
X0099724Y0059737D01*
X0099775Y0059754D01*
X0099827Y0059767D01*
X0099879Y0059776D01*
X0099933Y0059782D01*
X0099986Y0059784D01*
X0100040Y0059782D01*
X0100093Y0059776D01*
X0100145Y0059767D01*
X0100197Y0059754D01*
X0100248Y0059737D01*
X0100298Y0059716D01*
X0100345Y0059692D01*
X0100391Y0059665D01*
X0100435Y0059634D01*
X0100477Y0059601D01*
X0100516Y0059564D01*
X0100410Y0059670D02*
X0100834Y0059246D01*
X0100410Y0059671D02*
X0100377Y0059706D01*
X0100347Y0059744D01*
X0100321Y0059785D01*
X0100297Y0059827D01*
X0100277Y0059871D01*
X0100261Y0059916D01*
X0100249Y0059963D01*
X0100240Y0060011D01*
X0100235Y0060059D01*
X0100234Y0060107D01*
X0100237Y0060155D01*
X0100244Y0060203D01*
X0100254Y0060250D01*
X0100269Y0060296D01*
X0100287Y0060341D01*
X0100308Y0060384D01*
X0100333Y0060426D01*
X0100362Y0060465D01*
X0100393Y0060502D01*
X0100427Y0060536D01*
X0100464Y0060567D01*
X0100503Y0060596D01*
X0100545Y0060621D01*
X0100588Y0060642D01*
X0100633Y0060660D01*
X0100679Y0060675D01*
X0100726Y0060685D01*
X0100774Y0060692D01*
X0100822Y0060695D01*
X0100870Y0060694D01*
X0100918Y0060689D01*
X0100966Y0060680D01*
X0101013Y0060668D01*
X0101058Y0060652D01*
X0101102Y0060632D01*
X0101144Y0060608D01*
X0101185Y0060582D01*
X0101223Y0060552D01*
X0101258Y0060519D01*
X0101259Y0060519D02*
X0101895Y0059883D01*
X0103401Y0058376D02*
X0101492Y0056467D01*
X0102022Y0055937D02*
X0100962Y0056998D01*
X0103507Y0057422D02*
X0103401Y0058376D01*
X0104789Y0056989D02*
X0105213Y0056565D01*
X0105213Y0056564D02*
X0105245Y0056530D01*
X0105274Y0056493D01*
X0105301Y0056454D01*
X0105324Y0056412D01*
X0105343Y0056370D01*
X0105360Y0056325D01*
X0105372Y0056280D01*
X0105382Y0056234D01*
X0105387Y0056187D01*
X0105389Y0056140D01*
X0105387Y0056093D01*
X0105382Y0056046D01*
X0105372Y0056000D01*
X0105360Y0055955D01*
X0105343Y0055910D01*
X0105324Y0055868D01*
X0105301Y0055827D01*
X0105274Y0055787D01*
X0105245Y0055750D01*
X0105213Y0055716D01*
X0104152Y0054655D01*
X0104152Y0054656D02*
X0104118Y0054624D01*
X0104081Y0054595D01*
X0104042Y0054568D01*
X0104000Y0054545D01*
X0103958Y0054526D01*
X0103913Y0054509D01*
X0103868Y0054497D01*
X0103822Y0054487D01*
X0103775Y0054482D01*
X0103728Y0054480D01*
X0103681Y0054482D01*
X0103634Y0054487D01*
X0103588Y0054497D01*
X0103543Y0054509D01*
X0103498Y0054526D01*
X0103456Y0054545D01*
X0103415Y0054568D01*
X0103375Y0054595D01*
X0103338Y0054624D01*
X0103304Y0054656D01*
X0103304Y0054655D02*
X0102879Y0055080D01*
X0080556Y0059945D02*
X0080131Y0059520D01*
X0080555Y0059945D02*
X0080587Y0059979D01*
X0080616Y0060016D01*
X0080643Y0060056D01*
X0080666Y0060097D01*
X0080685Y0060139D01*
X0080702Y0060184D01*
X0080714Y0060229D01*
X0080724Y0060275D01*
X0080729Y0060322D01*
X0080731Y0060369D01*
X0080729Y0060416D01*
X0080724Y0060463D01*
X0080714Y0060509D01*
X0080702Y0060554D01*
X0080685Y0060599D01*
X0080666Y0060641D01*
X0080643Y0060683D01*
X0080616Y0060722D01*
X0080587Y0060759D01*
X0080555Y0060793D01*
X0080556Y0060793D02*
X0079495Y0061854D01*
X0079495Y0061853D02*
X0079461Y0061885D01*
X0079424Y0061914D01*
X0079385Y0061941D01*
X0079343Y0061964D01*
X0079301Y0061983D01*
X0079256Y0062000D01*
X0079211Y0062012D01*
X0079165Y0062022D01*
X0079118Y0062027D01*
X0079071Y0062029D01*
X0079024Y0062027D01*
X0078977Y0062022D01*
X0078931Y0062012D01*
X0078886Y0062000D01*
X0078841Y0061983D01*
X0078799Y0061964D01*
X0078758Y0061941D01*
X0078718Y0061914D01*
X0078681Y0061885D01*
X0078647Y0061853D01*
X0078646Y0061854D02*
X0078222Y0061430D01*
X0077789Y0060148D02*
X0076834Y0060042D01*
X0078744Y0058133D01*
X0079274Y0058663D02*
X0078213Y0057602D01*
X0077238Y0056627D02*
X0076707Y0056096D01*
X0076707Y0056097D02*
X0076668Y0056060D01*
X0076626Y0056027D01*
X0076582Y0055996D01*
X0076536Y0055969D01*
X0076489Y0055945D01*
X0076439Y0055924D01*
X0076388Y0055907D01*
X0076336Y0055894D01*
X0076284Y0055885D01*
X0076231Y0055879D01*
X0076177Y0055877D01*
X0076123Y0055879D01*
X0076070Y0055885D01*
X0076018Y0055894D01*
X0075966Y0055907D01*
X0075915Y0055924D01*
X0075865Y0055945D01*
X0075818Y0055969D01*
X0075772Y0055996D01*
X0075728Y0056027D01*
X0075686Y0056060D01*
X0075647Y0056097D01*
X0075610Y0056136D01*
X0075577Y0056178D01*
X0075546Y0056222D01*
X0075519Y0056268D01*
X0075495Y0056315D01*
X0075474Y0056365D01*
X0075457Y0056416D01*
X0075444Y0056468D01*
X0075435Y0056520D01*
X0075429Y0056574D01*
X0075427Y0056627D01*
X0075429Y0056681D01*
X0075435Y0056734D01*
X0075444Y0056786D01*
X0075457Y0056838D01*
X0075474Y0056889D01*
X0075495Y0056939D01*
X0075519Y0056986D01*
X0075546Y0057032D01*
X0075577Y0057076D01*
X0075610Y0057118D01*
X0075647Y0057157D01*
X0075541Y0057051D02*
X0075965Y0057475D01*
X0075540Y0057051D02*
X0075505Y0057018D01*
X0075467Y0056988D01*
X0075426Y0056962D01*
X0075384Y0056938D01*
X0075340Y0056918D01*
X0075295Y0056902D01*
X0075248Y0056890D01*
X0075200Y0056881D01*
X0075152Y0056876D01*
X0075104Y0056875D01*
X0075056Y0056878D01*
X0075008Y0056885D01*
X0074961Y0056895D01*
X0074915Y0056910D01*
X0074870Y0056928D01*
X0074827Y0056949D01*
X0074785Y0056974D01*
X0074746Y0057003D01*
X0074709Y0057034D01*
X0074675Y0057068D01*
X0074644Y0057105D01*
X0074615Y0057144D01*
X0074590Y0057186D01*
X0074569Y0057229D01*
X0074551Y0057274D01*
X0074536Y0057320D01*
X0074526Y0057367D01*
X0074519Y0057415D01*
X0074516Y0057463D01*
X0074517Y0057511D01*
X0074522Y0057559D01*
X0074531Y0057607D01*
X0074543Y0057654D01*
X0074559Y0057699D01*
X0074579Y0057743D01*
X0074603Y0057785D01*
X0074629Y0057826D01*
X0074659Y0057864D01*
X0074692Y0057899D01*
X0075328Y0058536D01*
X0073292Y0056499D02*
X0072656Y0055863D01*
X0072623Y0055828D01*
X0072593Y0055790D01*
X0072567Y0055749D01*
X0072543Y0055707D01*
X0072523Y0055663D01*
X0072507Y0055618D01*
X0072495Y0055571D01*
X0072486Y0055523D01*
X0072481Y0055475D01*
X0072480Y0055427D01*
X0072483Y0055379D01*
X0072490Y0055331D01*
X0072500Y0055284D01*
X0072515Y0055238D01*
X0072533Y0055193D01*
X0072554Y0055150D01*
X0072579Y0055108D01*
X0072608Y0055069D01*
X0072639Y0055032D01*
X0072673Y0054998D01*
X0072710Y0054967D01*
X0072749Y0054938D01*
X0072791Y0054913D01*
X0072834Y0054892D01*
X0072879Y0054874D01*
X0072925Y0054859D01*
X0072972Y0054849D01*
X0073020Y0054842D01*
X0073068Y0054839D01*
X0073116Y0054840D01*
X0073164Y0054845D01*
X0073212Y0054854D01*
X0073259Y0054866D01*
X0073304Y0054882D01*
X0073348Y0054902D01*
X0073390Y0054926D01*
X0073431Y0054952D01*
X0073469Y0054982D01*
X0073504Y0055015D01*
X0073504Y0055014D02*
X0073928Y0055439D01*
X0073610Y0055120D02*
X0073573Y0055081D01*
X0073540Y0055039D01*
X0073509Y0054995D01*
X0073482Y0054949D01*
X0073458Y0054902D01*
X0073437Y0054852D01*
X0073420Y0054801D01*
X0073407Y0054749D01*
X0073398Y0054697D01*
X0073392Y0054644D01*
X0073390Y0054590D01*
X0073392Y0054537D01*
X0073398Y0054483D01*
X0073407Y0054431D01*
X0073420Y0054379D01*
X0073437Y0054328D01*
X0073458Y0054278D01*
X0073482Y0054231D01*
X0073509Y0054185D01*
X0073540Y0054141D01*
X0073573Y0054099D01*
X0073610Y0054060D01*
X0073649Y0054023D01*
X0073691Y0053990D01*
X0073735Y0053959D01*
X0073781Y0053932D01*
X0073828Y0053908D01*
X0073878Y0053887D01*
X0073929Y0053870D01*
X0073981Y0053857D01*
X0074033Y0053848D01*
X0074086Y0053842D01*
X0074140Y0053840D01*
X0074194Y0053842D01*
X0074247Y0053848D01*
X0074299Y0053857D01*
X0074351Y0053870D01*
X0074402Y0053887D01*
X0074452Y0053908D01*
X0074499Y0053932D01*
X0074545Y0053959D01*
X0074589Y0053990D01*
X0074631Y0054023D01*
X0074670Y0054060D01*
X0074671Y0054060D02*
X0075201Y0054590D01*
X0058701Y0070590D02*
X0057640Y0069529D01*
X0058701Y0070590D02*
X0056739Y0070749D01*
X0056209Y0071916D02*
X0056251Y0071955D01*
X0056295Y0071992D01*
X0056342Y0072025D01*
X0056391Y0072055D01*
X0056441Y0072082D01*
X0056494Y0072105D01*
X0056548Y0072125D01*
X0056603Y0072142D01*
X0056659Y0072154D01*
X0056715Y0072163D01*
X0056772Y0072169D01*
X0056830Y0072170D01*
X0056887Y0072168D01*
X0056944Y0072161D01*
X0057001Y0072151D01*
X0057056Y0072138D01*
X0057111Y0072120D01*
X0057164Y0072100D01*
X0057216Y0072075D01*
X0056739Y0070749D02*
X0056685Y0070750D01*
X0056632Y0070754D01*
X0056579Y0070763D01*
X0056528Y0070775D01*
X0056477Y0070791D01*
X0056427Y0070811D01*
X0056379Y0070835D01*
X0056333Y0070861D01*
X0056289Y0070892D01*
X0056247Y0070925D01*
X0056208Y0070961D01*
X0056209Y0070962D02*
X0056174Y0070999D01*
X0056143Y0071038D01*
X0056114Y0071080D01*
X0056089Y0071124D01*
X0056067Y0071169D01*
X0056049Y0071216D01*
X0056034Y0071264D01*
X0056023Y0071314D01*
X0056015Y0071363D01*
X0056011Y0071414D01*
X0056011Y0071464D01*
X0056015Y0071515D01*
X0056023Y0071564D01*
X0056034Y0071614D01*
X0056049Y0071662D01*
X0056067Y0071709D01*
X0056089Y0071754D01*
X0056114Y0071798D01*
X0056143Y0071840D01*
X0056174Y0071879D01*
X0056209Y0071916D01*
X0058192Y0073899D02*
X0058828Y0074536D01*
X0058192Y0073899D02*
X0058159Y0073864D01*
X0058129Y0073826D01*
X0058103Y0073785D01*
X0058079Y0073743D01*
X0058059Y0073699D01*
X0058043Y0073654D01*
X0058031Y0073607D01*
X0058022Y0073559D01*
X0058017Y0073511D01*
X0058016Y0073463D01*
X0058019Y0073415D01*
X0058026Y0073367D01*
X0058036Y0073320D01*
X0058051Y0073274D01*
X0058069Y0073229D01*
X0058090Y0073186D01*
X0058115Y0073144D01*
X0058144Y0073105D01*
X0058175Y0073068D01*
X0058209Y0073034D01*
X0058246Y0073003D01*
X0058285Y0072974D01*
X0058327Y0072949D01*
X0058370Y0072928D01*
X0058415Y0072910D01*
X0058461Y0072895D01*
X0058508Y0072885D01*
X0058556Y0072878D01*
X0058604Y0072875D01*
X0058652Y0072876D01*
X0058700Y0072881D01*
X0058748Y0072890D01*
X0058795Y0072902D01*
X0058840Y0072918D01*
X0058884Y0072938D01*
X0058926Y0072962D01*
X0058967Y0072988D01*
X0059005Y0073018D01*
X0059040Y0073051D01*
X0059041Y0073051D02*
X0059465Y0073475D01*
X0059147Y0073157D02*
X0059110Y0073118D01*
X0059077Y0073076D01*
X0059046Y0073032D01*
X0059019Y0072986D01*
X0058995Y0072939D01*
X0058974Y0072889D01*
X0058957Y0072838D01*
X0058944Y0072786D01*
X0058935Y0072734D01*
X0058929Y0072681D01*
X0058927Y0072627D01*
X0058929Y0072574D01*
X0058935Y0072520D01*
X0058944Y0072468D01*
X0058957Y0072416D01*
X0058974Y0072365D01*
X0058995Y0072315D01*
X0059019Y0072268D01*
X0059046Y0072222D01*
X0059077Y0072178D01*
X0059110Y0072136D01*
X0059147Y0072097D01*
X0059186Y0072060D01*
X0059228Y0072027D01*
X0059272Y0071996D01*
X0059318Y0071969D01*
X0059365Y0071945D01*
X0059415Y0071924D01*
X0059466Y0071907D01*
X0059518Y0071894D01*
X0059570Y0071885D01*
X0059623Y0071879D01*
X0059677Y0071877D01*
X0059731Y0071879D01*
X0059784Y0071885D01*
X0059836Y0071894D01*
X0059888Y0071907D01*
X0059939Y0071924D01*
X0059989Y0071945D01*
X0060036Y0071969D01*
X0060082Y0071996D01*
X0060126Y0072027D01*
X0060168Y0072060D01*
X0060207Y0072097D01*
X0060207Y0072096D02*
X0060738Y0072627D01*
X0061713Y0073602D02*
X0062774Y0074663D01*
X0062244Y0074133D02*
X0060334Y0076042D01*
X0061289Y0076148D01*
X0061722Y0077430D02*
X0062146Y0077854D01*
X0062147Y0077853D02*
X0062181Y0077885D01*
X0062218Y0077914D01*
X0062258Y0077941D01*
X0062299Y0077964D01*
X0062341Y0077983D01*
X0062386Y0078000D01*
X0062431Y0078012D01*
X0062477Y0078022D01*
X0062524Y0078027D01*
X0062571Y0078029D01*
X0062618Y0078027D01*
X0062665Y0078022D01*
X0062711Y0078012D01*
X0062756Y0078000D01*
X0062801Y0077983D01*
X0062843Y0077964D01*
X0062885Y0077941D01*
X0062924Y0077914D01*
X0062961Y0077885D01*
X0062995Y0077853D01*
X0062995Y0077854D02*
X0064056Y0076793D01*
X0064055Y0076793D02*
X0064087Y0076759D01*
X0064116Y0076722D01*
X0064143Y0076683D01*
X0064166Y0076641D01*
X0064185Y0076599D01*
X0064202Y0076554D01*
X0064214Y0076509D01*
X0064224Y0076463D01*
X0064229Y0076416D01*
X0064231Y0076369D01*
X0064229Y0076322D01*
X0064224Y0076275D01*
X0064214Y0076229D01*
X0064202Y0076184D01*
X0064185Y0076139D01*
X0064166Y0076097D01*
X0064143Y0076056D01*
X0064116Y0076016D01*
X0064087Y0075979D01*
X0064055Y0075945D01*
X0064056Y0075945D02*
X0063631Y0075520D01*
X0083411Y0087083D02*
X0084911Y0087083D01*
X0083636Y0088583D01*
X0084086Y0089783D02*
X0084143Y0089781D01*
X0084200Y0089775D01*
X0084257Y0089766D01*
X0084313Y0089753D01*
X0084368Y0089736D01*
X0084421Y0089716D01*
X0084473Y0089692D01*
X0084524Y0089664D01*
X0084572Y0089634D01*
X0084619Y0089600D01*
X0084663Y0089563D01*
X0084704Y0089524D01*
X0084743Y0089481D01*
X0084779Y0089437D01*
X0084812Y0089390D01*
X0084842Y0089341D01*
X0084868Y0089290D01*
X0084891Y0089237D01*
X0084911Y0089183D01*
X0083636Y0088583D02*
X0083599Y0088621D01*
X0083564Y0088662D01*
X0083533Y0088705D01*
X0083505Y0088751D01*
X0083481Y0088798D01*
X0083460Y0088847D01*
X0083442Y0088898D01*
X0083429Y0088949D01*
X0083419Y0089002D01*
X0083413Y0089055D01*
X0083411Y0089108D01*
X0083413Y0089158D01*
X0083419Y0089209D01*
X0083428Y0089258D01*
X0083441Y0089307D01*
X0083458Y0089355D01*
X0083478Y0089401D01*
X0083501Y0089446D01*
X0083528Y0089488D01*
X0083558Y0089529D01*
X0083591Y0089567D01*
X0083627Y0089603D01*
X0083665Y0089636D01*
X0083706Y0089666D01*
X0083749Y0089693D01*
X0083793Y0089716D01*
X0083839Y0089736D01*
X0083887Y0089753D01*
X0083936Y0089766D01*
X0083985Y0089775D01*
X0084036Y0089781D01*
X0084086Y0089783D01*
X0086291Y0089783D02*
X0087791Y0089783D01*
X0087791Y0088583D01*
X0086891Y0088583D01*
X0086844Y0088581D01*
X0086797Y0088576D01*
X0086751Y0088566D01*
X0086706Y0088554D01*
X0086661Y0088537D01*
X0086619Y0088518D01*
X0086578Y0088495D01*
X0086538Y0088468D01*
X0086501Y0088439D01*
X0086467Y0088407D01*
X0086435Y0088373D01*
X0086406Y0088336D01*
X0086379Y0088296D01*
X0086356Y0088255D01*
X0086337Y0088213D01*
X0086320Y0088168D01*
X0086308Y0088123D01*
X0086298Y0088077D01*
X0086293Y0088030D01*
X0086291Y0087983D01*
X0086291Y0087683D01*
X0086293Y0087636D01*
X0086298Y0087589D01*
X0086308Y0087543D01*
X0086320Y0087498D01*
X0086337Y0087453D01*
X0086356Y0087411D01*
X0086379Y0087370D01*
X0086406Y0087330D01*
X0086435Y0087293D01*
X0086467Y0087259D01*
X0086501Y0087227D01*
X0086538Y0087198D01*
X0086578Y0087171D01*
X0086619Y0087148D01*
X0086661Y0087129D01*
X0086706Y0087112D01*
X0086751Y0087100D01*
X0086797Y0087090D01*
X0086844Y0087085D01*
X0086891Y0087083D01*
X0087791Y0087083D01*
X0089171Y0087083D02*
X0090671Y0087083D01*
X0089921Y0087083D02*
X0089921Y0089783D01*
X0090671Y0089183D01*
X0091883Y0089783D02*
X0092483Y0089783D01*
X0092530Y0089781D01*
X0092577Y0089776D01*
X0092623Y0089766D01*
X0092668Y0089754D01*
X0092713Y0089737D01*
X0092755Y0089718D01*
X0092796Y0089695D01*
X0092836Y0089668D01*
X0092873Y0089639D01*
X0092907Y0089607D01*
X0092939Y0089573D01*
X0092968Y0089536D01*
X0092995Y0089496D01*
X0093018Y0089455D01*
X0093037Y0089413D01*
X0093054Y0089368D01*
X0093066Y0089323D01*
X0093076Y0089277D01*
X0093081Y0089230D01*
X0093083Y0089183D01*
X0093083Y0087683D01*
X0093081Y0087636D01*
X0093076Y0087589D01*
X0093066Y0087543D01*
X0093054Y0087498D01*
X0093037Y0087453D01*
X0093018Y0087411D01*
X0092995Y0087370D01*
X0092968Y0087330D01*
X0092939Y0087293D01*
X0092907Y0087259D01*
X0092873Y0087227D01*
X0092836Y0087198D01*
X0092796Y0087171D01*
X0092755Y0087148D01*
X0092713Y0087129D01*
X0092668Y0087112D01*
X0092623Y0087100D01*
X0092577Y0087090D01*
X0092530Y0087085D01*
X0092483Y0087083D01*
X0091883Y0087083D01*
X0052213Y0123716D02*
X0051152Y0122655D01*
X0051152Y0122656D02*
X0051118Y0122624D01*
X0051081Y0122595D01*
X0051042Y0122568D01*
X0051000Y0122545D01*
X0050958Y0122526D01*
X0050913Y0122509D01*
X0050868Y0122497D01*
X0050822Y0122487D01*
X0050775Y0122482D01*
X0050728Y0122480D01*
X0050681Y0122482D01*
X0050634Y0122487D01*
X0050588Y0122497D01*
X0050543Y0122509D01*
X0050498Y0122526D01*
X0050456Y0122545D01*
X0050415Y0122568D01*
X0050375Y0122595D01*
X0050338Y0122624D01*
X0050304Y0122656D01*
X0050304Y0122655D02*
X0049879Y0123080D01*
X0049022Y0123937D02*
X0047962Y0124998D01*
X0048492Y0124467D02*
X0050401Y0126376D01*
X0050507Y0125422D01*
X0051789Y0124989D02*
X0052213Y0124565D01*
X0052213Y0124564D02*
X0052245Y0124530D01*
X0052274Y0124493D01*
X0052301Y0124454D01*
X0052324Y0124412D01*
X0052343Y0124370D01*
X0052360Y0124325D01*
X0052372Y0124280D01*
X0052382Y0124234D01*
X0052387Y0124187D01*
X0052389Y0124140D01*
X0052387Y0124093D01*
X0052382Y0124046D01*
X0052372Y0124000D01*
X0052360Y0123955D01*
X0052343Y0123910D01*
X0052324Y0123868D01*
X0052301Y0123827D01*
X0052274Y0123787D01*
X0052245Y0123750D01*
X0052213Y0123716D01*
X0047410Y0126398D02*
X0046349Y0127458D01*
X0046243Y0126716D02*
X0047092Y0127564D01*
X0047410Y0126398D02*
X0048471Y0128307D01*
X0046434Y0130343D02*
X0045374Y0128434D01*
X0044313Y0129495D01*
X0045055Y0129601D02*
X0044207Y0128752D01*
X0029283Y0128506D02*
X0028683Y0127756D01*
X0029283Y0128506D02*
X0026583Y0128506D01*
X0026583Y0127756D02*
X0026583Y0129256D01*
X0027183Y0126376D02*
X0027483Y0126376D01*
X0027530Y0126374D01*
X0027577Y0126369D01*
X0027623Y0126359D01*
X0027668Y0126347D01*
X0027713Y0126330D01*
X0027755Y0126311D01*
X0027796Y0126288D01*
X0027836Y0126261D01*
X0027873Y0126232D01*
X0027907Y0126200D01*
X0027939Y0126166D01*
X0027968Y0126129D01*
X0027995Y0126089D01*
X0028018Y0126048D01*
X0028037Y0126006D01*
X0028054Y0125961D01*
X0028066Y0125916D01*
X0028076Y0125870D01*
X0028081Y0125823D01*
X0028083Y0125776D01*
X0028083Y0124876D01*
X0029283Y0124876D01*
X0029283Y0126376D01*
X0027183Y0126376D02*
X0027136Y0126374D01*
X0027089Y0126369D01*
X0027043Y0126359D01*
X0026998Y0126347D01*
X0026953Y0126330D01*
X0026911Y0126311D01*
X0026870Y0126288D01*
X0026830Y0126261D01*
X0026793Y0126232D01*
X0026759Y0126200D01*
X0026727Y0126166D01*
X0026698Y0126129D01*
X0026671Y0126089D01*
X0026648Y0126048D01*
X0026629Y0126006D01*
X0026612Y0125961D01*
X0026600Y0125916D01*
X0026590Y0125870D01*
X0026585Y0125823D01*
X0026583Y0125776D01*
X0026583Y0124876D01*
X0026583Y0123496D02*
X0026583Y0121996D01*
X0026583Y0122746D02*
X0029283Y0122746D01*
X0028683Y0121996D01*
X0029283Y0120783D02*
X0029283Y0120183D01*
X0029281Y0120136D01*
X0029276Y0120089D01*
X0029266Y0120043D01*
X0029254Y0119998D01*
X0029237Y0119953D01*
X0029218Y0119911D01*
X0029195Y0119870D01*
X0029168Y0119830D01*
X0029139Y0119793D01*
X0029107Y0119759D01*
X0029073Y0119727D01*
X0029036Y0119698D01*
X0028996Y0119671D01*
X0028955Y0119648D01*
X0028913Y0119629D01*
X0028868Y0119612D01*
X0028823Y0119600D01*
X0028777Y0119590D01*
X0028730Y0119585D01*
X0028683Y0119583D01*
X0027183Y0119583D01*
X0027136Y0119585D01*
X0027089Y0119590D01*
X0027043Y0119600D01*
X0026998Y0119612D01*
X0026953Y0119629D01*
X0026911Y0119648D01*
X0026870Y0119671D01*
X0026830Y0119698D01*
X0026793Y0119727D01*
X0026759Y0119759D01*
X0026727Y0119793D01*
X0026698Y0119830D01*
X0026671Y0119870D01*
X0026648Y0119911D01*
X0026629Y0119953D01*
X0026612Y0119998D01*
X0026600Y0120043D01*
X0026590Y0120089D01*
X0026585Y0120136D01*
X0026583Y0120183D01*
X0026583Y0120783D01*
X0027646Y0112354D02*
X0027222Y0111930D01*
X0027647Y0112353D02*
X0027681Y0112385D01*
X0027718Y0112414D01*
X0027758Y0112441D01*
X0027799Y0112464D01*
X0027841Y0112483D01*
X0027886Y0112500D01*
X0027931Y0112512D01*
X0027977Y0112522D01*
X0028024Y0112527D01*
X0028071Y0112529D01*
X0028118Y0112527D01*
X0028165Y0112522D01*
X0028211Y0112512D01*
X0028256Y0112500D01*
X0028301Y0112483D01*
X0028343Y0112464D01*
X0028385Y0112441D01*
X0028424Y0112414D01*
X0028461Y0112385D01*
X0028495Y0112353D01*
X0028495Y0112354D02*
X0029556Y0111293D01*
X0029555Y0111293D02*
X0029587Y0111259D01*
X0029616Y0111222D01*
X0029643Y0111183D01*
X0029666Y0111141D01*
X0029685Y0111099D01*
X0029702Y0111054D01*
X0029714Y0111009D01*
X0029724Y0110963D01*
X0029729Y0110916D01*
X0029731Y0110869D01*
X0029729Y0110822D01*
X0029724Y0110775D01*
X0029714Y0110729D01*
X0029702Y0110684D01*
X0029685Y0110639D01*
X0029666Y0110597D01*
X0029643Y0110556D01*
X0029616Y0110516D01*
X0029587Y0110479D01*
X0029555Y0110445D01*
X0029556Y0110445D02*
X0029131Y0110020D01*
X0028274Y0109163D02*
X0027213Y0108102D01*
X0027744Y0108633D02*
X0025834Y0110542D01*
X0026789Y0110648D01*
X0024328Y0109036D02*
X0023692Y0108399D01*
X0023659Y0108364D01*
X0023629Y0108326D01*
X0023603Y0108285D01*
X0023579Y0108243D01*
X0023559Y0108199D01*
X0023543Y0108154D01*
X0023531Y0108107D01*
X0023522Y0108059D01*
X0023517Y0108011D01*
X0023516Y0107963D01*
X0023519Y0107915D01*
X0023526Y0107867D01*
X0023536Y0107820D01*
X0023551Y0107774D01*
X0023569Y0107729D01*
X0023590Y0107686D01*
X0023615Y0107644D01*
X0023644Y0107605D01*
X0023675Y0107568D01*
X0023709Y0107534D01*
X0023746Y0107503D01*
X0023785Y0107474D01*
X0023827Y0107449D01*
X0023870Y0107428D01*
X0023915Y0107410D01*
X0023961Y0107395D01*
X0024008Y0107385D01*
X0024056Y0107378D01*
X0024104Y0107375D01*
X0024152Y0107376D01*
X0024200Y0107381D01*
X0024248Y0107390D01*
X0024295Y0107402D01*
X0024340Y0107418D01*
X0024384Y0107438D01*
X0024426Y0107462D01*
X0024467Y0107488D01*
X0024505Y0107518D01*
X0024540Y0107551D01*
X0024541Y0107551D02*
X0024965Y0107975D01*
X0024647Y0107657D02*
X0024610Y0107618D01*
X0024577Y0107576D01*
X0024546Y0107532D01*
X0024519Y0107486D01*
X0024495Y0107439D01*
X0024474Y0107389D01*
X0024457Y0107338D01*
X0024444Y0107286D01*
X0024435Y0107234D01*
X0024429Y0107181D01*
X0024427Y0107127D01*
X0024429Y0107074D01*
X0024435Y0107020D01*
X0024444Y0106968D01*
X0024457Y0106916D01*
X0024474Y0106865D01*
X0024495Y0106815D01*
X0024519Y0106768D01*
X0024546Y0106722D01*
X0024577Y0106678D01*
X0024610Y0106636D01*
X0024647Y0106597D01*
X0024686Y0106560D01*
X0024728Y0106527D01*
X0024772Y0106496D01*
X0024818Y0106469D01*
X0024865Y0106445D01*
X0024915Y0106424D01*
X0024966Y0106407D01*
X0025018Y0106394D01*
X0025070Y0106385D01*
X0025123Y0106379D01*
X0025177Y0106377D01*
X0025231Y0106379D01*
X0025284Y0106385D01*
X0025336Y0106394D01*
X0025388Y0106407D01*
X0025439Y0106424D01*
X0025489Y0106445D01*
X0025536Y0106469D01*
X0025582Y0106496D01*
X0025626Y0106527D01*
X0025668Y0106560D01*
X0025707Y0106597D01*
X0025707Y0106596D02*
X0026238Y0107127D01*
X0024201Y0105090D02*
X0023140Y0104029D01*
X0023671Y0104560D02*
X0021762Y0106469D01*
X0022716Y0106575D01*
X0026541Y0080783D02*
X0026541Y0078083D01*
X0027291Y0078083D02*
X0025791Y0078083D01*
X0027291Y0080183D02*
X0026541Y0080783D01*
X0029271Y0080783D02*
X0030171Y0080783D01*
X0029271Y0080783D02*
X0029223Y0080781D01*
X0029175Y0080775D01*
X0029127Y0080766D01*
X0029081Y0080752D01*
X0029036Y0080735D01*
X0028992Y0080714D01*
X0028950Y0080690D01*
X0028911Y0080663D01*
X0028873Y0080632D01*
X0028838Y0080599D01*
X0028806Y0080562D01*
X0028777Y0080524D01*
X0028751Y0080483D01*
X0028729Y0080440D01*
X0028710Y0080396D01*
X0028695Y0080350D01*
X0028683Y0080303D01*
X0028675Y0080255D01*
X0028671Y0080207D01*
X0028671Y0080159D01*
X0028675Y0080111D01*
X0028683Y0080063D01*
X0028695Y0080016D01*
X0028710Y0079970D01*
X0028729Y0079926D01*
X0028751Y0079883D01*
X0028777Y0079842D01*
X0028806Y0079804D01*
X0028838Y0079767D01*
X0028873Y0079734D01*
X0028911Y0079703D01*
X0028950Y0079676D01*
X0028992Y0079652D01*
X0029036Y0079631D01*
X0029081Y0079614D01*
X0029127Y0079600D01*
X0029175Y0079591D01*
X0029223Y0079585D01*
X0029271Y0079583D01*
X0029871Y0079583D01*
X0029421Y0079583D02*
X0029367Y0079581D01*
X0029314Y0079575D01*
X0029262Y0079566D01*
X0029210Y0079553D01*
X0029159Y0079536D01*
X0029109Y0079515D01*
X0029062Y0079491D01*
X0029016Y0079464D01*
X0028972Y0079433D01*
X0028930Y0079400D01*
X0028891Y0079363D01*
X0028854Y0079324D01*
X0028821Y0079282D01*
X0028790Y0079238D01*
X0028763Y0079192D01*
X0028739Y0079145D01*
X0028718Y0079095D01*
X0028701Y0079044D01*
X0028688Y0078992D01*
X0028679Y0078940D01*
X0028673Y0078887D01*
X0028671Y0078833D01*
X0028673Y0078779D01*
X0028679Y0078726D01*
X0028688Y0078674D01*
X0028701Y0078622D01*
X0028718Y0078571D01*
X0028739Y0078521D01*
X0028763Y0078474D01*
X0028790Y0078428D01*
X0028821Y0078384D01*
X0028854Y0078342D01*
X0028891Y0078303D01*
X0028930Y0078266D01*
X0028972Y0078233D01*
X0029016Y0078202D01*
X0029062Y0078175D01*
X0029109Y0078151D01*
X0029159Y0078130D01*
X0029210Y0078113D01*
X0029262Y0078100D01*
X0029314Y0078091D01*
X0029367Y0078085D01*
X0029421Y0078083D01*
X0030171Y0078083D01*
X0031383Y0078083D02*
X0031983Y0078083D01*
X0032030Y0078085D01*
X0032077Y0078090D01*
X0032123Y0078100D01*
X0032168Y0078112D01*
X0032213Y0078129D01*
X0032255Y0078148D01*
X0032296Y0078171D01*
X0032336Y0078198D01*
X0032373Y0078227D01*
X0032407Y0078259D01*
X0032439Y0078293D01*
X0032468Y0078330D01*
X0032495Y0078370D01*
X0032518Y0078411D01*
X0032537Y0078453D01*
X0032554Y0078498D01*
X0032566Y0078543D01*
X0032576Y0078589D01*
X0032581Y0078636D01*
X0032583Y0078683D01*
X0032583Y0080183D01*
X0032581Y0080230D01*
X0032576Y0080277D01*
X0032566Y0080323D01*
X0032554Y0080368D01*
X0032537Y0080413D01*
X0032518Y0080455D01*
X0032495Y0080496D01*
X0032468Y0080536D01*
X0032439Y0080573D01*
X0032407Y0080607D01*
X0032373Y0080639D01*
X0032336Y0080668D01*
X0032296Y0080695D01*
X0032255Y0080718D01*
X0032213Y0080737D01*
X0032168Y0080754D01*
X0032123Y0080766D01*
X0032077Y0080776D01*
X0032030Y0080781D01*
X0031983Y0080783D01*
X0031383Y0080783D01*
M02*
