G75*
%MOIN*%
%OFA0B0*%
%FSLAX25Y25*%
%IPPOS*%
%LPD*%
%AMOC8*
5,1,8,0,0,1.08239X$1,22.5*
%
%ADD10C,0.00000*%
%ADD11R,0.10600X0.05600*%
%ADD12R,0.06506X0.05718*%
%ADD13R,0.05718X0.06506*%
%ADD14R,0.04931X0.04537*%
%ADD15R,0.04537X0.04931*%
%ADD16C,0.09655*%
%ADD17R,0.03937X0.02362*%
%ADD18R,0.12411X0.18317*%
%ADD19R,0.18317X0.12411*%
%ADD20R,0.26978X0.26978*%
%ADD21R,0.04429X0.02756*%
%ADD22R,0.04429X0.01575*%
%ADD23R,0.02756X0.04429*%
%ADD24R,0.04537X0.02962*%
%ADD25R,0.04537X0.01781*%
%ADD26R,0.02962X0.04537*%
%ADD27R,0.01781X0.04537*%
%ADD28R,0.21072X0.21072*%
%ADD29R,0.09100X0.03100*%
%ADD30R,0.05718X0.04931*%
%ADD31R,0.05324X0.02765*%
%ADD32R,0.02765X0.05324*%
%ADD33R,0.05512X0.01575*%
%ADD34R,0.15354X0.10236*%
%ADD35C,0.08474*%
%ADD36R,0.01575X0.09449*%
%ADD37C,0.06506*%
%ADD38R,0.06899X0.03750*%
%ADD39R,0.02362X0.03937*%
%ADD40R,0.02175X0.06702*%
%ADD41R,0.01387X0.03257*%
%ADD42R,0.03750X0.06899*%
%ADD43C,0.06000*%
%ADD44C,0.05600*%
%ADD45R,0.04100X0.02600*%
%ADD46R,0.04300X0.00600*%
%ADD47R,0.06112X0.04537*%
%ADD48C,0.10049*%
%ADD49C,0.05324*%
D10*
X0005833Y0030833D02*
X0003333Y0033333D01*
X0003333Y0200833D01*
X0005833Y0203333D01*
X0047833Y0203333D01*
X0075833Y0231333D01*
X0075833Y0258333D01*
X0065333Y0268833D01*
X0065333Y0333333D01*
X0067833Y0335833D01*
X0086833Y0335833D01*
X0089333Y0338333D01*
X0089333Y0387333D01*
X0091833Y0389833D01*
X0177333Y0389833D01*
X0179833Y0387333D01*
X0179833Y0338333D01*
X0182333Y0335833D01*
X0209833Y0335833D01*
X0212333Y0338333D01*
X0212333Y0377333D01*
X0214833Y0379833D01*
X0252833Y0379833D01*
X0255333Y0377333D01*
X0255333Y0243333D01*
X0252833Y0240833D01*
X0157333Y0240833D01*
X0157333Y0195333D01*
X0166833Y0185833D01*
X0166833Y0175833D01*
X0169333Y0173333D01*
X0175333Y0173333D01*
X0177833Y0175833D01*
X0177833Y0189333D01*
X0183333Y0194833D01*
X0265833Y0194833D01*
X0268333Y0192333D01*
X0268333Y0033333D01*
X0265833Y0030833D01*
X0180333Y0030833D01*
X0177833Y0033333D01*
X0177833Y0049833D01*
X0175333Y0052333D01*
X0170333Y0052333D01*
X0167833Y0049833D01*
X0167833Y0033333D01*
X0165333Y0030833D01*
X0005833Y0030833D01*
X0221805Y0360833D02*
X0221807Y0360967D01*
X0221813Y0361101D01*
X0221823Y0361235D01*
X0221837Y0361369D01*
X0221855Y0361502D01*
X0221876Y0361634D01*
X0221902Y0361766D01*
X0221932Y0361897D01*
X0221965Y0362027D01*
X0222002Y0362155D01*
X0222044Y0362283D01*
X0222088Y0362410D01*
X0222137Y0362535D01*
X0222189Y0362658D01*
X0222245Y0362780D01*
X0222305Y0362901D01*
X0222368Y0363019D01*
X0222434Y0363136D01*
X0222504Y0363250D01*
X0222577Y0363363D01*
X0222654Y0363473D01*
X0222734Y0363581D01*
X0222817Y0363686D01*
X0222903Y0363789D01*
X0222992Y0363889D01*
X0223084Y0363987D01*
X0223179Y0364082D01*
X0223277Y0364174D01*
X0223377Y0364263D01*
X0223480Y0364349D01*
X0223585Y0364432D01*
X0223693Y0364512D01*
X0223803Y0364589D01*
X0223916Y0364662D01*
X0224030Y0364732D01*
X0224147Y0364798D01*
X0224265Y0364861D01*
X0224386Y0364921D01*
X0224508Y0364977D01*
X0224631Y0365029D01*
X0224756Y0365078D01*
X0224883Y0365122D01*
X0225011Y0365164D01*
X0225139Y0365201D01*
X0225269Y0365234D01*
X0225400Y0365264D01*
X0225532Y0365290D01*
X0225664Y0365311D01*
X0225797Y0365329D01*
X0225931Y0365343D01*
X0226065Y0365353D01*
X0226199Y0365359D01*
X0226333Y0365361D01*
X0226467Y0365359D01*
X0226601Y0365353D01*
X0226735Y0365343D01*
X0226869Y0365329D01*
X0227002Y0365311D01*
X0227134Y0365290D01*
X0227266Y0365264D01*
X0227397Y0365234D01*
X0227527Y0365201D01*
X0227655Y0365164D01*
X0227783Y0365122D01*
X0227910Y0365078D01*
X0228035Y0365029D01*
X0228158Y0364977D01*
X0228280Y0364921D01*
X0228401Y0364861D01*
X0228519Y0364798D01*
X0228636Y0364732D01*
X0228750Y0364662D01*
X0228863Y0364589D01*
X0228973Y0364512D01*
X0229081Y0364432D01*
X0229186Y0364349D01*
X0229289Y0364263D01*
X0229389Y0364174D01*
X0229487Y0364082D01*
X0229582Y0363987D01*
X0229674Y0363889D01*
X0229763Y0363789D01*
X0229849Y0363686D01*
X0229932Y0363581D01*
X0230012Y0363473D01*
X0230089Y0363363D01*
X0230162Y0363250D01*
X0230232Y0363136D01*
X0230298Y0363019D01*
X0230361Y0362901D01*
X0230421Y0362780D01*
X0230477Y0362658D01*
X0230529Y0362535D01*
X0230578Y0362410D01*
X0230622Y0362283D01*
X0230664Y0362155D01*
X0230701Y0362027D01*
X0230734Y0361897D01*
X0230764Y0361766D01*
X0230790Y0361634D01*
X0230811Y0361502D01*
X0230829Y0361369D01*
X0230843Y0361235D01*
X0230853Y0361101D01*
X0230859Y0360967D01*
X0230861Y0360833D01*
X0230859Y0360699D01*
X0230853Y0360565D01*
X0230843Y0360431D01*
X0230829Y0360297D01*
X0230811Y0360164D01*
X0230790Y0360032D01*
X0230764Y0359900D01*
X0230734Y0359769D01*
X0230701Y0359639D01*
X0230664Y0359511D01*
X0230622Y0359383D01*
X0230578Y0359256D01*
X0230529Y0359131D01*
X0230477Y0359008D01*
X0230421Y0358886D01*
X0230361Y0358765D01*
X0230298Y0358647D01*
X0230232Y0358530D01*
X0230162Y0358416D01*
X0230089Y0358303D01*
X0230012Y0358193D01*
X0229932Y0358085D01*
X0229849Y0357980D01*
X0229763Y0357877D01*
X0229674Y0357777D01*
X0229582Y0357679D01*
X0229487Y0357584D01*
X0229389Y0357492D01*
X0229289Y0357403D01*
X0229186Y0357317D01*
X0229081Y0357234D01*
X0228973Y0357154D01*
X0228863Y0357077D01*
X0228750Y0357004D01*
X0228636Y0356934D01*
X0228519Y0356868D01*
X0228401Y0356805D01*
X0228280Y0356745D01*
X0228158Y0356689D01*
X0228035Y0356637D01*
X0227910Y0356588D01*
X0227783Y0356544D01*
X0227655Y0356502D01*
X0227527Y0356465D01*
X0227397Y0356432D01*
X0227266Y0356402D01*
X0227134Y0356376D01*
X0227002Y0356355D01*
X0226869Y0356337D01*
X0226735Y0356323D01*
X0226601Y0356313D01*
X0226467Y0356307D01*
X0226333Y0356305D01*
X0226199Y0356307D01*
X0226065Y0356313D01*
X0225931Y0356323D01*
X0225797Y0356337D01*
X0225664Y0356355D01*
X0225532Y0356376D01*
X0225400Y0356402D01*
X0225269Y0356432D01*
X0225139Y0356465D01*
X0225011Y0356502D01*
X0224883Y0356544D01*
X0224756Y0356588D01*
X0224631Y0356637D01*
X0224508Y0356689D01*
X0224386Y0356745D01*
X0224265Y0356805D01*
X0224147Y0356868D01*
X0224030Y0356934D01*
X0223916Y0357004D01*
X0223803Y0357077D01*
X0223693Y0357154D01*
X0223585Y0357234D01*
X0223480Y0357317D01*
X0223377Y0357403D01*
X0223277Y0357492D01*
X0223179Y0357584D01*
X0223084Y0357679D01*
X0222992Y0357777D01*
X0222903Y0357877D01*
X0222817Y0357980D01*
X0222734Y0358085D01*
X0222654Y0358193D01*
X0222577Y0358303D01*
X0222504Y0358416D01*
X0222434Y0358530D01*
X0222368Y0358647D01*
X0222305Y0358765D01*
X0222245Y0358886D01*
X0222189Y0359008D01*
X0222137Y0359131D01*
X0222088Y0359256D01*
X0222044Y0359383D01*
X0222002Y0359511D01*
X0221965Y0359639D01*
X0221932Y0359769D01*
X0221902Y0359900D01*
X0221876Y0360032D01*
X0221855Y0360164D01*
X0221837Y0360297D01*
X0221823Y0360431D01*
X0221813Y0360565D01*
X0221807Y0360699D01*
X0221805Y0360833D01*
X0238805Y0360833D02*
X0238807Y0360967D01*
X0238813Y0361101D01*
X0238823Y0361235D01*
X0238837Y0361369D01*
X0238855Y0361502D01*
X0238876Y0361634D01*
X0238902Y0361766D01*
X0238932Y0361897D01*
X0238965Y0362027D01*
X0239002Y0362155D01*
X0239044Y0362283D01*
X0239088Y0362410D01*
X0239137Y0362535D01*
X0239189Y0362658D01*
X0239245Y0362780D01*
X0239305Y0362901D01*
X0239368Y0363019D01*
X0239434Y0363136D01*
X0239504Y0363250D01*
X0239577Y0363363D01*
X0239654Y0363473D01*
X0239734Y0363581D01*
X0239817Y0363686D01*
X0239903Y0363789D01*
X0239992Y0363889D01*
X0240084Y0363987D01*
X0240179Y0364082D01*
X0240277Y0364174D01*
X0240377Y0364263D01*
X0240480Y0364349D01*
X0240585Y0364432D01*
X0240693Y0364512D01*
X0240803Y0364589D01*
X0240916Y0364662D01*
X0241030Y0364732D01*
X0241147Y0364798D01*
X0241265Y0364861D01*
X0241386Y0364921D01*
X0241508Y0364977D01*
X0241631Y0365029D01*
X0241756Y0365078D01*
X0241883Y0365122D01*
X0242011Y0365164D01*
X0242139Y0365201D01*
X0242269Y0365234D01*
X0242400Y0365264D01*
X0242532Y0365290D01*
X0242664Y0365311D01*
X0242797Y0365329D01*
X0242931Y0365343D01*
X0243065Y0365353D01*
X0243199Y0365359D01*
X0243333Y0365361D01*
X0243467Y0365359D01*
X0243601Y0365353D01*
X0243735Y0365343D01*
X0243869Y0365329D01*
X0244002Y0365311D01*
X0244134Y0365290D01*
X0244266Y0365264D01*
X0244397Y0365234D01*
X0244527Y0365201D01*
X0244655Y0365164D01*
X0244783Y0365122D01*
X0244910Y0365078D01*
X0245035Y0365029D01*
X0245158Y0364977D01*
X0245280Y0364921D01*
X0245401Y0364861D01*
X0245519Y0364798D01*
X0245636Y0364732D01*
X0245750Y0364662D01*
X0245863Y0364589D01*
X0245973Y0364512D01*
X0246081Y0364432D01*
X0246186Y0364349D01*
X0246289Y0364263D01*
X0246389Y0364174D01*
X0246487Y0364082D01*
X0246582Y0363987D01*
X0246674Y0363889D01*
X0246763Y0363789D01*
X0246849Y0363686D01*
X0246932Y0363581D01*
X0247012Y0363473D01*
X0247089Y0363363D01*
X0247162Y0363250D01*
X0247232Y0363136D01*
X0247298Y0363019D01*
X0247361Y0362901D01*
X0247421Y0362780D01*
X0247477Y0362658D01*
X0247529Y0362535D01*
X0247578Y0362410D01*
X0247622Y0362283D01*
X0247664Y0362155D01*
X0247701Y0362027D01*
X0247734Y0361897D01*
X0247764Y0361766D01*
X0247790Y0361634D01*
X0247811Y0361502D01*
X0247829Y0361369D01*
X0247843Y0361235D01*
X0247853Y0361101D01*
X0247859Y0360967D01*
X0247861Y0360833D01*
X0247859Y0360699D01*
X0247853Y0360565D01*
X0247843Y0360431D01*
X0247829Y0360297D01*
X0247811Y0360164D01*
X0247790Y0360032D01*
X0247764Y0359900D01*
X0247734Y0359769D01*
X0247701Y0359639D01*
X0247664Y0359511D01*
X0247622Y0359383D01*
X0247578Y0359256D01*
X0247529Y0359131D01*
X0247477Y0359008D01*
X0247421Y0358886D01*
X0247361Y0358765D01*
X0247298Y0358647D01*
X0247232Y0358530D01*
X0247162Y0358416D01*
X0247089Y0358303D01*
X0247012Y0358193D01*
X0246932Y0358085D01*
X0246849Y0357980D01*
X0246763Y0357877D01*
X0246674Y0357777D01*
X0246582Y0357679D01*
X0246487Y0357584D01*
X0246389Y0357492D01*
X0246289Y0357403D01*
X0246186Y0357317D01*
X0246081Y0357234D01*
X0245973Y0357154D01*
X0245863Y0357077D01*
X0245750Y0357004D01*
X0245636Y0356934D01*
X0245519Y0356868D01*
X0245401Y0356805D01*
X0245280Y0356745D01*
X0245158Y0356689D01*
X0245035Y0356637D01*
X0244910Y0356588D01*
X0244783Y0356544D01*
X0244655Y0356502D01*
X0244527Y0356465D01*
X0244397Y0356432D01*
X0244266Y0356402D01*
X0244134Y0356376D01*
X0244002Y0356355D01*
X0243869Y0356337D01*
X0243735Y0356323D01*
X0243601Y0356313D01*
X0243467Y0356307D01*
X0243333Y0356305D01*
X0243199Y0356307D01*
X0243065Y0356313D01*
X0242931Y0356323D01*
X0242797Y0356337D01*
X0242664Y0356355D01*
X0242532Y0356376D01*
X0242400Y0356402D01*
X0242269Y0356432D01*
X0242139Y0356465D01*
X0242011Y0356502D01*
X0241883Y0356544D01*
X0241756Y0356588D01*
X0241631Y0356637D01*
X0241508Y0356689D01*
X0241386Y0356745D01*
X0241265Y0356805D01*
X0241147Y0356868D01*
X0241030Y0356934D01*
X0240916Y0357004D01*
X0240803Y0357077D01*
X0240693Y0357154D01*
X0240585Y0357234D01*
X0240480Y0357317D01*
X0240377Y0357403D01*
X0240277Y0357492D01*
X0240179Y0357584D01*
X0240084Y0357679D01*
X0239992Y0357777D01*
X0239903Y0357877D01*
X0239817Y0357980D01*
X0239734Y0358085D01*
X0239654Y0358193D01*
X0239577Y0358303D01*
X0239504Y0358416D01*
X0239434Y0358530D01*
X0239368Y0358647D01*
X0239305Y0358765D01*
X0239245Y0358886D01*
X0239189Y0359008D01*
X0239137Y0359131D01*
X0239088Y0359256D01*
X0239044Y0359383D01*
X0239002Y0359511D01*
X0238965Y0359639D01*
X0238932Y0359769D01*
X0238902Y0359900D01*
X0238876Y0360032D01*
X0238855Y0360164D01*
X0238837Y0360297D01*
X0238823Y0360431D01*
X0238813Y0360565D01*
X0238807Y0360699D01*
X0238805Y0360833D01*
D11*
X0248833Y0270333D03*
X0248833Y0262333D03*
X0261833Y0107833D03*
X0220333Y0035333D03*
D12*
X0224333Y0141093D03*
X0224333Y0148573D03*
X0205333Y0267093D03*
X0205333Y0274573D03*
X0194333Y0274573D03*
X0194333Y0267093D03*
X0183333Y0267093D03*
X0183333Y0274573D03*
X0183833Y0306593D03*
X0183833Y0314073D03*
X0228333Y0286073D03*
X0228333Y0278593D03*
X0014333Y0153573D03*
X0014333Y0146093D03*
D13*
X0084593Y0037833D03*
X0092073Y0037833D03*
X0169593Y0136833D03*
X0177073Y0136833D03*
X0174593Y0156833D03*
X0182073Y0156833D03*
D14*
X0189987Y0165833D03*
X0196680Y0165833D03*
X0224333Y0133180D03*
X0224333Y0126487D03*
G36*
X0162046Y0128839D02*
X0158561Y0125354D01*
X0155354Y0128561D01*
X0158839Y0132046D01*
X0162046Y0128839D01*
G37*
G36*
X0157313Y0124106D02*
X0153828Y0120621D01*
X0150621Y0123828D01*
X0154106Y0127313D01*
X0157313Y0124106D01*
G37*
X0138180Y0092333D03*
X0131487Y0092333D03*
G36*
X0115606Y0074854D02*
X0112121Y0078339D01*
X0115328Y0081546D01*
X0118813Y0078061D01*
X0115606Y0074854D01*
G37*
G36*
X0120339Y0070121D02*
X0116854Y0073606D01*
X0120061Y0076813D01*
X0123546Y0073328D01*
X0120339Y0070121D01*
G37*
G36*
X0110339Y0060121D02*
X0106854Y0063606D01*
X0110061Y0066813D01*
X0113546Y0063328D01*
X0110339Y0060121D01*
G37*
G36*
X0105606Y0064854D02*
X0102121Y0068339D01*
X0105328Y0071546D01*
X0108813Y0068061D01*
X0105606Y0064854D01*
G37*
G36*
X0076354Y0059475D02*
X0079839Y0062960D01*
X0083046Y0059753D01*
X0079561Y0056268D01*
X0076354Y0059475D01*
G37*
G36*
X0071621Y0054742D02*
X0075106Y0058227D01*
X0078313Y0055020D01*
X0074828Y0051535D01*
X0071621Y0054742D01*
G37*
G36*
X0051621Y0074328D02*
X0055106Y0077813D01*
X0058313Y0074606D01*
X0054828Y0071121D01*
X0051621Y0074328D01*
G37*
G36*
X0056354Y0079061D02*
X0059839Y0082546D01*
X0063046Y0079339D01*
X0059561Y0075854D01*
X0056354Y0079061D01*
G37*
G36*
X0053839Y0081121D02*
X0050354Y0084606D01*
X0053561Y0087813D01*
X0057046Y0084328D01*
X0053839Y0081121D01*
G37*
G36*
X0049106Y0085854D02*
X0045621Y0089339D01*
X0048828Y0092546D01*
X0052313Y0089061D01*
X0049106Y0085854D01*
G37*
G36*
X0023854Y0112061D02*
X0027339Y0115546D01*
X0030546Y0112339D01*
X0027061Y0108854D01*
X0023854Y0112061D01*
G37*
G36*
X0019121Y0107328D02*
X0022606Y0110813D01*
X0025813Y0107606D01*
X0022328Y0104121D01*
X0019121Y0107328D01*
G37*
X0014333Y0124487D03*
X0014333Y0131180D03*
X0015833Y0084680D03*
X0015833Y0077987D03*
G36*
X0102313Y0189606D02*
X0098828Y0186121D01*
X0095621Y0189328D01*
X0099106Y0192813D01*
X0102313Y0189606D01*
G37*
G36*
X0107046Y0194339D02*
X0103561Y0190854D01*
X0100354Y0194061D01*
X0103839Y0197546D01*
X0107046Y0194339D01*
G37*
X0120333Y0175180D03*
X0120333Y0168487D03*
X0128333Y0171987D03*
X0128333Y0178680D03*
X0158987Y0289833D03*
X0165680Y0289833D03*
X0165680Y0297833D03*
X0158987Y0297833D03*
X0158987Y0305833D03*
X0165680Y0305833D03*
X0174833Y0296180D03*
X0174833Y0289487D03*
X0183333Y0289487D03*
X0183333Y0296180D03*
X0194333Y0296180D03*
X0194333Y0289487D03*
X0205333Y0289487D03*
X0205333Y0296180D03*
X0194333Y0305487D03*
X0194333Y0312180D03*
X0189680Y0322833D03*
X0182987Y0322833D03*
X0174333Y0323680D03*
X0174333Y0316987D03*
X0238833Y0285680D03*
X0238833Y0278987D03*
X0097333Y0341487D03*
X0097333Y0348180D03*
X0152333Y0059180D03*
X0152333Y0052487D03*
D15*
X0142333Y0052487D03*
X0142333Y0059180D03*
X0142333Y0043180D03*
X0142333Y0036487D03*
X0110333Y0036487D03*
X0110333Y0043180D03*
G36*
X0102561Y0052621D02*
X0099354Y0055828D01*
X0102839Y0059313D01*
X0106046Y0056106D01*
X0102561Y0052621D01*
G37*
G36*
X0097828Y0057354D02*
X0094621Y0060561D01*
X0098106Y0064046D01*
X0101313Y0060839D01*
X0097828Y0057354D01*
G37*
G36*
X0048046Y0094561D02*
X0044839Y0091354D01*
X0041354Y0094839D01*
X0044561Y0098046D01*
X0048046Y0094561D01*
G37*
G36*
X0043313Y0089828D02*
X0040106Y0086621D01*
X0036621Y0090106D01*
X0039828Y0093313D01*
X0043313Y0089828D01*
G37*
G36*
X0039546Y0086061D02*
X0036339Y0082854D01*
X0032854Y0086339D01*
X0036061Y0089546D01*
X0039546Y0086061D01*
G37*
G36*
X0034813Y0081328D02*
X0031606Y0078121D01*
X0028121Y0081606D01*
X0031328Y0084813D01*
X0034813Y0081328D01*
G37*
G36*
X0022121Y0087606D02*
X0025328Y0090813D01*
X0028813Y0087328D01*
X0025606Y0084121D01*
X0022121Y0087606D01*
G37*
G36*
X0026854Y0092339D02*
X0030061Y0095546D01*
X0033546Y0092061D01*
X0030339Y0088854D01*
X0026854Y0092339D01*
G37*
G36*
X0037313Y0095828D02*
X0034106Y0092621D01*
X0030621Y0096106D01*
X0033828Y0099313D01*
X0037313Y0095828D01*
G37*
G36*
X0042046Y0100561D02*
X0038839Y0097354D01*
X0035354Y0100839D01*
X0038561Y0104046D01*
X0042046Y0100561D01*
G37*
X0036333Y0149987D03*
X0036333Y0156680D03*
X0141333Y0156180D03*
X0141333Y0149487D03*
X0207333Y0178487D03*
X0207333Y0185180D03*
X0220987Y0186833D03*
X0227680Y0186833D03*
X0227680Y0177833D03*
X0220987Y0177833D03*
X0220987Y0168833D03*
X0227680Y0168833D03*
X0145333Y0260487D03*
X0145333Y0267180D03*
X0158987Y0315833D03*
X0165680Y0315833D03*
X0165680Y0323833D03*
X0158987Y0323833D03*
X0158987Y0331833D03*
X0165680Y0331833D03*
X0205333Y0312180D03*
X0205333Y0305487D03*
X0221333Y0322487D03*
X0221333Y0329180D03*
X0237333Y0312180D03*
X0237333Y0305487D03*
X0110833Y0324487D03*
X0110833Y0331180D03*
X0102333Y0331180D03*
X0102333Y0324487D03*
X0105833Y0341487D03*
X0105833Y0348180D03*
D16*
X0226333Y0360833D03*
X0243333Y0360833D03*
D17*
X0176483Y0124558D03*
X0176483Y0121408D03*
X0176483Y0118259D03*
X0176483Y0115109D03*
X0176483Y0108558D03*
X0176483Y0105408D03*
X0176483Y0102259D03*
X0176483Y0099109D03*
X0176483Y0092558D03*
X0176483Y0089408D03*
X0176483Y0086259D03*
X0176483Y0083109D03*
X0176483Y0076558D03*
X0176483Y0073408D03*
X0176483Y0070259D03*
X0176483Y0067109D03*
X0170184Y0067109D03*
X0170184Y0070259D03*
X0170184Y0073408D03*
X0170184Y0076558D03*
X0170184Y0083109D03*
X0170184Y0086259D03*
X0170184Y0089408D03*
X0170184Y0092558D03*
X0170184Y0099109D03*
X0170184Y0102259D03*
X0170184Y0105408D03*
X0170184Y0108558D03*
X0170184Y0115109D03*
X0170184Y0118259D03*
X0170184Y0121408D03*
X0170184Y0124558D03*
D18*
X0014333Y0189833D03*
D19*
X0032833Y0040833D03*
D20*
G36*
X0107409Y0125333D02*
X0088333Y0106257D01*
X0069257Y0125333D01*
X0088333Y0144409D01*
X0107409Y0125333D01*
G37*
D21*
G36*
X0145610Y0131109D02*
X0142480Y0127979D01*
X0140532Y0129927D01*
X0143662Y0133057D01*
X0145610Y0131109D01*
G37*
G36*
X0096057Y0180662D02*
X0092927Y0177532D01*
X0090979Y0179480D01*
X0094109Y0182610D01*
X0096057Y0180662D01*
G37*
G36*
X0036134Y0120739D02*
X0033004Y0117609D01*
X0031056Y0119557D01*
X0034186Y0122687D01*
X0036134Y0120739D01*
G37*
G36*
X0085687Y0071186D02*
X0082557Y0068056D01*
X0080609Y0070004D01*
X0083739Y0073134D01*
X0085687Y0071186D01*
G37*
D22*
G36*
X0083461Y0073414D02*
X0080330Y0070283D01*
X0079217Y0071396D01*
X0082348Y0074527D01*
X0083461Y0073414D01*
G37*
G36*
X0082069Y0074806D02*
X0078938Y0071675D01*
X0077825Y0072788D01*
X0080956Y0075919D01*
X0082069Y0074806D01*
G37*
G36*
X0080677Y0076198D02*
X0077546Y0073067D01*
X0076433Y0074180D01*
X0079564Y0077311D01*
X0080677Y0076198D01*
G37*
G36*
X0079285Y0077590D02*
X0076154Y0074459D01*
X0075041Y0075572D01*
X0078172Y0078703D01*
X0079285Y0077590D01*
G37*
G36*
X0077893Y0078981D02*
X0074762Y0075850D01*
X0073649Y0076963D01*
X0076780Y0080094D01*
X0077893Y0078981D01*
G37*
G36*
X0076501Y0080373D02*
X0073370Y0077242D01*
X0072257Y0078355D01*
X0075388Y0081486D01*
X0076501Y0080373D01*
G37*
G36*
X0075109Y0081765D02*
X0071978Y0078634D01*
X0070865Y0079747D01*
X0073996Y0082878D01*
X0075109Y0081765D01*
G37*
G36*
X0073717Y0083157D02*
X0070586Y0080026D01*
X0069473Y0081139D01*
X0072604Y0084270D01*
X0073717Y0083157D01*
G37*
G36*
X0072325Y0084549D02*
X0069194Y0081418D01*
X0068081Y0082531D01*
X0071212Y0085662D01*
X0072325Y0084549D01*
G37*
G36*
X0070933Y0085941D02*
X0067802Y0082810D01*
X0066689Y0083923D01*
X0069820Y0087054D01*
X0070933Y0085941D01*
G37*
G36*
X0069541Y0087333D02*
X0066410Y0084202D01*
X0065297Y0085315D01*
X0068428Y0088446D01*
X0069541Y0087333D01*
G37*
G36*
X0068149Y0088725D02*
X0065018Y0085594D01*
X0063905Y0086707D01*
X0067036Y0089838D01*
X0068149Y0088725D01*
G37*
G36*
X0066758Y0090117D02*
X0063627Y0086986D01*
X0062514Y0088099D01*
X0065645Y0091230D01*
X0066758Y0090117D01*
G37*
G36*
X0065366Y0091509D02*
X0062235Y0088378D01*
X0061122Y0089491D01*
X0064253Y0092622D01*
X0065366Y0091509D01*
G37*
G36*
X0063974Y0092901D02*
X0060843Y0089770D01*
X0059730Y0090883D01*
X0062861Y0094014D01*
X0063974Y0092901D01*
G37*
G36*
X0062582Y0094293D02*
X0059451Y0091162D01*
X0058338Y0092275D01*
X0061469Y0095406D01*
X0062582Y0094293D01*
G37*
G36*
X0061190Y0095685D02*
X0058059Y0092554D01*
X0056946Y0093667D01*
X0060077Y0096798D01*
X0061190Y0095685D01*
G37*
G36*
X0059798Y0097077D02*
X0056667Y0093946D01*
X0055554Y0095059D01*
X0058685Y0098190D01*
X0059798Y0097077D01*
G37*
G36*
X0058406Y0098469D02*
X0055275Y0095338D01*
X0054162Y0096451D01*
X0057293Y0099582D01*
X0058406Y0098469D01*
G37*
G36*
X0057014Y0099861D02*
X0053883Y0096730D01*
X0052770Y0097843D01*
X0055901Y0100974D01*
X0057014Y0099861D01*
G37*
G36*
X0055622Y0101253D02*
X0052491Y0098122D01*
X0051378Y0099235D01*
X0054509Y0102366D01*
X0055622Y0101253D01*
G37*
G36*
X0054230Y0102645D02*
X0051099Y0099514D01*
X0049986Y0100627D01*
X0053117Y0103758D01*
X0054230Y0102645D01*
G37*
G36*
X0052838Y0104036D02*
X0049707Y0100905D01*
X0048594Y0102018D01*
X0051725Y0105149D01*
X0052838Y0104036D01*
G37*
G36*
X0051446Y0105428D02*
X0048315Y0102297D01*
X0047202Y0103410D01*
X0050333Y0106541D01*
X0051446Y0105428D01*
G37*
G36*
X0050054Y0106820D02*
X0046923Y0103689D01*
X0045810Y0104802D01*
X0048941Y0107933D01*
X0050054Y0106820D01*
G37*
G36*
X0048662Y0108212D02*
X0045531Y0105081D01*
X0044418Y0106194D01*
X0047549Y0109325D01*
X0048662Y0108212D01*
G37*
G36*
X0047270Y0109604D02*
X0044139Y0106473D01*
X0043026Y0107586D01*
X0046157Y0110717D01*
X0047270Y0109604D01*
G37*
G36*
X0045878Y0110996D02*
X0042747Y0107865D01*
X0041634Y0108978D01*
X0044765Y0112109D01*
X0045878Y0110996D01*
G37*
G36*
X0044486Y0112388D02*
X0041355Y0109257D01*
X0040242Y0110370D01*
X0043373Y0113501D01*
X0044486Y0112388D01*
G37*
G36*
X0043094Y0113780D02*
X0039963Y0110649D01*
X0038850Y0111762D01*
X0041981Y0114893D01*
X0043094Y0113780D01*
G37*
G36*
X0041703Y0115172D02*
X0038572Y0112041D01*
X0037459Y0113154D01*
X0040590Y0116285D01*
X0041703Y0115172D01*
G37*
G36*
X0040311Y0116564D02*
X0037180Y0113433D01*
X0036067Y0114546D01*
X0039198Y0117677D01*
X0040311Y0116564D01*
G37*
G36*
X0038919Y0117956D02*
X0035788Y0114825D01*
X0034675Y0115938D01*
X0037806Y0119069D01*
X0038919Y0117956D01*
G37*
G36*
X0037527Y0119348D02*
X0034396Y0116217D01*
X0033283Y0117330D01*
X0036414Y0120461D01*
X0037527Y0119348D01*
G37*
G36*
X0036414Y0130206D02*
X0033283Y0133337D01*
X0034396Y0134450D01*
X0037527Y0131319D01*
X0036414Y0130206D01*
G37*
G36*
X0037806Y0131598D02*
X0034675Y0134729D01*
X0035788Y0135842D01*
X0038919Y0132711D01*
X0037806Y0131598D01*
G37*
G36*
X0039198Y0132990D02*
X0036067Y0136121D01*
X0037180Y0137234D01*
X0040311Y0134103D01*
X0039198Y0132990D01*
G37*
G36*
X0040590Y0134382D02*
X0037459Y0137513D01*
X0038572Y0138626D01*
X0041703Y0135495D01*
X0040590Y0134382D01*
G37*
G36*
X0041981Y0135774D02*
X0038850Y0138905D01*
X0039963Y0140018D01*
X0043094Y0136887D01*
X0041981Y0135774D01*
G37*
G36*
X0043373Y0137166D02*
X0040242Y0140297D01*
X0041355Y0141410D01*
X0044486Y0138279D01*
X0043373Y0137166D01*
G37*
G36*
X0044765Y0138557D02*
X0041634Y0141688D01*
X0042747Y0142801D01*
X0045878Y0139670D01*
X0044765Y0138557D01*
G37*
G36*
X0046157Y0139949D02*
X0043026Y0143080D01*
X0044139Y0144193D01*
X0047270Y0141062D01*
X0046157Y0139949D01*
G37*
G36*
X0047549Y0141341D02*
X0044418Y0144472D01*
X0045531Y0145585D01*
X0048662Y0142454D01*
X0047549Y0141341D01*
G37*
G36*
X0048941Y0142733D02*
X0045810Y0145864D01*
X0046923Y0146977D01*
X0050054Y0143846D01*
X0048941Y0142733D01*
G37*
G36*
X0050333Y0144125D02*
X0047202Y0147256D01*
X0048315Y0148369D01*
X0051446Y0145238D01*
X0050333Y0144125D01*
G37*
G36*
X0051725Y0145517D02*
X0048594Y0148648D01*
X0049707Y0149761D01*
X0052838Y0146630D01*
X0051725Y0145517D01*
G37*
G36*
X0053117Y0146909D02*
X0049986Y0150040D01*
X0051099Y0151153D01*
X0054230Y0148022D01*
X0053117Y0146909D01*
G37*
G36*
X0054509Y0148301D02*
X0051378Y0151432D01*
X0052491Y0152545D01*
X0055622Y0149414D01*
X0054509Y0148301D01*
G37*
G36*
X0055901Y0149693D02*
X0052770Y0152824D01*
X0053883Y0153937D01*
X0057014Y0150806D01*
X0055901Y0149693D01*
G37*
G36*
X0057293Y0151085D02*
X0054162Y0154216D01*
X0055275Y0155329D01*
X0058406Y0152198D01*
X0057293Y0151085D01*
G37*
G36*
X0058685Y0152477D02*
X0055554Y0155608D01*
X0056667Y0156721D01*
X0059798Y0153590D01*
X0058685Y0152477D01*
G37*
G36*
X0060077Y0153869D02*
X0056946Y0157000D01*
X0058059Y0158113D01*
X0061190Y0154982D01*
X0060077Y0153869D01*
G37*
G36*
X0061469Y0155261D02*
X0058338Y0158392D01*
X0059451Y0159505D01*
X0062582Y0156374D01*
X0061469Y0155261D01*
G37*
G36*
X0062861Y0156653D02*
X0059730Y0159784D01*
X0060843Y0160897D01*
X0063974Y0157766D01*
X0062861Y0156653D01*
G37*
G36*
X0064253Y0158045D02*
X0061122Y0161176D01*
X0062235Y0162289D01*
X0065366Y0159158D01*
X0064253Y0158045D01*
G37*
G36*
X0065645Y0159437D02*
X0062514Y0162568D01*
X0063627Y0163681D01*
X0066758Y0160550D01*
X0065645Y0159437D01*
G37*
G36*
X0067036Y0160829D02*
X0063905Y0163960D01*
X0065018Y0165073D01*
X0068149Y0161942D01*
X0067036Y0160829D01*
G37*
G36*
X0068428Y0162221D02*
X0065297Y0165352D01*
X0066410Y0166465D01*
X0069541Y0163334D01*
X0068428Y0162221D01*
G37*
G36*
X0069820Y0163612D02*
X0066689Y0166743D01*
X0067802Y0167856D01*
X0070933Y0164725D01*
X0069820Y0163612D01*
G37*
G36*
X0071212Y0165004D02*
X0068081Y0168135D01*
X0069194Y0169248D01*
X0072325Y0166117D01*
X0071212Y0165004D01*
G37*
G36*
X0072604Y0166396D02*
X0069473Y0169527D01*
X0070586Y0170640D01*
X0073717Y0167509D01*
X0072604Y0166396D01*
G37*
G36*
X0073996Y0167788D02*
X0070865Y0170919D01*
X0071978Y0172032D01*
X0075109Y0168901D01*
X0073996Y0167788D01*
G37*
G36*
X0075388Y0169180D02*
X0072257Y0172311D01*
X0073370Y0173424D01*
X0076501Y0170293D01*
X0075388Y0169180D01*
G37*
G36*
X0076780Y0170572D02*
X0073649Y0173703D01*
X0074762Y0174816D01*
X0077893Y0171685D01*
X0076780Y0170572D01*
G37*
G36*
X0078172Y0171964D02*
X0075041Y0175095D01*
X0076154Y0176208D01*
X0079285Y0173077D01*
X0078172Y0171964D01*
G37*
G36*
X0079564Y0173356D02*
X0076433Y0176487D01*
X0077546Y0177600D01*
X0080677Y0174469D01*
X0079564Y0173356D01*
G37*
G36*
X0080956Y0174748D02*
X0077825Y0177879D01*
X0078938Y0178992D01*
X0082069Y0175861D01*
X0080956Y0174748D01*
G37*
G36*
X0082348Y0176140D02*
X0079217Y0179271D01*
X0080330Y0180384D01*
X0083461Y0177253D01*
X0082348Y0176140D01*
G37*
G36*
X0093206Y0177253D02*
X0096337Y0180384D01*
X0097450Y0179271D01*
X0094319Y0176140D01*
X0093206Y0177253D01*
G37*
G36*
X0094598Y0175861D02*
X0097729Y0178992D01*
X0098842Y0177879D01*
X0095711Y0174748D01*
X0094598Y0175861D01*
G37*
G36*
X0095990Y0174469D02*
X0099121Y0177600D01*
X0100234Y0176487D01*
X0097103Y0173356D01*
X0095990Y0174469D01*
G37*
G36*
X0097382Y0173077D02*
X0100513Y0176208D01*
X0101626Y0175095D01*
X0098495Y0171964D01*
X0097382Y0173077D01*
G37*
G36*
X0098774Y0171685D02*
X0101905Y0174816D01*
X0103018Y0173703D01*
X0099887Y0170572D01*
X0098774Y0171685D01*
G37*
G36*
X0100166Y0170293D02*
X0103297Y0173424D01*
X0104410Y0172311D01*
X0101279Y0169180D01*
X0100166Y0170293D01*
G37*
G36*
X0101557Y0168901D02*
X0104688Y0172032D01*
X0105801Y0170919D01*
X0102670Y0167788D01*
X0101557Y0168901D01*
G37*
G36*
X0102949Y0167509D02*
X0106080Y0170640D01*
X0107193Y0169527D01*
X0104062Y0166396D01*
X0102949Y0167509D01*
G37*
G36*
X0104341Y0166117D02*
X0107472Y0169248D01*
X0108585Y0168135D01*
X0105454Y0165004D01*
X0104341Y0166117D01*
G37*
G36*
X0105733Y0164725D02*
X0108864Y0167856D01*
X0109977Y0166743D01*
X0106846Y0163612D01*
X0105733Y0164725D01*
G37*
G36*
X0107125Y0163334D02*
X0110256Y0166465D01*
X0111369Y0165352D01*
X0108238Y0162221D01*
X0107125Y0163334D01*
G37*
G36*
X0108517Y0161942D02*
X0111648Y0165073D01*
X0112761Y0163960D01*
X0109630Y0160829D01*
X0108517Y0161942D01*
G37*
G36*
X0109909Y0160550D02*
X0113040Y0163681D01*
X0114153Y0162568D01*
X0111022Y0159437D01*
X0109909Y0160550D01*
G37*
G36*
X0111301Y0159158D02*
X0114432Y0162289D01*
X0115545Y0161176D01*
X0112414Y0158045D01*
X0111301Y0159158D01*
G37*
G36*
X0112693Y0157766D02*
X0115824Y0160897D01*
X0116937Y0159784D01*
X0113806Y0156653D01*
X0112693Y0157766D01*
G37*
G36*
X0114085Y0156374D02*
X0117216Y0159505D01*
X0118329Y0158392D01*
X0115198Y0155261D01*
X0114085Y0156374D01*
G37*
G36*
X0115477Y0154982D02*
X0118608Y0158113D01*
X0119721Y0157000D01*
X0116590Y0153869D01*
X0115477Y0154982D01*
G37*
G36*
X0116869Y0153590D02*
X0120000Y0156721D01*
X0121113Y0155608D01*
X0117982Y0152477D01*
X0116869Y0153590D01*
G37*
G36*
X0118261Y0152198D02*
X0121392Y0155329D01*
X0122505Y0154216D01*
X0119374Y0151085D01*
X0118261Y0152198D01*
G37*
G36*
X0119653Y0150806D02*
X0122784Y0153937D01*
X0123897Y0152824D01*
X0120766Y0149693D01*
X0119653Y0150806D01*
G37*
G36*
X0121045Y0149414D02*
X0124176Y0152545D01*
X0125289Y0151432D01*
X0122158Y0148301D01*
X0121045Y0149414D01*
G37*
G36*
X0122437Y0148022D02*
X0125568Y0151153D01*
X0126681Y0150040D01*
X0123550Y0146909D01*
X0122437Y0148022D01*
G37*
G36*
X0123829Y0146630D02*
X0126960Y0149761D01*
X0128073Y0148648D01*
X0124942Y0145517D01*
X0123829Y0146630D01*
G37*
G36*
X0125221Y0145238D02*
X0128352Y0148369D01*
X0129465Y0147256D01*
X0126334Y0144125D01*
X0125221Y0145238D01*
G37*
G36*
X0126612Y0143846D02*
X0129743Y0146977D01*
X0130856Y0145864D01*
X0127725Y0142733D01*
X0126612Y0143846D01*
G37*
G36*
X0128004Y0142454D02*
X0131135Y0145585D01*
X0132248Y0144472D01*
X0129117Y0141341D01*
X0128004Y0142454D01*
G37*
G36*
X0129396Y0141062D02*
X0132527Y0144193D01*
X0133640Y0143080D01*
X0130509Y0139949D01*
X0129396Y0141062D01*
G37*
G36*
X0130788Y0139670D02*
X0133919Y0142801D01*
X0135032Y0141688D01*
X0131901Y0138557D01*
X0130788Y0139670D01*
G37*
G36*
X0132180Y0138279D02*
X0135311Y0141410D01*
X0136424Y0140297D01*
X0133293Y0137166D01*
X0132180Y0138279D01*
G37*
G36*
X0133572Y0136887D02*
X0136703Y0140018D01*
X0137816Y0138905D01*
X0134685Y0135774D01*
X0133572Y0136887D01*
G37*
G36*
X0134964Y0135495D02*
X0138095Y0138626D01*
X0139208Y0137513D01*
X0136077Y0134382D01*
X0134964Y0135495D01*
G37*
G36*
X0136356Y0134103D02*
X0139487Y0137234D01*
X0140600Y0136121D01*
X0137469Y0132990D01*
X0136356Y0134103D01*
G37*
G36*
X0137748Y0132711D02*
X0140879Y0135842D01*
X0141992Y0134729D01*
X0138861Y0131598D01*
X0137748Y0132711D01*
G37*
G36*
X0139140Y0131319D02*
X0142271Y0134450D01*
X0143384Y0133337D01*
X0140253Y0130206D01*
X0139140Y0131319D01*
G37*
G36*
X0140253Y0120461D02*
X0143384Y0117330D01*
X0142271Y0116217D01*
X0139140Y0119348D01*
X0140253Y0120461D01*
G37*
G36*
X0138861Y0119069D02*
X0141992Y0115938D01*
X0140879Y0114825D01*
X0137748Y0117956D01*
X0138861Y0119069D01*
G37*
G36*
X0137469Y0117677D02*
X0140600Y0114546D01*
X0139487Y0113433D01*
X0136356Y0116564D01*
X0137469Y0117677D01*
G37*
G36*
X0136077Y0116285D02*
X0139208Y0113154D01*
X0138095Y0112041D01*
X0134964Y0115172D01*
X0136077Y0116285D01*
G37*
G36*
X0134685Y0114893D02*
X0137816Y0111762D01*
X0136703Y0110649D01*
X0133572Y0113780D01*
X0134685Y0114893D01*
G37*
G36*
X0133293Y0113501D02*
X0136424Y0110370D01*
X0135311Y0109257D01*
X0132180Y0112388D01*
X0133293Y0113501D01*
G37*
G36*
X0131901Y0112109D02*
X0135032Y0108978D01*
X0133919Y0107865D01*
X0130788Y0110996D01*
X0131901Y0112109D01*
G37*
G36*
X0130509Y0110717D02*
X0133640Y0107586D01*
X0132527Y0106473D01*
X0129396Y0109604D01*
X0130509Y0110717D01*
G37*
G36*
X0129117Y0109325D02*
X0132248Y0106194D01*
X0131135Y0105081D01*
X0128004Y0108212D01*
X0129117Y0109325D01*
G37*
G36*
X0127725Y0107933D02*
X0130856Y0104802D01*
X0129743Y0103689D01*
X0126612Y0106820D01*
X0127725Y0107933D01*
G37*
G36*
X0126334Y0106541D02*
X0129465Y0103410D01*
X0128352Y0102297D01*
X0125221Y0105428D01*
X0126334Y0106541D01*
G37*
G36*
X0124942Y0105149D02*
X0128073Y0102018D01*
X0126960Y0100905D01*
X0123829Y0104036D01*
X0124942Y0105149D01*
G37*
G36*
X0123550Y0103758D02*
X0126681Y0100627D01*
X0125568Y0099514D01*
X0122437Y0102645D01*
X0123550Y0103758D01*
G37*
G36*
X0122158Y0102366D02*
X0125289Y0099235D01*
X0124176Y0098122D01*
X0121045Y0101253D01*
X0122158Y0102366D01*
G37*
G36*
X0120766Y0100974D02*
X0123897Y0097843D01*
X0122784Y0096730D01*
X0119653Y0099861D01*
X0120766Y0100974D01*
G37*
G36*
X0119374Y0099582D02*
X0122505Y0096451D01*
X0121392Y0095338D01*
X0118261Y0098469D01*
X0119374Y0099582D01*
G37*
G36*
X0117982Y0098190D02*
X0121113Y0095059D01*
X0120000Y0093946D01*
X0116869Y0097077D01*
X0117982Y0098190D01*
G37*
G36*
X0116590Y0096798D02*
X0119721Y0093667D01*
X0118608Y0092554D01*
X0115477Y0095685D01*
X0116590Y0096798D01*
G37*
G36*
X0115198Y0095406D02*
X0118329Y0092275D01*
X0117216Y0091162D01*
X0114085Y0094293D01*
X0115198Y0095406D01*
G37*
G36*
X0113806Y0094014D02*
X0116937Y0090883D01*
X0115824Y0089770D01*
X0112693Y0092901D01*
X0113806Y0094014D01*
G37*
G36*
X0112414Y0092622D02*
X0115545Y0089491D01*
X0114432Y0088378D01*
X0111301Y0091509D01*
X0112414Y0092622D01*
G37*
G36*
X0111022Y0091230D02*
X0114153Y0088099D01*
X0113040Y0086986D01*
X0109909Y0090117D01*
X0111022Y0091230D01*
G37*
G36*
X0109630Y0089838D02*
X0112761Y0086707D01*
X0111648Y0085594D01*
X0108517Y0088725D01*
X0109630Y0089838D01*
G37*
G36*
X0108238Y0088446D02*
X0111369Y0085315D01*
X0110256Y0084202D01*
X0107125Y0087333D01*
X0108238Y0088446D01*
G37*
G36*
X0106846Y0087054D02*
X0109977Y0083923D01*
X0108864Y0082810D01*
X0105733Y0085941D01*
X0106846Y0087054D01*
G37*
G36*
X0105454Y0085662D02*
X0108585Y0082531D01*
X0107472Y0081418D01*
X0104341Y0084549D01*
X0105454Y0085662D01*
G37*
G36*
X0104062Y0084270D02*
X0107193Y0081139D01*
X0106080Y0080026D01*
X0102949Y0083157D01*
X0104062Y0084270D01*
G37*
G36*
X0102670Y0082878D02*
X0105801Y0079747D01*
X0104688Y0078634D01*
X0101557Y0081765D01*
X0102670Y0082878D01*
G37*
G36*
X0101279Y0081486D02*
X0104410Y0078355D01*
X0103297Y0077242D01*
X0100166Y0080373D01*
X0101279Y0081486D01*
G37*
G36*
X0099887Y0080094D02*
X0103018Y0076963D01*
X0101905Y0075850D01*
X0098774Y0078981D01*
X0099887Y0080094D01*
G37*
G36*
X0098495Y0078703D02*
X0101626Y0075572D01*
X0100513Y0074459D01*
X0097382Y0077590D01*
X0098495Y0078703D01*
G37*
G36*
X0097103Y0077311D02*
X0100234Y0074180D01*
X0099121Y0073067D01*
X0095990Y0076198D01*
X0097103Y0077311D01*
G37*
G36*
X0095711Y0075919D02*
X0098842Y0072788D01*
X0097729Y0071675D01*
X0094598Y0074806D01*
X0095711Y0075919D01*
G37*
G36*
X0094319Y0074527D02*
X0097450Y0071396D01*
X0096337Y0070283D01*
X0093206Y0073414D01*
X0094319Y0074527D01*
G37*
D23*
G36*
X0096057Y0070004D02*
X0094109Y0068056D01*
X0090979Y0071186D01*
X0092927Y0073134D01*
X0096057Y0070004D01*
G37*
G36*
X0145610Y0119557D02*
X0143662Y0117609D01*
X0140532Y0120739D01*
X0142480Y0122687D01*
X0145610Y0119557D01*
G37*
G36*
X0085687Y0179480D02*
X0083739Y0177532D01*
X0080609Y0180662D01*
X0082557Y0182610D01*
X0085687Y0179480D01*
G37*
G36*
X0036134Y0129927D02*
X0034186Y0127979D01*
X0031056Y0131109D01*
X0033004Y0133057D01*
X0036134Y0129927D01*
G37*
D24*
X0099696Y0276479D03*
X0099696Y0307188D03*
X0144971Y0307188D03*
X0144971Y0276479D03*
D25*
X0144971Y0279038D03*
X0144971Y0281007D03*
X0144971Y0282975D03*
X0144971Y0284944D03*
X0144971Y0286912D03*
X0144971Y0288881D03*
X0144971Y0290849D03*
X0144971Y0292818D03*
X0144971Y0294786D03*
X0144971Y0296755D03*
X0144971Y0298723D03*
X0144971Y0300692D03*
X0144971Y0302660D03*
X0144971Y0304629D03*
X0099696Y0304629D03*
X0099696Y0302660D03*
X0099696Y0300692D03*
X0099696Y0298723D03*
X0099696Y0296755D03*
X0099696Y0294786D03*
X0099696Y0292818D03*
X0099696Y0290849D03*
X0099696Y0288881D03*
X0099696Y0286912D03*
X0099696Y0284944D03*
X0099696Y0282975D03*
X0099696Y0281007D03*
X0099696Y0279038D03*
D26*
X0106979Y0269196D03*
X0137688Y0269196D03*
X0137688Y0314471D03*
X0106979Y0314471D03*
D27*
X0109538Y0314471D03*
X0111507Y0314471D03*
X0113475Y0314471D03*
X0115444Y0314471D03*
X0117412Y0314471D03*
X0119381Y0314471D03*
X0121349Y0314471D03*
X0123318Y0314471D03*
X0125286Y0314471D03*
X0127255Y0314471D03*
X0129223Y0314471D03*
X0131192Y0314471D03*
X0133160Y0314471D03*
X0135129Y0314471D03*
X0135129Y0269196D03*
X0133160Y0269196D03*
X0131192Y0269196D03*
X0129223Y0269196D03*
X0127255Y0269196D03*
X0125286Y0269196D03*
X0123318Y0269196D03*
X0121349Y0269196D03*
X0119381Y0269196D03*
X0117412Y0269196D03*
X0115444Y0269196D03*
X0113475Y0269196D03*
X0111507Y0269196D03*
X0109538Y0269196D03*
D28*
X0122333Y0291833D03*
D29*
X0041033Y0066833D03*
X0041033Y0061833D03*
X0041033Y0056833D03*
X0041033Y0051833D03*
X0015633Y0051833D03*
X0015633Y0056833D03*
X0015633Y0061833D03*
X0015633Y0066833D03*
D30*
X0123806Y0059377D03*
X0123806Y0052290D03*
X0132861Y0052290D03*
X0132861Y0059377D03*
D31*
X0131452Y0043573D03*
X0131452Y0039833D03*
X0131452Y0036093D03*
X0121215Y0036093D03*
X0121215Y0043573D03*
X0216215Y0305093D03*
X0216215Y0312573D03*
X0210452Y0322093D03*
X0210452Y0325833D03*
X0210452Y0329573D03*
X0200215Y0329573D03*
X0200215Y0322093D03*
X0226452Y0312573D03*
X0226452Y0308833D03*
X0226452Y0305093D03*
D32*
X0197073Y0186952D03*
X0193333Y0186952D03*
X0189593Y0186952D03*
X0189593Y0176715D03*
X0197073Y0176715D03*
D33*
X0206538Y0105471D03*
X0206538Y0103503D03*
X0206538Y0101534D03*
X0206538Y0099566D03*
X0206538Y0097597D03*
X0206538Y0095629D03*
X0206538Y0093660D03*
X0206538Y0091692D03*
X0206538Y0089723D03*
X0206538Y0087755D03*
X0206538Y0085786D03*
X0206538Y0083818D03*
X0206538Y0081849D03*
X0206538Y0079881D03*
X0206538Y0077912D03*
X0206538Y0075944D03*
X0206538Y0073975D03*
X0206538Y0072007D03*
X0206538Y0070038D03*
X0206538Y0068070D03*
X0206538Y0066101D03*
X0206538Y0064133D03*
X0206538Y0062164D03*
X0206538Y0060196D03*
D34*
X0218349Y0052558D03*
X0218349Y0113109D03*
D35*
X0162877Y0364270D03*
X0165239Y0383562D03*
X0105790Y0364270D03*
X0103428Y0383562D03*
D36*
X0116617Y0359743D03*
X0118585Y0359743D03*
X0120554Y0359743D03*
X0122522Y0359743D03*
X0124491Y0359743D03*
X0126459Y0359743D03*
X0128428Y0359743D03*
X0130396Y0359743D03*
X0132365Y0359743D03*
X0134333Y0359743D03*
X0136302Y0359743D03*
X0138270Y0359743D03*
X0140239Y0359743D03*
X0142207Y0359743D03*
X0144176Y0359743D03*
X0146144Y0359743D03*
X0148113Y0359743D03*
X0150081Y0359743D03*
X0152050Y0359743D03*
D37*
X0248333Y0174833D03*
X0248333Y0164833D03*
X0248333Y0154833D03*
X0248333Y0144833D03*
X0248333Y0134833D03*
X0258333Y0134833D03*
X0258333Y0144833D03*
X0258333Y0154833D03*
X0258333Y0164833D03*
X0258333Y0174833D03*
D38*
X0263333Y0100333D03*
X0263333Y0095333D03*
X0263333Y0090333D03*
X0263333Y0085333D03*
X0263333Y0080333D03*
X0263333Y0075333D03*
X0263333Y0070333D03*
X0263333Y0065333D03*
X0263333Y0060333D03*
X0263333Y0055333D03*
X0263333Y0050333D03*
X0263333Y0045333D03*
X0263333Y0040333D03*
X0263333Y0035333D03*
D39*
X0158058Y0158184D03*
X0154908Y0158184D03*
X0151759Y0158184D03*
X0148609Y0158184D03*
X0148609Y0164483D03*
X0151759Y0164483D03*
X0154908Y0164483D03*
X0158058Y0164483D03*
X0065558Y0053983D03*
X0062408Y0053983D03*
X0059259Y0053983D03*
X0056109Y0053983D03*
X0056109Y0047684D03*
X0059259Y0047684D03*
X0062408Y0047684D03*
X0065558Y0047684D03*
X0079609Y0312684D03*
X0082759Y0312684D03*
X0085908Y0312684D03*
X0089058Y0312684D03*
X0089058Y0318983D03*
X0085908Y0318983D03*
X0082759Y0318983D03*
X0079609Y0318983D03*
D40*
X0121333Y0338833D03*
X0133333Y0338833D03*
D41*
X0131365Y0337111D03*
X0129396Y0337111D03*
X0129396Y0340556D03*
X0131365Y0340556D03*
X0135302Y0340556D03*
X0137270Y0340556D03*
X0137270Y0337111D03*
X0135302Y0337111D03*
X0125270Y0337111D03*
X0123302Y0337111D03*
X0123302Y0340556D03*
X0125270Y0340556D03*
X0119365Y0340556D03*
X0117396Y0340556D03*
X0117396Y0337111D03*
X0119365Y0337111D03*
D42*
X0068333Y0035833D03*
X0063333Y0035833D03*
X0058333Y0035833D03*
X0053333Y0035833D03*
D43*
X0225633Y0258333D02*
X0231033Y0258333D01*
X0231033Y0268333D02*
X0225633Y0268333D01*
D44*
X0205333Y0255833D03*
X0194333Y0255833D03*
X0183333Y0255833D03*
X0172333Y0255833D03*
X0218333Y0298333D03*
X0229333Y0298333D03*
X0213333Y0159333D03*
X0213333Y0148333D03*
X0202333Y0159333D03*
X0132833Y0066333D03*
X0101333Y0036333D03*
X0021333Y0127333D03*
X0079333Y0295833D03*
X0079333Y0302833D03*
D45*
X0138833Y0086333D03*
X0138833Y0083333D03*
X0144333Y0083333D03*
X0144333Y0086333D03*
X0149833Y0086333D03*
X0149833Y0083333D03*
D46*
X0149833Y0084833D03*
X0144333Y0084833D03*
X0138833Y0084833D03*
D47*
X0020164Y0096833D03*
X0011503Y0093093D03*
X0011503Y0100573D03*
X0166664Y0339093D03*
X0166664Y0346573D03*
X0158003Y0342833D03*
D48*
X0122333Y0291833D03*
X0088333Y0125333D03*
D49*
X0094583Y0131583D03*
X0088333Y0137833D03*
X0082333Y0131583D03*
X0075833Y0125333D03*
X0082333Y0119083D03*
X0088333Y0112833D03*
X0094583Y0119083D03*
X0100833Y0125333D03*
X0115333Y0284833D03*
X0115333Y0298833D03*
X0129333Y0298833D03*
X0129333Y0284833D03*
M02*
