G75*
%MOIN*%
%OFA0B0*%
%FSLAX25Y25*%
%IPPOS*%
%LPD*%
%AMOC8*
5,1,8,0,0,1.08239X$1,22.5*
%
%ADD10C,0.00000*%
D10*
X0005833Y0030833D02*
X0003333Y0033333D01*
X0003333Y0200833D01*
X0005833Y0203333D01*
X0047833Y0203333D01*
X0075833Y0231333D01*
X0075833Y0258333D01*
X0065333Y0268833D01*
X0065333Y0333333D01*
X0067833Y0335833D01*
X0086833Y0335833D01*
X0089333Y0338333D01*
X0089333Y0387333D01*
X0091833Y0389833D01*
X0177333Y0389833D01*
X0179833Y0387333D01*
X0179833Y0338333D01*
X0182333Y0335833D01*
X0209833Y0335833D01*
X0212333Y0338333D01*
X0212333Y0377333D01*
X0214833Y0379833D01*
X0252833Y0379833D01*
X0255333Y0377333D01*
X0255333Y0243333D01*
X0252833Y0240833D01*
X0157333Y0240833D01*
X0157333Y0195333D01*
X0166833Y0185833D01*
X0166833Y0175833D01*
X0169333Y0173333D01*
X0175333Y0173333D01*
X0177833Y0175833D01*
X0177833Y0189333D01*
X0183333Y0194833D01*
X0265833Y0194833D01*
X0268333Y0192333D01*
X0268333Y0033333D01*
X0265833Y0030833D01*
X0180333Y0030833D01*
X0177833Y0033333D01*
X0177833Y0049833D01*
X0175333Y0052333D01*
X0170333Y0052333D01*
X0167833Y0049833D01*
X0167833Y0033333D01*
X0165333Y0030833D01*
X0005833Y0030833D01*
X0221805Y0360833D02*
X0221807Y0360967D01*
X0221813Y0361101D01*
X0221823Y0361235D01*
X0221837Y0361369D01*
X0221855Y0361502D01*
X0221876Y0361634D01*
X0221902Y0361766D01*
X0221932Y0361897D01*
X0221965Y0362027D01*
X0222002Y0362155D01*
X0222044Y0362283D01*
X0222088Y0362410D01*
X0222137Y0362535D01*
X0222189Y0362658D01*
X0222245Y0362780D01*
X0222305Y0362901D01*
X0222368Y0363019D01*
X0222434Y0363136D01*
X0222504Y0363250D01*
X0222577Y0363363D01*
X0222654Y0363473D01*
X0222734Y0363581D01*
X0222817Y0363686D01*
X0222903Y0363789D01*
X0222992Y0363889D01*
X0223084Y0363987D01*
X0223179Y0364082D01*
X0223277Y0364174D01*
X0223377Y0364263D01*
X0223480Y0364349D01*
X0223585Y0364432D01*
X0223693Y0364512D01*
X0223803Y0364589D01*
X0223916Y0364662D01*
X0224030Y0364732D01*
X0224147Y0364798D01*
X0224265Y0364861D01*
X0224386Y0364921D01*
X0224508Y0364977D01*
X0224631Y0365029D01*
X0224756Y0365078D01*
X0224883Y0365122D01*
X0225011Y0365164D01*
X0225139Y0365201D01*
X0225269Y0365234D01*
X0225400Y0365264D01*
X0225532Y0365290D01*
X0225664Y0365311D01*
X0225797Y0365329D01*
X0225931Y0365343D01*
X0226065Y0365353D01*
X0226199Y0365359D01*
X0226333Y0365361D01*
X0226467Y0365359D01*
X0226601Y0365353D01*
X0226735Y0365343D01*
X0226869Y0365329D01*
X0227002Y0365311D01*
X0227134Y0365290D01*
X0227266Y0365264D01*
X0227397Y0365234D01*
X0227527Y0365201D01*
X0227655Y0365164D01*
X0227783Y0365122D01*
X0227910Y0365078D01*
X0228035Y0365029D01*
X0228158Y0364977D01*
X0228280Y0364921D01*
X0228401Y0364861D01*
X0228519Y0364798D01*
X0228636Y0364732D01*
X0228750Y0364662D01*
X0228863Y0364589D01*
X0228973Y0364512D01*
X0229081Y0364432D01*
X0229186Y0364349D01*
X0229289Y0364263D01*
X0229389Y0364174D01*
X0229487Y0364082D01*
X0229582Y0363987D01*
X0229674Y0363889D01*
X0229763Y0363789D01*
X0229849Y0363686D01*
X0229932Y0363581D01*
X0230012Y0363473D01*
X0230089Y0363363D01*
X0230162Y0363250D01*
X0230232Y0363136D01*
X0230298Y0363019D01*
X0230361Y0362901D01*
X0230421Y0362780D01*
X0230477Y0362658D01*
X0230529Y0362535D01*
X0230578Y0362410D01*
X0230622Y0362283D01*
X0230664Y0362155D01*
X0230701Y0362027D01*
X0230734Y0361897D01*
X0230764Y0361766D01*
X0230790Y0361634D01*
X0230811Y0361502D01*
X0230829Y0361369D01*
X0230843Y0361235D01*
X0230853Y0361101D01*
X0230859Y0360967D01*
X0230861Y0360833D01*
X0230859Y0360699D01*
X0230853Y0360565D01*
X0230843Y0360431D01*
X0230829Y0360297D01*
X0230811Y0360164D01*
X0230790Y0360032D01*
X0230764Y0359900D01*
X0230734Y0359769D01*
X0230701Y0359639D01*
X0230664Y0359511D01*
X0230622Y0359383D01*
X0230578Y0359256D01*
X0230529Y0359131D01*
X0230477Y0359008D01*
X0230421Y0358886D01*
X0230361Y0358765D01*
X0230298Y0358647D01*
X0230232Y0358530D01*
X0230162Y0358416D01*
X0230089Y0358303D01*
X0230012Y0358193D01*
X0229932Y0358085D01*
X0229849Y0357980D01*
X0229763Y0357877D01*
X0229674Y0357777D01*
X0229582Y0357679D01*
X0229487Y0357584D01*
X0229389Y0357492D01*
X0229289Y0357403D01*
X0229186Y0357317D01*
X0229081Y0357234D01*
X0228973Y0357154D01*
X0228863Y0357077D01*
X0228750Y0357004D01*
X0228636Y0356934D01*
X0228519Y0356868D01*
X0228401Y0356805D01*
X0228280Y0356745D01*
X0228158Y0356689D01*
X0228035Y0356637D01*
X0227910Y0356588D01*
X0227783Y0356544D01*
X0227655Y0356502D01*
X0227527Y0356465D01*
X0227397Y0356432D01*
X0227266Y0356402D01*
X0227134Y0356376D01*
X0227002Y0356355D01*
X0226869Y0356337D01*
X0226735Y0356323D01*
X0226601Y0356313D01*
X0226467Y0356307D01*
X0226333Y0356305D01*
X0226199Y0356307D01*
X0226065Y0356313D01*
X0225931Y0356323D01*
X0225797Y0356337D01*
X0225664Y0356355D01*
X0225532Y0356376D01*
X0225400Y0356402D01*
X0225269Y0356432D01*
X0225139Y0356465D01*
X0225011Y0356502D01*
X0224883Y0356544D01*
X0224756Y0356588D01*
X0224631Y0356637D01*
X0224508Y0356689D01*
X0224386Y0356745D01*
X0224265Y0356805D01*
X0224147Y0356868D01*
X0224030Y0356934D01*
X0223916Y0357004D01*
X0223803Y0357077D01*
X0223693Y0357154D01*
X0223585Y0357234D01*
X0223480Y0357317D01*
X0223377Y0357403D01*
X0223277Y0357492D01*
X0223179Y0357584D01*
X0223084Y0357679D01*
X0222992Y0357777D01*
X0222903Y0357877D01*
X0222817Y0357980D01*
X0222734Y0358085D01*
X0222654Y0358193D01*
X0222577Y0358303D01*
X0222504Y0358416D01*
X0222434Y0358530D01*
X0222368Y0358647D01*
X0222305Y0358765D01*
X0222245Y0358886D01*
X0222189Y0359008D01*
X0222137Y0359131D01*
X0222088Y0359256D01*
X0222044Y0359383D01*
X0222002Y0359511D01*
X0221965Y0359639D01*
X0221932Y0359769D01*
X0221902Y0359900D01*
X0221876Y0360032D01*
X0221855Y0360164D01*
X0221837Y0360297D01*
X0221823Y0360431D01*
X0221813Y0360565D01*
X0221807Y0360699D01*
X0221805Y0360833D01*
X0238805Y0360833D02*
X0238807Y0360967D01*
X0238813Y0361101D01*
X0238823Y0361235D01*
X0238837Y0361369D01*
X0238855Y0361502D01*
X0238876Y0361634D01*
X0238902Y0361766D01*
X0238932Y0361897D01*
X0238965Y0362027D01*
X0239002Y0362155D01*
X0239044Y0362283D01*
X0239088Y0362410D01*
X0239137Y0362535D01*
X0239189Y0362658D01*
X0239245Y0362780D01*
X0239305Y0362901D01*
X0239368Y0363019D01*
X0239434Y0363136D01*
X0239504Y0363250D01*
X0239577Y0363363D01*
X0239654Y0363473D01*
X0239734Y0363581D01*
X0239817Y0363686D01*
X0239903Y0363789D01*
X0239992Y0363889D01*
X0240084Y0363987D01*
X0240179Y0364082D01*
X0240277Y0364174D01*
X0240377Y0364263D01*
X0240480Y0364349D01*
X0240585Y0364432D01*
X0240693Y0364512D01*
X0240803Y0364589D01*
X0240916Y0364662D01*
X0241030Y0364732D01*
X0241147Y0364798D01*
X0241265Y0364861D01*
X0241386Y0364921D01*
X0241508Y0364977D01*
X0241631Y0365029D01*
X0241756Y0365078D01*
X0241883Y0365122D01*
X0242011Y0365164D01*
X0242139Y0365201D01*
X0242269Y0365234D01*
X0242400Y0365264D01*
X0242532Y0365290D01*
X0242664Y0365311D01*
X0242797Y0365329D01*
X0242931Y0365343D01*
X0243065Y0365353D01*
X0243199Y0365359D01*
X0243333Y0365361D01*
X0243467Y0365359D01*
X0243601Y0365353D01*
X0243735Y0365343D01*
X0243869Y0365329D01*
X0244002Y0365311D01*
X0244134Y0365290D01*
X0244266Y0365264D01*
X0244397Y0365234D01*
X0244527Y0365201D01*
X0244655Y0365164D01*
X0244783Y0365122D01*
X0244910Y0365078D01*
X0245035Y0365029D01*
X0245158Y0364977D01*
X0245280Y0364921D01*
X0245401Y0364861D01*
X0245519Y0364798D01*
X0245636Y0364732D01*
X0245750Y0364662D01*
X0245863Y0364589D01*
X0245973Y0364512D01*
X0246081Y0364432D01*
X0246186Y0364349D01*
X0246289Y0364263D01*
X0246389Y0364174D01*
X0246487Y0364082D01*
X0246582Y0363987D01*
X0246674Y0363889D01*
X0246763Y0363789D01*
X0246849Y0363686D01*
X0246932Y0363581D01*
X0247012Y0363473D01*
X0247089Y0363363D01*
X0247162Y0363250D01*
X0247232Y0363136D01*
X0247298Y0363019D01*
X0247361Y0362901D01*
X0247421Y0362780D01*
X0247477Y0362658D01*
X0247529Y0362535D01*
X0247578Y0362410D01*
X0247622Y0362283D01*
X0247664Y0362155D01*
X0247701Y0362027D01*
X0247734Y0361897D01*
X0247764Y0361766D01*
X0247790Y0361634D01*
X0247811Y0361502D01*
X0247829Y0361369D01*
X0247843Y0361235D01*
X0247853Y0361101D01*
X0247859Y0360967D01*
X0247861Y0360833D01*
X0247859Y0360699D01*
X0247853Y0360565D01*
X0247843Y0360431D01*
X0247829Y0360297D01*
X0247811Y0360164D01*
X0247790Y0360032D01*
X0247764Y0359900D01*
X0247734Y0359769D01*
X0247701Y0359639D01*
X0247664Y0359511D01*
X0247622Y0359383D01*
X0247578Y0359256D01*
X0247529Y0359131D01*
X0247477Y0359008D01*
X0247421Y0358886D01*
X0247361Y0358765D01*
X0247298Y0358647D01*
X0247232Y0358530D01*
X0247162Y0358416D01*
X0247089Y0358303D01*
X0247012Y0358193D01*
X0246932Y0358085D01*
X0246849Y0357980D01*
X0246763Y0357877D01*
X0246674Y0357777D01*
X0246582Y0357679D01*
X0246487Y0357584D01*
X0246389Y0357492D01*
X0246289Y0357403D01*
X0246186Y0357317D01*
X0246081Y0357234D01*
X0245973Y0357154D01*
X0245863Y0357077D01*
X0245750Y0357004D01*
X0245636Y0356934D01*
X0245519Y0356868D01*
X0245401Y0356805D01*
X0245280Y0356745D01*
X0245158Y0356689D01*
X0245035Y0356637D01*
X0244910Y0356588D01*
X0244783Y0356544D01*
X0244655Y0356502D01*
X0244527Y0356465D01*
X0244397Y0356432D01*
X0244266Y0356402D01*
X0244134Y0356376D01*
X0244002Y0356355D01*
X0243869Y0356337D01*
X0243735Y0356323D01*
X0243601Y0356313D01*
X0243467Y0356307D01*
X0243333Y0356305D01*
X0243199Y0356307D01*
X0243065Y0356313D01*
X0242931Y0356323D01*
X0242797Y0356337D01*
X0242664Y0356355D01*
X0242532Y0356376D01*
X0242400Y0356402D01*
X0242269Y0356432D01*
X0242139Y0356465D01*
X0242011Y0356502D01*
X0241883Y0356544D01*
X0241756Y0356588D01*
X0241631Y0356637D01*
X0241508Y0356689D01*
X0241386Y0356745D01*
X0241265Y0356805D01*
X0241147Y0356868D01*
X0241030Y0356934D01*
X0240916Y0357004D01*
X0240803Y0357077D01*
X0240693Y0357154D01*
X0240585Y0357234D01*
X0240480Y0357317D01*
X0240377Y0357403D01*
X0240277Y0357492D01*
X0240179Y0357584D01*
X0240084Y0357679D01*
X0239992Y0357777D01*
X0239903Y0357877D01*
X0239817Y0357980D01*
X0239734Y0358085D01*
X0239654Y0358193D01*
X0239577Y0358303D01*
X0239504Y0358416D01*
X0239434Y0358530D01*
X0239368Y0358647D01*
X0239305Y0358765D01*
X0239245Y0358886D01*
X0239189Y0359008D01*
X0239137Y0359131D01*
X0239088Y0359256D01*
X0239044Y0359383D01*
X0239002Y0359511D01*
X0238965Y0359639D01*
X0238932Y0359769D01*
X0238902Y0359900D01*
X0238876Y0360032D01*
X0238855Y0360164D01*
X0238837Y0360297D01*
X0238823Y0360431D01*
X0238813Y0360565D01*
X0238807Y0360699D01*
X0238805Y0360833D01*
M02*
