G75*
%MOIN*%
%OFA0B0*%
%FSLAX25Y25*%
%IPPOS*%
%LPD*%
%AMOC8*
5,1,8,0,0,1.08239X$1,22.5*
%
%ADD10R,0.05906X0.05118*%
%ADD11R,0.05118X0.05906*%
%ADD12R,0.04331X0.03937*%
%ADD13R,0.03937X0.04331*%
%ADD14R,0.03543X0.01969*%
%ADD15R,0.11811X0.17717*%
%ADD16R,0.17717X0.11811*%
%ADD17R,0.03937X0.02362*%
%ADD18R,0.03937X0.01181*%
%ADD19R,0.02362X0.03937*%
%ADD20R,0.01181X0.03937*%
%ADD21R,0.26378X0.26378*%
%ADD22R,0.20472X0.20472*%
%ADD23R,0.08500X0.02500*%
%ADD24R,0.05118X0.04331*%
%ADD25R,0.04724X0.02165*%
%ADD26R,0.02165X0.04724*%
%ADD27R,0.04921X0.00984*%
%ADD28R,0.14370X0.09252*%
%ADD29R,0.01181X0.08661*%
%ADD30R,0.06299X0.03150*%
%ADD31R,0.01969X0.03543*%
%ADD32R,0.01575X0.06102*%
%ADD33R,0.00787X0.02657*%
%ADD34R,0.03150X0.06299*%
%ADD35R,0.05512X0.03937*%
D10*
X0014333Y0146093D03*
X0014333Y0153573D03*
X0183333Y0267093D03*
X0183333Y0274573D03*
X0194333Y0274573D03*
X0194333Y0267093D03*
X0205333Y0267093D03*
X0205333Y0274573D03*
X0228333Y0278593D03*
X0228333Y0286073D03*
X0183833Y0306593D03*
X0183833Y0314073D03*
X0224333Y0148573D03*
X0224333Y0141093D03*
D11*
X0182073Y0156833D03*
X0174593Y0156833D03*
X0177073Y0136833D03*
X0169593Y0136833D03*
X0092073Y0037833D03*
X0084593Y0037833D03*
D12*
G36*
X0072045Y0054742D02*
X0075106Y0057803D01*
X0077889Y0055020D01*
X0074828Y0051959D01*
X0072045Y0054742D01*
G37*
G36*
X0076778Y0059475D02*
X0079839Y0062536D01*
X0082622Y0059753D01*
X0079561Y0056692D01*
X0076778Y0059475D01*
G37*
G36*
X0056778Y0079061D02*
X0059839Y0082122D01*
X0062622Y0079339D01*
X0059561Y0076278D01*
X0056778Y0079061D01*
G37*
G36*
X0052045Y0074328D02*
X0055106Y0077389D01*
X0057889Y0074606D01*
X0054828Y0071545D01*
X0052045Y0074328D01*
G37*
G36*
X0053839Y0081545D02*
X0050778Y0084606D01*
X0053561Y0087389D01*
X0056622Y0084328D01*
X0053839Y0081545D01*
G37*
G36*
X0049106Y0086278D02*
X0046045Y0089339D01*
X0048828Y0092122D01*
X0051889Y0089061D01*
X0049106Y0086278D01*
G37*
G36*
X0024278Y0112061D02*
X0027339Y0115122D01*
X0030122Y0112339D01*
X0027061Y0109278D01*
X0024278Y0112061D01*
G37*
G36*
X0019545Y0107328D02*
X0022606Y0110389D01*
X0025389Y0107606D01*
X0022328Y0104545D01*
X0019545Y0107328D01*
G37*
X0014333Y0124487D03*
X0014333Y0131180D03*
X0015833Y0084680D03*
X0015833Y0077987D03*
G36*
X0105606Y0065278D02*
X0102545Y0068339D01*
X0105328Y0071122D01*
X0108389Y0068061D01*
X0105606Y0065278D01*
G37*
G36*
X0110339Y0060545D02*
X0107278Y0063606D01*
X0110061Y0066389D01*
X0113122Y0063328D01*
X0110339Y0060545D01*
G37*
G36*
X0120339Y0070545D02*
X0117278Y0073606D01*
X0120061Y0076389D01*
X0123122Y0073328D01*
X0120339Y0070545D01*
G37*
G36*
X0115606Y0075278D02*
X0112545Y0078339D01*
X0115328Y0081122D01*
X0118389Y0078061D01*
X0115606Y0075278D01*
G37*
X0131487Y0092333D03*
X0138180Y0092333D03*
G36*
X0156889Y0124106D02*
X0153828Y0121045D01*
X0151045Y0123828D01*
X0154106Y0126889D01*
X0156889Y0124106D01*
G37*
G36*
X0161622Y0128839D02*
X0158561Y0125778D01*
X0155778Y0128561D01*
X0158839Y0131622D01*
X0161622Y0128839D01*
G37*
X0189987Y0165833D03*
X0196680Y0165833D03*
X0224333Y0133180D03*
X0224333Y0126487D03*
X0152333Y0059180D03*
X0152333Y0052487D03*
X0120333Y0168487D03*
X0120333Y0175180D03*
X0128333Y0171987D03*
X0128333Y0178680D03*
G36*
X0106622Y0194339D02*
X0103561Y0191278D01*
X0100778Y0194061D01*
X0103839Y0197122D01*
X0106622Y0194339D01*
G37*
G36*
X0101889Y0189606D02*
X0098828Y0186545D01*
X0096045Y0189328D01*
X0099106Y0192389D01*
X0101889Y0189606D01*
G37*
X0158987Y0289833D03*
X0165680Y0289833D03*
X0165680Y0297833D03*
X0158987Y0297833D03*
X0158987Y0305833D03*
X0165680Y0305833D03*
X0174833Y0296180D03*
X0174833Y0289487D03*
X0183333Y0289487D03*
X0183333Y0296180D03*
X0194333Y0296180D03*
X0194333Y0289487D03*
X0205333Y0289487D03*
X0205333Y0296180D03*
X0194333Y0305487D03*
X0194333Y0312180D03*
X0189680Y0322833D03*
X0182987Y0322833D03*
X0174333Y0323680D03*
X0174333Y0316987D03*
X0238833Y0285680D03*
X0238833Y0278987D03*
X0097333Y0341487D03*
X0097333Y0348180D03*
D13*
X0105833Y0348180D03*
X0105833Y0341487D03*
X0102333Y0331180D03*
X0102333Y0324487D03*
X0110833Y0324487D03*
X0110833Y0331180D03*
X0158987Y0331833D03*
X0165680Y0331833D03*
X0165680Y0323833D03*
X0158987Y0323833D03*
X0158987Y0315833D03*
X0165680Y0315833D03*
X0205333Y0312180D03*
X0205333Y0305487D03*
X0221333Y0322487D03*
X0221333Y0329180D03*
X0237333Y0312180D03*
X0237333Y0305487D03*
X0145333Y0267180D03*
X0145333Y0260487D03*
X0207333Y0185180D03*
X0207333Y0178487D03*
X0220987Y0177833D03*
X0227680Y0177833D03*
X0227680Y0168833D03*
X0220987Y0168833D03*
X0220987Y0186833D03*
X0227680Y0186833D03*
X0141333Y0156180D03*
X0141333Y0149487D03*
G36*
X0097828Y0057778D02*
X0095045Y0060561D01*
X0098106Y0063622D01*
X0100889Y0060839D01*
X0097828Y0057778D01*
G37*
G36*
X0102561Y0053045D02*
X0099778Y0055828D01*
X0102839Y0058889D01*
X0105622Y0056106D01*
X0102561Y0053045D01*
G37*
X0110333Y0043180D03*
X0110333Y0036487D03*
X0142333Y0036487D03*
X0142333Y0043180D03*
X0142333Y0052487D03*
X0142333Y0059180D03*
G36*
X0047622Y0094561D02*
X0044839Y0091778D01*
X0041778Y0094839D01*
X0044561Y0097622D01*
X0047622Y0094561D01*
G37*
G36*
X0042889Y0089828D02*
X0040106Y0087045D01*
X0037045Y0090106D01*
X0039828Y0092889D01*
X0042889Y0089828D01*
G37*
G36*
X0039122Y0086061D02*
X0036339Y0083278D01*
X0033278Y0086339D01*
X0036061Y0089122D01*
X0039122Y0086061D01*
G37*
G36*
X0034389Y0081328D02*
X0031606Y0078545D01*
X0028545Y0081606D01*
X0031328Y0084389D01*
X0034389Y0081328D01*
G37*
G36*
X0022545Y0087606D02*
X0025328Y0090389D01*
X0028389Y0087328D01*
X0025606Y0084545D01*
X0022545Y0087606D01*
G37*
G36*
X0027278Y0092339D02*
X0030061Y0095122D01*
X0033122Y0092061D01*
X0030339Y0089278D01*
X0027278Y0092339D01*
G37*
G36*
X0036889Y0095828D02*
X0034106Y0093045D01*
X0031045Y0096106D01*
X0033828Y0098889D01*
X0036889Y0095828D01*
G37*
G36*
X0041622Y0100561D02*
X0038839Y0097778D01*
X0035778Y0100839D01*
X0038561Y0103622D01*
X0041622Y0100561D01*
G37*
X0036333Y0149987D03*
X0036333Y0156680D03*
D14*
X0170184Y0124558D03*
X0170184Y0121408D03*
X0170184Y0118259D03*
X0170184Y0115109D03*
X0170184Y0108558D03*
X0170184Y0105408D03*
X0170184Y0102259D03*
X0170184Y0099109D03*
X0170184Y0092558D03*
X0170184Y0089408D03*
X0170184Y0086259D03*
X0170184Y0083109D03*
X0170184Y0076558D03*
X0170184Y0073408D03*
X0170184Y0070259D03*
X0170184Y0067109D03*
X0176483Y0067109D03*
X0176483Y0070259D03*
X0176483Y0073408D03*
X0176483Y0076558D03*
X0176483Y0083109D03*
X0176483Y0086259D03*
X0176483Y0089408D03*
X0176483Y0092558D03*
X0176483Y0099109D03*
X0176483Y0102259D03*
X0176483Y0105408D03*
X0176483Y0108558D03*
X0176483Y0115109D03*
X0176483Y0118259D03*
X0176483Y0121408D03*
X0176483Y0124558D03*
D15*
X0014333Y0189833D03*
D16*
X0032833Y0040833D03*
D17*
G36*
X0085409Y0071186D02*
X0082627Y0068404D01*
X0080957Y0070074D01*
X0083739Y0072856D01*
X0085409Y0071186D01*
G37*
G36*
X0035856Y0120739D02*
X0033074Y0117957D01*
X0031404Y0119627D01*
X0034186Y0122409D01*
X0035856Y0120739D01*
G37*
G36*
X0095710Y0180593D02*
X0092928Y0177811D01*
X0091258Y0179481D01*
X0094040Y0182263D01*
X0095710Y0180593D01*
G37*
G36*
X0145263Y0131040D02*
X0142481Y0128258D01*
X0140811Y0129928D01*
X0143593Y0132710D01*
X0145263Y0131040D01*
G37*
X0144971Y0276479D03*
X0144971Y0307188D03*
X0099696Y0307188D03*
X0099696Y0276479D03*
D18*
X0099696Y0279038D03*
X0099696Y0281007D03*
X0099696Y0282975D03*
X0099696Y0284944D03*
X0099696Y0286912D03*
X0099696Y0288881D03*
X0099696Y0290849D03*
X0099696Y0292818D03*
X0099696Y0294786D03*
X0099696Y0296755D03*
X0099696Y0298723D03*
X0099696Y0300692D03*
X0099696Y0302660D03*
X0099696Y0304629D03*
X0144971Y0304629D03*
X0144971Y0302660D03*
X0144971Y0300692D03*
X0144971Y0298723D03*
X0144971Y0296755D03*
X0144971Y0294786D03*
X0144971Y0292818D03*
X0144971Y0290849D03*
X0144971Y0288881D03*
X0144971Y0286912D03*
X0144971Y0284944D03*
X0144971Y0282975D03*
X0144971Y0281007D03*
X0144971Y0279038D03*
G36*
X0097101Y0179201D02*
X0094319Y0176419D01*
X0093485Y0177253D01*
X0096267Y0180035D01*
X0097101Y0179201D01*
G37*
G36*
X0098493Y0177809D02*
X0095711Y0175027D01*
X0094877Y0175861D01*
X0097659Y0178643D01*
X0098493Y0177809D01*
G37*
G36*
X0099885Y0176417D02*
X0097103Y0173635D01*
X0096269Y0174469D01*
X0099051Y0177251D01*
X0099885Y0176417D01*
G37*
G36*
X0101277Y0175025D02*
X0098495Y0172243D01*
X0097661Y0173077D01*
X0100443Y0175859D01*
X0101277Y0175025D01*
G37*
G36*
X0102669Y0173633D02*
X0099887Y0170851D01*
X0099053Y0171685D01*
X0101835Y0174467D01*
X0102669Y0173633D01*
G37*
G36*
X0104061Y0172241D02*
X0101279Y0169459D01*
X0100445Y0170293D01*
X0103227Y0173075D01*
X0104061Y0172241D01*
G37*
G36*
X0105453Y0170849D02*
X0102671Y0168067D01*
X0101837Y0168901D01*
X0104619Y0171683D01*
X0105453Y0170849D01*
G37*
G36*
X0106845Y0169458D02*
X0104063Y0166676D01*
X0103229Y0167510D01*
X0106011Y0170292D01*
X0106845Y0169458D01*
G37*
G36*
X0108237Y0168066D02*
X0105455Y0165284D01*
X0104621Y0166118D01*
X0107403Y0168900D01*
X0108237Y0168066D01*
G37*
G36*
X0109629Y0166674D02*
X0106847Y0163892D01*
X0106013Y0164726D01*
X0108795Y0167508D01*
X0109629Y0166674D01*
G37*
G36*
X0111020Y0165282D02*
X0108238Y0162500D01*
X0107404Y0163334D01*
X0110186Y0166116D01*
X0111020Y0165282D01*
G37*
G36*
X0112412Y0163890D02*
X0109630Y0161108D01*
X0108796Y0161942D01*
X0111578Y0164724D01*
X0112412Y0163890D01*
G37*
G36*
X0113804Y0162498D02*
X0111022Y0159716D01*
X0110188Y0160550D01*
X0112970Y0163332D01*
X0113804Y0162498D01*
G37*
G36*
X0115196Y0161106D02*
X0112414Y0158324D01*
X0111580Y0159158D01*
X0114362Y0161940D01*
X0115196Y0161106D01*
G37*
G36*
X0116588Y0159714D02*
X0113806Y0156932D01*
X0112972Y0157766D01*
X0115754Y0160548D01*
X0116588Y0159714D01*
G37*
G36*
X0117980Y0158322D02*
X0115198Y0155540D01*
X0114364Y0156374D01*
X0117146Y0159156D01*
X0117980Y0158322D01*
G37*
G36*
X0119372Y0156930D02*
X0116590Y0154148D01*
X0115756Y0154982D01*
X0118538Y0157764D01*
X0119372Y0156930D01*
G37*
G36*
X0120764Y0155538D02*
X0117982Y0152756D01*
X0117148Y0153590D01*
X0119930Y0156372D01*
X0120764Y0155538D01*
G37*
G36*
X0122156Y0154146D02*
X0119374Y0151364D01*
X0118540Y0152198D01*
X0121322Y0154980D01*
X0122156Y0154146D01*
G37*
G36*
X0123548Y0152754D02*
X0120766Y0149972D01*
X0119932Y0150806D01*
X0122714Y0153588D01*
X0123548Y0152754D01*
G37*
G36*
X0124940Y0151362D02*
X0122158Y0148580D01*
X0121324Y0149414D01*
X0124106Y0152196D01*
X0124940Y0151362D01*
G37*
G36*
X0126332Y0149970D02*
X0123550Y0147188D01*
X0122716Y0148022D01*
X0125498Y0150804D01*
X0126332Y0149970D01*
G37*
G36*
X0127724Y0148578D02*
X0124942Y0145796D01*
X0124108Y0146630D01*
X0126890Y0149412D01*
X0127724Y0148578D01*
G37*
G36*
X0129116Y0147186D02*
X0126334Y0144404D01*
X0125500Y0145238D01*
X0128282Y0148020D01*
X0129116Y0147186D01*
G37*
G36*
X0130508Y0145795D02*
X0127726Y0143013D01*
X0126892Y0143847D01*
X0129674Y0146629D01*
X0130508Y0145795D01*
G37*
G36*
X0131900Y0144403D02*
X0129118Y0141621D01*
X0128284Y0142455D01*
X0131066Y0145237D01*
X0131900Y0144403D01*
G37*
G36*
X0133292Y0143011D02*
X0130510Y0140229D01*
X0129676Y0141063D01*
X0132458Y0143845D01*
X0133292Y0143011D01*
G37*
G36*
X0134683Y0141619D02*
X0131901Y0138837D01*
X0131067Y0139671D01*
X0133849Y0142453D01*
X0134683Y0141619D01*
G37*
G36*
X0136075Y0140227D02*
X0133293Y0137445D01*
X0132459Y0138279D01*
X0135241Y0141061D01*
X0136075Y0140227D01*
G37*
G36*
X0137467Y0138835D02*
X0134685Y0136053D01*
X0133851Y0136887D01*
X0136633Y0139669D01*
X0137467Y0138835D01*
G37*
G36*
X0138859Y0137443D02*
X0136077Y0134661D01*
X0135243Y0135495D01*
X0138025Y0138277D01*
X0138859Y0137443D01*
G37*
G36*
X0140251Y0136051D02*
X0137469Y0133269D01*
X0136635Y0134103D01*
X0139417Y0136885D01*
X0140251Y0136051D01*
G37*
G36*
X0141643Y0134659D02*
X0138861Y0131877D01*
X0138027Y0132711D01*
X0140809Y0135493D01*
X0141643Y0134659D01*
G37*
G36*
X0143035Y0133267D02*
X0140253Y0130485D01*
X0139419Y0131319D01*
X0142201Y0134101D01*
X0143035Y0133267D01*
G37*
G36*
X0083182Y0073414D02*
X0080400Y0070632D01*
X0079566Y0071466D01*
X0082348Y0074248D01*
X0083182Y0073414D01*
G37*
G36*
X0081790Y0074805D02*
X0079008Y0072023D01*
X0078174Y0072857D01*
X0080956Y0075639D01*
X0081790Y0074805D01*
G37*
G36*
X0080398Y0076197D02*
X0077616Y0073415D01*
X0076782Y0074249D01*
X0079564Y0077031D01*
X0080398Y0076197D01*
G37*
G36*
X0079006Y0077589D02*
X0076224Y0074807D01*
X0075390Y0075641D01*
X0078172Y0078423D01*
X0079006Y0077589D01*
G37*
G36*
X0077614Y0078981D02*
X0074832Y0076199D01*
X0073998Y0077033D01*
X0076780Y0079815D01*
X0077614Y0078981D01*
G37*
G36*
X0076222Y0080373D02*
X0073440Y0077591D01*
X0072606Y0078425D01*
X0075388Y0081207D01*
X0076222Y0080373D01*
G37*
G36*
X0074830Y0081765D02*
X0072048Y0078983D01*
X0071214Y0079817D01*
X0073996Y0082599D01*
X0074830Y0081765D01*
G37*
G36*
X0073438Y0083157D02*
X0070656Y0080375D01*
X0069822Y0081209D01*
X0072604Y0083991D01*
X0073438Y0083157D01*
G37*
G36*
X0072046Y0084549D02*
X0069264Y0081767D01*
X0068430Y0082601D01*
X0071212Y0085383D01*
X0072046Y0084549D01*
G37*
G36*
X0070654Y0085941D02*
X0067872Y0083159D01*
X0067038Y0083993D01*
X0069820Y0086775D01*
X0070654Y0085941D01*
G37*
G36*
X0069262Y0087333D02*
X0066480Y0084551D01*
X0065646Y0085385D01*
X0068428Y0088167D01*
X0069262Y0087333D01*
G37*
G36*
X0067870Y0088725D02*
X0065088Y0085943D01*
X0064254Y0086777D01*
X0067036Y0089559D01*
X0067870Y0088725D01*
G37*
G36*
X0066478Y0090117D02*
X0063696Y0087335D01*
X0062862Y0088169D01*
X0065644Y0090951D01*
X0066478Y0090117D01*
G37*
G36*
X0065086Y0091509D02*
X0062304Y0088727D01*
X0061470Y0089561D01*
X0064252Y0092343D01*
X0065086Y0091509D01*
G37*
G36*
X0063694Y0092901D02*
X0060912Y0090119D01*
X0060078Y0090953D01*
X0062860Y0093735D01*
X0063694Y0092901D01*
G37*
G36*
X0062302Y0094293D02*
X0059520Y0091511D01*
X0058686Y0092345D01*
X0061468Y0095127D01*
X0062302Y0094293D01*
G37*
G36*
X0060911Y0095685D02*
X0058129Y0092903D01*
X0057295Y0093737D01*
X0060077Y0096519D01*
X0060911Y0095685D01*
G37*
G36*
X0059519Y0097077D02*
X0056737Y0094295D01*
X0055903Y0095129D01*
X0058685Y0097911D01*
X0059519Y0097077D01*
G37*
G36*
X0058127Y0098468D02*
X0055345Y0095686D01*
X0054511Y0096520D01*
X0057293Y0099302D01*
X0058127Y0098468D01*
G37*
G36*
X0056735Y0099860D02*
X0053953Y0097078D01*
X0053119Y0097912D01*
X0055901Y0100694D01*
X0056735Y0099860D01*
G37*
G36*
X0055343Y0101252D02*
X0052561Y0098470D01*
X0051727Y0099304D01*
X0054509Y0102086D01*
X0055343Y0101252D01*
G37*
G36*
X0053951Y0102644D02*
X0051169Y0099862D01*
X0050335Y0100696D01*
X0053117Y0103478D01*
X0053951Y0102644D01*
G37*
G36*
X0052559Y0104036D02*
X0049777Y0101254D01*
X0048943Y0102088D01*
X0051725Y0104870D01*
X0052559Y0104036D01*
G37*
G36*
X0051167Y0105428D02*
X0048385Y0102646D01*
X0047551Y0103480D01*
X0050333Y0106262D01*
X0051167Y0105428D01*
G37*
G36*
X0049775Y0106820D02*
X0046993Y0104038D01*
X0046159Y0104872D01*
X0048941Y0107654D01*
X0049775Y0106820D01*
G37*
G36*
X0048383Y0108212D02*
X0045601Y0105430D01*
X0044767Y0106264D01*
X0047549Y0109046D01*
X0048383Y0108212D01*
G37*
G36*
X0046991Y0109604D02*
X0044209Y0106822D01*
X0043375Y0107656D01*
X0046157Y0110438D01*
X0046991Y0109604D01*
G37*
G36*
X0045599Y0110996D02*
X0042817Y0108214D01*
X0041983Y0109048D01*
X0044765Y0111830D01*
X0045599Y0110996D01*
G37*
G36*
X0044207Y0112388D02*
X0041425Y0109606D01*
X0040591Y0110440D01*
X0043373Y0113222D01*
X0044207Y0112388D01*
G37*
G36*
X0042815Y0113780D02*
X0040033Y0110998D01*
X0039199Y0111832D01*
X0041981Y0114614D01*
X0042815Y0113780D01*
G37*
G36*
X0041423Y0115172D02*
X0038641Y0112390D01*
X0037807Y0113224D01*
X0040589Y0116006D01*
X0041423Y0115172D01*
G37*
G36*
X0040031Y0116564D02*
X0037249Y0113782D01*
X0036415Y0114616D01*
X0039197Y0117398D01*
X0040031Y0116564D01*
G37*
G36*
X0038639Y0117956D02*
X0035857Y0115174D01*
X0035023Y0116008D01*
X0037805Y0118790D01*
X0038639Y0117956D01*
G37*
G36*
X0037248Y0119348D02*
X0034466Y0116566D01*
X0033632Y0117400D01*
X0036414Y0120182D01*
X0037248Y0119348D01*
G37*
D19*
G36*
X0035856Y0129928D02*
X0034186Y0128258D01*
X0031404Y0131040D01*
X0033074Y0132710D01*
X0035856Y0129928D01*
G37*
G36*
X0085409Y0179481D02*
X0083739Y0177811D01*
X0080957Y0180593D01*
X0082627Y0182263D01*
X0085409Y0179481D01*
G37*
G36*
X0145263Y0119627D02*
X0143593Y0117957D01*
X0140811Y0120739D01*
X0142481Y0122409D01*
X0145263Y0119627D01*
G37*
G36*
X0095710Y0070074D02*
X0094040Y0068404D01*
X0091258Y0071186D01*
X0092928Y0072856D01*
X0095710Y0070074D01*
G37*
X0106979Y0269196D03*
X0137688Y0269196D03*
X0137688Y0314471D03*
X0106979Y0314471D03*
D20*
X0109538Y0314471D03*
X0111507Y0314471D03*
X0113475Y0314471D03*
X0115444Y0314471D03*
X0117412Y0314471D03*
X0119381Y0314471D03*
X0121349Y0314471D03*
X0123318Y0314471D03*
X0125286Y0314471D03*
X0127255Y0314471D03*
X0129223Y0314471D03*
X0131192Y0314471D03*
X0133160Y0314471D03*
X0135129Y0314471D03*
X0135129Y0269196D03*
X0133160Y0269196D03*
X0131192Y0269196D03*
X0129223Y0269196D03*
X0127255Y0269196D03*
X0125286Y0269196D03*
X0123318Y0269196D03*
X0121349Y0269196D03*
X0119381Y0269196D03*
X0117412Y0269196D03*
X0115444Y0269196D03*
X0113475Y0269196D03*
X0111507Y0269196D03*
X0109538Y0269196D03*
G36*
X0083182Y0177253D02*
X0082348Y0176419D01*
X0079566Y0179201D01*
X0080400Y0180035D01*
X0083182Y0177253D01*
G37*
G36*
X0081790Y0175861D02*
X0080956Y0175027D01*
X0078174Y0177809D01*
X0079008Y0178643D01*
X0081790Y0175861D01*
G37*
G36*
X0080398Y0174469D02*
X0079564Y0173635D01*
X0076782Y0176417D01*
X0077616Y0177251D01*
X0080398Y0174469D01*
G37*
G36*
X0079006Y0173077D02*
X0078172Y0172243D01*
X0075390Y0175025D01*
X0076224Y0175859D01*
X0079006Y0173077D01*
G37*
G36*
X0077614Y0171685D02*
X0076780Y0170851D01*
X0073998Y0173633D01*
X0074832Y0174467D01*
X0077614Y0171685D01*
G37*
G36*
X0076222Y0170293D02*
X0075388Y0169459D01*
X0072606Y0172241D01*
X0073440Y0173075D01*
X0076222Y0170293D01*
G37*
G36*
X0074830Y0168901D02*
X0073996Y0168067D01*
X0071214Y0170849D01*
X0072048Y0171683D01*
X0074830Y0168901D01*
G37*
G36*
X0073438Y0167510D02*
X0072604Y0166676D01*
X0069822Y0169458D01*
X0070656Y0170292D01*
X0073438Y0167510D01*
G37*
G36*
X0072046Y0166118D02*
X0071212Y0165284D01*
X0068430Y0168066D01*
X0069264Y0168900D01*
X0072046Y0166118D01*
G37*
G36*
X0070654Y0164726D02*
X0069820Y0163892D01*
X0067038Y0166674D01*
X0067872Y0167508D01*
X0070654Y0164726D01*
G37*
G36*
X0069262Y0163334D02*
X0068428Y0162500D01*
X0065646Y0165282D01*
X0066480Y0166116D01*
X0069262Y0163334D01*
G37*
G36*
X0067870Y0161942D02*
X0067036Y0161108D01*
X0064254Y0163890D01*
X0065088Y0164724D01*
X0067870Y0161942D01*
G37*
G36*
X0066478Y0160550D02*
X0065644Y0159716D01*
X0062862Y0162498D01*
X0063696Y0163332D01*
X0066478Y0160550D01*
G37*
G36*
X0065086Y0159158D02*
X0064252Y0158324D01*
X0061470Y0161106D01*
X0062304Y0161940D01*
X0065086Y0159158D01*
G37*
G36*
X0063694Y0157766D02*
X0062860Y0156932D01*
X0060078Y0159714D01*
X0060912Y0160548D01*
X0063694Y0157766D01*
G37*
G36*
X0062302Y0156374D02*
X0061468Y0155540D01*
X0058686Y0158322D01*
X0059520Y0159156D01*
X0062302Y0156374D01*
G37*
G36*
X0060911Y0154982D02*
X0060077Y0154148D01*
X0057295Y0156930D01*
X0058129Y0157764D01*
X0060911Y0154982D01*
G37*
G36*
X0059519Y0153590D02*
X0058685Y0152756D01*
X0055903Y0155538D01*
X0056737Y0156372D01*
X0059519Y0153590D01*
G37*
G36*
X0058127Y0152198D02*
X0057293Y0151364D01*
X0054511Y0154146D01*
X0055345Y0154980D01*
X0058127Y0152198D01*
G37*
G36*
X0056735Y0150806D02*
X0055901Y0149972D01*
X0053119Y0152754D01*
X0053953Y0153588D01*
X0056735Y0150806D01*
G37*
G36*
X0055343Y0149414D02*
X0054509Y0148580D01*
X0051727Y0151362D01*
X0052561Y0152196D01*
X0055343Y0149414D01*
G37*
G36*
X0053951Y0148022D02*
X0053117Y0147188D01*
X0050335Y0149970D01*
X0051169Y0150804D01*
X0053951Y0148022D01*
G37*
G36*
X0052559Y0146630D02*
X0051725Y0145796D01*
X0048943Y0148578D01*
X0049777Y0149412D01*
X0052559Y0146630D01*
G37*
G36*
X0051167Y0145238D02*
X0050333Y0144404D01*
X0047551Y0147186D01*
X0048385Y0148020D01*
X0051167Y0145238D01*
G37*
G36*
X0049775Y0143847D02*
X0048941Y0143013D01*
X0046159Y0145795D01*
X0046993Y0146629D01*
X0049775Y0143847D01*
G37*
G36*
X0048383Y0142455D02*
X0047549Y0141621D01*
X0044767Y0144403D01*
X0045601Y0145237D01*
X0048383Y0142455D01*
G37*
G36*
X0046991Y0141063D02*
X0046157Y0140229D01*
X0043375Y0143011D01*
X0044209Y0143845D01*
X0046991Y0141063D01*
G37*
G36*
X0045599Y0139671D02*
X0044765Y0138837D01*
X0041983Y0141619D01*
X0042817Y0142453D01*
X0045599Y0139671D01*
G37*
G36*
X0044207Y0138279D02*
X0043373Y0137445D01*
X0040591Y0140227D01*
X0041425Y0141061D01*
X0044207Y0138279D01*
G37*
G36*
X0042815Y0136887D02*
X0041981Y0136053D01*
X0039199Y0138835D01*
X0040033Y0139669D01*
X0042815Y0136887D01*
G37*
G36*
X0041423Y0135495D02*
X0040589Y0134661D01*
X0037807Y0137443D01*
X0038641Y0138277D01*
X0041423Y0135495D01*
G37*
G36*
X0040031Y0134103D02*
X0039197Y0133269D01*
X0036415Y0136051D01*
X0037249Y0136885D01*
X0040031Y0134103D01*
G37*
G36*
X0038639Y0132711D02*
X0037805Y0131877D01*
X0035023Y0134659D01*
X0035857Y0135493D01*
X0038639Y0132711D01*
G37*
G36*
X0037248Y0131319D02*
X0036414Y0130485D01*
X0033632Y0133267D01*
X0034466Y0134101D01*
X0037248Y0131319D01*
G37*
G36*
X0097101Y0071466D02*
X0096267Y0070632D01*
X0093485Y0073414D01*
X0094319Y0074248D01*
X0097101Y0071466D01*
G37*
G36*
X0098493Y0072857D02*
X0097659Y0072023D01*
X0094877Y0074805D01*
X0095711Y0075639D01*
X0098493Y0072857D01*
G37*
G36*
X0099885Y0074249D02*
X0099051Y0073415D01*
X0096269Y0076197D01*
X0097103Y0077031D01*
X0099885Y0074249D01*
G37*
G36*
X0101277Y0075641D02*
X0100443Y0074807D01*
X0097661Y0077589D01*
X0098495Y0078423D01*
X0101277Y0075641D01*
G37*
G36*
X0102669Y0077033D02*
X0101835Y0076199D01*
X0099053Y0078981D01*
X0099887Y0079815D01*
X0102669Y0077033D01*
G37*
G36*
X0104061Y0078425D02*
X0103227Y0077591D01*
X0100445Y0080373D01*
X0101279Y0081207D01*
X0104061Y0078425D01*
G37*
G36*
X0105453Y0079817D02*
X0104619Y0078983D01*
X0101837Y0081765D01*
X0102671Y0082599D01*
X0105453Y0079817D01*
G37*
G36*
X0106845Y0081209D02*
X0106011Y0080375D01*
X0103229Y0083157D01*
X0104063Y0083991D01*
X0106845Y0081209D01*
G37*
G36*
X0108237Y0082601D02*
X0107403Y0081767D01*
X0104621Y0084549D01*
X0105455Y0085383D01*
X0108237Y0082601D01*
G37*
G36*
X0109629Y0083993D02*
X0108795Y0083159D01*
X0106013Y0085941D01*
X0106847Y0086775D01*
X0109629Y0083993D01*
G37*
G36*
X0111020Y0085385D02*
X0110186Y0084551D01*
X0107404Y0087333D01*
X0108238Y0088167D01*
X0111020Y0085385D01*
G37*
G36*
X0112412Y0086777D02*
X0111578Y0085943D01*
X0108796Y0088725D01*
X0109630Y0089559D01*
X0112412Y0086777D01*
G37*
G36*
X0113804Y0088169D02*
X0112970Y0087335D01*
X0110188Y0090117D01*
X0111022Y0090951D01*
X0113804Y0088169D01*
G37*
G36*
X0115196Y0089561D02*
X0114362Y0088727D01*
X0111580Y0091509D01*
X0112414Y0092343D01*
X0115196Y0089561D01*
G37*
G36*
X0116588Y0090953D02*
X0115754Y0090119D01*
X0112972Y0092901D01*
X0113806Y0093735D01*
X0116588Y0090953D01*
G37*
G36*
X0117980Y0092345D02*
X0117146Y0091511D01*
X0114364Y0094293D01*
X0115198Y0095127D01*
X0117980Y0092345D01*
G37*
G36*
X0119372Y0093737D02*
X0118538Y0092903D01*
X0115756Y0095685D01*
X0116590Y0096519D01*
X0119372Y0093737D01*
G37*
G36*
X0120764Y0095129D02*
X0119930Y0094295D01*
X0117148Y0097077D01*
X0117982Y0097911D01*
X0120764Y0095129D01*
G37*
G36*
X0122156Y0096520D02*
X0121322Y0095686D01*
X0118540Y0098468D01*
X0119374Y0099302D01*
X0122156Y0096520D01*
G37*
G36*
X0123548Y0097912D02*
X0122714Y0097078D01*
X0119932Y0099860D01*
X0120766Y0100694D01*
X0123548Y0097912D01*
G37*
G36*
X0124940Y0099304D02*
X0124106Y0098470D01*
X0121324Y0101252D01*
X0122158Y0102086D01*
X0124940Y0099304D01*
G37*
G36*
X0126332Y0100696D02*
X0125498Y0099862D01*
X0122716Y0102644D01*
X0123550Y0103478D01*
X0126332Y0100696D01*
G37*
G36*
X0127724Y0102088D02*
X0126890Y0101254D01*
X0124108Y0104036D01*
X0124942Y0104870D01*
X0127724Y0102088D01*
G37*
G36*
X0129116Y0103480D02*
X0128282Y0102646D01*
X0125500Y0105428D01*
X0126334Y0106262D01*
X0129116Y0103480D01*
G37*
G36*
X0130508Y0104872D02*
X0129674Y0104038D01*
X0126892Y0106820D01*
X0127726Y0107654D01*
X0130508Y0104872D01*
G37*
G36*
X0131900Y0106264D02*
X0131066Y0105430D01*
X0128284Y0108212D01*
X0129118Y0109046D01*
X0131900Y0106264D01*
G37*
G36*
X0133292Y0107656D02*
X0132458Y0106822D01*
X0129676Y0109604D01*
X0130510Y0110438D01*
X0133292Y0107656D01*
G37*
G36*
X0134683Y0109048D02*
X0133849Y0108214D01*
X0131067Y0110996D01*
X0131901Y0111830D01*
X0134683Y0109048D01*
G37*
G36*
X0136075Y0110440D02*
X0135241Y0109606D01*
X0132459Y0112388D01*
X0133293Y0113222D01*
X0136075Y0110440D01*
G37*
G36*
X0137467Y0111832D02*
X0136633Y0110998D01*
X0133851Y0113780D01*
X0134685Y0114614D01*
X0137467Y0111832D01*
G37*
G36*
X0138859Y0113224D02*
X0138025Y0112390D01*
X0135243Y0115172D01*
X0136077Y0116006D01*
X0138859Y0113224D01*
G37*
G36*
X0140251Y0114616D02*
X0139417Y0113782D01*
X0136635Y0116564D01*
X0137469Y0117398D01*
X0140251Y0114616D01*
G37*
G36*
X0141643Y0116008D02*
X0140809Y0115174D01*
X0138027Y0117956D01*
X0138861Y0118790D01*
X0141643Y0116008D01*
G37*
G36*
X0143035Y0117400D02*
X0142201Y0116566D01*
X0139419Y0119348D01*
X0140253Y0120182D01*
X0143035Y0117400D01*
G37*
D21*
G36*
X0106985Y0125333D02*
X0088333Y0106681D01*
X0069681Y0125333D01*
X0088333Y0143985D01*
X0106985Y0125333D01*
G37*
D22*
X0122333Y0291833D03*
D23*
X0041033Y0066833D03*
X0041033Y0061833D03*
X0041033Y0056833D03*
X0041033Y0051833D03*
X0015633Y0051833D03*
X0015633Y0056833D03*
X0015633Y0061833D03*
X0015633Y0066833D03*
D24*
X0123806Y0059377D03*
X0123806Y0052290D03*
X0132861Y0052290D03*
X0132861Y0059377D03*
D25*
X0131452Y0043573D03*
X0131452Y0039833D03*
X0131452Y0036093D03*
X0121215Y0036093D03*
X0121215Y0043573D03*
X0216215Y0305093D03*
X0216215Y0312573D03*
X0210452Y0322093D03*
X0210452Y0325833D03*
X0210452Y0329573D03*
X0200215Y0329573D03*
X0200215Y0322093D03*
X0226452Y0312573D03*
X0226452Y0308833D03*
X0226452Y0305093D03*
D26*
X0197073Y0186952D03*
X0193333Y0186952D03*
X0189593Y0186952D03*
X0189593Y0176715D03*
X0197073Y0176715D03*
D27*
X0206538Y0105471D03*
X0206538Y0103503D03*
X0206538Y0101534D03*
X0206538Y0099566D03*
X0206538Y0097597D03*
X0206538Y0095629D03*
X0206538Y0093660D03*
X0206538Y0091692D03*
X0206538Y0089723D03*
X0206538Y0087755D03*
X0206538Y0085786D03*
X0206538Y0083818D03*
X0206538Y0081849D03*
X0206538Y0079881D03*
X0206538Y0077912D03*
X0206538Y0075944D03*
X0206538Y0073975D03*
X0206538Y0072007D03*
X0206538Y0070038D03*
X0206538Y0068070D03*
X0206538Y0066101D03*
X0206538Y0064133D03*
X0206538Y0062164D03*
X0206538Y0060196D03*
D28*
X0218349Y0052558D03*
X0218349Y0113109D03*
D29*
X0152050Y0359743D03*
X0150081Y0359743D03*
X0148113Y0359743D03*
X0146144Y0359743D03*
X0144176Y0359743D03*
X0142207Y0359743D03*
X0140239Y0359743D03*
X0138270Y0359743D03*
X0136302Y0359743D03*
X0134333Y0359743D03*
X0132365Y0359743D03*
X0130396Y0359743D03*
X0128428Y0359743D03*
X0126459Y0359743D03*
X0124491Y0359743D03*
X0122522Y0359743D03*
X0120554Y0359743D03*
X0118585Y0359743D03*
X0116617Y0359743D03*
D30*
X0263333Y0100333D03*
X0263333Y0095333D03*
X0263333Y0090333D03*
X0263333Y0085333D03*
X0263333Y0080333D03*
X0263333Y0075333D03*
X0263333Y0070333D03*
X0263333Y0065333D03*
X0263333Y0060333D03*
X0263333Y0055333D03*
X0263333Y0050333D03*
X0263333Y0045333D03*
X0263333Y0040333D03*
X0263333Y0035333D03*
D31*
X0158058Y0158184D03*
X0154908Y0158184D03*
X0151759Y0158184D03*
X0148609Y0158184D03*
X0148609Y0164483D03*
X0151759Y0164483D03*
X0154908Y0164483D03*
X0158058Y0164483D03*
X0065558Y0053983D03*
X0062408Y0053983D03*
X0059259Y0053983D03*
X0056109Y0053983D03*
X0056109Y0047684D03*
X0059259Y0047684D03*
X0062408Y0047684D03*
X0065558Y0047684D03*
X0079609Y0312684D03*
X0082759Y0312684D03*
X0085908Y0312684D03*
X0089058Y0312684D03*
X0089058Y0318983D03*
X0085908Y0318983D03*
X0082759Y0318983D03*
X0079609Y0318983D03*
D32*
X0121333Y0338833D03*
X0133333Y0338833D03*
D33*
X0131365Y0337111D03*
X0129396Y0337111D03*
X0129396Y0340556D03*
X0131365Y0340556D03*
X0135302Y0340556D03*
X0137270Y0340556D03*
X0137270Y0337111D03*
X0135302Y0337111D03*
X0125270Y0337111D03*
X0123302Y0337111D03*
X0123302Y0340556D03*
X0125270Y0340556D03*
X0119365Y0340556D03*
X0117396Y0340556D03*
X0117396Y0337111D03*
X0119365Y0337111D03*
D34*
X0068333Y0035833D03*
X0063333Y0035833D03*
X0058333Y0035833D03*
X0053333Y0035833D03*
D35*
X0011503Y0093093D03*
X0011503Y0100573D03*
X0020164Y0096833D03*
X0166664Y0339093D03*
X0166664Y0346573D03*
X0158003Y0342833D03*
M02*
