M48
;GenerationSoftware,Autodesk,EAGLE,9.6.2*%
;CreationDate,2022-04-17T11:55:35Z*%
FMAT,2
ICI,OFF
METRIC,TZ,000.000
T2C0.300
T1C0.350
%
G90
M71
T1
X4550Y3100
X1950Y10300
X1950Y11050
X1950Y7200
X1950Y3950
X1950Y-1250
X1950Y-1950
X1950Y6500
X1950Y3250
X1950Y650
X10050Y13450
X13800Y800
T2
X650Y3250
X650Y650
X650Y-1950
X0Y-1950
X0Y11050
X650Y11050
X0Y6500
X0Y3250
X0Y650
X650Y1950
X650Y2600
X650Y4550
X650Y5200
X650Y5850
X650Y8450
X650Y7800
X650Y9100
X0Y0
X0Y1950
X0Y2600
X0Y4550
X0Y5200
X0Y5850
X650Y0
X0Y7800
X0Y9100
X650Y-650
X0Y-650
X0Y8450
X0Y-3250
X0Y-2600
X650Y-2600
X650Y6500
X650Y-3250
M30