G04 EAGLE Gerber X2 export*
%TF.Part,Single*%
%TF.FileFunction,Other,top copper*%
%TF.FilePolarity,Positive*%
%TF.GenerationSoftware,Autodesk,EAGLE,9.6.2*%
%TF.CreationDate,2022-04-17T11:55:35Z*%
G75*
%MOMM*%
%FSLAX34Y34*%
%LPD*%
%INtop copper*%
%AMOC8*
5,1,8,0,0,1.08239X$1,22.5*%
G01*
%ADD10C,0.000000*%
%ADD11R,0.900000X0.500000*%
%ADD12R,1.270000X1.524000*%
%ADD13R,1.350000X0.450000*%
%ADD14R,0.500000X0.900000*%
%ADD15R,1.300000X0.300000*%
%ADD16R,3.800000X2.500000*%
%ADD17R,1.270000X2.540000*%
%ADD18R,2.540000X1.270000*%
%ADD19C,0.450000*%
%ADD20C,0.254000*%
%ADD21C,0.406400*%
%ADD22C,0.600000*%
%ADD23C,0.455000*%
%ADD24C,0.304800*%
%ADD25C,0.609600*%
%ADD26C,0.508000*%


D10*
X0Y-36000D02*
X3000Y-39000D01*
X32500Y-39000D01*
X39000Y-45500D01*
X39000Y-78000D01*
X45500Y-84500D01*
X175500Y-84500D01*
X182000Y-78000D01*
X182000Y159500D01*
X1000Y114500D02*
X0Y113500D01*
X0Y107500D01*
X0Y94000D02*
X0Y75000D01*
X1000Y74000D01*
X4000Y74000D01*
X5000Y73000D01*
X5000Y70000D02*
X4000Y69000D01*
X1000Y69000D01*
X0Y68000D01*
X5000Y70000D02*
X5000Y73000D01*
X0Y68000D02*
X0Y42500D01*
X1000Y41500D01*
X4000Y41500D01*
X5000Y40500D01*
X5000Y37500D02*
X4000Y36500D01*
X1000Y36500D01*
X0Y35500D01*
X5000Y37500D02*
X5000Y40500D01*
X0Y42000D02*
X0Y35500D01*
X0Y16500D02*
X1000Y15500D01*
X4000Y15500D01*
X5000Y14500D01*
X5000Y11500D02*
X4000Y10500D01*
X1000Y10500D01*
X0Y9500D01*
X5000Y11500D02*
X5000Y14500D01*
X0Y-16500D02*
X0Y-36000D01*
X0Y-9500D02*
X0Y9500D01*
X0Y16500D02*
X0Y35500D01*
X0Y-9500D02*
X1000Y-10500D01*
X4000Y-10500D02*
X5000Y-11500D01*
X4000Y-10500D02*
X1000Y-10500D01*
X5000Y-11500D02*
X5000Y-14500D01*
X4000Y-15500D01*
X1000Y-15500D01*
X0Y-16500D01*
X1000Y106500D02*
X0Y107500D01*
X1000Y106500D02*
X4000Y106500D01*
X5000Y105500D01*
X5000Y96000D01*
X4000Y95000D01*
X1000Y95000D01*
X0Y94000D01*
X1000Y114500D02*
X5000Y114500D01*
X7500Y117000D01*
X7500Y144000D01*
X29500Y166000D01*
X175500Y166000D01*
X182000Y159500D01*
D11*
X57000Y106000D03*
X57000Y98000D03*
X57000Y90000D03*
X57000Y82000D03*
X73000Y82000D03*
X73000Y90000D03*
X73000Y98000D03*
X73000Y106000D03*
X57000Y64000D03*
X57000Y56000D03*
X57000Y48000D03*
X57000Y40000D03*
X73000Y40000D03*
X73000Y48000D03*
X73000Y56000D03*
X73000Y64000D03*
X57000Y22000D03*
X57000Y14000D03*
X57000Y6000D03*
X57000Y-2000D03*
X73000Y-2000D03*
X73000Y6000D03*
X73000Y14000D03*
X73000Y22000D03*
D12*
X57000Y-70500D03*
X102000Y-70500D03*
D13*
X6500Y0D03*
X6500Y6500D03*
X6500Y19500D03*
X6500Y26000D03*
X6500Y32500D03*
X6500Y45500D03*
X6500Y52000D03*
X6500Y58500D03*
X6500Y65000D03*
X6500Y78000D03*
X6500Y84500D03*
X6500Y91000D03*
X6500Y-6500D03*
X6500Y-19500D03*
X6500Y-26000D03*
X6500Y-32500D03*
D14*
G36*
X96996Y-30399D02*
X100531Y-33934D01*
X94168Y-40297D01*
X90633Y-36762D01*
X96996Y-30399D01*
G37*
G36*
X91339Y-24743D02*
X94874Y-28278D01*
X88511Y-34641D01*
X84976Y-31106D01*
X91339Y-24743D01*
G37*
G36*
X85682Y-19086D02*
X89217Y-22621D01*
X82854Y-28984D01*
X79319Y-25449D01*
X85682Y-19086D01*
G37*
G36*
X80026Y-13429D02*
X83561Y-16964D01*
X77198Y-23327D01*
X73663Y-19792D01*
X80026Y-13429D01*
G37*
G36*
X68712Y-24743D02*
X72247Y-28278D01*
X65884Y-34641D01*
X62349Y-31106D01*
X68712Y-24743D01*
G37*
G36*
X74369Y-30399D02*
X77904Y-33934D01*
X71541Y-40297D01*
X68006Y-36762D01*
X74369Y-30399D01*
G37*
G36*
X80026Y-36056D02*
X83561Y-39591D01*
X77198Y-45954D01*
X73663Y-42419D01*
X80026Y-36056D01*
G37*
G36*
X85682Y-41713D02*
X89217Y-45248D01*
X82854Y-51611D01*
X79319Y-48076D01*
X85682Y-41713D01*
G37*
D13*
X6500Y110500D03*
D15*
X128000Y-27000D03*
X128000Y-22000D03*
X128000Y-17000D03*
X128000Y-12000D03*
X128000Y-7000D03*
X128000Y-2000D03*
X128000Y3000D03*
X128000Y8000D03*
X128000Y13000D03*
X128000Y18000D03*
X128000Y23000D03*
X128000Y28000D03*
X128000Y33000D03*
X128000Y38000D03*
X128000Y43000D03*
X128000Y48000D03*
X128000Y53000D03*
X128000Y58000D03*
X128000Y63000D03*
X128000Y68000D03*
X128000Y73000D03*
X128000Y78000D03*
X128000Y83000D03*
X128000Y88000D03*
X128000Y93000D03*
X128000Y98000D03*
X128000Y103000D03*
X128000Y108000D03*
X128000Y113000D03*
X128000Y118000D03*
D16*
X145300Y-49180D03*
X145300Y140180D03*
D17*
X40500Y148000D03*
X71000Y148000D03*
D18*
X156500Y-71500D03*
D17*
X100500Y148000D03*
D19*
X6500Y0D03*
D20*
X26000Y0D01*
X45500Y6000D01*
X57000Y6000D01*
D19*
X6500Y65000D03*
X6500Y32500D03*
X6500Y6500D03*
X6500Y-19500D03*
X0Y-19500D03*
D21*
X6500Y65000D02*
X15000Y65000D01*
X19500Y65000D01*
X14500Y-19500D02*
X6500Y-19500D01*
D22*
X19500Y-19500D03*
D21*
X14500Y-19500D01*
D22*
X19500Y65000D03*
X19500Y32500D03*
D23*
X19500Y6500D03*
D21*
X19500Y32500D02*
X14500Y32500D01*
D19*
X0Y110500D03*
X6500Y110500D03*
D22*
X19500Y110500D03*
D21*
X14500Y32500D02*
X6500Y32500D01*
X6500Y110500D02*
X15000Y110500D01*
X19500Y110500D01*
X19500Y6500D02*
X6500Y6500D01*
D20*
X6500Y-19500D02*
X0Y-19500D01*
D19*
X0Y65000D03*
X0Y32500D03*
X0Y6500D03*
D20*
X3270Y6500D02*
X6500Y6500D01*
D24*
X73000Y14000D02*
X84500Y14000D01*
X57000Y14000D02*
X45500Y14000D01*
X26000Y6500D01*
X19500Y6500D01*
X24037Y109715D02*
X19500Y110500D01*
X24037Y109715D02*
X45500Y106000D01*
X57000Y106000D01*
X73000Y106000D01*
X78000Y106000D01*
D22*
X45500Y31000D03*
D24*
X69177Y31000D01*
X24000Y-19500D02*
X19500Y-19500D01*
X24000Y-19500D02*
X63000Y-19500D01*
X65718Y-19718D01*
X70758Y-22218D01*
X92742Y-44202D01*
X96242Y-45242D01*
X73000Y14000D02*
X57000Y14000D01*
D20*
X6500Y110500D02*
X3270Y110500D01*
D24*
X96242Y-45242D02*
X96850Y-45431D01*
X97453Y-45634D01*
X98050Y-45852D01*
X98642Y-46084D01*
X99229Y-46331D01*
X99809Y-46592D01*
X100382Y-46866D01*
X100949Y-47155D01*
X101509Y-47457D01*
X102061Y-47773D01*
X102605Y-48102D01*
X103141Y-48445D01*
X103669Y-48800D01*
X104187Y-49168D01*
X104697Y-49548D01*
X105197Y-49941D01*
X105688Y-50346D01*
X106169Y-50763D01*
X106639Y-51191D01*
X107099Y-51630D01*
X107548Y-52081D01*
X107986Y-52542D01*
X108412Y-53014D01*
X108827Y-53496D01*
X109230Y-53988D01*
X109621Y-54489D01*
X110000Y-55000D01*
X109999Y-55000D02*
X110588Y-55795D01*
X111197Y-56576D01*
X111823Y-57341D01*
X112468Y-58091D01*
X113131Y-58826D01*
X113811Y-59544D01*
X114509Y-60245D01*
X115223Y-60930D01*
X115954Y-61597D01*
X116700Y-62246D01*
X117462Y-62877D01*
X118239Y-63489D01*
X119030Y-64083D01*
X119836Y-64657D01*
X120655Y-65212D01*
X121487Y-65747D01*
X122332Y-66261D01*
X123189Y-66755D01*
X124058Y-67229D01*
X124938Y-67681D01*
X125828Y-68111D01*
X126729Y-68521D01*
X127639Y-68908D01*
X128559Y-69273D01*
X129487Y-69616D01*
X129487Y-69615D02*
X130615Y-70002D01*
X131751Y-70361D01*
X132896Y-70694D01*
X134048Y-70999D01*
X135207Y-71277D01*
X136372Y-71528D01*
X137543Y-71751D01*
X138719Y-71946D01*
X139899Y-72113D01*
X141083Y-72252D01*
X142270Y-72363D01*
X143459Y-72446D01*
X144650Y-72501D01*
X145841Y-72527D01*
X147033Y-72526D01*
X148225Y-72496D01*
X149415Y-72438D01*
X150604Y-72351D01*
X151791Y-72237D01*
X152974Y-72095D01*
X154154Y-71924D01*
X155329Y-71726D01*
X156499Y-71500D01*
X156500Y-71500D02*
X168500Y-71500D01*
X168660Y-71498D01*
X168819Y-71492D01*
X168978Y-71482D01*
X169137Y-71469D01*
X169296Y-71451D01*
X169454Y-71430D01*
X169611Y-71404D01*
X169768Y-71375D01*
X169924Y-71342D01*
X170079Y-71305D01*
X170234Y-71265D01*
X170387Y-71220D01*
X170539Y-71172D01*
X170690Y-71120D01*
X170839Y-71064D01*
X170987Y-71005D01*
X171134Y-70942D01*
X171279Y-70876D01*
X171422Y-70806D01*
X171564Y-70732D01*
X171704Y-70656D01*
X171842Y-70575D01*
X171977Y-70492D01*
X172111Y-70405D01*
X172243Y-70314D01*
X172372Y-70221D01*
X172499Y-70124D01*
X172624Y-70025D01*
X172746Y-69922D01*
X172865Y-69816D01*
X172982Y-69708D01*
X173096Y-69596D01*
X173208Y-69482D01*
X173316Y-69365D01*
X173422Y-69246D01*
X173525Y-69124D01*
X173624Y-68999D01*
X173721Y-68872D01*
X173814Y-68743D01*
X173905Y-68611D01*
X173992Y-68477D01*
X174075Y-68342D01*
X174156Y-68204D01*
X174232Y-68064D01*
X174306Y-67922D01*
X174376Y-67779D01*
X174442Y-67634D01*
X174505Y-67487D01*
X174564Y-67339D01*
X174620Y-67190D01*
X174672Y-67039D01*
X174720Y-66887D01*
X174765Y-66734D01*
X174805Y-66579D01*
X174842Y-66424D01*
X174875Y-66268D01*
X174904Y-66111D01*
X174930Y-65954D01*
X174951Y-65796D01*
X174969Y-65637D01*
X174982Y-65478D01*
X174992Y-65319D01*
X174998Y-65160D01*
X175000Y-65000D01*
X175000Y-35000D01*
X174997Y-34758D01*
X174988Y-34517D01*
X174974Y-34276D01*
X174953Y-34035D01*
X174927Y-33795D01*
X174895Y-33555D01*
X174857Y-33316D01*
X174814Y-33079D01*
X174764Y-32842D01*
X174709Y-32607D01*
X174649Y-32373D01*
X174582Y-32141D01*
X174511Y-31910D01*
X174433Y-31681D01*
X174350Y-31454D01*
X174262Y-31229D01*
X174168Y-31006D01*
X174069Y-30786D01*
X173964Y-30568D01*
X173855Y-30353D01*
X173740Y-30140D01*
X173620Y-29930D01*
X173495Y-29724D01*
X173365Y-29520D01*
X173230Y-29319D01*
X173090Y-29122D01*
X172946Y-28928D01*
X172797Y-28738D01*
X172643Y-28552D01*
X172485Y-28369D01*
X172323Y-28190D01*
X172156Y-28015D01*
X171985Y-27844D01*
X171810Y-27677D01*
X171631Y-27515D01*
X171448Y-27357D01*
X171262Y-27203D01*
X171072Y-27054D01*
X170878Y-26910D01*
X170681Y-26770D01*
X170480Y-26635D01*
X170276Y-26505D01*
X170070Y-26380D01*
X169860Y-26260D01*
X169647Y-26145D01*
X169432Y-26036D01*
X169214Y-25931D01*
X168994Y-25832D01*
X168771Y-25738D01*
X168546Y-25650D01*
X168319Y-25567D01*
X168090Y-25489D01*
X167859Y-25418D01*
X167627Y-25351D01*
X167393Y-25291D01*
X167158Y-25236D01*
X166921Y-25186D01*
X166684Y-25143D01*
X166445Y-25105D01*
X166205Y-25073D01*
X165965Y-25047D01*
X165724Y-25026D01*
X165483Y-25012D01*
X165242Y-25003D01*
X165000Y-25000D01*
X154500Y-25000D01*
X154270Y-24997D01*
X154041Y-24989D01*
X153812Y-24975D01*
X153583Y-24956D01*
X153355Y-24931D01*
X153127Y-24900D01*
X152901Y-24864D01*
X152675Y-24823D01*
X152450Y-24776D01*
X152227Y-24724D01*
X152004Y-24666D01*
X151784Y-24603D01*
X151564Y-24535D01*
X151347Y-24461D01*
X151131Y-24383D01*
X150918Y-24299D01*
X150706Y-24210D01*
X150497Y-24115D01*
X150290Y-24016D01*
X150085Y-23912D01*
X149883Y-23803D01*
X149684Y-23689D01*
X149487Y-23570D01*
X149294Y-23446D01*
X149103Y-23318D01*
X148916Y-23186D01*
X148732Y-23048D01*
X148551Y-22907D01*
X148374Y-22761D01*
X148200Y-22611D01*
X148030Y-22457D01*
X147864Y-22298D01*
X147702Y-22136D01*
X147543Y-21970D01*
X147389Y-21800D01*
X147239Y-21626D01*
X147093Y-21449D01*
X146952Y-21268D01*
X146814Y-21084D01*
X146682Y-20897D01*
X146554Y-20706D01*
X146430Y-20513D01*
X146311Y-20316D01*
X146197Y-20117D01*
X146088Y-19915D01*
X145984Y-19710D01*
X145885Y-19503D01*
X145790Y-19294D01*
X145701Y-19082D01*
X145617Y-18869D01*
X145539Y-18653D01*
X145465Y-18436D01*
X145397Y-18216D01*
X145334Y-17996D01*
X145276Y-17773D01*
X145224Y-17550D01*
X145177Y-17325D01*
X145136Y-17099D01*
X145100Y-16873D01*
X145069Y-16645D01*
X145044Y-16417D01*
X145025Y-16188D01*
X145011Y-15959D01*
X145003Y-15730D01*
X145000Y-15500D01*
X145000Y-13000D01*
X145000Y-11000D01*
X145000Y-7000D01*
X145000Y-3000D01*
X145000Y13500D01*
X145000Y18000D01*
X145000Y22500D01*
X145000Y24000D01*
X145000Y28000D01*
X145000Y32000D01*
X145000Y64500D01*
X145000Y68000D01*
X145000Y70000D01*
X145000Y73000D01*
X145000Y76500D01*
X145000Y91136D01*
X144996Y91502D01*
X144983Y91867D01*
X144961Y92232D01*
X144930Y92596D01*
X144891Y92960D01*
X144844Y93323D01*
X144787Y93684D01*
X144722Y94044D01*
X144649Y94402D01*
X144567Y94758D01*
X144476Y95112D01*
X144378Y95465D01*
X144270Y95814D01*
X144155Y96161D01*
X144031Y96505D01*
X143899Y96846D01*
X143760Y97184D01*
X143612Y97518D01*
X143456Y97849D01*
X143292Y98176D01*
X143121Y98499D01*
X142942Y98818D01*
X142755Y99132D01*
X142561Y99442D01*
X142360Y99748D01*
X142151Y100048D01*
X141936Y100343D01*
X141713Y100633D01*
X141483Y100918D01*
X141247Y101197D01*
X141005Y101471D01*
X140755Y101738D01*
X140500Y102000D01*
X140420Y102078D01*
X140337Y102153D01*
X140252Y102225D01*
X140164Y102295D01*
X140075Y102361D01*
X139983Y102425D01*
X139889Y102485D01*
X139793Y102543D01*
X139695Y102597D01*
X139596Y102648D01*
X139495Y102696D01*
X139392Y102740D01*
X139289Y102781D01*
X139183Y102819D01*
X139077Y102853D01*
X138970Y102884D01*
X138861Y102911D01*
X138752Y102934D01*
X138642Y102954D01*
X138532Y102971D01*
X138421Y102984D01*
X138309Y102993D01*
X138198Y102998D01*
X138086Y103000D01*
X128000Y103000D01*
X128000Y18000D02*
X109500Y18000D01*
X97500Y17000D01*
X90500Y15000D01*
X84500Y14000D01*
X100500Y28000D02*
X128000Y28000D01*
X86506Y29000D02*
X69177Y31000D01*
X86506Y29000D02*
X100500Y28000D01*
X89000Y104000D02*
X78000Y106000D01*
X89000Y104000D02*
X101000Y98000D01*
X107000Y89500D01*
X110500Y78500D01*
X113155Y74880D01*
X114697Y72777D01*
X116000Y71000D01*
D20*
X121000Y68000D02*
X128000Y68000D01*
X121000Y68000D02*
X116000Y71000D01*
X120036Y72867D02*
X128000Y73000D01*
X120036Y72867D02*
X114697Y72777D01*
X113155Y74880D02*
X120036Y72867D01*
X128000Y-17000D02*
X141000Y-17000D01*
X143500Y-17000D01*
X145000Y-15500D01*
X141000Y-7000D02*
X128000Y-7000D01*
X141000Y-7000D02*
X145000Y-7000D01*
X140500Y18000D02*
X128000Y18000D01*
X140500Y18000D02*
X145000Y18000D01*
X141000Y28000D02*
X128000Y28000D01*
X128000Y68000D02*
X141500Y68000D01*
X145000Y68000D01*
X141000Y73000D02*
X128000Y73000D01*
X141000Y73000D02*
X145000Y73000D01*
X138136Y98000D02*
X128000Y98000D01*
X138136Y98000D02*
X145000Y91136D01*
X141500Y73000D02*
X141250Y72750D01*
X141500Y73000D02*
X145000Y76500D01*
X141250Y72750D02*
X141000Y73000D01*
X141500Y73000D02*
X143000Y71500D01*
X143000Y72000D02*
X144250Y70750D01*
X145000Y70000D01*
X144250Y70750D02*
X143000Y69500D01*
X141500Y68000D01*
X143000Y69500D02*
X143000Y71500D01*
X143000Y72000D01*
X141500Y68000D02*
X145000Y64500D01*
X145000Y28000D02*
X141000Y28000D01*
X145000Y32000D01*
X141000Y28000D02*
X145000Y24000D01*
X145000Y22500D02*
X140500Y18000D01*
X145000Y13500D01*
X145000Y-3000D02*
X141000Y-7000D01*
X145000Y-11000D01*
X145000Y-13000D02*
X141000Y-17000D01*
X146500Y-20500D01*
X148000Y-68500D02*
X141000Y-72000D01*
X146500Y-76000D01*
X165000Y-68000D02*
X172500Y-70500D01*
X166500Y-76000D01*
D22*
X19500Y103000D03*
X19500Y72000D03*
X19500Y39500D03*
X19500Y-12500D03*
D25*
X19500Y-19500D01*
X19500Y32500D02*
X19500Y39500D01*
X19500Y65000D02*
X19500Y72000D01*
X19500Y103000D02*
X19500Y110500D01*
D24*
X19500Y105178D02*
X19500Y103000D01*
X19500Y105178D02*
X24037Y109715D01*
X19500Y106000D02*
X19500Y103000D01*
X19500Y106000D02*
X15000Y110500D01*
X19500Y69500D02*
X15000Y65000D01*
X19500Y69500D02*
X19500Y72000D01*
X19500Y39500D02*
X19500Y37500D01*
X14500Y32500D01*
X19500Y-12500D02*
X19500Y-14500D01*
X14500Y-19500D01*
X19500Y-15000D02*
X19500Y-12500D01*
X19500Y-15000D02*
X24000Y-19500D01*
D19*
X6500Y19500D03*
D20*
X26000Y19500D01*
X45500Y22000D01*
X57000Y22000D01*
D19*
X6500Y26000D03*
D20*
X24500Y26000D01*
X34000Y30000D01*
X40500Y37500D01*
X49000Y40000D01*
X57000Y40000D01*
D19*
X6500Y45500D03*
D20*
X26000Y45500D01*
X45500Y48000D01*
X57000Y48000D01*
D19*
X6500Y52000D03*
D20*
X26000Y52000D01*
X45500Y56000D01*
X57000Y56000D01*
D19*
X6500Y58500D03*
D20*
X26000Y58500D01*
X45500Y64000D01*
X57000Y64000D01*
D19*
X6500Y84500D03*
D20*
X26000Y84500D01*
X45500Y90000D01*
X57000Y90000D01*
D19*
X6500Y78000D03*
D20*
X26000Y78000D01*
X45500Y82000D01*
X57000Y82000D01*
D19*
X6500Y91000D03*
D20*
X26000Y91000D01*
X45500Y98000D01*
X57000Y98000D01*
X57000Y-58500D02*
X57000Y-70500D01*
X52000Y-66500D02*
X57000Y-58500D01*
X62000Y-66500D01*
X57000Y-58500D02*
X59000Y-55000D01*
X71000Y-48500D01*
X78612Y-41005D01*
X118500Y78000D02*
X117220Y78960D01*
X119500Y78000D02*
X128000Y78000D01*
X119500Y78000D02*
X118500Y78000D01*
X117220Y78960D02*
X116500Y79500D01*
X117220Y78960D02*
X118708Y82262D01*
X116654Y83000D02*
X116500Y84000D01*
X120000Y83000D02*
X128000Y83000D01*
X120000Y83000D02*
X116654Y83000D01*
X118708Y82262D02*
X120000Y83000D01*
X116500Y81000D02*
X116500Y79500D01*
X116500Y81000D02*
X118708Y82262D01*
X116500Y81000D02*
X119500Y78000D01*
X120449Y88036D02*
X128000Y88000D01*
X120449Y88036D02*
X119991Y88038D01*
X116500Y84500D02*
X116500Y81000D01*
X116500Y84500D02*
X120000Y83000D01*
X116500Y84500D02*
X119991Y88038D01*
D25*
X115788Y88058D02*
X116500Y84500D01*
D20*
X115788Y88058D02*
X119991Y88038D01*
X120449Y88036D02*
X115000Y90000D01*
X119991Y93035D02*
X128000Y93000D01*
X119991Y93035D02*
X115000Y90000D01*
D25*
X115788Y88058D02*
X114788Y93058D01*
D20*
X119991Y93035D01*
D25*
X114788Y93058D02*
X114000Y97000D01*
D20*
X119991Y93035D01*
D25*
X114000Y97000D02*
X108500Y105500D01*
X95000Y114000D01*
X83826Y116579D01*
X75500Y118500D01*
X65848Y119434D01*
X60000Y120000D01*
X55500Y121500D01*
X49500Y123500D01*
X45000Y125000D01*
X40000Y130000D01*
X40000Y135000D01*
X40500Y148000D01*
X50000Y145000D01*
X55000Y140000D01*
X57000Y133500D01*
X59500Y127500D01*
X65848Y119434D01*
X57808Y124962D02*
X55500Y121500D01*
X57808Y124962D02*
X59500Y127500D01*
X57324Y130078D02*
X57000Y133500D01*
X57324Y130078D02*
X57808Y124962D01*
X49500Y123500D01*
X57324Y130078D01*
X57808Y124962D02*
X45000Y125000D01*
D20*
X102000Y-58500D02*
X102000Y-70500D01*
X107000Y-67000D02*
X102000Y-58500D01*
X97000Y-67000D01*
X89500Y-52000D02*
X84268Y-46662D01*
X89500Y-52000D02*
X93500Y-52000D01*
X99000Y-54500D01*
X102000Y-58500D01*
X89500Y-52000D02*
X82500Y-49000D01*
X86500Y-45000D02*
X89500Y-52000D01*
X95582Y-35348D02*
X95611Y-35348D01*
X114452Y-27000D02*
X128000Y-27000D01*
X114452Y-27000D02*
X113848Y-27007D01*
X113243Y-27029D01*
X112640Y-27065D01*
X112038Y-27115D01*
X111437Y-27180D01*
X110837Y-27259D01*
X110240Y-27352D01*
X109645Y-27459D01*
X109053Y-27580D01*
X108464Y-27716D01*
X107878Y-27865D01*
X107296Y-28029D01*
X106718Y-28206D01*
X106144Y-28397D01*
X105576Y-28601D01*
X105012Y-28819D01*
X104453Y-29051D01*
X103900Y-29295D01*
X103354Y-29553D01*
X102813Y-29824D01*
X102279Y-30107D01*
X101752Y-30403D01*
X101232Y-30711D01*
X100720Y-31032D01*
X100215Y-31365D01*
X99719Y-31710D01*
X99230Y-32066D01*
X98751Y-32434D01*
X98280Y-32814D01*
X97819Y-33204D01*
X97366Y-33605D01*
X96924Y-34017D01*
X96491Y-34439D01*
X96491Y-34440D02*
X95582Y-35348D01*
D19*
X0Y0D03*
X0Y19500D03*
X0Y26000D03*
X0Y45500D03*
X0Y52000D03*
X0Y58500D03*
X0Y84500D03*
X0Y78000D03*
X0Y91000D03*
X6500Y-6500D03*
X0Y-6500D03*
X6500Y-32500D03*
X0Y-32500D03*
X0Y-26000D03*
X6500Y-26000D03*
D20*
X32500Y-32500D02*
X39500Y-35000D01*
X47500Y-41500D01*
X60500Y-43000D01*
X67500Y-41000D01*
X72955Y-35348D01*
X32500Y-32500D02*
X6500Y-32500D01*
X6500Y-26000D02*
X32500Y-26000D01*
X43000Y-29000D01*
X50500Y-34000D01*
X57000Y-35000D01*
X63000Y-34000D01*
X67298Y-29692D01*
X26000Y-6500D02*
X6500Y-6500D01*
X26000Y-6500D02*
X45500Y-2000D01*
X57000Y-2000D01*
X73000Y98000D02*
X79500Y98000D01*
X118500Y63000D02*
X128000Y63000D01*
X118500Y63000D02*
X112500Y64500D01*
X108000Y68500D01*
X100000Y84500D02*
X95000Y92500D01*
X88500Y96500D01*
X79500Y98000D01*
X100000Y84500D02*
X108000Y68500D01*
X80000Y90000D02*
X73000Y90000D01*
X80000Y90000D02*
X87500Y89000D01*
X92000Y85000D01*
X96000Y78000D01*
X97500Y74000D01*
X103500Y64000D01*
X107500Y60500D01*
X113000Y58500D01*
X116500Y58000D01*
X128000Y58000D01*
X128000Y53000D02*
X117000Y53000D01*
X112000Y53500D01*
X106000Y55000D01*
X100500Y58000D01*
X96000Y62500D01*
X92500Y68500D01*
X91000Y74000D01*
X89000Y79000D01*
X87000Y81000D01*
X84500Y82000D01*
X73000Y82000D01*
X73000Y64000D02*
X79500Y64000D01*
X120000Y48000D02*
X128000Y48000D01*
X120000Y48000D02*
X119000Y48000D01*
X120000Y48000D02*
X110424Y48399D01*
X102140Y50371D01*
X89846Y59769D02*
X85000Y63000D01*
X79500Y64000D01*
X89846Y59769D02*
X102140Y50371D01*
X79500Y56000D02*
X73000Y56000D01*
X117500Y43000D02*
X128000Y43000D01*
X117500Y43000D02*
X106500Y43500D01*
X100500Y45500D01*
X95000Y48500D01*
X91000Y51500D01*
X87000Y54000D01*
X79500Y56000D01*
X79500Y48000D02*
X73000Y48000D01*
X116000Y38000D02*
X128000Y38000D01*
X116000Y38000D02*
X104500Y38500D01*
X95000Y41500D01*
X89500Y44500D01*
X86000Y46500D01*
X79500Y48000D01*
X79500Y40000D02*
X73000Y40000D01*
X115000Y33000D02*
X128000Y33000D01*
X86000Y39000D02*
X79500Y40000D01*
X86000Y39000D02*
X93500Y36000D01*
X104000Y33500D01*
X115000Y33000D01*
X82000Y22000D02*
X73000Y22000D01*
X111500Y23000D02*
X128000Y23000D01*
X111500Y23000D02*
X82000Y22000D01*
X89500Y6000D02*
X73000Y6000D01*
X111000Y13000D02*
X128000Y13000D01*
X111000Y13000D02*
X104000Y11500D01*
X97500Y8500D01*
X89500Y6000D01*
X84172Y-2000D02*
X73000Y-2000D01*
X84172Y-2000D02*
X91000Y-1000D01*
X95500Y1000D01*
X102500Y2500D01*
X111500Y3000D01*
X128000Y3000D01*
X128000Y-2000D02*
X115510Y-2000D01*
X114294Y-2015D01*
X113079Y-2060D01*
X111865Y-2134D01*
X110654Y-2239D01*
X109446Y-2373D01*
X108241Y-2536D01*
X107040Y-2729D01*
X105845Y-2952D01*
X104655Y-3204D01*
X103472Y-3485D01*
X102297Y-3795D01*
X101129Y-4133D01*
X99970Y-4500D01*
X98820Y-4896D01*
X97680Y-5320D01*
X96551Y-5771D01*
X95434Y-6250D01*
X94328Y-6757D01*
X93235Y-7290D01*
X92156Y-7850D01*
X91091Y-8436D01*
X90040Y-9048D01*
X89005Y-9686D01*
X87986Y-10349D01*
X86983Y-11037D01*
X85998Y-11749D01*
X85030Y-12486D01*
X84081Y-13246D01*
X83151Y-14028D01*
X82240Y-14834D01*
X81349Y-15661D01*
X80479Y-16511D01*
X78612Y-18378D01*
X110000Y-12000D02*
X128000Y-12000D01*
X110000Y-12000D02*
X109500Y-12000D01*
X106824Y-12000D01*
X106220Y-12007D01*
X105615Y-12029D01*
X105012Y-12065D01*
X104410Y-12115D01*
X103809Y-12180D01*
X103209Y-12259D01*
X102612Y-12352D01*
X102017Y-12459D01*
X101425Y-12580D01*
X100836Y-12716D01*
X100250Y-12865D01*
X99668Y-13029D01*
X99090Y-13206D01*
X98516Y-13397D01*
X97948Y-13601D01*
X97384Y-13819D01*
X96825Y-14051D01*
X96272Y-14295D01*
X95726Y-14553D01*
X95185Y-14824D01*
X94651Y-15107D01*
X94124Y-15403D01*
X93604Y-15711D01*
X93092Y-16032D01*
X92587Y-16365D01*
X92091Y-16710D01*
X91602Y-17066D01*
X91123Y-17434D01*
X90652Y-17814D01*
X90191Y-18204D01*
X89738Y-18605D01*
X89296Y-19017D01*
X88863Y-19439D01*
X88864Y-19440D02*
X84268Y-24035D01*
X108138Y-22000D02*
X128000Y-22000D01*
X108138Y-22000D02*
X107534Y-22007D01*
X106929Y-22029D01*
X106326Y-22065D01*
X105724Y-22115D01*
X105123Y-22180D01*
X104523Y-22259D01*
X103926Y-22352D01*
X103331Y-22459D01*
X102739Y-22580D01*
X102150Y-22716D01*
X101564Y-22865D01*
X100982Y-23029D01*
X100404Y-23206D01*
X99830Y-23397D01*
X99262Y-23601D01*
X98698Y-23819D01*
X98139Y-24051D01*
X97586Y-24295D01*
X97040Y-24553D01*
X96499Y-24824D01*
X95965Y-25107D01*
X95438Y-25403D01*
X94918Y-25711D01*
X94406Y-26032D01*
X93901Y-26365D01*
X93405Y-26710D01*
X92916Y-27066D01*
X92437Y-27434D01*
X91966Y-27814D01*
X91505Y-28204D01*
X91052Y-28605D01*
X90610Y-29017D01*
X90177Y-29439D01*
X90177Y-29440D02*
X89925Y-29692D01*
X144000Y-30000D02*
X144000Y-58000D01*
X159000Y-58000D02*
X159000Y-30000D01*
X144000Y122000D02*
X144000Y150000D01*
X159000Y150000D02*
X159000Y122000D01*
X169500Y-54000D02*
X117000Y-54000D01*
X117000Y-44000D02*
X169500Y-44000D01*
X172500Y146000D02*
X117000Y146000D01*
X117000Y136000D02*
X172500Y136000D01*
D26*
X77000Y148500D02*
X71500Y148500D01*
X71000Y148000D01*
D20*
X105895Y121450D02*
X109171Y120651D01*
X120500Y118000D02*
X128000Y118000D01*
X128000Y108000D02*
X120000Y108000D01*
X118705Y109295D02*
X114500Y111000D01*
X119891Y118034D02*
X120500Y118000D01*
X119891Y118034D02*
X109171Y120651D01*
X116042Y118248D02*
X119891Y118034D01*
X116042Y118248D02*
X114981Y114950D01*
D24*
X115000Y113000D02*
X118705Y109295D01*
D20*
X118500Y113000D02*
X115000Y113000D01*
X120000Y113000D02*
X128000Y113000D01*
X120000Y113000D02*
X118500Y113000D01*
D24*
X119000Y109000D02*
X120000Y108000D01*
X119000Y109000D02*
X118705Y109295D01*
D20*
X119000Y109000D02*
X118500Y113000D01*
X119000Y109000D02*
X109551Y117060D01*
X120000Y113000D01*
D25*
X115000Y113000D02*
X111500Y118500D01*
D20*
X116042Y118248D01*
D25*
X111500Y118500D02*
X102000Y123500D01*
D20*
X109551Y117060D01*
D25*
X71000Y135500D02*
X71000Y148000D01*
X71000Y135500D02*
X74064Y130138D01*
X80000Y127500D01*
X87000Y127000D01*
X95030Y125126D02*
X102000Y123500D01*
X95030Y125126D02*
X87000Y127000D01*
X86246Y131776D01*
X85500Y136500D01*
X83298Y143655D01*
X77000Y148500D01*
X86246Y131776D02*
X80000Y127500D01*
X86246Y131776D02*
X95030Y125126D01*
D22*
X138000Y8000D03*
D20*
X128000Y8000D01*
D22*
X100500Y134500D03*
D20*
X100500Y148000D01*
M02*
