G04 EAGLE Gerber X2 export*
%TF.Part,Single*%
%TF.FileFunction,Other,solder mask top*%
%TF.FilePolarity,Positive*%
%TF.GenerationSoftware,Autodesk,EAGLE,9.6.2*%
%TF.CreationDate,2022-04-17T11:55:35Z*%
G75*
%MOMM*%
%FSLAX34Y34*%
%LPD*%
%INsolder mask top*%
%AMOC8*
5,1,8,0,0,1.08239X$1,22.5*%
G01*
%ADD10C,0.000000*%
%ADD11R,1.000000X0.600000*%
%ADD12R,1.371600X1.625600*%
%ADD13R,1.451600X0.551600*%
%ADD14R,0.600000X1.000000*%
%ADD15R,1.400000X0.400000*%
%ADD16R,3.900000X2.600000*%
%ADD17R,1.371600X2.641600*%
%ADD18R,2.641600X1.371600*%


D10*
X0Y-36000D02*
X3000Y-39000D01*
X32500Y-39000D01*
X39000Y-45500D01*
X39000Y-78000D01*
X45500Y-84500D01*
X175500Y-84500D01*
X182000Y-78000D01*
X182000Y159500D01*
X1000Y114500D02*
X0Y113500D01*
X0Y107500D01*
X0Y94000D02*
X0Y75000D01*
X1000Y74000D01*
X4000Y74000D01*
X5000Y73000D01*
X5000Y70000D02*
X4000Y69000D01*
X1000Y69000D01*
X0Y68000D01*
X5000Y70000D02*
X5000Y73000D01*
X0Y68000D02*
X0Y42500D01*
X1000Y41500D01*
X4000Y41500D01*
X5000Y40500D01*
X5000Y37500D02*
X4000Y36500D01*
X1000Y36500D01*
X0Y35500D01*
X5000Y37500D02*
X5000Y40500D01*
X0Y42000D02*
X0Y35500D01*
X0Y16500D02*
X1000Y15500D01*
X4000Y15500D01*
X5000Y14500D01*
X5000Y11500D02*
X4000Y10500D01*
X1000Y10500D01*
X0Y9500D01*
X5000Y11500D02*
X5000Y14500D01*
X0Y-16500D02*
X0Y-36000D01*
X0Y-9500D02*
X0Y9500D01*
X0Y16500D02*
X0Y35500D01*
X0Y-9500D02*
X1000Y-10500D01*
X4000Y-10500D02*
X5000Y-11500D01*
X4000Y-10500D02*
X1000Y-10500D01*
X5000Y-11500D02*
X5000Y-14500D01*
X4000Y-15500D01*
X1000Y-15500D01*
X0Y-16500D01*
X1000Y106500D02*
X0Y107500D01*
X1000Y106500D02*
X4000Y106500D01*
X5000Y105500D01*
X5000Y96000D01*
X4000Y95000D01*
X1000Y95000D01*
X0Y94000D01*
X1000Y114500D02*
X5000Y114500D01*
X7500Y117000D01*
X7500Y144000D01*
X29500Y166000D01*
X175500Y166000D01*
X182000Y159500D01*
D11*
X57000Y106000D03*
X57000Y98000D03*
X57000Y90000D03*
X57000Y82000D03*
X73000Y82000D03*
X73000Y90000D03*
X73000Y98000D03*
X73000Y106000D03*
X57000Y64000D03*
X57000Y56000D03*
X57000Y48000D03*
X57000Y40000D03*
X73000Y40000D03*
X73000Y48000D03*
X73000Y56000D03*
X73000Y64000D03*
X57000Y22000D03*
X57000Y14000D03*
X57000Y6000D03*
X57000Y-2000D03*
X73000Y-2000D03*
X73000Y6000D03*
X73000Y14000D03*
X73000Y22000D03*
D12*
X57000Y-70500D03*
X102000Y-70500D03*
D13*
X6500Y0D03*
X6500Y6500D03*
X6500Y19500D03*
X6500Y26000D03*
X6500Y32500D03*
X6500Y45500D03*
X6500Y52000D03*
X6500Y58500D03*
X6500Y65000D03*
X6500Y78000D03*
X6500Y84500D03*
X6500Y91000D03*
X6500Y-6500D03*
X6500Y-19500D03*
X6500Y-26000D03*
X6500Y-32500D03*
D14*
G36*
X96996Y-29692D02*
X101238Y-33934D01*
X94168Y-41004D01*
X89926Y-36762D01*
X96996Y-29692D01*
G37*
G36*
X91339Y-24036D02*
X95581Y-28278D01*
X88511Y-35348D01*
X84269Y-31106D01*
X91339Y-24036D01*
G37*
G36*
X85682Y-18379D02*
X89924Y-22621D01*
X82854Y-29691D01*
X78612Y-25449D01*
X85682Y-18379D01*
G37*
G36*
X80026Y-12722D02*
X84268Y-16964D01*
X77198Y-24034D01*
X72956Y-19792D01*
X80026Y-12722D01*
G37*
G36*
X65884Y-35348D02*
X61642Y-31106D01*
X68712Y-24036D01*
X72954Y-28278D01*
X65884Y-35348D01*
G37*
G36*
X71541Y-41004D02*
X67299Y-36762D01*
X74369Y-29692D01*
X78611Y-33934D01*
X71541Y-41004D01*
G37*
G36*
X77198Y-46661D02*
X72956Y-42419D01*
X80026Y-35349D01*
X84268Y-39591D01*
X77198Y-46661D01*
G37*
G36*
X82854Y-52318D02*
X78612Y-48076D01*
X85682Y-41006D01*
X89924Y-45248D01*
X82854Y-52318D01*
G37*
D13*
X6500Y110500D03*
D15*
X128000Y-27000D03*
X128000Y-22000D03*
X128000Y-17000D03*
X128000Y-12000D03*
X128000Y-7000D03*
X128000Y-2000D03*
X128000Y3000D03*
X128000Y8000D03*
X128000Y13000D03*
X128000Y18000D03*
X128000Y23000D03*
X128000Y28000D03*
X128000Y33000D03*
X128000Y38000D03*
X128000Y43000D03*
X128000Y48000D03*
X128000Y53000D03*
X128000Y58000D03*
X128000Y63000D03*
X128000Y68000D03*
X128000Y73000D03*
X128000Y78000D03*
X128000Y83000D03*
X128000Y88000D03*
X128000Y93000D03*
X128000Y98000D03*
X128000Y103000D03*
X128000Y108000D03*
X128000Y113000D03*
X128000Y118000D03*
D16*
X145300Y-49180D03*
X145300Y140180D03*
D17*
X40500Y148000D03*
X71000Y148000D03*
D18*
X156500Y-71500D03*
D17*
X100500Y148000D03*
M02*
