G04 EAGLE Gerber X2 export*
%TF.Part,Single*%
%TF.FileFunction,Other,padmask top*%
%TF.FilePolarity,Positive*%
%TF.GenerationSoftware,Autodesk,EAGLE,9.6.2*%
%TF.CreationDate,2022-04-17T11:55:35Z*%
G75*
%MOMM*%
%FSLAX34Y34*%
%LPD*%
%INpadmask top*%
%AMOC8*
5,1,8,0,0,1.08239X$1,22.5*%
G01*
%ADD10R,0.900000X0.500000*%
%ADD11R,0.500000X0.900000*%
%ADD12R,1.250000X0.250000*%
%ADD13R,3.650000X2.350000*%


D10*
X57000Y106000D03*
X57000Y98000D03*
X57000Y90000D03*
X57000Y82000D03*
X73000Y82000D03*
X73000Y90000D03*
X73000Y98000D03*
X73000Y106000D03*
X57000Y64000D03*
X57000Y56000D03*
X57000Y48000D03*
X57000Y40000D03*
X73000Y40000D03*
X73000Y48000D03*
X73000Y56000D03*
X73000Y64000D03*
X57000Y22000D03*
X57000Y14000D03*
X57000Y6000D03*
X57000Y-2000D03*
X73000Y-2000D03*
X73000Y6000D03*
X73000Y14000D03*
X73000Y22000D03*
D11*
G36*
X96996Y-30399D02*
X100531Y-33934D01*
X94168Y-40297D01*
X90633Y-36762D01*
X96996Y-30399D01*
G37*
G36*
X91339Y-24743D02*
X94874Y-28278D01*
X88511Y-34641D01*
X84976Y-31106D01*
X91339Y-24743D01*
G37*
G36*
X85682Y-19086D02*
X89217Y-22621D01*
X82854Y-28984D01*
X79319Y-25449D01*
X85682Y-19086D01*
G37*
G36*
X80026Y-13429D02*
X83561Y-16964D01*
X77198Y-23327D01*
X73663Y-19792D01*
X80026Y-13429D01*
G37*
G36*
X68712Y-24743D02*
X72247Y-28278D01*
X65884Y-34641D01*
X62349Y-31106D01*
X68712Y-24743D01*
G37*
G36*
X74369Y-30399D02*
X77904Y-33934D01*
X71541Y-40297D01*
X68006Y-36762D01*
X74369Y-30399D01*
G37*
G36*
X80026Y-36056D02*
X83561Y-39591D01*
X77198Y-45954D01*
X73663Y-42419D01*
X80026Y-36056D01*
G37*
G36*
X85682Y-41713D02*
X89217Y-45248D01*
X82854Y-51611D01*
X79319Y-48076D01*
X85682Y-41713D01*
G37*
D12*
X128000Y-27000D03*
X128000Y-22000D03*
X128000Y-17000D03*
X128000Y-12000D03*
X128000Y-7000D03*
X128000Y-2000D03*
X128000Y3000D03*
X128000Y8000D03*
X128000Y13000D03*
X128000Y18000D03*
X128000Y23000D03*
X128000Y28000D03*
X128000Y33000D03*
X128000Y38000D03*
X128000Y43000D03*
X128000Y48000D03*
X128000Y53000D03*
X128000Y58000D03*
X128000Y63000D03*
X128000Y68000D03*
X128000Y73000D03*
X128000Y78000D03*
X128000Y83000D03*
X128000Y88000D03*
X128000Y93000D03*
X128000Y98000D03*
X128000Y103000D03*
X128000Y108000D03*
X128000Y113000D03*
X128000Y118000D03*
D13*
X145300Y-49180D03*
X145300Y140180D03*
M02*
