G04 EAGLE Gerber RS-274X export*
G75*
%MOMM*%
%FSLAX34Y34*%
%LPD*%
%INpad maske top*%
%IPPOS*%
%AMOC8*
5,1,8,0,0,1.08239X$1,22.5*%
G01*
%ADD10C,0.000000*%
%ADD11R,1.040000X1.240000*%
%ADD12R,1.240000X1.040000*%
%ADD13R,0.900000X0.800000*%
%ADD14R,0.800000X0.900000*%
%ADD15R,0.800000X0.400000*%
%ADD16R,3.992000X2.492000*%
%ADD17R,0.880000X0.480000*%
%ADD18R,0.940000X0.240000*%
%ADD19R,0.480000X0.880000*%
%ADD20R,0.240000X0.940000*%
%ADD21R,4.692000X4.692000*%
%ADD22R,0.880000X1.080000*%
%ADD23R,1.090000X0.440000*%
%ADD24R,0.440000X1.090000*%
%ADD25R,0.240000X2.140000*%
%ADD26R,0.320000X1.470000*%
%ADD27R,0.160000X0.635000*%
%ADD28R,6.192000X6.192000*%
%ADD29R,0.810000X0.360000*%
%ADD30R,1.960000X1.960000*%
%ADD31R,0.200000X1.150000*%
%ADD32R,1.150000X0.200000*%
%ADD33R,0.800000X1.200000*%
%ADD34R,0.400000X0.800000*%
%ADD35R,0.960000X0.960000*%
%ADD36R,1.600000X2.900000*%
%ADD37R,0.980000X0.480000*%
%ADD38R,1.250000X0.250000*%
%ADD39R,3.650000X2.350000*%
%ADD40R,1.200000X2.200000*%
%ADD41R,2.200000X1.200000*%
%ADD42R,1.720000X0.320000*%
%ADD43R,0.480000X0.980000*%


D10*
X558800Y41910D02*
X6350Y41910D01*
X0Y48260D01*
X0Y419100D01*
X236220Y425450D02*
X306070Y495300D01*
X306070Y572770D01*
X335280Y892810D02*
X341630Y899160D01*
X579120Y899160D01*
X800100Y527050D02*
X793750Y520700D01*
X519430Y520700D01*
X519430Y403860D01*
X542290Y381000D01*
X542290Y355600D01*
X548640Y349250D01*
X563880Y349250D01*
X570230Y355600D01*
X570230Y389890D01*
X584200Y403860D01*
X800100Y397510D02*
X800100Y6350D01*
X793750Y0D01*
X571500Y0D01*
X565150Y6350D01*
X565150Y35560D01*
X558800Y41910D01*
X584200Y403860D02*
X793750Y403860D01*
X800100Y397510D01*
X236220Y425450D02*
X6350Y425450D01*
X0Y419100D01*
X328930Y762000D02*
X335280Y768350D01*
X585470Y768350D02*
X591820Y762000D01*
X328930Y762000D02*
X279400Y762000D01*
X335280Y768350D02*
X335280Y892810D01*
X641350Y762000D02*
X647700Y768350D01*
X647700Y892810D01*
X641350Y762000D02*
X591820Y762000D01*
X585470Y892810D02*
X579120Y899160D01*
X585470Y892810D02*
X585470Y768350D01*
X800100Y863600D02*
X800100Y527050D01*
X243840Y635000D02*
X110490Y635000D01*
X104140Y641350D01*
X104140Y892810D01*
X110490Y899160D02*
X266700Y899160D01*
X110490Y899160D02*
X104140Y892810D01*
X273050Y768350D02*
X279400Y762000D01*
X273050Y768350D02*
X273050Y892810D01*
X266700Y899160D01*
X243840Y635000D02*
X306070Y572770D01*
X647700Y892810D02*
X654050Y899160D01*
X712470Y876300D02*
X718820Y869950D01*
X712470Y876300D02*
X712470Y892810D01*
X706120Y899160D01*
X654050Y899160D01*
X793750Y869950D02*
X800100Y863600D01*
X793750Y869950D02*
X718820Y869950D01*
D11*
X615340Y213360D03*
X634340Y213360D03*
D12*
X560070Y249530D03*
X560070Y230530D03*
D13*
X210430Y278130D03*
X193430Y278130D03*
X210430Y236220D03*
X193430Y236220D03*
D14*
X302260Y162170D03*
X302260Y145170D03*
D13*
X479180Y252730D03*
X496180Y252730D03*
X479180Y312420D03*
X496180Y312420D03*
X210430Y326390D03*
X193430Y326390D03*
D14*
X346710Y162170D03*
X346710Y145170D03*
X501650Y363610D03*
X501650Y380610D03*
X422910Y428380D03*
X422910Y445380D03*
X379730Y428380D03*
X379730Y445380D03*
D13*
X214240Y393700D03*
X197240Y393700D03*
D14*
X402590Y162170D03*
X402590Y145170D03*
D11*
X650900Y254000D03*
X669900Y254000D03*
D13*
X479180Y201930D03*
X496180Y201930D03*
D14*
X481330Y399170D03*
X481330Y416170D03*
X450850Y425840D03*
X450850Y442840D03*
X358140Y428380D03*
X358140Y445380D03*
D13*
X210430Y373380D03*
X193430Y373380D03*
X210430Y194310D03*
X193430Y194310D03*
G36*
X237490Y160597D02*
X243853Y166960D01*
X249510Y161303D01*
X243147Y154940D01*
X237490Y160597D01*
G37*
G36*
X225470Y148577D02*
X231833Y154940D01*
X237490Y149283D01*
X231127Y142920D01*
X225470Y148577D01*
G37*
D14*
X280670Y162170D03*
X280670Y145170D03*
D13*
X479180Y222250D03*
X496180Y222250D03*
D14*
X481330Y380610D03*
X481330Y363610D03*
D13*
G36*
X266700Y427413D02*
X260337Y421050D01*
X254680Y426707D01*
X261043Y433070D01*
X266700Y427413D01*
G37*
G36*
X278720Y439433D02*
X272357Y433070D01*
X266700Y438727D01*
X273063Y445090D01*
X278720Y439433D01*
G37*
X210430Y215900D03*
X193430Y215900D03*
D12*
X220980Y852830D03*
X220980Y871830D03*
D11*
X274980Y702310D03*
X293980Y702310D03*
D14*
X487680Y588890D03*
X487680Y571890D03*
D13*
X522360Y645160D03*
X539360Y645160D03*
D14*
X378460Y733180D03*
X378460Y750180D03*
X398780Y571110D03*
X398780Y554110D03*
D11*
X274980Y680720D03*
X293980Y680720D03*
D13*
X522360Y685800D03*
X539360Y685800D03*
X509660Y708660D03*
X526660Y708660D03*
D14*
X349250Y703970D03*
X349250Y720970D03*
D11*
X274980Y659130D03*
X293980Y659130D03*
D13*
X522360Y665480D03*
X539360Y665480D03*
D11*
X274980Y723900D03*
X293980Y723900D03*
D14*
X400050Y733180D03*
X400050Y750180D03*
X16510Y377580D03*
X16510Y394580D03*
D13*
X766200Y257810D03*
X783200Y257810D03*
D14*
X124460Y675250D03*
X124460Y658250D03*
X200660Y676520D03*
X200660Y659520D03*
D13*
X244720Y822960D03*
X227720Y822960D03*
X244720Y749300D03*
X227720Y749300D03*
X582930Y723020D03*
X582930Y740020D03*
D14*
G36*
X628663Y182880D02*
X634320Y177223D01*
X627957Y170860D01*
X622300Y176517D01*
X628663Y182880D01*
G37*
G36*
X616643Y194900D02*
X622300Y189243D01*
X615937Y182880D01*
X610280Y188537D01*
X616643Y194900D01*
G37*
D13*
X242570Y868290D03*
X242570Y851290D03*
D14*
X227720Y702310D03*
X244720Y702310D03*
X227720Y680720D03*
X244720Y680720D03*
X227720Y659130D03*
X244720Y659130D03*
X227720Y723900D03*
X244720Y723900D03*
X519040Y158750D03*
X502040Y158750D03*
D13*
X563880Y686190D03*
X563880Y703190D03*
X566420Y576970D03*
X566420Y593970D03*
X566420Y626990D03*
X566420Y609990D03*
X784860Y771770D03*
X784860Y754770D03*
X723900Y771770D03*
X723900Y754770D03*
X566420Y644280D03*
X566420Y661280D03*
D14*
X539360Y795020D03*
X522360Y795020D03*
X539360Y728980D03*
X522360Y728980D03*
D13*
X561340Y750180D03*
X561340Y733180D03*
D15*
X573660Y177100D03*
X573660Y169100D03*
X573660Y161100D03*
X573660Y153100D03*
X589660Y153100D03*
X589660Y161100D03*
X589660Y169100D03*
X589660Y177100D03*
X573660Y139000D03*
X573660Y131000D03*
X573660Y123000D03*
X573660Y115000D03*
X589660Y115000D03*
X589660Y123000D03*
X589660Y131000D03*
X589660Y139000D03*
X573660Y100900D03*
X573660Y92900D03*
X573660Y84900D03*
X573660Y76900D03*
X589660Y76900D03*
X589660Y84900D03*
X589660Y92900D03*
X589660Y100900D03*
X588900Y62800D03*
X588900Y54800D03*
X588900Y46800D03*
X588900Y38800D03*
X604900Y38800D03*
X604900Y46800D03*
X604900Y54800D03*
X604900Y62800D03*
D16*
X76200Y406400D03*
X36830Y76200D03*
D17*
X486760Y611240D03*
D18*
X486760Y617740D03*
X486760Y622740D03*
X486760Y627740D03*
X486760Y632740D03*
X486760Y637740D03*
X486760Y642740D03*
X486760Y647740D03*
X486760Y652740D03*
X486760Y657740D03*
X486760Y662740D03*
D17*
X486760Y689240D03*
D19*
X468260Y707740D03*
D20*
X451760Y707740D03*
X446760Y707740D03*
X441760Y707740D03*
X436760Y707740D03*
X431760Y707740D03*
X426760Y707740D03*
X421760Y707740D03*
X416760Y707740D03*
X411760Y707740D03*
X406760Y707740D03*
D19*
X390260Y707740D03*
D17*
X371760Y689240D03*
D18*
X371760Y672740D03*
X371760Y667740D03*
X371760Y662740D03*
X371760Y657740D03*
X371760Y652740D03*
X371760Y647740D03*
X371760Y642740D03*
X371760Y637740D03*
X371760Y632740D03*
X371760Y627740D03*
D17*
X371760Y611240D03*
D19*
X390260Y592740D03*
D20*
X406760Y592740D03*
X411760Y592740D03*
X416760Y592740D03*
X421760Y592740D03*
X426760Y592740D03*
X431760Y592740D03*
X436760Y592740D03*
X441760Y592740D03*
X446760Y592740D03*
X451760Y592740D03*
D19*
X468260Y592740D03*
D20*
X456760Y592740D03*
X461760Y592740D03*
X401760Y592740D03*
X396760Y592740D03*
D18*
X371760Y622740D03*
X371760Y617740D03*
X371760Y677740D03*
X371760Y682740D03*
D20*
X401760Y707740D03*
X396760Y707740D03*
X456760Y707740D03*
X461760Y707740D03*
D18*
X486760Y667740D03*
X486760Y672740D03*
X486760Y677740D03*
X486760Y682740D03*
D21*
X429260Y650240D03*
D22*
X763160Y285680D03*
X781160Y308680D03*
X763160Y308680D03*
X781160Y285680D03*
D23*
X147019Y676250D03*
X147019Y666750D03*
X147019Y657250D03*
X173021Y657250D03*
X173021Y676250D03*
D24*
X245720Y797861D03*
X236220Y797861D03*
X226720Y797861D03*
X226720Y771859D03*
X245720Y771859D03*
D25*
X459740Y822730D03*
X454740Y822730D03*
X449740Y822730D03*
X444740Y822730D03*
X439740Y822730D03*
X434740Y822730D03*
X429740Y822730D03*
X424740Y822730D03*
X464740Y822730D03*
X469740Y822730D03*
X474740Y822730D03*
X479740Y822730D03*
X484740Y822730D03*
X489740Y822730D03*
X494740Y822730D03*
X419740Y822730D03*
X414740Y822730D03*
X499740Y822730D03*
X504740Y822730D03*
D26*
X426720Y769620D03*
D27*
X421720Y765245D03*
X421720Y773995D03*
X416720Y765245D03*
X416720Y773995D03*
X431720Y773995D03*
X436720Y773995D03*
X431720Y765245D03*
X436720Y765245D03*
D26*
X457200Y769620D03*
D27*
X462200Y773995D03*
X462200Y765245D03*
X467200Y773995D03*
X467200Y765245D03*
X452200Y765245D03*
X447200Y765245D03*
X452200Y773995D03*
X447200Y773995D03*
D13*
X365760Y776360D03*
X365760Y793360D03*
D14*
X387350Y776360D03*
X387350Y793360D03*
D17*
X452940Y205640D03*
D18*
X452940Y212140D03*
X452940Y217140D03*
X452940Y222140D03*
X452940Y227140D03*
X452940Y232140D03*
X452940Y237140D03*
X452940Y242140D03*
X452940Y247140D03*
X452940Y252140D03*
X452940Y257140D03*
X452940Y262140D03*
X452940Y267140D03*
X452940Y272140D03*
X452940Y277140D03*
X452940Y282140D03*
X452940Y287140D03*
X452940Y292140D03*
X452940Y297140D03*
X452940Y302140D03*
X452940Y307140D03*
X452940Y312140D03*
X452940Y317140D03*
X452940Y322140D03*
X452940Y327140D03*
X452940Y332140D03*
X452940Y337140D03*
X452940Y342140D03*
X452940Y347140D03*
X452940Y352140D03*
X452940Y357140D03*
X452940Y362140D03*
X452940Y367140D03*
X452940Y372140D03*
X452940Y377140D03*
D17*
X452940Y383640D03*
D19*
X434440Y402140D03*
D20*
X427940Y402140D03*
X422940Y402140D03*
X417940Y402140D03*
X412940Y402140D03*
X407940Y402140D03*
X402940Y402140D03*
X397940Y402140D03*
X392940Y402140D03*
X387940Y402140D03*
X382940Y402140D03*
X377940Y402140D03*
X372940Y402140D03*
X367940Y402140D03*
X362940Y402140D03*
X357940Y402140D03*
X352940Y402140D03*
X347940Y402140D03*
X342940Y402140D03*
X337940Y402140D03*
X332940Y402140D03*
X327940Y402140D03*
X322940Y402140D03*
X317940Y402140D03*
X312940Y402140D03*
X307940Y402140D03*
X302940Y402140D03*
X297940Y402140D03*
X292940Y402140D03*
X287940Y402140D03*
X282940Y402140D03*
X277940Y402140D03*
X272940Y402140D03*
X267940Y402140D03*
X262940Y402140D03*
D19*
X256440Y402140D03*
D17*
X237940Y383640D03*
D18*
X237940Y377140D03*
X237940Y372140D03*
X237940Y367140D03*
X237940Y362140D03*
X237940Y357140D03*
X237940Y352140D03*
X237940Y347140D03*
X237940Y342140D03*
X237940Y337140D03*
X237940Y332140D03*
X237940Y327140D03*
X237940Y322140D03*
X237940Y317140D03*
X237940Y312140D03*
X237940Y307140D03*
X237940Y302140D03*
X237940Y297140D03*
X237940Y292140D03*
X237940Y287140D03*
X237940Y282140D03*
X237940Y277140D03*
X237940Y272140D03*
X237940Y267140D03*
X237940Y262140D03*
X237940Y257140D03*
X237940Y252140D03*
X237940Y247140D03*
X237940Y242140D03*
X237940Y237140D03*
X237940Y232140D03*
X237940Y227140D03*
X237940Y222140D03*
X237940Y217140D03*
X237940Y212140D03*
D17*
X237940Y205640D03*
D19*
X256440Y187140D03*
D20*
X262940Y187140D03*
X267940Y187140D03*
X272940Y187140D03*
X277940Y187140D03*
X282940Y187140D03*
X287940Y187140D03*
X292940Y187140D03*
X297940Y187140D03*
X302940Y187140D03*
X307940Y187140D03*
X312940Y187140D03*
X317940Y187140D03*
X322940Y187140D03*
X327940Y187140D03*
X332940Y187140D03*
X337940Y187140D03*
X342940Y187140D03*
X347940Y187140D03*
X352940Y187140D03*
X357940Y187140D03*
X362940Y187140D03*
X367940Y187140D03*
X372940Y187140D03*
X377940Y187140D03*
X382940Y187140D03*
X387940Y187140D03*
X392940Y187140D03*
X397940Y187140D03*
X402940Y187140D03*
X407940Y187140D03*
X412940Y187140D03*
X417940Y187140D03*
X422940Y187140D03*
X427940Y187140D03*
D19*
X434440Y187140D03*
D28*
X345440Y294640D03*
D29*
X41530Y378320D03*
X41530Y370320D03*
X41530Y362320D03*
X41530Y354320D03*
X41530Y346320D03*
X41530Y338320D03*
X41530Y330320D03*
X41530Y322320D03*
X41530Y314320D03*
X41530Y306320D03*
X41530Y298320D03*
X41530Y290320D03*
X41530Y282320D03*
X41530Y274320D03*
X41530Y266320D03*
X41530Y258320D03*
X41530Y250320D03*
X41530Y242320D03*
X41530Y234320D03*
X41530Y226320D03*
X41530Y218320D03*
X41530Y210320D03*
X41530Y202320D03*
X41530Y194320D03*
X41530Y186320D03*
X41530Y178320D03*
X41530Y170320D03*
X159130Y170320D03*
X159130Y178320D03*
X159130Y186320D03*
X159130Y194320D03*
X159130Y202320D03*
X159130Y210320D03*
X159130Y218320D03*
X159130Y226320D03*
X159130Y234320D03*
X159130Y242320D03*
X159130Y250320D03*
X159130Y258320D03*
X159130Y266320D03*
X159130Y274320D03*
X159130Y282320D03*
X159130Y290320D03*
X159130Y298320D03*
X159130Y306320D03*
X159130Y314320D03*
X159130Y322320D03*
X159130Y330320D03*
X159130Y338320D03*
X159130Y346320D03*
X159130Y354320D03*
X159130Y362320D03*
X159130Y370320D03*
X159130Y378320D03*
D14*
X16510Y360290D03*
X16510Y343290D03*
X16510Y313300D03*
X16510Y296300D03*
X16510Y272660D03*
X16510Y255660D03*
X427990Y162170D03*
X427990Y145170D03*
X54220Y139700D03*
X37220Y139700D03*
X16510Y171840D03*
X16510Y188840D03*
D13*
X185810Y298450D03*
X202810Y298450D03*
X185810Y345440D03*
X202810Y345440D03*
D14*
X714130Y257810D03*
X731130Y257810D03*
X749300Y257420D03*
X749300Y240420D03*
X448310Y162170D03*
X448310Y145170D03*
D13*
X226940Y414020D03*
X209940Y414020D03*
D30*
X652780Y345440D03*
D31*
X640280Y323940D03*
X645280Y323940D03*
X650280Y323940D03*
X655280Y323940D03*
X660280Y323940D03*
X665280Y323940D03*
D32*
X674280Y332940D03*
X674280Y337940D03*
X674280Y342940D03*
X674280Y347940D03*
X674280Y352940D03*
X674280Y357940D03*
D31*
X665280Y366940D03*
X660280Y366940D03*
X655280Y366940D03*
X650280Y366940D03*
X645280Y366940D03*
X640280Y366940D03*
D32*
X631280Y357940D03*
X631280Y352940D03*
X631280Y347940D03*
X631280Y342940D03*
X631280Y337940D03*
X631280Y332940D03*
D33*
X739140Y813640D03*
X748640Y791640D03*
X729640Y791640D03*
X774700Y813640D03*
X784200Y791640D03*
X765200Y791640D03*
D13*
X744220Y771770D03*
X744220Y754770D03*
X764540Y771770D03*
X764540Y754770D03*
D34*
X125160Y398400D03*
X133160Y398400D03*
X141160Y398400D03*
X149160Y398400D03*
X149160Y414400D03*
X141160Y414400D03*
X133160Y414400D03*
X125160Y414400D03*
D35*
X758190Y830240D03*
X758190Y851240D03*
X783590Y830240D03*
X783590Y851240D03*
D36*
X675320Y287020D03*
X635320Y287020D03*
D23*
X602281Y274980D03*
X602281Y284480D03*
X602281Y293980D03*
X576279Y293980D03*
X576279Y274980D03*
D13*
X615070Y254000D03*
X632070Y254000D03*
X579510Y254000D03*
X596510Y254000D03*
D14*
X559680Y198120D03*
X542680Y198120D03*
D12*
X538480Y230530D03*
X538480Y249530D03*
D14*
X590940Y313690D03*
X607940Y313690D03*
X608720Y391160D03*
X625720Y391160D03*
D13*
X607940Y334010D03*
X590940Y334010D03*
X607940Y355600D03*
X590940Y355600D03*
X651900Y391160D03*
X668900Y391160D03*
X702310Y323460D03*
X702310Y306460D03*
X702310Y275980D03*
X702310Y292980D03*
D22*
X725060Y285680D03*
X743060Y308680D03*
X725060Y308680D03*
X743060Y285680D03*
D14*
X702310Y336940D03*
X702310Y353940D03*
D34*
X316800Y79120D03*
X308800Y79120D03*
X300800Y79120D03*
X292800Y79120D03*
X292800Y63120D03*
X300800Y63120D03*
X308800Y63120D03*
X316800Y63120D03*
D15*
X529210Y296480D03*
X529210Y288480D03*
X529210Y280480D03*
X529210Y272480D03*
X545210Y272480D03*
X545210Y280480D03*
X545210Y288480D03*
X545210Y296480D03*
D12*
X193040Y93320D03*
X193040Y74320D03*
D23*
X113999Y126340D03*
X113999Y116840D03*
X113999Y107340D03*
X140001Y107340D03*
X140001Y126340D03*
D14*
X86360Y122800D03*
X86360Y105800D03*
X165100Y122800D03*
X165100Y105800D03*
D13*
X727710Y385690D03*
X727710Y368690D03*
D14*
X727710Y353940D03*
X727710Y336940D03*
X496180Y290830D03*
X479180Y290830D03*
D13*
X16510Y232020D03*
X16510Y215020D03*
D37*
X780080Y346100D03*
X780080Y355600D03*
X780080Y365100D03*
X754080Y346100D03*
X754080Y355600D03*
X754080Y365100D03*
D38*
X655840Y46880D03*
X655840Y51880D03*
X655840Y56880D03*
X655840Y61880D03*
X655840Y66880D03*
X655840Y71880D03*
X655840Y76880D03*
X655840Y81880D03*
X655840Y86880D03*
X655840Y91880D03*
X655840Y96880D03*
X655840Y101880D03*
X655840Y106880D03*
X655840Y111880D03*
X655840Y116880D03*
X655840Y121880D03*
X655840Y126880D03*
X655840Y131880D03*
X655840Y136880D03*
X655840Y141880D03*
X655840Y146880D03*
X655840Y151880D03*
X655840Y156880D03*
X655840Y161880D03*
X655840Y166880D03*
X655840Y171880D03*
X655840Y176880D03*
X655840Y181880D03*
X655840Y186880D03*
X655840Y191880D03*
D39*
X673140Y24700D03*
X673140Y214060D03*
D11*
X498500Y181610D03*
X517500Y181610D03*
D13*
X516890Y228990D03*
X516890Y245990D03*
D40*
X638340Y547460D03*
X658340Y547460D03*
X678340Y547460D03*
X698340Y547460D03*
X718340Y547460D03*
X738340Y547460D03*
D41*
X773340Y582460D03*
X773340Y602460D03*
X773340Y622460D03*
X773340Y642460D03*
X773340Y662460D03*
X773340Y682460D03*
D40*
X738340Y717460D03*
X718340Y717460D03*
X698340Y717460D03*
X678340Y717460D03*
X658340Y717460D03*
X638340Y717460D03*
D41*
X603340Y682460D03*
X603340Y662460D03*
X603340Y642460D03*
X603340Y622460D03*
X603340Y602460D03*
X603340Y582460D03*
D13*
X588010Y557140D03*
X588010Y540140D03*
D42*
X703820Y861360D03*
X703820Y854860D03*
X703820Y848360D03*
X703820Y841860D03*
X703820Y835360D03*
D14*
X675640Y771280D03*
X675640Y788280D03*
D13*
X695960Y771280D03*
X695960Y788280D03*
D43*
X540360Y775000D03*
X530860Y775000D03*
X521360Y775000D03*
X540360Y749000D03*
X530860Y749000D03*
X521360Y749000D03*
D33*
X541655Y535735D03*
X532155Y557735D03*
X551155Y557735D03*
D13*
X568325Y540140D03*
X568325Y557140D03*
X546100Y593970D03*
X546100Y576970D03*
X546100Y609990D03*
X546100Y626990D03*
M02*
