%TF.GenerationSoftware,KiCad,Pcbnew,(6.0.4)*%
%TF.CreationDate,2022-04-18T09:27:53+02:00*%
%TF.ProjectId,n64adv2,6e363461-6476-4322-9e6b-696361645f70,20220415*%
%TF.SameCoordinates,Original*%
%TF.FileFunction,Legend,Bot*%
%TF.FilePolarity,Positive*%
%FSLAX46Y46*%
G04 Gerber Fmt 4.6, Leading zero omitted, Abs format (unit mm)*
G04 Created by KiCad (PCBNEW (6.0.4)) date 2022-04-18 09:27:53*
%MOMM*%
%LPD*%
G01*
G04 APERTURE LIST*
%ADD10C,0.190500*%
G04 APERTURE END LIST*
D10*
X185326564Y-149052945D02*
X185326564Y-147973445D01*
X184709707Y-149052945D01*
X184709707Y-147973445D01*
X183733016Y-147973445D02*
X183938635Y-147973445D01*
X184041445Y-148024850D01*
X184092850Y-148076254D01*
X184195659Y-148230469D01*
X184247064Y-148436088D01*
X184247064Y-148847326D01*
X184195659Y-148950135D01*
X184144254Y-149001540D01*
X184041445Y-149052945D01*
X183835826Y-149052945D01*
X183733016Y-149001540D01*
X183681611Y-148950135D01*
X183630207Y-148847326D01*
X183630207Y-148590302D01*
X183681611Y-148487492D01*
X183733016Y-148436088D01*
X183835826Y-148384683D01*
X184041445Y-148384683D01*
X184144254Y-148436088D01*
X184195659Y-148487492D01*
X184247064Y-148590302D01*
X182704921Y-148333278D02*
X182704921Y-149052945D01*
X182961945Y-147922040D02*
X183218969Y-148693111D01*
X182550707Y-148693111D01*
X182190873Y-148744516D02*
X181676826Y-148744516D01*
X182293683Y-149052945D02*
X181933850Y-147973445D01*
X181574016Y-149052945D01*
X180751540Y-149052945D02*
X180751540Y-147973445D01*
X180751540Y-149001540D02*
X180854350Y-149052945D01*
X181059969Y-149052945D01*
X181162778Y-149001540D01*
X181214183Y-148950135D01*
X181265588Y-148847326D01*
X181265588Y-148538897D01*
X181214183Y-148436088D01*
X181162778Y-148384683D01*
X181059969Y-148333278D01*
X180854350Y-148333278D01*
X180751540Y-148384683D01*
X180340302Y-148333278D02*
X180083278Y-149052945D01*
X179826254Y-148333278D01*
X179466421Y-148076254D02*
X179415016Y-148024850D01*
X179312207Y-147973445D01*
X179055183Y-147973445D01*
X178952373Y-148024850D01*
X178900969Y-148076254D01*
X178849564Y-148179064D01*
X178849564Y-148281873D01*
X178900969Y-148436088D01*
X179517826Y-149052945D01*
X178849564Y-149052945D01*
X178643945Y-149155754D02*
X177821469Y-149155754D01*
X177615850Y-148076254D02*
X177564445Y-148024850D01*
X177461635Y-147973445D01*
X177204611Y-147973445D01*
X177101802Y-148024850D01*
X177050397Y-148076254D01*
X176998992Y-148179064D01*
X176998992Y-148281873D01*
X177050397Y-148436088D01*
X177667254Y-149052945D01*
X176998992Y-149052945D01*
X176330730Y-147973445D02*
X176227921Y-147973445D01*
X176125111Y-148024850D01*
X176073707Y-148076254D01*
X176022302Y-148179064D01*
X175970897Y-148384683D01*
X175970897Y-148641707D01*
X176022302Y-148847326D01*
X176073707Y-148950135D01*
X176125111Y-149001540D01*
X176227921Y-149052945D01*
X176330730Y-149052945D01*
X176433540Y-149001540D01*
X176484945Y-148950135D01*
X176536350Y-148847326D01*
X176587754Y-148641707D01*
X176587754Y-148384683D01*
X176536350Y-148179064D01*
X176484945Y-148076254D01*
X176433540Y-148024850D01*
X176330730Y-147973445D01*
X175559659Y-148076254D02*
X175508254Y-148024850D01*
X175405445Y-147973445D01*
X175148421Y-147973445D01*
X175045611Y-148024850D01*
X174994207Y-148076254D01*
X174942802Y-148179064D01*
X174942802Y-148281873D01*
X174994207Y-148436088D01*
X175611064Y-149052945D01*
X174942802Y-149052945D01*
X174531564Y-148076254D02*
X174480159Y-148024850D01*
X174377350Y-147973445D01*
X174120326Y-147973445D01*
X174017516Y-148024850D01*
X173966111Y-148076254D01*
X173914707Y-148179064D01*
X173914707Y-148281873D01*
X173966111Y-148436088D01*
X174582969Y-149052945D01*
X173914707Y-149052945D01*
X173246445Y-147973445D02*
X173143635Y-147973445D01*
X173040826Y-148024850D01*
X172989421Y-148076254D01*
X172938016Y-148179064D01*
X172886611Y-148384683D01*
X172886611Y-148641707D01*
X172938016Y-148847326D01*
X172989421Y-148950135D01*
X173040826Y-149001540D01*
X173143635Y-149052945D01*
X173246445Y-149052945D01*
X173349254Y-149001540D01*
X173400659Y-148950135D01*
X173452064Y-148847326D01*
X173503469Y-148641707D01*
X173503469Y-148384683D01*
X173452064Y-148179064D01*
X173400659Y-148076254D01*
X173349254Y-148024850D01*
X173246445Y-147973445D01*
X172218350Y-147973445D02*
X172115540Y-147973445D01*
X172012730Y-148024850D01*
X171961326Y-148076254D01*
X171909921Y-148179064D01*
X171858516Y-148384683D01*
X171858516Y-148641707D01*
X171909921Y-148847326D01*
X171961326Y-148950135D01*
X172012730Y-149001540D01*
X172115540Y-149052945D01*
X172218350Y-149052945D01*
X172321159Y-149001540D01*
X172372564Y-148950135D01*
X172423969Y-148847326D01*
X172475373Y-148641707D01*
X172475373Y-148384683D01*
X172423969Y-148179064D01*
X172372564Y-148076254D01*
X172321159Y-148024850D01*
X172218350Y-147973445D01*
X170933230Y-148333278D02*
X170933230Y-149052945D01*
X171190254Y-147922040D02*
X171447278Y-148693111D01*
X170779016Y-148693111D01*
X169802326Y-149052945D02*
X170419183Y-149052945D01*
X170110754Y-149052945D02*
X170110754Y-147973445D01*
X170213564Y-148127659D01*
X170316373Y-148230469D01*
X170419183Y-148281873D01*
X168825635Y-147973445D02*
X169339683Y-147973445D01*
X169391088Y-148487492D01*
X169339683Y-148436088D01*
X169236873Y-148384683D01*
X168979850Y-148384683D01*
X168877040Y-148436088D01*
X168825635Y-148487492D01*
X168774230Y-148590302D01*
X168774230Y-148847326D01*
X168825635Y-148950135D01*
X168877040Y-149001540D01*
X168979850Y-149052945D01*
X169236873Y-149052945D01*
X169339683Y-149001540D01*
X169391088Y-148950135D01*
M02*
