%TF.GenerationSoftware,KiCad,Pcbnew,(6.0.7)*%
%TF.CreationDate,2023-11-05T22:30:26+01:00*%
%TF.ProjectId,n64adv2,6e363461-6476-4322-9e6b-696361645f70,20231105*%
%TF.SameCoordinates,Original*%
%TF.FileFunction,Legend,Bot*%
%TF.FilePolarity,Positive*%
%FSLAX46Y46*%
G04 Gerber Fmt 4.6, Leading zero omitted, Abs format (unit mm)*
G04 Created by KiCad (PCBNEW (6.0.7)) date 2023-11-05 22:30:26*
%MOMM*%
%LPD*%
G01*
G04 APERTURE LIST*
%ADD10C,0.190500*%
G04 APERTURE END LIST*
D10*
X184812516Y-149052945D02*
X184812516Y-147973445D01*
X184195659Y-149052945D01*
X184195659Y-147973445D01*
X183218969Y-147973445D02*
X183424588Y-147973445D01*
X183527397Y-148024850D01*
X183578802Y-148076254D01*
X183681611Y-148230469D01*
X183733016Y-148436088D01*
X183733016Y-148847326D01*
X183681611Y-148950135D01*
X183630207Y-149001540D01*
X183527397Y-149052945D01*
X183321778Y-149052945D01*
X183218969Y-149001540D01*
X183167564Y-148950135D01*
X183116159Y-148847326D01*
X183116159Y-148590302D01*
X183167564Y-148487492D01*
X183218969Y-148436088D01*
X183321778Y-148384683D01*
X183527397Y-148384683D01*
X183630207Y-148436088D01*
X183681611Y-148487492D01*
X183733016Y-148590302D01*
X182190873Y-148333278D02*
X182190873Y-149052945D01*
X182447897Y-147922040D02*
X182704921Y-148693111D01*
X182036659Y-148693111D01*
X181676826Y-148744516D02*
X181162778Y-148744516D01*
X181779635Y-149052945D02*
X181419802Y-147973445D01*
X181059969Y-149052945D01*
X180237492Y-149052945D02*
X180237492Y-147973445D01*
X180237492Y-149001540D02*
X180340302Y-149052945D01*
X180545921Y-149052945D01*
X180648730Y-149001540D01*
X180700135Y-148950135D01*
X180751540Y-148847326D01*
X180751540Y-148538897D01*
X180700135Y-148436088D01*
X180648730Y-148384683D01*
X180545921Y-148333278D01*
X180340302Y-148333278D01*
X180237492Y-148384683D01*
X179826254Y-148333278D02*
X179569230Y-149052945D01*
X179312207Y-148333278D01*
X178952373Y-148076254D02*
X178900969Y-148024850D01*
X178798159Y-147973445D01*
X178541135Y-147973445D01*
X178438326Y-148024850D01*
X178386921Y-148076254D01*
X178335516Y-148179064D01*
X178335516Y-148281873D01*
X178386921Y-148436088D01*
X179003778Y-149052945D01*
X178335516Y-149052945D01*
X178129897Y-149155754D02*
X177307421Y-149155754D01*
X177101802Y-148076254D02*
X177050397Y-148024850D01*
X176947588Y-147973445D01*
X176690564Y-147973445D01*
X176587754Y-148024850D01*
X176536350Y-148076254D01*
X176484945Y-148179064D01*
X176484945Y-148281873D01*
X176536350Y-148436088D01*
X177153207Y-149052945D01*
X176484945Y-149052945D01*
X175816683Y-147973445D02*
X175713873Y-147973445D01*
X175611064Y-148024850D01*
X175559659Y-148076254D01*
X175508254Y-148179064D01*
X175456850Y-148384683D01*
X175456850Y-148641707D01*
X175508254Y-148847326D01*
X175559659Y-148950135D01*
X175611064Y-149001540D01*
X175713873Y-149052945D01*
X175816683Y-149052945D01*
X175919492Y-149001540D01*
X175970897Y-148950135D01*
X176022302Y-148847326D01*
X176073707Y-148641707D01*
X176073707Y-148384683D01*
X176022302Y-148179064D01*
X175970897Y-148076254D01*
X175919492Y-148024850D01*
X175816683Y-147973445D01*
X175045611Y-148076254D02*
X174994207Y-148024850D01*
X174891397Y-147973445D01*
X174634373Y-147973445D01*
X174531564Y-148024850D01*
X174480159Y-148076254D01*
X174428754Y-148179064D01*
X174428754Y-148281873D01*
X174480159Y-148436088D01*
X175097016Y-149052945D01*
X174428754Y-149052945D01*
X174068921Y-147973445D02*
X173400659Y-147973445D01*
X173760492Y-148384683D01*
X173606278Y-148384683D01*
X173503469Y-148436088D01*
X173452064Y-148487492D01*
X173400659Y-148590302D01*
X173400659Y-148847326D01*
X173452064Y-148950135D01*
X173503469Y-149001540D01*
X173606278Y-149052945D01*
X173914707Y-149052945D01*
X174017516Y-149001540D01*
X174068921Y-148950135D01*
X172372564Y-149052945D02*
X172989421Y-149052945D01*
X172680992Y-149052945D02*
X172680992Y-147973445D01*
X172783802Y-148127659D01*
X172886611Y-148230469D01*
X172989421Y-148281873D01*
X171344469Y-149052945D02*
X171961326Y-149052945D01*
X171652897Y-149052945D02*
X171652897Y-147973445D01*
X171755707Y-148127659D01*
X171858516Y-148230469D01*
X171961326Y-148281873D01*
X170676207Y-147973445D02*
X170573397Y-147973445D01*
X170470588Y-148024850D01*
X170419183Y-148076254D01*
X170367778Y-148179064D01*
X170316373Y-148384683D01*
X170316373Y-148641707D01*
X170367778Y-148847326D01*
X170419183Y-148950135D01*
X170470588Y-149001540D01*
X170573397Y-149052945D01*
X170676207Y-149052945D01*
X170779016Y-149001540D01*
X170830421Y-148950135D01*
X170881826Y-148847326D01*
X170933230Y-148641707D01*
X170933230Y-148384683D01*
X170881826Y-148179064D01*
X170830421Y-148076254D01*
X170779016Y-148024850D01*
X170676207Y-147973445D01*
X169339683Y-147973445D02*
X169853730Y-147973445D01*
X169905135Y-148487492D01*
X169853730Y-148436088D01*
X169750921Y-148384683D01*
X169493897Y-148384683D01*
X169391088Y-148436088D01*
X169339683Y-148487492D01*
X169288278Y-148590302D01*
X169288278Y-148847326D01*
X169339683Y-148950135D01*
X169391088Y-149001540D01*
X169493897Y-149052945D01*
X169750921Y-149052945D01*
X169853730Y-149001540D01*
X169905135Y-148950135D01*
M02*
