M48
; DRILL file {KiCad (6.0.7)} date Sun Nov  5 22:30:28 2023
; FORMAT={-:-/ absolute / metric / decimal}
; #@! TF.CreationDate,2023-11-05T22:30:28+01:00
; #@! TF.GenerationSoftware,Kicad,Pcbnew,(6.0.7)
; #@! TF.FileFunction,MixedPlating,1,4
FMAT,2
METRIC
; #@! TA.AperFunction,Plated,PTH,ViaDrill
T1C0.300
; #@! TA.AperFunction,Plated,PTH,ViaDrill
T2C0.350
; #@! TA.AperFunction,Plated,PTH,ViaDrill
T3C0.400
; #@! TA.AperFunction,Plated,PTH,ViaDrill
T4C0.500
; #@! TA.AperFunction,Plated,PTH,ViaDrill
T5C0.600
; #@! TA.AperFunction,Plated,PTH,ViaDrill
T6C0.800
; #@! TA.AperFunction,Plated,PTH,ViaDrill
T7C1.000
; #@! TA.AperFunction,Plated,PTH,ComponentDrill
T8C1.000
; #@! TA.AperFunction,Plated,PTH,ViaDrill
T9C1.500
; #@! TA.AperFunction,Plated,PTH,ViaDrill
T10C1.600
; #@! TA.AperFunction,Plated,PTH,ViaDrill
T11C2.000
; #@! TA.AperFunction,NonPlated,NPTH,ComponentDrill
T12C1.250
%
G90
G05
T1
X111.29Y-112.13
X111.29Y-113.73
X111.29Y-115.672
X111.29Y-116.688
X111.29Y-118.53
X111.29Y-120.371
X111.29Y-121.387
X111.29Y-122.53
X111.29Y-124.435
X111.29Y-128.499
X111.29Y-131.039
X111.29Y-132.93
X111.671Y-109.322
X112.687Y-134.087
X113.83Y-129.007
X114.084Y-118.212
X114.084Y-127.356
X114.592Y-114.148
X114.719Y-123.927
X115.1Y-120.879
X115.608Y-115.291
X115.735Y-124.181
X115.862Y-121.768
X115.989Y-116.307
X116.37Y-119.863
X116.624Y-125.197
X116.878Y-129.134
X117.005Y-115.672
X117.005Y-126.34
X117.386Y-124.054
X117.767Y-132.817
X118.021Y-119.355
X118.148Y-115.799
X118.148Y-131.42
X118.161Y-118.466
X118.656Y-125.832
X118.783Y-117.069
X119.164Y-112.116
X119.164Y-118.974
X119.164Y-127.356
X119.164Y-133.579
X119.291Y-113.513
X119.799Y-84.176
X120.053Y-124.562
X120.053Y-128.626
X120.18Y-112.624
X120.18Y-131.801
X120.561Y-133.833
X120.942Y-126.721
X121.069Y-125.705
X121.45Y-127.61
X121.45Y-131.674
X122.11Y-83.287
X122.707Y-143.332
X122.847Y-128.753
X122.974Y-133.579
X124.104Y-141.046
X124.879Y-108.522
X125.451Y-122.53
X125.641Y-112.624
X125.641Y-133.579
X125.768Y-114.656
X125.768Y-117.323
X126.188Y-120.371
X126.442Y-115.418
X126.53Y-112.624
X126.53Y-126.467
X126.53Y-128.753
X126.657Y-117.323
X126.657Y-122.403
X126.784Y-110.338
X127.419Y-131.674
X127.673Y-114.148
X128.308Y-108.56
X128.839Y-138.785
X129.197Y-62.713
X129.832Y-119.482
X129.959Y-84.938
X130.213Y-112.624
X130.213Y-122.193
X130.213Y-126.34
X130.34Y-117.323
X130.467Y-135.865
X130.581Y-143.332
X130.848Y-115.164
X130.848Y-128.753
X131.229Y-130.531
X131.439Y-69.875
X131.439Y-74.825
X131.469Y-67.455
X131.61Y-110.592
X131.759Y-68.635
X131.991Y-108.687
X131.991Y-109.703
X133.642Y-133.198
X133.706Y-143.612
X133.769Y-116.942
X134.277Y-129.007
X134.536Y-108.56
X134.785Y-111.862
X134.785Y-126.721
X134.912Y-128.118
X135.039Y-112.751
X135.039Y-116.307
X135.547Y-119.99
X135.547Y-127.356
X135.801Y-121.387
X135.928Y-111.862
X136.14Y-136.8
X136.144Y-115.875
X136.182Y-104.75
X136.182Y-112.878
X136.309Y-120.625
X136.309Y-122.149
X136.373Y-116.942
X136.436Y-118.72
X136.563Y-114.021
X136.563Y-132.944
X136.728Y-141.656
X136.817Y-115.037
X136.944Y-86.462
X136.944Y-88.748
X136.944Y-125.832
X137.008Y-117.831
X137.071Y-107.925
X137.325Y-121.26
X137.706Y-112.116
X137.706Y-115.926
X137.706Y-132.944
X137.706Y-139.09
X137.96Y-117.958
X137.96Y-128.626
X138.214Y-120.244
X138.341Y-111.354
X138.341Y-122.276
X138.341Y-137.643
X138.468Y-123.927
X138.595Y-87.732
X138.595Y-90.526
X138.595Y-139.065
X138.849Y-129.134
X138.976Y-113.894
X139.103Y-125.07
X139.268Y-80.772
X139.357Y-78.842
X139.37Y-139.649
X139.471Y-82.753
X139.484Y-115.926
X139.484Y-129.896
X139.992Y-126.086
X140.119Y-137.897
X140.5Y-129.388
X141.021Y-143.154
X141.046Y-82.194
X141.262Y-127.356
X141.783Y-142.037
X142.024Y-132.944
X142.113Y-78.892
X142.2Y-128.85
X142.265Y-80.823
X142.519Y-83.109
X142.659Y-111.354
X142.786Y-129.642
X143.027Y-81.434
X143.04Y-126.086
X143.167Y-133.071
X143.167Y-137.008
X143.548Y-108.56
X143.548Y-111.608
X143.815Y-144.678
X143.891Y-81.026
X144.3Y-129.45
X144.31Y-127.15
X144.564Y-111.608
X144.945Y-104.242
X145.199Y-138.659
X145.58Y-111.354
X145.58Y-126.086
X145.834Y-115.926
X145.834Y-129.642
X145.961Y-133.198
X146.469Y-107.671
X146.596Y-78.588
X146.596Y-103.988
X146.596Y-111.354
X146.71Y-144.424
X147.066Y-95.377
X147.091Y-94.107
X147.104Y-82.652
X147.269Y-73.304
X147.269Y-96.622
X147.358Y-112.624
X147.358Y-129.642
X147.612Y-124.308
X147.612Y-127.2
X147.739Y-111.354
X147.828Y-99.162
X148.172Y-78.17
X148.247Y-95.606
X148.374Y-92.177
X148.374Y-129.642
X148.501Y-132.944
X148.501Y-139.548
X148.666Y-80.543
X148.755Y-101.194
X148.755Y-136.754
X149.136Y-119.99
X149.136Y-121.26
X149.136Y-126.086
X149.174Y-77.953
X149.225Y-99.187
X149.517Y-129.642
X149.898Y-119.101
X150.152Y-80.62
X150.152Y-121.514
X150.152Y-122.784
X150.152Y-123.8
X150.152Y-124.689
X150.22Y-67.507
X150.406Y-99.162
X150.533Y-110.782
X150.533Y-111.735
X150.533Y-114.402
X150.66Y-129.642
X150.787Y-107.671
X150.914Y-115.672
X151.168Y-76.587
X151.168Y-103.988
X151.295Y-132.944
X151.709Y-116.855
X151.72Y-67.507
X151.729Y-117.795
X152.057Y-113.005
X152.129Y-118.815
X152.179Y-126.245
X152.184Y-127.864
X152.199Y-124.185
X152.311Y-135.992
X152.654Y-80.543
X153.22Y-67.507
X153.327Y-132.817
X153.708Y-104.242
X154.089Y-103.099
X154.216Y-76.587
X154.216Y-101.956
X154.47Y-135.992
X154.72Y-67.507
X154.978Y-119.736
X154.978Y-127.991
X155.009Y-124.475
X155.359Y-113.259
X155.486Y-82.652
X155.486Y-111.354
X155.55Y-117.196
X155.56Y-118.82
X155.613Y-86.716
X155.74Y-129.769
X155.867Y-126.213
X155.981Y-74.625
X155.999Y-103.305
X156.04Y-72.5
X156.169Y-104.545
X156.169Y-105.725
X156.693Y-94.031
X156.73Y-76.46
X156.883Y-106.909
X156.883Y-126.594
X157.01Y-117.196
X157.264Y-90.145
X157.264Y-116.18
X157.72Y-67.507
X157.912Y-76.124
X158.407Y-85.827
X158.661Y-114.275
X158.788Y-124.689
X159.129Y-119.745
X159.169Y-128.118
X159.169Y-130.023
X159.199Y-89.255
X159.423Y-73.508
X159.423Y-80.62
X159.423Y-114.783
X159.423Y-115.799
X159.7Y-71.25
X159.804Y-113.449
X159.931Y-81.382
X160.058Y-83.414
X160.185Y-119.609
X160.325Y-139.548
X160.439Y-121.133
X160.439Y-122.784
X160.693Y-86.462
X161.582Y-131.801
X161.836Y-87.478
X161.836Y-123.546
X162.001Y-92.812
X162.433Y-79.959
X162.611Y-141.122
X162.979Y-123.546
X163.3Y-72.5
X163.398Y-73.482
X163.45Y-71.4
X163.614Y-83.414
X163.614Y-85.446
X163.627Y-144.424
X163.729Y-117.855
X163.754Y-79.654
X164.084Y-140.665
X164.503Y-139.167
X164.503Y-142.977
X165.011Y-135.357
X165.252Y-145.44
X165.392Y-128.499
X166.027Y-131.42
X166.154Y-89.002
X166.154Y-90.526
X166.281Y-117.831
X166.37Y-146.964
X166.408Y-81.382
X166.535Y-86.462
X166.916Y-91.542
X166.916Y-93.066
X167.429Y-122.325
X167.564Y-77.648
X168.186Y-113.132
X168.313Y-131.42
X168.567Y-135.357
X168.589Y-123.335
X168.821Y-94.209
X169.329Y-138.405
X169.71Y-113.132
X170.231Y-145.186
X170.345Y-115.418
X171.234Y-113.132
X171.709Y-123.465
X172.631Y-131.166
X173.139Y-128.626
X174.028Y-118.974
X175.806Y-113.64
X177.069Y-123.815
X177.33Y-113.386
X177.33Y-117.958
X177.457Y-115.672
X177.584Y-116.688
X178.664Y-113.335
X178.749Y-122.405
X178.981Y-128.118
X179.68Y-145.199
X179.997Y-114.402
X180.061Y-113.157
X180.137Y-118.77
X180.975Y-120.65
X181.153Y-114.757
X181.267Y-146.787
X181.394Y-76.302
X182.41Y-145.644
X182.789Y-123.675
X182.809Y-122.405
X183.489Y-124.935
X183.553Y-69.444
X183.68Y-77.826
X184.315Y-140.31
X184.823Y-76.81
X184.823Y-78.588
X185.077Y-141.834
X185.331Y-145.644
X187.109Y-69.444
X187.3Y-116.307
X187.3Y-120.955
T2
X138.976Y-112.878
X140.754Y-113.64
X141.008Y-115.164
X163.106Y-89.764
X166.408Y-111.608
X167.17Y-110.846
T3
X110.147Y-134.722
X110.147Y-135.992
X110.147Y-137.262
X120.752Y-138.766
X120.752Y-139.909
X120.752Y-141.052
X131.899Y-60.938
X132.979Y-60.945
X132.999Y-62.005
X133.833Y-77.978
X133.896Y-79.731
X133.896Y-81.89
X133.896Y-84.049
X134.76Y-138.52
X134.912Y-77.978
X134.912Y-79.731
X134.912Y-81.89
X134.912Y-84.049
X135.53Y-137.75
X135.941Y-142.418
X154.978Y-131.039
X156.121Y-131.039
X156.248Y-133.579
X157.391Y-133.579
X160.185Y-128.245
X160.185Y-130.023
X161.328Y-128.245
X161.328Y-130.023
X162.471Y-128.245
X164.503Y-122.276
X164.503Y-123.546
X166.662Y-83.795
X166.662Y-127.102
X166.662Y-130.15
X167.932Y-127.102
X167.932Y-130.15
X169.202Y-127.102
X169.202Y-130.15
X170.599Y-118.085
X170.853Y-83.795
X171.615Y-118.085
X174.282Y-80.239
X174.32Y-77.419
X174.625Y-71.65
X174.625Y-73.0
X176.568Y-66.396
X178.079Y-73.406
X180.124Y-76.81
X180.124Y-79.604
X182.199Y-126.848
X183.319Y-126.848
X184.328Y-126.848
X186.385Y-110.515
T4
X112.559Y-143.895
X114.198Y-108.585
X114.198Y-109.957
X115.15Y-143.921
X116.789Y-108.585
X116.789Y-109.982
X149.504Y-84.938
X151.422Y-83.02
X151.422Y-86.83
X153.416Y-84.938
X165.9Y-148.311
X170.472Y-147.041
X176.568Y-132.563
X176.568Y-135.357
X177.838Y-132.563
X177.838Y-135.357
X182.156Y-129.261
X184.442Y-132.055
T5
X140.754Y-120.498
X143.04Y-118.212
X143.04Y-122.784
X145.326Y-120.498
T6
X149.644Y-83.16
X149.644Y-86.716
X153.2Y-83.16
X153.2Y-86.716
T7
X141.008Y-118.466
X141.008Y-122.53
X145.072Y-118.466
X145.072Y-122.53
T8
X123.239Y-65.465
X123.239Y-68.005
X123.239Y-70.545
X123.239Y-73.085
X123.239Y-75.625
X125.779Y-65.465
X125.779Y-68.005
X125.779Y-70.545
X125.779Y-73.085
X125.779Y-75.625
X177.838Y-61.551
X177.838Y-68.701
T9
X173.774Y-115.418
T10
X151.422Y-84.938
T11
X143.04Y-120.498
T12
X149.72Y-63.856
X158.72Y-63.856
T0
M30
