M48
; DRILL file {KiCad (6.0.7)} date Wed Aug 24 00:27:53 2022
; FORMAT={-:-/ absolute / metric / decimal}
; #@! TF.CreationDate,2022-08-24T00:27:53+02:00
; #@! TF.GenerationSoftware,Kicad,Pcbnew,(6.0.7)
; #@! TF.FileFunction,MixedPlating,1,4
FMAT,2
METRIC
; #@! TA.AperFunction,Plated,PTH,ViaDrill
T1C0.300
; #@! TA.AperFunction,Plated,PTH,ViaDrill
T2C0.350
; #@! TA.AperFunction,Plated,PTH,ViaDrill
T3C0.400
; #@! TA.AperFunction,Plated,PTH,ViaDrill
T4C0.500
; #@! TA.AperFunction,Plated,PTH,ViaDrill
T5C0.600
; #@! TA.AperFunction,Plated,PTH,ViaDrill
T6C0.800
; #@! TA.AperFunction,Plated,PTH,ViaDrill
T7C1.000
; #@! TA.AperFunction,Plated,PTH,ComponentDrill
T8C1.000
; #@! TA.AperFunction,Plated,PTH,ComponentDrill
T9C1.250
; #@! TA.AperFunction,Plated,PTH,ComponentDrill
T10C1.300
; #@! TA.AperFunction,Plated,PTH,ViaDrill
T11C1.500
; #@! TA.AperFunction,Plated,PTH,ViaDrill
T12C1.600
; #@! TA.AperFunction,Plated,PTH,ViaDrill
T13C2.000
%
G90
G05
T1
X111.29Y-112.13
X111.29Y-113.73
X111.29Y-115.672
X111.29Y-116.688
X111.29Y-118.53
X111.29Y-120.371
X111.29Y-121.387
X111.29Y-122.53
X111.29Y-124.435
X111.29Y-128.499
X111.29Y-131.039
X111.29Y-132.93
X111.671Y-109.322
X112.687Y-134.087
X113.83Y-129.007
X114.084Y-118.212
X114.084Y-127.356
X114.592Y-114.148
X114.719Y-123.927
X115.1Y-120.879
X115.608Y-115.291
X115.735Y-124.181
X115.862Y-121.768
X115.989Y-116.307
X116.37Y-119.863
X116.624Y-125.197
X116.878Y-129.134
X117.005Y-115.672
X117.005Y-126.34
X117.132Y-140.564
X117.386Y-124.054
X117.767Y-132.817
X118.021Y-119.355
X118.148Y-115.799
X118.148Y-131.42
X118.161Y-118.466
X118.529Y-138.278
X118.656Y-125.832
X118.783Y-117.069
X119.164Y-112.116
X119.164Y-118.974
X119.164Y-127.356
X119.164Y-133.579
X119.291Y-113.513
X119.799Y-84.176
X120.053Y-124.562
X120.053Y-128.626
X120.18Y-112.624
X120.18Y-131.801
X120.561Y-133.833
X120.942Y-126.721
X121.069Y-125.705
X121.45Y-127.61
X121.45Y-131.674
X122.11Y-83.287
X122.847Y-128.753
X122.974Y-133.579
X124.879Y-108.522
X125.006Y-140.564
X125.451Y-122.53
X125.641Y-112.624
X125.641Y-133.579
X125.768Y-114.656
X125.768Y-117.323
X126.188Y-120.371
X126.442Y-115.418
X126.53Y-112.624
X126.53Y-126.467
X126.53Y-128.753
X126.657Y-117.323
X126.657Y-122.403
X126.784Y-110.338
X127.165Y-79.223
X127.419Y-131.674
X127.673Y-114.148
X128.308Y-108.56
X129.197Y-62.713
X129.324Y-142.596
X129.578Y-138.786
X129.832Y-119.482
X129.959Y-84.938
X130.086Y-67.666
X130.213Y-112.624
X130.213Y-122.193
X130.213Y-126.34
X130.214Y-73.799
X130.34Y-117.323
X130.467Y-135.865
X130.848Y-115.164
X130.848Y-128.753
X131.229Y-68.809
X131.229Y-130.531
X131.61Y-110.592
X131.991Y-108.687
X131.991Y-109.703
X133.642Y-133.198
X133.769Y-116.942
X134.277Y-129.007
X134.536Y-108.56
X134.785Y-111.862
X134.785Y-126.721
X134.912Y-128.118
X135.039Y-112.751
X135.039Y-116.307
X135.547Y-119.99
X135.547Y-127.356
X135.801Y-121.387
X135.928Y-111.862
X136.14Y-136.8
X136.144Y-115.875
X136.182Y-104.75
X136.182Y-112.878
X136.309Y-120.625
X136.309Y-122.149
X136.373Y-116.942
X136.436Y-118.72
X136.563Y-114.021
X136.563Y-132.944
X136.754Y-143.053
X136.817Y-115.037
X136.944Y-86.462
X136.944Y-88.748
X136.944Y-125.832
X137.008Y-117.831
X137.071Y-107.925
X137.325Y-121.26
X137.706Y-112.116
X137.706Y-115.926
X137.706Y-132.944
X137.706Y-140.818
X137.96Y-117.958
X137.96Y-128.626
X138.214Y-120.244
X138.341Y-111.354
X138.341Y-122.276
X138.341Y-137.643
X138.468Y-123.927
X138.595Y-87.732
X138.595Y-90.526
X138.595Y-140.818
X138.849Y-129.134
X138.976Y-113.894
X139.103Y-80.62
X139.103Y-125.07
X139.357Y-78.588
X139.451Y-140.818
X139.484Y-82.652
X139.484Y-115.926
X139.484Y-129.896
X139.992Y-126.086
X140.119Y-137.897
X140.5Y-129.388
X141.008Y-82.188
X141.021Y-143.154
X141.122Y-142.037
X141.262Y-127.356
X141.643Y-78.461
X142.024Y-132.944
X142.2Y-128.85
X142.278Y-83.033
X142.659Y-111.354
X142.786Y-81.434
X142.786Y-129.642
X143.04Y-126.086
X143.167Y-133.071
X143.167Y-137.008
X143.548Y-108.56
X143.548Y-111.608
X143.675Y-81.001
X143.815Y-144.678
X144.3Y-129.45
X144.31Y-127.15
X144.564Y-111.608
X144.691Y-79.604
X144.945Y-104.242
X145.199Y-138.659
X145.326Y-78.549
X145.58Y-111.354
X145.58Y-126.086
X145.834Y-115.926
X145.834Y-129.642
X145.961Y-133.198
X146.469Y-107.671
X146.596Y-78.588
X146.596Y-103.988
X146.596Y-111.354
X146.71Y-144.424
X146.85Y-94.336
X146.85Y-95.352
X146.85Y-97.003
X147.104Y-82.652
X147.358Y-99.162
X147.358Y-112.624
X147.358Y-129.642
X147.485Y-73.635
X147.612Y-124.308
X147.612Y-127.2
X147.739Y-111.354
X148.247Y-95.606
X148.374Y-92.177
X148.374Y-129.642
X148.501Y-132.944
X148.501Y-139.548
X148.628Y-80.493
X148.755Y-77.572
X148.755Y-101.194
X148.755Y-136.754
X148.882Y-99.162
X149.136Y-119.99
X149.136Y-121.26
X149.136Y-126.086
X149.517Y-129.642
X149.898Y-119.101
X150.152Y-80.62
X150.152Y-121.514
X150.152Y-122.784
X150.152Y-123.8
X150.152Y-124.689
X150.406Y-99.162
X150.533Y-110.782
X150.533Y-111.735
X150.533Y-114.402
X150.66Y-129.642
X150.787Y-107.671
X150.914Y-115.672
X150.914Y-116.942
X150.914Y-125.578
X151.168Y-74.587
X151.168Y-103.988
X151.295Y-132.944
X151.422Y-117.958
X151.52Y-119.01
X151.549Y-124.816
X151.97Y-65.507
X152.057Y-113.005
X152.184Y-126.213
X152.184Y-127.864
X152.311Y-135.992
X152.692Y-80.493
X153.327Y-132.817
X153.47Y-65.507
X153.708Y-104.242
X154.089Y-103.099
X154.216Y-74.587
X154.216Y-101.956
X154.47Y-135.992
X154.97Y-65.507
X154.978Y-119.736
X154.978Y-127.991
X155.359Y-113.259
X155.486Y-82.652
X155.486Y-111.354
X155.55Y-117.196
X155.56Y-118.82
X155.613Y-86.716
X155.74Y-129.769
X155.867Y-126.213
X155.994Y-74.587
X155.994Y-103.226
X156.0Y-72.492
X156.756Y-76.429
X156.883Y-103.48
X156.883Y-104.623
X156.883Y-105.766
X156.883Y-106.909
X156.883Y-126.594
X157.01Y-78.969
X157.01Y-117.196
X157.264Y-90.145
X157.264Y-94.209
X157.264Y-116.18
X157.772Y-76.302
X158.407Y-85.827
X158.661Y-114.275
X158.788Y-124.689
X159.169Y-128.118
X159.169Y-130.023
X159.296Y-119.101
X159.423Y-73.508
X159.423Y-80.62
X159.423Y-114.783
X159.423Y-115.799
X159.677Y-69.698
X159.804Y-113.449
X159.931Y-81.382
X160.058Y-83.414
X160.058Y-89.383
X160.185Y-119.609
X160.325Y-139.548
X160.439Y-121.133
X160.439Y-122.784
X160.693Y-86.462
X161.582Y-131.801
X161.773Y-93.129
X161.836Y-87.478
X161.836Y-123.546
X162.344Y-79.096
X162.611Y-141.122
X162.979Y-123.546
X163.614Y-72.492
X163.614Y-83.414
X163.614Y-85.446
X163.627Y-144.424
X164.084Y-140.665
X164.122Y-70.714
X164.503Y-139.167
X164.503Y-142.977
X165.011Y-135.357
X165.138Y-72.619
X165.252Y-145.44
X165.392Y-128.499
X166.027Y-131.42
X166.154Y-79.604
X166.154Y-89.002
X166.154Y-90.526
X166.281Y-117.831
X166.37Y-146.964
X166.408Y-81.382
X166.535Y-86.462
X166.789Y-78.588
X166.916Y-91.542
X166.916Y-93.066
X167.424Y-122.149
X168.186Y-113.132
X168.313Y-131.42
X168.44Y-125.832
X168.567Y-135.357
X168.821Y-94.209
X169.329Y-138.405
X169.71Y-113.132
X170.231Y-145.186
X170.345Y-115.418
X171.234Y-113.132
X171.742Y-125.832
X172.631Y-131.166
X173.139Y-128.626
X174.028Y-118.974
X175.806Y-113.64
X177.076Y-124.562
X177.33Y-113.386
X177.33Y-117.958
X177.457Y-115.672
X177.584Y-116.688
X177.965Y-123.546
X178.981Y-128.118
X179.68Y-145.199
X179.997Y-114.402
X180.124Y-110.592
X180.505Y-117.45
X181.267Y-146.787
X181.394Y-76.429
X182.283Y-125.832
X182.41Y-145.644
X182.791Y-113.513
X182.791Y-115.418
X182.918Y-117.958
X183.553Y-69.444
X183.68Y-77.826
X184.315Y-140.31
X184.696Y-116.434
X184.823Y-76.81
X184.823Y-78.588
X185.077Y-141.834
X185.331Y-145.644
X186.982Y-111.862
X186.982Y-125.451
X187.109Y-69.444
X187.655Y-117.475
T2
X138.976Y-112.878
X140.754Y-113.64
X141.008Y-115.164
X163.106Y-89.764
X166.408Y-111.608
X167.17Y-110.846
T3
X110.147Y-134.722
X110.147Y-135.992
X110.147Y-137.262
X115.227Y-135.992
X115.227Y-137.135
X115.227Y-138.278
X131.61Y-60.938
X132.753Y-60.931
X132.753Y-62.078
X133.896Y-77.572
X133.896Y-79.731
X133.896Y-81.89
X133.896Y-84.049
X134.76Y-138.52
X134.912Y-77.572
X134.912Y-79.731
X134.912Y-81.89
X134.912Y-84.049
X135.53Y-137.75
X135.928Y-139.294
X135.928Y-142.088
X150.47Y-65.507
X154.978Y-131.039
X156.121Y-131.039
X156.248Y-133.579
X157.391Y-133.579
X160.185Y-128.245
X160.185Y-130.023
X161.328Y-128.245
X161.328Y-130.023
X162.471Y-128.245
X164.503Y-122.276
X164.503Y-123.546
X166.662Y-83.795
X166.662Y-127.102
X166.662Y-130.15
X167.932Y-127.102
X167.932Y-130.15
X168.694Y-76.556
X169.202Y-127.102
X169.202Y-130.15
X169.71Y-76.556
X170.599Y-118.085
X170.853Y-83.795
X171.234Y-75.159
X171.615Y-118.085
X172.504Y-75.159
X174.282Y-76.81
X174.282Y-80.239
X174.55Y-71.65
X174.55Y-73.0
X176.568Y-66.396
X178.092Y-73.508
X179.997Y-111.735
X180.124Y-76.81
X180.124Y-79.604
X181.648Y-127.61
X182.918Y-127.61
X184.188Y-127.61
T4
X110.401Y-139.929
X110.401Y-144.755
X112.179Y-139.929
X112.179Y-144.755
X113.068Y-108.433
X113.068Y-109.703
X113.957Y-139.929
X113.957Y-144.755
X119.164Y-108.433
X119.164Y-109.703
X149.504Y-84.938
X151.422Y-83.02
X151.422Y-86.83
X153.416Y-84.938
X165.9Y-148.311
X170.472Y-147.041
X176.568Y-132.563
X176.568Y-135.357
X177.838Y-132.563
X177.838Y-135.357
X182.156Y-129.261
X184.442Y-132.055
T5
X140.754Y-120.498
X143.04Y-118.212
X143.04Y-122.784
X145.326Y-120.498
T6
X149.644Y-83.16
X149.644Y-86.716
X153.2Y-83.16
X153.2Y-86.716
T7
X141.008Y-118.466
X141.008Y-122.53
X145.072Y-118.466
X145.072Y-122.53
T8
X122.212Y-65.38
X122.212Y-67.92
X122.212Y-70.46
X122.212Y-73.0
X122.212Y-75.54
X124.752Y-65.38
X124.752Y-67.92
X124.752Y-70.46
X124.752Y-73.0
X124.752Y-75.54
T9
X177.838Y-61.551
X177.838Y-68.701
T10
X146.87Y-61.639
X147.47Y-66.539
X161.97Y-66.539
X162.57Y-61.639
T11
X173.774Y-115.418
T12
X151.422Y-84.938
T13
X143.04Y-120.498
T0
M30
