%TF.GenerationSoftware,KiCad,Pcbnew,(6.0.7)*%
%TF.CreationDate,2023-11-05T22:30:26+01:00*%
%TF.ProjectId,n64adv2,6e363461-6476-4322-9e6b-696361645f70,20231105*%
%TF.SameCoordinates,Original*%
%TF.FileFunction,Soldermask,Bot*%
%TF.FilePolarity,Negative*%
%FSLAX46Y46*%
G04 Gerber Fmt 4.6, Leading zero omitted, Abs format (unit mm)*
G04 Created by KiCad (PCBNEW (6.0.7)) date 2023-11-05 22:30:26*
%MOMM*%
%LPD*%
G01*
G04 APERTURE LIST*
%ADD10C,0.100000*%
%ADD11C,1.574800*%
%ADD12C,1.250000*%
%ADD13C,1.952400*%
G04 APERTURE END LIST*
D10*
X172516800Y-114147600D02*
X175006000Y-114147600D01*
X175006000Y-114147600D02*
X175006000Y-116687600D01*
X175006000Y-116687600D02*
X172516800Y-116687600D01*
X172516800Y-116687600D02*
X172516800Y-114147600D01*
G36*
X172516800Y-114147600D02*
G01*
X175006000Y-114147600D01*
X175006000Y-116687600D01*
X172516800Y-116687600D01*
X172516800Y-114147600D01*
G37*
X118059200Y-141376400D02*
X123494800Y-141376400D01*
X123494800Y-141376400D02*
X123494800Y-143814800D01*
X123494800Y-143814800D02*
X118059200Y-143814800D01*
X118059200Y-143814800D02*
X118059200Y-141376400D01*
G36*
X118059200Y-141376400D02*
G01*
X123494800Y-141376400D01*
X123494800Y-143814800D01*
X118059200Y-143814800D01*
X118059200Y-141376400D01*
G37*
X148793200Y-82296000D02*
X154025600Y-82296000D01*
X154025600Y-82296000D02*
X154025600Y-87579200D01*
X154025600Y-87579200D02*
X148793200Y-87579200D01*
X148793200Y-87579200D02*
X148793200Y-82296000D01*
G36*
X148793200Y-82296000D02*
G01*
X154025600Y-82296000D01*
X154025600Y-87579200D01*
X148793200Y-87579200D01*
X148793200Y-82296000D01*
G37*
X139649200Y-117094000D02*
X146405600Y-117094000D01*
X146405600Y-117094000D02*
X146405600Y-123901200D01*
X146405600Y-123901200D02*
X139649200Y-123901200D01*
X139649200Y-123901200D02*
X139649200Y-117094000D01*
G36*
X139649200Y-117094000D02*
G01*
X146405600Y-117094000D01*
X146405600Y-123901200D01*
X139649200Y-123901200D01*
X139649200Y-117094000D01*
G37*
D11*
%TO.C,X2*%
X125779000Y-75625200D03*
X123239000Y-75625200D03*
X125779000Y-73085200D03*
X123239000Y-73085200D03*
X125779000Y-70545200D03*
X123239000Y-70545200D03*
X125779000Y-68005200D03*
X123239000Y-68005200D03*
X125779000Y-65465200D03*
X123239000Y-65465200D03*
%TD*%
D12*
%TO.C,X3*%
X149720100Y-63855600D03*
X158720100Y-63855600D03*
%TD*%
D13*
%TO.C,X5*%
X177838100Y-61550600D03*
X177838100Y-68700600D03*
%TD*%
M02*
