%TF.GenerationSoftware,KiCad,Pcbnew,(6.0.7)*%
%TF.CreationDate,2022-11-20T23:25:50+01:00*%
%TF.ProjectId,n64adv2,6e363461-6476-4322-9e6b-696361645f70,20220729(c)*%
%TF.SameCoordinates,Original*%
%TF.FileFunction,Legend,Bot*%
%TF.FilePolarity,Positive*%
%FSLAX46Y46*%
G04 Gerber Fmt 4.6, Leading zero omitted, Abs format (unit mm)*
G04 Created by KiCad (PCBNEW (6.0.7)) date 2022-11-20 23:25:50*
%MOMM*%
%LPD*%
G01*
G04 APERTURE LIST*
%ADD10C,0.190500*%
G04 APERTURE END LIST*
D10*
X186508873Y-149052945D02*
X186508873Y-147973445D01*
X185892016Y-149052945D01*
X185892016Y-147973445D01*
X184915326Y-147973445D02*
X185120945Y-147973445D01*
X185223754Y-148024850D01*
X185275159Y-148076254D01*
X185377969Y-148230469D01*
X185429373Y-148436088D01*
X185429373Y-148847326D01*
X185377969Y-148950135D01*
X185326564Y-149001540D01*
X185223754Y-149052945D01*
X185018135Y-149052945D01*
X184915326Y-149001540D01*
X184863921Y-148950135D01*
X184812516Y-148847326D01*
X184812516Y-148590302D01*
X184863921Y-148487492D01*
X184915326Y-148436088D01*
X185018135Y-148384683D01*
X185223754Y-148384683D01*
X185326564Y-148436088D01*
X185377969Y-148487492D01*
X185429373Y-148590302D01*
X183887230Y-148333278D02*
X183887230Y-149052945D01*
X184144254Y-147922040D02*
X184401278Y-148693111D01*
X183733016Y-148693111D01*
X183373183Y-148744516D02*
X182859135Y-148744516D01*
X183475992Y-149052945D02*
X183116159Y-147973445D01*
X182756326Y-149052945D01*
X181933850Y-149052945D02*
X181933850Y-147973445D01*
X181933850Y-149001540D02*
X182036659Y-149052945D01*
X182242278Y-149052945D01*
X182345088Y-149001540D01*
X182396492Y-148950135D01*
X182447897Y-148847326D01*
X182447897Y-148538897D01*
X182396492Y-148436088D01*
X182345088Y-148384683D01*
X182242278Y-148333278D01*
X182036659Y-148333278D01*
X181933850Y-148384683D01*
X181522611Y-148333278D02*
X181265588Y-149052945D01*
X181008564Y-148333278D01*
X180648730Y-148076254D02*
X180597326Y-148024850D01*
X180494516Y-147973445D01*
X180237492Y-147973445D01*
X180134683Y-148024850D01*
X180083278Y-148076254D01*
X180031873Y-148179064D01*
X180031873Y-148281873D01*
X180083278Y-148436088D01*
X180700135Y-149052945D01*
X180031873Y-149052945D01*
X179826254Y-149155754D02*
X179003778Y-149155754D01*
X178798159Y-148076254D02*
X178746754Y-148024850D01*
X178643945Y-147973445D01*
X178386921Y-147973445D01*
X178284111Y-148024850D01*
X178232707Y-148076254D01*
X178181302Y-148179064D01*
X178181302Y-148281873D01*
X178232707Y-148436088D01*
X178849564Y-149052945D01*
X178181302Y-149052945D01*
X177513040Y-147973445D02*
X177410230Y-147973445D01*
X177307421Y-148024850D01*
X177256016Y-148076254D01*
X177204611Y-148179064D01*
X177153207Y-148384683D01*
X177153207Y-148641707D01*
X177204611Y-148847326D01*
X177256016Y-148950135D01*
X177307421Y-149001540D01*
X177410230Y-149052945D01*
X177513040Y-149052945D01*
X177615850Y-149001540D01*
X177667254Y-148950135D01*
X177718659Y-148847326D01*
X177770064Y-148641707D01*
X177770064Y-148384683D01*
X177718659Y-148179064D01*
X177667254Y-148076254D01*
X177615850Y-148024850D01*
X177513040Y-147973445D01*
X176741969Y-148076254D02*
X176690564Y-148024850D01*
X176587754Y-147973445D01*
X176330730Y-147973445D01*
X176227921Y-148024850D01*
X176176516Y-148076254D01*
X176125111Y-148179064D01*
X176125111Y-148281873D01*
X176176516Y-148436088D01*
X176793373Y-149052945D01*
X176125111Y-149052945D01*
X175713873Y-148076254D02*
X175662469Y-148024850D01*
X175559659Y-147973445D01*
X175302635Y-147973445D01*
X175199826Y-148024850D01*
X175148421Y-148076254D01*
X175097016Y-148179064D01*
X175097016Y-148281873D01*
X175148421Y-148436088D01*
X175765278Y-149052945D01*
X175097016Y-149052945D01*
X174428754Y-147973445D02*
X174325945Y-147973445D01*
X174223135Y-148024850D01*
X174171730Y-148076254D01*
X174120326Y-148179064D01*
X174068921Y-148384683D01*
X174068921Y-148641707D01*
X174120326Y-148847326D01*
X174171730Y-148950135D01*
X174223135Y-149001540D01*
X174325945Y-149052945D01*
X174428754Y-149052945D01*
X174531564Y-149001540D01*
X174582969Y-148950135D01*
X174634373Y-148847326D01*
X174685778Y-148641707D01*
X174685778Y-148384683D01*
X174634373Y-148179064D01*
X174582969Y-148076254D01*
X174531564Y-148024850D01*
X174428754Y-147973445D01*
X173400659Y-147973445D02*
X173297850Y-147973445D01*
X173195040Y-148024850D01*
X173143635Y-148076254D01*
X173092230Y-148179064D01*
X173040826Y-148384683D01*
X173040826Y-148641707D01*
X173092230Y-148847326D01*
X173143635Y-148950135D01*
X173195040Y-149001540D01*
X173297850Y-149052945D01*
X173400659Y-149052945D01*
X173503469Y-149001540D01*
X173554873Y-148950135D01*
X173606278Y-148847326D01*
X173657683Y-148641707D01*
X173657683Y-148384683D01*
X173606278Y-148179064D01*
X173554873Y-148076254D01*
X173503469Y-148024850D01*
X173400659Y-147973445D01*
X172680992Y-147973445D02*
X171961326Y-147973445D01*
X172423969Y-149052945D01*
X171601492Y-148076254D02*
X171550088Y-148024850D01*
X171447278Y-147973445D01*
X171190254Y-147973445D01*
X171087445Y-148024850D01*
X171036040Y-148076254D01*
X170984635Y-148179064D01*
X170984635Y-148281873D01*
X171036040Y-148436088D01*
X171652897Y-149052945D01*
X170984635Y-149052945D01*
X170470588Y-149052945D02*
X170264969Y-149052945D01*
X170162159Y-149001540D01*
X170110754Y-148950135D01*
X170007945Y-148795921D01*
X169956540Y-148590302D01*
X169956540Y-148179064D01*
X170007945Y-148076254D01*
X170059350Y-148024850D01*
X170162159Y-147973445D01*
X170367778Y-147973445D01*
X170470588Y-148024850D01*
X170521992Y-148076254D01*
X170573397Y-148179064D01*
X170573397Y-148436088D01*
X170521992Y-148538897D01*
X170470588Y-148590302D01*
X170367778Y-148641707D01*
X170162159Y-148641707D01*
X170059350Y-148590302D01*
X170007945Y-148538897D01*
X169956540Y-148436088D01*
X169185469Y-149464183D02*
X169236873Y-149412778D01*
X169339683Y-149258564D01*
X169391088Y-149155754D01*
X169442492Y-149001540D01*
X169493897Y-148744516D01*
X169493897Y-148538897D01*
X169442492Y-148281873D01*
X169391088Y-148127659D01*
X169339683Y-148024850D01*
X169236873Y-147870635D01*
X169185469Y-147819230D01*
X168311588Y-149001540D02*
X168414397Y-149052945D01*
X168620016Y-149052945D01*
X168722826Y-149001540D01*
X168774230Y-148950135D01*
X168825635Y-148847326D01*
X168825635Y-148538897D01*
X168774230Y-148436088D01*
X168722826Y-148384683D01*
X168620016Y-148333278D01*
X168414397Y-148333278D01*
X168311588Y-148384683D01*
X167951754Y-149464183D02*
X167900350Y-149412778D01*
X167797540Y-149258564D01*
X167746135Y-149155754D01*
X167694730Y-149001540D01*
X167643326Y-148744516D01*
X167643326Y-148538897D01*
X167694730Y-148281873D01*
X167746135Y-148127659D01*
X167797540Y-148024850D01*
X167900350Y-147870635D01*
X167951754Y-147819230D01*
M02*
