%TF.GenerationSoftware,KiCad,Pcbnew,(6.0.7)*%
%TF.CreationDate,2022-11-20T23:25:50+01:00*%
%TF.ProjectId,n64adv2,6e363461-6476-4322-9e6b-696361645f70,20220729(c)*%
%TF.SameCoordinates,Original*%
%TF.FileFunction,Profile,NP*%
%FSLAX46Y46*%
G04 Gerber Fmt 4.6, Leading zero omitted, Abs format (unit mm)*
G04 Created by KiCad (PCBNEW (6.0.7)) date 2022-11-20 23:25:50*
%MOMM*%
%LPD*%
G01*
G04 APERTURE LIST*
%TA.AperFunction,Profile*%
%ADD10C,0.050000*%
%TD*%
G04 APERTURE END LIST*
D10*
X160032700Y-98094800D02*
X160439100Y-97688400D01*
X188506100Y-149326600D02*
X187871100Y-149961600D01*
X173062900Y-74180700D02*
X167043100Y-74180700D01*
X143217900Y-60045600D02*
X165773100Y-60045600D01*
X162725100Y-114401600D02*
X163360100Y-115036600D01*
X166408100Y-60680600D02*
X166408100Y-73545700D01*
X173697900Y-60680600D02*
X173697900Y-73545700D01*
X166916100Y-109575600D02*
X187871100Y-109575600D01*
X118910100Y-60680600D02*
X119545100Y-60045600D01*
X132880100Y-86461600D02*
X132715000Y-86296500D01*
X132715000Y-86296500D02*
X119380000Y-86296500D01*
X163360100Y-115036600D02*
X164884100Y-115036600D01*
X179108100Y-60045600D02*
X174332900Y-60045600D01*
X174332900Y-60045600D02*
X173697900Y-60680600D01*
X142582900Y-60680600D02*
X143217900Y-60045600D01*
X164884100Y-115036600D02*
X165519100Y-114401600D01*
X187871100Y-109575600D02*
X188506100Y-110210600D01*
X187871100Y-149961600D02*
X165646100Y-149961600D01*
X165519100Y-114401600D02*
X165519100Y-110972600D01*
X142582900Y-73545700D02*
X142582900Y-60680600D01*
X160032700Y-109169200D02*
X162725100Y-111861600D01*
X118910100Y-85826600D02*
X119380000Y-86296500D01*
X179743100Y-60680600D02*
X179108100Y-60045600D01*
X179743100Y-62331600D02*
X179743100Y-60680600D01*
X135267700Y-73545700D02*
X135267700Y-61417200D01*
X188506100Y-63601600D02*
X188506100Y-97053400D01*
X164376100Y-145770600D02*
X109131100Y-145770600D01*
X165011100Y-149326600D02*
X165011100Y-146405600D01*
X132118100Y-107416600D02*
X139509500Y-100025200D01*
X142582900Y-73545700D02*
X141947900Y-74180700D01*
X166408100Y-73545700D02*
X167043100Y-74180700D01*
X139509500Y-93091000D02*
X132880100Y-86461600D01*
X188506100Y-63601600D02*
X187871100Y-62966600D01*
X135267700Y-60680600D02*
X134632700Y-60045600D01*
X188506100Y-97053400D02*
X187871100Y-97688400D01*
X165011100Y-146405600D02*
X164376100Y-145770600D01*
X118910100Y-85826600D02*
X118910100Y-60680600D01*
X132118100Y-107416600D02*
X109131100Y-107416600D01*
X135902700Y-74180700D02*
X135267700Y-73545700D01*
X108496100Y-145135600D02*
X108496100Y-108051600D01*
X166408100Y-60680600D02*
X165773100Y-60045600D01*
X173062900Y-74180700D02*
X173697900Y-73545700D01*
X187871100Y-62966600D02*
X180378100Y-62966600D01*
X135902700Y-74180700D02*
X141947900Y-74180700D01*
X160032700Y-98094800D02*
X160032700Y-109169200D01*
X180378100Y-62966600D02*
X179743100Y-62331600D01*
X139509500Y-100025200D02*
X139509500Y-93091000D01*
X165519100Y-110972600D02*
X166916100Y-109575600D01*
X109131100Y-107416600D02*
X108496100Y-108051600D01*
X119202200Y-60045600D02*
X134632700Y-60045600D01*
X188506100Y-110210600D02*
X188506100Y-149326600D01*
X162725100Y-111861600D02*
X162725100Y-114401600D01*
X165646100Y-149961600D02*
X165011100Y-149326600D01*
X109131100Y-145770600D02*
X108496100Y-145135600D01*
X187871100Y-97688400D02*
X160439100Y-97688400D01*
M02*
