G04 EAGLE Gerber RS-274X export*
G75*
%MOMM*%
%FSLAX34Y34*%
%LPD*%
%INLötstopplack unten*%
%IPPOS*%
%AMOC8*
5,1,8,0,0,1.08239X$1,22.5*%
G01*
%ADD10C,0.000000*%
%ADD11R,6.858000X6.858000*%
%ADD12C,2.152400*%
%ADD13C,2.252400*%
%ADD14C,1.652400*%
%ADD15C,2.552400*%
%ADD16C,1.352400*%
%ADD17C,3.152400*%
%ADD18C,1.952400*%

G36*
X454718Y623833D02*
X454718Y623833D01*
X454776Y623831D01*
X454858Y623853D01*
X454942Y623865D01*
X454995Y623889D01*
X455051Y623903D01*
X455124Y623946D01*
X455201Y623981D01*
X455246Y624019D01*
X455296Y624049D01*
X455354Y624110D01*
X455418Y624165D01*
X455450Y624213D01*
X455490Y624256D01*
X455529Y624331D01*
X455576Y624401D01*
X455593Y624457D01*
X455620Y624509D01*
X455631Y624577D01*
X455661Y624672D01*
X455664Y624772D01*
X455675Y624840D01*
X455675Y675640D01*
X455668Y675692D01*
X455669Y675719D01*
X455668Y675722D01*
X455669Y675756D01*
X455647Y675838D01*
X455635Y675922D01*
X455612Y675975D01*
X455597Y676031D01*
X455554Y676104D01*
X455519Y676181D01*
X455481Y676226D01*
X455452Y676276D01*
X455390Y676334D01*
X455336Y676398D01*
X455287Y676430D01*
X455244Y676470D01*
X455169Y676509D01*
X455099Y676556D01*
X455043Y676573D01*
X454991Y676600D01*
X454923Y676611D01*
X454828Y676641D01*
X454728Y676644D01*
X454660Y676655D01*
X403860Y676655D01*
X403802Y676647D01*
X403744Y676649D01*
X403662Y676627D01*
X403579Y676615D01*
X403525Y676592D01*
X403469Y676577D01*
X403396Y676534D01*
X403319Y676499D01*
X403274Y676461D01*
X403224Y676432D01*
X403166Y676370D01*
X403102Y676316D01*
X403070Y676267D01*
X403030Y676224D01*
X402991Y676149D01*
X402945Y676079D01*
X402927Y676023D01*
X402900Y675971D01*
X402889Y675903D01*
X402859Y675808D01*
X402856Y675708D01*
X402845Y675640D01*
X402845Y624840D01*
X402853Y624782D01*
X402851Y624724D01*
X402873Y624642D01*
X402885Y624559D01*
X402909Y624505D01*
X402923Y624449D01*
X402966Y624376D01*
X403001Y624299D01*
X403039Y624254D01*
X403069Y624204D01*
X403130Y624146D01*
X403185Y624082D01*
X403233Y624050D01*
X403276Y624010D01*
X403351Y623971D01*
X403421Y623925D01*
X403477Y623907D01*
X403529Y623880D01*
X403597Y623869D01*
X403692Y623839D01*
X403792Y623836D01*
X403860Y623825D01*
X454660Y623825D01*
X454718Y623833D01*
G37*
G36*
X148902Y63255D02*
X148902Y63255D01*
X148960Y63253D01*
X149042Y63275D01*
X149126Y63287D01*
X149179Y63311D01*
X149235Y63325D01*
X149308Y63368D01*
X149385Y63403D01*
X149430Y63441D01*
X149480Y63471D01*
X149538Y63532D01*
X149602Y63587D01*
X149634Y63635D01*
X149674Y63678D01*
X149713Y63753D01*
X149760Y63823D01*
X149777Y63879D01*
X149804Y63931D01*
X149815Y63999D01*
X149845Y64094D01*
X149848Y64194D01*
X149859Y64262D01*
X149859Y83058D01*
X149851Y83116D01*
X149853Y83174D01*
X149831Y83256D01*
X149819Y83340D01*
X149796Y83393D01*
X149781Y83449D01*
X149738Y83522D01*
X149703Y83599D01*
X149665Y83644D01*
X149636Y83694D01*
X149574Y83752D01*
X149520Y83816D01*
X149471Y83848D01*
X149428Y83888D01*
X149353Y83927D01*
X149283Y83974D01*
X149227Y83991D01*
X149175Y84018D01*
X149107Y84029D01*
X149012Y84059D01*
X148912Y84062D01*
X148844Y84073D01*
X94742Y84073D01*
X94684Y84065D01*
X94626Y84067D01*
X94544Y84045D01*
X94461Y84033D01*
X94407Y84010D01*
X94351Y83995D01*
X94278Y83952D01*
X94201Y83917D01*
X94156Y83879D01*
X94106Y83850D01*
X94048Y83788D01*
X93984Y83734D01*
X93952Y83685D01*
X93912Y83642D01*
X93873Y83567D01*
X93827Y83497D01*
X93809Y83441D01*
X93782Y83389D01*
X93771Y83321D01*
X93741Y83226D01*
X93738Y83126D01*
X93727Y83058D01*
X93727Y64262D01*
X93735Y64204D01*
X93733Y64146D01*
X93755Y64064D01*
X93767Y63981D01*
X93791Y63927D01*
X93805Y63871D01*
X93848Y63798D01*
X93883Y63721D01*
X93921Y63676D01*
X93951Y63626D01*
X94012Y63568D01*
X94067Y63504D01*
X94115Y63472D01*
X94158Y63432D01*
X94233Y63393D01*
X94303Y63347D01*
X94359Y63329D01*
X94411Y63302D01*
X94479Y63291D01*
X94574Y63261D01*
X94674Y63258D01*
X94742Y63247D01*
X148844Y63247D01*
X148902Y63255D01*
G37*
G36*
X664268Y333003D02*
X664268Y333003D01*
X664326Y333001D01*
X664408Y333023D01*
X664492Y333035D01*
X664545Y333059D01*
X664601Y333073D01*
X664674Y333116D01*
X664751Y333151D01*
X664796Y333189D01*
X664846Y333219D01*
X664904Y333280D01*
X664968Y333335D01*
X665000Y333383D01*
X665040Y333426D01*
X665079Y333501D01*
X665126Y333571D01*
X665143Y333627D01*
X665170Y333679D01*
X665181Y333747D01*
X665211Y333842D01*
X665214Y333942D01*
X665225Y334010D01*
X665225Y356870D01*
X665217Y356928D01*
X665219Y356986D01*
X665197Y357068D01*
X665185Y357152D01*
X665162Y357205D01*
X665147Y357261D01*
X665104Y357334D01*
X665069Y357411D01*
X665031Y357456D01*
X665002Y357506D01*
X664940Y357564D01*
X664886Y357628D01*
X664837Y357660D01*
X664794Y357700D01*
X664719Y357739D01*
X664649Y357786D01*
X664593Y357803D01*
X664541Y357830D01*
X664473Y357841D01*
X664378Y357871D01*
X664278Y357874D01*
X664210Y357885D01*
X641350Y357885D01*
X641292Y357877D01*
X641234Y357879D01*
X641152Y357857D01*
X641069Y357845D01*
X641015Y357822D01*
X640959Y357807D01*
X640886Y357764D01*
X640809Y357729D01*
X640764Y357691D01*
X640714Y357662D01*
X640656Y357600D01*
X640592Y357546D01*
X640560Y357497D01*
X640520Y357454D01*
X640481Y357379D01*
X640435Y357309D01*
X640417Y357253D01*
X640390Y357201D01*
X640379Y357133D01*
X640349Y357038D01*
X640346Y356938D01*
X640335Y356870D01*
X640335Y334010D01*
X640343Y333952D01*
X640341Y333894D01*
X640363Y333812D01*
X640375Y333729D01*
X640399Y333675D01*
X640413Y333619D01*
X640456Y333546D01*
X640491Y333469D01*
X640529Y333424D01*
X640559Y333374D01*
X640620Y333316D01*
X640675Y333252D01*
X640723Y333220D01*
X640766Y333180D01*
X640841Y333141D01*
X640911Y333095D01*
X640967Y333077D01*
X641019Y333050D01*
X641087Y333039D01*
X641182Y333009D01*
X641282Y333006D01*
X641350Y332995D01*
X664210Y332995D01*
X664268Y333003D01*
G37*
D10*
X558800Y41910D02*
X6350Y41910D01*
X0Y48260D01*
X0Y419100D01*
X236220Y425450D02*
X306070Y495300D01*
X306070Y572770D01*
X335280Y892810D02*
X341630Y899160D01*
X579120Y899160D01*
X800100Y527050D02*
X793750Y520700D01*
X519430Y520700D01*
X519430Y403860D01*
X542290Y381000D01*
X542290Y355600D01*
X548640Y349250D01*
X563880Y349250D01*
X570230Y355600D01*
X570230Y389890D01*
X584200Y403860D01*
X800100Y397510D02*
X800100Y6350D01*
X793750Y0D01*
X571500Y0D01*
X565150Y6350D01*
X565150Y35560D01*
X558800Y41910D01*
X584200Y403860D02*
X793750Y403860D01*
X800100Y397510D01*
X236220Y425450D02*
X6350Y425450D01*
X0Y419100D01*
X328930Y762000D02*
X335280Y768350D01*
X585470Y768350D02*
X591820Y762000D01*
X328930Y762000D02*
X279400Y762000D01*
X335280Y768350D02*
X335280Y892810D01*
X641350Y762000D02*
X647700Y768350D01*
X647700Y892810D01*
X641350Y762000D02*
X591820Y762000D01*
X585470Y892810D02*
X579120Y899160D01*
X585470Y892810D02*
X585470Y768350D01*
X800100Y863600D02*
X800100Y527050D01*
X243840Y635000D02*
X110490Y635000D01*
X104140Y641350D01*
X104140Y892810D01*
X110490Y899160D02*
X266700Y899160D01*
X110490Y899160D02*
X104140Y892810D01*
X273050Y768350D02*
X279400Y762000D01*
X273050Y768350D02*
X273050Y892810D01*
X266700Y899160D01*
X243840Y635000D02*
X306070Y572770D01*
X647700Y892810D02*
X654050Y899160D01*
X712470Y876300D02*
X718820Y869950D01*
X712470Y876300D02*
X712470Y892810D01*
X706120Y899160D01*
X654050Y899160D01*
X793750Y869950D02*
X800100Y863600D01*
X793750Y869950D02*
X718820Y869950D01*
D11*
X345440Y294640D03*
D12*
X534740Y834230D03*
X389740Y834230D03*
X540740Y883230D03*
X383740Y883230D03*
D13*
X693420Y884110D03*
X693420Y812610D03*
D14*
X162560Y744220D03*
X137160Y744220D03*
X162560Y769620D03*
X137160Y769620D03*
X162560Y795020D03*
X137160Y795020D03*
X162560Y820420D03*
X137160Y820420D03*
X162560Y845820D03*
X137160Y845820D03*
D15*
X429260Y650240D03*
D16*
X411480Y632460D03*
X411480Y668020D03*
X447040Y668020D03*
X447040Y632460D03*
D17*
X345440Y294640D03*
D14*
X325120Y314960D03*
X325120Y274320D03*
X365760Y274320D03*
X365760Y314960D03*
D18*
X652780Y345440D03*
M02*
