G04 EAGLE Gerber RS-274X export*
G75*
%MOMM*%
%FSLAX34Y34*%
%LPD*%
%INKantenfräsen*%
%IPPOS*%
%AMOC8*
5,1,8,0,0,1.08239X$1,22.5*%
G01*
%ADD10C,0.000000*%


D10*
X558800Y41910D02*
X6350Y41910D01*
X0Y48260D01*
X0Y419100D01*
X236220Y425450D02*
X306070Y495300D01*
X306070Y572770D01*
X335280Y892810D02*
X341630Y899160D01*
X579120Y899160D01*
X800100Y527050D02*
X793750Y520700D01*
X519430Y520700D01*
X519430Y403860D01*
X542290Y381000D01*
X542290Y355600D01*
X548640Y349250D01*
X563880Y349250D01*
X570230Y355600D01*
X570230Y389890D01*
X584200Y403860D01*
X800100Y397510D02*
X800100Y6350D01*
X793750Y0D01*
X571500Y0D01*
X565150Y6350D01*
X565150Y35560D01*
X558800Y41910D01*
X584200Y403860D02*
X793750Y403860D01*
X800100Y397510D01*
X236220Y425450D02*
X6350Y425450D01*
X0Y419100D01*
X328930Y762000D02*
X335280Y768350D01*
X585470Y768350D02*
X591820Y762000D01*
X328930Y762000D02*
X279400Y762000D01*
X335280Y768350D02*
X335280Y892810D01*
X641350Y762000D02*
X647700Y768350D01*
X647700Y892810D01*
X641350Y762000D02*
X591820Y762000D01*
X585470Y892810D02*
X579120Y899160D01*
X585470Y892810D02*
X585470Y768350D01*
X800100Y863600D02*
X800100Y527050D01*
X243840Y635000D02*
X110490Y635000D01*
X104140Y641350D01*
X104140Y892810D01*
X110490Y899160D02*
X266700Y899160D01*
X110490Y899160D02*
X104140Y892810D01*
X273050Y768350D02*
X279400Y762000D01*
X273050Y768350D02*
X273050Y892810D01*
X266700Y899160D01*
X243840Y635000D02*
X306070Y572770D01*
X647700Y892810D02*
X654050Y899160D01*
X712470Y876300D02*
X718820Y869950D01*
X712470Y876300D02*
X712470Y892810D01*
X706120Y899160D01*
X654050Y899160D01*
X793750Y869950D02*
X800100Y863600D01*
X793750Y869950D02*
X718820Y869950D01*
M02*
