G04 EAGLE Gerber RS-274X export*
G75*
%MOMM*%
%FSLAX34Y34*%
%LPD*%
%INLötstopplack top*%
%IPPOS*%
%AMOC8*
5,1,8,0,0,1.08239X$1,22.5*%
G01*
%ADD10C,0.000000*%
%ADD11R,2.692400X1.422400*%
%ADD12R,1.452400X1.652400*%
%ADD13R,1.652400X1.452400*%
%ADD14R,1.252400X1.152400*%
%ADD15R,1.152400X1.252400*%
%ADD16R,1.000000X0.600000*%
%ADD17R,4.652400X3.152400*%
%ADD18R,1.152400X0.752400*%
%ADD19R,1.152400X0.452400*%
%ADD20R,0.752400X1.152400*%
%ADD21R,0.452400X1.152400*%
%ADD22R,5.352400X5.352400*%
%ADD23R,1.252400X1.452400*%
%ADD24R,1.352400X0.702400*%
%ADD25R,0.702400X1.352400*%
%ADD26C,2.152400*%
%ADD27R,0.400000X2.400000*%
%ADD28R,1.752400X0.952400*%
%ADD29R,0.552400X1.702400*%
%ADD30R,0.352400X0.827400*%
%ADD31C,1.422400*%
%ADD32R,6.852400X6.852400*%
%ADD33R,1.125000X0.700000*%
%ADD34R,1.125000X0.400000*%
%ADD35R,0.700000X1.125000*%
%ADD36R,0.400000X1.125000*%
%ADD37R,1.052400X0.602400*%
%ADD38R,2.602400X2.602400*%
%ADD39R,0.402400X1.352400*%
%ADD40R,1.352400X0.402400*%
%ADD41R,1.152400X1.552400*%
%ADD42R,0.660400X1.041400*%
%ADD43R,0.152400X1.092200*%
%ADD44R,0.600000X1.000000*%
%ADD45R,1.352400X1.352400*%
%ADD46R,2.152400X3.452400*%
%ADD47R,1.252400X0.752400*%
%ADD48R,1.400000X0.400000*%
%ADD49R,3.900000X2.600000*%
%ADD50R,1.652400X2.652400*%
%ADD51R,2.652400X1.652400*%
%ADD52R,1.952400X0.552400*%
%ADD53C,2.252400*%
%ADD54C,1.652400*%
%ADD55R,0.752400X1.252400*%
%ADD56C,2.552400*%
%ADD57C,1.352400*%
%ADD58C,3.152400*%
%ADD59C,1.952400*%

G36*
X148902Y63255D02*
X148902Y63255D01*
X148960Y63253D01*
X149042Y63275D01*
X149126Y63287D01*
X149179Y63311D01*
X149235Y63325D01*
X149308Y63368D01*
X149385Y63403D01*
X149430Y63441D01*
X149480Y63471D01*
X149538Y63532D01*
X149602Y63587D01*
X149634Y63635D01*
X149674Y63678D01*
X149713Y63753D01*
X149760Y63823D01*
X149777Y63879D01*
X149804Y63931D01*
X149815Y63999D01*
X149845Y64094D01*
X149848Y64194D01*
X149859Y64262D01*
X149859Y83058D01*
X149851Y83116D01*
X149853Y83174D01*
X149831Y83256D01*
X149819Y83340D01*
X149796Y83393D01*
X149781Y83449D01*
X149738Y83522D01*
X149703Y83599D01*
X149665Y83644D01*
X149636Y83694D01*
X149574Y83752D01*
X149520Y83816D01*
X149471Y83848D01*
X149428Y83888D01*
X149353Y83927D01*
X149283Y83974D01*
X149227Y83991D01*
X149175Y84018D01*
X149107Y84029D01*
X149012Y84059D01*
X148912Y84062D01*
X148844Y84073D01*
X94742Y84073D01*
X94684Y84065D01*
X94626Y84067D01*
X94544Y84045D01*
X94461Y84033D01*
X94407Y84010D01*
X94351Y83995D01*
X94278Y83952D01*
X94201Y83917D01*
X94156Y83879D01*
X94106Y83850D01*
X94048Y83788D01*
X93984Y83734D01*
X93952Y83685D01*
X93912Y83642D01*
X93873Y83567D01*
X93827Y83497D01*
X93809Y83441D01*
X93782Y83389D01*
X93771Y83321D01*
X93741Y83226D01*
X93738Y83126D01*
X93727Y83058D01*
X93727Y64262D01*
X93735Y64204D01*
X93733Y64146D01*
X93755Y64064D01*
X93767Y63981D01*
X93791Y63927D01*
X93805Y63871D01*
X93848Y63798D01*
X93883Y63721D01*
X93921Y63676D01*
X93951Y63626D01*
X94012Y63568D01*
X94067Y63504D01*
X94115Y63472D01*
X94158Y63432D01*
X94233Y63393D01*
X94303Y63347D01*
X94359Y63329D01*
X94411Y63302D01*
X94479Y63291D01*
X94574Y63261D01*
X94674Y63258D01*
X94742Y63247D01*
X148844Y63247D01*
X148902Y63255D01*
G37*
D10*
X558800Y41910D02*
X6350Y41910D01*
X0Y48260D01*
X0Y419100D01*
X236220Y425450D02*
X306070Y495300D01*
X306070Y572770D01*
X335280Y892810D02*
X341630Y899160D01*
X579120Y899160D01*
X800100Y527050D02*
X793750Y520700D01*
X519430Y520700D01*
X519430Y403860D01*
X542290Y381000D01*
X542290Y355600D01*
X548640Y349250D01*
X563880Y349250D01*
X570230Y355600D01*
X570230Y389890D01*
X584200Y403860D01*
X800100Y397510D02*
X800100Y6350D01*
X793750Y0D01*
X571500Y0D01*
X565150Y6350D01*
X565150Y35560D01*
X558800Y41910D01*
X584200Y403860D02*
X793750Y403860D01*
X800100Y397510D01*
X236220Y425450D02*
X6350Y425450D01*
X0Y419100D01*
X328930Y762000D02*
X335280Y768350D01*
X585470Y768350D02*
X591820Y762000D01*
X328930Y762000D02*
X279400Y762000D01*
X335280Y768350D02*
X335280Y892810D01*
X641350Y762000D02*
X647700Y768350D01*
X647700Y892810D01*
X641350Y762000D02*
X591820Y762000D01*
X585470Y892810D02*
X579120Y899160D01*
X585470Y892810D02*
X585470Y768350D01*
X800100Y863600D02*
X800100Y527050D01*
X243840Y635000D02*
X110490Y635000D01*
X104140Y641350D01*
X104140Y892810D01*
X110490Y899160D02*
X266700Y899160D01*
X110490Y899160D02*
X104140Y892810D01*
X273050Y768350D02*
X279400Y762000D01*
X273050Y768350D02*
X273050Y892810D01*
X266700Y899160D01*
X243840Y635000D02*
X306070Y572770D01*
X647700Y892810D02*
X654050Y899160D01*
X712470Y876300D02*
X718820Y869950D01*
X712470Y876300D02*
X712470Y892810D01*
X706120Y899160D01*
X654050Y899160D01*
X793750Y869950D02*
X800100Y863600D01*
X793750Y869950D02*
X718820Y869950D01*
D11*
X783590Y195580D03*
D12*
X615340Y213360D03*
X634340Y213360D03*
D13*
X560070Y249530D03*
X560070Y230530D03*
D14*
X210430Y278130D03*
X193430Y278130D03*
X210430Y236220D03*
X193430Y236220D03*
D15*
X302260Y162170D03*
X302260Y145170D03*
D14*
X479180Y252730D03*
X496180Y252730D03*
X479180Y312420D03*
X496180Y312420D03*
X210430Y326390D03*
X193430Y326390D03*
D15*
X346710Y162170D03*
X346710Y145170D03*
X501650Y363610D03*
X501650Y380610D03*
X422910Y428380D03*
X422910Y445380D03*
X379730Y428380D03*
X379730Y445380D03*
D14*
X214240Y393700D03*
X197240Y393700D03*
D15*
X402590Y162170D03*
X402590Y145170D03*
D12*
X650900Y254000D03*
X669900Y254000D03*
D14*
X479180Y201930D03*
X496180Y201930D03*
D15*
X481330Y399170D03*
X481330Y416170D03*
X450850Y425840D03*
X450850Y442840D03*
X358140Y428380D03*
X358140Y445380D03*
D14*
X210430Y373380D03*
X193430Y373380D03*
X210430Y194310D03*
X193430Y194310D03*
G36*
X234998Y160597D02*
X243853Y169452D01*
X252002Y161303D01*
X243147Y152448D01*
X234998Y160597D01*
G37*
G36*
X222978Y148577D02*
X231833Y157432D01*
X239982Y149283D01*
X231127Y140428D01*
X222978Y148577D01*
G37*
D15*
X280670Y162170D03*
X280670Y145170D03*
D14*
X479180Y222250D03*
X496180Y222250D03*
D15*
X481330Y380610D03*
X481330Y363610D03*
D14*
G36*
X269192Y427413D02*
X260337Y418558D01*
X252188Y426707D01*
X261043Y435562D01*
X269192Y427413D01*
G37*
G36*
X281212Y439433D02*
X272357Y430578D01*
X264208Y438727D01*
X273063Y447582D01*
X281212Y439433D01*
G37*
X210430Y215900D03*
X193430Y215900D03*
D13*
X220980Y852830D03*
X220980Y871830D03*
D12*
X274980Y702310D03*
X293980Y702310D03*
D15*
X487680Y588890D03*
X487680Y571890D03*
D14*
X522360Y645160D03*
X539360Y645160D03*
D15*
X378460Y733180D03*
X378460Y750180D03*
X398780Y571110D03*
X398780Y554110D03*
D12*
X274980Y680720D03*
X293980Y680720D03*
D14*
X522360Y685800D03*
X539360Y685800D03*
X509660Y708660D03*
X526660Y708660D03*
D15*
X349250Y703970D03*
X349250Y720970D03*
D12*
X274980Y659130D03*
X293980Y659130D03*
D14*
X522360Y665480D03*
X539360Y665480D03*
D12*
X274980Y723900D03*
X293980Y723900D03*
D15*
X400050Y733180D03*
X400050Y750180D03*
X16510Y377580D03*
X16510Y394580D03*
D14*
X766200Y257810D03*
X783200Y257810D03*
D15*
X124460Y675250D03*
X124460Y658250D03*
X200660Y676520D03*
X200660Y659520D03*
D14*
X244720Y822960D03*
X227720Y822960D03*
X244720Y749300D03*
X227720Y749300D03*
X582930Y723020D03*
X582930Y740020D03*
D15*
G36*
X628663Y185372D02*
X636812Y177223D01*
X627957Y168368D01*
X619808Y176517D01*
X628663Y185372D01*
G37*
G36*
X616643Y197392D02*
X624792Y189243D01*
X615937Y180388D01*
X607788Y188537D01*
X616643Y197392D01*
G37*
D14*
X242570Y868290D03*
X242570Y851290D03*
D15*
X227720Y702310D03*
X244720Y702310D03*
X227720Y680720D03*
X244720Y680720D03*
X227720Y659130D03*
X244720Y659130D03*
X227720Y723900D03*
X244720Y723900D03*
X519040Y158750D03*
X502040Y158750D03*
D11*
X783590Y231140D03*
X595630Y16510D03*
D14*
X563880Y686190D03*
X563880Y703190D03*
X566420Y576970D03*
X566420Y593970D03*
X566420Y626990D03*
X566420Y609990D03*
X784860Y771770D03*
X784860Y754770D03*
X723900Y771770D03*
X723900Y754770D03*
X566420Y644280D03*
X566420Y661280D03*
D15*
X539360Y795020D03*
X522360Y795020D03*
X539360Y728980D03*
X522360Y728980D03*
D14*
X561340Y750180D03*
X561340Y733180D03*
D16*
X573660Y177100D03*
X573660Y169100D03*
X573660Y161100D03*
X573660Y153100D03*
X589660Y153100D03*
X589660Y161100D03*
X589660Y169100D03*
X589660Y177100D03*
X573660Y139000D03*
X573660Y131000D03*
X573660Y123000D03*
X573660Y115000D03*
X589660Y115000D03*
X589660Y123000D03*
X589660Y131000D03*
X589660Y139000D03*
X573660Y100900D03*
X573660Y92900D03*
X573660Y84900D03*
X573660Y76900D03*
X589660Y76900D03*
X589660Y84900D03*
X589660Y92900D03*
X589660Y100900D03*
X588900Y62800D03*
X588900Y54800D03*
X588900Y46800D03*
X588900Y38800D03*
X604900Y38800D03*
X604900Y46800D03*
X604900Y54800D03*
X604900Y62800D03*
D17*
X76200Y406400D03*
X36830Y76200D03*
D18*
X486760Y611240D03*
D19*
X486760Y617740D03*
X486760Y622740D03*
X486760Y627740D03*
X486760Y632740D03*
X486760Y637740D03*
X486760Y642740D03*
X486760Y647740D03*
X486760Y652740D03*
X486760Y657740D03*
X486760Y662740D03*
D18*
X486760Y689240D03*
D20*
X468260Y707740D03*
D21*
X451760Y707740D03*
X446760Y707740D03*
X441760Y707740D03*
X436760Y707740D03*
X431760Y707740D03*
X426760Y707740D03*
X421760Y707740D03*
X416760Y707740D03*
X411760Y707740D03*
X406760Y707740D03*
D20*
X390260Y707740D03*
D18*
X371760Y689240D03*
D19*
X371760Y672740D03*
X371760Y667740D03*
X371760Y662740D03*
X371760Y657740D03*
X371760Y652740D03*
X371760Y647740D03*
X371760Y642740D03*
X371760Y637740D03*
X371760Y632740D03*
X371760Y627740D03*
D18*
X371760Y611240D03*
D20*
X390260Y592740D03*
D21*
X406760Y592740D03*
X411760Y592740D03*
X416760Y592740D03*
X421760Y592740D03*
X426760Y592740D03*
X431760Y592740D03*
X436760Y592740D03*
X441760Y592740D03*
X446760Y592740D03*
X451760Y592740D03*
D20*
X468260Y592740D03*
D21*
X456760Y592740D03*
X461760Y592740D03*
X401760Y592740D03*
X396760Y592740D03*
D19*
X371760Y622740D03*
X371760Y617740D03*
X371760Y677740D03*
X371760Y682740D03*
D21*
X401760Y707740D03*
X396760Y707740D03*
X456760Y707740D03*
X461760Y707740D03*
D19*
X486760Y667740D03*
X486760Y672740D03*
X486760Y677740D03*
X486760Y682740D03*
D22*
X429260Y650240D03*
D23*
X763160Y285680D03*
X781160Y308680D03*
X763160Y308680D03*
X781160Y285680D03*
D24*
X147019Y676250D03*
X147019Y666750D03*
X147019Y657250D03*
X173021Y657250D03*
X173021Y676250D03*
D25*
X245720Y797861D03*
X236220Y797861D03*
X226720Y797861D03*
X226720Y771859D03*
X245720Y771859D03*
D26*
X534740Y834230D03*
X389740Y834230D03*
X540740Y883230D03*
X383740Y883230D03*
D27*
X504740Y822730D03*
X499740Y822730D03*
X494740Y822730D03*
X489740Y822730D03*
X484740Y822730D03*
X479740Y822730D03*
X474740Y822730D03*
X469740Y822730D03*
X464740Y822730D03*
X459740Y822730D03*
X454740Y822730D03*
X449740Y822730D03*
X444740Y822730D03*
X439740Y822730D03*
X434740Y822730D03*
X429740Y822730D03*
X424740Y822730D03*
X419740Y822730D03*
X414740Y822730D03*
D28*
X787400Y176530D03*
X787400Y163830D03*
X787400Y151130D03*
X787400Y138430D03*
X787400Y125730D03*
X787400Y113030D03*
X787400Y100330D03*
X787400Y87630D03*
X787400Y74930D03*
X787400Y62230D03*
X787400Y49530D03*
X787400Y36830D03*
X787400Y24130D03*
X787400Y11430D03*
D29*
X426720Y769620D03*
D30*
X421720Y765245D03*
X421720Y773995D03*
X416720Y765245D03*
X416720Y773995D03*
X431720Y773995D03*
X436720Y773995D03*
X431720Y765245D03*
X436720Y765245D03*
D29*
X457200Y769620D03*
D30*
X462200Y773995D03*
X462200Y765245D03*
X467200Y773995D03*
X467200Y765245D03*
X452200Y765245D03*
X447200Y765245D03*
X452200Y773995D03*
X447200Y773995D03*
D31*
X307340Y746760D03*
X325120Y746760D03*
D14*
X365760Y776360D03*
X365760Y793360D03*
D15*
X387350Y776360D03*
X387350Y793360D03*
D32*
X345440Y294640D03*
D33*
X453065Y205640D03*
D34*
X453065Y212140D03*
X453065Y217140D03*
X453065Y222140D03*
X453065Y227140D03*
X453065Y232140D03*
X453065Y237140D03*
X453065Y242140D03*
X453065Y247140D03*
X453065Y252140D03*
X453065Y257140D03*
X453065Y262140D03*
X453065Y267140D03*
X453065Y272140D03*
X453065Y277140D03*
X453065Y282140D03*
X453065Y287140D03*
X453065Y292140D03*
X453065Y297140D03*
X453065Y302140D03*
X453065Y307140D03*
X453065Y312140D03*
X453065Y317140D03*
X453065Y322140D03*
X453065Y327140D03*
X453065Y332140D03*
X453065Y337140D03*
X453065Y342140D03*
X453065Y347140D03*
X453065Y352140D03*
X453065Y357140D03*
X453065Y362140D03*
X453065Y367140D03*
X453065Y372140D03*
X453065Y377140D03*
D33*
X453065Y383640D03*
D35*
X434440Y402265D03*
D36*
X427940Y402265D03*
X422940Y402265D03*
X417940Y402265D03*
X412940Y402265D03*
X407940Y402265D03*
X402940Y402265D03*
X397940Y402265D03*
X392940Y402265D03*
X387940Y402265D03*
X382940Y402265D03*
X377940Y402265D03*
X372940Y402265D03*
X367940Y402265D03*
X362940Y402265D03*
X357940Y402265D03*
X352940Y402265D03*
X347940Y402265D03*
X342940Y402265D03*
X337940Y402265D03*
X332940Y402265D03*
X327940Y402265D03*
X322940Y402265D03*
X317940Y402265D03*
X312940Y402265D03*
X307940Y402265D03*
X302940Y402265D03*
X297940Y402265D03*
X292940Y402265D03*
X287940Y402265D03*
X282940Y402265D03*
X277940Y402265D03*
X272940Y402265D03*
X267940Y402265D03*
X262940Y402265D03*
D35*
X256440Y402265D03*
D33*
X237815Y383640D03*
D34*
X237815Y377140D03*
X237815Y372140D03*
X237815Y367140D03*
X237815Y362140D03*
X237815Y357140D03*
X237815Y352140D03*
X237815Y347140D03*
X237815Y342140D03*
X237815Y337140D03*
X237815Y332140D03*
X237815Y327140D03*
X237815Y322140D03*
X237815Y317140D03*
X237815Y312140D03*
X237815Y307140D03*
X237815Y302140D03*
X237815Y297140D03*
X237815Y292140D03*
X237815Y287140D03*
X237815Y282140D03*
X237815Y277140D03*
X237815Y272140D03*
X237815Y267140D03*
X237815Y262140D03*
X237815Y257140D03*
X237815Y252140D03*
X237815Y247140D03*
X237815Y242140D03*
X237815Y237140D03*
X237815Y232140D03*
X237815Y227140D03*
X237815Y222140D03*
X237815Y217140D03*
X237815Y212140D03*
D33*
X237815Y205640D03*
D35*
X256440Y187015D03*
D36*
X262940Y187015D03*
X267940Y187015D03*
X272940Y187015D03*
X277940Y187015D03*
X282940Y187015D03*
X287940Y187015D03*
X292940Y187015D03*
X297940Y187015D03*
X302940Y187015D03*
X307940Y187015D03*
X312940Y187015D03*
X317940Y187015D03*
X322940Y187015D03*
X327940Y187015D03*
X332940Y187015D03*
X337940Y187015D03*
X342940Y187015D03*
X347940Y187015D03*
X352940Y187015D03*
X357940Y187015D03*
X362940Y187015D03*
X367940Y187015D03*
X372940Y187015D03*
X377940Y187015D03*
X382940Y187015D03*
X387940Y187015D03*
X392940Y187015D03*
X397940Y187015D03*
X402940Y187015D03*
X407940Y187015D03*
X412940Y187015D03*
X417940Y187015D03*
X422940Y187015D03*
X427940Y187015D03*
D35*
X434440Y187015D03*
D37*
X41530Y378320D03*
X41530Y370320D03*
X41530Y362320D03*
X41530Y354320D03*
X41530Y346320D03*
X41530Y338320D03*
X41530Y330320D03*
X41530Y322320D03*
X41530Y314320D03*
X41530Y306320D03*
X41530Y298320D03*
X41530Y290320D03*
X41530Y282320D03*
X41530Y274320D03*
X41530Y266320D03*
X41530Y258320D03*
X41530Y250320D03*
X41530Y242320D03*
X41530Y234320D03*
X41530Y226320D03*
X41530Y218320D03*
X41530Y210320D03*
X41530Y202320D03*
X41530Y194320D03*
X41530Y186320D03*
X41530Y178320D03*
X41530Y170320D03*
X159130Y170320D03*
X159130Y178320D03*
X159130Y186320D03*
X159130Y194320D03*
X159130Y202320D03*
X159130Y210320D03*
X159130Y218320D03*
X159130Y226320D03*
X159130Y234320D03*
X159130Y242320D03*
X159130Y250320D03*
X159130Y258320D03*
X159130Y266320D03*
X159130Y274320D03*
X159130Y282320D03*
X159130Y290320D03*
X159130Y298320D03*
X159130Y306320D03*
X159130Y314320D03*
X159130Y322320D03*
X159130Y330320D03*
X159130Y338320D03*
X159130Y346320D03*
X159130Y354320D03*
X159130Y362320D03*
X159130Y370320D03*
X159130Y378320D03*
D15*
X16510Y360290D03*
X16510Y343290D03*
X16510Y313300D03*
X16510Y296300D03*
X16510Y272660D03*
X16510Y255660D03*
X427990Y162170D03*
X427990Y145170D03*
X54220Y139700D03*
X37220Y139700D03*
X16510Y171840D03*
X16510Y188840D03*
D14*
X185810Y298450D03*
X202810Y298450D03*
X185810Y345440D03*
X202810Y345440D03*
D15*
X714130Y257810D03*
X731130Y257810D03*
X749300Y257420D03*
X749300Y240420D03*
X448310Y162170D03*
X448310Y145170D03*
D14*
X226940Y414020D03*
X209940Y414020D03*
D38*
X652780Y345440D03*
D39*
X640280Y323940D03*
X645280Y323940D03*
X650280Y323940D03*
X655280Y323940D03*
X660280Y323940D03*
X665280Y323940D03*
D40*
X674280Y332940D03*
X674280Y337940D03*
X674280Y342940D03*
X674280Y347940D03*
X674280Y352940D03*
X674280Y357940D03*
D39*
X665280Y366940D03*
X660280Y366940D03*
X655280Y366940D03*
X650280Y366940D03*
X645280Y366940D03*
X640280Y366940D03*
D40*
X631280Y357940D03*
X631280Y352940D03*
X631280Y347940D03*
X631280Y342940D03*
X631280Y337940D03*
X631280Y332940D03*
D41*
X739140Y813640D03*
X748640Y791640D03*
X729640Y791640D03*
X774700Y813640D03*
X784200Y791640D03*
X765200Y791640D03*
D14*
X744220Y771770D03*
X744220Y754770D03*
X764540Y771770D03*
X764540Y754770D03*
D42*
X191770Y260350D03*
X199390Y260350D03*
D43*
X195580Y260350D03*
D44*
X125160Y398400D03*
X133160Y398400D03*
X141160Y398400D03*
X149160Y398400D03*
X149160Y414400D03*
X141160Y414400D03*
X133160Y414400D03*
X125160Y414400D03*
D45*
X758190Y830240D03*
X758190Y851240D03*
X783590Y830240D03*
X783590Y851240D03*
D46*
X675320Y287020D03*
X635320Y287020D03*
D24*
X602281Y274980D03*
X602281Y284480D03*
X602281Y293980D03*
X576279Y293980D03*
X576279Y274980D03*
D14*
X615070Y254000D03*
X632070Y254000D03*
X579510Y254000D03*
X596510Y254000D03*
D15*
X559680Y198120D03*
X542680Y198120D03*
D13*
X538480Y230530D03*
X538480Y249530D03*
D42*
X260350Y71120D03*
X252730Y71120D03*
D43*
X256540Y71120D03*
D42*
X242570Y71120D03*
X234950Y71120D03*
D43*
X238760Y71120D03*
D15*
X590940Y313690D03*
X607940Y313690D03*
X608720Y391160D03*
X625720Y391160D03*
D14*
X607940Y334010D03*
X590940Y334010D03*
X607940Y355600D03*
X590940Y355600D03*
X651900Y391160D03*
X668900Y391160D03*
X702310Y323460D03*
X702310Y306460D03*
X702310Y275980D03*
X702310Y292980D03*
D23*
X725060Y285680D03*
X743060Y308680D03*
X725060Y308680D03*
X743060Y285680D03*
D15*
X702310Y336940D03*
X702310Y353940D03*
D44*
X316800Y79120D03*
X308800Y79120D03*
X300800Y79120D03*
X292800Y79120D03*
X292800Y63120D03*
X300800Y63120D03*
X308800Y63120D03*
X316800Y63120D03*
D16*
X529210Y296480D03*
X529210Y288480D03*
X529210Y280480D03*
X529210Y272480D03*
X545210Y272480D03*
X545210Y280480D03*
X545210Y288480D03*
X545210Y296480D03*
D13*
X193040Y93320D03*
X193040Y74320D03*
D24*
X113999Y126340D03*
X113999Y116840D03*
X113999Y107340D03*
X140001Y107340D03*
X140001Y126340D03*
D15*
X86360Y122800D03*
X86360Y105800D03*
X165100Y122800D03*
X165100Y105800D03*
D42*
X260350Y101600D03*
X252730Y101600D03*
D43*
X256540Y101600D03*
D42*
X242570Y101600D03*
X234950Y101600D03*
D43*
X238760Y101600D03*
D14*
X727710Y385690D03*
X727710Y368690D03*
D15*
X727710Y353940D03*
X727710Y336940D03*
X496180Y290830D03*
X479180Y290830D03*
D11*
X783590Y213360D03*
D14*
X16510Y232020D03*
X16510Y215020D03*
D31*
X513080Y591820D03*
D47*
X780080Y346100D03*
X780080Y355600D03*
X780080Y365100D03*
X754080Y346100D03*
X754080Y355600D03*
X754080Y365100D03*
D48*
X655840Y46880D03*
X655840Y51880D03*
X655840Y56880D03*
X655840Y61880D03*
X655840Y66880D03*
X655840Y71880D03*
X655840Y76880D03*
X655840Y81880D03*
X655840Y86880D03*
X655840Y91880D03*
X655840Y96880D03*
X655840Y101880D03*
X655840Y106880D03*
X655840Y111880D03*
X655840Y116880D03*
X655840Y121880D03*
X655840Y126880D03*
X655840Y131880D03*
X655840Y136880D03*
X655840Y141880D03*
X655840Y146880D03*
X655840Y151880D03*
X655840Y156880D03*
X655840Y161880D03*
X655840Y166880D03*
X655840Y171880D03*
X655840Y176880D03*
X655840Y181880D03*
X655840Y186880D03*
X655840Y191880D03*
D49*
X673140Y24700D03*
X673140Y214060D03*
D12*
X498500Y181610D03*
X517500Y181610D03*
D14*
X516890Y228990D03*
X516890Y245990D03*
D50*
X638340Y547460D03*
X658340Y547460D03*
X678340Y547460D03*
X698340Y547460D03*
X718340Y547460D03*
X738340Y547460D03*
D51*
X773340Y582460D03*
X773340Y602460D03*
X773340Y622460D03*
X773340Y642460D03*
X773340Y662460D03*
X773340Y682460D03*
D50*
X738340Y717460D03*
X718340Y717460D03*
X698340Y717460D03*
X678340Y717460D03*
X658340Y717460D03*
X638340Y717460D03*
D51*
X603340Y682460D03*
X603340Y662460D03*
X603340Y642460D03*
X603340Y622460D03*
X603340Y602460D03*
X603340Y582460D03*
D14*
X588010Y557140D03*
X588010Y540140D03*
D42*
X621030Y725170D03*
X613410Y725170D03*
D43*
X617220Y725170D03*
D52*
X703820Y861360D03*
D53*
X693420Y884110D03*
X693420Y812610D03*
D52*
X703820Y854860D03*
X703820Y848360D03*
X703820Y841860D03*
X703820Y835360D03*
D15*
X675640Y771280D03*
X675640Y788280D03*
D14*
X695960Y771280D03*
X695960Y788280D03*
D42*
X664210Y753110D03*
X656590Y753110D03*
D43*
X660400Y753110D03*
D54*
X162560Y744220D03*
X137160Y744220D03*
X162560Y769620D03*
X137160Y769620D03*
X162560Y795020D03*
X137160Y795020D03*
X162560Y820420D03*
X137160Y820420D03*
X162560Y845820D03*
X137160Y845820D03*
D55*
X540360Y775000D03*
X530860Y775000D03*
X521360Y775000D03*
X540360Y749000D03*
X530860Y749000D03*
X521360Y749000D03*
D41*
X541655Y535735D03*
X532155Y557735D03*
X551155Y557735D03*
D14*
X568325Y540140D03*
X568325Y557140D03*
X546100Y593970D03*
X546100Y576970D03*
X546100Y609990D03*
X546100Y626990D03*
D56*
X429260Y650240D03*
D57*
X411480Y632460D03*
X411480Y668020D03*
X447040Y668020D03*
X447040Y632460D03*
D58*
X345440Y294640D03*
D54*
X325120Y314960D03*
X325120Y274320D03*
X365760Y274320D03*
X365760Y314960D03*
D59*
X652780Y345440D03*
M02*
