G04 EAGLE Gerber RS-274X export*
G75*
%MOMM*%
%FSLAX34Y34*%
%LPD*%
%INKantenfräsen*%
%IPPOS*%
%AMOC8*
5,1,8,0,0,1.08239X$1,22.5*%
G01*
%ADD10C,0.000000*%


D10*
X382270Y0D02*
X6350Y0D01*
X0Y6350D01*
X0Y513080D01*
X104140Y519430D02*
X175260Y590550D01*
X175260Y660400D01*
X213360Y986790D02*
X219710Y993140D01*
X436880Y993140D01*
X532130Y967740D02*
X628650Y967740D01*
X668020Y621030D02*
X661670Y614680D01*
X386080Y614680D01*
X386080Y499110D01*
X410210Y474980D01*
X410210Y449580D01*
X416560Y443230D01*
X431800Y443230D01*
X438150Y449580D01*
X438150Y483870D01*
X452120Y497840D01*
X668020Y491490D02*
X668020Y87630D01*
X661670Y81280D01*
X439420Y81280D01*
X433070Y87630D01*
X433070Y129540D01*
X426720Y135890D01*
X419100Y135890D01*
X452120Y497840D02*
X661670Y497840D01*
X668020Y491490D01*
X635000Y961390D02*
X628650Y967740D01*
X419100Y135890D02*
X412750Y129540D01*
X412750Y87630D01*
X104140Y519430D02*
X6350Y519430D01*
X0Y513080D01*
X152400Y849630D02*
X158750Y855980D01*
X207010Y855980D02*
X213360Y862330D01*
X443230Y862330D02*
X449580Y855980D01*
X207010Y855980D02*
X158750Y855980D01*
X213360Y862330D02*
X213360Y986790D01*
X519430Y855980D02*
X525780Y862330D01*
X525780Y961390D02*
X532130Y967740D01*
X525780Y961390D02*
X525780Y862330D01*
X519430Y855980D02*
X449580Y855980D01*
X443230Y986790D02*
X436880Y993140D01*
X443230Y986790D02*
X443230Y862330D01*
X175260Y660400D02*
X152400Y683260D01*
X152400Y849630D01*
X635000Y862330D02*
X635000Y961390D01*
X635000Y862330D02*
X668020Y829310D01*
X668020Y621030D01*
X412750Y87630D02*
X388620Y63500D01*
X388620Y6350D01*
X382270Y0D01*
M02*
