M48
;GenerationSoftware,Autodesk,EAGLE,9.6.2*%
;CreationDate,2021-06-26T12:23:41Z*%
FMAT,2
ICI,OFF
METRIC,TZ,000.000
T12C0.300
T11C0.350
T10C0.400
T9C0.500
T8C0.600
T7C0.800
T6C1.000
T5C1.200
T4C1.250
T3C1.300
T2C1.600
T1C2.000
%
G90
M71
T1
X34544Y29464
T2
X42926Y65024
T3
X38374Y88323
X54074Y88323
X38974Y83423
X53474Y83423
T4
X69342Y81261
X69342Y88411
T5
X65278Y34544
T6
X13716Y82042
X16256Y82042
X32512Y31496
X32512Y27432
X36576Y27432
X36576Y31496
X16256Y84582
X13716Y84582
X13716Y79502
X16256Y79502
X13716Y76962
X16256Y76962
X13716Y74422
X16256Y74422
T7
X41148Y63246
X41148Y66802
X44704Y66802
X44704Y63246
T8
X34544Y31750
X32258Y29464
X34544Y27178
X36830Y29464
T9
X69342Y14605
X4572Y41529
X57404Y1651
X10668Y41529
X10668Y40259
X4572Y40259
X61976Y2921
X75946Y17907
X1905Y5207
X68072Y14605
X68072Y17399
X69342Y17399
X3683Y5207
X5461Y5207
X1905Y10033
X3683Y10033
X5461Y10033
X73660Y20701
T10
X47752Y16383
X48895Y16383
X47625Y18923
X69596Y76454
X41974Y84455
X68072Y83566
X46482Y18923
X58166Y66167
X62357Y66167
X24257Y87884
X23114Y89024
X62738Y74803
X64008Y74803
X65786Y73152
X1651Y15240
X1651Y13970
X1651Y12700
X73152Y22352
X58166Y22860
X59436Y22860
X59436Y19812
X60706Y19812
X6731Y13970
X6731Y12827
X6731Y11684
X60706Y22860
X58166Y19812
X56007Y26416
X65786Y69723
X71501Y38227
X52832Y19939
X56007Y27686
X51689Y19939
X51689Y21717
X60198Y73406
X61214Y73406
X74422Y22352
X52832Y21717
X53975Y21717
X27432Y10668
X27432Y7874
X62103Y31877
X63119Y31877
X25654Y11430
X26416Y12192
X72771Y85979
X73533Y85217
X71628Y73152
X71628Y70358
X24257Y89030
X75692Y22352
X26416Y72390
X25400Y72390
X26416Y65913
X25400Y65913
X26416Y68072
X25400Y68072
X26416Y70231
X25400Y70231
T11
X30480Y37084
X58674Y39116
X57912Y38354
X32512Y34798
X54610Y60198
X32258Y36322
T12
X48387Y43053
X46863Y36703
X59944Y24130
X63246Y24130
X68580Y25400
X69469Y26416
X74422Y32004
X72009Y32512
X78486Y38100
X76200Y33528
X79121Y32258
X71628Y39370
X71501Y35560
X59690Y36830
X57785Y32131
X58928Y27813
X56896Y21463
X50673Y21844
X50673Y19939
X53086Y18161
X46482Y21971
X46482Y24003
X43688Y23749
X50292Y25273
X50800Y30861
X38862Y37338
X35052Y38354
X29845Y38608
X28575Y42037
X17272Y32639
X2794Y28575
X17145Y16383
X2794Y33274
X8636Y9398
X10033Y11684
X16510Y9398
X20828Y7366
X28448Y6858
X53340Y26416
X78486Y24511
X73787Y24130
X30988Y67310
X30607Y69342
X30861Y71374
X28448Y63500
X13614Y66675
X11303Y65786
X21336Y75692
X22733Y81153
X21590Y82296
X20701Y87249
X33147Y71501
X40132Y69469
X51562Y60579
X60325Y55753
X57658Y70358
X75057Y80518
X78613Y80518
X37338Y20320
X39878Y20320
X42164Y20320
X29210Y17018
X61595Y4699
X57658Y4699
X68834Y32004
X8890Y25908
X10160Y24130
X10668Y22606
X9652Y18542
X12954Y18288
X14351Y21209
X12065Y16129
X4191Y15875
X6096Y35814
X11684Y37338
X17145Y37338
X29210Y34036
X27432Y38100
X29464Y32004
X29718Y29718
X34544Y23876
X31496Y23876
X32004Y20574
X32766Y22606
X40640Y23876
X39116Y25654
X37084Y23876
X35814Y22606
X39116Y22606
X37338Y34036
X30480Y36068
X30988Y34036
X28448Y61214
X41910Y50800
X38354Y54610
X45593Y46863
X56007Y6985
X56007Y9271
X56007Y10795
X60071Y14605
X59817Y18542
X57531Y18542
X70485Y21844
X64643Y21336
X64135Y18796
X48387Y23368
X48514Y70993
X38608Y67310
X46990Y67310
X53340Y62484
X46482Y30226
X56515Y14605
X7493Y33655
X17272Y35306
X9525Y30607
X21082Y11176
X23495Y40259
X16955Y27432
X35052Y41402
X42037Y38227
X51308Y36513
X73279Y7620
X71184Y4763
X73914Y4318
X51181Y80264
X48387Y46482
X42418Y33020
X48387Y44196
X42926Y30861
X50927Y76454
X50927Y69342
X48260Y73533
X35179Y68961
X49276Y73660
X34290Y68528
X58293Y71374
X18669Y70739
X41656Y69342
X41656Y25273
X32512Y67774
X41656Y26162
X67310Y36322
X51943Y28829
X33782Y66929
X41656Y27178
X50927Y35179
X61214Y36830
X39878Y57785
X36830Y71413
X48768Y59817
X52197Y63500
X26040Y41402
X22352Y21209
X51435Y68580
X36195Y70358
X42799Y17018
X43688Y22098
X51562Y66548
X43561Y36957
X42672Y75375
X40259Y72390
X45720Y75375
X38989Y76327
X41656Y28448
X38100Y71374
X58420Y56896
X40640Y29972
X44196Y69469
X58039Y63500
X55118Y64516
X55118Y66548
X48768Y55753
X43474Y84455
X44974Y84455
X46474Y84455
X49911Y64135
X47117Y63246
X36068Y38354
X38354Y52959
X34163Y38608
X38354Y55626
X40640Y28702
X29210Y37846
X57912Y68580
X41402Y30861
X53848Y70866
X58420Y58420
X39751Y54356
X17692Y29591
X17946Y34544
X56642Y77343
X30099Y59436
X2794Y17032
X2794Y27432
X2794Y31432
X2794Y36232
X2794Y37832
X30955Y9144
X38862Y20320
X41021Y20320
X32512Y7620
X58801Y3175
X47371Y23749
X11557Y21336
X28448Y24130
X29972Y26035
X12446Y23241
X12954Y22352
X30607Y24892
X11684Y18161
X29464Y21336
X30353Y20828
X10668Y16383
X14478Y16383
X30988Y20066
X26543Y33655
X10668Y30988
X9525Y31496
X27559Y34163
X28321Y34925
X10287Y32893
X9652Y34163
X28067Y35941
X25781Y20955
X9271Y17145
X26416Y21844
X5334Y20955
X8382Y20828
X27051Y22606
X26289Y23241
X5588Y22606
X27813Y27813
X8509Y23622
X27813Y29337
X7239Y25781
X8128Y24765
X27305Y28575
X7366Y28194
X27940Y31242
X28511Y32131
X6604Y29083
X7874Y30099
X27876Y33020
X25273Y33020
X5588Y31750
X30099Y62230
X8509Y34290
X7112Y34671
X27686Y37084
X26543Y37211
X10795Y36449
X10668Y37846
X26289Y38100
X38100Y38608
X38862Y50800
X39243Y38608
X40386Y50800
X48387Y45339
X42926Y32004
X50927Y34163
X62738Y36830
X61849Y34544
X48768Y33782
X51943Y27178
X68961Y34290
X36068Y20320
X30099Y9144
X29210Y9144
X34290Y20320
X53276Y56832
X47244Y20193
X44831Y17145
X28067Y17018
X25146Y16764
X22733Y19431
X21717Y37338
X23495Y41275
X37084Y38608
X46990Y38608
X42037Y39180
X47498Y75375
X42672Y45974
X38100Y45974
X40259Y48768
X55626Y79248
X33528Y17018
X52959Y10414
X34671Y12954
X36703Y11303
X50165Y35687
X42291Y42291
X37973Y42291
X23114Y39370
X31623Y12065
X53594Y5588
X36449Y45720
X45212Y45720
X57658Y60960
X27686Y45212
X21844Y32639
X34671Y16891
X29845Y12319
X46938Y31206
X54483Y26416
X57658Y59436
X19177Y35814
X76327Y71374
X27559Y12827
X40005Y10414
X40259Y13208
X37465Y16764
X72771Y3175
X76835Y4318
X76581Y8128
X40005Y17018
X68834Y36576
X76581Y6858
X69088Y33274
X75819Y9652
X42418Y24384
X75184Y72136
X43053Y25146
X76327Y73152
X60833Y11557
X21463Y65024
X21717Y23622
X21717Y27769
X65532Y30988
X51689Y30353
X42037Y35560
X45720Y48006
X47498Y46736
X42418Y34290
X74295Y34544
X47244Y32766
X48514Y32766
X74295Y36449
X27051Y29972
X6223Y26035
X28829Y28702
X11557Y25400
X12573Y24257
X29845Y27686
X43815Y13970
X45974Y13970
X21971Y14097
X18923Y18288
X55118Y77470
X47504Y77470
X18034Y21209
X18034Y23495
X18161Y27559
X21336Y30480
X18161Y32639
X22352Y34798
X18034Y37338
X18288Y39624
X19812Y41402
X16383Y41440
X3175Y40640
X2794Y34290
X2794Y29591
X2794Y25527
X2794Y21463
X2794Y18923
X72898Y73533
M30